<svg class="main-svg" xmlns="http://www.w3.org/2000/svg" xmlns:xlink="http://www.w3.org/1999/xlink" width="700" height="350" viewBox="0 0 700 350"><rect x="0" y="0" width="700" height="350" style="fill: rgb(33, 34, 44); fill-opacity: 1;"/><defs id="defs-9de2cf"><g class="clips"><clipPath id="clip9de2cfxyplot" class="plotclip"><rect width="626" height="274"/></clipPath><clipPath class="axesclip" id="clip9de2cfx"><rect x="44" y="0" width="626" height="350"/></clipPath><clipPath class="axesclip" id="clip9de2cfy"><rect x="0" y="46" width="700" height="274"/></clipPath><clipPath class="axesclip" id="clip9de2cfxy"><rect x="44" y="46" width="626" height="274"/></clipPath></g><g class="gradients"/><g class="patterns"/></defs><g class="bglayer"/><g class="layer-below"><g class="imagelayer"/><g class="shapelayer"/></g><g class="cartesianlayer"><g class="subplot xy"><g class="layer-subplot"><g class="shapelayer"/><g class="imagelayer"/></g><g class="gridlayer"><g class="x"><path class="xgrid crisp" transform="translate(148.4,0)" d="M0,46v274" style="stroke: rgb(47, 62, 78); stroke-opacity: 1; stroke-width: 1px;"/><path class="xgrid crisp" transform="translate(252.81,0)" d="M0,46v274" style="stroke: rgb(47, 62, 78); stroke-opacity: 1; stroke-width: 1px;"/><path class="xgrid crisp" transform="translate(357.07,0)" d="M0,46v274" style="stroke: rgb(47, 62, 78); stroke-opacity: 1; stroke-width: 1px;"/><path class="xgrid crisp" transform="translate(461.48,0)" d="M0,46v274" style="stroke: rgb(47, 62, 78); stroke-opacity: 1; stroke-width: 1px;"/><path class="xgrid crisp" transform="translate(565.74,0)" d="M0,46v274" style="stroke: rgb(47, 62, 78); stroke-opacity: 1; stroke-width: 1px;"/></g><g class="y"><path class="ygrid crisp" transform="translate(0,274.89)" d="M44,0h626" style="stroke: rgb(47, 62, 78); stroke-opacity: 1; stroke-width: 1px;"/><path class="ygrid crisp" transform="translate(0,236.48)" d="M44,0h626" style="stroke: rgb(47, 62, 78); stroke-opacity: 1; stroke-width: 1px;"/><path class="ygrid crisp" transform="translate(0,198.07)" d="M44,0h626" style="stroke: rgb(47, 62, 78); stroke-opacity: 1; stroke-width: 1px;"/><path class="ygrid crisp" transform="translate(0,159.66)" d="M44,0h626" style="stroke: rgb(47, 62, 78); stroke-opacity: 1; stroke-width: 1px;"/><path class="ygrid crisp" transform="translate(0,121.24)" d="M44,0h626" style="stroke: rgb(47, 62, 78); stroke-opacity: 1; stroke-width: 1px;"/><path class="ygrid crisp" transform="translate(0,82.83)" d="M44,0h626" style="stroke: rgb(47, 62, 78); stroke-opacity: 1; stroke-width: 1px;"/></g></g><g class="zerolinelayer"><path class="yzl zl crisp" transform="translate(0,313.3)" d="M44,0h626" style="stroke: rgb(47, 62, 78); stroke-opacity: 1; stroke-width: 2px;"/></g><path class="xlines-below"/><path class="ylines-below"/><g class="overlines-below"/><g class="xaxislayer-below"/><g class="yaxislayer-below"/><g class="overaxes-below"/><g class="plot" transform="translate(44,46)" clip-path="url(#clip9de2cfxyplot)"><g class="scatterlayer mlayer"><g class="trace scatter trace93c7bb23-422e-4208-94e3-f1e48036d8da" style="stroke-miterlimit: 2; opacity: 1;"><g class="fills"/><g class="errorbars"/><g class="lines"><path class="js-line" d="M0,259.62L3,259.72L3.14,260.09L4.86,260.04L5,260.3L6.14,260L6.71,259.89L9,259.62L9.14,259.32L14.71,258.46L14.85,258.34L17,257.51L17.14,257.78L17.85,257.97L18,258.32L18.14,258.7L18.57,258.04L18.71,257.95L18.85,257.75L19.14,258.05L19.57,258.03L20.85,258.4L21,258.07L21.99,257.71L22.14,257.97L22.57,258.15L23.57,258.03L23.71,257.83L24.71,257.32L24.85,257.42L26.71,258.24L26.85,257.87L26.99,257.89L28.14,258.19L28.56,258.35L29.71,257.67L29.85,257.79L31.14,257.82L31.56,257.76L33.99,258.54L34.14,258.49L36.56,257.57L36.71,257.53L38.85,256.83L38.99,256.96L40.13,256.58L40.56,256.53L41.99,256.02L42.13,256.09L45.56,256.11L45.7,256.31L46.7,256.05L46.85,255.83L53.13,255.05L53.56,254.82L54.84,254.95L54.99,255.17L55.13,255.39L55.56,255L55.7,254.86L57.84,254.24L57.99,254.38L58.99,254.24L59.13,254.52L59.7,254.96L61.13,254.18L61.56,254.35L63.84,254.94L63.99,254.73L64.84,254.59L64.99,254.6L66.56,255.24L66.7,255.18L68.56,254.43L68.7,254.53L70.56,254.63L70.7,254.56L72.84,255.02L72.98,255.09L74.55,254.98L74.7,255.2L77.55,255.2L77.7,255.08L78.98,254.28L79.12,254.19L80.12,254L80.55,253.67L82.55,252.84L82.7,253.12L82.84,252.99L82.98,253.54L83.12,253.68L83.55,254.42L84.12,253.56L84.55,253.32L85.55,254.31L85.69,253.68L86.98,253.41L87.12,253.67L89.55,252.3L89.69,252.23L91.12,253.4L91.55,253.65L92.12,253.82L92.55,253.13L93.69,251.91L93.84,252.77L94.84,252.7L94.98,252.55L96.84,252.89L96.98,253.26L99.69,253.7L99.83,253.37L100.83,253.12L100.98,253.06L101.69,253.13L101.83,253.44L102.55,253.37L102.69,252.87L107.55,251.72L107.69,251.97L108.55,250.79L108.69,250.66L109.69,250.21L109.83,249.92L110.69,248.73L110.83,249.16L113.12,247.43L113.55,247.86L113.83,247.95L114.12,247.43L114.55,247.18L115.69,245.21L115.83,245.34L116.54,245.17L116.69,244.9L118.54,244.11L118.69,244.39L119.12,245.24L119.54,246.15L119.69,245.07L120.12,246.41L120.54,246.46L120.69,246.88L120.83,245.06L120.97,245.15L122.83,246.55L122.97,246.5L124.11,247.97L124.54,246.84L124.83,246.5L125.11,246.8L125.69,246.44L125.97,246.24L126.11,246.85L126.54,246.73L127.54,246.48L127.69,246.3L128.11,246.37L128.54,245.95L129.11,246.08L129.54,246.49L130.68,245.45L130.97,245.07L131.97,245.47L132.11,245.25L132.54,245.18L133.68,245.39L133.83,246.34L135.97,244.46L136.11,244.43L138.83,242.53L138.97,242.88L140.11,242.28L140.54,242.92L140.68,243L140.83,242.67L140.97,242.18L141.82,241.48L141.97,241.61L142.11,241.56L143.68,242.98L143.82,242.61L145.54,243.95L145.68,243.4L146.11,244.86L146.54,243.98L147.11,245.07L147.82,245.39L148.68,245.85L148.82,246.55L148.97,247.3L149.68,247.11L149.82,247.33L149.97,247.74L150.11,247.67L150.54,246.27L150.82,246.42L151.11,246.06L151.54,245.39L152.68,245.9L152.82,247.26L152.97,246.95L153.11,247.46L153.54,247.59L153.68,247.16L153.96,247.59L154.11,248.33L155.11,247.98L155.54,247.94L156.11,248.33L156.54,247.5L156.82,246.88L157.11,247.69L157.54,247.81L158.68,249.2L159.11,248.69L159.68,248.51L159.82,248.17L159.96,250.51L160.11,250.9L160.53,250.53L160.68,250.22L161.82,250.25L161.96,249.64L162.53,249.21L162.68,249.65L162.82,249.69L165.53,251.42L165.68,251.01L165.82,251.22L166.1,250.99L166.53,250.76L166.82,251.12L167.1,250.55L167.53,250.1L168.96,250.59L169.53,251.1L171.1,251.06L171.53,251.43L171.68,251.2L171.82,252.06L171.96,252.46L172.53,252.21L172.67,251.94L173.1,251.53L173.53,251.05L174.53,249.92L174.67,250L175.53,249.9L175.67,250.3L175.82,250.86L176.1,250.7L176.53,250.34L177.67,250.39L177.82,250.26L178.67,250.1L178.82,250.26L179.82,250.74L179.96,250.6L181.53,251.84L181.67,251.84L182.1,252.07L182.53,251.59L182.82,251.16L183.1,251.29L183.53,251.38L184.67,250.81L184.81,250.81L186.53,250.16L186.67,249.95L188.53,249.19L188.67,248.35L189.53,247.67L189.67,247.92L190.96,248.27L191.1,248.44L192.67,248.16L192.81,249.17L192.96,248.99L193.1,249.28L193.53,249.83L194.96,248.48L195.1,248.61L195.53,248.83L195.81,248.35L196.1,248.6L196.53,248.42L196.67,248.68L197.1,248.23L197.53,248.11L199.53,246.84L199.67,247.34L200.53,246.96L200.67,247.01L202.1,246.78L202.53,247.02L203.52,246.83L203.67,246.46L204.67,245.22L204.81,245.27L205.81,245.41L205.95,245.44L206.95,246.05L207.1,245.87L207.52,245.08L210.52,246.38L210.67,245.97L210.81,245.56L211.09,246.19L211.67,245.87L212.52,245.82L212.67,247.48L213.52,247.66L213.67,247.39L215.67,245.74L215.81,246.06L216.81,246.82L216.95,246.43L220.52,245.99L220.66,245.77L221.52,246.09L221.66,245.9L221.81,245.87L223.66,246.8L223.81,246.76L225.09,244.75L225.52,243.91L227.09,243.97L227.52,243.69L228.95,243.14L229.09,242.88L231.8,241.25L231.95,241.66L232.8,241.69L232.95,241.78L233.8,242.18L233.95,242.04L234.09,241.75L236.52,240.55L236.66,240.86L236.8,241L236.95,241.45L237.52,241.22L237.66,241.02L238.52,239.87L238.66,240.04L240.09,240.74L240.52,240.41L242.52,238.92L242.66,239.09L243.66,238.45L243.8,239.62L244.66,239.87L244.8,239.07L245.94,238.85L246.09,239.08L246.8,238.86L246.94,239.9L247.66,239.13L247.8,239.55L248.51,239.44L248.66,239.67L248.94,239.06L249.09,239.14L249.51,239.38L249.94,240.34L250.09,239.96L250.51,239.4L251.66,237.52L251.8,237.36L251.94,237.46L252.09,237.19L252.51,236.81L252.8,236.96L253.09,236.65L253.51,236.7L255.51,234.06L255.66,234.33L256.08,233.98L256.51,235.02L258.08,236.46L258.51,236.86L258.66,237.26L258.8,236.54L258.94,235.67L259.8,235.84L260.08,235.31L260.65,235.7L260.8,236.28L261.65,237.39L261.8,236.99L261.94,235.87L263.08,237.46L263.65,236.73L264.51,235.55L264.65,236.61L264.94,233.98L265.51,234.06L265.65,234.05L268.51,229.9L268.65,230.13L268.8,231.04L268.94,230.6L269.08,231.13L269.51,230.96L269.65,230.89L270.8,232.81L271.08,232.45L271.51,232.08L271.8,231.13L272.08,231.82L272.51,231.47L273.08,232.54L273.51,231.7L273.79,232.27L273.94,231.98L274.51,231.43L274.79,231.91L275.08,231.5L275.51,231.57L276.08,232.13L276.51,231.36L276.65,231.55L276.94,230.8L277.08,230.64L277.51,230L277.65,230.56L277.79,231.08L277.94,232.03L278.08,231L278.65,231.85L278.79,232.06L279.08,231.06L279.65,231.53L279.79,231.5L280.51,230.36L280.65,230.39L280.79,230.4L281.08,229.72L281.65,230.52L281.79,229.86L282.08,230.34L282.51,230.27L284.08,231.18L284.51,231.25L285.51,231.06L285.65,231.22L285.79,230.93L286.08,231.3L286.51,231.9L287.51,231.5L287.65,231.58L287.93,233.11L288.08,232.24L288.51,231.59L289.51,229.85L289.65,230.21L289.79,231.71L291.5,233.55L291.65,234.59L292.5,232.9L292.65,234.6L293.5,233.6L293.65,233.78L293.79,234.19L294.5,237.43L294.65,237.26L294.79,235.64L295.08,234.66L295.5,234.8L295.65,236.18L295.79,234.92L296.08,235.76L296.65,234.93L296.79,235.52L297.08,234.41L297.5,234.11L297.79,233.81L298.07,234.61L298.5,234.13L299.65,235.81L299.79,235.47L300.5,235.34L300.65,235.2L300.93,235.69L301.07,234.98L301.5,235.12L302.79,234.53L302.93,234.06L303.64,234.31L303.79,233.03L303.93,232.68L304.07,232.96L304.5,232.51L304.64,232.13L305.93,233.71L306.07,234.63L307.64,232.84L307.79,233.07L308.93,233.85L309.07,232.8L309.93,233.58L310.07,234.4L310.93,235.55L311.07,236.36L311.93,235.81L312.5,236.14L312.64,235.62L312.93,236.57L313.5,236.55L313.93,238.99L314.5,238.42L314.64,238.02L315.07,238.8L315.64,238.93L315.93,239.03L316.07,237.62L316.5,238.17L316.64,238.02L316.78,239.82L317.5,238.99L317.64,239.53L317.93,238.65L318.5,239.09L318.64,239.09L319.07,239.37L319.64,238.64L319.78,238.23L320.07,238.8L320.5,238.57L320.64,239.17L321.07,238.56L321.5,238.62L322.07,236.88L322.5,237.19L322.93,237.39L323.07,237.09L323.5,237.02L324.5,236.08L324.64,235.86L325.5,236.28L325.64,235.59L326.5,234.65L326.64,235.01L326.78,234.69L326.93,235.36L327.07,235.32L327.5,235.22L327.93,234.38L328.07,235L328.5,235.65L329.64,236.51L329.78,238.31L330.5,239.46L330.64,239.04L330.78,239.31L331.78,239.45L331.92,240.05L332.64,239.18L332.78,238.88L332.92,238.98L333.07,238.7L333.5,238.36L334.07,237.28L334.64,237.41L335.07,237.95L335.49,237.75L335.64,237.64L336.07,237.7L336.49,238.11L337.07,238.67L337.49,238.73L337.92,238.45L338.07,239.2L338.49,239.58L339.07,238.51L339.64,238.76L341.78,237.38L341.92,237.53L342.64,238.3L342.78,236.55L344.06,234.97L344.49,234.72L345.92,234.52L346.06,234.44L347.92,235.18L348.06,234.9L348.63,234.91L348.78,234.72L348.92,235.51L349.06,236.18L349.78,233.77L349.92,232.71L351.06,233.51L351.49,233.46L355.63,231.97L355.78,232.71L357.06,234.26L357.49,233.82L357.78,233.69L357.92,234.56L358.06,234.38L358.49,235.14L359.63,233.43L359.78,233.59L360.77,233.79L360.92,234.08L364.06,232.11L364.63,231.9L365.77,232.25L365.92,232.09L366.77,231.21L366.92,231.35L367.06,231.41L369.63,230.76L369.77,228.69L370.49,228.25L370.63,227.91L373.06,226.13L373.49,226.06L374.49,225.38L374.63,225.33L375.63,225.48L375.77,225.06L379.06,224.25L379.48,224.3L379.91,224.9L380.48,224.68L380.77,225L381.06,224.56L381.48,224.17L382.63,223.08L382.77,223.21L382.91,223.36L384.06,220.29L384.48,220.41L384.63,220.47L384.77,221.95L385.48,220.89L385.63,220.94L385.77,221.07L386.63,220.98L386.77,221.24L387.91,220.61L388.05,222.31L389.05,224.2L389.48,223.05L389.63,223.43L390.05,223.07L390.48,223.2L390.91,223.8L391.05,223.71L391.48,223.85L392.77,223.22L392.91,222.65L393.77,221.73L393.91,221.92L394.05,221.94L394.77,221.04L394.91,221.86L395.05,222.16L395.48,222.38L395.62,222L395.77,220L395.91,220.44L396.05,220.21L396.48,219.53L396.91,220.16L397.62,218.37L397.77,218.56L398.48,219.62L398.62,218.89L399.77,217.88L399.91,217.69L401.05,219.22L401.48,218.4L402.91,220.7L403.05,221.13L403.48,221.51L403.62,220.77L403.77,220.46L404.48,220.58L404.62,220.39L404.76,220.68L404.91,220.14L405.05,220.16L405.48,220.01L406.62,218.69L406.76,218.9L406.91,219.97L407.91,219.56L408.05,217.96L410.05,214.3L410.48,214.5L410.76,215.89L411.05,215.59L411.48,215.64L412.05,214.22L412.48,214.47L413.48,215.69L413.62,215.73L414.05,215.81L414.48,214.87L414.62,215.15L415.05,214.5L415.48,213.8L416.62,215.47L416.76,215.46L417.05,215.85L419.05,213.61L419.62,213.87L419.9,212.99L420.05,213.22L420.48,213.64L422.48,219.48L422.62,217.61L422.9,219.86L423.05,219.13L423.47,217.33L423.9,214.39L424.05,214.55L424.62,214.72L424.76,214.94L424.9,214.53L425.05,213.67L425.47,212.68L425.76,212.92L425.9,213.82L426.62,213.34L426.76,213.81L427.47,211.9L427.62,212.4L427.76,212.83L428.05,212.95L428.47,213.73L428.62,213.75L428.76,214.88L429.04,216.69L429.47,214.45L429.76,216.25L429.9,215.88L430.47,216.19L430.9,214.45L431.04,215.71L431.47,215.23L432.47,213.58L432.62,212.89L432.76,213L432.9,214.45L433.62,217.26L433.76,217.06L433.9,216.9L434.04,217.44L434.47,216.6L434.62,215.5L435.61,210.66L435.76,210.28L436.04,209.51L436.47,209.63L436.61,210.12L437.47,209.78L437.61,209.92L438.04,209.51L438.61,209.7L438.9,210L439.04,209.03L439.76,207.96L440.04,208.61L440.47,208.75L440.61,208.45L440.76,208.9L440.9,208.87L441.04,209.44L441.47,209.46L441.61,210.34L441.76,210.11L442.04,210.56L442.47,211.35L443.47,209.91L443.61,210.85L445.04,208.72L445.47,208.84L446.76,207.72L446.9,207.89L447.04,208.82L447.61,209.02L447.75,205.8L448.47,203.63L448.61,204.19L448.75,204.15L450.04,200.75L450.47,201.36L450.9,201.35L451.04,201.16L451.47,200.65L452.61,197.65L452.75,198.08L452.9,199.16L453.47,200.54L453.61,198.95L453.75,199.75L453.9,198.21L455.04,200.73L455.47,199.83L455.75,199.93L456.75,196.58L456.9,197.75L457.04,198.82L457.47,198.97L457.61,198.08L457.9,201.65L458.47,200.82L458.61,199.44L458.9,201.2L459.04,200.25L459.47,199.87L459.61,199.27L459.75,201.47L459.9,200.11L460.04,201.12L460.47,202.29L460.61,201.98L460.75,200.38L460.89,199.42L461.04,203.66L461.47,205.36L461.61,204.73L461.75,202.95L462.75,209.21L462.89,207.88L463.04,207.27L464.04,213.4L464.47,212.73L464.61,212.84L465.47,209.78L465.61,212.13L466.61,214.46L466.75,214.32L466.89,213.79L468.04,219.63L468.46,220.76L469.46,217.61L469.75,217.55L469.89,222.1L470.46,220.44L470.61,219.63L470.89,218.75L471.04,219.18L471.46,219.84L472.04,217.87L472.61,218.89L472.75,218.71L472.89,219.06L473.03,217.6L473.61,218.49L473.75,215.44L474.75,212.84L475.03,213.52L475.46,213.8L475.89,213.4L476.03,213.51L476.61,213.37L477.75,212.22L477.89,212.72L478.46,211.94L478.75,212.32L478.89,212.91L479.03,212.79L479.46,211.05L480.89,206.36L481.03,207.53L481.46,208.2L481.6,208.76L482.03,207.85L482.46,207.47L483.46,204.9L483.6,205.08L483.75,204.75L484.6,205.15L484.75,204.02L485.75,202.85L485.89,203.4L486.03,203.68L486.46,203.59L486.6,204.74L487.03,201.52L487.46,202.47L487.6,204.1L487.89,204.72L488.03,205.3L488.46,208.64L489.03,207.68L489.46,209.4L489.6,208.38L490.03,210.6L490.6,210.82L491.46,212.26L491.6,210.41L492.6,205.99L492.89,206.18L493.03,206.59L493.46,206.26L493.6,204.93L493.89,204.64L494.6,205.77L494.74,204.54L495.03,205.08L495.46,204.03L496.03,203.25L496.46,204.47L497.46,202.96L497.6,203.17L497.74,203.5L498.03,203.72L498.6,201.9L498.74,201.95L498.89,202.43L499.74,200.68L499.89,202.02L500.46,206.42L500.74,204.76L500.89,203.48L501.46,203.89L501.6,201.4L501.89,203.52L502.03,202.13L502.46,201L502.89,200.38L503.03,203.26L503.89,201.39L504.03,201.47L504.6,202.36L505.74,197.13L505.88,197.28L506.03,198.55L506.74,197.37L506.88,197.9L507.03,198.84L507.74,197.88L508.03,198.52L508.46,197.02L508.6,196.84L508.74,198.48L510.45,193.54L510.6,193.7L510.74,193.98L511.03,193.38L511.45,192.18L511.6,192.34L511.74,191.4L511.88,191.28L512.45,189.69L512.6,191.37L512.74,191.38L513.88,186.19L514.03,185.98L515.45,183.94L515.6,184.18L515.74,185.09L516.03,185.5L516.45,184.16L516.6,184.77L516.74,183.73L517.02,183.9L517.45,184.81L517.6,186.19L517.88,184.39L518.02,182.88L518.45,184L518.74,182.87L518.88,182.66L519.6,180.04L519.88,180.15L520.02,180.32L522.45,174.35L522.6,174.77L523.45,169.32L523.59,170.58L523.74,170.97L524.02,168.8L524.59,169.43L524.74,169.1L524.88,168.65L525.02,168.92L525.45,171.67L525.74,167.16L526.02,171.51L526.45,171.75L526.88,166.9L527.02,167.97L527.45,167.52L527.59,168.09L527.74,165.86L527.88,166.54L528.02,166.52L529.02,170.02L529.45,174.39L530.02,181.69L530.45,174.21L530.74,173.05L531.45,183.8L531.59,178.17L532.45,190.85L532.59,187.71L533.45,196.09L533.59,189.47L533.74,189.87L533.88,186.07L534.74,191.23L534.88,190.05L535.02,191.08L535.45,184.89L535.59,185.78L535.88,183.27L536.45,181.72L536.59,177.66L537.02,178.91L537.45,180.64L537.59,183.15L538.02,178.86L538.45,178.8L538.59,180.15L538.88,175.68L539.02,177.07L539.45,175.87L540.45,168.95L540.59,170.01L540.73,171.12L541.73,167.7L542.02,167.81L542.59,168.44L543.73,165.97L543.88,166.79L544.02,164.09L544.45,163.51L544.59,160.41L544.73,157.8L544.88,162.79L545.02,161.94L545.45,160.7L545.59,158.02L546.02,158.72L546.45,156.02L546.59,153.76L547.02,157.56L547.45,155.16L549.02,148.71L549.45,149.23L550.45,145.83L550.59,147.43L550.73,147.11L550.87,152.33L551.02,152.6L551.45,150.02L551.59,151.85L551.87,148.39L552.02,136.51L552.87,127.5L553.45,128.4L553.59,132.36L553.87,125.71L554.44,126.18L554.59,125.06L554.73,124.88L554.87,121.85L555.73,112.11L555.87,113.9L556.02,114.14L556.44,109.14L556.59,103.06L556.87,118.77L557.02,118.68L558.02,129.26L558.44,125.3L558.59,125.08L558.73,129.11L559.02,135.36L559.44,131.53L559.59,129.49L559.73,135.03L560.02,128.93L560.44,125.77L560.87,123.61L561.01,128.06L561.44,123.95L561.59,127.89L562.01,123.39L562.44,114.62L563.44,124.56L563.59,122.76L564.44,125.66L564.59,123.83L565.44,133.08L565.59,131.11L566.01,120.88L566.44,123.68L566.58,124.09L567.44,118.97L567.58,120.05L568.44,126.6L568.58,125.04L568.73,124.02L569.44,120.45L569.58,116.11L570.01,116.66L570.58,114.14L570.73,117.22L571.87,109.03L572.01,111.44L572.44,109.59L572.58,105.27L572.73,106.36L572.87,105.16L573.44,99.58L574.73,111.52L574.87,106.4L575.01,105.07L575.44,108.7L575.58,108.91L575.73,106.44L576.01,110.88L576.58,110.06L576.73,105.09L577.58,91.92L577.73,93.22L577.87,99.1L578.01,105.17L578.58,101.59L578.73,102.83L578.87,98.75L579.58,99.9L579.72,100.63L580.58,103.24L580.72,106.02L581.87,117.7L582.01,117.38L582.44,109.64L583.44,123.18L583.58,117.58L583.72,118.89L583.87,116.55L584.01,117.65L584.44,114.14L584.58,112.27L584.87,118.24L585.01,118.88L585.44,114.85L585.72,118.76L585.87,118.17L586.44,117.22L586.58,118.99L588.01,103.46L588.44,105.55L588.87,101.69L589.01,102.09L589.44,101.28L589.87,104.72L590.01,101.9L590.44,101.43L590.87,102.89L591.01,105.29L591.44,104.01L591.58,109.57L591.86,107.33L592.01,106.25L592.72,115.08L592.86,112.47L593.01,109.52L593.72,112.8L593.86,109.69L594.01,111.92L594.58,110.17L594.72,110.23L595.58,113.29L595.72,112.36L595.86,114.16L596.01,111.37L596.44,111.36L597.86,104.37L598.01,105.95L600.58,92.23L600.72,89.2L600.86,90.78L601.01,88.56L601.43,89.28L601.58,87.93L601.72,83.76L602.01,87.04L602.43,91.72L603.43,83.95L603.58,86.59L603.72,88.71L604.01,87.67L604.43,88.07L604.58,85.89L605,86.81L605.43,86.87L605.58,87.46L605.72,87.15L605.86,83.54L606,83.3L606.43,80.89L606.72,86.55L607,84.38L607.43,82.57L607.58,82.68L607.72,84.17L607.86,85.15L608,83.89L608.43,78.52L608.58,80.05L609,77.11L609.58,74.27L610.57,84.46L610.72,83.38L610.86,83.66L611.43,90.62L611.72,87.16L611.86,85.99L612,85.89L612.43,87.73L613.43,95.14L613.57,92.79L613.86,90.2L614.43,90.77L614.57,92.32L614.72,93.03L614.86,89.64L615.86,82.84L616,83.78L616.43,83.84L616.86,79.17L617,82.46L617.43,83.46L618,80.18L618.43,81.18L618.57,80.74L618.72,84.18L618.86,84.24L619,81.71L619.43,81.7L619.57,80.51L620.72,67.49L621,73.6L621.57,63.49L621.86,65.32L622,67.61L622.57,56.49L622.72,51.84L622.86,52.46L623,46.64L624.43,58.19L624.57,54.33L625.43,45.59L625.57,46.83L625.71,46.72L626,48.88" style="vector-effect: non-scaling-stroke; fill: none; stroke: rgb(31, 119, 180); stroke-opacity: 1; stroke-width: 2px; opacity: 1;"/></g><g class="points"/><g class="text"/></g><g class="trace scatter trace6ac4a0d7-9a77-4693-be1a-d93ab5b07066" style="stroke-miterlimit: 2; opacity: 1;"><g class="fills"/><g class="errorbars"/><g class="lines"><path class="js-line" d="M0,259.62L3,259.72L3.14,260.09L4.86,260.04L5,260.3L6.14,260L6.71,259.89L9,259.62L9.14,259.32L14.71,258.46L14.85,258.34L17,257.51L17.14,257.78L17.85,257.97L18,258.32L18.14,258.7L18.57,258.04L18.71,257.95L18.85,257.75L19.14,258.05L19.57,258.03L20.85,258.4L21,258.07L21.99,257.71L22.14,257.97L22.57,258.15L23.57,258.03L23.71,257.83L24.71,257.32L24.85,257.42L26.71,258.24L26.85,257.87L26.99,257.89L28.14,258.19L28.56,258.35L29.71,257.67L29.85,257.79L31.14,257.82L31.56,257.76L33.99,258.54L34.14,258.49L36.56,257.57L36.71,257.53L38.85,256.83L38.99,256.96L40.13,256.58L40.56,256.53L41.99,256.02L42.13,256.09L45.56,256.11L45.7,256.31L46.7,256.05L46.85,255.83L53.13,255.05L53.56,254.82L54.84,254.95L54.99,255.17L55.13,255.39L55.56,255L55.7,254.86L57.84,254.24L57.99,254.38L58.99,254.24L59.13,254.52L59.7,254.96L61.13,254.18L61.56,254.35L63.84,254.94L63.99,254.73L64.84,254.59L64.99,254.6L66.56,255.24L66.7,255.18L68.56,254.43L68.7,254.53L70.56,254.63L70.7,254.56L72.84,255.02L72.98,255.09L74.55,254.98L74.7,255.2L77.55,255.2L77.7,255.08L78.98,254.28L79.12,254.19L80.12,254L80.55,253.67L82.55,252.84L82.7,253.12L82.84,252.99L82.98,253.54L83.12,253.68L83.55,254.42L84.12,253.56L84.55,253.32L85.55,254.31L85.69,253.68L86.98,253.41L87.12,253.67L89.55,252.3L89.69,252.23L91.12,253.4L91.55,253.65L92.12,253.82L92.55,253.13L93.69,251.91L93.84,252.77L94.84,252.7L94.98,252.55L96.84,252.89L96.98,253.26L99.69,253.7L99.83,253.37L100.83,253.12L100.98,253.06L101.69,253.13L101.83,253.44L102.55,253.37L102.69,252.87L107.55,251.72L107.69,251.97L108.55,250.79L108.69,250.66L109.69,250.21L109.83,249.92L110.69,248.73L110.83,249.16L113.12,247.43L113.55,247.86L113.83,247.95L114.12,247.43L114.55,247.18L115.69,245.21L115.83,245.34L116.54,245.17L116.69,244.9L118.54,244.11L118.69,244.39L119.12,245.24L119.54,246.15L119.69,245.07L120.12,246.41L120.54,246.46L120.69,246.88L120.83,245.06L120.97,245.15L122.83,246.55L122.97,246.5L124.11,247.97L124.54,246.84L124.83,246.5L125.11,246.8L125.69,246.44L125.97,246.24L126.11,246.85L126.54,246.73L127.54,246.48L127.69,246.3L128.11,246.37L128.54,245.95L129.11,246.08L129.54,246.49L130.68,245.45L130.97,245.07L131.97,245.47L132.11,245.25L132.54,245.18L133.68,245.39L133.83,246.34L135.97,244.46L136.11,244.43L138.83,242.52L138.97,242.88L140.11,242.27L140.54,242.92L140.68,243L140.83,242.66L140.97,242.17L141.82,241.47L141.97,241.59L142.11,241.54L143.68,242.97L143.82,242.6L145.54,243.95L145.68,243.39L146.11,244.86L146.54,243.97L147.11,245.08L147.82,245.4L148.68,245.86L148.82,246.56L148.97,247.31L149.68,247.12L149.82,247.34L149.97,247.76L150.11,247.69L150.54,246.27L150.82,246.42L151.11,246.06L151.54,245.39L152.68,245.9L152.82,247.27L152.97,246.96L153.11,247.48L153.54,247.61L153.68,247.18L153.96,247.61L154.11,248.35L155.11,248L155.54,247.97L156.11,248.36L156.54,247.52L156.82,246.89L157.11,247.71L157.54,247.83L158.11,247.96L158.54,248.65L158.68,249.24L158.82,248.49L159.11,248.72L159.68,248.54L159.82,248.19L159.96,250.56L160.11,250.95L160.53,250.58L160.68,250.27L161.82,250.3L161.96,249.68L162.53,249.24L162.68,249.69L162.82,249.73L165.53,251.5L165.68,251.08L165.82,251.28L166.1,251.06L166.53,250.82L166.82,251.18L167.1,250.61L167.53,250.15L168.96,250.64L169.53,251.16L171.1,251.13L171.53,251.5L171.68,251.26L171.82,252.14L171.96,252.55L172.53,252.3L172.67,252.02L173.1,251.6L173.53,251.12L174.53,249.97L174.67,250.04L175.53,249.94L175.67,250.36L175.82,250.93L176.1,250.76L176.53,250.4L177.67,250.45L177.82,250.32L178.67,250.15L178.82,250.31L179.82,250.81L179.96,250.66L181.53,251.94L181.67,251.93L182.1,252.17L182.53,251.68L182.82,251.24L183.1,251.37L183.53,251.46L184.53,250.99L184.67,250.88L185.67,251.31L185.81,250.49L186.53,250.21L186.67,250L188.53,249.21L188.67,248.35L189.53,247.65L189.67,247.9L190.96,248.27L191.1,248.44L192.67,248.15L192.81,249.19L192.96,249L193.1,249.3L193.53,249.88L194.96,248.48L195.1,248.61L195.53,248.84L195.81,248.35L196.1,248.6L196.53,248.42L196.67,248.68L197.1,248.22L197.53,248.1L199.53,246.79L199.67,247.3L200.53,246.91L200.67,246.96L202.1,246.72L202.53,246.97L203.52,246.77L203.67,246.39L204.67,245.1L204.81,245.15L205.81,245.3L205.95,245.33L206.95,245.96L207.1,245.78L207.52,244.95L210.52,246.3L210.67,245.88L210.81,245.45L211.09,246.11L211.67,245.78L212.52,245.72L212.67,247.45L213.52,247.64L213.67,247.36L215.67,245.63L215.81,245.97L216.81,246.77L216.95,246.36L220.52,245.9L220.66,245.67L221.52,246L221.66,245.8L221.81,245.76L223.09,246.68L223.52,246.59L223.81,246.7L223.95,246.46L224.52,246.22L224.81,246.47L224.95,244.76L226.52,243.45L226.66,243.71L227.66,243.45L227.81,243.45L227.95,243.65L228.09,243.3L228.52,243.02L229.8,242.24L229.95,241.78L230.52,242.05L230.66,241.69L230.8,241.4L231.8,240.91L231.95,241.35L232.09,241.64L232.95,241.47L233.09,241.74L233.52,241.76L233.8,241.9L234.09,241.44L234.52,241.17L235.95,240.58L236.09,240.53L236.52,240.18L236.8,240.65L236.95,241.13L238.09,239.84L238.52,239.46L239.8,240.6L239.95,240.46L243.66,237.95L243.8,239.19L244.66,239.46L244.8,238.61L245.94,238.38L246.09,238.62L246.8,238.39L246.94,239.49L247.66,238.68L247.8,239.12L248.51,239L248.66,239.24L248.94,238.6L249.09,238.68L249.51,238.94L249.94,239.95L250.09,239.55L250.51,238.96L251.66,236.97L251.8,236.8L251.94,236.91L252.09,236.62L252.51,236.22L252.8,236.37L253.09,236.05L253.51,236.1L255.51,233.29L255.66,233.58L256.08,233.2L256.51,234.31L258.51,236.27L258.66,236.7L259.51,234.92L259.66,235.04L259.8,235.19L260.51,234.64L260.65,235.04L260.8,235.65L261.65,236.84L261.8,236.41L261.94,235.22L263.08,236.91L263.65,236.13L264.51,234.87L264.65,236.01L264.94,233.21L265.51,233.29L265.65,233.28L268.51,228.85L268.65,229.09L268.8,230.07L268.94,229.6L269.08,230.16L269.51,229.98L269.65,229.9L270.8,231.96L271.08,231.57L271.51,231.18L271.8,230.16L272.08,230.9L272.51,230.53L273.08,231.67L273.51,230.77L273.79,231.38L273.94,231.07L274.51,230.49L274.79,230.99L275.08,230.56L275.51,230.63L276.08,231.24L276.51,230.41L276.65,230.61L276.94,229.81L277.08,229.64L277.51,228.95L277.65,229.56L277.79,230.11L277.94,231.12L278.08,230.02L278.65,230.93L278.79,231.16L279.08,230.09L279.65,230.6L279.79,230.56L280.51,229.34L280.65,229.37L280.79,229.38L281.08,228.65L281.65,229.5L281.79,228.8L282.08,229.31L282.51,229.24L284.08,230.22L284.51,230.29L285.51,230.09L285.65,230.26L285.79,229.94L286.08,230.34L286.51,230.99L287.51,230.56L287.65,230.65L287.93,232.29L288.08,231.35L288.51,230.66L289.51,228.79L289.65,229.18L289.79,230.79L291.5,232.76L291.65,233.87L292.5,232.06L292.65,233.9L293.5,232.81L293.65,233.01L293.79,233.45L294.5,236.95L294.65,236.77L294.79,235.01L295.08,233.95L295.5,234.11L295.65,235.59L295.79,234.23L296.08,235.14L296.65,234.24L296.79,234.88L297.08,233.68L297.5,233.36L297.79,233.04L297.93,233.77L298.07,233.91L299.07,233.54L299.5,234.2L299.65,235.2L300.07,234.81L300.5,234.69L301.65,234.4L301.79,234.86L303.07,232.25L303.5,233.37L303.64,233.58L303.79,232.19L304.64,231.22L304.79,231.39L304.93,231.39L305.5,231.49L305.64,232.62L306.64,233.54L306.79,232.47L307.64,231.99L307.79,232.25L308.79,232.77L308.93,233.09L309.07,231.95L309.64,232.19L309.79,232.96L309.93,232.8L310.07,233.69L310.5,233.9L311.07,235.81L311.5,235.43L311.64,235.45L311.79,235.04L311.93,235.22L312.5,235.58L312.64,235.01L312.93,236.04L313.5,236.01L313.93,238.66L314.5,238.04L314.64,237.61L315.07,238.45L315.64,238.59L315.93,238.7L316.07,237.18L316.5,237.77L316.64,237.6L316.78,239.56L317.5,238.66L317.64,239.24L317.93,238.29L318.5,238.76L318.64,238.77L319.07,239.07L319.64,238.27L319.78,237.83L320.07,238.45L320.5,238.2L320.64,238.86L321.07,238.19L321.5,238.26L322.07,236.36L322.5,236.7L322.93,236.91L323.07,236.58L323.5,236.51L324.07,235.48L324.5,235.49L324.64,235.24L324.93,235.56L325.5,235.7L326.5,233.92L326.64,234.32L326.78,233.97L326.93,234.7L327.07,234.66L327.5,234.55L327.93,233.63L328.07,234.3L328.5,235.02L329.64,235.96L329.78,237.92L330.5,239.17L330.64,238.71L330.78,239.01L331.78,239.16L331.92,239.82L332.07,239.76L332.5,238.74L332.92,238.64L333.07,238.33L333.5,237.97L334.07,236.77L334.64,236.92L334.92,237.57L335.49,237.3L335.64,237.18L335.92,236.99L336.07,237.24L336.49,237.69L336.92,237.63L337.07,238.3L337.49,238.37L337.92,238.07L338.07,238.89L338.49,239.3L338.78,238.58L338.92,238.22L341.92,237.05L342.06,237.29L342.64,237.89L342.78,235.98L344.06,234.24L344.49,233.97L345.78,233.71L345.92,233.75L346.64,233.82L346.78,234.07L346.92,234.21L347.78,234.67L347.92,234.47L348.06,234.16L348.78,233.97L348.92,234.84L349.06,235.58L349.49,234.87L349.63,234.1L349.92,231.75L350.49,232.36L350.63,232.37L350.92,232.05L351.06,232.63L351.49,232.58L353.63,231.53L353.78,231.21L355.06,231.44L355.49,231.11L355.63,230.93L355.78,231.75L355.92,232.09L357.06,233.46L357.49,232.98L357.78,232.83L357.92,233.79L358.06,233.59L358.49,234.44L359.63,232.54L359.78,232.72L360.63,232.65L360.77,232.94L360.92,233.26L363.77,230.91L363.92,231.15L364.06,231.08L365.63,231.19L365.77,231.23L367.06,230.29L367.63,229.99L368.63,230L368.77,229.41L369.63,229.57L369.77,227.27L370.49,226.8L370.63,226.41L373.06,224.44L373.49,224.35L374.06,223.46L374.49,223.6L374.63,223.54L375.63,223.71L375.77,223.24L377.49,223.11L377.63,222.2L378.63,221.89L378.77,222.13L378.91,222.24L380.77,223.17L380.91,222.62L381.48,222.25L381.63,221.97L382.06,222.24L382.48,221.32L384.48,218.05L384.63,218.13L384.77,219.78L385.48,218.59L385.63,218.65L385.77,218.8L386.63,218.7L386.77,218.98L387.91,218.28L388.05,220.18L389.05,222.3L389.48,221.01L389.63,221.43L390.05,221.03L390.48,221.18L390.91,221.86L391.05,221.75L391.48,221.91L392.77,221.2L392.91,220.56L393.77,219.53L393.91,219.75L394.05,219.77L394.77,218.76L394.91,219.68L395.05,220.01L395.48,220.26L395.62,219.84L395.77,217.6L395.91,218.09L396.05,217.84L396.48,217.07L396.91,217.77L397.62,215.77L397.77,215.98L398.48,217.17L398.62,216.35L399.48,215.81L399.62,215.35L400.05,214.99L400.62,215.62L400.91,215.88L401.05,216.72L401.48,215.8L401.77,216.39L401.91,216.83L402.05,216.32L402.62,216.69L402.77,217.53L403.48,219.29L403.62,218.47L403.77,218.12L404.48,218.26L404.62,218.04L404.76,218.36L404.91,217.75L405.05,217.78L405.48,217.61L406.62,216.13L406.76,216.36L406.91,217.56L407.91,217.11L408.05,215.31L410.05,211.19L410.48,211.42L410.76,212.99L411.05,212.64L411.48,212.7L412.05,211.1L412.48,211.38L413.48,212.76L413.62,212.81L414.05,212.89L414.48,211.83L414.62,212.15L415.05,211.42L415.48,210.63L416.62,212.51L416.76,212.5L417.05,212.94L419.05,210.41L419.62,210.7L419.9,209.72L420.05,209.97L420.48,210.44L422.48,217.03L422.62,214.93L422.9,217.46L423.05,216.64L423.47,214.61L423.9,211.28L424.05,211.46L424.62,211.65L424.76,211.9L424.9,211.44L425.05,210.47L425.47,209.34L425.76,209.62L425.9,210.63L426.62,210.09L426.76,210.62L427.47,208.45L427.62,209.02L427.76,209.52L428.05,209.65L428.47,210.53L428.62,210.55L428.76,211.84L429.04,213.89L429.47,211.35L429.76,213.39L429.9,212.97L430.47,213.32L430.9,211.34L431.04,212.77L431.47,212.23L432.47,210.36L432.62,209.58L432.76,209.71L432.9,211.34L433.62,214.53L433.76,214.3L433.9,214.12L434.04,214.74L434.47,213.78L434.62,212.54L435.61,207.05L435.76,206.63L436.04,205.75L436.47,205.89L436.61,206.45L437.47,206.06L437.61,206.21L438.04,205.75L438.61,205.97L438.9,206.31L439.04,205.21L439.76,203.99L440.04,204.73L440.47,204.88L440.61,204.54L440.76,205.06L440.9,205.02L441.04,205.66L441.47,205.7L441.61,206.69L441.76,206.43L442.04,206.94L442.47,207.84L443.47,206.21L443.61,207.27L445.04,204.85L445.47,204.99L446.76,203.71L446.9,203.91L447.04,204.97L447.61,205.19L447.75,201.53L448.47,199.06L448.61,199.7L448.75,199.66L450.04,195.78L450.47,196.47L450.75,196.61L451.04,196.24L451.47,195.66L452.61,192.23L452.75,192.72L452.9,193.96L453.47,195.53L453.61,193.72L453.75,194.63L453.9,192.87L455.04,195.75L455.47,194.72L455.75,194.84L456.75,191.01L456.9,192.35L457.04,193.57L457.47,193.74L457.61,192.72L457.9,196.81L458.47,195.85L458.61,194.27L458.9,196.29L459.04,195.21L459.47,194.77L459.61,194.08L459.75,196.6L459.9,195.05L460.04,196.2L460.47,197.53L460.61,197.18L460.75,195.36L460.89,194.25L461.04,199.1L461.47,201.03L461.61,200.32L461.75,198.29L462.75,205.45L462.89,203.93L463.04,203.23L464.04,210.26L464.47,209.49L464.61,209.61L465.47,206.11L465.61,208.8L466.61,211.47L466.75,211.31L466.89,210.7L468.04,217.4L468.46,218.69L469.46,215.08L469.75,215.02L469.89,220.22L470.46,218.32L470.61,217.39L470.89,216.38L471.04,216.88L471.46,217.64L472.04,215.38L472.61,216.55L472.75,216.34L472.89,216.74L473.03,215.07L473.61,216.09L473.75,212.59L474.75,209.61L475.03,210.39L475.46,210.72L475.89,210.26L476.03,210.39L476.61,210.21L477.75,208.9L477.89,209.47L478.46,208.57L478.75,209.02L478.89,209.69L479.03,209.55L479.46,207.55L480.89,202.15L481.03,203.5L481.46,204.27L481.6,204.92L482.03,203.86L482.46,203.43L483.46,200.47L483.6,200.67L483.75,200.3L484.6,200.76L484.75,199.46L485.6,198.01L485.89,198.74L486.03,199.07L486.46,198.97L486.6,200.28L487.03,196.58L487.46,197.67L487.6,199.55L487.89,200.27L488.03,200.93L488.46,204.77L489.03,203.67L489.46,205.66L489.6,204.48L490.03,207.05L490.6,207.29L491.46,208.95L491.6,206.82L492.6,201.71L492.89,201.93L493.03,202.41L493.46,202.02L493.6,200.49L493.89,200.15L494.6,201.46L494.74,200.03L495.03,200.67L495.46,199.44L496.03,198.54L496.46,199.96L497.46,198.21L497.6,198.45L497.74,198.84L498.03,199.09L498.6,196.99L498.74,197.05L498.89,197.6L499.74,195.57L499.89,197.13L500.46,202.21L500.74,200.29L500.89,198.81L501.46,199.28L501.6,196.4L501.89,198.85L502.03,197.24L502.46,195.93L502.74,195.16L502.89,195.22L503.03,198.55L503.89,196.39L504.03,196.48L504.6,197.51L505.74,191.44L505.88,191.61L506.03,193.08L506.74,191.72L506.88,192.33L507.03,193.43L507.46,193.09L507.6,193.45L507.74,192.31L508.03,193.06L508.46,191.31L508.6,191.1L508.74,193.01L510.03,187.16L510.45,187.27L510.6,187.46L510.74,187.78L511.03,187.09L511.45,185.7L511.6,185.89L511.74,184.79L512.03,183.64L512.45,182.8L512.74,184.77L512.88,182.9L513.03,180.51L514.6,177.89L514.74,177.03L514.88,177.66L515.03,176.59L515.45,176.13L516.03,177.95L516.45,176.38L516.6,177.09L516.74,175.88L517.02,176.08L517.45,177.14L517.6,178.74L517.88,176.65L518.02,174.9L518.45,176.2L518.74,174.88L518.88,174.65L519.6,171.59L519.88,171.72L520.02,171.92L521.88,164.78L522.45,164.97L522.6,165.45L523.45,159.12L523.59,160.58L523.74,161.03L524.02,158.51L524.59,159.25L524.74,158.86L524.88,158.34L525.02,158.65L525.45,161.85L525.74,156.6L526.02,161.66L526.45,161.95L526.88,156.3L527.02,157.54L527.45,157.02L527.59,157.69L527.74,155.08L527.88,155.88L528.02,155.86L529.02,159.94L529.45,165.04L530.02,173.55L530.45,164.82L530.74,163.47L531.45,176.01L531.59,169.44L532.45,184.23L532.59,180.58L533.45,190.35L533.59,182.63L533.74,183.1L533.88,178.67L534.74,184.68L534.88,183.3L535.02,184.51L535.45,177.28L535.59,178.33L535.88,175.39L536.45,173.59L536.59,168.85L537.02,170.31L537.45,172.32L537.59,175.26L538.02,170.25L538.45,170.18L538.59,171.76L538.88,166.54L539.02,168.16L539.45,166.76L540.45,158.69L540.59,159.93L540.73,161.22L541.73,157.23L542.02,157.35L542.59,158.09L543.73,155.2L543.88,156.17L544.02,153L544.45,152.33L544.59,148.69L544.73,145.64L544.88,151.48L545.02,150.48L545.45,149.04L545.59,145.91L546.02,146.72L546.45,143.56L546.59,140.92L547.02,145.37L547.45,142.56L549.02,135.01L549.45,135.62L550.45,131.65L550.59,133.52L550.73,133.14L550.87,139.25L551.02,139.57L551.45,136.54L551.59,138.69L551.87,134.64L552.02,120.75L552.87,110.21L553.45,111.26L553.59,115.9L553.87,108.1L554.44,108.66L554.59,107.34L554.73,107.14L554.87,103.58L555.73,92.17L555.87,94.26L556.02,94.54L556.44,88.68L556.59,81.57L556.87,99.98L557.02,99.87L558.02,112.27L558.44,107.62L558.59,107.37L558.73,112.09L559.02,119.41L559.44,114.93L559.59,112.53L559.73,119.03L560.02,111.88L560.44,108.17L560.87,105.64L561.01,110.86L561.44,106.04L561.59,110.66L562.01,105.39L562.44,95.11L563.44,106.76L563.59,104.64L564.44,108.05L564.59,105.9L565.44,116.74L565.59,114.43L566.01,102.44L566.44,105.73L566.58,106.21L567.44,100.2L567.58,101.46L568.44,109.16L568.58,107.32L568.73,106.13L569.01,105.35L569.44,101.93L569.73,96.34L570.01,97.49L570.44,95.41L570.58,94.53L570.73,98.14L570.87,96.11L571.01,97.27L571.44,98.14L571.58,89.67L571.73,89.77L571.87,88.53L572.01,91.36L572.44,89.18L572.58,84.11L572.73,85.39L572.87,83.99L573.44,77.43L574.73,91.45L574.87,85.45L575.01,83.88L575.44,88.14L575.58,88.39L575.73,85.49L576.01,90.7L576.58,89.74L576.73,83.91L577.58,68.44L577.73,69.97L577.87,76.88L578.01,84L578.58,79.79L578.73,81.25L578.87,76.46L579.58,77.81L579.72,78.67L580.58,81.74L580.72,85.01L581.87,98.74L582.01,98.36L582.44,89.26L583.44,105.19L583.58,98.6L583.72,100.14L583.87,97.38L584.01,98.68L584.44,94.56L584.58,92.35L584.87,99.38L585.01,100.13L585.44,95.39L585.72,99.99L585.87,99.29L586.44,98.18L586.58,100.25L588.01,82L588.44,84.46L588.87,79.91L589.01,80.39L589.44,79.44L589.87,83.48L590.01,80.16L590.44,79.61L590.87,81.33L591.01,84.15L591.44,82.64L591.58,89.18L591.86,86.55L592.01,85.27L592.72,95.67L592.86,92.59L593.01,89.12L593.72,92.98L593.86,89.32L594.01,91.95L594.58,89.89L594.72,89.96L595.58,93.56L595.72,92.47L595.86,94.59L596.01,91.31L596.44,91.29L597.86,83.06L598.01,84.92L600.58,68.76L600.72,65.19L600.86,67.05L601.01,64.44L601.43,65.29L601.58,63.69L601.72,58.79L602.01,62.65L602.43,68.15L603.43,59.01L603.58,62.12L603.72,64.62L604.01,63.39L604.43,63.86L604.58,61.29L605,62.38L605.43,62.45L605.58,63.14L605.72,62.77L605.86,58.53L606,58.23L606.43,55.4L606.72,62.07L607,59.51L607.43,57.38L607.58,57.5L607.72,59.27L607.86,60.42L608,58.93L608.43,52.59L608.58,54.4L609,50.94L609.58,47.59L610.57,59.6L610.72,58.33L610.86,58.67L611.43,66.87L611.72,62.79L611.86,61.41L612,61.29L612.43,63.46L613.43,72.2L613.57,69.43L613.86,66.38L614.43,67.05L614.57,68.87L614.72,69.71L614.86,65.72L615.86,57.7L616,58.81L616.43,58.88L616.86,53.36L617,57.25L617.43,58.43L618,54.56L618.43,55.73L618.57,55.21L618.72,59.28L618.86,59.35L619,56.37L619.43,56.35L619.57,54.95L620.72,39.56L621,46.78L621.57,34.84L621.86,37L622,39.7L622.57,26.57L622.72,21.08L622.86,21.81L623,14.94L624.43,28.58L624.57,24.02L625.43,13.7L625.57,15.16L625.71,15.04L626,17.58" style="vector-effect: non-scaling-stroke; fill: none; stroke: rgb(255, 127, 14); stroke-opacity: 1; stroke-width: 2px; opacity: 1;"/></g><g class="points"/><g class="text"/></g></g></g><g class="overplot"/><path class="xlines-above crisp" d="M0,0" style="fill: none;"/><path class="ylines-above crisp" d="M0,0" style="fill: none;"/><g class="overlines-above"/><g class="xaxislayer-above"><g class="xtick"><text text-anchor="middle" x="0" y="333" transform="translate(44.14,0)" style="font-family: 'Open Sans', verdana, arial, sans-serif; font-size: 12px; fill: rgb(214, 223, 239); fill-opacity: 1; white-space: pre; opacity: 1;">2010</text></g><g class="xtick"><text text-anchor="middle" x="0" y="333" style="font-family: 'Open Sans', verdana, arial, sans-serif; font-size: 12px; fill: rgb(214, 223, 239); fill-opacity: 1; white-space: pre; opacity: 1;" transform="translate(148.4,0)">2012</text></g><g class="xtick"><text text-anchor="middle" x="0" y="333" style="font-family: 'Open Sans', verdana, arial, sans-serif; font-size: 12px; fill: rgb(214, 223, 239); fill-opacity: 1; white-space: pre; opacity: 1;" transform="translate(252.81,0)">2014</text></g><g class="xtick"><text text-anchor="middle" x="0" y="333" style="font-family: 'Open Sans', verdana, arial, sans-serif; font-size: 12px; fill: rgb(214, 223, 239); fill-opacity: 1; white-space: pre; opacity: 1;" transform="translate(357.07,0)">2016</text></g><g class="xtick"><text text-anchor="middle" x="0" y="333" style="font-family: 'Open Sans', verdana, arial, sans-serif; font-size: 12px; fill: rgb(214, 223, 239); fill-opacity: 1; white-space: pre; opacity: 1;" transform="translate(461.48,0)">2018</text></g><g class="xtick"><text text-anchor="middle" x="0" y="333" style="font-family: 'Open Sans', verdana, arial, sans-serif; font-size: 12px; fill: rgb(214, 223, 239); fill-opacity: 1; white-space: pre; opacity: 1;" transform="translate(565.74,0)">2020</text></g></g><g class="yaxislayer-above"><g class="ytick"><text text-anchor="end" x="43" y="4.199999999999999" transform="translate(0,313.3)" style="font-family: 'Open Sans', verdana, arial, sans-serif; font-size: 12px; fill: rgb(214, 223, 239); fill-opacity: 1; white-space: pre; opacity: 1;">0</text></g><g class="ytick"><text text-anchor="end" x="43" y="4.199999999999999" style="font-family: 'Open Sans', verdana, arial, sans-serif; font-size: 12px; fill: rgb(214, 223, 239); fill-opacity: 1; white-space: pre; opacity: 1;" transform="translate(0,274.89)">500</text></g><g class="ytick"><text text-anchor="end" x="43" y="4.199999999999999" style="font-family: 'Open Sans', verdana, arial, sans-serif; font-size: 12px; fill: rgb(214, 223, 239); fill-opacity: 1; white-space: pre; opacity: 1;" transform="translate(0,236.48)">1000</text></g><g class="ytick"><text text-anchor="end" x="43" y="4.199999999999999" style="font-family: 'Open Sans', verdana, arial, sans-serif; font-size: 12px; fill: rgb(214, 223, 239); fill-opacity: 1; white-space: pre; opacity: 1;" transform="translate(0,198.07)">1500</text></g><g class="ytick"><text text-anchor="end" x="43" y="4.199999999999999" style="font-family: 'Open Sans', verdana, arial, sans-serif; font-size: 12px; fill: rgb(214, 223, 239); fill-opacity: 1; white-space: pre; opacity: 1;" transform="translate(0,159.66)">2000</text></g><g class="ytick"><text text-anchor="end" x="43" y="4.199999999999999" style="font-family: 'Open Sans', verdana, arial, sans-serif; font-size: 12px; fill: rgb(214, 223, 239); fill-opacity: 1; white-space: pre; opacity: 1;" transform="translate(0,121.24)">2500</text></g><g class="ytick"><text text-anchor="end" x="43" y="4.199999999999999" style="font-family: 'Open Sans', verdana, arial, sans-serif; font-size: 12px; fill: rgb(214, 223, 239); fill-opacity: 1; white-space: pre; opacity: 1;" transform="translate(0,82.83)">3000</text></g></g><g class="overaxes-above"/></g></g><g class="polarlayer"/><g class="ternarylayer"/><g class="geolayer"/><g class="funnelarealayer"/><g class="pielayer"/><g class="iciclelayer"/><g class="treemaplayer"/><g class="sunburstlayer"/><g class="glimages"/><defs id="topdefs-9de2cf"><g class="clips"/><clipPath id="legend9de2cf"><rect width="277" height="29" x="0" y="0"/></clipPath></defs><g class="layer-above"><g class="imagelayer"/><g class="shapelayer"/></g><g class="infolayer"><g class="legend" pointer-events="all" transform="translate(393,11.519999999999996)"><rect class="bg" shape-rendering="crispEdges" style="stroke: rgb(68, 68, 68); stroke-opacity: 1; fill: rgb(33, 34, 44); fill-opacity: 1; stroke-width: 0px;" width="277" height="29" x="0" y="0"/><g class="scrollbox" transform="" clip-path="url(#legend9de2cf)"><g class="groups"><g class="traces" transform="translate(0,14.5)" style="opacity: 1;"><text class="legendtext" text-anchor="start" x="40" y="4.680000000000001" style="font-family: 'Open Sans', verdana, arial, sans-serif; font-size: 12px; fill: rgb(214, 223, 239); fill-opacity: 1; white-space: pre;">Value (kept)</text><g class="layers" style="opacity: 1;"><g class="legendfill"/><g class="legendlines"><path class="js-line" d="M5,0h30" style="fill: none; stroke: rgb(31, 119, 180); stroke-opacity: 1; stroke-width: 2px;"/></g><g class="legendsymbols"><g class="legendpoints"/></g></g><rect class="legendtoggle" x="0" y="-9.5" width="117.515625" height="19" style="fill: rgb(0, 0, 0); fill-opacity: 0;"/></g><g class="traces" transform="translate(120.015625,14.5)" style="opacity: 1;"><text class="legendtext" text-anchor="start" x="40" y="4.680000000000001" style="font-family: 'Open Sans', verdana, arial, sans-serif; font-size: 12px; fill: rgb(214, 223, 239); fill-opacity: 1; white-space: pre;">Value (reinvested)</text><g class="layers" style="opacity: 1;"><g class="legendfill"/><g class="legendlines"><path class="js-line" d="M5,0h30" style="fill: none; stroke: rgb(255, 127, 14); stroke-opacity: 1; stroke-width: 2px;"/></g><g class="legendsymbols"><g class="legendpoints"/></g></g><rect class="legendtoggle" x="0" y="-9.5" width="154.0625" height="19" style="fill: rgb(0, 0, 0); fill-opacity: 0;"/></g></g></g><rect class="scrollbar" rx="20" ry="3" width="0" height="0" style="fill: rgb(128, 139, 164); fill-opacity: 1;" x="0" y="0"/></g><g class="g-gtitle"/><g class="g-xtitle"/><g class="g-ytitle"/></g></svg>