<svg class="main-svg" xmlns="http://www.w3.org/2000/svg" xmlns:xlink="http://www.w3.org/1999/xlink" width="700" height="350" style="" viewBox="0 0 700 350"><rect x="0" y="0" width="700" height="350" style="fill: rgb(33, 34, 44); fill-opacity: 1;"/><defs id="defs-d641c2"><g class="clips"><clipPath id="clipd641c2xyplot" class="plotclip"><rect width="632" height="242"/></clipPath><clipPath class="axesclip" id="clipd641c2x"><rect x="35" y="0" width="632" height="350"/></clipPath><clipPath class="axesclip" id="clipd641c2y"><rect x="0" y="65" width="700" height="242"/></clipPath><clipPath class="axesclip" id="clipd641c2xy"><rect x="35" y="65" width="632" height="242"/></clipPath></g><g class="gradients"/><g class="patterns"/></defs><g class="bglayer"/><g class="layer-below"><g class="imagelayer"/><g class="shapelayer"/></g><g class="cartesianlayer"><g class="subplot xy"><g class="layer-subplot"><g class="shapelayer"/><g class="imagelayer"/></g><g class="gridlayer"><g class="x"><path class="xgrid crisp" transform="translate(67.14,0)" d="M0,65v242" style="stroke: rgb(47, 62, 78); stroke-opacity: 1; stroke-width: 1px;"/><path class="xgrid crisp" transform="translate(142.12,0)" d="M0,65v242" style="stroke: rgb(47, 62, 78); stroke-opacity: 1; stroke-width: 1px;"/><path class="xgrid crisp" transform="translate(217.1,0)" d="M0,65v242" style="stroke: rgb(47, 62, 78); stroke-opacity: 1; stroke-width: 1px;"/><path class="xgrid crisp" transform="translate(292.08,0)" d="M0,65v242" style="stroke: rgb(47, 62, 78); stroke-opacity: 1; stroke-width: 1px;"/><path class="xgrid crisp" transform="translate(367.07,0)" d="M0,65v242" style="stroke: rgb(47, 62, 78); stroke-opacity: 1; stroke-width: 1px;"/><path class="xgrid crisp" transform="translate(442.05,0)" d="M0,65v242" style="stroke: rgb(47, 62, 78); stroke-opacity: 1; stroke-width: 1px;"/><path class="xgrid crisp" transform="translate(517.03,0)" d="M0,65v242" style="stroke: rgb(47, 62, 78); stroke-opacity: 1; stroke-width: 1px;"/><path class="xgrid crisp" transform="translate(592.02,0)" d="M0,65v242" style="stroke: rgb(47, 62, 78); stroke-opacity: 1; stroke-width: 1px;"/></g><g class="y"><path class="ygrid crisp" transform="translate(0,270.02)" d="M35,0h632" style="stroke: rgb(47, 62, 78); stroke-opacity: 1; stroke-width: 1px;"/><path class="ygrid crisp" transform="translate(0,223.72)" d="M35,0h632" style="stroke: rgb(47, 62, 78); stroke-opacity: 1; stroke-width: 1px;"/><path class="ygrid crisp" transform="translate(0,177.41)" d="M35,0h632" style="stroke: rgb(47, 62, 78); stroke-opacity: 1; stroke-width: 1px;"/><path class="ygrid crisp" transform="translate(0,131.1)" d="M35,0h632" style="stroke: rgb(47, 62, 78); stroke-opacity: 1; stroke-width: 1px;"/><path class="ygrid crisp" transform="translate(0,84.8)" d="M35,0h632" style="stroke: rgb(47, 62, 78); stroke-opacity: 1; stroke-width: 1px;"/></g></g><g class="zerolinelayer"/><path class="xlines-below"/><path class="ylines-below"/><g class="overlines-below"/><g class="xaxislayer-below"/><g class="yaxislayer-below"/><g class="overaxes-below"/><g class="plot" transform="translate(35,65)" clip-path="url(#clipd641c2xyplot)"><g class="scatterlayer mlayer"><g class="trace scatter trace66a0077f-9720-44dc-a247-c81106b1d0bd" style="stroke-miterlimit: 2; opacity: 1;"><g class="fills"/><g class="errorbars"/><g class="lines"><path class="js-line" d="M0,160.71L10.71,165.48L21.42,165.73L32.14,165.23L42.85,156.57L53.56,156.96L64.27,153.64L74.98,143.55L85.69,142.68L96.41,143.97L107.12,150.75L117.83,158.99L128.54,164.98L139.25,156.75L149.97,153.44L160.68,150.97L171.39,147.69L182.1,151.5L192.81,135.7L203.53,127.33L214.24,128.79L224.95,129.41L235.66,133.57L246.37,135.88L257.08,134.55L267.8,146.11L278.51,147.23L289.22,131.58L299.93,123.12L310.64,122.93" style="vector-effect: non-scaling-stroke; fill: none; stroke: rgb(31, 119, 180); stroke-opacity: 1; stroke-width: 2px; opacity: 1;"/></g><g class="points"/><g class="text"/></g><g class="trace scatter traceaf7e2053-8e1f-47c3-be4b-ba5362e7f502" style="stroke-miterlimit: 2; opacity: 0.1;"><g class="fills"/><g class="errorbars"/><g class="lines"><path class="js-line" d="M310.64,122.93L321.36,124.18L332.07,130.13L342.78,129.07L353.49,132.59L364.2,133.58L374.92,129.45L385.63,131.87L396.34,130.8L407.05,131.7L417.76,122.3L428.47,121.98L439.19,118.91L460.61,117.57L471.32,121.29L482.03,122.73L492.75,125.09L503.46,127.43L514.17,126.66L524.88,127.72L535.59,124.65L557.02,129.76L567.73,128.98L578.44,143.28L589.15,140.13L599.86,140.61L610.58,136.06L621.29,139.14L632,140.91" style="vector-effect: non-scaling-stroke; fill: none; stroke: rgb(196, 152, 29); stroke-opacity: 1; stroke-width: 2px; opacity: 1;"/></g><g class="points"/><g class="text"/></g><g class="trace scatter trace8341c1d3-96e8-4d94-ab0f-62d4ac5965cb" style="stroke-miterlimit: 2; opacity: 0.1;"><g class="fills"/><g class="errorbars"/><g class="lines"><path class="js-line" d="M310.64,122.93L321.36,116.22L332.07,105.95L342.78,116L353.49,107.83L364.2,81.88L374.92,51.24L385.63,45.33L396.34,63.62L407.05,72.25L417.76,63.53L428.47,73.04L439.19,68.05L449.9,99.56L460.61,118.24L471.32,98.6L482.03,99.61L492.75,102.4L503.46,111.65L514.17,103.97L524.88,100.81L535.59,101.18L546.31,107.3L557.02,110.3L567.73,106.74L599.86,111.73L610.58,105.81L621.29,88.05L632,84.16" style="vector-effect: non-scaling-stroke; fill: none; stroke: rgb(84, 168, 41); stroke-opacity: 1; stroke-width: 2px; opacity: 1;"/></g><g class="points"/><g class="text"/></g><g class="trace scatter traced168b049-220e-470b-b10f-1e99a3d755b4" style="stroke-miterlimit: 2; opacity: 0.1;"><g class="fills"/><g class="errorbars"/><g class="lines"><path class="js-line" d="M310.64,122.93L321.36,133.21L332.07,130.43L342.78,130.88L353.49,130.2L364.2,131.72L374.92,127.54L385.63,125.44L396.34,121.29L407.05,110.66L417.76,108.11L439.19,111.52L449.9,108.18L460.61,101.99L471.32,94.23L482.03,85.96L492.75,52.56L503.46,61.96L514.17,27.88L524.88,20.62L535.59,12.1L546.31,25.05L557.02,46.93L567.73,49.87L578.44,12.4L589.15,21.27L599.86,21.88L610.58,33.34L621.29,25.18L632,20.91" style="vector-effect: non-scaling-stroke; fill: none; stroke: rgb(44, 160, 44); stroke-opacity: 1; stroke-width: 2px; opacity: 1;"/></g><g class="points"/><g class="text"/></g><g class="trace scatter tracec7b52b8d-effc-45fd-9099-35a58bfc4aff" style="stroke-miterlimit: 2; opacity: 0.1;"><g class="fills"/><g class="errorbars"/><g class="lines"><path class="js-line" d="M310.64,122.93L321.36,123.5L332.07,121.71L342.78,122.24L353.49,116.25L374.92,129.62L385.63,141.58L396.34,142.4L407.05,144.97L417.76,146.65L428.47,147.5L439.19,140.45L449.9,142.33L460.61,143.07L471.32,135.65L482.03,134.65L492.75,139.52L503.46,157.92L514.17,162.15L535.59,162.43L546.31,229.9L557.02,216.3L567.73,224.63L578.44,220.23L589.15,228.9L599.86,224.05L610.58,223.76L621.29,201.9L632,201.73" style="vector-effect: non-scaling-stroke; fill: none; stroke: rgb(220, 57, 18); stroke-opacity: 1; stroke-width: 2px; opacity: 1;"/></g><g class="points"/><g class="text"/></g><g class="trace scatter trace3dcb5d24-54b8-489a-bf65-80aa1ee07433" style="stroke-miterlimit: 2; opacity: 0.1;"><g class="fills"/><g class="errorbars"/><g class="lines"><path class="js-line" d="M310.64,122.93L321.36,120.47L332.07,119.82L342.78,130.02L353.49,127.18L364.2,128.93L374.92,120.51L385.63,112.12L396.34,114.23L407.05,107.87L417.76,113.7L428.47,96.51L439.19,112.02L460.61,105.43L471.32,108.72L482.03,109.01L492.75,106.45L514.17,105.55L524.88,103.74L535.59,117.09L546.31,113.21L557.02,113.35L567.73,115.5L589.15,111.82L599.86,113.23L610.58,114.89L621.29,117.91L632,116.83" style="vector-effect: non-scaling-stroke; fill: none; stroke: rgb(140, 179, 37); stroke-opacity: 1; stroke-width: 2px; opacity: 1;"/></g><g class="points"/><g class="text"/></g><g class="trace scatter trace14c60cdb-ab5c-4785-aca6-d543c1a1e128" style="stroke-miterlimit: 2; opacity: 0.1;"><g class="fills"/><g class="errorbars"/><g class="lines"><path class="js-line" d="M310.64,122.93L332.07,127.1L342.78,122.46L353.49,127.13L364.2,147.39L374.92,157.25L385.63,144.04L396.34,137.98L407.05,147.41L417.76,147.97L428.47,145.72L439.19,150.18L449.9,155.69L460.61,153.26L471.32,143.05L482.03,123.2L492.75,125.06L503.46,122.82L514.17,118.63L524.88,107.61L535.59,89.96L546.31,97.1L557.02,96.36L567.73,91.77L578.44,92.67L589.15,80.22L599.86,86.85L610.58,80.61L621.29,80.97L632,61.37" style="vector-effect: non-scaling-stroke; fill: none; stroke: rgb(188, 187, 33); stroke-opacity: 1; stroke-width: 2px; opacity: 1;"/></g><g class="points"/><g class="text"/></g><g class="trace scatter trace3552415b-85f0-4966-82b8-14f57620a865" style="stroke-miterlimit: 2;"><g class="fills"><g><path class="js-fill" d="M310.64,122.93L342.78,125.77L353.49,127.16L364.2,130.33L374.92,128.5L385.63,128.66L396.34,126.05L407.05,121.18L417.76,118L428.47,115.76L439.19,115.47L449.9,113.56L460.61,117.9L471.32,115.01L482.03,115.87L492.75,115.75L503.46,117.23L514.17,112.09L524.88,105.68L535.59,109.13L546.31,110.26L557.02,111.82L567.73,111.12L589.15,110.69L599.86,112.48L610.58,110.35L621.29,102.98L632,100.5L632,140.91L621.29,139.14L610.58,136.06L599.86,140.61L589.15,140.13L578.44,143.28L567.73,128.98L557.02,129.76L535.59,124.65L524.88,127.72L514.17,126.66L503.46,127.43L492.75,125.09L482.03,123.2L471.32,135.65L460.61,143.07L449.9,142.33L439.19,140.45L428.47,145.72L417.76,146.65L407.05,144.97L396.34,137.98L385.63,141.58L374.92,129.62L364.2,133.58L353.49,130.2L332.07,130.13L321.36,124.73L310.64,122.93Z" style="fill: rgb(127, 127, 127); fill-opacity: 0.25; stroke-width: 0;"/></g></g><g class="errorbars"/><g class="lines"><path class="js-line" d="M310.64,122.93L321.36,124.73L332.07,130.13L353.49,130.2L364.2,133.58L374.92,129.62L385.63,141.58L396.34,137.98L407.05,144.97L417.76,146.65L428.47,145.72L439.19,140.45L449.9,142.33L460.61,143.07L471.32,135.65L482.03,123.2L492.75,125.09L503.46,127.43L514.17,126.66L524.88,127.72L535.59,124.65L557.02,129.76L567.73,128.98L578.44,143.28L589.15,140.13L599.86,140.61L610.58,136.06L621.29,139.14L632,140.91" style="vector-effect: non-scaling-stroke; fill: none; stroke: rgb(203, 125, 26); stroke-opacity: 0.75; stroke-width: 2px; opacity: 1;"/></g><g class="points"/><g class="text"/></g><g class="trace scatter trace6e34286e-165f-4660-86c0-f992cfc46ba2" style="stroke-miterlimit: 2;"><g class="fills"><g><path class="js-fill" d="M310.64,122.93L321.36,120.47L332.07,119.82L342.78,122.24L353.49,116.25L364.2,122.54L374.92,120.51L385.63,112.12L396.34,114.23L407.05,107.87L417.76,108.11L428.47,96.51L439.19,111.52L460.61,105.43L471.32,98.6L482.03,99.61L492.75,102.4L503.46,106.14L514.17,103.97L524.88,100.81L535.59,89.96L546.31,97.1L557.02,96.36L567.73,91.77L578.44,92.67L589.15,80.22L599.86,86.85L610.58,80.61L621.29,80.97L632,61.37L632,100.5L621.29,102.98L610.58,110.35L599.86,112.48L589.15,110.69L567.73,111.12L557.02,111.82L546.31,110.26L535.59,109.13L524.88,105.68L514.17,112.09L503.46,117.23L492.75,115.75L482.03,115.87L471.32,115.01L460.61,117.9L449.9,113.56L439.19,115.47L428.47,115.76L417.76,118L407.05,121.18L396.34,126.05L385.63,128.66L374.92,128.5L364.2,130.33L353.49,127.16L342.78,125.77L310.64,122.93Z" style="fill: rgb(127, 127, 127); fill-opacity: 0.25; stroke-width: 0;"/></g></g><g class="errorbars"/><g class="lines"><path class="js-line" d="M310.64,122.93L342.78,125.77L353.49,127.16L364.2,130.33L374.92,128.5L385.63,128.66L396.34,126.05L407.05,121.18L417.76,118L428.47,115.76L439.19,115.47L449.9,113.56L460.61,117.9L471.32,115.01L482.03,115.87L492.75,115.75L503.46,117.23L514.17,112.09L524.88,105.68L535.59,109.13L546.31,110.26L557.02,111.82L567.73,111.12L589.15,110.69L599.86,112.48L610.58,110.35L621.29,102.98L632,100.5" style="vector-effect: non-scaling-stroke; fill: none; stroke: rgb(152, 181, 36); stroke-opacity: 1; stroke-width: 2px; opacity: 1;"/></g><g class="points"/><g class="text"/></g><g class="trace scatter trace4d3e822e-d311-4751-a99f-a0c70c97681a" style="stroke-miterlimit: 2;"><g class="fills"/><g class="errorbars"/><g class="lines"><path class="js-line" d="M310.64,122.93L321.36,120.47L332.07,119.82L342.78,122.24L353.49,116.25L364.2,122.54L374.92,120.51L385.63,112.12L396.34,114.23L407.05,107.87L417.76,108.11L428.47,96.51L439.19,111.52L460.61,105.43L471.32,98.6L482.03,99.61L492.75,102.4L503.46,106.14L514.17,103.97L524.88,100.81L535.59,89.96L546.31,97.1L557.02,96.36L567.73,91.77L578.44,92.67L589.15,80.22L599.86,86.85L610.58,80.61L621.29,80.97L632,61.37" style="vector-effect: non-scaling-stroke; fill: none; stroke: rgb(92, 169, 40); stroke-opacity: 0.75; stroke-width: 2px; opacity: 1;"/></g><g class="points"/><g class="text"/></g><g class="trace scatter trace03f5436f-0c41-4b55-b155-8c411b5ecff8" style="stroke-miterlimit: 2; opacity: 1;"><g class="fills"/><g class="errorbars"/><g class="lines"><path class="js-line" d="M310.64,122.93L321.36,123.72L332.07,122.52L342.78,125.11L353.49,123.53L364.2,124.34L374.92,119.27L385.63,116.73L396.34,118.39L407.05,119.14L417.76,117.04L428.47,115.72L439.19,116.86L449.9,122.15L460.61,123.26L471.32,116.92L482.03,112.53L492.75,108.51L503.46,114.65L514.17,107.47L524.88,103.83L535.59,101.24L546.31,116.63L557.02,118.83L567.73,119.58L578.44,115.17L589.15,115.32L599.86,116.39L610.58,115.74L621.29,108.86L632,104.32" style="vector-effect: non-scaling-stroke; fill: none; stroke: rgb(156, 182, 36); stroke-opacity: 1; stroke-width: 2px; opacity: 1; stroke-dasharray: 3px, 3px;"/></g><g class="points"/><g class="text"/></g></g></g><g class="overplot"/><path class="xlines-above crisp" d="M0,0" style="fill: none;"/><path class="ylines-above crisp" d="M0,0" style="fill: none;"/><g class="overlines-above"/><g class="xaxislayer-above"><g class="xtick"><text text-anchor="middle" x="0" y="320" transform="translate(67.14,0)" style="font-family: 'Open Sans', verdana, arial, sans-serif; font-size: 12px; fill: rgb(214, 223, 239); fill-opacity: 1; white-space: pre; opacity: 1;"><tspan class="line" dy="0em" x="0" y="320">Jul 3</tspan><tspan class="line" dy="1.3em" x="0" y="320">2022</tspan></text></g><g class="xtick"><text text-anchor="middle" x="0" y="320" style="font-family: 'Open Sans', verdana, arial, sans-serif; font-size: 12px; fill: rgb(214, 223, 239); fill-opacity: 1; white-space: pre; opacity: 1;" transform="translate(142.12,0)">Jul 10</text></g><g class="xtick"><text text-anchor="middle" x="0" y="320" style="font-family: 'Open Sans', verdana, arial, sans-serif; font-size: 12px; fill: rgb(214, 223, 239); fill-opacity: 1; white-space: pre; opacity: 1;" transform="translate(217.1,0)">Jul 17</text></g><g class="xtick"><text text-anchor="middle" x="0" y="320" style="font-family: 'Open Sans', verdana, arial, sans-serif; font-size: 12px; fill: rgb(214, 223, 239); fill-opacity: 1; white-space: pre; opacity: 1;" transform="translate(292.08,0)">Jul 24</text></g><g class="xtick"><text text-anchor="middle" x="0" y="320" style="font-family: 'Open Sans', verdana, arial, sans-serif; font-size: 12px; fill: rgb(214, 223, 239); fill-opacity: 1; white-space: pre; opacity: 1;" transform="translate(367.07,0)">Jul 31</text></g><g class="xtick"><text text-anchor="middle" x="0" y="320" style="font-family: 'Open Sans', verdana, arial, sans-serif; font-size: 12px; fill: rgb(214, 223, 239); fill-opacity: 1; white-space: pre; opacity: 1;" transform="translate(442.05,0)">Aug 7</text></g><g class="xtick"><text text-anchor="middle" x="0" y="320" style="font-family: 'Open Sans', verdana, arial, sans-serif; font-size: 12px; fill: rgb(214, 223, 239); fill-opacity: 1; white-space: pre; opacity: 1;" transform="translate(517.03,0)">Aug 14</text></g><g class="xtick"><text text-anchor="middle" x="0" y="320" style="font-family: 'Open Sans', verdana, arial, sans-serif; font-size: 12px; fill: rgb(214, 223, 239); fill-opacity: 1; white-space: pre; opacity: 1;" transform="translate(592.02,0)">Aug 21</text></g><g class="xtick"><text text-anchor="middle" x="0" y="320" style="font-family: 'Open Sans', verdana, arial, sans-serif; font-size: 12px; fill: rgb(214, 223, 239); fill-opacity: 1; white-space: pre; opacity: 1;" transform="translate(667,0)">Aug 28</text></g></g><g class="yaxislayer-above"><g class="ytick"><text text-anchor="end" x="34" y="4.199999999999999" transform="translate(0,270.02)" style="font-family: 'Open Sans', verdana, arial, sans-serif; font-size: 12px; fill: rgb(214, 223, 239); fill-opacity: 1; white-space: pre; opacity: 1;">15k</text></g><g class="ytick"><text text-anchor="end" x="34" y="4.199999999999999" style="font-family: 'Open Sans', verdana, arial, sans-serif; font-size: 12px; fill: rgb(214, 223, 239); fill-opacity: 1; white-space: pre; opacity: 1;" transform="translate(0,223.72)">20k</text></g><g class="ytick"><text text-anchor="end" x="34" y="4.199999999999999" style="font-family: 'Open Sans', verdana, arial, sans-serif; font-size: 12px; fill: rgb(214, 223, 239); fill-opacity: 1; white-space: pre; opacity: 1;" transform="translate(0,177.41)">25k</text></g><g class="ytick"><text text-anchor="end" x="34" y="4.199999999999999" style="font-family: 'Open Sans', verdana, arial, sans-serif; font-size: 12px; fill: rgb(214, 223, 239); fill-opacity: 1; white-space: pre; opacity: 1;" transform="translate(0,131.1)">30k</text></g><g class="ytick"><text text-anchor="end" x="34" y="4.199999999999999" style="font-family: 'Open Sans', verdana, arial, sans-serif; font-size: 12px; fill: rgb(214, 223, 239); fill-opacity: 1; white-space: pre; opacity: 1;" transform="translate(0,84.8)">35k</text></g></g><g class="overaxes-above"/></g></g><g class="polarlayer"/><g class="smithlayer"/><g class="ternarylayer"/><g class="geolayer"/><g class="funnelarealayer"/><g class="pielayer"/><g class="iciclelayer"/><g class="treemaplayer"/><g class="sunburstlayer"/><g class="glimages"/><defs id="topdefs-d641c2"><g class="clips"/><clipPath id="legendd641c2"><rect width="527" height="48" x="0" y="0"/></clipPath></defs><g class="layer-above"><g class="imagelayer"/><g class="shapelayer"/></g><g class="infolayer"><g class="legend" pointer-events="all" transform="translate(140,12.159999999999997)"><rect class="bg" shape-rendering="crispEdges" style="stroke: rgb(68, 68, 68); stroke-opacity: 1; fill: rgb(33, 34, 44); fill-opacity: 1; stroke-width: 0px;" width="527" height="48" x="0" y="0"/><g class="scrollbox" transform="" clip-path="url(#legendd641c2)"><g class="groups"><g class="traces" transform="translate(0,14.5)" style="opacity: 1;"><text class="legendtext" text-anchor="start" x="40" y="4.680000000000001" style="font-family: 'Open Sans', verdana, arial, sans-serif; font-size: 12px; fill: rgb(214, 223, 239); fill-opacity: 1; white-space: pre;">Close</text><g class="layers" style="opacity: 1;"><g class="legendfill"/><g class="legendlines"><path class="js-line" d="M5,0h30" style="fill: none; stroke: rgb(31, 119, 180); stroke-opacity: 1; stroke-width: 2px;"/></g><g class="legendsymbols"><g class="legendpoints"/></g></g><rect class="legendtoggle" x="0" y="-9.5" width="74.859375" height="19" style="fill: rgb(0, 0, 0); fill-opacity: 0;"/></g><g class="traces" transform="translate(131.578125,14.5)" style="opacity: 1;"><text class="legendtext" text-anchor="start" x="40" y="4.680000000000001" style="font-family: 'Open Sans', verdana, arial, sans-serif; font-size: 12px; fill: rgb(214, 223, 239); fill-opacity: 1; white-space: pre;">proj (6)</text><g class="layers" style="opacity: 0.1;"><g class="legendfill"/><g class="legendlines"><path class="js-line" d="M5,0h30" style="fill: none; stroke: rgb(196, 152, 29); stroke-opacity: 1; stroke-width: 2px;"/></g><g class="legendsymbols"><g class="legendpoints"/></g></g><rect class="legendtoggle" x="0" y="-9.5" width="89.265625" height="19" style="fill: rgb(0, 0, 0); fill-opacity: 0;"/></g><g class="traces" transform="translate(263.15625,14.5)" style="opacity: 1;"><text class="legendtext" text-anchor="start" x="40" y="4.680000000000001" style="font-family: 'Open Sans', verdana, arial, sans-serif; font-size: 12px; fill: rgb(214, 223, 239); fill-opacity: 1; white-space: pre;">Q=20% (proj)</text><g class="layers"><g class="legendfill"/><g class="legendlines"><path class="js-line" d="M5,0h30" style="fill: none; stroke: rgb(203, 125, 26); stroke-opacity: 0.75; stroke-width: 2px;"/></g><g class="legendsymbols"><g class="legendpoints"/></g></g><rect class="legendtoggle" x="0" y="-9.5" width="129.078125" height="19" style="fill: rgb(0, 0, 0); fill-opacity: 0;"/></g><g class="traces" transform="translate(394.734375,14.5)" style="opacity: 1;"><text class="legendtext" text-anchor="start" x="40" y="4.680000000000001" style="font-family: 'Open Sans', verdana, arial, sans-serif; font-size: 12px; fill: rgb(214, 223, 239); fill-opacity: 1; white-space: pre;">Q=50% (proj)</text><g class="layers"><g class="legendfill"><path class="js-fill" d="M5,-2h30v6h-30z" style="stroke-width: 0; fill: rgb(127, 127, 127); fill-opacity: 0.25;"/></g><g class="legendlines"><path class="js-line" d="M5,-2h30" style="fill: none; stroke: rgb(152, 181, 36); stroke-opacity: 1; stroke-width: 2px;"/></g><g class="legendsymbols"><g class="legendpoints"/></g></g><rect class="legendtoggle" x="0" y="-9.5" width="129.078125" height="19" style="fill: rgb(0, 0, 0); fill-opacity: 0;"/></g><g class="traces" transform="translate(0,33.5)" style="opacity: 1;"><text class="legendtext" text-anchor="start" x="40" y="4.680000000000001" style="font-family: 'Open Sans', verdana, arial, sans-serif; font-size: 12px; fill: rgb(214, 223, 239); fill-opacity: 1; white-space: pre;">Q=80% (proj)</text><g class="layers"><g class="legendfill"><path class="js-fill" d="M5,-2h30v6h-30z" style="stroke-width: 0; fill: rgb(127, 127, 127); fill-opacity: 0.25;"/></g><g class="legendlines"><path class="js-line" d="M5,-2h30" style="fill: none; stroke: rgb(92, 169, 40); stroke-opacity: 0.75; stroke-width: 2px;"/></g><g class="legendsymbols"><g class="legendpoints"/></g></g><rect class="legendtoggle" x="0" y="-9.5" width="129.078125" height="19" style="fill: rgb(0, 0, 0); fill-opacity: 0;"/></g><g class="traces" transform="translate(131.578125,33.5)" style="opacity: 1;"><text class="legendtext" text-anchor="start" x="40" y="4.680000000000001" style="font-family: 'Open Sans', verdana, arial, sans-serif; font-size: 12px; fill: rgb(214, 223, 239); fill-opacity: 1; white-space: pre;">Mean (proj)</text><g class="layers" style="opacity: 1;"><g class="legendfill"/><g class="legendlines"><path class="js-line" d="M5,0h30" style="fill: none; stroke: rgb(156, 182, 36); stroke-opacity: 1; stroke-dasharray: 3px, 3px; stroke-width: 2px;"/></g><g class="legendsymbols"><g class="legendpoints"/></g></g><rect class="legendtoggle" x="0" y="-9.5" width="113.703125" height="19" style="fill: rgb(0, 0, 0); fill-opacity: 0;"/></g></g></g><rect class="scrollbar" rx="20" ry="3" width="0" height="0" style="fill: rgb(128, 139, 164); fill-opacity: 1;" x="0" y="0"/></g><g class="g-gtitle"/><g class="g-xtitle"/><g class="g-ytitle"/></g></svg>