<svg class="main-svg" xmlns="http://www.w3.org/2000/svg" xmlns:xlink="http://www.w3.org/1999/xlink" width="700" height="350" style="" viewBox="0 0 700 350"><rect x="0" y="0" width="700" height="350" style="fill: rgb(33, 34, 44); fill-opacity: 1;"/><defs id="defs-712897"><g class="clips"><clipPath id="clip712897xyplot" class="plotclip"><rect width="637" height="274"/></clipPath><clipPath class="axesclip" id="clip712897x"><rect x="33" y="0" width="637" height="350"/></clipPath><clipPath class="axesclip" id="clip712897y"><rect x="0" y="46" width="700" height="274"/></clipPath><clipPath class="axesclip" id="clip712897xy"><rect x="33" y="46" width="637" height="274"/></clipPath></g><g class="gradients"/><g class="patterns"/></defs><g class="bglayer"/><g class="layer-below"><g class="imagelayer"/><g class="shapelayer"/></g><g class="cartesianlayer"><g class="subplot xy"><g class="layer-subplot"><g class="shapelayer"/><g class="imagelayer"/></g><g class="gridlayer"><g class="x"><path class="xgrid crisp" transform="translate(76.77000000000001,0)" d="M0,46v274" style="stroke: rgb(47, 62, 78); stroke-opacity: 1; stroke-width: 1px;"/><path class="xgrid crisp" transform="translate(161.92,0)" d="M0,46v274" style="stroke: rgb(47, 62, 78); stroke-opacity: 1; stroke-width: 1px;"/><path class="xgrid crisp" transform="translate(244.27,0)" d="M0,46v274" style="stroke: rgb(47, 62, 78); stroke-opacity: 1; stroke-width: 1px;"/><path class="xgrid crisp" transform="translate(329.42,0)" d="M0,46v274" style="stroke: rgb(47, 62, 78); stroke-opacity: 1; stroke-width: 1px;"/><path class="xgrid crisp" transform="translate(414.56,0)" d="M0,46v274" style="stroke: rgb(47, 62, 78); stroke-opacity: 1; stroke-width: 1px;"/><path class="xgrid crisp" transform="translate(501.1,0)" d="M0,46v274" style="stroke: rgb(47, 62, 78); stroke-opacity: 1; stroke-width: 1px;"/><path class="xgrid crisp" transform="translate(586.25,0)" d="M0,46v274" style="stroke: rgb(47, 62, 78); stroke-opacity: 1; stroke-width: 1px;"/></g><g class="y"><path class="ygrid crisp" transform="translate(0,267.94)" d="M33,0h637" style="stroke: rgb(47, 62, 78); stroke-opacity: 1; stroke-width: 1px;"/><path class="ygrid crisp" transform="translate(0,215.88)" d="M33,0h637" style="stroke: rgb(47, 62, 78); stroke-opacity: 1; stroke-width: 1px;"/><path class="ygrid crisp" transform="translate(0,163.82)" d="M33,0h637" style="stroke: rgb(47, 62, 78); stroke-opacity: 1; stroke-width: 1px;"/><path class="ygrid crisp" transform="translate(0,111.76)" d="M33,0h637" style="stroke: rgb(47, 62, 78); stroke-opacity: 1; stroke-width: 1px;"/><path class="ygrid crisp" transform="translate(0,59.7)" d="M33,0h637" style="stroke: rgb(47, 62, 78); stroke-opacity: 1; stroke-width: 1px;"/></g></g><g class="zerolinelayer"><path class="yzl zl crisp" transform="translate(0,320)" d="M33,0h637" style="stroke: rgb(47, 62, 78); stroke-opacity: 1; stroke-width: 2px;"/></g><path class="xlines-below"/><path class="ylines-below"/><g class="overlines-below"/><g class="xaxislayer-below"/><g class="yaxislayer-below"/><g class="overaxes-below"/><g class="plot" transform="translate(33,46)" clip-path="url(#clip712897xyplot)"><g class="scatterlayer mlayer"><g class="trace scatter trace1c6f3c90-4921-419c-931b-4d5fdb692845" style="stroke-miterlimit: 2;"><g class="fills"><g><path class="js-fill" d="M637,274L0.5,274L0.5,86.81L42.37,86.81L43.77,119.06L84.25,119.06L85.65,137.88L127.52,137.88L128.92,139.14L170.79,139.14L172.19,130.3L209.87,130.3L211.27,170.16L253.15,170.16L254.54,154.18L295.02,154.18L296.42,139.05L338.29,139.05L339.69,115.2L380.17,115.2L381.56,127.26L423.44,127.26L424.83,145.76L466.71,145.76L468.1,141.36L508.58,141.36L509.98,143.77L551.85,143.77L553.25,175.08L593.73,175.08L595.12,159.07L637,159.07" style="fill: rgb(31, 119, 180); fill-opacity: 0.8; stroke-width: 0;"/></g><g><path class="js-fill" d="M0.5,30.65L42.37,30.65L43.77,39.2L84.25,39.2L85.65,47.65L127.52,47.65L128.92,54.6L170.79,54.6L172.19,68.04L209.87,68.04L211.27,57.15L253.15,57.15L254.54,76.94L295.02,76.94L296.42,53.12L338.29,53.12L339.69,65.71L380.17,65.71L381.56,48.8L423.44,48.8L424.83,70.88L466.71,70.88L468.1,63.05L508.58,63.05L509.98,69.67L551.85,69.67L553.25,86.45L593.73,86.45L595.12,89.84L637,89.84L637,159.07L595.12,159.07L593.73,175.08L553.25,175.08L551.85,143.77L509.98,143.77L508.58,141.36L468.1,141.36L466.71,145.76L424.83,145.76L423.44,127.26L381.56,127.26L380.17,115.2L339.69,115.2L338.29,139.05L296.42,139.05L295.02,154.18L254.54,154.18L253.15,170.16L211.27,170.16L209.87,130.3L172.19,130.3L170.79,139.14L128.92,139.14L127.52,137.88L85.65,137.88L84.25,119.06L43.77,119.06L42.37,86.81L0.5,86.81Z" style="fill: rgb(255, 127, 14); fill-opacity: 0.8; stroke-width: 0;"/></g></g><g class="errorbars"/><g class="lines"><path class="js-line" d="M0.5,86.81L42.37,86.81L43.77,119.06L84.25,119.06L85.65,137.88L127.52,137.88L128.92,139.14L170.79,139.14L172.19,130.3L209.87,130.3L211.27,170.16L253.15,170.16L254.54,154.18L295.02,154.18L296.42,139.05L338.29,139.05L339.69,115.2L380.17,115.2L381.56,127.26L423.44,127.26L424.83,145.76L466.71,145.76L468.1,141.36L508.58,141.36L509.98,143.77L551.85,143.77L553.25,175.08L593.73,175.08L595.12,159.07L637,159.07" style="vector-effect: non-scaling-stroke; fill: none; stroke: rgb(31, 119, 180); stroke-opacity: 1; stroke-width: 0px; opacity: 1;"/></g><g class="points"/><g class="text"/></g><g class="trace scatter tracef6e4f174-8574-457c-8cd4-47d652fc3779" style="stroke-miterlimit: 2;"><g class="fills"><g><path class="js-fill" d="M0.5,13.7L637,13.7L637,89.84L595.12,89.84L593.73,86.45L553.25,86.45L551.85,69.67L509.98,69.67L508.58,63.05L468.1,63.05L466.71,70.88L424.83,70.88L423.44,48.8L381.56,48.8L380.17,65.71L339.69,65.71L338.29,53.12L296.42,53.12L295.02,76.94L254.54,76.94L253.15,57.15L211.27,57.15L209.87,68.04L172.19,68.04L170.79,54.6L128.92,54.6L127.52,47.65L85.65,47.65L84.25,39.2L43.77,39.2L42.37,30.65L0.5,30.65Z" style="fill: rgb(44, 160, 44); fill-opacity: 0.8; stroke-width: 0;"/></g></g><g class="errorbars"/><g class="lines"><path class="js-line" d="M0.5,30.65L42.37,30.65L43.77,39.2L84.25,39.2L85.65,47.65L127.52,47.65L128.92,54.6L170.79,54.6L172.19,68.04L209.87,68.04L211.27,57.15L253.15,57.15L254.54,76.94L295.02,76.94L296.42,53.12L338.29,53.12L339.69,65.71L380.17,65.71L381.56,48.8L423.44,48.8L424.83,70.88L466.71,70.88L468.1,63.05L508.58,63.05L509.98,69.67L551.85,69.67L553.25,86.45L593.73,86.45L595.12,89.84L637,89.84" style="vector-effect: non-scaling-stroke; fill: none; stroke: rgb(255, 127, 14); stroke-opacity: 1; stroke-width: 0px; opacity: 1;"/></g><g class="points"/><g class="text"/></g><g class="trace scatter trace8d8adc98-91db-4e6e-9145-d71c4ea2fdc6" style="stroke-miterlimit: 2;"><g class="fills"/><g class="errorbars"/><g class="lines"><path class="js-line" d="M0.5,13.7L637,13.7" style="vector-effect: non-scaling-stroke; fill: none; stroke: rgb(44, 160, 44); stroke-opacity: 1; stroke-width: 0px; opacity: 1;"/></g><g class="points"/><g class="text"/></g></g></g><g class="overplot"/><path class="xlines-above crisp" d="M0,0" style="fill: none;"/><path class="ylines-above crisp" d="M0,0" style="fill: none;"/><g class="overlines-above"/><g class="xaxislayer-above"><g class="xtick"><text text-anchor="middle" x="0" y="333" transform="translate(76.77000000000001,0)" style="font-family: 'Open Sans', verdana, arial, sans-serif; font-size: 12px; fill: rgb(214, 223, 239); fill-opacity: 1; white-space: pre; opacity: 1;">Nov 2020</text></g><g class="xtick"><text text-anchor="middle" x="0" y="333" style="font-family: 'Open Sans', verdana, arial, sans-serif; font-size: 12px; fill: rgb(214, 223, 239); fill-opacity: 1; white-space: pre; opacity: 1;" transform="translate(161.92,0)">Jan 2021</text></g><g class="xtick"><text text-anchor="middle" x="0" y="333" style="font-family: 'Open Sans', verdana, arial, sans-serif; font-size: 12px; fill: rgb(214, 223, 239); fill-opacity: 1; white-space: pre; opacity: 1;" transform="translate(244.27,0)">Mar 2021</text></g><g class="xtick"><text text-anchor="middle" x="0" y="333" style="font-family: 'Open Sans', verdana, arial, sans-serif; font-size: 12px; fill: rgb(214, 223, 239); fill-opacity: 1; white-space: pre; opacity: 1;" transform="translate(329.42,0)">May 2021</text></g><g class="xtick"><text text-anchor="middle" x="0" y="333" style="font-family: 'Open Sans', verdana, arial, sans-serif; font-size: 12px; fill: rgb(214, 223, 239); fill-opacity: 1; white-space: pre; opacity: 1;" transform="translate(414.56,0)">Jul 2021</text></g><g class="xtick"><text text-anchor="middle" x="0" y="333" style="font-family: 'Open Sans', verdana, arial, sans-serif; font-size: 12px; fill: rgb(214, 223, 239); fill-opacity: 1; white-space: pre; opacity: 1;" transform="translate(501.1,0)">Sep 2021</text></g><g class="xtick"><text text-anchor="middle" x="0" y="333" style="font-family: 'Open Sans', verdana, arial, sans-serif; font-size: 12px; fill: rgb(214, 223, 239); fill-opacity: 1; white-space: pre; opacity: 1;" transform="translate(586.25,0)">Nov 2021</text></g></g><g class="yaxislayer-above"><g class="ytick"><text text-anchor="end" x="32" y="4.199999999999999" transform="translate(0,320)" style="font-family: 'Open Sans', verdana, arial, sans-serif; font-size: 12px; fill: rgb(214, 223, 239); fill-opacity: 1; white-space: pre; opacity: 1;">0</text></g><g class="ytick"><text text-anchor="end" x="32" y="4.199999999999999" style="font-family: 'Open Sans', verdana, arial, sans-serif; font-size: 12px; fill: rgb(214, 223, 239); fill-opacity: 1; white-space: pre; opacity: 1;" transform="translate(0,267.94)">0.2</text></g><g class="ytick"><text text-anchor="end" x="32" y="4.199999999999999" style="font-family: 'Open Sans', verdana, arial, sans-serif; font-size: 12px; fill: rgb(214, 223, 239); fill-opacity: 1; white-space: pre; opacity: 1;" transform="translate(0,215.88)">0.4</text></g><g class="ytick"><text text-anchor="end" x="32" y="4.199999999999999" style="font-family: 'Open Sans', verdana, arial, sans-serif; font-size: 12px; fill: rgb(214, 223, 239); fill-opacity: 1; white-space: pre; opacity: 1;" transform="translate(0,163.82)">0.6</text></g><g class="ytick"><text text-anchor="end" x="32" y="4.199999999999999" style="font-family: 'Open Sans', verdana, arial, sans-serif; font-size: 12px; fill: rgb(214, 223, 239); fill-opacity: 1; white-space: pre; opacity: 1;" transform="translate(0,111.76)">0.8</text></g><g class="ytick"><text text-anchor="end" x="32" y="4.199999999999999" style="font-family: 'Open Sans', verdana, arial, sans-serif; font-size: 12px; fill: rgb(214, 223, 239); fill-opacity: 1; white-space: pre; opacity: 1;" transform="translate(0,59.7)">1</text></g></g><g class="overaxes-above"/></g></g><g class="polarlayer"/><g class="smithlayer"/><g class="ternarylayer"/><g class="geolayer"/><g class="funnelarealayer"/><g class="pielayer"/><g class="iciclelayer"/><g class="treemaplayer"/><g class="sunburstlayer"/><g class="glimages"/><defs id="topdefs-712897"><g class="clips"/><clipPath id="legend712897"><rect width="309" height="29" x="0" y="0"/></clipPath></defs><g class="layer-above"><g class="imagelayer"/><g class="shapelayer"><path data-index="0" fill-rule="evenodd" d="M33.5,320L33.5,46" clip-path="url(#clip712897x)" style="opacity: 1; stroke: rgb(33, 34, 44); stroke-opacity: 1; fill: rgb(0, 0, 0); fill-opacity: 0; stroke-dasharray: 3px, 3px; stroke-width: 1px;"/><path data-index="1" fill-rule="evenodd" d="M76.77000000000001,320L76.77000000000001,46" clip-path="url(#clip712897x)" style="opacity: 1; stroke: rgb(33, 34, 44); stroke-opacity: 1; fill: rgb(0, 0, 0); fill-opacity: 0; stroke-dasharray: 3px, 3px; stroke-width: 1px;"/><path data-index="2" fill-rule="evenodd" d="M118.65,320L118.65,46" clip-path="url(#clip712897x)" style="opacity: 1; stroke: rgb(33, 34, 44); stroke-opacity: 1; fill: rgb(0, 0, 0); fill-opacity: 0; stroke-dasharray: 3px, 3px; stroke-width: 1px;"/><path data-index="3" fill-rule="evenodd" d="M161.92,320L161.92,46" clip-path="url(#clip712897x)" style="opacity: 1; stroke: rgb(33, 34, 44); stroke-opacity: 1; fill: rgb(0, 0, 0); fill-opacity: 0; stroke-dasharray: 3px, 3px; stroke-width: 1px;"/><path data-index="4" fill-rule="evenodd" d="M205.19,320L205.19,46" clip-path="url(#clip712897x)" style="opacity: 1; stroke: rgb(33, 34, 44); stroke-opacity: 1; fill: rgb(0, 0, 0); fill-opacity: 0; stroke-dasharray: 3px, 3px; stroke-width: 1px;"/><path data-index="5" fill-rule="evenodd" d="M244.27,320L244.27,46" clip-path="url(#clip712897x)" style="opacity: 1; stroke: rgb(33, 34, 44); stroke-opacity: 1; fill: rgb(0, 0, 0); fill-opacity: 0; stroke-dasharray: 3px, 3px; stroke-width: 1px;"/><path data-index="6" fill-rule="evenodd" d="M287.53999999999996,320L287.53999999999996,46" clip-path="url(#clip712897x)" style="opacity: 1; stroke: rgb(33, 34, 44); stroke-opacity: 1; fill: rgb(0, 0, 0); fill-opacity: 0; stroke-dasharray: 3px, 3px; stroke-width: 1px;"/><path data-index="7" fill-rule="evenodd" d="M329.42,320L329.42,46" clip-path="url(#clip712897x)" style="opacity: 1; stroke: rgb(33, 34, 44); stroke-opacity: 1; fill: rgb(0, 0, 0); fill-opacity: 0; stroke-dasharray: 3px, 3px; stroke-width: 1px;"/><path data-index="8" fill-rule="evenodd" d="M372.69,320L372.69,46" clip-path="url(#clip712897x)" style="opacity: 1; stroke: rgb(33, 34, 44); stroke-opacity: 1; fill: rgb(0, 0, 0); fill-opacity: 0; stroke-dasharray: 3px, 3px; stroke-width: 1px;"/><path data-index="9" fill-rule="evenodd" d="M414.56,320L414.56,46" clip-path="url(#clip712897x)" style="opacity: 1; stroke: rgb(33, 34, 44); stroke-opacity: 1; fill: rgb(0, 0, 0); fill-opacity: 0; stroke-dasharray: 3px, 3px; stroke-width: 1px;"/><path data-index="10" fill-rule="evenodd" d="M457.83,320L457.83,46" clip-path="url(#clip712897x)" style="opacity: 1; stroke: rgb(33, 34, 44); stroke-opacity: 1; fill: rgb(0, 0, 0); fill-opacity: 0; stroke-dasharray: 3px, 3px; stroke-width: 1px;"/><path data-index="11" fill-rule="evenodd" d="M501.1,320L501.1,46" clip-path="url(#clip712897x)" style="opacity: 1; stroke: rgb(33, 34, 44); stroke-opacity: 1; fill: rgb(0, 0, 0); fill-opacity: 0; stroke-dasharray: 3px, 3px; stroke-width: 1px;"/><path data-index="12" fill-rule="evenodd" d="M542.98,320L542.98,46" clip-path="url(#clip712897x)" style="opacity: 1; stroke: rgb(33, 34, 44); stroke-opacity: 1; fill: rgb(0, 0, 0); fill-opacity: 0; stroke-dasharray: 3px, 3px; stroke-width: 1px;"/><path data-index="13" fill-rule="evenodd" d="M586.25,320L586.25,46" clip-path="url(#clip712897x)" style="opacity: 1; stroke: rgb(33, 34, 44); stroke-opacity: 1; fill: rgb(0, 0, 0); fill-opacity: 0; stroke-dasharray: 3px, 3px; stroke-width: 1px;"/><path data-index="14" fill-rule="evenodd" d="M628.12,320L628.12,46" clip-path="url(#clip712897x)" style="opacity: 1; stroke: rgb(33, 34, 44); stroke-opacity: 1; fill: rgb(0, 0, 0); fill-opacity: 0; stroke-dasharray: 3px, 3px; stroke-width: 1px;"/></g></g><g class="infolayer"><g class="legend" pointer-events="all" transform="translate(361,11.519999999999996)"><rect class="bg" shape-rendering="crispEdges" width="309" height="29" x="0" y="0" style="stroke: rgb(68, 68, 68); stroke-opacity: 1; fill: rgb(33, 34, 44); fill-opacity: 1; stroke-width: 0px;"/><g class="scrollbox" transform="" clip-path="url(#legend712897)"><g class="groups"><g class="traces" transform="translate(0,14.5)" style="opacity: 1;"><text class="legendtext" text-anchor="start" x="40" y="4.680000000000001" style="font-family: 'Open Sans', verdana, arial, sans-serif; font-size: 12px; fill: rgb(214, 223, 239); fill-opacity: 1; white-space: pre;">BTCUSDT</text><g class="layers"><g class="legendfill"><path class="js-fill" d="M5,-2h30v6h-30z" style="stroke-width: 0; fill: rgb(31, 119, 180); fill-opacity: 0.8;"/></g><g class="legendlines"><path class="js-line" d="M5,-2h30" style="fill: none; stroke: rgb(31, 119, 180); stroke-opacity: 1; stroke-width: 0px;"/></g><g class="legendsymbols"><g class="legendpoints"/></g></g><rect class="legendtoggle" x="0" y="-9.5" width="100.140625" height="19" style="fill: rgb(0, 0, 0); fill-opacity: 0;"/></g><g class="traces" transform="translate(102.640625,14.5)" style="opacity: 1;"><text class="legendtext" text-anchor="start" x="40" y="4.680000000000001" style="font-family: 'Open Sans', verdana, arial, sans-serif; font-size: 12px; fill: rgb(214, 223, 239); fill-opacity: 1; white-space: pre;">ETHUSDT</text><g class="layers"><g class="legendfill"><path class="js-fill" d="M5,-2h30v6h-30z" style="stroke-width: 0; fill: rgb(255, 127, 14); fill-opacity: 0.8;"/></g><g class="legendlines"><path class="js-line" d="M5,-2h30" style="fill: none; stroke: rgb(255, 127, 14); stroke-opacity: 1; stroke-width: 0px;"/></g><g class="legendsymbols"><g class="legendpoints"/></g></g><rect class="legendtoggle" x="0" y="-9.5" width="100.140625" height="19" style="fill: rgb(0, 0, 0); fill-opacity: 0;"/></g><g class="traces" transform="translate(205.28125,14.5)" style="opacity: 1;"><text class="legendtext" text-anchor="start" x="40" y="4.680000000000001" style="font-family: 'Open Sans', verdana, arial, sans-serif; font-size: 12px; fill: rgb(214, 223, 239); fill-opacity: 1; white-space: pre;">SOLUSDT</text><g class="layers"><g class="legendfill"><path class="js-fill" d="M5,-2h30v6h-30z" style="stroke-width: 0; fill: rgb(44, 160, 44); fill-opacity: 0.8;"/></g><g class="legendlines"><path class="js-line" d="M5,-2h30" style="fill: none; stroke: rgb(44, 160, 44); stroke-opacity: 1; stroke-width: 0px;"/></g><g class="legendsymbols"><g class="legendpoints"/></g></g><rect class="legendtoggle" x="0" y="-9.5" width="100.46875" height="19" style="fill: rgb(0, 0, 0); fill-opacity: 0;"/></g></g></g><rect class="scrollbar" rx="20" ry="3" width="0" height="0" x="0" y="0" style="fill: rgb(128, 139, 164); fill-opacity: 1;"/></g><g class="g-gtitle"/><g class="g-xtitle"/><g class="g-ytitle"/></g></svg>