<svg class="main-svg" xmlns="http://www.w3.org/2000/svg" xmlns:xlink="http://www.w3.org/1999/xlink" width="700" height="350" viewBox="0 0 700 350"><rect x="0" y="0" width="700" height="350" style="fill: rgb(33, 34, 44); fill-opacity: 1;"/><defs id="defs-cfa99e"><g class="clips"><clipPath id="clipcfa99exyplot" class="plotclip"><rect width="617" height="274"/></clipPath><clipPath class="axesclip" id="clipcfa99ex"><rect x="53" y="0" width="617" height="350"/></clipPath><clipPath class="axesclip" id="clipcfa99ey"><rect x="0" y="46" width="700" height="274"/></clipPath><clipPath class="axesclip" id="clipcfa99exy"><rect x="53" y="46" width="617" height="274"/></clipPath></g><g class="gradients"/><g class="patterns"/></defs><g class="bglayer"/><g class="layer-below"><g class="imagelayer"/><g class="shapelayer"/></g><g class="cartesianlayer"><g class="subplot xy"><g class="layer-subplot"><g class="shapelayer"/><g class="imagelayer"/></g><g class="gridlayer"><g class="x"><path class="xgrid crisp" transform="translate(54.69,0)" d="M0,46v274" style="stroke: rgb(47, 62, 78); stroke-opacity: 1; stroke-width: 1px;"/><path class="xgrid crisp" transform="translate(155.82999999999998,0)" d="M0,46v274" style="stroke: rgb(47, 62, 78); stroke-opacity: 1; stroke-width: 1px;"/><path class="xgrid crisp" transform="translate(258.66999999999996,0)" d="M0,46v274" style="stroke: rgb(47, 62, 78); stroke-opacity: 1; stroke-width: 1px;"/><path class="xgrid crisp" transform="translate(361.5,0)" d="M0,46v274" style="stroke: rgb(47, 62, 78); stroke-opacity: 1; stroke-width: 1px;"/><path class="xgrid crisp" transform="translate(466.02,0)" d="M0,46v274" style="stroke: rgb(47, 62, 78); stroke-opacity: 1; stroke-width: 1px;"/><path class="xgrid crisp" transform="translate(568.85,0)" d="M0,46v274" style="stroke: rgb(47, 62, 78); stroke-opacity: 1; stroke-width: 1px;"/></g><g class="y"><path class="ygrid crisp" transform="translate(0,299.40999999999997)" d="M53,0h617" style="stroke: rgb(47, 62, 78); stroke-opacity: 1; stroke-width: 1px;"/><path class="ygrid crisp" transform="translate(0,264.44)" d="M53,0h617" style="stroke: rgb(47, 62, 78); stroke-opacity: 1; stroke-width: 1px;"/><path class="ygrid crisp" transform="translate(0,194.51)" d="M53,0h617" style="stroke: rgb(47, 62, 78); stroke-opacity: 1; stroke-width: 1px;"/><path class="ygrid crisp" transform="translate(0,159.54000000000002)" d="M53,0h617" style="stroke: rgb(47, 62, 78); stroke-opacity: 1; stroke-width: 1px;"/><path class="ygrid crisp" transform="translate(0,124.58)" d="M53,0h617" style="stroke: rgb(47, 62, 78); stroke-opacity: 1; stroke-width: 1px;"/><path class="ygrid crisp" transform="translate(0,89.61)" d="M53,0h617" style="stroke: rgb(47, 62, 78); stroke-opacity: 1; stroke-width: 1px;"/><path class="ygrid crisp" transform="translate(0,54.65)" d="M53,0h617" style="stroke: rgb(47, 62, 78); stroke-opacity: 1; stroke-width: 1px;"/></g></g><g class="zerolinelayer"><path class="yzl zl crisp" transform="translate(0,229.47)" d="M53,0h617" style="stroke: rgb(47, 62, 78); stroke-opacity: 1; stroke-width: 2px;"/></g><path class="xlines-below"/><path class="ylines-below"/><g class="overlines-below"/><g class="xaxislayer-below"/><g class="yaxislayer-below"/><g class="overaxes-below"/><g class="plot" transform="translate(53,46)" clip-path="url(#clipcfa99exyplot)"><g class="scatterlayer mlayer"><g class="trace scatter tracea3cb53cd-e4b9-4062-94f3-24344954607e" style="stroke-miterlimit: 2; opacity: 1;"><g class="fills"/><g class="errorbars"/><g class="lines"><path class="js-line" d="M42.14,160.72L43.83,161.79L45.52,161.14L48.89,156.73L50.57,154.68L53.95,154.06L55.63,154.5L59,157.15L60.69,156.37L67.43,152.33L69.12,152.88L72.49,150.48L74.17,150.53L75.86,150.39L77.55,153.02L80.92,158.55L82.6,158.95L87.66,167.64L89.35,169.65L91.03,169.93L92.72,171.83L94.4,175.18L96.09,180.8L101.15,193.33L102.83,196.28L107.89,197.95L109.58,196.4L111.26,194.8L112.95,194.6L118.01,206.03L119.69,208.19L123.06,236.17L124.75,245.57L128.12,256.85L129.81,259.31L131.49,260.3L133.18,254.89L136.55,245.11L138.23,242.73L144.98,219.2L146.66,216.17L148.35,214.7L150.04,214.97L161.84,193.57L163.52,189.01L168.58,180.14L170.27,180.71L177.01,182.1L178.69,183.61L185.44,178.58L187.12,179.66L188.81,180.56L190.49,179.98L198.92,169.74L200.61,168.25L203.98,157.63L205.67,153.57L209.04,148.17L210.72,147.02L214.1,144.2L215.78,139.41L217.47,136.76L219.15,136.6L224.21,150.47L225.9,150.95L227.58,149.12L229.27,150.33L230.95,151.39L232.64,150.95L236.01,150.79L237.7,152.42L241.07,159.46L242.75,161.89L246.13,169.45L247.81,172.41L249.5,172.92L251.18,171.52L252.87,171.05L254.55,169.36L256.24,169.53L257.93,165.89L261.3,166.97L262.98,166.51L269.73,168.16L271.41,168.37L273.1,168.3L274.78,171.47L281.53,177.6L283.21,178.05L286.58,179.8L288.27,181.33L291.64,183.24L293.33,182.05L295.01,181.24L296.7,182.4L300.07,185.08L301.76,186.89L306.81,188.58L308.5,188.41L315.24,189.6L316.93,188.07L318.61,187.51L320.3,186.05L328.73,185.08L330.42,185.04L340.53,186.1L342.22,184.92L350.64,176.33L352.33,168.43L357.39,153.83L359.07,149.99L360.76,144.92L362.45,145.33L365.82,145.43L367.5,143.16L369.19,141.67L370.87,141.97L372.56,141.83L374.25,142.63L375.93,142.59L377.62,145.63L379.3,147.48L380.99,148.22L386.05,150.75L387.73,149.71L389.42,150.74L391.1,153.23L392.79,154.85L394.48,158.04L402.9,169.6L404.59,172.46L407.96,174.81L409.65,174.71L411.33,174.9L413.02,173.54L414.7,175.68L416.39,183.98L421.45,198.52L423.13,200.8L426.51,205.16L428.19,205.37L433.25,204.23L434.93,201.89L443.36,188.7L445.05,187.5L450.11,192.19L451.79,190.94L461.91,186.23L463.59,186.65L466.96,187.72L468.65,187.41L470.34,186.44L472.02,186.7L473.71,186.5L475.39,184.94L478.77,179.95L480.45,177.22L483.82,172.66L485.51,171.56L487.19,170.46L488.88,170.72L492.25,170.42L493.94,168.78L495.62,166.69L497.31,160.18L500.68,150.67L502.37,147.01L505.74,143.6L507.42,139.74L512.48,137.94L514.17,136.63L515.85,136.38L517.54,137.76L520.91,136.14L522.6,127.84L524.28,122.05L525.97,122.3L527.65,119.58L529.34,119.01L531.02,119.52L532.71,118.37L536.08,112.9L537.77,113.46L539.45,115.32L541.14,113.31L544.51,102.67L546.2,99.85L549.57,90.51L551.25,90.26L552.94,91.17L554.63,88.78L556.31,90.09L558,101L559.68,110.72L561.37,115.77L563.05,117.93L564.74,112.29L566.43,113.27L568.11,112.62L569.8,111.55L571.48,115.7L576.54,120.31L578.23,127.66L581.6,138.95L583.28,145.45L584.97,146.82L586.66,146.43L590.03,145.07L591.71,134.24L596.77,90.11L598.46,82.38L600.14,81.23L601.83,76.03L603.51,76.2L605.2,74.8L606.89,69.76L608.57,57.21L613.63,34.02L615.31,22.1L617,13.7" style="vector-effect: non-scaling-stroke; fill: none; stroke: rgb(31, 119, 180); stroke-opacity: 1; stroke-width: 2px; opacity: 1;"/></g><g class="points"/><g class="text"/></g><g class="trace scatter traceadf61462-b5ba-46bb-9738-9f934a234d32" style="stroke-miterlimit: 2; opacity: 1;"><g class="fills"/><g class="errorbars"/><g class="lines"><path class="js-line" d="M55.63,157.36L70.8,154.04L72.49,153.33L75.86,152.29L77.55,152.44L80.92,154.1L82.6,155.07L87.66,160.18L89.35,162.08L94.4,167.26L96.09,169.97L106.2,188.13L107.89,190.09L111.26,192.04L112.95,192.56L116.32,195.63L118.01,197.71L119.69,199.81L121.38,205.05L131.49,241.49L133.18,244.17L134.86,245.29L136.55,245.26L138.23,244.75L139.92,243.18L143.29,237.29L144.98,233.68L150.04,224.66L151.72,222.13L158.46,210.91L160.15,207.89L170.27,190.04L171.95,188.27L175.32,185.78L177.01,185.05L182.07,183.62L183.75,182.79L187.12,181.49L188.81,181.31L192.18,180.4L193.87,179.42L200.61,174.07L202.3,171.6L212.41,154.95L214.1,152.8L219.15,145.28L220.84,144.56L224.21,146.13L225.9,147.1L237.7,150.27L239.38,151.52L244.44,157.17L246.13,159.62L249.5,164.33L251.18,165.77L254.55,167.33L256.24,167.77L261.3,167.21L262.98,167.07L273.1,167.81L274.78,168.55L286.58,175.88L288.27,176.97L293.33,179.67L295.01,179.99L300.07,181.89L301.76,182.89L308.5,186.06L310.19,186.61L316.93,188L318.61,187.9L332.1,185.71L333.79,185.72L342.22,185.74L343.9,185.22L350.64,181.4L352.33,178.81L359.07,164.71L360.76,160.75L364.13,155.14L365.82,153.19L370.87,147.82L372.56,146.62L375.93,145.18L377.62,145.27L389.42,148.9L391.1,149.76L394.48,152.23L396.16,153.85L402.9,161.32L404.59,163.55L409.65,168.87L411.33,170.08L414.7,171.75L416.39,174.2L421.45,184.24L423.13,187.55L428.19,196L429.88,197.82L433.25,200.15L434.93,200.5L438.31,199.38L439.99,198.18L446.73,192.75L448.42,192.2L453.48,191.61L455.16,191.15L465.28,188.12L466.96,188.04L475.39,186.79L477.08,186L482.14,181.46L483.82,179.7L488.88,175.38L490.57,174.48L495.62,171.49L497.31,169.23L509.11,148.97L510.8,146.9L515.85,142L517.54,141.15L520.91,139.51L522.6,137.17L527.65,129.34L529.34,127.27L539.45,118.34L541.14,117.33L544.51,112.8L546.2,110.21L551.25,101.01L552.94,99.04L556.31,95.61L558,96.69L563.05,105.78L564.74,107.08L568.11,109.18L569.8,109.66L576.54,114.71L578.23,117.3L581.6,124.1L583.28,128.37L586.66,134.94L588.34,137.14L590.03,138.73L591.71,137.83L593.4,133.86L595.08,127.92L601.83,100.37L603.51,95.54L606.89,87.06L608.57,81.09L615.31,53.41L617,45.47" style="vector-effect: non-scaling-stroke; fill: none; stroke: rgb(255, 127, 14); stroke-opacity: 1; stroke-width: 2px; opacity: 1;"/></g><g class="points"/><g class="text"/></g></g></g><g class="overplot"/><path class="xlines-above crisp" d="M0,0" style="fill: none;"/><path class="ylines-above crisp" d="M0,0" style="fill: none;"/><g class="overlines-above"/><g class="xaxislayer-above"><g class="xtick"><text text-anchor="middle" x="0" y="333" transform="translate(54.69,0)" style="font-family: 'Open Sans', verdana, arial, sans-serif; font-size: 12px; fill: rgb(214, 223, 239); fill-opacity: 1; white-space: pre; opacity: 1;">Jan 2020</text></g><g class="xtick"><text text-anchor="middle" x="0" y="333" style="font-family: 'Open Sans', verdana, arial, sans-serif; font-size: 12px; fill: rgb(214, 223, 239); fill-opacity: 1; white-space: pre; opacity: 1;" transform="translate(155.82999999999998,0)">Mar 2020</text></g><g class="xtick"><text text-anchor="middle" x="0" y="333" style="font-family: 'Open Sans', verdana, arial, sans-serif; font-size: 12px; fill: rgb(214, 223, 239); fill-opacity: 1; white-space: pre; opacity: 1;" transform="translate(258.66999999999996,0)">May 2020</text></g><g class="xtick"><text text-anchor="middle" x="0" y="333" style="font-family: 'Open Sans', verdana, arial, sans-serif; font-size: 12px; fill: rgb(214, 223, 239); fill-opacity: 1; white-space: pre; opacity: 1;" transform="translate(361.5,0)">Jul 2020</text></g><g class="xtick"><text text-anchor="middle" x="0" y="333" style="font-family: 'Open Sans', verdana, arial, sans-serif; font-size: 12px; fill: rgb(214, 223, 239); fill-opacity: 1; white-space: pre; opacity: 1;" transform="translate(466.02,0)">Sep 2020</text></g><g class="xtick"><text text-anchor="middle" x="0" y="333" style="font-family: 'Open Sans', verdana, arial, sans-serif; font-size: 12px; fill: rgb(214, 223, 239); fill-opacity: 1; white-space: pre; opacity: 1;" transform="translate(568.85,0)">Nov 2020</text></g></g><g class="yaxislayer-above"><g class="ytick"><text text-anchor="end" x="52" y="4.199999999999999" transform="translate(0,299.40999999999997)" style="font-family: 'Open Sans', verdana, arial, sans-serif; font-size: 12px; fill: rgb(214, 223, 239); fill-opacity: 1; white-space: pre; opacity: 1;">−1000</text></g><g class="ytick"><text text-anchor="end" x="52" y="4.199999999999999" style="font-family: 'Open Sans', verdana, arial, sans-serif; font-size: 12px; fill: rgb(214, 223, 239); fill-opacity: 1; white-space: pre; opacity: 1;" transform="translate(0,264.44)">−500</text></g><g class="ytick"><text text-anchor="end" x="52" y="4.199999999999999" style="font-family: 'Open Sans', verdana, arial, sans-serif; font-size: 12px; fill: rgb(214, 223, 239); fill-opacity: 1; white-space: pre; opacity: 1;" transform="translate(0,229.47)">0</text></g><g class="ytick"><text text-anchor="end" x="52" y="4.199999999999999" style="font-family: 'Open Sans', verdana, arial, sans-serif; font-size: 12px; fill: rgb(214, 223, 239); fill-opacity: 1; white-space: pre; opacity: 1;" transform="translate(0,194.51)">500</text></g><g class="ytick"><text text-anchor="end" x="52" y="4.199999999999999" style="font-family: 'Open Sans', verdana, arial, sans-serif; font-size: 12px; fill: rgb(214, 223, 239); fill-opacity: 1; white-space: pre; opacity: 1;" transform="translate(0,159.54000000000002)">1000</text></g><g class="ytick"><text text-anchor="end" x="52" y="4.199999999999999" style="font-family: 'Open Sans', verdana, arial, sans-serif; font-size: 12px; fill: rgb(214, 223, 239); fill-opacity: 1; white-space: pre; opacity: 1;" transform="translate(0,124.58)">1500</text></g><g class="ytick"><text text-anchor="end" x="52" y="4.199999999999999" style="font-family: 'Open Sans', verdana, arial, sans-serif; font-size: 12px; fill: rgb(214, 223, 239); fill-opacity: 1; white-space: pre; opacity: 1;" transform="translate(0,89.61)">2000</text></g><g class="ytick"><text text-anchor="end" x="52" y="4.199999999999999" style="font-family: 'Open Sans', verdana, arial, sans-serif; font-size: 12px; fill: rgb(214, 223, 239); fill-opacity: 1; white-space: pre; opacity: 1;" transform="translate(0,54.65)">2500</text></g></g><g class="overaxes-above"/></g></g><g class="polarlayer"/><g class="ternarylayer"/><g class="geolayer"/><g class="funnelarealayer"/><g class="pielayer"/><g class="iciclelayer"/><g class="treemaplayer"/><g class="sunburstlayer"/><g class="glimages"/><defs id="topdefs-cfa99e"><g class="clips"/><clipPath id="legendcfa99e"><rect width="163" height="29" x="0" y="0"/></clipPath></defs><g class="layer-above"><g class="imagelayer"/><g class="shapelayer"/></g><g class="infolayer"><g class="legend" pointer-events="all" transform="translate(507,11.519999999999996)"><rect class="bg" shape-rendering="crispEdges" style="stroke: rgb(68, 68, 68); stroke-opacity: 1; fill: rgb(33, 34, 44); fill-opacity: 1; stroke-width: 0px;" width="163" height="29" x="0" y="0"/><g class="scrollbox" transform="" clip-path="url(#legendcfa99e)"><g class="groups"><g class="traces" transform="translate(0,14.5)" style="opacity: 1;"><text class="legendtext" text-anchor="start" x="40" y="4.680000000000001" style="font-family: 'Open Sans', verdana, arial, sans-serif; font-size: 12px; fill: rgb(214, 223, 239); fill-opacity: 1; white-space: pre;">MACD</text><g class="layers" style="opacity: 1;"><g class="legendfill"/><g class="legendlines"><path class="js-line" d="M5,0h30" style="fill: none; stroke: rgb(31, 119, 180); stroke-opacity: 1; stroke-width: 2px;"/></g><g class="legendsymbols"><g class="legendpoints"/></g></g><rect class="legendtoggle" x="0" y="-9.5" width="78.4375" height="19" style="fill: rgb(0, 0, 0); fill-opacity: 0;"/></g><g class="traces" transform="translate(80.9375,14.5)" style="opacity: 1;"><text class="legendtext" text-anchor="start" x="40" y="4.680000000000001" style="font-family: 'Open Sans', verdana, arial, sans-serif; font-size: 12px; fill: rgb(214, 223, 239); fill-opacity: 1; white-space: pre;">Signal</text><g class="layers" style="opacity: 1;"><g class="legendfill"/><g class="legendlines"><path class="js-line" d="M5,0h30" style="fill: none; stroke: rgb(255, 127, 14); stroke-opacity: 1; stroke-width: 2px;"/></g><g class="legendsymbols"><g class="legendpoints"/></g></g><rect class="legendtoggle" x="0" y="-9.5" width="79.5625" height="19" style="fill: rgb(0, 0, 0); fill-opacity: 0;"/></g></g></g><rect class="scrollbar" rx="20" ry="3" width="0" height="0" style="fill: rgb(128, 139, 164); fill-opacity: 1;" x="0" y="0"/></g><g class="g-gtitle"/><g class="g-xtitle"/><g class="g-ytitle"/></g></svg>