<svg class="main-svg" xmlns="http://www.w3.org/2000/svg" xmlns:xlink="http://www.w3.org/1999/xlink" width="700" height="350" style="" viewBox="0 0 700 350"><rect x="0" y="0" width="700" height="350" style="fill: rgb(33, 34, 44); fill-opacity: 1;"/><defs id="defs-80c7cb"><g class="clips"><clipPath id="clip80c7cbxyplot" class="plotclip"><rect width="634" height="274"/></clipPath><clipPath class="axesclip" id="clip80c7cbx"><rect x="36" y="0" width="634" height="350"/></clipPath><clipPath class="axesclip" id="clip80c7cby"><rect x="0" y="46" width="700" height="274"/></clipPath><clipPath class="axesclip" id="clip80c7cbxy"><rect x="36" y="46" width="634" height="274"/></clipPath></g><g class="gradients"/><g class="patterns"/></defs><g class="bglayer"/><g class="layer-below"><g class="imagelayer"/><g class="shapelayer"/></g><g class="cartesianlayer"><g class="subplot xy"><g class="layer-subplot"><g class="shapelayer"/><g class="imagelayer"/></g><g class="gridlayer"><g class="x"><path class="xgrid crisp" transform="translate(49.06,0)" d="M0,46v274" style="stroke: rgb(47, 62, 78); stroke-opacity: 1; stroke-width: 1px;"/><path class="xgrid crisp" transform="translate(144.41,0)" d="M0,46v274" style="stroke: rgb(47, 62, 78); stroke-opacity: 1; stroke-width: 1px;"/><path class="xgrid crisp" transform="translate(239.89,0)" d="M0,46v274" style="stroke: rgb(47, 62, 78); stroke-opacity: 1; stroke-width: 1px;"/><path class="xgrid crisp" transform="translate(335.24,0)" d="M0,46v274" style="stroke: rgb(47, 62, 78); stroke-opacity: 1; stroke-width: 1px;"/><path class="xgrid crisp" transform="translate(430.72,0)" d="M0,46v274" style="stroke: rgb(47, 62, 78); stroke-opacity: 1; stroke-width: 1px;"/><path class="xgrid crisp" transform="translate(526.0699999999999,0)" d="M0,46v274" style="stroke: rgb(47, 62, 78); stroke-opacity: 1; stroke-width: 1px;"/><path class="xgrid crisp" transform="translate(621.54,0)" d="M0,46v274" style="stroke: rgb(47, 62, 78); stroke-opacity: 1; stroke-width: 1px;"/></g><g class="y"><path class="ygrid crisp" transform="translate(0,243.6)" d="M36,0h634" style="stroke: rgb(47, 62, 78); stroke-opacity: 1; stroke-width: 1px;"/><path class="ygrid crisp" transform="translate(0,175.59)" d="M36,0h634" style="stroke: rgb(47, 62, 78); stroke-opacity: 1; stroke-width: 1px;"/><path class="ygrid crisp" transform="translate(0,107.57)" d="M36,0h634" style="stroke: rgb(47, 62, 78); stroke-opacity: 1; stroke-width: 1px;"/></g></g><g class="zerolinelayer"><path class="yzl zl crisp" transform="translate(0,311.62)" d="M36,0h634" style="stroke: rgb(47, 62, 78); stroke-opacity: 1; stroke-width: 2px;"/></g><path class="xlines-below"/><path class="ylines-below"/><g class="overlines-below"/><g class="xaxislayer-below"/><g class="yaxislayer-below"/><g class="overaxes-below"/><g class="plot" transform="translate(36,46)" clip-path="url(#clip80c7cbxyplot)"><g class="scatterlayer mlayer"><g class="trace scatter traceb096e1b7-3bcb-43f7-8de6-4e30e457ee7c" style="stroke-miterlimit: 2; opacity: 1;"><g class="fills"/><g class="errorbars"/><g class="lines"><path class="js-line" d="M32.26,254.95L33.57,255.2L33.7,255.26L33.83,255.52L34.09,255.09L34.48,255.06L35.52,254.25L35.66,254.37L35.79,254.45L37.35,255.29L37.48,254.88L38.66,255.24L39.05,255.42L40.1,254.65L40.23,254.78L41.27,254.75L41.4,254.82L43.23,255.25L43.62,255.41L44.15,255.58L44.54,255.55L45.97,254.68L46.37,254.53L48.59,253.83L48.72,253.89L49.5,253.61L49.63,253.41L50.55,252.55L50.94,252.41L51.85,252.79L51.98,252.83L53.03,252.63L53.16,252.4L54.72,253.09L54.86,253.14L55.77,252.55L56.03,252.54L63.08,251.55L63.21,251.8L63.35,252.05L63.74,251.6L63.87,251.44L65.83,250.74L65.96,250.89L66.74,250.54L67,251.06L67.53,251.56L68.83,250.67L69.22,250.86L70.27,251.27L70.4,251.91L71.57,251.02L71.97,251.06L74.84,251.59L74.97,251.4L75.62,250.96L75.88,251.08L76.02,251.22L76.93,251.22L77.06,251.22L78.89,251.7L79.28,251.73L79.8,251.61L80.33,251.17L82.94,252.52L83.07,252.11L83.85,251.83L83.98,251.7L85.03,251.01L85.16,250.78L88.42,249.14L88.55,249.47L88.68,249.31L88.95,250.1L89.34,250.95L90.25,249.69L90.38,249.82L91.17,250.82L91.3,250.1L92.21,249.42L92.47,249.79L92.6,250.08L94.43,248.99L94.82,248.52L96,249.13L96.13,249.4L97.17,250.26L97.57,249.47L98.61,248.08L98.74,249.06L99.66,248.98L99.79,248.81L101.49,249.2L101.62,249.62L104.1,250.12L104.23,249.75L105.27,249.39L105.4,249.27L106.71,249.74L106.84,249.17L111.28,247.87L111.41,248.16L112.33,246.66L112.46,246.67L113.37,245.82L113.5,245.14L116.38,242.97L116.77,243.47L117.03,243.58L117.29,242.98L117.68,242.69L118.73,240.45L118.86,240.59L119.12,240.86L119.51,240.41L119.64,240.1L120.03,240.72L121.34,239.19L121.47,239.52L121.86,240.48L122.25,241.52L122.38,240.29L122.78,241.82L123.17,241.87L123.3,242.35L123.43,240.28L123.56,240.38L125.26,241.98L125.39,241.92L126.43,243.59L126.82,242.31L127.09,241.92L127.35,242.26L127.87,241.85L128,241.56L128.26,242.32L128.65,242.18L129.7,241.69L129.83,241.85L129.96,241.88L131,241.44L131.4,241.91L132.31,241.01L132.44,240.72L133.22,240.12L133.36,240.36L133.49,240.51L134.27,240.41L134.4,240.44L134.53,240.1L135.05,240.54L135.18,240.66L135.45,241.74L135.58,241.31L135.97,240.9L136.88,239.76L137.01,239.83L138.32,238.58L138.71,237.87L138.84,238.25L138.97,237.72L139.23,237.95L139.62,237.43L140.8,237.66L140.93,237.41L141.06,237.23L141.45,237.97L141.58,238.06L142.63,236.33L142.76,236.47L142.89,236.41L144.33,238.03L144.46,237.61L146.02,239.14L146.16,238.51L146.55,240.18L146.94,239.17L147.46,240.42L148.11,240.79L149.16,243.09L149.29,242.7L149.68,242.87L150.2,243.51L150.6,241.91L150.86,242.08L151.12,241.67L151.51,240.92L152.56,241.49L152.69,243.04L153.34,243.42L153.47,242.93L153.6,243.03L153.86,244.26L154.25,243.88L154.38,243.25L155.43,244.12L155.56,244.04L155.69,244.27L156.08,243.32L156.34,242.61L156.6,243.54L157,243.67L158.04,245.26L158.43,244.67L158.96,244.47L159.09,244.08L159.22,246.74L159.35,247.19L159.87,246.42L160,246.48L160.65,247.08L160.91,246.45L161.05,245.88L161.57,245.39L161.83,245.94L161.96,245.95L162.87,246.82L163,246.62L163.4,246.96L163.53,246.7L163.92,247.48L164.31,247.92L165.23,247.16L165.36,247.56L167.18,246.18L167.32,246.57L168.49,247.78L168.88,247.66L169.27,247.31L169.4,247.5L169.8,247.92L169.93,247.65L170.06,248.64L170.19,249.1L171.63,247.49L171.76,246.96L171.89,247.1L172.15,246.65L172.54,246.2L173.98,247.24L174.37,246.83L175.41,246.89L175.54,246.74L176.33,246.56L176.46,246.73L177.37,247.28L177.5,247.12L179.07,248.54L179.2,248.73L179.33,248.91L179.46,248.8L179.85,248.26L180.12,247.77L180.38,247.91L180.77,248.01L181.81,247.37L181.94,247.36L182.73,247.84L182.86,246.93L183.51,246.62L183.64,246.39L185.34,245.66L185.47,244.71L186.25,243.93L186.38,244.22L186.52,244.16L188.61,244.34L189,244L189.91,246.4L190.04,246.17L190.17,245.77L190.83,244.67L191.22,244.85L191.35,245L192.26,244.99L192.65,244.79L192.79,245.08L193.18,244.57L193.57,244.43L195.4,242.99L195.53,243.55L196.31,243.12L196.44,243.18L196.57,243.24L196.7,243.6L197.36,243.28L197.49,243.25L197.62,242.93L198.27,243.3L198.4,243.5L200.23,241.35L200.36,241.22L201.28,241.54L201.41,241.8L202.32,242.03L202.71,241.13L205.45,242.61L205.59,242.15L205.72,241.68L205.98,242.39L206.5,242.03L207.28,241.97L207.41,243.86L208.2,244.08L208.33,243.76L210.16,242.02L210.29,242.4L211.2,243.26L211.33,242.82L214.6,242.32L214.73,242.07L215.51,242.42L215.64,242.21L215.77,242.17L216.95,243.16L217.34,243.08L217.6,243.19L217.73,242.93L218.25,242.67L218.52,242.94L218.65,241.08L220.08,239.65L220.21,239.93L221.39,240.03L221.52,239.65L224.92,237.07L225.05,237.54L225.18,237.85L225.96,237.68L226.09,237.96L226.48,237.99L226.74,238.13L227.01,237.64L227.4,237.35L228.83,236.65L229.23,236.28L229.62,237.3L230.14,237.04L230.27,236.81L231.06,235.5L231.19,235.69L231.32,235.76L232.23,236.73L232.36,236.74L233.8,235.3L233.93,234.89L235.76,234.04L235.89,235.37L236.67,235.66L236.8,234.74L237.85,234.5L237.98,234.75L238.63,234.51L238.76,235.7L239.41,234.82L239.55,235.3L239.68,235.08L240.33,235.43L240.46,234.8L240.59,234.74L241.37,235.8L241.5,236.19L243.2,232.8L243.33,232.91L243.46,232.6L247.12,229.1L247.51,230.29L247.77,230.02L249.34,232.39L249.47,232.84L250.26,230.94L250.39,231.06L250.52,231.23L251.17,230.64L251.3,231.07L251.43,231.73L252.21,232.99L252.35,232.54L252.48,231.26L253.52,233.08L254.04,232.24L254.83,230.89L254.96,232.11L255.22,229.11L255.87,229.19L256,228.91L258.48,224.62L258.62,224.88L258.75,225.92L258.88,225.42L259.01,226.02L259.53,225.74L259.66,226L260.57,227.94L260.7,227.26L260.84,227.52L261.23,227.1L261.36,226.46L261.49,226.02L261.75,226.81L262.14,226.41L262.27,226.57L262.66,227.63L263.06,226.67L263.32,227.32L263.45,226.99L263.97,226.36L264.23,226.9L264.49,226.44L264.88,226.52L265.41,227.16L265.8,226.29L265.93,226.5L266.19,225.65L266.32,225.46L266.71,224.73L266.84,225.37L266.97,225.97L267.11,227.04L267.24,225.87L267.76,226.84L267.89,227.08L268.15,226.12L268.67,226.66L268.8,226.61L269.46,225.32L269.72,225.36L269.85,224.95L269.98,224.59L270.5,225.5L270.63,224.75L271.28,225.21L271.42,225.39L273.37,226.21L273.51,226.03L274.16,226.3L274.29,225.96L274.94,227.07L275.33,226.48L275.86,226.62L276.12,227.68L276.25,228.45L277.29,225.5L277.68,224.74L279.12,228.07L279.51,228.96L279.64,230.13L280.04,229.7L280.43,228.39L280.56,230.33L280.95,229.56L281.34,229.19L281.73,230.59L281.86,232.73L282.26,233.56L282.39,233.36L282.52,231.51L282.78,230.39L283.17,230.56L283.3,232.12L283.43,230.69L283.69,231.64L284.22,230.7L284.35,231.37L284.61,230.11L285,229.76L285.26,229.42L285.52,230.34L285.91,229.8L286.96,231.71L287.09,231.32L287.22,231.55L287.74,231.17L287.87,231.01L288.13,231.57L288.26,230.76L288.66,230.92L288.92,231.35L289.18,231.09L289.57,230.88L290.09,228.59L290.49,229.77L290.62,230L291.53,227.51L291.66,227.68L292.71,229.48L292.84,230.54L294.27,228.5L294.4,228.76L295.32,229.31L295.45,229.65L295.58,228.45L296.1,228.7L296.23,229.51L296.36,229.34L296.49,230.28L296.89,230.49L297.41,232.51L297.93,232.13L298.06,231.7L299.89,234.17L300.02,235.5L300.93,234.54L301.06,235.29L301.85,235.55L301.98,233.95L302.37,234.57L302.5,234.4L302.63,236.45L302.89,235.22L303.29,235.51L303.42,236.12L303.68,235.29L304.2,235.79L304.33,235.8L304.59,236.2L304.72,236.11L305.24,235.28L305.38,234.81L305.64,235.47L306.03,235.2L306.16,235.89L307.47,233.28L307.86,233.64L308.25,233.86L308.38,233.51L308.77,233.43L309.69,232.37L309.82,232.11L310.6,232.59L310.73,231.81L311.51,230.73L311.64,231.14L311.78,230.78L311.91,231.54L312.56,230.94L312.69,230.44L314.52,234.91L314.65,235.85L315.56,236.17L315.69,236.33L316.35,236.4L316.48,237.08L318.44,233.92L318.96,234.08L319.22,234.75L319.74,234.46L319.87,234.34L320.13,234.14L320.27,234.4L320.66,234.87L321.96,235.26L322.09,236.12L322.49,236.55L322.75,235.8L322.88,235.42L325.62,234.21L325.75,234.45L326.27,235.08L326.4,233.1L327.58,231.48L327.97,231.2L329.15,230.93L329.28,230.98L329.93,231.05L330.06,231.31L330.19,231.46L330.98,231.92L331.11,231.72L331.24,231.41L331.89,231.21L332.02,232.11L332.15,232.87L332.54,232.13L332.67,231.34L332.94,228.92L333.59,229.55L333.72,229.56L333.85,229.22L333.98,229.82L334.37,229.77L334.5,229.7L334.63,229.43L334.76,229.99L334.89,229.72L335.29,229.88L337.38,228.42L337.51,228.44L339.34,230.56L339.47,230.88L340.12,230.22L340.25,231.21L340.38,231.01L340.77,231.87L341.82,229.93L341.95,230.11L342.73,230.04L342.86,230.34L342.99,230.67L345.87,228.42L346.39,228.19L347.43,228.58L347.56,228.39L348.35,227.39L348.48,227.55L348.61,227.62L350.96,226.88L351.09,224.52L352,223.47L352.14,223.16L352.66,222.89L352.79,222.33L354.09,221.8L354.49,221.72L355.01,220.8L355.4,220.95L355.53,220.89L356.45,221.06L356.58,220.59L359.45,219.56L359.58,219.66L361.41,220.01L361.8,219.57L362.85,218.33L362.98,218.47L363.11,218.64L364.15,215.37L364.54,215.49L364.67,215.57L364.81,217.25L365.46,216.04L365.72,216.25L365.85,216.08L366.76,216.31L366.89,215.57L367.29,216.06L367.68,215.72L367.81,217.66L368.72,219.82L369.12,218.51L369.25,218.94L369.64,218.53L370.03,218.67L370.42,219.36L370.55,219.25L370.94,219.42L372.12,218.7L372.25,218.05L373.03,217L373.16,217.22L373.3,217.24L373.95,216.22L374.08,217.15L374.21,217.49L374.6,217.74L374.73,217.31L374.86,215.03L374.99,215.54L375.12,215.27L375.52,214.49L375.91,215.42L376.56,213.39L376.69,213.6L377.34,214.81L377.47,213.98L377.61,213.91L377.74,214.14L377.87,213.95L378.26,213.43L378.78,212.6L379.3,213.24L379.7,214.35L380.09,213.42L381.39,216.04L381.52,216.53L381.92,216.96L382.05,216.12L382.18,215.77L382.83,215.91L382.96,215.69L383.09,216.01L383.22,215.4L383.35,215.43L383.74,215.25L384.79,213.76L384.92,213.98L385.05,215.21L385.96,214.74L386.1,212.92L387.66,208.66L387.92,208.96L388.32,209.19L388.58,210.78L389.23,210.48L389.36,209.46L389.75,208.87L390.14,209.15L390.28,209.48L390.41,210.65L391.06,210.54L391.19,210.59L391.58,210.68L391.97,209.61L392.1,209.93L392.5,209.19L392.89,208.4L394.06,210.28L394.19,210.13L394.32,210.73L394.85,209.74L394.98,209.75L396.15,208.18L396.68,208.47L396.94,207.47L397.46,208.21L397.59,208.19L398.5,211.46L398.63,211.31L398.77,211.2L399.68,215.29L399.81,214.68L400.59,209.28L401.25,209.65L401.38,209.9L402.03,207.33L402.29,207.61L402.42,208.62L403.86,206.44L403.99,207.01L405.3,211.9L405.69,209.35L405.95,211.4L406.6,211.33L406.73,210.78L407.65,209.19L407.78,209.46L408.56,207.57L408.69,207.7L408.82,209.34L409.48,212.55L409.61,212.32L409.74,212.14L409.87,212.75L410.26,211.8L410.39,210.55L411.43,204.6L411.57,203.73L412.61,204.71L413,204.27L413.13,204.43L413.26,204.04L413.52,203.96L414.05,204.19L414.31,204.52L414.44,203.42L415.09,202.2L415.35,202.94L415.75,203.1L415.88,202.75L416.01,203.27L416.14,203.24L416.27,203.88L416.66,203.91L416.79,204.91L416.92,204.64L417.18,205.16L417.57,206.06L418.49,204.42L418.62,205.49L419.92,203.07L420.32,203.2L421.49,201.92L421.62,202.12L421.75,203.18L422.28,203.41L422.41,199.74L423.06,197.27L423.19,197.91L423.32,197.86L424.5,194.23L424.89,194.93L425.15,195.06L425.41,194.7L425.8,194.12L426.85,190.7L426.98,191.19L427.11,192.42L427.63,193.99L427.76,192.18L427.89,193.09L428.02,191.34L429.07,194.21L429.46,193.18L429.72,193.3L430.64,189.48L430.77,190.82L430.9,192.03L431.29,192.2L431.42,191.19L431.68,195.26L432.2,194.31L432.33,192.73L432.59,194.74L432.72,193.67L433.12,193.23L433.25,192.54L433.38,195.05L433.51,193.5L433.64,194.65L434.03,195.99L434.16,195.64L434.29,193.81L434.42,192.71L434.55,197.55L434.95,199.48L435.21,196.74L435.47,198.3L435.86,201.69L437.3,208.9L437.69,208.13L437.82,208.25L438.6,204.77L438.73,207.45L439.65,210.1L439.78,209.95L439.91,209.34L440.95,215.99L441.35,217.28L442.26,213.69L442.52,213.63L442.65,218.81L443.3,215.99L443.44,215.14L443.57,214.98L443.7,215.48L444.09,216.23L444.61,213.99L445.13,215.15L445.26,214.94L445.39,215.35L445.53,213.68L446.05,214.69L446.18,211.21L447.09,208.25L447.35,209.27L447.75,209.6L448.14,209.15L448.27,209.27L448.79,209.1L449.84,207.8L449.97,208.37L450.49,207.48L450.75,207.92L450.88,208.58L451.01,208.45L451.4,206.47L452.71,201.11L452.84,202.45L453.23,203.21L453.36,203.86L453.75,202.81L454.15,202.39L455.32,199.28L455.45,199.84L456.11,199.74L456.24,198.45L457.02,197.02L457.28,197.74L457.41,198.07L457.8,197.97L457.93,199.27L458.33,195.6L458.72,196.69L458.85,198.54L459.24,200.17L459.63,203.98L459.89,202.25L460.15,202.89L460.55,204.85L460.68,203.68L461.07,206.22L461.59,206.46L462.37,208.1L462.51,205.99L463.42,200.96L463.68,201.18L463.81,201.64L464.2,201.26L464.33,199.75L464.6,199.41L465.25,200.71L465.38,199.3L465.64,199.93L466.03,198.72L466.55,197.83L466.95,199.23L467.86,197.51L467.99,197.74L468.12,198.12L468.38,198.38L468.91,196.3L469.04,196.36L469.17,196.9L469.95,194.91L470.08,196.44L470.6,201.45L470.86,199.55L471,198.1L471.52,198.82L471.65,195.99L471.91,198.4L472.04,196.82L472.43,195.53L472.69,194.77L472.82,194.83L472.95,198.1L473.74,195.98L473.87,196.07L474.39,197.08L475.44,191.12L475.57,191.29L475.7,192.74L476.35,191.4L476.48,192L476.61,193.08L477,192.75L477.13,193.09L477.26,191.98L477.53,192.71L477.92,191L478.05,190.79L478.18,192.67L479.35,186.92L479.75,187.03L479.88,187.21L480.01,187.53L480.27,186.85L480.66,185.49L480.79,185.67L480.92,184.6L481.05,184.46L481.58,182.64L481.71,184.56L481.84,184.57L482.88,178.92L483.01,178.68L484.32,176.36L484.45,176.63L484.58,177.66L484.84,178.14L485.23,176.6L485.36,177.3L485.49,176.11L485.75,176.31L486.15,177.34L486.28,178.91L486.67,175.15L487.06,176.42L489.41,168.77L489.8,168.2L490.2,165.25L490.72,165.43L490.85,165.9L491.63,159.7L491.89,161.57L492.02,160.27L492.15,159.1L492.81,159.45L492.94,158.94L493.07,159.24L493.46,162.37L493.72,157.23L493.98,162.19L494.38,162.47L494.77,156.94L495.29,157.91L495.42,158.56L495.55,156.01L495.81,156.77L496.33,158.76L496.47,157.21L496.73,160.75L497.12,165.73L497.64,174.05L498.03,165.52L498.29,164.21L498.95,176.46L499.08,170.04L499.86,184.48L499.99,180.92L500.12,182.99L500.25,183.62L500.38,188.83L500.78,190.46L500.91,182.92L501.04,183.38L501.17,179.05L501.95,184.92L502.08,183.57L502.21,184.75L503.65,169.46L503.78,170.34L503.91,169.58L504.04,170.89L504.43,172.85L504.56,175.72L504.96,170.83L505.35,170.76L505.48,172.3L505.74,167.2L505.87,168.79L506.26,167.42L507.18,159.81L507.44,162.28L507.57,161.65L507.7,162.26L508.09,159.83L508.22,160.44L508.35,158.39L508.48,159.19L508.61,158.51L509.13,159.23L509.53,158.83L509.92,157.51L510.83,153.61L510.96,150.08L511.09,147.1L511.22,152.79L511.36,151.82L511.75,150.41L512.79,142.51L512.92,144.68L513.18,146.84L513.71,143.09L513.84,143.32L515.67,134.32L515.8,135.94L515.93,136.2L516.32,133.47L516.58,134.93L516.71,140.88L516.84,141.19L517.23,138.24L517.36,140.33L517.62,136.38L517.76,122.85L518.54,112.58L519.06,113.89L519.19,118.4L520.11,110.07L520.24,109.88L521.15,95.32L521.28,97.36L521.41,97.63L521.94,85.01L522.07,88.76L522.2,102.92L522.33,102.81L522.85,113.77L522.98,107.71L523.24,114.87L523.63,110.35L523.76,110.1L524.16,121.81L524.55,117.45L524.68,115.13L524.81,121.44L525.07,114.49L525.46,110.89L525.85,108.42L525.98,113.5L526.38,108.81L526.51,113.31L526.9,108.18L527.29,98.18L528.2,109.51L528.34,107.45L529.12,110.76L529.25,108.68L530.03,119.22L530.16,116.97L530.43,105.41L530.95,108.78L531.08,109.26L531.86,103.42L531.99,104.65L532.78,112.11L533.04,109.18L533.3,108.42L534.74,97.92L534.87,101.42L535.91,92.09L536.04,94.84L536.43,92.73L537.35,81.32L537.48,83.77L538.52,94.92L538.65,89.1L538.78,87.58L539.7,94.2L540.22,93.27L541.14,72.6L541.27,74.08L541.4,80.78L541.53,87.7L542.18,85.03L542.31,80.38L544.01,88.94L544.14,90.47L544.27,90.25L544.66,95.48L544.92,96.36L545.05,102.24L545.18,101.88L545.58,93.06L546.49,108.5L546.62,102.11L546.75,103.61L547.54,96.06L547.67,97.15L547.8,102.87L547.93,103.59L548.32,99L548.58,103.46L548.84,101.95L549.23,101.7L549.36,103.72L549.63,99.53L550.15,95.61L550.41,92.91L550.54,89.59L551.45,84L551.58,84.46L551.98,83.54L552.11,85.88L552.37,87.46L552.89,83.7L553.02,84.15L553.15,85.24L553.28,85.38L553.41,88.11L553.81,86.65L553.94,92.98L554.2,90.43L554.33,89.5L554.98,99.56L555.11,96.58L555.24,93.23L555.9,96.96L556.03,93.42L556.16,95.96L556.81,94.04L556.94,96.16L557.85,98.52L557.98,95.34L558.38,95.33L558.51,94.19L558.77,95.04L558.9,93.36L559.29,89.13L559.42,90.27L559.68,87.36L559.81,89.16L560.21,86.67L561.25,81.22L561.38,80.36L561.51,79.95L561.64,76.31L563.08,68.62L563.21,63.88L563.86,72.94L563.99,67.93L564.12,68.95L564.25,67.06L564.38,64.67L564.78,64.09L564.91,67.1L565.04,69.52L565.69,68.79L565.82,66.3L566.74,68.38L566.87,68.03L567,63.93L567.13,63.64L567.52,60.91L567.78,67.35L568.04,64.87L568.43,62.82L568.56,62.94L568.7,64.64L568.83,65.76L568.96,64.32L569.35,58.2L569.48,59.94L569.87,56.6L570.39,53.36L571.31,64.97L571.44,63.74L571.57,64.06L572.09,71.99L572.35,68.04L572.48,66.72L572.61,66.59L573.01,68.69L573.92,77.13L574.05,74.47L574.31,71.51L574.83,72.16L574.96,73.92L575.1,74.74L575.23,70.88L576.14,63.13L576.27,64.2L576.66,64.26L577.05,58.94L577.19,62.69L577.58,63.83L578.1,60.39L578.49,61.53L578.62,61.03L578.88,65.02L579.01,62.14L579.41,62.13L579.8,51.45L579.93,47.81L580.58,45.93L580.84,52.89L581.36,41.37L581.63,43.46L581.76,46.06L582.28,33.39L582.41,28.1L582.54,28.81L582.67,22.17L583.98,35.33L584.11,30.94L584.89,20.98L585.15,22.27L585.28,23.87L585.41,24.72L585.81,18.7L586.2,32.28L586.72,32.02L586.85,28.1L586.98,27.49L587.11,32.02L587.24,30.83L587.77,35.26L588.81,48.98L588.94,49.62L589.72,27.07L589.85,31.06L589.99,31.45L590.38,32.44L590.51,28.14L590.64,26.17L590.77,31.82L590.9,36.55L591.29,36.22L591.42,30.91L591.55,31.24L591.68,36.22L592.47,48.19L592.73,41.69L593.12,41.33L593.38,39.37L594.17,51.76L594.3,44.28L594.95,61.02L595.08,54.95L595.21,48.84L596.12,34.41L596.26,29.17L596.91,22.53L597.04,24.14L597.17,28.44L597.3,28.84L597.69,23.23L598.61,40.47L598.74,37.88L598.87,34.16L599.52,41.4L599.65,38.23L599.78,38.46L600.04,45.85L600.43,44.37L600.57,52.63L600.7,52.94L600.83,43.34L600.96,51.48L601.48,48.99L601.61,40.11L602.66,71.69L602.79,65.5L603.18,67.63L603.31,62.6L603.57,78.78L604.09,70.94L604.22,74.68L604.35,74.46L604.48,70.03L604.61,62.06" style="vector-effect: non-scaling-stroke; fill: none; stroke: rgb(31, 119, 180); stroke-opacity: 1; stroke-width: 2px; opacity: 1;"/></g><g class="points"/><g class="text"/></g><g class="trace scatter trace575a4ccb-f04f-404a-aebb-447746e256e5" style="stroke-miterlimit: 2; opacity: 1;"><g class="fills"/><g class="errorbars"/><g class="lines"/><g class="points"><path class="point plotly-customdata" transform="translate(36.7,255.3)" d="M-4.62,2H4.62L0,-4Z" style="opacity: 1; stroke-width: 1px; fill: rgb(55, 177, 63); fill-opacity: 1; stroke: rgb(38, 123, 44); stroke-opacity: 1;"/><path class="point plotly-customdata" transform="translate(48.72,253.89)" d="M-4.62,2H4.62L0,-4Z" style="opacity: 1; stroke-width: 1px; fill: rgb(55, 177, 63); fill-opacity: 1; stroke: rgb(38, 123, 44); stroke-opacity: 1;"/><path class="point plotly-customdata" transform="translate(60.99,251.93)" d="M-4.62,2H4.62L0,-4Z" style="opacity: 1; stroke-width: 1px; fill: rgb(55, 177, 63); fill-opacity: 1; stroke: rgb(38, 123, 44); stroke-opacity: 1;"/><path class="point plotly-customdata" transform="translate(72.49,251.31)" d="M-4.62,2H4.62L0,-4Z" style="opacity: 1; stroke-width: 1px; fill: rgb(55, 177, 63); fill-opacity: 1; stroke: rgb(38, 123, 44); stroke-opacity: 1;"/><path class="point plotly-customdata" transform="translate(84.37,251.36)" d="M-4.62,2H4.62L0,-4Z" style="opacity: 1; stroke-width: 1px; fill: rgb(55, 177, 63); fill-opacity: 1; stroke: rgb(38, 123, 44); stroke-opacity: 1;"/><path class="point plotly-customdata" transform="translate(96.65,250.06)" d="M-4.62,2H4.62L0,-4Z" style="opacity: 1; stroke-width: 1px; fill: rgb(55, 177, 63); fill-opacity: 1; stroke: rgb(38, 123, 44); stroke-opacity: 1;"/><path class="point plotly-customdata" transform="translate(108.67,248.54)" d="M-4.62,2H4.62L0,-4Z" style="opacity: 1; stroke-width: 1px; fill: rgb(55, 177, 63); fill-opacity: 1; stroke: rgb(38, 123, 44); stroke-opacity: 1;"/><path class="point plotly-customdata" transform="translate(120.42,239.92)" d="M-4.62,2H4.62L0,-4Z" style="opacity: 1; stroke-width: 1px; fill: rgb(55, 177, 63); fill-opacity: 1; stroke: rgb(38, 123, 44); stroke-opacity: 1;"/><path class="point plotly-customdata" transform="translate(132.31,241.01)" d="M-4.62,2H4.62L0,-4Z" style="opacity: 1; stroke-width: 1px; fill: rgb(55, 177, 63); fill-opacity: 1; stroke: rgb(38, 123, 44); stroke-opacity: 1;"/><path class="point plotly-customdata" transform="translate(144.2,238.11)" d="M-4.62,2H4.62L0,-4Z" style="opacity: 1; stroke-width: 1px; fill: rgb(55, 177, 63); fill-opacity: 1; stroke: rgb(38, 123, 44); stroke-opacity: 1;"/><path class="point plotly-customdata" transform="translate(156.34,242.61)" d="M-4.62,2H4.62L0,-4Z" style="opacity: 1; stroke-width: 1px; fill: rgb(55, 177, 63); fill-opacity: 1; stroke: rgb(38, 123, 44); stroke-opacity: 1;"/><path class="point plotly-customdata" transform="translate(167.97,247.54)" d="M-4.62,2H4.62L0,-4Z" style="opacity: 1; stroke-width: 1px; fill: rgb(55, 177, 63); fill-opacity: 1; stroke: rgb(38, 123, 44); stroke-opacity: 1;"/><path class="point plotly-customdata" transform="translate(179.85,248.26)" d="M-4.62,2H4.62L0,-4Z" style="opacity: 1; stroke-width: 1px; fill: rgb(55, 177, 63); fill-opacity: 1; stroke: rgb(38, 123, 44); stroke-opacity: 1;"/><path class="point plotly-customdata" transform="translate(191.87,244.78)" d="M-4.62,2H4.62L0,-4Z" style="opacity: 1; stroke-width: 1px; fill: rgb(55, 177, 63); fill-opacity: 1; stroke: rgb(38, 123, 44); stroke-opacity: 1;"/><path class="point plotly-customdata" transform="translate(204.02,241.86)" d="M-4.62,2H4.62L0,-4Z" style="opacity: 1; stroke-width: 1px; fill: rgb(55, 177, 63); fill-opacity: 1; stroke: rgb(38, 123, 44); stroke-opacity: 1;"/><path class="point plotly-customdata" transform="translate(215.64,242.21)" d="M-4.62,2H4.62L0,-4Z" style="opacity: 1; stroke-width: 1px; fill: rgb(55, 177, 63); fill-opacity: 1; stroke: rgb(38, 123, 44); stroke-opacity: 1;"/><path class="point plotly-customdata" transform="translate(227.53,237.17)" d="M-4.62,2H4.62L0,-4Z" style="opacity: 1; stroke-width: 1px; fill: rgb(55, 177, 63); fill-opacity: 1; stroke: rgb(38, 123, 44); stroke-opacity: 1;"/><path class="point plotly-customdata" transform="translate(239.55,235.3)" d="M-4.62,2H4.62L0,-4Z" style="opacity: 1; stroke-width: 1px; fill: rgb(55, 177, 63); fill-opacity: 1; stroke: rgb(38, 123, 44); stroke-opacity: 1;"/><path class="point plotly-customdata" transform="translate(251.69,232.05)" d="M-4.62,2H4.62L0,-4Z" style="opacity: 1; stroke-width: 1px; fill: rgb(55, 177, 63); fill-opacity: 1; stroke: rgb(38, 123, 44); stroke-opacity: 1;"/><path class="point plotly-customdata" transform="translate(263.32,227.32)" d="M-4.62,2H4.62L0,-4Z" style="opacity: 1; stroke-width: 1px; fill: rgb(55, 177, 63); fill-opacity: 1; stroke: rgb(38, 123, 44); stroke-opacity: 1;"/><path class="point plotly-customdata" transform="translate(275.2,226.43)" d="M-4.62,2H4.62L0,-4Z" style="opacity: 1; stroke-width: 1px; fill: rgb(55, 177, 63); fill-opacity: 1; stroke: rgb(38, 123, 44); stroke-opacity: 1;"/><path class="point plotly-customdata" transform="translate(287.22,231.55)" d="M-4.62,2H4.62L0,-4Z" style="opacity: 1; stroke-width: 1px; fill: rgb(55, 177, 63); fill-opacity: 1; stroke: rgb(38, 123, 44); stroke-opacity: 1;"/><path class="point plotly-customdata" transform="translate(299.63,232.72)" d="M-4.62,2H4.62L0,-4Z" style="opacity: 1; stroke-width: 1px; fill: rgb(55, 177, 63); fill-opacity: 1; stroke: rgb(38, 123, 44); stroke-opacity: 1;"/><path class="point plotly-customdata" transform="translate(311.12,231.09)" d="M-4.62,2H4.62L0,-4Z" style="opacity: 1; stroke-width: 1px; fill: rgb(55, 177, 63); fill-opacity: 1; stroke: rgb(38, 123, 44); stroke-opacity: 1;"/><path class="point plotly-customdata" transform="translate(323.01,235.33)" d="M-4.62,2H4.62L0,-4Z" style="opacity: 1; stroke-width: 1px; fill: rgb(55, 177, 63); fill-opacity: 1; stroke: rgb(38, 123, 44); stroke-opacity: 1;"/><path class="point plotly-customdata" transform="translate(335.29,229.88)" d="M-4.62,2H4.62L0,-4Z" style="opacity: 1; stroke-width: 1px; fill: rgb(55, 177, 63); fill-opacity: 1; stroke: rgb(38, 123, 44); stroke-opacity: 1;"/><path class="point plotly-customdata" transform="translate(347.3,228.54)" d="M-4.62,2H4.62L0,-4Z" style="opacity: 1; stroke-width: 1px; fill: rgb(55, 177, 63); fill-opacity: 1; stroke: rgb(38, 123, 44); stroke-opacity: 1;"/><path class="point plotly-customdata" transform="translate(359.06,219.55)" d="M-4.62,2H4.62L0,-4Z" style="opacity: 1; stroke-width: 1px; fill: rgb(55, 177, 63); fill-opacity: 1; stroke: rgb(38, 123, 44); stroke-opacity: 1;"/><path class="point plotly-customdata" transform="translate(370.94,219.42)" d="M-4.62,2H4.62L0,-4Z" style="opacity: 1; stroke-width: 1px; fill: rgb(55, 177, 63); fill-opacity: 1; stroke: rgb(38, 123, 44); stroke-opacity: 1;"/><path class="point plotly-customdata" transform="translate(382.83,215.91)" d="M-4.62,2H4.62L0,-4Z" style="opacity: 1; stroke-width: 1px; fill: rgb(55, 177, 63); fill-opacity: 1; stroke: rgb(38, 123, 44); stroke-opacity: 1;"/><path class="point plotly-customdata" transform="translate(394.85,209.74)" d="M-4.62,2H4.62L0,-4Z" style="opacity: 1; stroke-width: 1px; fill: rgb(55, 177, 63); fill-opacity: 1; stroke: rgb(38, 123, 44); stroke-opacity: 1;"/><path class="point plotly-customdata" transform="translate(406.6,211.33)" d="M-4.62,2H4.62L0,-4Z" style="opacity: 1; stroke-width: 1px; fill: rgb(55, 177, 63); fill-opacity: 1; stroke: rgb(38, 123, 44); stroke-opacity: 1;"/><path class="point plotly-customdata" transform="translate(418.49,204.42)" d="M-4.62,2H4.62L0,-4Z" style="opacity: 1; stroke-width: 1px; fill: rgb(55, 177, 63); fill-opacity: 1; stroke: rgb(38, 123, 44); stroke-opacity: 1;"/><path class="point plotly-customdata" transform="translate(430.37,191.06)" d="M-4.62,2H4.62L0,-4Z" style="opacity: 1; stroke-width: 1px; fill: rgb(55, 177, 63); fill-opacity: 1; stroke: rgb(38, 123, 44); stroke-opacity: 1;"/><path class="point plotly-customdata" transform="translate(442.52,213.63)" d="M-4.62,2H4.62L0,-4Z" style="opacity: 1; stroke-width: 1px; fill: rgb(55, 177, 63); fill-opacity: 1; stroke: rgb(38, 123, 44); stroke-opacity: 1;"/><path class="point plotly-customdata" transform="translate(454.15,202.39)" d="M-4.62,2H4.62L0,-4Z" style="opacity: 1; stroke-width: 1px; fill: rgb(55, 177, 63); fill-opacity: 1; stroke: rgb(38, 123, 44); stroke-opacity: 1;"/><path class="point plotly-customdata" transform="translate(466.03,198.72)" d="M-4.62,2H4.62L0,-4Z" style="opacity: 1; stroke-width: 1px; fill: rgb(55, 177, 63); fill-opacity: 1; stroke: rgb(38, 123, 44); stroke-opacity: 1;"/><path class="point plotly-customdata" transform="translate(478.05,190.79)" d="M-4.62,2H4.62L0,-4Z" style="opacity: 1; stroke-width: 1px; fill: rgb(55, 177, 63); fill-opacity: 1; stroke: rgb(38, 123, 44); stroke-opacity: 1;"/><path class="point plotly-customdata" transform="translate(490.2,165.25)" d="M-4.62,2H4.62L0,-4Z" style="opacity: 1; stroke-width: 1px; fill: rgb(55, 177, 63); fill-opacity: 1; stroke: rgb(38, 123, 44); stroke-opacity: 1;"/><path class="point plotly-customdata" transform="translate(501.95,184.92)" d="M-4.62,2H4.62L0,-4Z" style="opacity: 1; stroke-width: 1px; fill: rgb(55, 177, 63); fill-opacity: 1; stroke: rgb(38, 123, 44); stroke-opacity: 1;"/><path class="point plotly-customdata" transform="translate(513.84,143.32)" d="M-4.62,2H4.62L0,-4Z" style="opacity: 1; stroke-width: 1px; fill: rgb(55, 177, 63); fill-opacity: 1; stroke: rgb(38, 123, 44); stroke-opacity: 1;"/><path class="point plotly-customdata" transform="translate(525.85,108.42)" d="M-4.62,2H4.62L0,-4Z" style="opacity: 1; stroke-width: 1px; fill: rgb(55, 177, 63); fill-opacity: 1; stroke: rgb(38, 123, 44); stroke-opacity: 1;"/><path class="point plotly-customdata" transform="translate(538.26,91.13)" d="M-4.62,2H4.62L0,-4Z" style="opacity: 1; stroke-width: 1px; fill: rgb(55, 177, 63); fill-opacity: 1; stroke: rgb(38, 123, 44); stroke-opacity: 1;"/><path class="point plotly-customdata" transform="translate(549.63,99.53)" d="M-4.62,2H4.62L0,-4Z" style="opacity: 1; stroke-width: 1px; fill: rgb(55, 177, 63); fill-opacity: 1; stroke: rgb(38, 123, 44); stroke-opacity: 1;"/><path class="point plotly-customdata" transform="translate(561.51,79.95)" d="M-4.62,2H4.62L0,-4Z" style="opacity: 1; stroke-width: 1px; fill: rgb(55, 177, 63); fill-opacity: 1; stroke: rgb(38, 123, 44); stroke-opacity: 1;"/><path class="point plotly-customdata" transform="translate(573.53,72.38)" d="M-4.62,2H4.62L0,-4Z" style="opacity: 1; stroke-width: 1px; fill: rgb(55, 177, 63); fill-opacity: 1; stroke: rgb(38, 123, 44); stroke-opacity: 1;"/><path class="point plotly-customdata" transform="translate(585.81,18.7)" d="M-4.62,2H4.62L0,-4Z" style="opacity: 1; stroke-width: 1px; fill: rgb(55, 177, 63); fill-opacity: 1; stroke: rgb(38, 123, 44); stroke-opacity: 1;"/><path class="point plotly-customdata" transform="translate(597.3,28.84)" d="M-4.62,2H4.62L0,-4Z" style="opacity: 1; stroke-width: 1px; fill: rgb(55, 177, 63); fill-opacity: 1; stroke: rgb(38, 123, 44); stroke-opacity: 1;"/></g><g class="text"/></g><g class="trace scatter trace2eeb9a1e-158e-4964-a349-b21e99be6361" style="stroke-miterlimit: 2; opacity: 1;"><g class="fills"/><g class="errorbars"/><g class="lines"/><g class="points"><path class="point plotly-customdata" transform="translate(60.6,252.22)" d="M-4.62,-2H4.62L0,4Z" style="opacity: 1; stroke-width: 1px; fill: rgb(234, 67, 53); fill-opacity: 1; stroke: rgb(181, 31, 18); stroke-opacity: 1;"/><path class="point plotly-customdata" transform="translate(108.15,248.8)" d="M-4.62,-2H4.62L0,4Z" style="opacity: 1; stroke-width: 1px; fill: rgb(234, 67, 53); fill-opacity: 1; stroke: rgb(181, 31, 18); stroke-opacity: 1;"/><path class="point plotly-customdata" transform="translate(156.08,243.32)" d="M-4.62,-2H4.62L0,4Z" style="opacity: 1; stroke-width: 1px; fill: rgb(234, 67, 53); fill-opacity: 1; stroke: rgb(181, 31, 18); stroke-opacity: 1;"/><path class="point plotly-customdata" transform="translate(203.76,241.52)" d="M-4.62,-2H4.62L0,4Z" style="opacity: 1; stroke-width: 1px; fill: rgb(234, 67, 53); fill-opacity: 1; stroke: rgb(181, 31, 18); stroke-opacity: 1;"/><path class="point plotly-customdata" transform="translate(251.43,231.73)" d="M-4.62,-2H4.62L0,4Z" style="opacity: 1; stroke-width: 1px; fill: rgb(234, 67, 53); fill-opacity: 1; stroke: rgb(181, 31, 18); stroke-opacity: 1;"/><path class="point plotly-customdata" transform="translate(299.11,232.75)" d="M-4.62,-2H4.62L0,4Z" style="opacity: 1; stroke-width: 1px; fill: rgb(234, 67, 53); fill-opacity: 1; stroke: rgb(181, 31, 18); stroke-opacity: 1;"/><path class="point plotly-customdata" transform="translate(346.78,228.65)" d="M-4.62,-2H4.62L0,4Z" style="opacity: 1; stroke-width: 1px; fill: rgb(234, 67, 53); fill-opacity: 1; stroke: rgb(181, 31, 18); stroke-opacity: 1;"/><path class="point plotly-customdata" transform="translate(394.32,210.73)" d="M-4.62,-2H4.62L0,4Z" style="opacity: 1; stroke-width: 1px; fill: rgb(234, 67, 53); fill-opacity: 1; stroke: rgb(181, 31, 18); stroke-opacity: 1;"/><path class="point plotly-customdata" transform="translate(442.26,213.69)" d="M-4.62,-2H4.62L0,4Z" style="opacity: 1; stroke-width: 1px; fill: rgb(234, 67, 53); fill-opacity: 1; stroke: rgb(181, 31, 18); stroke-opacity: 1;"/><path class="point plotly-customdata" transform="translate(489.93,167.49)" d="M-4.62,-2H4.62L0,4Z" style="opacity: 1; stroke-width: 1px; fill: rgb(234, 67, 53); fill-opacity: 1; stroke: rgb(181, 31, 18); stroke-opacity: 1;"/><path class="point plotly-customdata" transform="translate(537.74,86.71)" d="M-4.62,-2H4.62L0,4Z" style="opacity: 1; stroke-width: 1px; fill: rgb(234, 67, 53); fill-opacity: 1; stroke: rgb(181, 31, 18); stroke-opacity: 1;"/><path class="point plotly-customdata" transform="translate(585.41,24.72)" d="M-4.62,-2H4.62L0,4Z" style="opacity: 1; stroke-width: 1px; fill: rgb(234, 67, 53); fill-opacity: 1; stroke: rgb(181, 31, 18); stroke-opacity: 1;"/></g><g class="text"/></g></g></g><g class="overplot"/><path class="xlines-above crisp" d="M0,0" style="fill: none;"/><path class="ylines-above crisp" d="M0,0" style="fill: none;"/><g class="overlines-above"/><g class="xaxislayer-above"><g class="xtick"><text text-anchor="middle" x="0" y="333" transform="translate(49.06,0)" style="font-family: 'Open Sans', verdana, arial, sans-serif; font-size: 12px; fill: rgb(214, 223, 239); fill-opacity: 1; white-space: pre; opacity: 1;">2010</text></g><g class="xtick"><text text-anchor="middle" x="0" y="333" style="font-family: 'Open Sans', verdana, arial, sans-serif; font-size: 12px; fill: rgb(214, 223, 239); fill-opacity: 1; white-space: pre; opacity: 1;" transform="translate(144.41,0)">2012</text></g><g class="xtick"><text text-anchor="middle" x="0" y="333" style="font-family: 'Open Sans', verdana, arial, sans-serif; font-size: 12px; fill: rgb(214, 223, 239); fill-opacity: 1; white-space: pre; opacity: 1;" transform="translate(239.89,0)">2014</text></g><g class="xtick"><text text-anchor="middle" x="0" y="333" style="font-family: 'Open Sans', verdana, arial, sans-serif; font-size: 12px; fill: rgb(214, 223, 239); fill-opacity: 1; white-space: pre; opacity: 1;" transform="translate(335.24,0)">2016</text></g><g class="xtick"><text text-anchor="middle" x="0" y="333" style="font-family: 'Open Sans', verdana, arial, sans-serif; font-size: 12px; fill: rgb(214, 223, 239); fill-opacity: 1; white-space: pre; opacity: 1;" transform="translate(430.72,0)">2018</text></g><g class="xtick"><text text-anchor="middle" x="0" y="333" style="font-family: 'Open Sans', verdana, arial, sans-serif; font-size: 12px; fill: rgb(214, 223, 239); fill-opacity: 1; white-space: pre; opacity: 1;" transform="translate(526.0699999999999,0)">2020</text></g><g class="xtick"><text text-anchor="middle" x="0" y="333" style="font-family: 'Open Sans', verdana, arial, sans-serif; font-size: 12px; fill: rgb(214, 223, 239); fill-opacity: 1; white-space: pre; opacity: 1;" transform="translate(621.54,0)">2022</text></g></g><g class="yaxislayer-above"><g class="ytick"><text text-anchor="end" x="35" y="4.199999999999999" transform="translate(0,311.62)" style="font-family: 'Open Sans', verdana, arial, sans-serif; font-size: 12px; fill: rgb(214, 223, 239); fill-opacity: 1; white-space: pre; opacity: 1;">0</text></g><g class="ytick"><text text-anchor="end" x="35" y="4.199999999999999" style="font-family: 'Open Sans', verdana, arial, sans-serif; font-size: 12px; fill: rgb(214, 223, 239); fill-opacity: 1; white-space: pre; opacity: 1;" transform="translate(0,243.6)">50</text></g><g class="ytick"><text text-anchor="end" x="35" y="4.199999999999999" style="font-family: 'Open Sans', verdana, arial, sans-serif; font-size: 12px; fill: rgb(214, 223, 239); fill-opacity: 1; white-space: pre; opacity: 1;" transform="translate(0,175.59)">100</text></g><g class="ytick"><text text-anchor="end" x="35" y="4.199999999999999" style="font-family: 'Open Sans', verdana, arial, sans-serif; font-size: 12px; fill: rgb(214, 223, 239); fill-opacity: 1; white-space: pre; opacity: 1;" transform="translate(0,107.57)">150</text></g></g><g class="overaxes-above"/></g></g><g class="polarlayer"/><g class="smithlayer"/><g class="ternarylayer"/><g class="geolayer"/><g class="funnelarealayer"/><g class="pielayer"/><g class="iciclelayer"/><g class="treemaplayer"/><g class="sunburstlayer"/><g class="glimages"/><defs id="topdefs-80c7cb"><g class="clips"/><clipPath id="legend80c7cb"><rect width="213" height="29" x="0" y="0"/></clipPath></defs><g class="layer-above"><g class="imagelayer"/><g class="shapelayer"/></g><g class="infolayer"><g class="legend" pointer-events="all" transform="translate(457,11.519999999999996)"><rect class="bg" shape-rendering="crispEdges" style="stroke: rgb(68, 68, 68); stroke-opacity: 1; fill: rgb(33, 34, 44); fill-opacity: 1; stroke-width: 0px;" width="213" height="29" x="0" y="0"/><g class="scrollbox" transform="" clip-path="url(#legend80c7cb)"><g class="groups"><g class="traces" transform="translate(0,14.5)" style="opacity: 1;"><text class="legendtext" text-anchor="start" x="40" y="4.680000000000001" style="font-family: 'Open Sans', verdana, arial, sans-serif; font-size: 12px; fill: rgb(214, 223, 239); fill-opacity: 1; white-space: pre;">Close</text><g class="layers" style="opacity: 1;"><g class="legendfill"/><g class="legendlines"><path class="js-line" d="M5,0h30" style="fill: none; stroke: rgb(31, 119, 180); stroke-opacity: 1; stroke-width: 2px;"/></g><g class="legendsymbols"><g class="legendpoints"/></g></g><rect class="legendtoggle" x="0" y="-9.5" width="74.859375" height="19" style="fill: rgb(0, 0, 0); fill-opacity: 0;"/></g><g class="traces" transform="translate(77.359375,14.5)" style="opacity: 1;"><text class="legendtext" text-anchor="start" x="40" y="4.680000000000001" style="font-family: 'Open Sans', verdana, arial, sans-serif; font-size: 12px; fill: rgb(214, 223, 239); fill-opacity: 1; white-space: pre;">Buy</text><g class="layers" style="opacity: 1;"><g class="legendfill"/><g class="legendlines"/><g class="legendsymbols"><g class="legendpoints"><path class="scatterpts" transform="translate(20,0)" d="M-4.62,2H4.62L0,-4Z" style="opacity: 1; stroke-width: 1px; fill: rgb(55, 177, 63); fill-opacity: 1; stroke: rgb(38, 123, 44); stroke-opacity: 1;"/></g></g></g><rect class="legendtoggle" x="0" y="-9.5" width="65.421875" height="19" style="fill: rgb(0, 0, 0); fill-opacity: 0;"/></g><g class="traces" transform="translate(145.28125,14.5)" style="opacity: 1;"><text class="legendtext" text-anchor="start" x="40" y="4.680000000000001" style="font-family: 'Open Sans', verdana, arial, sans-serif; font-size: 12px; fill: rgb(214, 223, 239); fill-opacity: 1; white-space: pre;">Sell</text><g class="layers" style="opacity: 1;"><g class="legendfill"/><g class="legendlines"/><g class="legendsymbols"><g class="legendpoints"><path class="scatterpts" transform="translate(20,0)" d="M-4.62,-2H4.62L0,4Z" style="opacity: 1; stroke-width: 1px; fill: rgb(234, 67, 53); fill-opacity: 1; stroke: rgb(181, 31, 18); stroke-opacity: 1;"/></g></g></g><rect class="legendtoggle" x="0" y="-9.5" width="64.4375" height="19" style="fill: rgb(0, 0, 0); fill-opacity: 0;"/></g></g></g><rect class="scrollbar" rx="20" ry="3" width="0" height="0" style="fill: rgb(128, 139, 164); fill-opacity: 1;" x="0" y="0"/></g><g class="g-gtitle"/><g class="g-xtitle"/><g class="g-ytitle"/></g></svg>