<svg class="main-svg" xmlns="http://www.w3.org/2000/svg" xmlns:xlink="http://www.w3.org/1999/xlink" width="700" height="350" style="" viewBox="0 0 700 350"><rect x="0" y="0" width="700" height="350" style="fill: rgb(33, 34, 44); fill-opacity: 1;"/><defs id="defs-707030"><g class="clips"><clipPath id="clip707030xyplot" class="plotclip"><rect width="637" height="274"/></clipPath><clipPath class="axesclip" id="clip707030x"><rect x="33" y="0" width="637" height="350"/></clipPath><clipPath class="axesclip" id="clip707030y"><rect x="0" y="46" width="700" height="274"/></clipPath><clipPath class="axesclip" id="clip707030xy"><rect x="33" y="46" width="637" height="274"/></clipPath></g><g class="gradients"/><g class="patterns"/></defs><g class="bglayer"/><g class="layer-below"><g class="imagelayer"/><g class="shapelayer"/></g><g class="cartesianlayer"><g class="subplot xy"><g class="layer-subplot"><g class="shapelayer"/><g class="imagelayer"/></g><g class="gridlayer"><g class="x"><path class="xgrid crisp" transform="translate(120.93,0)" d="M0,46v274" style="stroke: rgb(47, 62, 78); stroke-opacity: 1; stroke-width: 1px;"/><path class="xgrid crisp" transform="translate(230.4,0)" d="M0,46v274" style="stroke: rgb(47, 62, 78); stroke-opacity: 1; stroke-width: 1px;"/><path class="xgrid crisp" transform="translate(339.87,0)" d="M0,46v274" style="stroke: rgb(47, 62, 78); stroke-opacity: 1; stroke-width: 1px;"/><path class="xgrid crisp" transform="translate(451.14,0)" d="M0,46v274" style="stroke: rgb(47, 62, 78); stroke-opacity: 1; stroke-width: 1px;"/><path class="xgrid crisp" transform="translate(560.61,0)" d="M0,46v274" style="stroke: rgb(47, 62, 78); stroke-opacity: 1; stroke-width: 1px;"/></g><g class="y"><path class="ygrid crisp" transform="translate(0,267.94)" d="M33,0h637" style="stroke: rgb(47, 62, 78); stroke-opacity: 1; stroke-width: 1px;"/><path class="ygrid crisp" transform="translate(0,215.88)" d="M33,0h637" style="stroke: rgb(47, 62, 78); stroke-opacity: 1; stroke-width: 1px;"/><path class="ygrid crisp" transform="translate(0,163.82)" d="M33,0h637" style="stroke: rgb(47, 62, 78); stroke-opacity: 1; stroke-width: 1px;"/><path class="ygrid crisp" transform="translate(0,111.76)" d="M33,0h637" style="stroke: rgb(47, 62, 78); stroke-opacity: 1; stroke-width: 1px;"/><path class="ygrid crisp" transform="translate(0,59.7)" d="M33,0h637" style="stroke: rgb(47, 62, 78); stroke-opacity: 1; stroke-width: 1px;"/></g></g><g class="zerolinelayer"><path class="yzl zl crisp" transform="translate(0,320)" d="M33,0h637" style="stroke: rgb(47, 62, 78); stroke-opacity: 1; stroke-width: 2px;"/></g><path class="xlines-below"/><path class="ylines-below"/><g class="overlines-below"/><g class="xaxislayer-below"/><g class="yaxislayer-below"/><g class="overaxes-below"/><g class="plot" transform="translate(33,46)" clip-path="url(#clip707030xyplot)"><g class="scatterlayer mlayer"><g class="trace scatter trace63b93fc6-cae8-4757-ba47-49d8568e0c66" style="stroke-miterlimit: 2;"><g class="fills"><g><path class="js-fill" d="M637,274L0,274L0,176.58L12.49,176.58L12.56,274L112.98,274L113.06,268.48L125.55,268.48L125.62,274L138.11,274L138.18,179.5L150.67,179.5L150.74,188.03L163.23,188.03L163.31,274L175.79,274L175.87,265.66L188.36,265.66L188.43,274L226.04,274L226.12,272.56L238.6,272.56L238.68,274L263.73,274L263.8,272.43L276.29,272.43L276.36,274L351.66,274L351.74,256.02L364.22,256.02L364.3,229.44L376.79,229.44L376.86,217.35L389.35,217.35L389.42,263.47L401.91,263.47L401.99,248.7L414.47,248.7L414.55,274L452.16,274L452.23,270.21L464.72,270.21L464.8,274L637,274" style="fill: rgb(31, 119, 180); fill-opacity: 0.8; stroke-width: 0;"/></g><g><path class="js-fill" d="M0,108.77L12.49,108.77L12.56,274L37.61,274L37.69,220.91L50.17,220.91L50.25,268.47L62.74,268.47L62.81,274L112.98,274L113.06,268.48L125.55,268.48L125.62,274L138.11,274L138.18,168.91L150.67,168.91L150.74,184.8L163.23,184.8L163.31,274L175.79,274L175.87,265.66L188.36,265.66L188.43,274L200.92,274L200.99,136.97L213.48,136.97L213.55,212.26L226.04,212.26L226.12,247.78L238.6,247.78L238.68,203.74L251.17,203.74L251.24,170.63L263.73,170.63L263.8,176.59L276.29,176.59L276.36,232.46L288.85,232.46L288.93,254.78L301.41,254.78L301.49,208.22L313.98,208.22L314.05,274L326.54,274L326.61,258.47L339.1,258.47L339.18,274L351.66,274L351.74,228.57L364.22,228.57L364.3,170.65L376.79,170.65L376.86,169.21L389.35,169.21L389.42,230.2L401.91,230.2L401.99,243.1L414.47,243.1L414.55,274L452.16,274L452.23,270.21L464.72,270.21L464.8,274L489.84,274L489.92,232.68L502.41,232.68L502.48,274L514.97,274L515.04,187.15L527.53,187.15L527.61,226.89L540.09,226.89L540.17,232.93L552.65,232.93L552.73,77.83L565.22,77.83L565.29,101.98L577.78,101.98L577.85,210.49L590.34,210.49L590.42,148.18L602.9,148.18L602.98,132.37L615.47,132.37L615.54,140.59L628.03,140.59L628.1,250.59L637,250.59L637,274L464.8,274L464.72,270.21L452.23,270.21L452.16,274L414.55,274L414.47,248.7L401.99,248.7L401.91,263.47L389.42,263.47L389.35,217.35L376.86,217.35L376.79,229.44L364.3,229.44L364.22,256.02L351.74,256.02L351.66,274L276.36,274L276.29,272.43L263.8,272.43L263.73,274L238.68,274L238.6,272.56L226.12,272.56L226.04,274L188.43,274L188.36,265.66L175.87,265.66L175.79,274L163.31,274L163.23,188.03L150.74,188.03L150.67,179.5L138.18,179.5L138.11,274L125.62,274L125.55,268.48L113.06,268.48L112.98,274L12.56,274L12.49,176.58L0,176.58Z" style="fill: rgb(255, 127, 14); fill-opacity: 0.8; stroke-width: 0;"/></g></g><g class="errorbars"/><g class="lines"><path class="js-line" d="M0,176.58L12.49,176.58L12.56,274L112.98,274L113.06,268.48L125.55,268.48L125.62,274L138.11,274L138.18,179.5L150.67,179.5L150.74,188.03L163.23,188.03L163.31,274L175.79,274L175.87,265.66L188.36,265.66L188.43,274L226.04,274L226.12,272.56L238.6,272.56L238.68,274L263.73,274L263.8,272.43L276.29,272.43L276.36,274L351.66,274L351.74,256.02L364.22,256.02L364.3,229.44L376.79,229.44L376.86,217.35L389.35,217.35L389.42,263.47L401.91,263.47L401.99,248.7L414.47,248.7L414.55,274L452.16,274L452.23,270.21L464.72,270.21L464.8,274L637,274" style="vector-effect: non-scaling-stroke; fill: none; stroke: rgb(31, 119, 180); stroke-opacity: 1; stroke-width: 0px; opacity: 1;"/></g><g class="points"/><g class="text"/></g><g class="trace scatter trace61b12cd9-7aee-4536-b597-860727c40f9c" style="stroke-miterlimit: 2;"><g class="fills"><g><path class="js-fill" d="M0,23.39L12.49,23.39L12.56,13.7L25.05,13.7L25.12,69.72L37.61,69.72L37.69,56.32L50.17,56.32L50.25,19.89L62.74,19.89L62.81,13.7L112.98,13.7L113.06,209.58L125.55,209.58L125.62,274L138.11,274L138.18,134.55L150.67,134.55L150.74,184.8L163.23,184.8L163.31,13.7L175.79,13.7L175.87,109.67L188.36,109.67L188.43,93.63L200.92,93.63L200.99,90.64L213.48,90.64L213.55,97.51L226.04,97.51L226.12,247.78L238.6,247.78L238.68,187.99L251.17,187.99L251.24,169.05L263.73,169.05L263.8,97.36L276.29,97.36L276.36,128.42L288.85,128.42L288.93,76.25L301.41,76.25L301.49,25.35L313.98,25.35L314.05,85.75L326.54,85.75L326.61,22.26L339.1,22.26L339.18,44.08L351.66,44.08L351.74,51.31L364.22,51.31L364.3,21.87L376.79,21.87L376.86,47.03L389.35,47.03L389.42,14.96L401.91,14.96L401.99,13.7L427.03,13.7L427.11,32.94L439.6,32.94L439.67,79.37L452.16,79.37L452.23,18.68L464.72,18.68L464.8,28.42L477.28,28.42L477.36,44.18L489.84,44.18L489.92,15.24L502.41,15.24L502.48,78.27L514.97,78.27L515.04,103.15L527.53,103.15L527.61,183.73L540.09,183.73L540.17,90.48L552.65,90.48L552.73,36.25L565.22,36.25L565.29,16L577.78,16L577.85,13.7L615.47,13.7L615.54,33.87L628.03,33.87L628.1,113.55L637,113.55L637,250.59L628.1,250.59L628.03,140.59L615.54,140.59L615.47,132.37L602.98,132.37L602.9,148.18L590.42,148.18L590.34,210.49L577.85,210.49L577.78,101.98L565.29,101.98L565.22,77.83L552.73,77.83L552.65,232.93L540.17,232.93L540.09,226.89L527.61,226.89L527.53,187.15L515.04,187.15L514.97,274L502.48,274L502.41,232.68L489.92,232.68L489.84,274L464.8,274L464.72,270.21L452.23,270.21L452.16,274L414.55,274L414.47,243.1L401.99,243.1L401.91,230.2L389.42,230.2L389.35,169.21L376.86,169.21L376.79,170.65L364.3,170.65L364.22,228.57L351.74,228.57L351.66,274L339.18,274L339.1,258.47L326.61,258.47L326.54,274L314.05,274L313.98,208.22L301.49,208.22L301.41,254.78L288.93,254.78L288.85,232.46L276.36,232.46L276.29,176.59L263.8,176.59L263.73,170.63L251.24,170.63L251.17,203.74L238.68,203.74L238.6,247.78L226.12,247.78L226.04,212.26L213.55,212.26L213.48,136.97L200.99,136.97L200.92,274L188.43,274L188.36,265.66L175.87,265.66L175.79,274L163.31,274L163.23,184.8L150.74,184.8L150.67,168.91L138.18,168.91L138.11,274L125.62,274L125.55,268.48L113.06,268.48L112.98,274L62.81,274L62.74,268.47L50.25,268.47L50.17,220.91L37.69,220.91L37.61,274L12.56,274L12.49,108.77L0,108.77Z" style="fill: rgb(44, 160, 44); fill-opacity: 0.8; stroke-width: 0;"/></g></g><g class="errorbars"/><g class="lines"><path class="js-line" d="M0,108.77L12.49,108.77L12.56,274L37.61,274L37.69,220.91L50.17,220.91L50.25,268.47L62.74,268.47L62.81,274L112.98,274L113.06,268.48L125.55,268.48L125.62,274L138.11,274L138.18,168.91L150.67,168.91L150.74,184.8L163.23,184.8L163.31,274L175.79,274L175.87,265.66L188.36,265.66L188.43,274L200.92,274L200.99,136.97L213.48,136.97L213.55,212.26L226.04,212.26L226.12,247.78L238.6,247.78L238.68,203.74L251.17,203.74L251.24,170.63L263.73,170.63L263.8,176.59L276.29,176.59L276.36,232.46L288.85,232.46L288.93,254.78L301.41,254.78L301.49,208.22L313.98,208.22L314.05,274L326.54,274L326.61,258.47L339.1,258.47L339.18,274L351.66,274L351.74,228.57L364.22,228.57L364.3,170.65L376.79,170.65L376.86,169.21L389.35,169.21L389.42,230.2L401.91,230.2L401.99,243.1L414.47,243.1L414.55,274L452.16,274L452.23,270.21L464.72,270.21L464.8,274L489.84,274L489.92,232.68L502.41,232.68L502.48,274L514.97,274L515.04,187.15L527.53,187.15L527.61,226.89L540.09,226.89L540.17,232.93L552.65,232.93L552.73,77.83L565.22,77.83L565.29,101.98L577.78,101.98L577.85,210.49L590.34,210.49L590.42,148.18L602.9,148.18L602.98,132.37L615.47,132.37L615.54,140.59L628.03,140.59L628.1,250.59L637,250.59" style="vector-effect: non-scaling-stroke; fill: none; stroke: rgb(255, 127, 14); stroke-opacity: 1; stroke-width: 0px; opacity: 1;"/></g><g class="points"/><g class="text"/></g><g class="trace scatter trace9ab01bdd-94a2-4cba-864f-6f5c45060376" style="stroke-miterlimit: 2;"><g class="fills"><g><path class="js-fill" d="M0,15.45L12.49,15.45L12.56,13.7L37.61,13.7L37.69,56.32L50.17,56.32L50.25,19.89L62.74,19.89L62.81,13.7L112.98,13.7L113.06,209.58L125.55,209.58L125.62,274L138.11,274L138.18,130.7L150.67,130.7L150.74,173.51L163.23,173.51L163.31,13.7L175.79,13.7L175.87,109.67L188.36,109.67L188.43,93.63L200.92,93.63L200.99,58.53L213.48,58.53L213.55,97.51L226.04,97.51L226.12,181.33L238.6,181.33L238.68,187.99L251.17,187.99L251.24,169.05L263.73,169.05L263.8,84.22L276.29,84.22L276.36,97.91L288.85,97.91L288.93,76.25L301.41,76.25L301.49,25.35L313.98,25.35L314.05,85.75L326.54,85.75L326.61,13.7L351.66,13.7L351.74,51.31L364.22,51.31L364.3,14.59L376.79,14.59L376.86,13.71L427.03,13.7L427.11,32.94L439.6,32.94L439.67,79.37L452.16,79.37L452.23,18.68L464.72,18.68L464.8,28.42L477.28,28.42L477.36,44.18L489.84,44.18L489.92,15.24L502.41,15.24L502.48,78.27L514.97,78.27L515.04,103.15L527.53,103.15L527.61,180.95L540.09,180.95L540.17,90.48L552.65,90.48L552.73,36.25L565.22,36.25L565.29,13.71L637,13.7L637,113.55L628.1,113.55L628.03,33.87L615.54,33.87L615.47,13.7L577.85,13.7L577.78,16L565.29,16L565.22,36.25L552.73,36.25L552.65,90.48L540.17,90.48L540.09,183.73L527.61,183.73L527.53,103.15L515.04,103.15L514.97,78.27L502.48,78.27L502.41,15.24L489.92,15.24L489.84,44.18L477.36,44.18L477.28,28.42L464.8,28.42L464.72,18.68L452.23,18.68L452.16,79.37L439.67,79.37L439.6,32.94L427.11,32.94L427.03,13.7L401.99,13.7L401.91,14.96L389.42,14.96L389.35,47.03L376.86,47.03L376.79,21.87L364.3,21.87L364.22,51.31L351.74,51.31L351.66,44.08L339.18,44.08L339.1,22.26L326.61,22.26L326.54,85.75L314.05,85.75L313.98,25.35L301.49,25.35L301.41,76.25L288.93,76.25L288.85,128.42L276.36,128.42L276.29,97.36L263.8,97.36L263.73,169.05L251.24,169.05L251.17,187.99L238.68,187.99L238.6,247.78L226.12,247.78L226.04,97.51L213.55,97.51L213.48,90.64L200.99,90.64L200.92,93.63L188.43,93.63L188.36,109.67L175.87,109.67L175.79,13.7L163.31,13.7L163.23,184.8L150.74,184.8L150.67,134.55L138.18,134.55L138.11,274L125.62,274L125.55,209.58L113.06,209.58L112.98,13.7L62.81,13.7L62.74,19.89L50.25,19.89L50.17,56.32L37.69,56.32L37.61,69.72L25.12,69.72L25.05,13.7L12.56,13.7L12.49,23.39L0,23.39Z" style="fill: rgb(214, 39, 40); fill-opacity: 0.8; stroke-width: 0;"/></g></g><g class="errorbars"/><g class="lines"><path class="js-line" d="M0,23.39L12.49,23.39L12.56,13.7L25.05,13.7L25.12,69.72L37.61,69.72L37.69,56.32L50.17,56.32L50.25,19.89L62.74,19.89L62.81,13.7L112.98,13.7L113.06,209.58L125.55,209.58L125.62,274L138.11,274L138.18,134.55L150.67,134.55L150.74,184.8L163.23,184.8L163.31,13.7L175.79,13.7L175.87,109.67L188.36,109.67L188.43,93.63L200.92,93.63L200.99,90.64L213.48,90.64L213.55,97.51L226.04,97.51L226.12,247.78L238.6,247.78L238.68,187.99L251.17,187.99L251.24,169.05L263.73,169.05L263.8,97.36L276.29,97.36L276.36,128.42L288.85,128.42L288.93,76.25L301.41,76.25L301.49,25.35L313.98,25.35L314.05,85.75L326.54,85.75L326.61,22.26L339.1,22.26L339.18,44.08L351.66,44.08L351.74,51.31L364.22,51.31L364.3,21.87L376.79,21.87L376.86,47.03L389.35,47.03L389.42,14.96L401.91,14.96L401.99,13.7L427.03,13.7L427.11,32.94L439.6,32.94L439.67,79.37L452.16,79.37L452.23,18.68L464.72,18.68L464.8,28.42L477.28,28.42L477.36,44.18L489.84,44.18L489.92,15.24L502.41,15.24L502.48,78.27L514.97,78.27L515.04,103.15L527.53,103.15L527.61,183.73L540.09,183.73L540.17,90.48L552.65,90.48L552.73,36.25L565.22,36.25L565.29,16L577.78,16L577.85,13.7L615.47,13.7L615.54,33.87L628.03,33.87L628.1,113.55L637,113.55" style="vector-effect: non-scaling-stroke; fill: none; stroke: rgb(44, 160, 44); stroke-opacity: 1; stroke-width: 0px; opacity: 1;"/></g><g class="points"/><g class="text"/></g><g class="trace scatter trace3d4ad0a8-cdd8-4be9-9d72-9877a3b1002f" style="stroke-miterlimit: 2;"><g class="fills"><g><path class="js-fill" d="M0,13.7L637,13.7L637,13.7L565.29,13.71L565.22,36.25L552.73,36.25L552.65,90.48L540.17,90.48L540.09,180.95L527.61,180.95L527.53,103.15L515.04,103.15L514.97,78.27L502.48,78.27L502.41,15.24L489.92,15.24L489.84,44.18L477.36,44.18L477.28,28.42L464.8,28.42L464.72,18.68L452.23,18.68L452.16,79.37L439.67,79.37L439.6,32.94L427.11,32.94L427.03,13.7L376.86,13.71L376.79,14.59L364.3,14.59L364.22,51.31L351.74,51.31L351.66,13.7L326.61,13.7L326.54,85.75L314.05,85.75L313.98,25.35L301.49,25.35L301.41,76.25L288.93,76.25L288.85,97.91L276.36,97.91L276.29,84.22L263.8,84.22L263.73,169.05L251.24,169.05L251.17,187.99L238.68,187.99L238.6,181.33L226.12,181.33L226.04,97.51L213.55,97.51L213.48,58.53L200.99,58.53L200.92,93.63L188.43,93.63L188.36,109.67L175.87,109.67L175.79,13.7L163.31,13.7L163.23,173.51L150.74,173.51L150.67,130.7L138.18,130.7L138.11,274L125.62,274L125.55,209.58L113.06,209.58L112.98,13.7L62.81,13.7L62.74,19.89L50.25,19.89L50.17,56.32L37.69,56.32L37.61,13.7L12.56,13.7L12.49,15.45L0,15.45Z" style="fill: rgb(148, 103, 189); fill-opacity: 0.8; stroke-width: 0;"/></g></g><g class="errorbars"/><g class="lines"><path class="js-line" d="M0,15.45L12.49,15.45L12.56,13.7L37.61,13.7L37.69,56.32L50.17,56.32L50.25,19.89L62.74,19.89L62.81,13.7L112.98,13.7L113.06,209.58L125.55,209.58L125.62,274L138.11,274L138.18,130.7L150.67,130.7L150.74,173.51L163.23,173.51L163.31,13.7L175.79,13.7L175.87,109.67L188.36,109.67L188.43,93.63L200.92,93.63L200.99,58.53L213.48,58.53L213.55,97.51L226.04,97.51L226.12,181.33L238.6,181.33L238.68,187.99L251.17,187.99L251.24,169.05L263.73,169.05L263.8,84.22L276.29,84.22L276.36,97.91L288.85,97.91L288.93,76.25L301.41,76.25L301.49,25.35L313.98,25.35L314.05,85.75L326.54,85.75L326.61,13.7L351.66,13.7L351.74,51.31L364.22,51.31L364.3,14.59L376.79,14.59L376.86,13.71L427.03,13.7L427.11,32.94L439.6,32.94L439.67,79.37L452.16,79.37L452.23,18.68L464.72,18.68L464.8,28.42L477.28,28.42L477.36,44.18L489.84,44.18L489.92,15.24L502.41,15.24L502.48,78.27L514.97,78.27L515.04,103.15L527.53,103.15L527.61,180.95L540.09,180.95L540.17,90.48L552.65,90.48L552.73,36.25L565.22,36.25L565.29,13.71L637,13.7" style="vector-effect: non-scaling-stroke; fill: none; stroke: rgb(220, 57, 18); stroke-opacity: 1; stroke-width: 0px; opacity: 1;"/></g><g class="points"/><g class="text"/></g><g class="trace scatter traceb76aa27c-64fb-47c9-b64a-2643af454b18" style="stroke-miterlimit: 2;"><g class="fills"/><g class="errorbars"/><g class="lines"><path class="js-line" d="M0,13.7L637,13.7" style="vector-effect: non-scaling-stroke; fill: none; stroke: rgb(148, 103, 189); stroke-opacity: 1; stroke-width: 0px; opacity: 1;"/></g><g class="points"/><g class="text"/></g></g></g><g class="overplot"/><path class="xlines-above crisp" d="M0,0" style="fill: none;"/><path class="ylines-above crisp" d="M0,0" style="fill: none;"/><g class="overlines-above"/><g class="xaxislayer-above"><g class="xtick"><text text-anchor="middle" x="0" y="333" transform="translate(120.93,0)" style="font-family: 'Open Sans', verdana, arial, sans-serif; font-size: 12px; fill: rgb(214, 223, 239); fill-opacity: 1; white-space: pre; opacity: 1;">Mar 2020</text></g><g class="xtick"><text text-anchor="middle" x="0" y="333" style="font-family: 'Open Sans', verdana, arial, sans-serif; font-size: 12px; fill: rgb(214, 223, 239); fill-opacity: 1; white-space: pre; opacity: 1;" transform="translate(230.4,0)">May 2020</text></g><g class="xtick"><text text-anchor="middle" x="0" y="333" style="font-family: 'Open Sans', verdana, arial, sans-serif; font-size: 12px; fill: rgb(214, 223, 239); fill-opacity: 1; white-space: pre; opacity: 1;" transform="translate(339.87,0)">Jul 2020</text></g><g class="xtick"><text text-anchor="middle" x="0" y="333" style="font-family: 'Open Sans', verdana, arial, sans-serif; font-size: 12px; fill: rgb(214, 223, 239); fill-opacity: 1; white-space: pre; opacity: 1;" transform="translate(451.14,0)">Sep 2020</text></g><g class="xtick"><text text-anchor="middle" x="0" y="333" style="font-family: 'Open Sans', verdana, arial, sans-serif; font-size: 12px; fill: rgb(214, 223, 239); fill-opacity: 1; white-space: pre; opacity: 1;" transform="translate(560.61,0)">Nov 2020</text></g></g><g class="yaxislayer-above"><g class="ytick"><text text-anchor="end" x="32" y="4.199999999999999" transform="translate(0,320)" style="font-family: 'Open Sans', verdana, arial, sans-serif; font-size: 12px; fill: rgb(214, 223, 239); fill-opacity: 1; white-space: pre; opacity: 1;">0</text></g><g class="ytick"><text text-anchor="end" x="32" y="4.199999999999999" style="font-family: 'Open Sans', verdana, arial, sans-serif; font-size: 12px; fill: rgb(214, 223, 239); fill-opacity: 1; white-space: pre; opacity: 1;" transform="translate(0,267.94)">0.2</text></g><g class="ytick"><text text-anchor="end" x="32" y="4.199999999999999" style="font-family: 'Open Sans', verdana, arial, sans-serif; font-size: 12px; fill: rgb(214, 223, 239); fill-opacity: 1; white-space: pre; opacity: 1;" transform="translate(0,215.88)">0.4</text></g><g class="ytick"><text text-anchor="end" x="32" y="4.199999999999999" style="font-family: 'Open Sans', verdana, arial, sans-serif; font-size: 12px; fill: rgb(214, 223, 239); fill-opacity: 1; white-space: pre; opacity: 1;" transform="translate(0,163.82)">0.6</text></g><g class="ytick"><text text-anchor="end" x="32" y="4.199999999999999" style="font-family: 'Open Sans', verdana, arial, sans-serif; font-size: 12px; fill: rgb(214, 223, 239); fill-opacity: 1; white-space: pre; opacity: 1;" transform="translate(0,111.76)">0.8</text></g><g class="ytick"><text text-anchor="end" x="32" y="4.199999999999999" style="font-family: 'Open Sans', verdana, arial, sans-serif; font-size: 12px; fill: rgb(214, 223, 239); fill-opacity: 1; white-space: pre; opacity: 1;" transform="translate(0,59.7)">1</text></g></g><g class="overaxes-above"/></g></g><g class="polarlayer"/><g class="smithlayer"/><g class="ternarylayer"/><g class="geolayer"/><g class="funnelarealayer"/><g class="pielayer"/><g class="iciclelayer"/><g class="treemaplayer"/><g class="sunburstlayer"/><g class="glimages"/><defs id="topdefs-707030"><g class="clips"/><clipPath id="legend707030"><rect width="517" height="29" x="0" y="0"/></clipPath></defs><g class="layer-above"><g class="imagelayer"/><g class="shapelayer"/></g><g class="infolayer"><g class="legend" pointer-events="all" transform="translate(153,11.519999999999996)"><rect class="bg" shape-rendering="crispEdges" width="517" height="29" x="0" y="0" style="stroke: rgb(68, 68, 68); stroke-opacity: 1; fill: rgb(33, 34, 44); fill-opacity: 1; stroke-width: 0px;"/><g class="scrollbox" transform="" clip-path="url(#legend707030)"><g class="groups"><g class="traces" transform="translate(0,14.5)" style="opacity: 1;"><text class="legendtext" text-anchor="start" x="40" y="4.680000000000001" style="font-family: 'Open Sans', verdana, arial, sans-serif; font-size: 12px; fill: rgb(214, 223, 239); fill-opacity: 1; white-space: pre;">ADAUSDT</text><g class="layers"><g class="legendfill"><path class="js-fill" d="M5,-2h30v6h-30z" style="stroke-width: 0; fill: rgb(31, 119, 180); fill-opacity: 0.8;"/></g><g class="legendlines"><path class="js-line" d="M5,-2h30" style="fill: none; stroke: rgb(31, 119, 180); stroke-opacity: 1; stroke-width: 0px;"/></g><g class="legendsymbols"><g class="legendpoints"/></g></g><rect class="legendtoggle" x="0" y="-9.5" width="101.78125" height="19" style="fill: rgb(0, 0, 0); fill-opacity: 0;"/></g><g class="traces" transform="translate(104.28125,14.5)" style="opacity: 1;"><text class="legendtext" text-anchor="start" x="40" y="4.680000000000001" style="font-family: 'Open Sans', verdana, arial, sans-serif; font-size: 12px; fill: rgb(214, 223, 239); fill-opacity: 1; white-space: pre;">BNBUSDT</text><g class="layers"><g class="legendfill"><path class="js-fill" d="M5,-2h30v6h-30z" style="stroke-width: 0; fill: rgb(255, 127, 14); fill-opacity: 0.8;"/></g><g class="legendlines"><path class="js-line" d="M5,-2h30" style="fill: none; stroke: rgb(255, 127, 14); stroke-opacity: 1; stroke-width: 0px;"/></g><g class="legendsymbols"><g class="legendpoints"/></g></g><rect class="legendtoggle" x="0" y="-9.5" width="101.5625" height="19" style="fill: rgb(0, 0, 0); fill-opacity: 0;"/></g><g class="traces" transform="translate(208.34375,14.5)" style="opacity: 1;"><text class="legendtext" text-anchor="start" x="40" y="4.680000000000001" style="font-family: 'Open Sans', verdana, arial, sans-serif; font-size: 12px; fill: rgb(214, 223, 239); fill-opacity: 1; white-space: pre;">BTCUSDT</text><g class="layers"><g class="legendfill"><path class="js-fill" d="M5,-2h30v6h-30z" style="stroke-width: 0; fill: rgb(44, 160, 44); fill-opacity: 0.8;"/></g><g class="legendlines"><path class="js-line" d="M5,-2h30" style="fill: none; stroke: rgb(44, 160, 44); stroke-opacity: 1; stroke-width: 0px;"/></g><g class="legendsymbols"><g class="legendpoints"/></g></g><rect class="legendtoggle" x="0" y="-9.5" width="100.140625" height="19" style="fill: rgb(0, 0, 0); fill-opacity: 0;"/></g><g class="traces" transform="translate(310.984375,14.5)" style="opacity: 1;"><text class="legendtext" text-anchor="start" x="40" y="4.680000000000001" style="font-family: 'Open Sans', verdana, arial, sans-serif; font-size: 12px; fill: rgb(214, 223, 239); fill-opacity: 1; white-space: pre;">ETHUSDT</text><g class="layers"><g class="legendfill"><path class="js-fill" d="M5,-2h30v6h-30z" style="stroke-width: 0; fill: rgb(214, 39, 40); fill-opacity: 0.8;"/></g><g class="legendlines"><path class="js-line" d="M5,-2h30" style="fill: none; stroke: rgb(220, 57, 18); stroke-opacity: 1; stroke-width: 0px;"/></g><g class="legendsymbols"><g class="legendpoints"/></g></g><rect class="legendtoggle" x="0" y="-9.5" width="100.140625" height="19" style="fill: rgb(0, 0, 0); fill-opacity: 0;"/></g><g class="traces" transform="translate(413.625,14.5)" style="opacity: 1;"><text class="legendtext" text-anchor="start" x="40" y="4.680000000000001" style="font-family: 'Open Sans', verdana, arial, sans-serif; font-size: 12px; fill: rgb(214, 223, 239); fill-opacity: 1; white-space: pre;">XRPUSDT</text><g class="layers"><g class="legendfill"><path class="js-fill" d="M5,-2h30v6h-30z" style="stroke-width: 0; fill: rgb(148, 103, 189); fill-opacity: 0.8;"/></g><g class="legendlines"><path class="js-line" d="M5,-2h30" style="fill: none; stroke: rgb(148, 103, 189); stroke-opacity: 1; stroke-width: 0px;"/></g><g class="legendsymbols"><g class="legendpoints"/></g></g><rect class="legendtoggle" x="0" y="-9.5" width="99.9375" height="19" style="fill: rgb(0, 0, 0); fill-opacity: 0;"/></g></g></g><rect class="scrollbar" rx="20" ry="3" width="0" height="0" x="0" y="0" style="fill: rgb(128, 139, 164); fill-opacity: 1;"/></g><g class="g-gtitle"/><g class="g-xtitle"/><g class="g-ytitle"/></g></svg>