<svg class="main-svg" xmlns="http://www.w3.org/2000/svg" xmlns:xlink="http://www.w3.org/1999/xlink" width="700" height="350" style="" viewBox="0 0 700 350"><rect x="0" y="0" width="700" height="350" style="fill: rgb(33, 34, 44); fill-opacity: 1;"/><defs id="defs-5f3198"><g class="clips"><clipPath id="clip5f3198xyplot" class="plotclip"><rect width="631" height="274"/></clipPath><clipPath class="axesclip" id="clip5f3198x"><rect x="39" y="0" width="631" height="350"/></clipPath><clipPath class="axesclip" id="clip5f3198y"><rect x="0" y="46" width="700" height="274"/></clipPath><clipPath class="axesclip" id="clip5f3198xy"><rect x="39" y="46" width="631" height="274"/></clipPath></g><g class="gradients"/><g class="patterns"/></defs><g class="bglayer"/><g class="layer-below"><g class="imagelayer"/><g class="shapelayer"/></g><g class="cartesianlayer"><g class="subplot xy"><g class="layer-subplot"><g class="shapelayer"/><g class="imagelayer"/></g><g class="gridlayer"><g class="x"><path class="xgrid crisp" transform="translate(142.87,0)" d="M0,46v274" style="stroke: rgb(47, 62, 78); stroke-opacity: 1; stroke-width: 1px;"/><path class="xgrid crisp" transform="translate(247.97,0)" d="M0,46v274" style="stroke: rgb(47, 62, 78); stroke-opacity: 1; stroke-width: 1px;"/><path class="xgrid crisp" transform="translate(353.06,0)" d="M0,46v274" style="stroke: rgb(47, 62, 78); stroke-opacity: 1; stroke-width: 1px;"/><path class="xgrid crisp" transform="translate(459.88,0)" d="M0,46v274" style="stroke: rgb(47, 62, 78); stroke-opacity: 1; stroke-width: 1px;"/><path class="xgrid crisp" transform="translate(564.98,0)" d="M0,46v274" style="stroke: rgb(47, 62, 78); stroke-opacity: 1; stroke-width: 1px;"/></g><g class="y"><path class="ygrid crisp" transform="translate(0,267.94)" d="M39,0h631" style="stroke: rgb(47, 62, 78); stroke-opacity: 1; stroke-width: 1px;"/><path class="ygrid crisp" transform="translate(0,215.88)" d="M39,0h631" style="stroke: rgb(47, 62, 78); stroke-opacity: 1; stroke-width: 1px;"/><path class="ygrid crisp" transform="translate(0,163.82)" d="M39,0h631" style="stroke: rgb(47, 62, 78); stroke-opacity: 1; stroke-width: 1px;"/><path class="ygrid crisp" transform="translate(0,111.76)" d="M39,0h631" style="stroke: rgb(47, 62, 78); stroke-opacity: 1; stroke-width: 1px;"/><path class="ygrid crisp" transform="translate(0,59.7)" d="M39,0h631" style="stroke: rgb(47, 62, 78); stroke-opacity: 1; stroke-width: 1px;"/></g></g><g class="zerolinelayer"><path class="yzl zl crisp" transform="translate(0,320)" d="M39,0h631" style="stroke: rgb(47, 62, 78); stroke-opacity: 1; stroke-width: 2px;"/></g><path class="xlines-below"/><path class="ylines-below"/><g class="overlines-below"/><g class="xaxislayer-below"/><g class="yaxislayer-below"/><g class="overaxes-below"/><g class="plot" transform="translate(39,46)" clip-path="url(#clip5f3198xyplot)"><g class="scatterlayer mlayer"><g class="trace scatter trace37f7bcca-a77f-4e0e-a986-8f21364b20ff" style="stroke-miterlimit: 2;"><g class="fills"><g><path class="js-fill" d="M631,274L0.5,274L0.5,239.33L53.84,239.33L53.91,257.01L103.8,257.01L103.87,271.58L157.21,271.58L157.28,246.49L208.9,246.49L208.97,188.65L262.31,188.65L262.38,178.4L313.99,178.4L314.06,216.65L367.4,216.65L367.47,183.88L420.81,183.88L420.88,256.54L472.5,256.54L472.57,196.52L525.9,196.52L525.98,213.58L577.59,213.58L577.66,121.83L631,121.83" style="fill: rgb(31, 119, 180); fill-opacity: 0.8; stroke-width: 0;"/></g><g><path class="js-fill" d="M0.5,151.32L53.84,151.32L53.91,250.68L103.8,250.68L103.87,157.71L157.21,157.71L157.28,200.86L208.9,200.86L208.97,169.19L262.31,169.19L262.38,154.09L313.99,154.09L314.06,200.56L367.4,200.56L367.47,149.93L420.81,149.93L420.88,185.71L472.5,185.71L472.57,160.07L525.9,160.07L525.98,165.27L577.59,165.27L577.66,107.22L631,107.22L631,121.83L577.66,121.83L577.59,213.58L525.98,213.58L525.9,196.52L472.57,196.52L472.5,256.54L420.88,256.54L420.81,183.88L367.47,183.88L367.4,216.65L314.06,216.65L313.99,178.4L262.38,178.4L262.31,188.65L208.97,188.65L208.9,246.49L157.28,246.49L157.21,271.58L103.87,271.58L103.8,257.01L53.91,257.01L53.84,239.33L0.5,239.33Z" style="fill: rgb(255, 127, 14); fill-opacity: 0.8; stroke-width: 0;"/></g></g><g class="errorbars"/><g class="lines"><path class="js-line" d="M0.5,239.33L53.84,239.33L53.91,257.01L103.8,257.01L103.87,271.58L157.21,271.58L157.28,246.49L208.9,246.49L208.97,188.65L262.31,188.65L262.38,178.4L313.99,178.4L314.06,216.65L367.4,216.65L367.47,183.88L420.81,183.88L420.88,256.54L472.5,256.54L472.57,196.52L525.9,196.52L525.98,213.58L577.59,213.58L577.66,121.83L631,121.83" style="vector-effect: non-scaling-stroke; fill: none; stroke: rgb(31, 119, 180); stroke-opacity: 1; stroke-width: 0px; opacity: 1;"/></g><g class="points"/><g class="text"/></g><g class="trace scatter trace76f95888-9816-42a6-ac69-5377bf75e966" style="stroke-miterlimit: 2;"><g class="fills"><g><path class="js-fill" d="M0.5,83.56L53.84,83.56L53.91,156.32L103.8,156.32L103.87,59.98L157.21,59.98L157.28,122.16L208.9,122.16L208.97,128.43L262.31,128.43L262.38,91.48L313.99,91.48L314.06,194.42L367.4,194.42L367.47,139.04L420.81,139.04L420.88,180.79L472.5,180.79L472.57,99.25L525.9,99.25L525.98,106.72L577.59,106.72L577.66,74.87L631,74.87L631,107.22L577.66,107.22L577.59,165.27L525.98,165.27L525.9,160.07L472.57,160.07L472.5,185.71L420.88,185.71L420.81,149.93L367.47,149.93L367.4,200.56L314.06,200.56L313.99,154.09L262.38,154.09L262.31,169.19L208.97,169.19L208.9,200.86L157.28,200.86L157.21,157.71L103.87,157.71L103.8,250.68L53.91,250.68L53.84,151.32L0.5,151.32Z" style="fill: rgb(44, 160, 44); fill-opacity: 0.8; stroke-width: 0;"/></g></g><g class="errorbars"/><g class="lines"><path class="js-line" d="M0.5,151.32L53.84,151.32L53.91,250.68L103.8,250.68L103.87,157.71L157.21,157.71L157.28,200.86L208.9,200.86L208.97,169.19L262.31,169.19L262.38,154.09L313.99,154.09L314.06,200.56L367.4,200.56L367.47,149.93L420.81,149.93L420.88,185.71L472.5,185.71L472.57,160.07L525.9,160.07L525.98,165.27L577.59,165.27L577.66,107.22L631,107.22" style="vector-effect: non-scaling-stroke; fill: none; stroke: rgb(255, 127, 14); stroke-opacity: 1; stroke-width: 0px; opacity: 1;"/></g><g class="points"/><g class="text"/></g><g class="trace scatter trace1467875e-530b-48e1-87b4-2ec4b884904f" style="stroke-miterlimit: 2;"><g class="fills"><g><path class="js-fill" d="M0.5,28.14L53.84,28.14L53.91,90.84L103.8,90.84L103.87,35.05L157.21,35.05L157.28,57.38L208.9,57.38L208.97,77.32L262.31,77.32L262.38,19.36L313.99,19.36L314.06,104.85L367.4,104.85L367.47,62.77L420.81,62.77L420.88,50.72L472.5,50.72L472.57,35.32L525.9,35.32L525.98,50.96L577.59,50.96L577.66,67.4L631,67.4L631,74.87L577.66,74.87L577.59,106.72L525.98,106.72L525.9,99.25L472.57,99.25L472.5,180.79L420.88,180.79L420.81,139.04L367.47,139.04L367.4,194.42L314.06,194.42L313.99,91.48L262.38,91.48L262.31,128.43L208.97,128.43L208.9,122.16L157.28,122.16L157.21,59.98L103.87,59.98L103.8,156.32L53.91,156.32L53.84,83.56L0.5,83.56Z" style="fill: rgb(214, 39, 40); fill-opacity: 0.8; stroke-width: 0;"/></g></g><g class="errorbars"/><g class="lines"><path class="js-line" d="M0.5,83.56L53.84,83.56L53.91,156.32L103.8,156.32L103.87,59.98L157.21,59.98L157.28,122.16L208.9,122.16L208.97,128.43L262.31,128.43L262.38,91.48L313.99,91.48L314.06,194.42L367.4,194.42L367.47,139.04L420.81,139.04L420.88,180.79L472.5,180.79L472.57,99.25L525.9,99.25L525.98,106.72L577.59,106.72L577.66,74.87L631,74.87" style="vector-effect: non-scaling-stroke; fill: none; stroke: rgb(44, 160, 44); stroke-opacity: 1; stroke-width: 0px; opacity: 1;"/></g><g class="points"/><g class="text"/></g><g class="trace scatter traced62afbd8-91e6-46a5-99d7-fd83b197746b" style="stroke-miterlimit: 2;"><g class="fills"><g><path class="js-fill" d="M0.5,13.7L631,13.7L631,67.4L577.66,67.4L577.59,50.96L525.98,50.96L525.9,35.32L472.57,35.32L472.5,50.72L420.88,50.72L420.81,62.77L367.47,62.77L367.4,104.85L314.06,104.85L313.99,19.36L262.38,19.36L262.31,77.32L208.97,77.32L208.9,57.38L157.28,57.38L157.21,35.05L103.87,35.05L103.8,90.84L53.91,90.84L53.84,28.14L0.5,28.14Z" style="fill: rgb(148, 103, 189); fill-opacity: 0.8; stroke-width: 0;"/></g></g><g class="errorbars"/><g class="lines"><path class="js-line" d="M0.5,28.14L53.84,28.14L53.91,90.84L103.8,90.84L103.87,35.05L157.21,35.05L157.28,57.38L208.9,57.38L208.97,77.32L262.31,77.32L262.38,19.36L313.99,19.36L314.06,104.85L367.4,104.85L367.47,62.77L420.81,62.77L420.88,50.72L472.5,50.72L472.57,35.32L525.9,35.32L525.98,50.96L577.59,50.96L577.66,67.4L631,67.4" style="vector-effect: non-scaling-stroke; fill: none; stroke: rgb(220, 57, 18); stroke-opacity: 1; stroke-width: 0px; opacity: 1;"/></g><g class="points"/><g class="text"/></g><g class="trace scatter tracecec0f1c8-107c-444a-896d-f60a25566134" style="stroke-miterlimit: 2;"><g class="fills"/><g class="errorbars"/><g class="lines"><path class="js-line" d="M0.5,13.7L631,13.7" style="vector-effect: non-scaling-stroke; fill: none; stroke: rgb(148, 103, 189); stroke-opacity: 1; stroke-width: 0px; opacity: 1;"/></g><g class="points"/><g class="text"/></g></g></g><g class="overplot"/><path class="xlines-above crisp" d="M0,0" style="fill: none;"/><path class="ylines-above crisp" d="M0,0" style="fill: none;"/><g class="overlines-above"/><g class="xaxislayer-above"><g class="xtick"><text text-anchor="middle" x="0" y="333" transform="translate(39.5,0)" style="font-family: 'Open Sans', verdana, arial, sans-serif; font-size: 12px; fill: rgb(214, 223, 239); fill-opacity: 1; white-space: pre; opacity: 1;">Jan 2020</text></g><g class="xtick"><text text-anchor="middle" x="0" y="333" style="font-family: 'Open Sans', verdana, arial, sans-serif; font-size: 12px; fill: rgb(214, 223, 239); fill-opacity: 1; white-space: pre; opacity: 1;" transform="translate(142.87,0)">Mar 2020</text></g><g class="xtick"><text text-anchor="middle" x="0" y="333" style="font-family: 'Open Sans', verdana, arial, sans-serif; font-size: 12px; fill: rgb(214, 223, 239); fill-opacity: 1; white-space: pre; opacity: 1;" transform="translate(247.97,0)">May 2020</text></g><g class="xtick"><text text-anchor="middle" x="0" y="333" style="font-family: 'Open Sans', verdana, arial, sans-serif; font-size: 12px; fill: rgb(214, 223, 239); fill-opacity: 1; white-space: pre; opacity: 1;" transform="translate(353.06,0)">Jul 2020</text></g><g class="xtick"><text text-anchor="middle" x="0" y="333" style="font-family: 'Open Sans', verdana, arial, sans-serif; font-size: 12px; fill: rgb(214, 223, 239); fill-opacity: 1; white-space: pre; opacity: 1;" transform="translate(459.88,0)">Sep 2020</text></g><g class="xtick"><text text-anchor="middle" x="0" y="333" style="font-family: 'Open Sans', verdana, arial, sans-serif; font-size: 12px; fill: rgb(214, 223, 239); fill-opacity: 1; white-space: pre; opacity: 1;" transform="translate(564.98,0)">Nov 2020</text></g></g><g class="yaxislayer-above"><g class="ytick"><text text-anchor="end" x="38" y="4.199999999999999" transform="translate(0,320)" style="font-family: 'Open Sans', verdana, arial, sans-serif; font-size: 12px; fill: rgb(214, 223, 239); fill-opacity: 1; white-space: pre; opacity: 1;">0</text></g><g class="ytick"><text text-anchor="end" x="38" y="4.199999999999999" style="font-family: 'Open Sans', verdana, arial, sans-serif; font-size: 12px; fill: rgb(214, 223, 239); fill-opacity: 1; white-space: pre; opacity: 1;" transform="translate(0,267.94)">0.2</text></g><g class="ytick"><text text-anchor="end" x="38" y="4.199999999999999" style="font-family: 'Open Sans', verdana, arial, sans-serif; font-size: 12px; fill: rgb(214, 223, 239); fill-opacity: 1; white-space: pre; opacity: 1;" transform="translate(0,215.88)">0.4</text></g><g class="ytick"><text text-anchor="end" x="38" y="4.199999999999999" style="font-family: 'Open Sans', verdana, arial, sans-serif; font-size: 12px; fill: rgb(214, 223, 239); fill-opacity: 1; white-space: pre; opacity: 1;" transform="translate(0,163.82)">0.6</text></g><g class="ytick"><text text-anchor="end" x="38" y="4.199999999999999" style="font-family: 'Open Sans', verdana, arial, sans-serif; font-size: 12px; fill: rgb(214, 223, 239); fill-opacity: 1; white-space: pre; opacity: 1;" transform="translate(0,111.76)">0.8</text></g><g class="ytick"><text text-anchor="end" x="38" y="4.199999999999999" style="font-family: 'Open Sans', verdana, arial, sans-serif; font-size: 12px; fill: rgb(214, 223, 239); fill-opacity: 1; white-space: pre; opacity: 1;" transform="translate(0,59.7)">1</text></g></g><g class="overaxes-above"/></g></g><g class="polarlayer"/><g class="smithlayer"/><g class="ternarylayer"/><g class="geolayer"/><g class="funnelarealayer"/><g class="pielayer"/><g class="iciclelayer"/><g class="treemaplayer"/><g class="sunburstlayer"/><g class="glimages"/><defs id="topdefs-5f3198"><g class="clips"/><clipPath id="legend5f3198"><rect width="517" height="29" x="0" y="0"/></clipPath></defs><g class="layer-above"><g class="imagelayer"/><g class="shapelayer"><path data-index="0" fill-rule="evenodd" d="M39.5,320L39.5,46" clip-path="url(#clip5f3198x)" style="opacity: 1; stroke: rgb(33, 34, 44); stroke-opacity: 1; fill: rgb(0, 0, 0); fill-opacity: 0; stroke-dasharray: 3px, 3px; stroke-width: 1px;"/><path data-index="1" fill-rule="evenodd" d="M92.91,320L92.91,46" clip-path="url(#clip5f3198x)" style="opacity: 1; stroke: rgb(33, 34, 44); stroke-opacity: 1; fill: rgb(0, 0, 0); fill-opacity: 0; stroke-dasharray: 3px, 3px; stroke-width: 1px;"/><path data-index="2" fill-rule="evenodd" d="M142.87,320L142.87,46" clip-path="url(#clip5f3198x)" style="opacity: 1; stroke: rgb(33, 34, 44); stroke-opacity: 1; fill: rgb(0, 0, 0); fill-opacity: 0; stroke-dasharray: 3px, 3px; stroke-width: 1px;"/><path data-index="3" fill-rule="evenodd" d="M196.28,320L196.28,46" clip-path="url(#clip5f3198x)" style="opacity: 1; stroke: rgb(33, 34, 44); stroke-opacity: 1; fill: rgb(0, 0, 0); fill-opacity: 0; stroke-dasharray: 3px, 3px; stroke-width: 1px;"/><path data-index="4" fill-rule="evenodd" d="M247.97,320L247.97,46" clip-path="url(#clip5f3198x)" style="opacity: 1; stroke: rgb(33, 34, 44); stroke-opacity: 1; fill: rgb(0, 0, 0); fill-opacity: 0; stroke-dasharray: 3px, 3px; stroke-width: 1px;"/><path data-index="5" fill-rule="evenodd" d="M301.38,320L301.38,46" clip-path="url(#clip5f3198x)" style="opacity: 1; stroke: rgb(33, 34, 44); stroke-opacity: 1; fill: rgb(0, 0, 0); fill-opacity: 0; stroke-dasharray: 3px, 3px; stroke-width: 1px;"/><path data-index="6" fill-rule="evenodd" d="M353.06,320L353.06,46" clip-path="url(#clip5f3198x)" style="opacity: 1; stroke: rgb(33, 34, 44); stroke-opacity: 1; fill: rgb(0, 0, 0); fill-opacity: 0; stroke-dasharray: 3px, 3px; stroke-width: 1px;"/><path data-index="7" fill-rule="evenodd" d="M406.47,320L406.47,46" clip-path="url(#clip5f3198x)" style="opacity: 1; stroke: rgb(33, 34, 44); stroke-opacity: 1; fill: rgb(0, 0, 0); fill-opacity: 0; stroke-dasharray: 3px, 3px; stroke-width: 1px;"/><path data-index="8" fill-rule="evenodd" d="M459.88,320L459.88,46" clip-path="url(#clip5f3198x)" style="opacity: 1; stroke: rgb(33, 34, 44); stroke-opacity: 1; fill: rgb(0, 0, 0); fill-opacity: 0; stroke-dasharray: 3px, 3px; stroke-width: 1px;"/><path data-index="9" fill-rule="evenodd" d="M511.57,320L511.57,46" clip-path="url(#clip5f3198x)" style="opacity: 1; stroke: rgb(33, 34, 44); stroke-opacity: 1; fill: rgb(0, 0, 0); fill-opacity: 0; stroke-dasharray: 3px, 3px; stroke-width: 1px;"/><path data-index="10" fill-rule="evenodd" d="M564.98,320L564.98,46" clip-path="url(#clip5f3198x)" style="opacity: 1; stroke: rgb(33, 34, 44); stroke-opacity: 1; fill: rgb(0, 0, 0); fill-opacity: 0; stroke-dasharray: 3px, 3px; stroke-width: 1px;"/><path data-index="11" fill-rule="evenodd" d="M616.66,320L616.66,46" clip-path="url(#clip5f3198x)" style="opacity: 1; stroke: rgb(33, 34, 44); stroke-opacity: 1; fill: rgb(0, 0, 0); fill-opacity: 0; stroke-dasharray: 3px, 3px; stroke-width: 1px;"/></g></g><g class="infolayer"><g class="legend" pointer-events="all" transform="translate(153,11.519999999999996)"><rect class="bg" shape-rendering="crispEdges" width="517" height="29" x="0" y="0" style="stroke: rgb(68, 68, 68); stroke-opacity: 1; fill: rgb(33, 34, 44); fill-opacity: 1; stroke-width: 0px;"/><g class="scrollbox" transform="" clip-path="url(#legend5f3198)"><g class="groups"><g class="traces" transform="translate(0,14.5)" style="opacity: 1;"><text class="legendtext" text-anchor="start" x="40" y="4.680000000000001" style="font-family: 'Open Sans', verdana, arial, sans-serif; font-size: 12px; fill: rgb(214, 223, 239); fill-opacity: 1; white-space: pre;">ADAUSDT</text><g class="layers"><g class="legendfill"><path class="js-fill" d="M5,-2h30v6h-30z" style="stroke-width: 0; fill: rgb(31, 119, 180); fill-opacity: 0.8;"/></g><g class="legendlines"><path class="js-line" d="M5,-2h30" style="fill: none; stroke: rgb(31, 119, 180); stroke-opacity: 1; stroke-width: 0px;"/></g><g class="legendsymbols"><g class="legendpoints"/></g></g><rect class="legendtoggle" x="0" y="-9.5" width="101.78125" height="19" style="fill: rgb(0, 0, 0); fill-opacity: 0;"/></g><g class="traces" transform="translate(104.28125,14.5)" style="opacity: 1;"><text class="legendtext" text-anchor="start" x="40" y="4.680000000000001" style="font-family: 'Open Sans', verdana, arial, sans-serif; font-size: 12px; fill: rgb(214, 223, 239); fill-opacity: 1; white-space: pre;">BNBUSDT</text><g class="layers"><g class="legendfill"><path class="js-fill" d="M5,-2h30v6h-30z" style="stroke-width: 0; fill: rgb(255, 127, 14); fill-opacity: 0.8;"/></g><g class="legendlines"><path class="js-line" d="M5,-2h30" style="fill: none; stroke: rgb(255, 127, 14); stroke-opacity: 1; stroke-width: 0px;"/></g><g class="legendsymbols"><g class="legendpoints"/></g></g><rect class="legendtoggle" x="0" y="-9.5" width="101.5625" height="19" style="fill: rgb(0, 0, 0); fill-opacity: 0;"/></g><g class="traces" transform="translate(208.34375,14.5)" style="opacity: 1;"><text class="legendtext" text-anchor="start" x="40" y="4.680000000000001" style="font-family: 'Open Sans', verdana, arial, sans-serif; font-size: 12px; fill: rgb(214, 223, 239); fill-opacity: 1; white-space: pre;">BTCUSDT</text><g class="layers"><g class="legendfill"><path class="js-fill" d="M5,-2h30v6h-30z" style="stroke-width: 0; fill: rgb(44, 160, 44); fill-opacity: 0.8;"/></g><g class="legendlines"><path class="js-line" d="M5,-2h30" style="fill: none; stroke: rgb(44, 160, 44); stroke-opacity: 1; stroke-width: 0px;"/></g><g class="legendsymbols"><g class="legendpoints"/></g></g><rect class="legendtoggle" x="0" y="-9.5" width="100.140625" height="19" style="fill: rgb(0, 0, 0); fill-opacity: 0;"/></g><g class="traces" transform="translate(310.984375,14.5)" style="opacity: 1;"><text class="legendtext" text-anchor="start" x="40" y="4.680000000000001" style="font-family: 'Open Sans', verdana, arial, sans-serif; font-size: 12px; fill: rgb(214, 223, 239); fill-opacity: 1; white-space: pre;">ETHUSDT</text><g class="layers"><g class="legendfill"><path class="js-fill" d="M5,-2h30v6h-30z" style="stroke-width: 0; fill: rgb(214, 39, 40); fill-opacity: 0.8;"/></g><g class="legendlines"><path class="js-line" d="M5,-2h30" style="fill: none; stroke: rgb(220, 57, 18); stroke-opacity: 1; stroke-width: 0px;"/></g><g class="legendsymbols"><g class="legendpoints"/></g></g><rect class="legendtoggle" x="0" y="-9.5" width="100.140625" height="19" style="fill: rgb(0, 0, 0); fill-opacity: 0;"/></g><g class="traces" transform="translate(413.625,14.5)" style="opacity: 1;"><text class="legendtext" text-anchor="start" x="40" y="4.680000000000001" style="font-family: 'Open Sans', verdana, arial, sans-serif; font-size: 12px; fill: rgb(214, 223, 239); fill-opacity: 1; white-space: pre;">XRPUSDT</text><g class="layers"><g class="legendfill"><path class="js-fill" d="M5,-2h30v6h-30z" style="stroke-width: 0; fill: rgb(148, 103, 189); fill-opacity: 0.8;"/></g><g class="legendlines"><path class="js-line" d="M5,-2h30" style="fill: none; stroke: rgb(148, 103, 189); stroke-opacity: 1; stroke-width: 0px;"/></g><g class="legendsymbols"><g class="legendpoints"/></g></g><rect class="legendtoggle" x="0" y="-9.5" width="99.9375" height="19" style="fill: rgb(0, 0, 0); fill-opacity: 0;"/></g></g></g><rect class="scrollbar" rx="20" ry="3" width="0" height="0" x="0" y="0" style="fill: rgb(128, 139, 164); fill-opacity: 1;"/></g><g class="g-gtitle"/><g class="g-xtitle"/><g class="g-ytitle"/></g></svg>