<svg class="main-svg" xmlns="http://www.w3.org/2000/svg" xmlns:xlink="http://www.w3.org/1999/xlink" width="700" height="350" style="" viewBox="0 0 700 350"><rect x="0" y="0" width="700" height="350" style="fill: rgb(33, 34, 44); fill-opacity: 1;"/><defs id="defs-99d3fc"><g class="clips"><clipPath id="clip99d3fcxyplot" class="plotclip"><rect width="630" height="274"/></clipPath><clipPath class="axesclip" id="clip99d3fcx"><rect x="40" y="0" width="630" height="350"/></clipPath><clipPath class="axesclip" id="clip99d3fcy"><rect x="0" y="46" width="700" height="274"/></clipPath><clipPath class="axesclip" id="clip99d3fcxy"><rect x="40" y="46" width="630" height="274"/></clipPath></g><g class="gradients"/><g class="patterns"/></defs><g class="bglayer"/><g class="layer-below"><g class="imagelayer"/><g class="shapelayer"/></g><g class="cartesianlayer"><g class="subplot xy"><g class="layer-subplot"><g class="shapelayer"/><g class="imagelayer"/></g><g class="gridlayer"><g class="x"><path class="xgrid crisp" transform="translate(143.56,0)" d="M0,46v274" style="stroke: rgb(47, 62, 78); stroke-opacity: 1; stroke-width: 1px;"/><path class="xgrid crisp" transform="translate(248.85,0)" d="M0,46v274" style="stroke: rgb(47, 62, 78); stroke-opacity: 1; stroke-width: 1px;"/><path class="xgrid crisp" transform="translate(354.14,0)" d="M0,46v274" style="stroke: rgb(47, 62, 78); stroke-opacity: 1; stroke-width: 1px;"/><path class="xgrid crisp" transform="translate(461.15,0)" d="M0,46v274" style="stroke: rgb(47, 62, 78); stroke-opacity: 1; stroke-width: 1px;"/><path class="xgrid crisp" transform="translate(566.44,0)" d="M0,46v274" style="stroke: rgb(47, 62, 78); stroke-opacity: 1; stroke-width: 1px;"/></g><g class="y"><path class="ygrid crisp" transform="translate(0,267.94)" d="M40,0h630" style="stroke: rgb(47, 62, 78); stroke-opacity: 1; stroke-width: 1px;"/><path class="ygrid crisp" transform="translate(0,215.88)" d="M40,0h630" style="stroke: rgb(47, 62, 78); stroke-opacity: 1; stroke-width: 1px;"/><path class="ygrid crisp" transform="translate(0,163.82)" d="M40,0h630" style="stroke: rgb(47, 62, 78); stroke-opacity: 1; stroke-width: 1px;"/><path class="ygrid crisp" transform="translate(0,111.76)" d="M40,0h630" style="stroke: rgb(47, 62, 78); stroke-opacity: 1; stroke-width: 1px;"/><path class="ygrid crisp" transform="translate(0,59.7)" d="M40,0h630" style="stroke: rgb(47, 62, 78); stroke-opacity: 1; stroke-width: 1px;"/></g></g><g class="zerolinelayer"><path class="yzl zl crisp" transform="translate(0,320)" d="M40,0h630" style="stroke: rgb(47, 62, 78); stroke-opacity: 1; stroke-width: 2px;"/></g><path class="xlines-below"/><path class="ylines-below"/><g class="overlines-below"/><g class="xaxislayer-below"/><g class="yaxislayer-below"/><g class="overaxes-below"/><g class="plot" transform="translate(40,46)" clip-path="url(#clip99d3fcxyplot)"><g class="scatterlayer mlayer"><g class="trace scatter traced6522147-d7d1-4c91-80a9-5f9de8c6a956" style="stroke-miterlimit: 2;"><g class="fills"><g><path class="js-fill" d="M630,274L0,274L0,221.94L12.08,221.94L13.81,274L15.53,177.5L17.26,215.83L20.71,94.68L22.44,219.76L24.16,203.28L25.89,249.6L27.62,220.58L29.34,161.4L31.07,112.41L32.79,274L34.52,193.33L36.25,183.05L37.97,160.62L39.7,199.88L41.42,152.43L43.15,204.31L44.88,207.2L46.6,168.99L48.33,160.55L50.05,147.82L51.78,138.29L53.51,155.55L55.23,141.07L56.96,151.98L58.68,142.3L60.41,151.09L62.14,157.81L63.86,173.48L65.59,206.42L67.32,199.72L70.77,219.39L72.49,219.29L74.22,222.36L75.95,214.01L77.67,221.06L79.4,255.88L81.12,271.03L82.85,274L239.92,274L241.64,263.74L243.37,253.96L245.1,271.93L246.82,254.98L248.55,258.33L250.27,259.98L252,254.78L253.73,249.84L255.45,249.36L257.18,244.77L258.9,243.98L260.63,240.52L262.36,242.67L264.08,240.87L265.81,241.52L270.99,240.11L272.71,237.26L276.16,236.61L277.89,236.59L279.62,191.43L281.34,202L283.07,193.64L284.79,195.32L286.52,188.56L288.25,189.55L289.97,189.48L291.7,190.23L293.42,189.78L295.15,191.16L296.88,183.88L298.6,187.08L302.05,185.24L303.78,187.08L305.51,181.84L307.23,184.03L308.96,182.31L310.68,182.72L312.41,182.09L314.14,183.74L315.86,182.2L317.59,185.88L319.32,184.52L321.04,182L322.77,185.82L324.49,182.36L326.22,181.11L327.95,178.54L329.67,173.86L331.4,177.93L334.85,174.97L336.58,176.27L338.3,171.44L340.03,174.35L341.75,176.73L343.48,180.74L345.21,178.58L346.93,174.45L348.66,179.64L350.38,179.88L352.11,182.02L353.84,182.75L355.56,184.61L357.29,184.23L359.01,183.39L360.74,194.61L362.47,189.64L364.19,188.3L367.64,200.6L369.37,208.81L371.1,217.3L372.82,220.26L374.55,220.64L376.27,222.51L379.73,218.88L381.45,227.59L383.18,228.68L384.9,234.11L386.63,230.2L388.36,229.53L390.08,240.79L391.81,243.45L393.53,238.44L395.26,239.61L398.71,246.25L400.44,243.75L403.89,244.9L405.62,240.62L410.79,253.66L412.52,261.74L415.97,274L417.7,269.95L419.42,274L421.15,274L630,274" style="fill: rgb(31, 119, 180); fill-opacity: 0.8; stroke-width: 0;"/></g><g><path class="js-fill" d="M0,169.88L12.08,169.88L13.81,274L15.53,177.5L17.26,215.83L20.71,94.68L22.44,219.76L24.16,203.28L25.89,119.22L27.62,177.17L29.34,114.97L31.07,112.41L32.79,186.85L36.25,118.83L37.97,129.03L39.7,163.07L41.42,152.43L43.15,155.97L44.88,164.69L46.6,168.99L48.33,160.55L51.78,138.29L53.51,155.55L55.23,141.07L56.96,151.98L58.68,142.3L60.41,151.09L62.14,157.81L63.86,173.48L65.59,164.91L67.32,175.37L70.77,106.66L72.49,117.18L74.22,128.94L75.95,148.78L77.67,155.36L79.4,220.81L81.12,246.69L82.85,256.79L84.58,260.85L86.3,270.13L88.03,272.99L89.75,274L110.47,274L112.19,267.55L113.92,274L115.64,274L239.92,274L241.64,263.74L243.37,253.96L245.1,271.93L246.82,254.98L248.55,258.33L250.27,259.98L252,254.78L253.73,249.84L255.45,249.36L257.18,244.77L258.9,243.98L260.63,240.52L262.36,242.67L264.08,240.87L265.81,241.52L270.99,240.11L272.71,237.26L276.16,236.61L277.89,236.59L279.62,191.43L281.34,202L283.07,193.64L284.79,195.32L286.52,188.56L288.25,189.55L289.97,189.48L291.7,190.23L293.42,189.78L295.15,191.16L296.88,183.88L298.6,187.08L302.05,185.24L303.78,187.08L305.51,181.84L307.23,184.03L308.96,182.31L310.68,182.72L312.41,182.09L314.14,183.74L315.86,182.2L317.59,185.88L319.32,184.52L321.04,182L322.77,185.82L324.49,182.36L326.22,181.11L327.95,178.54L329.67,173.86L331.4,177.93L334.85,174.97L336.58,176.27L338.3,171.44L340.03,174.35L341.75,176.73L343.48,180.74L345.21,178.58L346.93,174.45L348.66,179.64L350.38,179.88L352.11,182.02L353.84,182.75L355.56,184.61L357.29,184.23L359.01,183.39L360.74,194.61L362.47,189.64L364.19,188.3L367.64,200.6L369.37,208.81L371.1,217.3L372.82,220.26L374.55,220.64L376.27,222.51L379.73,218.88L381.45,227.59L383.18,228.68L384.9,234.11L386.63,230.2L388.36,229.53L390.08,240.79L391.81,243.45L393.53,238.44L395.26,239.61L398.71,246.25L400.44,243.75L403.89,244.9L405.62,240.62L410.79,253.66L412.52,261.74L415.97,274L417.7,269.95L419.42,274L421.15,274L422.88,274L424.6,260.93L426.33,274L428.05,274L429.78,274L431.51,257.65L433.23,270.42L434.96,240.53L436.68,231.2L438.41,240.42L440.14,237.1L441.86,224.48L443.59,201.09L445.32,202.74L447.04,229.83L448.77,225.23L450.49,236.77L452.22,233.27L453.95,235.56L455.67,233.15L457.4,244.18L459.12,240.67L460.85,239.42L462.58,240.08L464.3,239.3L466.03,232.13L467.75,232.49L469.48,228.23L472.93,219.99L474.66,226.56L479.84,219.94L481.56,227.31L483.29,225.37L485.01,224.66L488.47,237.25L490.19,242.23L491.92,245.76L493.64,237.4L495.37,232.72L497.1,230.43L498.82,227.91L500.55,228.61L502.27,233.25L504,231.94L505.73,233.81L507.45,232.26L509.18,240.23L510.9,242.67L512.63,243.15L514.36,240.35L516.08,227.16L517.81,228.94L519.53,230.55L521.26,229.77L524.71,240.49L526.44,254.78L529.89,261.12L531.62,269.41L533.34,266.66L535.07,272.64L538.52,264.37L540.25,265.82L543.7,261.88L545.42,264.89L547.15,274L548.88,274L550.6,274L552.33,273.17L554.05,274L555.78,274L630,274L630,274L421.15,274L419.42,274L417.7,269.95L415.97,274L412.52,261.74L410.79,253.66L405.62,240.62L403.89,244.9L400.44,243.75L398.71,246.25L395.26,239.61L393.53,238.44L391.81,243.45L390.08,240.79L388.36,229.53L386.63,230.2L384.9,234.11L383.18,228.68L381.45,227.59L379.73,218.88L376.27,222.51L374.55,220.64L372.82,220.26L371.1,217.3L369.37,208.81L367.64,200.6L364.19,188.3L362.47,189.64L360.74,194.61L359.01,183.39L357.29,184.23L355.56,184.61L353.84,182.75L352.11,182.02L350.38,179.88L348.66,179.64L346.93,174.45L345.21,178.58L343.48,180.74L341.75,176.73L340.03,174.35L338.3,171.44L336.58,176.27L334.85,174.97L331.4,177.93L329.67,173.86L327.95,178.54L326.22,181.11L324.49,182.36L322.77,185.82L321.04,182L319.32,184.52L317.59,185.88L315.86,182.2L314.14,183.74L312.41,182.09L310.68,182.72L308.96,182.31L307.23,184.03L305.51,181.84L303.78,187.08L302.05,185.24L298.6,187.08L296.88,183.88L295.15,191.16L293.42,189.78L291.7,190.23L289.97,189.48L288.25,189.55L286.52,188.56L284.79,195.32L283.07,193.64L281.34,202L279.62,191.43L277.89,236.59L276.16,236.61L272.71,237.26L270.99,240.11L265.81,241.52L264.08,240.87L262.36,242.67L260.63,240.52L258.9,243.98L257.18,244.77L255.45,249.36L253.73,249.84L252,254.78L250.27,259.98L248.55,258.33L246.82,254.98L245.1,271.93L243.37,253.96L241.64,263.74L239.92,274L82.85,274L81.12,271.03L79.4,255.88L77.67,221.06L75.95,214.01L74.22,222.36L72.49,219.29L70.77,219.39L67.32,199.72L65.59,206.42L63.86,173.48L62.14,157.81L60.41,151.09L58.68,142.3L56.96,151.98L55.23,141.07L53.51,155.55L51.78,138.29L50.05,147.82L48.33,160.55L46.6,168.99L44.88,207.2L43.15,204.31L41.42,152.43L39.7,199.88L37.97,160.62L36.25,183.05L34.52,193.33L32.79,274L31.07,112.41L29.34,161.4L27.62,220.58L25.89,249.6L24.16,203.28L22.44,219.76L20.71,94.68L17.26,215.83L15.53,177.5L13.81,274L12.08,221.94L0,221.94Z" style="fill: rgb(255, 127, 14); fill-opacity: 0.8; stroke-width: 0;"/></g></g><g class="errorbars"/><g class="lines"><path class="js-line" d="M0,221.94L12.08,221.94L13.81,274L15.53,177.5L17.26,215.83L20.71,94.68L22.44,219.76L24.16,203.28L25.89,249.6L27.62,220.58L29.34,161.4L31.07,112.41L32.79,274L34.52,193.33L36.25,183.05L37.97,160.62L39.7,199.88L41.42,152.43L43.15,204.31L44.88,207.2L46.6,168.99L48.33,160.55L50.05,147.82L51.78,138.29L53.51,155.55L55.23,141.07L56.96,151.98L58.68,142.3L60.41,151.09L62.14,157.81L63.86,173.48L65.59,206.42L67.32,199.72L70.77,219.39L72.49,219.29L74.22,222.36L75.95,214.01L77.67,221.06L79.4,255.88L81.12,271.03L82.85,274L239.92,274L241.64,263.74L243.37,253.96L245.1,271.93L246.82,254.98L248.55,258.33L250.27,259.98L252,254.78L253.73,249.84L255.45,249.36L257.18,244.77L258.9,243.98L260.63,240.52L262.36,242.67L264.08,240.87L265.81,241.52L270.99,240.11L272.71,237.26L276.16,236.61L277.89,236.59L279.62,191.43L281.34,202L283.07,193.64L284.79,195.32L286.52,188.56L288.25,189.55L289.97,189.48L291.7,190.23L293.42,189.78L295.15,191.16L296.88,183.88L298.6,187.08L302.05,185.24L303.78,187.08L305.51,181.84L307.23,184.03L308.96,182.31L310.68,182.72L312.41,182.09L314.14,183.74L315.86,182.2L317.59,185.88L319.32,184.52L321.04,182L322.77,185.82L324.49,182.36L326.22,181.11L327.95,178.54L329.67,173.86L331.4,177.93L334.85,174.97L336.58,176.27L338.3,171.44L340.03,174.35L341.75,176.73L343.48,180.74L345.21,178.58L346.93,174.45L348.66,179.64L350.38,179.88L352.11,182.02L353.84,182.75L355.56,184.61L357.29,184.23L359.01,183.39L360.74,194.61L362.47,189.64L364.19,188.3L367.64,200.6L369.37,208.81L371.1,217.3L372.82,220.26L374.55,220.64L376.27,222.51L379.73,218.88L381.45,227.59L383.18,228.68L384.9,234.11L386.63,230.2L388.36,229.53L390.08,240.79L391.81,243.45L393.53,238.44L395.26,239.61L398.71,246.25L400.44,243.75L403.89,244.9L405.62,240.62L410.79,253.66L412.52,261.74L415.97,274L417.7,269.95L419.42,274L421.15,274L630,274" style="vector-effect: non-scaling-stroke; fill: none; stroke: rgb(31, 119, 180); stroke-opacity: 1; stroke-width: 0px; opacity: 1;"/></g><g class="points"/><g class="text"/></g><g class="trace scatter trace6719b3b3-5808-49b0-8bfd-3cd131c84f2d" style="stroke-miterlimit: 2;"><g class="fills"><g><path class="js-fill" d="M0,117.82L12.08,117.82L13.81,68.29L15.53,87.32L17.26,73.85L18.99,66.88L20.71,18.24L22.44,92.69L24.16,61.11L25.89,79.37L27.62,78.79L31.07,25.8L32.79,126.56L34.52,108.65L36.25,108.94L37.97,110.6L39.7,154.97L41.42,152.43L43.15,155.41L44.88,151.06L46.6,131.57L48.33,124.78L50.05,132.59L51.78,128.8L53.51,136.84L55.23,141.07L56.96,151.98L58.68,142.3L60.41,151.09L62.14,157.81L63.86,173.48L65.59,164.91L67.32,175.37L70.77,106.66L72.49,117.18L74.22,128.94L75.95,148.78L77.67,155.36L79.4,220.81L81.12,246.69L82.85,256.79L84.58,260.85L86.3,270.13L88.03,272.99L89.75,274L110.47,274L112.19,267.55L113.92,274L115.64,274L219.21,274L220.93,254.8L222.66,274L224.38,274L227.84,274L229.56,264.61L231.29,257.88L233.01,254.97L234.74,255.4L236.47,255.05L238.19,251.87L239.92,254.16L241.64,251.45L243.37,253.96L245.1,255.83L246.82,254.98L248.55,258.33L250.27,259.98L253.73,249.84L255.45,249.36L257.18,244.77L258.9,243.98L260.63,240.52L262.36,242.67L264.08,240.87L265.81,241.52L270.99,240.11L272.71,237.26L276.16,236.61L277.89,236.59L279.62,191.43L281.34,202L283.07,193.64L284.79,195.32L286.52,188.56L288.25,189.55L289.97,189.48L291.7,190.23L293.42,189.78L295.15,191.16L296.88,183.88L298.6,187.08L302.05,185.24L303.78,187.08L305.51,181.84L307.23,184.03L308.96,182.31L310.68,182.72L312.41,182.09L314.14,183.74L315.86,182.2L317.59,185.88L319.32,184.52L321.04,182L322.77,185.82L324.49,182.36L326.22,181.11L327.95,178.54L329.67,173.86L331.4,177.93L334.85,174.97L336.58,176.27L338.3,171.44L340.03,174.35L341.75,176.73L343.48,180.74L345.21,178.58L346.93,174.45L348.66,179.64L350.38,179.88L352.11,182.02L353.84,182.75L355.56,184.61L357.29,184.23L359.01,183.39L360.74,180.95L362.47,189.64L364.19,187L371.1,217.3L372.82,220.26L374.55,220.64L376.27,222.51L379.73,218.88L381.45,227.59L383.18,228.68L384.9,234.11L386.63,230.2L388.36,229.53L390.08,240.79L391.81,243.45L393.53,238.44L395.26,239.61L398.71,246.25L400.44,243.75L403.89,244.9L405.62,240.62L410.79,253.66L412.52,261.74L415.97,274L417.7,269.95L419.42,274L421.15,274L422.88,274L424.6,260.93L426.33,274L428.05,274L429.78,274L431.51,257.65L433.23,270.42L434.96,240.53L436.68,231.2L438.41,240.42L440.14,237.1L441.86,224.48L443.59,201.09L445.32,202.74L447.04,229.83L448.77,225.23L450.49,236.77L452.22,233.27L453.95,235.56L455.67,233.15L457.4,244.18L459.12,240.67L460.85,239.42L462.58,240.08L464.3,239.3L466.03,232.13L467.75,232.49L469.48,228.23L472.93,219.99L474.66,226.56L479.84,219.94L481.56,227.31L483.29,225.37L485.01,224.66L488.47,237.25L490.19,242.23L491.92,244.48L493.64,237.4L495.37,232.72L497.1,230.43L498.82,227.91L500.55,228.02L502.27,229.8L504,228.75L505.73,220.08L507.45,186.97L509.18,174.68L510.9,170.96L514.36,175.8L516.08,198.6L519.53,188.89L521.26,196.44L522.99,195.01L524.71,198.64L526.44,169.84L528.16,171.21L529.89,173.35L531.62,172.1L533.34,171.44L535.07,155.27L536.79,159.32L538.52,171.8L540.25,168.1L541.97,160.49L543.7,163.61L545.42,161.74L547.15,154.4L548.88,155.51L550.6,159.3L552.33,165.22L555.78,145.03L557.51,145.38L559.23,139.67L560.96,137L562.68,151.84L564.41,152.68L566.14,161.65L567.86,162.54L569.59,163.46L571.32,188.21L574.77,191.29L576.49,183.76L578.22,180.06L579.95,179.96L581.67,132.83L583.4,133.37L585.12,134.69L586.85,134.75L588.58,137.68L590.3,133.37L592.03,144.06L593.75,145.6L595.48,149.77L597.21,149.89L598.93,137.67L600.66,139.4L602.38,138.9L604.11,135.51L607.56,124.42L609.29,124.95L611.01,117.66L612.74,107.06L614.47,112.99L616.19,99L617.92,104.79L619.64,102.04L623.1,97.36L624.82,97.5L626.55,96.61L628.27,94.55L630,89.79L630,274L555.78,274L554.05,274L552.33,273.17L550.6,274L548.88,274L547.15,274L545.42,264.89L543.7,261.88L540.25,265.82L538.52,264.37L535.07,272.64L533.34,266.66L531.62,269.41L529.89,261.12L526.44,254.78L524.71,240.49L521.26,229.77L519.53,230.55L517.81,228.94L516.08,227.16L514.36,240.35L512.63,243.15L510.9,242.67L509.18,240.23L507.45,232.26L505.73,233.81L504,231.94L502.27,233.25L500.55,228.61L498.82,227.91L497.1,230.43L495.37,232.72L493.64,237.4L491.92,245.76L490.19,242.23L488.47,237.25L485.01,224.66L483.29,225.37L481.56,227.31L479.84,219.94L474.66,226.56L472.93,219.99L469.48,228.23L467.75,232.49L466.03,232.13L464.3,239.3L462.58,240.08L460.85,239.42L459.12,240.67L457.4,244.18L455.67,233.15L453.95,235.56L452.22,233.27L450.49,236.77L448.77,225.23L447.04,229.83L445.32,202.74L443.59,201.09L441.86,224.48L440.14,237.1L438.41,240.42L436.68,231.2L434.96,240.53L433.23,270.42L431.51,257.65L429.78,274L428.05,274L426.33,274L424.6,260.93L422.88,274L421.15,274L419.42,274L417.7,269.95L415.97,274L412.52,261.74L410.79,253.66L405.62,240.62L403.89,244.9L400.44,243.75L398.71,246.25L395.26,239.61L393.53,238.44L391.81,243.45L390.08,240.79L388.36,229.53L386.63,230.2L384.9,234.11L383.18,228.68L381.45,227.59L379.73,218.88L376.27,222.51L374.55,220.64L372.82,220.26L371.1,217.3L369.37,208.81L367.64,200.6L364.19,188.3L362.47,189.64L360.74,194.61L359.01,183.39L357.29,184.23L355.56,184.61L353.84,182.75L352.11,182.02L350.38,179.88L348.66,179.64L346.93,174.45L345.21,178.58L343.48,180.74L341.75,176.73L340.03,174.35L338.3,171.44L336.58,176.27L334.85,174.97L331.4,177.93L329.67,173.86L327.95,178.54L326.22,181.11L324.49,182.36L322.77,185.82L321.04,182L319.32,184.52L317.59,185.88L315.86,182.2L314.14,183.74L312.41,182.09L310.68,182.72L308.96,182.31L307.23,184.03L305.51,181.84L303.78,187.08L302.05,185.24L298.6,187.08L296.88,183.88L295.15,191.16L293.42,189.78L291.7,190.23L289.97,189.48L288.25,189.55L286.52,188.56L284.79,195.32L283.07,193.64L281.34,202L279.62,191.43L277.89,236.59L276.16,236.61L272.71,237.26L270.99,240.11L265.81,241.52L264.08,240.87L262.36,242.67L260.63,240.52L258.9,243.98L257.18,244.77L255.45,249.36L253.73,249.84L252,254.78L250.27,259.98L248.55,258.33L246.82,254.98L245.1,271.93L243.37,253.96L241.64,263.74L239.92,274L115.64,274L113.92,274L112.19,267.55L110.47,274L89.75,274L88.03,272.99L86.3,270.13L84.58,260.85L82.85,256.79L81.12,246.69L79.4,220.81L77.67,155.36L75.95,148.78L74.22,128.94L72.49,117.18L70.77,106.66L67.32,175.37L65.59,164.91L63.86,173.48L62.14,157.81L60.41,151.09L58.68,142.3L56.96,151.98L55.23,141.07L53.51,155.55L51.78,138.29L48.33,160.55L46.6,168.99L44.88,164.69L43.15,155.97L41.42,152.43L39.7,163.07L37.97,129.03L36.25,118.83L32.79,186.85L31.07,112.41L29.34,114.97L27.62,177.17L25.89,119.22L24.16,203.28L22.44,219.76L20.71,94.68L17.26,215.83L15.53,177.5L13.81,274L12.08,169.88L0,169.88Z" style="fill: rgb(44, 160, 44); fill-opacity: 0.8; stroke-width: 0;"/></g></g><g class="errorbars"/><g class="lines"><path class="js-line" d="M0,169.88L12.08,169.88L13.81,274L15.53,177.5L17.26,215.83L20.71,94.68L22.44,219.76L24.16,203.28L25.89,119.22L27.62,177.17L29.34,114.97L31.07,112.41L32.79,186.85L36.25,118.83L37.97,129.03L39.7,163.07L41.42,152.43L43.15,155.97L44.88,164.69L46.6,168.99L48.33,160.55L51.78,138.29L53.51,155.55L55.23,141.07L56.96,151.98L58.68,142.3L60.41,151.09L62.14,157.81L63.86,173.48L65.59,164.91L67.32,175.37L70.77,106.66L72.49,117.18L74.22,128.94L75.95,148.78L77.67,155.36L79.4,220.81L81.12,246.69L82.85,256.79L84.58,260.85L86.3,270.13L88.03,272.99L89.75,274L110.47,274L112.19,267.55L113.92,274L115.64,274L239.92,274L241.64,263.74L243.37,253.96L245.1,271.93L246.82,254.98L248.55,258.33L250.27,259.98L252,254.78L253.73,249.84L255.45,249.36L257.18,244.77L258.9,243.98L260.63,240.52L262.36,242.67L264.08,240.87L265.81,241.52L270.99,240.11L272.71,237.26L276.16,236.61L277.89,236.59L279.62,191.43L281.34,202L283.07,193.64L284.79,195.32L286.52,188.56L288.25,189.55L289.97,189.48L291.7,190.23L293.42,189.78L295.15,191.16L296.88,183.88L298.6,187.08L302.05,185.24L303.78,187.08L305.51,181.84L307.23,184.03L308.96,182.31L310.68,182.72L312.41,182.09L314.14,183.74L315.86,182.2L317.59,185.88L319.32,184.52L321.04,182L322.77,185.82L324.49,182.36L326.22,181.11L327.95,178.54L329.67,173.86L331.4,177.93L334.85,174.97L336.58,176.27L338.3,171.44L340.03,174.35L341.75,176.73L343.48,180.74L345.21,178.58L346.93,174.45L348.66,179.64L350.38,179.88L352.11,182.02L353.84,182.75L355.56,184.61L357.29,184.23L359.01,183.39L360.74,194.61L362.47,189.64L364.19,188.3L367.64,200.6L369.37,208.81L371.1,217.3L372.82,220.26L374.55,220.64L376.27,222.51L379.73,218.88L381.45,227.59L383.18,228.68L384.9,234.11L386.63,230.2L388.36,229.53L390.08,240.79L391.81,243.45L393.53,238.44L395.26,239.61L398.71,246.25L400.44,243.75L403.89,244.9L405.62,240.62L410.79,253.66L412.52,261.74L415.97,274L417.7,269.95L419.42,274L421.15,274L422.88,274L424.6,260.93L426.33,274L428.05,274L429.78,274L431.51,257.65L433.23,270.42L434.96,240.53L436.68,231.2L438.41,240.42L440.14,237.1L441.86,224.48L443.59,201.09L445.32,202.74L447.04,229.83L448.77,225.23L450.49,236.77L452.22,233.27L453.95,235.56L455.67,233.15L457.4,244.18L459.12,240.67L460.85,239.42L462.58,240.08L464.3,239.3L466.03,232.13L467.75,232.49L469.48,228.23L472.93,219.99L474.66,226.56L479.84,219.94L481.56,227.31L483.29,225.37L485.01,224.66L488.47,237.25L490.19,242.23L491.92,245.76L493.64,237.4L495.37,232.72L497.1,230.43L498.82,227.91L500.55,228.61L502.27,233.25L504,231.94L505.73,233.81L507.45,232.26L509.18,240.23L510.9,242.67L512.63,243.15L514.36,240.35L516.08,227.16L517.81,228.94L519.53,230.55L521.26,229.77L524.71,240.49L526.44,254.78L529.89,261.12L531.62,269.41L533.34,266.66L535.07,272.64L538.52,264.37L540.25,265.82L543.7,261.88L545.42,264.89L547.15,274L548.88,274L550.6,274L552.33,273.17L554.05,274L555.78,274L630,274" style="vector-effect: non-scaling-stroke; fill: none; stroke: rgb(255, 127, 14); stroke-opacity: 1; stroke-width: 0px; opacity: 1;"/></g><g class="points"/><g class="text"/></g><g class="trace scatter tracef9853074-493d-4ba3-9014-5d592fdb354e" style="stroke-miterlimit: 2;"><g class="fills"><g><path class="js-fill" d="M0,65.76L12.08,65.76L13.81,68.29L15.53,87.32L17.26,73.85L18.99,66.88L20.71,18.24L22.44,92.69L24.16,61.11L25.89,79.37L27.62,78.79L31.07,25.8L32.79,110.25L34.52,108.65L36.25,108.94L37.97,110.6L39.7,148.62L43.15,155.41L44.88,137.82L48.33,124.78L50.05,132.59L51.78,128.8L53.51,136.84L55.23,141.07L56.96,133.43L58.68,132.82L60.41,131.32L63.86,95.26L65.59,72.89L67.32,71.54L69.04,73.95L70.77,82.31L72.49,69.33L74.22,57.09L75.95,53.5L77.67,41.2L79.4,105.36L81.12,108.82L82.85,101.68L84.58,95.41L86.3,140.87L88.03,141.25L89.75,137.78L91.48,139.36L93.21,134.82L94.93,141.34L96.66,159.84L98.38,180.25L100.11,178.69L101.84,178.56L103.56,183.78L105.29,183.16L107.01,179.13L108.74,182.95L110.47,182.28L113.92,176.57L115.64,179.75L117.37,208.86L119.1,207.52L120.82,208.08L122.55,210.23L124.27,266.37L126,252.45L127.73,256.21L129.45,255.69L131.18,261.63L132.9,259.06L134.63,257.83L136.36,252.09L139.81,252.91L141.53,256.12L143.26,252.19L144.99,251.55L146.71,252.04L148.44,251.49L150.16,253.22L151.89,253.25L153.62,255.15L155.34,252.93L157.07,252.74L158.79,251.05L162.25,251.46L163.97,251.14L165.7,253.56L167.42,248.32L169.15,248.98L170.88,247.28L174.33,250.52L176.05,251.21L177.78,250.59L179.51,255.55L181.23,255.2L182.96,256.16L184.68,253.06L186.41,254.24L188.14,250.1L189.86,251.25L191.59,253.52L193.32,253.14L195.04,250.26L196.77,249.85L198.49,249.23L200.22,249.46L201.95,249.38L203.67,250.32L208.85,249.83L210.58,249.61L215.75,251.07L217.48,253.48L219.21,256.17L220.93,251.11L222.66,255.59L224.38,256.73L227.84,264.95L229.56,264.61L231.29,257.88L233.01,254.97L234.74,255.4L236.47,255.05L238.19,251.87L239.92,254.16L241.64,251.45L243.37,253.96L245.1,255.83L246.82,254.98L248.55,258.33L250.27,259.98L253.73,249.84L255.45,249.36L257.18,244.77L258.9,243.98L260.63,240.52L262.36,242.67L264.08,240.87L265.81,241.52L270.99,240.11L272.71,237.26L276.16,236.61L277.89,236.59L279.62,191.43L281.34,202L283.07,193.64L284.79,195.32L286.52,188.56L288.25,189.55L289.97,189.48L291.7,190.23L293.42,189.78L295.15,191.16L296.88,183.88L298.6,187.08L302.05,185.24L303.78,187.08L305.51,181.84L307.23,184.03L308.96,182.31L310.68,182.72L312.41,182.09L314.14,183.74L315.86,182.2L317.59,185.88L319.32,184.52L321.04,182L322.77,185.82L324.49,182.36L326.22,181.11L327.95,178.54L329.67,173.86L331.4,177.93L334.85,174.97L336.58,176.27L338.3,171.44L340.03,174.35L341.75,176.73L343.48,180.74L345.21,178.58L346.93,174.45L348.66,179.64L350.38,179.88L352.11,182.02L353.84,182.75L355.56,184.61L357.29,184.23L359.01,183.39L360.74,180.95L362.47,189.64L364.19,187L365.92,185.45L367.64,180.47L369.37,166.46L371.1,171.27L374.55,162.7L376.27,163.93L378,165.37L379.73,170.58L381.45,139.44L383.18,140.94L384.9,140.32L386.63,153.34L388.36,153.17L390.08,139.36L391.81,138.6L393.53,143.81L395.26,146.06L396.99,146.35L398.71,145.97L400.44,140.02L402.16,141.04L403.89,156.8L405.62,149.49L407.34,152.56L409.07,146.57L410.79,161.9L415.97,166.2L417.7,156.36L419.42,155.94L421.15,146.69L422.88,144.74L424.6,156.63L426.33,190.43L428.05,190.26L429.78,210.84L431.51,204.35L433.23,206.18L434.96,204.98L436.68,193.43L438.41,194.14L440.14,192.73L441.86,187.09L443.59,185.27L445.32,184.99L447.04,194.88L448.77,193.24L450.49,190.63L452.22,190.65L453.95,190.6L455.67,196.41L457.4,207.64L459.12,203.72L460.85,209.14L462.58,204.11L464.3,204.63L466.03,203.12L467.75,206.05L469.48,205.71L471.21,207.18L472.93,202.33L474.66,200.68L476.38,202.97L478.11,202.25L479.84,209.69L481.56,216.84L483.29,208.66L488.47,202.98L490.19,203.37L493.64,200.32L495.37,200.14L497.1,198.84L498.82,198.6L500.55,201.46L502.27,200.7L505.73,195.08L507.45,185.81L509.18,174.68L510.9,170.96L514.36,175.8L516.08,198.6L519.53,188.89L521.26,196.44L522.99,195.01L524.71,198.64L526.44,169.84L528.16,171.21L529.89,173.35L531.62,172.1L533.34,171.44L535.07,155.27L536.79,159.32L538.52,171.8L540.25,168.1L541.97,160.49L543.7,163.61L545.42,161.74L547.15,154.4L548.88,155.51L550.6,159.3L552.33,165.22L555.78,145.03L557.51,145.38L559.23,139.67L560.96,137L562.68,151.84L564.41,152.68L566.14,161.65L567.86,162.54L569.59,163.46L571.32,188.21L574.77,191.29L576.49,183.76L578.22,180.06L579.95,179.96L581.67,132.83L583.4,133.37L585.12,134.69L586.85,134.75L588.58,137.68L590.3,133.37L592.03,144.06L593.75,145.6L595.48,149.77L597.21,149.89L598.93,137.67L600.66,139.4L602.38,138.9L604.11,135.51L607.56,124.42L609.29,124.95L611.01,117.66L612.74,107.06L614.47,112.99L616.19,99L617.92,104.79L619.64,102.04L623.1,97.36L624.82,97.5L626.55,96.61L628.27,94.55L630,89.79L630,89.79L628.27,94.55L626.55,96.61L624.82,97.5L623.1,97.36L619.64,102.04L617.92,104.79L616.19,99L614.47,112.99L612.74,107.06L611.01,117.66L609.29,124.95L607.56,124.42L604.11,135.51L602.38,138.9L600.66,139.4L598.93,137.67L597.21,149.89L595.48,149.77L593.75,145.6L592.03,144.06L590.3,133.37L588.58,137.68L586.85,134.75L585.12,134.69L583.4,133.37L581.67,132.83L579.95,179.96L578.22,180.06L576.49,183.76L574.77,191.29L571.32,188.21L569.59,163.46L567.86,162.54L566.14,161.65L564.41,152.68L562.68,151.84L560.96,137L559.23,139.67L557.51,145.38L555.78,145.03L552.33,165.22L550.6,159.3L548.88,155.51L547.15,154.4L545.42,161.74L543.7,163.61L541.97,160.49L540.25,168.1L538.52,171.8L536.79,159.32L535.07,155.27L533.34,171.44L531.62,172.1L529.89,173.35L528.16,171.21L526.44,169.84L524.71,198.64L522.99,195.01L521.26,196.44L519.53,188.89L516.08,198.6L514.36,175.8L510.9,170.96L509.18,174.68L507.45,186.97L505.73,220.08L504,228.75L502.27,229.8L500.55,228.02L498.82,227.91L497.1,230.43L495.37,232.72L493.64,237.4L491.92,244.48L490.19,242.23L488.47,237.25L485.01,224.66L483.29,225.37L481.56,227.31L479.84,219.94L474.66,226.56L472.93,219.99L469.48,228.23L467.75,232.49L466.03,232.13L464.3,239.3L462.58,240.08L460.85,239.42L459.12,240.67L457.4,244.18L455.67,233.15L453.95,235.56L452.22,233.27L450.49,236.77L448.77,225.23L447.04,229.83L445.32,202.74L443.59,201.09L441.86,224.48L440.14,237.1L438.41,240.42L436.68,231.2L434.96,240.53L433.23,270.42L431.51,257.65L429.78,274L428.05,274L426.33,274L424.6,260.93L422.88,274L421.15,274L419.42,274L417.7,269.95L415.97,274L412.52,261.74L410.79,253.66L405.62,240.62L403.89,244.9L400.44,243.75L398.71,246.25L395.26,239.61L393.53,238.44L391.81,243.45L390.08,240.79L388.36,229.53L386.63,230.2L384.9,234.11L383.18,228.68L381.45,227.59L379.73,218.88L376.27,222.51L374.55,220.64L372.82,220.26L371.1,217.3L364.19,187L362.47,189.64L360.74,180.95L359.01,183.39L357.29,184.23L355.56,184.61L353.84,182.75L352.11,182.02L350.38,179.88L348.66,179.64L346.93,174.45L345.21,178.58L343.48,180.74L341.75,176.73L340.03,174.35L338.3,171.44L336.58,176.27L334.85,174.97L331.4,177.93L329.67,173.86L327.95,178.54L326.22,181.11L324.49,182.36L322.77,185.82L321.04,182L319.32,184.52L317.59,185.88L315.86,182.2L314.14,183.74L312.41,182.09L310.68,182.72L308.96,182.31L307.23,184.03L305.51,181.84L303.78,187.08L302.05,185.24L298.6,187.08L296.88,183.88L295.15,191.16L293.42,189.78L291.7,190.23L289.97,189.48L288.25,189.55L286.52,188.56L284.79,195.32L283.07,193.64L281.34,202L279.62,191.43L277.89,236.59L276.16,236.61L272.71,237.26L270.99,240.11L265.81,241.52L264.08,240.87L262.36,242.67L260.63,240.52L258.9,243.98L257.18,244.77L255.45,249.36L253.73,249.84L250.27,259.98L248.55,258.33L246.82,254.98L245.1,255.83L243.37,253.96L241.64,251.45L239.92,254.16L238.19,251.87L236.47,255.05L234.74,255.4L233.01,254.97L231.29,257.88L229.56,264.61L227.84,274L224.38,274L222.66,274L220.93,254.8L219.21,274L115.64,274L113.92,274L112.19,267.55L110.47,274L89.75,274L88.03,272.99L86.3,270.13L84.58,260.85L82.85,256.79L81.12,246.69L79.4,220.81L77.67,155.36L75.95,148.78L74.22,128.94L72.49,117.18L70.77,106.66L67.32,175.37L65.59,164.91L63.86,173.48L62.14,157.81L60.41,151.09L58.68,142.3L56.96,151.98L55.23,141.07L53.51,136.84L51.78,128.8L50.05,132.59L48.33,124.78L46.6,131.57L44.88,151.06L43.15,155.41L41.42,152.43L39.7,154.97L37.97,110.6L36.25,108.94L34.52,108.65L32.79,126.56L31.07,25.8L27.62,78.79L25.89,79.37L24.16,61.11L22.44,92.69L20.71,18.24L18.99,66.88L17.26,73.85L15.53,87.32L13.81,68.29L12.08,117.82L0,117.82Z" style="fill: rgb(214, 39, 40); fill-opacity: 0.8; stroke-width: 0;"/></g></g><g class="errorbars"/><g class="lines"><path class="js-line" d="M0,117.82L12.08,117.82L13.81,68.29L15.53,87.32L17.26,73.85L18.99,66.88L20.71,18.24L22.44,92.69L24.16,61.11L25.89,79.37L27.62,78.79L31.07,25.8L32.79,126.56L34.52,108.65L36.25,108.94L37.97,110.6L39.7,154.97L41.42,152.43L43.15,155.41L44.88,151.06L46.6,131.57L48.33,124.78L50.05,132.59L51.78,128.8L53.51,136.84L55.23,141.07L56.96,151.98L58.68,142.3L60.41,151.09L62.14,157.81L63.86,173.48L65.59,164.91L67.32,175.37L70.77,106.66L72.49,117.18L74.22,128.94L75.95,148.78L77.67,155.36L79.4,220.81L81.12,246.69L82.85,256.79L84.58,260.85L86.3,270.13L88.03,272.99L89.75,274L110.47,274L112.19,267.55L113.92,274L115.64,274L219.21,274L220.93,254.8L222.66,274L224.38,274L227.84,274L229.56,264.61L231.29,257.88L233.01,254.97L234.74,255.4L236.47,255.05L238.19,251.87L239.92,254.16L241.64,251.45L243.37,253.96L245.1,255.83L246.82,254.98L248.55,258.33L250.27,259.98L253.73,249.84L255.45,249.36L257.18,244.77L258.9,243.98L260.63,240.52L262.36,242.67L264.08,240.87L265.81,241.52L270.99,240.11L272.71,237.26L276.16,236.61L277.89,236.59L279.62,191.43L281.34,202L283.07,193.64L284.79,195.32L286.52,188.56L288.25,189.55L289.97,189.48L291.7,190.23L293.42,189.78L295.15,191.16L296.88,183.88L298.6,187.08L302.05,185.24L303.78,187.08L305.51,181.84L307.23,184.03L308.96,182.31L310.68,182.72L312.41,182.09L314.14,183.74L315.86,182.2L317.59,185.88L319.32,184.52L321.04,182L322.77,185.82L324.49,182.36L326.22,181.11L327.95,178.54L329.67,173.86L331.4,177.93L334.85,174.97L336.58,176.27L338.3,171.44L340.03,174.35L341.75,176.73L343.48,180.74L345.21,178.58L346.93,174.45L348.66,179.64L350.38,179.88L352.11,182.02L353.84,182.75L355.56,184.61L357.29,184.23L359.01,183.39L360.74,180.95L362.47,189.64L364.19,187L371.1,217.3L372.82,220.26L374.55,220.64L376.27,222.51L379.73,218.88L381.45,227.59L383.18,228.68L384.9,234.11L386.63,230.2L388.36,229.53L390.08,240.79L391.81,243.45L393.53,238.44L395.26,239.61L398.71,246.25L400.44,243.75L403.89,244.9L405.62,240.62L410.79,253.66L412.52,261.74L415.97,274L417.7,269.95L419.42,274L421.15,274L422.88,274L424.6,260.93L426.33,274L428.05,274L429.78,274L431.51,257.65L433.23,270.42L434.96,240.53L436.68,231.2L438.41,240.42L440.14,237.1L441.86,224.48L443.59,201.09L445.32,202.74L447.04,229.83L448.77,225.23L450.49,236.77L452.22,233.27L453.95,235.56L455.67,233.15L457.4,244.18L459.12,240.67L460.85,239.42L462.58,240.08L464.3,239.3L466.03,232.13L467.75,232.49L469.48,228.23L472.93,219.99L474.66,226.56L479.84,219.94L481.56,227.31L483.29,225.37L485.01,224.66L488.47,237.25L490.19,242.23L491.92,244.48L493.64,237.4L495.37,232.72L497.1,230.43L498.82,227.91L500.55,228.02L502.27,229.8L504,228.75L505.73,220.08L507.45,186.97L509.18,174.68L510.9,170.96L514.36,175.8L516.08,198.6L519.53,188.89L521.26,196.44L522.99,195.01L524.71,198.64L526.44,169.84L528.16,171.21L529.89,173.35L531.62,172.1L533.34,171.44L535.07,155.27L536.79,159.32L538.52,171.8L540.25,168.1L541.97,160.49L543.7,163.61L545.42,161.74L547.15,154.4L548.88,155.51L550.6,159.3L552.33,165.22L555.78,145.03L557.51,145.38L559.23,139.67L560.96,137L562.68,151.84L564.41,152.68L566.14,161.65L567.86,162.54L569.59,163.46L571.32,188.21L574.77,191.29L576.49,183.76L578.22,180.06L579.95,179.96L581.67,132.83L583.4,133.37L585.12,134.69L586.85,134.75L588.58,137.68L590.3,133.37L592.03,144.06L593.75,145.6L595.48,149.77L597.21,149.89L598.93,137.67L600.66,139.4L602.38,138.9L604.11,135.51L607.56,124.42L609.29,124.95L611.01,117.66L612.74,107.06L614.47,112.99L616.19,99L617.92,104.79L619.64,102.04L623.1,97.36L624.82,97.5L626.55,96.61L628.27,94.55L630,89.79" style="vector-effect: non-scaling-stroke; fill: none; stroke: rgb(44, 160, 44); stroke-opacity: 1; stroke-width: 0px; opacity: 1;"/></g><g class="points"/><g class="text"/></g><g class="trace scatter tracef196f434-9c6a-476a-8d2a-d36bf71e78c1" style="stroke-miterlimit: 2;"><g class="fills"><g><path class="js-fill" d="M0,13.7L12.08,13.7L13.81,68.29L15.53,87.32L17.26,73.85L18.99,66.88L20.71,18.24L22.44,92.69L24.16,61.11L25.89,79.37L27.62,78.79L31.07,25.8L32.79,110.25L34.52,108.65L36.25,108.94L37.97,110.6L39.7,148.62L43.15,155.41L44.88,137.82L48.33,124.78L50.05,132.59L51.78,128.8L53.51,136.84L55.23,141.07L56.96,133.43L58.68,132.82L60.41,131.32L63.86,95.26L65.59,72.89L67.32,71.54L69.04,73.95L70.77,82.31L72.49,69.33L74.22,57.09L75.95,53.5L77.67,41.2L79.4,105.36L81.12,108.82L82.85,101.68L84.58,95.41L86.3,140.87L88.03,141.25L89.75,137.78L91.48,139.36L93.21,134.82L94.93,141.34L96.66,159.84L98.38,180.25L100.11,178.69L101.84,178.56L103.56,183.78L105.29,183.16L107.01,179.13L108.74,182.95L110.47,182.28L113.92,176.57L115.64,179.75L117.37,208.86L119.1,207.52L120.82,208.08L122.55,210.23L124.27,266.37L126,252.45L127.73,256.21L129.45,255.69L131.18,261.63L132.9,259.06L134.63,257.83L136.36,252.09L139.81,252.91L141.53,256.12L143.26,252.19L144.99,251.55L146.71,252.04L148.44,251.49L150.16,253.22L151.89,253.25L153.62,255.15L155.34,252.93L157.07,252.74L158.79,251.05L162.25,251.46L163.97,251.14L165.7,253.56L167.42,248.32L169.15,248.98L170.88,247.28L174.33,250.52L176.05,251.21L177.78,250.59L179.51,255.55L181.23,255.2L182.96,256.16L184.68,253.06L186.41,254.24L188.14,250.1L189.86,251.25L191.59,253.52L193.32,253.14L195.04,250.26L196.77,249.85L198.49,249.23L200.22,249.46L201.95,249.38L203.67,250.32L208.85,249.83L210.58,249.61L215.75,251.07L217.48,253.48L219.21,256.17L220.93,251.11L222.66,255.59L224.38,256.73L227.84,264.95L229.56,264.61L231.29,257.88L233.01,254.97L234.74,255.4L236.47,255.05L238.19,251.87L239.92,254.16L241.64,251.45L243.37,253.96L245.1,255.83L246.82,254.98L248.55,258.33L250.27,259.98L253.73,249.84L255.45,249.36L257.18,244.77L258.9,243.98L260.63,240.52L262.36,242.67L264.08,240.87L265.81,241.52L270.99,240.11L272.71,237.26L276.16,236.61L277.89,236.59L279.62,191.43L281.34,202L283.07,193.64L284.79,195.32L286.52,188.56L288.25,189.55L289.97,189.48L291.7,190.23L293.42,189.78L295.15,191.16L296.88,183.88L298.6,187.08L302.05,185.24L303.78,187.08L305.51,181.84L307.23,184.03L308.96,182.31L310.68,182.72L312.41,182.09L314.14,183.74L315.86,182.2L317.59,185.88L319.32,184.52L321.04,182L322.77,185.82L324.49,182.36L326.22,181.11L327.95,178.54L329.67,173.86L331.4,177.93L334.85,174.97L336.58,176.27L338.3,171.44L340.03,174.35L341.75,176.73L343.48,180.74L345.21,178.58L346.93,174.45L348.66,179.64L350.38,179.88L352.11,182.02L353.84,182.75L355.56,184.61L357.29,184.23L359.01,183.39L360.74,180.95L362.47,189.64L364.19,187L365.92,185.45L367.64,180.47L369.37,166.46L371.1,171.27L374.55,162.7L376.27,163.93L378,165.37L379.73,170.58L381.45,139.44L383.18,140.94L384.9,140.32L386.63,153.34L388.36,153.17L390.08,139.36L391.81,138.6L393.53,143.81L395.26,146.06L396.99,146.35L398.71,145.97L400.44,140.02L402.16,141.04L403.89,156.8L405.62,149.49L407.34,152.56L409.07,146.57L410.79,161.9L415.97,166.2L417.7,156.36L419.42,155.94L421.15,146.69L422.88,144.74L424.6,156.63L426.33,190.43L428.05,190.26L429.78,210.84L431.51,204.35L433.23,206.18L434.96,204.98L436.68,193.43L438.41,194.14L440.14,192.73L441.86,187.09L443.59,185.27L445.32,184.99L447.04,194.88L448.77,193.24L450.49,190.63L452.22,190.65L453.95,190.6L455.67,196.41L457.4,207.64L459.12,203.72L460.85,209.14L462.58,204.11L464.3,198.89L466.03,199.42L469.48,198.05L471.21,197.63L472.93,197.29L474.66,200.68L476.38,202.97L478.11,202.25L479.84,201.79L481.56,198.23L483.29,208.66L485.01,206.79L486.74,205.48L488.47,202.98L490.19,203.37L491.92,201.71L493.64,200.32L495.37,200.14L497.1,198.84L498.82,198.6L500.55,201.46L502.27,200.7L505.73,195.08L507.45,185.81L509.18,174.68L510.9,170.96L514.36,175.8L516.08,198.6L519.53,188.89L521.26,196.44L522.99,195.01L524.71,198.64L526.44,169.84L528.16,171.21L529.89,173.35L531.62,172.1L533.34,171.44L535.07,155.27L536.79,159.32L538.52,171.8L540.25,168.1L541.97,160.49L543.7,163.61L545.42,161.74L547.15,154.4L548.88,155.51L550.6,159.3L552.33,165.22L555.78,145.03L557.51,145.38L559.23,139.67L560.96,137L562.68,137.76L564.41,141.17L566.14,133.84L567.86,131.91L569.59,135.67L571.32,164.8L574.77,163.87L576.49,160.09L578.22,157.66L579.95,158.42L581.67,112.15L583.4,113.24L585.12,117.86L586.85,117.2L588.58,118.07L590.3,114.63L592.03,126.94L593.75,127.48L597.21,133.04L598.93,125.05L600.66,126.27L602.38,126.49L604.11,125.93L605.84,120.62L607.56,116.19L609.29,116.37L611.01,110.57L612.74,100.19L614.47,108.14L616.19,97.48L617.92,104.79L619.64,102.04L623.1,97.36L624.82,97.5L626.55,96.61L628.27,94.55L630,89.79L630,89.79L628.27,94.55L626.55,96.61L624.82,97.5L623.1,97.36L619.64,102.04L617.92,104.79L616.19,99L614.47,112.99L612.74,107.06L611.01,117.66L609.29,124.95L607.56,124.42L604.11,135.51L602.38,138.9L600.66,139.4L598.93,137.67L597.21,149.89L595.48,149.77L593.75,145.6L592.03,144.06L590.3,133.37L588.58,137.68L586.85,134.75L585.12,134.69L583.4,133.37L581.67,132.83L579.95,179.96L578.22,180.06L576.49,183.76L574.77,191.29L571.32,188.21L569.59,163.46L567.86,162.54L566.14,161.65L564.41,152.68L562.68,151.84L560.96,137L559.23,139.67L557.51,145.38L555.78,145.03L552.33,165.22L550.6,159.3L548.88,155.51L547.15,154.4L545.42,161.74L543.7,163.61L541.97,160.49L540.25,168.1L538.52,171.8L536.79,159.32L535.07,155.27L533.34,171.44L531.62,172.1L529.89,173.35L528.16,171.21L526.44,169.84L524.71,198.64L522.99,195.01L521.26,196.44L519.53,188.89L516.08,198.6L514.36,175.8L510.9,170.96L509.18,174.68L507.45,185.81L505.73,195.08L502.27,200.7L500.55,201.46L498.82,198.6L497.1,198.84L495.37,200.14L493.64,200.32L490.19,203.37L488.47,202.98L483.29,208.66L481.56,216.84L479.84,209.69L478.11,202.25L476.38,202.97L474.66,200.68L472.93,202.33L471.21,207.18L469.48,205.71L467.75,206.05L466.03,203.12L464.3,204.63L462.58,204.11L460.85,209.14L459.12,203.72L457.4,207.64L455.67,196.41L453.95,190.6L452.22,190.65L450.49,190.63L448.77,193.24L447.04,194.88L445.32,184.99L443.59,185.27L441.86,187.09L440.14,192.73L438.41,194.14L436.68,193.43L434.96,204.98L433.23,206.18L431.51,204.35L429.78,210.84L428.05,190.26L426.33,190.43L424.6,156.63L422.88,144.74L421.15,146.69L419.42,155.94L417.7,156.36L415.97,166.2L410.79,161.9L409.07,146.57L407.34,152.56L405.62,149.49L403.89,156.8L402.16,141.04L400.44,140.02L398.71,145.97L396.99,146.35L395.26,146.06L393.53,143.81L391.81,138.6L390.08,139.36L388.36,153.17L386.63,153.34L384.9,140.32L383.18,140.94L381.45,139.44L379.73,170.58L378,165.37L376.27,163.93L374.55,162.7L371.1,171.27L369.37,166.46L367.64,180.47L365.92,185.45L364.19,187L362.47,189.64L360.74,180.95L359.01,183.39L357.29,184.23L355.56,184.61L353.84,182.75L352.11,182.02L350.38,179.88L348.66,179.64L346.93,174.45L345.21,178.58L343.48,180.74L341.75,176.73L340.03,174.35L338.3,171.44L336.58,176.27L334.85,174.97L331.4,177.93L329.67,173.86L327.95,178.54L326.22,181.11L324.49,182.36L322.77,185.82L321.04,182L319.32,184.52L317.59,185.88L315.86,182.2L314.14,183.74L312.41,182.09L310.68,182.72L308.96,182.31L307.23,184.03L305.51,181.84L303.78,187.08L302.05,185.24L298.6,187.08L296.88,183.88L295.15,191.16L293.42,189.78L291.7,190.23L289.97,189.48L288.25,189.55L286.52,188.56L284.79,195.32L283.07,193.64L281.34,202L279.62,191.43L277.89,236.59L276.16,236.61L272.71,237.26L270.99,240.11L265.81,241.52L264.08,240.87L262.36,242.67L260.63,240.52L258.9,243.98L257.18,244.77L255.45,249.36L253.73,249.84L250.27,259.98L248.55,258.33L246.82,254.98L245.1,255.83L243.37,253.96L241.64,251.45L239.92,254.16L238.19,251.87L236.47,255.05L234.74,255.4L233.01,254.97L231.29,257.88L229.56,264.61L227.84,264.95L224.38,256.73L222.66,255.59L220.93,251.11L219.21,256.17L217.48,253.48L215.75,251.07L210.58,249.61L208.85,249.83L203.67,250.32L201.95,249.38L200.22,249.46L198.49,249.23L196.77,249.85L195.04,250.26L193.32,253.14L191.59,253.52L189.86,251.25L188.14,250.1L186.41,254.24L184.68,253.06L182.96,256.16L181.23,255.2L179.51,255.55L177.78,250.59L176.05,251.21L174.33,250.52L170.88,247.28L169.15,248.98L167.42,248.32L165.7,253.56L163.97,251.14L162.25,251.46L158.79,251.05L157.07,252.74L155.34,252.93L153.62,255.15L151.89,253.25L150.16,253.22L148.44,251.49L146.71,252.04L144.99,251.55L143.26,252.19L141.53,256.12L139.81,252.91L136.36,252.09L134.63,257.83L132.9,259.06L131.18,261.63L129.45,255.69L127.73,256.21L126,252.45L124.27,266.37L122.55,210.23L120.82,208.08L119.1,207.52L117.37,208.86L115.64,179.75L113.92,176.57L110.47,182.28L108.74,182.95L107.01,179.13L105.29,183.16L103.56,183.78L101.84,178.56L100.11,178.69L98.38,180.25L96.66,159.84L94.93,141.34L93.21,134.82L91.48,139.36L89.75,137.78L88.03,141.25L86.3,140.87L84.58,95.41L82.85,101.68L81.12,108.82L79.4,105.36L77.67,41.2L75.95,53.5L74.22,57.09L72.49,69.33L70.77,82.31L69.04,73.95L67.32,71.54L65.59,72.89L63.86,95.26L60.41,131.32L58.68,132.82L56.96,133.43L55.23,141.07L53.51,136.84L51.78,128.8L50.05,132.59L48.33,124.78L44.88,137.82L43.15,155.41L39.7,148.62L37.97,110.6L36.25,108.94L34.52,108.65L32.79,110.25L31.07,25.8L27.62,78.79L25.89,79.37L24.16,61.11L22.44,92.69L20.71,18.24L18.99,66.88L17.26,73.85L15.53,87.32L13.81,68.29L12.08,65.76L0,65.76Z" style="fill: rgb(148, 103, 189); fill-opacity: 0.8; stroke-width: 0;"/></g></g><g class="errorbars"/><g class="lines"><path class="js-line" d="M0,65.76L12.08,65.76L13.81,68.29L15.53,87.32L17.26,73.85L18.99,66.88L20.71,18.24L22.44,92.69L24.16,61.11L25.89,79.37L27.62,78.79L31.07,25.8L32.79,110.25L34.52,108.65L36.25,108.94L37.97,110.6L39.7,148.62L43.15,155.41L44.88,137.82L48.33,124.78L50.05,132.59L51.78,128.8L53.51,136.84L55.23,141.07L56.96,133.43L58.68,132.82L60.41,131.32L63.86,95.26L65.59,72.89L67.32,71.54L69.04,73.95L70.77,82.31L72.49,69.33L74.22,57.09L75.95,53.5L77.67,41.2L79.4,105.36L81.12,108.82L82.85,101.68L84.58,95.41L86.3,140.87L88.03,141.25L89.75,137.78L91.48,139.36L93.21,134.82L94.93,141.34L96.66,159.84L98.38,180.25L100.11,178.69L101.84,178.56L103.56,183.78L105.29,183.16L107.01,179.13L108.74,182.95L110.47,182.28L113.92,176.57L115.64,179.75L117.37,208.86L119.1,207.52L120.82,208.08L122.55,210.23L124.27,266.37L126,252.45L127.73,256.21L129.45,255.69L131.18,261.63L132.9,259.06L134.63,257.83L136.36,252.09L139.81,252.91L141.53,256.12L143.26,252.19L144.99,251.55L146.71,252.04L148.44,251.49L150.16,253.22L151.89,253.25L153.62,255.15L155.34,252.93L157.07,252.74L158.79,251.05L162.25,251.46L163.97,251.14L165.7,253.56L167.42,248.32L169.15,248.98L170.88,247.28L174.33,250.52L176.05,251.21L177.78,250.59L179.51,255.55L181.23,255.2L182.96,256.16L184.68,253.06L186.41,254.24L188.14,250.1L189.86,251.25L191.59,253.52L193.32,253.14L195.04,250.26L196.77,249.85L198.49,249.23L200.22,249.46L201.95,249.38L203.67,250.32L208.85,249.83L210.58,249.61L215.75,251.07L217.48,253.48L219.21,256.17L220.93,251.11L222.66,255.59L224.38,256.73L227.84,264.95L229.56,264.61L231.29,257.88L233.01,254.97L234.74,255.4L236.47,255.05L238.19,251.87L239.92,254.16L241.64,251.45L243.37,253.96L245.1,255.83L246.82,254.98L248.55,258.33L250.27,259.98L253.73,249.84L255.45,249.36L257.18,244.77L258.9,243.98L260.63,240.52L262.36,242.67L264.08,240.87L265.81,241.52L270.99,240.11L272.71,237.26L276.16,236.61L277.89,236.59L279.62,191.43L281.34,202L283.07,193.64L284.79,195.32L286.52,188.56L288.25,189.55L289.97,189.48L291.7,190.23L293.42,189.78L295.15,191.16L296.88,183.88L298.6,187.08L302.05,185.24L303.78,187.08L305.51,181.84L307.23,184.03L308.96,182.31L310.68,182.72L312.41,182.09L314.14,183.74L315.86,182.2L317.59,185.88L319.32,184.52L321.04,182L322.77,185.82L324.49,182.36L326.22,181.11L327.95,178.54L329.67,173.86L331.4,177.93L334.85,174.97L336.58,176.27L338.3,171.44L340.03,174.35L341.75,176.73L343.48,180.74L345.21,178.58L346.93,174.45L348.66,179.64L350.38,179.88L352.11,182.02L353.84,182.75L355.56,184.61L357.29,184.23L359.01,183.39L360.74,180.95L362.47,189.64L364.19,187L365.92,185.45L367.64,180.47L369.37,166.46L371.1,171.27L374.55,162.7L376.27,163.93L378,165.37L379.73,170.58L381.45,139.44L383.18,140.94L384.9,140.32L386.63,153.34L388.36,153.17L390.08,139.36L391.81,138.6L393.53,143.81L395.26,146.06L396.99,146.35L398.71,145.97L400.44,140.02L402.16,141.04L403.89,156.8L405.62,149.49L407.34,152.56L409.07,146.57L410.79,161.9L415.97,166.2L417.7,156.36L419.42,155.94L421.15,146.69L422.88,144.74L424.6,156.63L426.33,190.43L428.05,190.26L429.78,210.84L431.51,204.35L433.23,206.18L434.96,204.98L436.68,193.43L438.41,194.14L440.14,192.73L441.86,187.09L443.59,185.27L445.32,184.99L447.04,194.88L448.77,193.24L450.49,190.63L452.22,190.65L453.95,190.6L455.67,196.41L457.4,207.64L459.12,203.72L460.85,209.14L462.58,204.11L464.3,204.63L466.03,203.12L467.75,206.05L469.48,205.71L471.21,207.18L472.93,202.33L474.66,200.68L476.38,202.97L478.11,202.25L479.84,209.69L481.56,216.84L483.29,208.66L488.47,202.98L490.19,203.37L493.64,200.32L495.37,200.14L497.1,198.84L498.82,198.6L500.55,201.46L502.27,200.7L505.73,195.08L507.45,185.81L509.18,174.68L510.9,170.96L514.36,175.8L516.08,198.6L519.53,188.89L521.26,196.44L522.99,195.01L524.71,198.64L526.44,169.84L528.16,171.21L529.89,173.35L531.62,172.1L533.34,171.44L535.07,155.27L536.79,159.32L538.52,171.8L540.25,168.1L541.97,160.49L543.7,163.61L545.42,161.74L547.15,154.4L548.88,155.51L550.6,159.3L552.33,165.22L555.78,145.03L557.51,145.38L559.23,139.67L560.96,137L562.68,151.84L564.41,152.68L566.14,161.65L567.86,162.54L569.59,163.46L571.32,188.21L574.77,191.29L576.49,183.76L578.22,180.06L579.95,179.96L581.67,132.83L583.4,133.37L585.12,134.69L586.85,134.75L588.58,137.68L590.3,133.37L592.03,144.06L593.75,145.6L595.48,149.77L597.21,149.89L598.93,137.67L600.66,139.4L602.38,138.9L604.11,135.51L607.56,124.42L609.29,124.95L611.01,117.66L612.74,107.06L614.47,112.99L616.19,99L617.92,104.79L619.64,102.04L623.1,97.36L624.82,97.5L626.55,96.61L628.27,94.55L630,89.79" style="vector-effect: non-scaling-stroke; fill: none; stroke: rgb(220, 57, 18); stroke-opacity: 1; stroke-width: 0px; opacity: 1;"/></g><g class="points"/><g class="text"/></g><g class="trace scatter trace04e5144d-7ea7-42cb-9b5e-e0fd08aa3e6f" style="stroke-miterlimit: 2;"><g class="fills"/><g class="errorbars"/><g class="lines"><path class="js-line" d="M0,13.7L12.08,13.7L13.81,68.29L15.53,87.32L17.26,73.85L18.99,66.88L20.71,18.24L22.44,92.69L24.16,61.11L25.89,79.37L27.62,78.79L31.07,25.8L32.79,110.25L34.52,108.65L36.25,108.94L37.97,110.6L39.7,148.62L43.15,155.41L44.88,137.82L48.33,124.78L50.05,132.59L51.78,128.8L53.51,136.84L55.23,141.07L56.96,133.43L58.68,132.82L60.41,131.32L63.86,95.26L65.59,72.89L67.32,71.54L69.04,73.95L70.77,82.31L72.49,69.33L74.22,57.09L75.95,53.5L77.67,41.2L79.4,105.36L81.12,108.82L82.85,101.68L84.58,95.41L86.3,140.87L88.03,141.25L89.75,137.78L91.48,139.36L93.21,134.82L94.93,141.34L96.66,159.84L98.38,180.25L100.11,178.69L101.84,178.56L103.56,183.78L105.29,183.16L107.01,179.13L108.74,182.95L110.47,182.28L113.92,176.57L115.64,179.75L117.37,208.86L119.1,207.52L120.82,208.08L122.55,210.23L124.27,266.37L126,252.45L127.73,256.21L129.45,255.69L131.18,261.63L132.9,259.06L134.63,257.83L136.36,252.09L139.81,252.91L141.53,256.12L143.26,252.19L144.99,251.55L146.71,252.04L148.44,251.49L150.16,253.22L151.89,253.25L153.62,255.15L155.34,252.93L157.07,252.74L158.79,251.05L162.25,251.46L163.97,251.14L165.7,253.56L167.42,248.32L169.15,248.98L170.88,247.28L174.33,250.52L176.05,251.21L177.78,250.59L179.51,255.55L181.23,255.2L182.96,256.16L184.68,253.06L186.41,254.24L188.14,250.1L189.86,251.25L191.59,253.52L193.32,253.14L195.04,250.26L196.77,249.85L198.49,249.23L200.22,249.46L201.95,249.38L203.67,250.32L208.85,249.83L210.58,249.61L215.75,251.07L217.48,253.48L219.21,256.17L220.93,251.11L222.66,255.59L224.38,256.73L227.84,264.95L229.56,264.61L231.29,257.88L233.01,254.97L234.74,255.4L236.47,255.05L238.19,251.87L239.92,254.16L241.64,251.45L243.37,253.96L245.1,255.83L246.82,254.98L248.55,258.33L250.27,259.98L253.73,249.84L255.45,249.36L257.18,244.77L258.9,243.98L260.63,240.52L262.36,242.67L264.08,240.87L265.81,241.52L270.99,240.11L272.71,237.26L276.16,236.61L277.89,236.59L279.62,191.43L281.34,202L283.07,193.64L284.79,195.32L286.52,188.56L288.25,189.55L289.97,189.48L291.7,190.23L293.42,189.78L295.15,191.16L296.88,183.88L298.6,187.08L302.05,185.24L303.78,187.08L305.51,181.84L307.23,184.03L308.96,182.31L310.68,182.72L312.41,182.09L314.14,183.74L315.86,182.2L317.59,185.88L319.32,184.52L321.04,182L322.77,185.82L324.49,182.36L326.22,181.11L327.95,178.54L329.67,173.86L331.4,177.93L334.85,174.97L336.58,176.27L338.3,171.44L340.03,174.35L341.75,176.73L343.48,180.74L345.21,178.58L346.93,174.45L348.66,179.64L350.38,179.88L352.11,182.02L353.84,182.75L355.56,184.61L357.29,184.23L359.01,183.39L360.74,180.95L362.47,189.64L364.19,187L365.92,185.45L367.64,180.47L369.37,166.46L371.1,171.27L374.55,162.7L376.27,163.93L378,165.37L379.73,170.58L381.45,139.44L383.18,140.94L384.9,140.32L386.63,153.34L388.36,153.17L390.08,139.36L391.81,138.6L393.53,143.81L395.26,146.06L396.99,146.35L398.71,145.97L400.44,140.02L402.16,141.04L403.89,156.8L405.62,149.49L407.34,152.56L409.07,146.57L410.79,161.9L415.97,166.2L417.7,156.36L419.42,155.94L421.15,146.69L422.88,144.74L424.6,156.63L426.33,190.43L428.05,190.26L429.78,210.84L431.51,204.35L433.23,206.18L434.96,204.98L436.68,193.43L438.41,194.14L440.14,192.73L441.86,187.09L443.59,185.27L445.32,184.99L447.04,194.88L448.77,193.24L450.49,190.63L452.22,190.65L453.95,190.6L455.67,196.41L457.4,207.64L459.12,203.72L460.85,209.14L462.58,204.11L464.3,198.89L466.03,199.42L469.48,198.05L471.21,197.63L472.93,197.29L474.66,200.68L476.38,202.97L478.11,202.25L479.84,201.79L481.56,198.23L483.29,208.66L485.01,206.79L486.74,205.48L488.47,202.98L490.19,203.37L491.92,201.71L493.64,200.32L495.37,200.14L497.1,198.84L498.82,198.6L500.55,201.46L502.27,200.7L505.73,195.08L507.45,185.81L509.18,174.68L510.9,170.96L514.36,175.8L516.08,198.6L519.53,188.89L521.26,196.44L522.99,195.01L524.71,198.64L526.44,169.84L528.16,171.21L529.89,173.35L531.62,172.1L533.34,171.44L535.07,155.27L536.79,159.32L538.52,171.8L540.25,168.1L541.97,160.49L543.7,163.61L545.42,161.74L547.15,154.4L548.88,155.51L550.6,159.3L552.33,165.22L555.78,145.03L557.51,145.38L559.23,139.67L560.96,137L562.68,137.76L564.41,141.17L566.14,133.84L567.86,131.91L569.59,135.67L571.32,164.8L574.77,163.87L576.49,160.09L578.22,157.66L579.95,158.42L581.67,112.15L583.4,113.24L585.12,117.86L586.85,117.2L588.58,118.07L590.3,114.63L592.03,126.94L593.75,127.48L597.21,133.04L598.93,125.05L600.66,126.27L602.38,126.49L604.11,125.93L605.84,120.62L607.56,116.19L609.29,116.37L611.01,110.57L612.74,100.19L614.47,108.14L616.19,97.48L617.92,104.79L619.64,102.04L623.1,97.36L624.82,97.5L626.55,96.61L628.27,94.55L630,89.79" style="vector-effect: non-scaling-stroke; fill: none; stroke: rgb(148, 103, 189); stroke-opacity: 1; stroke-width: 0px; opacity: 1;"/></g><g class="points"/><g class="text"/></g></g></g><g class="overplot"/><path class="xlines-above crisp" d="M0,0" style="fill: none;"/><path class="ylines-above crisp" d="M0,0" style="fill: none;"/><g class="overlines-above"/><g class="xaxislayer-above"><g class="xtick"><text text-anchor="middle" x="0" y="333" transform="translate(40,0)" style="font-family: 'Open Sans', verdana, arial, sans-serif; font-size: 12px; fill: rgb(214, 223, 239); fill-opacity: 1; white-space: pre; opacity: 1;">Jan 2020</text></g><g class="xtick"><text text-anchor="middle" x="0" y="333" style="font-family: 'Open Sans', verdana, arial, sans-serif; font-size: 12px; fill: rgb(214, 223, 239); fill-opacity: 1; white-space: pre; opacity: 1;" transform="translate(143.56,0)">Mar 2020</text></g><g class="xtick"><text text-anchor="middle" x="0" y="333" style="font-family: 'Open Sans', verdana, arial, sans-serif; font-size: 12px; fill: rgb(214, 223, 239); fill-opacity: 1; white-space: pre; opacity: 1;" transform="translate(248.85,0)">May 2020</text></g><g class="xtick"><text text-anchor="middle" x="0" y="333" style="font-family: 'Open Sans', verdana, arial, sans-serif; font-size: 12px; fill: rgb(214, 223, 239); fill-opacity: 1; white-space: pre; opacity: 1;" transform="translate(354.14,0)">Jul 2020</text></g><g class="xtick"><text text-anchor="middle" x="0" y="333" style="font-family: 'Open Sans', verdana, arial, sans-serif; font-size: 12px; fill: rgb(214, 223, 239); fill-opacity: 1; white-space: pre; opacity: 1;" transform="translate(461.15,0)">Sep 2020</text></g><g class="xtick"><text text-anchor="middle" x="0" y="333" style="font-family: 'Open Sans', verdana, arial, sans-serif; font-size: 12px; fill: rgb(214, 223, 239); fill-opacity: 1; white-space: pre; opacity: 1;" transform="translate(566.44,0)">Nov 2020</text></g></g><g class="yaxislayer-above"><g class="ytick"><text text-anchor="end" x="39" y="4.199999999999999" transform="translate(0,320)" style="font-family: 'Open Sans', verdana, arial, sans-serif; font-size: 12px; fill: rgb(214, 223, 239); fill-opacity: 1; white-space: pre; opacity: 1;">0</text></g><g class="ytick"><text text-anchor="end" x="39" y="4.199999999999999" style="font-family: 'Open Sans', verdana, arial, sans-serif; font-size: 12px; fill: rgb(214, 223, 239); fill-opacity: 1; white-space: pre; opacity: 1;" transform="translate(0,267.94)">0.2</text></g><g class="ytick"><text text-anchor="end" x="39" y="4.199999999999999" style="font-family: 'Open Sans', verdana, arial, sans-serif; font-size: 12px; fill: rgb(214, 223, 239); fill-opacity: 1; white-space: pre; opacity: 1;" transform="translate(0,215.88)">0.4</text></g><g class="ytick"><text text-anchor="end" x="39" y="4.199999999999999" style="font-family: 'Open Sans', verdana, arial, sans-serif; font-size: 12px; fill: rgb(214, 223, 239); fill-opacity: 1; white-space: pre; opacity: 1;" transform="translate(0,163.82)">0.6</text></g><g class="ytick"><text text-anchor="end" x="39" y="4.199999999999999" style="font-family: 'Open Sans', verdana, arial, sans-serif; font-size: 12px; fill: rgb(214, 223, 239); fill-opacity: 1; white-space: pre; opacity: 1;" transform="translate(0,111.76)">0.8</text></g><g class="ytick"><text text-anchor="end" x="39" y="4.199999999999999" style="font-family: 'Open Sans', verdana, arial, sans-serif; font-size: 12px; fill: rgb(214, 223, 239); fill-opacity: 1; white-space: pre; opacity: 1;" transform="translate(0,59.7)">1</text></g></g><g class="overaxes-above"/></g></g><g class="polarlayer"/><g class="smithlayer"/><g class="ternarylayer"/><g class="geolayer"/><g class="funnelarealayer"/><g class="pielayer"/><g class="iciclelayer"/><g class="treemaplayer"/><g class="sunburstlayer"/><g class="glimages"/><defs id="topdefs-99d3fc"><g class="clips"/><clipPath id="legend99d3fc"><rect width="517" height="29" x="0" y="0"/></clipPath></defs><g class="layer-above"><g class="imagelayer"/><g class="shapelayer"/></g><g class="infolayer"><g class="legend" pointer-events="all" transform="translate(153,11.519999999999996)"><rect class="bg" shape-rendering="crispEdges" width="517" height="29" x="0" y="0" style="stroke: rgb(68, 68, 68); stroke-opacity: 1; fill: rgb(33, 34, 44); fill-opacity: 1; stroke-width: 0px;"/><g class="scrollbox" transform="" clip-path="url(#legend99d3fc)"><g class="groups"><g class="traces" transform="translate(0,14.5)" style="opacity: 1;"><text class="legendtext" text-anchor="start" x="40" y="4.680000000000001" style="font-family: 'Open Sans', verdana, arial, sans-serif; font-size: 12px; fill: rgb(214, 223, 239); fill-opacity: 1; white-space: pre;">ADAUSDT</text><g class="layers"><g class="legendfill"><path class="js-fill" d="M5,-2h30v6h-30z" style="stroke-width: 0; fill: rgb(31, 119, 180); fill-opacity: 0.8;"/></g><g class="legendlines"><path class="js-line" d="M5,-2h30" style="fill: none; stroke: rgb(31, 119, 180); stroke-opacity: 1; stroke-width: 0px;"/></g><g class="legendsymbols"><g class="legendpoints"/></g></g><rect class="legendtoggle" x="0" y="-9.5" width="101.78125" height="19" style="fill: rgb(0, 0, 0); fill-opacity: 0;"/></g><g class="traces" transform="translate(104.28125,14.5)" style="opacity: 1;"><text class="legendtext" text-anchor="start" x="40" y="4.680000000000001" style="font-family: 'Open Sans', verdana, arial, sans-serif; font-size: 12px; fill: rgb(214, 223, 239); fill-opacity: 1; white-space: pre;">BNBUSDT</text><g class="layers"><g class="legendfill"><path class="js-fill" d="M5,-2h30v6h-30z" style="stroke-width: 0; fill: rgb(255, 127, 14); fill-opacity: 0.8;"/></g><g class="legendlines"><path class="js-line" d="M5,-2h30" style="fill: none; stroke: rgb(255, 127, 14); stroke-opacity: 1; stroke-width: 0px;"/></g><g class="legendsymbols"><g class="legendpoints"/></g></g><rect class="legendtoggle" x="0" y="-9.5" width="101.5625" height="19" style="fill: rgb(0, 0, 0); fill-opacity: 0;"/></g><g class="traces" transform="translate(208.34375,14.5)" style="opacity: 1;"><text class="legendtext" text-anchor="start" x="40" y="4.680000000000001" style="font-family: 'Open Sans', verdana, arial, sans-serif; font-size: 12px; fill: rgb(214, 223, 239); fill-opacity: 1; white-space: pre;">BTCUSDT</text><g class="layers"><g class="legendfill"><path class="js-fill" d="M5,-2h30v6h-30z" style="stroke-width: 0; fill: rgb(44, 160, 44); fill-opacity: 0.8;"/></g><g class="legendlines"><path class="js-line" d="M5,-2h30" style="fill: none; stroke: rgb(44, 160, 44); stroke-opacity: 1; stroke-width: 0px;"/></g><g class="legendsymbols"><g class="legendpoints"/></g></g><rect class="legendtoggle" x="0" y="-9.5" width="100.140625" height="19" style="fill: rgb(0, 0, 0); fill-opacity: 0;"/></g><g class="traces" transform="translate(310.984375,14.5)" style="opacity: 1;"><text class="legendtext" text-anchor="start" x="40" y="4.680000000000001" style="font-family: 'Open Sans', verdana, arial, sans-serif; font-size: 12px; fill: rgb(214, 223, 239); fill-opacity: 1; white-space: pre;">ETHUSDT</text><g class="layers"><g class="legendfill"><path class="js-fill" d="M5,-2h30v6h-30z" style="stroke-width: 0; fill: rgb(214, 39, 40); fill-opacity: 0.8;"/></g><g class="legendlines"><path class="js-line" d="M5,-2h30" style="fill: none; stroke: rgb(220, 57, 18); stroke-opacity: 1; stroke-width: 0px;"/></g><g class="legendsymbols"><g class="legendpoints"/></g></g><rect class="legendtoggle" x="0" y="-9.5" width="100.140625" height="19" style="fill: rgb(0, 0, 0); fill-opacity: 0;"/></g><g class="traces" transform="translate(413.625,14.5)" style="opacity: 1;"><text class="legendtext" text-anchor="start" x="40" y="4.680000000000001" style="font-family: 'Open Sans', verdana, arial, sans-serif; font-size: 12px; fill: rgb(214, 223, 239); fill-opacity: 1; white-space: pre;">XRPUSDT</text><g class="layers"><g class="legendfill"><path class="js-fill" d="M5,-2h30v6h-30z" style="stroke-width: 0; fill: rgb(148, 103, 189); fill-opacity: 0.8;"/></g><g class="legendlines"><path class="js-line" d="M5,-2h30" style="fill: none; stroke: rgb(148, 103, 189); stroke-opacity: 1; stroke-width: 0px;"/></g><g class="legendsymbols"><g class="legendpoints"/></g></g><rect class="legendtoggle" x="0" y="-9.5" width="99.9375" height="19" style="fill: rgb(0, 0, 0); fill-opacity: 0;"/></g></g></g><rect class="scrollbar" rx="20" ry="3" width="0" height="0" x="0" y="0" style="fill: rgb(128, 139, 164); fill-opacity: 1;"/></g><g class="g-gtitle"/><g class="g-xtitle"/><g class="g-ytitle"/></g></svg>