<svg class="main-svg" xmlns="http://www.w3.org/2000/svg" xmlns:xlink="http://www.w3.org/1999/xlink" width="700" height="350" style="" viewBox="0 0 700 350"><rect x="0" y="0" width="700" height="350" style="fill: rgb(33, 34, 44); fill-opacity: 1;"/><defs id="defs-eb4548"><g class="clips"><clipPath id="clipeb4548xyplot" class="plotclip"><rect width="637" height="274"/></clipPath><clipPath class="axesclip" id="clipeb4548x"><rect x="33" y="0" width="637" height="350"/></clipPath><clipPath class="axesclip" id="clipeb4548y"><rect x="0" y="46" width="700" height="274"/></clipPath><clipPath class="axesclip" id="clipeb4548xy"><rect x="33" y="46" width="637" height="274"/></clipPath></g><g class="gradients"/><g class="patterns"/></defs><g class="bglayer"/><g class="layer-below"><g class="imagelayer"/><g class="shapelayer"/></g><g class="cartesianlayer"><g class="subplot xy"><g class="layer-subplot"><g class="shapelayer"/><g class="imagelayer"/></g><g class="gridlayer"><g class="x"><path class="xgrid crisp" transform="translate(131.81,0)" d="M0,46v274" style="stroke: rgb(47, 62, 78); stroke-opacity: 1; stroke-width: 1px;"/><path class="xgrid crisp" transform="translate(239.45,0)" d="M0,46v274" style="stroke: rgb(47, 62, 78); stroke-opacity: 1; stroke-width: 1px;"/><path class="xgrid crisp" transform="translate(347.09,0)" d="M0,46v274" style="stroke: rgb(47, 62, 78); stroke-opacity: 1; stroke-width: 1px;"/><path class="xgrid crisp" transform="translate(456.49,0)" d="M0,46v274" style="stroke: rgb(47, 62, 78); stroke-opacity: 1; stroke-width: 1px;"/><path class="xgrid crisp" transform="translate(564.13,0)" d="M0,46v274" style="stroke: rgb(47, 62, 78); stroke-opacity: 1; stroke-width: 1px;"/></g><g class="y"><path class="ygrid crisp" transform="translate(0,267.94)" d="M33,0h637" style="stroke: rgb(47, 62, 78); stroke-opacity: 1; stroke-width: 1px;"/><path class="ygrid crisp" transform="translate(0,215.88)" d="M33,0h637" style="stroke: rgb(47, 62, 78); stroke-opacity: 1; stroke-width: 1px;"/><path class="ygrid crisp" transform="translate(0,163.82)" d="M33,0h637" style="stroke: rgb(47, 62, 78); stroke-opacity: 1; stroke-width: 1px;"/><path class="ygrid crisp" transform="translate(0,111.76)" d="M33,0h637" style="stroke: rgb(47, 62, 78); stroke-opacity: 1; stroke-width: 1px;"/><path class="ygrid crisp" transform="translate(0,59.7)" d="M33,0h637" style="stroke: rgb(47, 62, 78); stroke-opacity: 1; stroke-width: 1px;"/></g></g><g class="zerolinelayer"><path class="yzl zl crisp" transform="translate(0,320)" d="M33,0h637" style="stroke: rgb(47, 62, 78); stroke-opacity: 1; stroke-width: 2px;"/></g><path class="xlines-below"/><path class="ylines-below"/><g class="overlines-below"/><g class="xaxislayer-below"/><g class="yaxislayer-below"/><g class="overaxes-below"/><g class="plot" transform="translate(33,46)" clip-path="url(#clipeb4548xyplot)"><g class="scatterlayer mlayer"><g class="trace scatter trace802aca4f-41c4-4879-9546-96354c89864c" style="stroke-miterlimit: 2;"><g class="fills"><g><path class="js-fill" d="M637,274L0,274L0,274L59.99,274L61.76,224.59L72.35,224.59L74.11,208.85L84.7,208.85L86.46,222.76L97.05,222.76L98.81,210.78L109.4,210.78L111.17,203.93L121.75,203.93L123.52,214.88L146.46,214.88L148.22,274L171.16,274L172.93,236.16L208.22,236.16L209.98,121.03L220.57,121.03L222.33,220.31L232.92,220.31L234.68,274L245.27,274L247.04,152.65L269.98,152.65L271.74,170.08L282.33,170.08L284.09,63.93L294.68,63.93L296.44,70.99L307.03,70.99L308.8,204.22L331.73,204.22L333.5,274L344.09,274L345.85,13.7L381.14,13.7L382.91,274L393.49,274L395.26,264.8L405.84,264.8L407.61,274L430.55,274L432.31,203.81L455.25,203.81L457.02,274L467.6,274L469.37,13.7L479.96,13.7L481.72,274L517.01,274L518.78,118.42L529.36,118.42L531.13,99.15L541.71,99.15L543.48,201.29L554.07,201.29L555.83,217.63L566.42,217.63L568.18,274L615.83,274L617.59,187.29L628.18,187.29L629.94,274L637,274" style="fill: rgb(31, 119, 180); fill-opacity: 0.8; stroke-width: 0;"/></g><g><path class="js-fill" d="M0,274L47.64,274L49.41,115.22L59.99,115.22L61.76,135.38L72.35,135.38L74.11,153.01L84.7,153.01L86.46,158.92L97.05,158.92L98.81,210.78L109.4,210.78L111.17,133.97L121.75,133.97L123.52,175.31L146.46,175.31L148.22,274L171.16,274L172.93,187.48L208.22,187.48L209.98,62.11L220.57,62.11L222.33,160.94L232.92,160.94L234.68,274L245.27,274L247.04,117.5L269.98,117.5L271.74,13.7L282.33,13.7L284.09,63.93L294.68,63.93L296.44,70.99L307.03,70.99L308.8,148L331.73,148L333.5,274L344.09,274L345.85,13.7L381.14,13.7L382.91,274L393.49,274L395.26,222.79L405.84,222.79L407.61,13.7L418.2,13.7L419.96,110.71L430.55,110.71L432.31,157.65L455.25,157.65L457.02,13.7L479.96,13.7L481.72,274L492.31,274L494.07,13.7L541.71,13.7L543.48,158.22L554.07,158.22L555.83,201.6L566.42,201.6L568.18,274L615.83,274L617.59,187.29L628.18,187.29L629.94,274L637,274L637,274L629.94,274L628.18,187.29L617.59,187.29L615.83,274L568.18,274L566.42,217.63L555.83,217.63L554.07,201.29L543.48,201.29L541.71,99.15L531.13,99.15L529.36,118.42L518.78,118.42L517.01,274L481.72,274L479.96,13.7L469.37,13.7L467.6,274L457.02,274L455.25,203.81L432.31,203.81L430.55,274L407.61,274L405.84,264.8L395.26,264.8L393.49,274L382.91,274L381.14,13.7L345.85,13.7L344.09,274L333.5,274L331.73,204.22L308.8,204.22L307.03,70.99L296.44,70.99L294.68,63.93L284.09,63.93L282.33,170.08L271.74,170.08L269.98,152.65L247.04,152.65L245.27,274L234.68,274L232.92,220.31L222.33,220.31L220.57,121.03L209.98,121.03L208.22,236.16L172.93,236.16L171.16,274L148.22,274L146.46,214.88L123.52,214.88L121.75,203.93L111.17,203.93L109.4,210.78L98.81,210.78L97.05,222.76L86.46,222.76L84.7,208.85L74.11,208.85L72.35,224.59L61.76,224.59L59.99,274L0,274Z" style="fill: rgb(255, 127, 14); fill-opacity: 0.8; stroke-width: 0;"/></g></g><g class="errorbars"/><g class="lines"><path class="js-line" d="M0,274L59.99,274L61.76,224.59L72.35,224.59L74.11,208.85L84.7,208.85L86.46,222.76L97.05,222.76L98.81,210.78L109.4,210.78L111.17,203.93L121.75,203.93L123.52,214.88L146.46,214.88L148.22,274L171.16,274L172.93,236.16L208.22,236.16L209.98,121.03L220.57,121.03L222.33,220.31L232.92,220.31L234.68,274L245.27,274L247.04,152.65L269.98,152.65L271.74,170.08L282.33,170.08L284.09,63.93L294.68,63.93L296.44,70.99L307.03,70.99L308.8,204.22L331.73,204.22L333.5,274L344.09,274L345.85,13.7L381.14,13.7L382.91,274L393.49,274L395.26,264.8L405.84,264.8L407.61,274L430.55,274L432.31,203.81L455.25,203.81L457.02,274L467.6,274L469.37,13.7L479.96,13.7L481.72,274L517.01,274L518.78,118.42L529.36,118.42L531.13,99.15L541.71,99.15L543.48,201.29L554.07,201.29L555.83,217.63L566.42,217.63L568.18,274L615.83,274L617.59,187.29L628.18,187.29L629.94,274L637,274" style="vector-effect: non-scaling-stroke; fill: none; stroke: rgb(31, 119, 180); stroke-opacity: 1; stroke-width: 0px; opacity: 1;"/></g><g class="points"/><g class="text"/></g><g class="trace scatter tracee390f567-51da-43d1-99be-6dba2750581c" style="stroke-miterlimit: 2;"><g class="fills"><g><path class="js-fill" d="M0,274L47.64,274L49.41,18.34L59.99,18.34L61.76,135.38L72.35,135.38L74.11,124.91L84.7,124.91L86.46,133.54L97.05,133.54L98.81,177.73L109.4,177.73L111.17,101.41L121.75,101.41L123.52,126.17L146.46,126.17L148.22,13.7L171.16,13.7L172.93,122.32L208.22,122.32L209.98,62.11L220.57,62.11L222.33,75.78L232.92,75.78L234.68,13.7L245.27,13.7L247.04,89.69L269.98,89.69L271.74,13.7L282.33,13.7L284.09,63.93L294.68,63.93L296.44,70.99L307.03,70.99L308.8,126.38L331.73,126.38L333.5,178.61L344.09,178.61L345.85,13.7L381.14,13.7L382.91,274L393.49,274L395.26,219.21L405.84,219.21L407.61,13.7L430.55,13.7L432.31,142.78L455.25,142.78L457.02,13.7L479.96,13.7L481.72,130.84L492.31,130.84L494.07,13.7L541.71,13.7L543.48,100.59L554.07,100.59L555.83,126.34L566.42,126.34L568.18,13.7L603.47,13.7L605.24,274L615.83,274L617.59,187.29L628.18,187.29L629.94,274L637,274L637,274L629.94,274L628.18,187.29L617.59,187.29L615.83,274L568.18,274L566.42,201.6L555.83,201.6L554.07,158.22L543.48,158.22L541.71,13.7L494.07,13.7L492.31,274L481.72,274L479.96,13.7L457.02,13.7L455.25,157.65L432.31,157.65L430.55,110.71L419.96,110.71L418.2,13.7L407.61,13.7L405.84,222.79L395.26,222.79L393.49,274L382.91,274L381.14,13.7L345.85,13.7L344.09,274L333.5,274L331.73,148L308.8,148L307.03,70.99L296.44,70.99L294.68,63.93L284.09,63.93L282.33,13.7L271.74,13.7L269.98,117.5L247.04,117.5L245.27,274L234.68,274L232.92,160.94L222.33,160.94L220.57,62.11L209.98,62.11L208.22,187.48L172.93,187.48L171.16,274L148.22,274L146.46,175.31L123.52,175.31L121.75,133.97L111.17,133.97L109.4,210.78L98.81,210.78L97.05,158.92L86.46,158.92L84.7,153.01L74.11,153.01L72.35,135.38L61.76,135.38L59.99,115.22L49.41,115.22L47.64,274L0,274Z" style="fill: rgb(44, 160, 44); fill-opacity: 0.8; stroke-width: 0;"/></g></g><g class="errorbars"/><g class="lines"><path class="js-line" d="M0,274L47.64,274L49.41,115.22L59.99,115.22L61.76,135.38L72.35,135.38L74.11,153.01L84.7,153.01L86.46,158.92L97.05,158.92L98.81,210.78L109.4,210.78L111.17,133.97L121.75,133.97L123.52,175.31L146.46,175.31L148.22,274L171.16,274L172.93,187.48L208.22,187.48L209.98,62.11L220.57,62.11L222.33,160.94L232.92,160.94L234.68,274L245.27,274L247.04,117.5L269.98,117.5L271.74,13.7L282.33,13.7L284.09,63.93L294.68,63.93L296.44,70.99L307.03,70.99L308.8,148L331.73,148L333.5,274L344.09,274L345.85,13.7L381.14,13.7L382.91,274L393.49,274L395.26,222.79L405.84,222.79L407.61,13.7L418.2,13.7L419.96,110.71L430.55,110.71L432.31,157.65L455.25,157.65L457.02,13.7L479.96,13.7L481.72,274L492.31,274L494.07,13.7L541.71,13.7L543.48,158.22L554.07,158.22L555.83,201.6L566.42,201.6L568.18,274L615.83,274L617.59,187.29L628.18,187.29L629.94,274L637,274" style="vector-effect: non-scaling-stroke; fill: none; stroke: rgb(255, 127, 14); stroke-opacity: 1; stroke-width: 0px; opacity: 1;"/></g><g class="points"/><g class="text"/></g><g class="trace scatter traceaf478623-d484-4f12-9c71-e388e2dd7eab" style="stroke-miterlimit: 2;"><g class="fills"><g><path class="js-fill" d="M0,274L47.64,274L49.41,18.34L59.99,18.34L61.76,75.9L72.35,75.9L74.11,72.03L84.7,72.03L86.46,30.01L97.05,30.01L98.81,77.76L109.4,77.76L111.17,53.63L121.75,53.63L123.52,67.02L146.46,67.02L148.22,13.7L171.16,13.7L172.93,56.18L208.22,56.18L209.98,13.7L220.57,13.7L222.33,44.9L232.92,44.9L234.68,13.7L245.27,13.7L247.04,54.96L269.98,54.96L271.74,13.7L282.33,13.7L284.09,33.2L294.68,33.2L296.44,13.7L307.03,13.7L308.8,68.66L331.73,68.66L333.5,13.7L381.14,13.7L382.91,274L393.49,274L395.26,85.16L405.84,85.16L407.61,13.7L430.55,13.7L432.31,53.07L455.25,53.07L457.02,13.7L479.96,13.7L481.72,130.84L492.31,130.84L494.07,13.7L541.71,13.7L543.48,49.3L554.07,49.3L555.83,13.7L603.47,13.7L605.24,274L615.83,274L617.59,165.4L628.18,165.4L629.94,274L637,274L637,274L629.94,274L628.18,187.29L617.59,187.29L615.83,274L605.24,274L603.47,13.7L568.18,13.7L566.42,126.34L555.83,126.34L554.07,100.59L543.48,100.59L541.71,13.7L494.07,13.7L492.31,130.84L481.72,130.84L479.96,13.7L457.02,13.7L455.25,142.78L432.31,142.78L430.55,13.7L407.61,13.7L405.84,219.21L395.26,219.21L393.49,274L382.91,274L381.14,13.7L345.85,13.7L344.09,178.61L333.5,178.61L331.73,126.38L308.8,126.38L307.03,70.99L296.44,70.99L294.68,63.93L284.09,63.93L282.33,13.7L271.74,13.7L269.98,89.69L247.04,89.69L245.27,13.7L234.68,13.7L232.92,75.78L222.33,75.78L220.57,62.11L209.98,62.11L208.22,122.32L172.93,122.32L171.16,13.7L148.22,13.7L146.46,126.17L123.52,126.17L121.75,101.41L111.17,101.41L109.4,177.73L98.81,177.73L97.05,133.54L86.46,133.54L84.7,124.91L74.11,124.91L72.35,135.38L61.76,135.38L59.99,18.34L49.41,18.34L47.64,274L0,274Z" style="fill: rgb(214, 39, 40); fill-opacity: 0.8; stroke-width: 0;"/></g></g><g class="errorbars"/><g class="lines"><path class="js-line" d="M0,274L47.64,274L49.41,18.34L59.99,18.34L61.76,135.38L72.35,135.38L74.11,124.91L84.7,124.91L86.46,133.54L97.05,133.54L98.81,177.73L109.4,177.73L111.17,101.41L121.75,101.41L123.52,126.17L146.46,126.17L148.22,13.7L171.16,13.7L172.93,122.32L208.22,122.32L209.98,62.11L220.57,62.11L222.33,75.78L232.92,75.78L234.68,13.7L245.27,13.7L247.04,89.69L269.98,89.69L271.74,13.7L282.33,13.7L284.09,63.93L294.68,63.93L296.44,70.99L307.03,70.99L308.8,126.38L331.73,126.38L333.5,178.61L344.09,178.61L345.85,13.7L381.14,13.7L382.91,274L393.49,274L395.26,219.21L405.84,219.21L407.61,13.7L430.55,13.7L432.31,142.78L455.25,142.78L457.02,13.7L479.96,13.7L481.72,130.84L492.31,130.84L494.07,13.7L541.71,13.7L543.48,100.59L554.07,100.59L555.83,126.34L566.42,126.34L568.18,13.7L603.47,13.7L605.24,274L615.83,274L617.59,187.29L628.18,187.29L629.94,274L637,274" style="vector-effect: non-scaling-stroke; fill: none; stroke: rgb(44, 160, 44); stroke-opacity: 1; stroke-width: 0px; opacity: 1;"/></g><g class="points"/><g class="text"/></g><g class="trace scatter tracee59c5c44-b054-4d31-8ae2-7f35a170eba0" style="stroke-miterlimit: 2;"><g class="fills"><g><path class="js-fill" d="M0,274L47.64,274L49.41,13.7L637,13.7L637,274L629.94,274L628.18,165.4L617.59,165.4L615.83,274L605.24,274L603.47,13.7L555.83,13.7L554.07,49.3L543.48,49.3L541.71,13.7L494.07,13.7L492.31,130.84L481.72,130.84L479.96,13.7L457.02,13.7L455.25,53.07L432.31,53.07L430.55,13.7L407.61,13.7L405.84,85.16L395.26,85.16L393.49,274L382.91,274L381.14,13.7L333.5,13.7L331.73,68.66L308.8,68.66L307.03,13.7L296.44,13.7L294.68,33.2L284.09,33.2L282.33,13.7L271.74,13.7L269.98,54.96L247.04,54.96L245.27,13.7L234.68,13.7L232.92,44.9L222.33,44.9L220.57,13.7L209.98,13.7L208.22,56.18L172.93,56.18L171.16,13.7L148.22,13.7L146.46,67.02L123.52,67.02L121.75,53.63L111.17,53.63L109.4,77.76L98.81,77.76L97.05,30.01L86.46,30.01L84.7,72.03L74.11,72.03L72.35,75.9L61.76,75.9L59.99,18.34L49.41,18.34L47.64,274L0,274Z" style="fill: rgb(148, 103, 189); fill-opacity: 0.8; stroke-width: 0;"/></g></g><g class="errorbars"/><g class="lines"><path class="js-line" d="M0,274L47.64,274L49.41,18.34L59.99,18.34L61.76,75.9L72.35,75.9L74.11,72.03L84.7,72.03L86.46,30.01L97.05,30.01L98.81,77.76L109.4,77.76L111.17,53.63L121.75,53.63L123.52,67.02L146.46,67.02L148.22,13.7L171.16,13.7L172.93,56.18L208.22,56.18L209.98,13.7L220.57,13.7L222.33,44.9L232.92,44.9L234.68,13.7L245.27,13.7L247.04,54.96L269.98,54.96L271.74,13.7L282.33,13.7L284.09,33.2L294.68,33.2L296.44,13.7L307.03,13.7L308.8,68.66L331.73,68.66L333.5,13.7L381.14,13.7L382.91,274L393.49,274L395.26,85.16L405.84,85.16L407.61,13.7L430.55,13.7L432.31,53.07L455.25,53.07L457.02,13.7L479.96,13.7L481.72,130.84L492.31,130.84L494.07,13.7L541.71,13.7L543.48,49.3L554.07,49.3L555.83,13.7L603.47,13.7L605.24,274L615.83,274L617.59,165.4L628.18,165.4L629.94,274L637,274" style="vector-effect: non-scaling-stroke; fill: none; stroke: rgb(220, 57, 18); stroke-opacity: 1; stroke-width: 0px; opacity: 1;"/></g><g class="points"/><g class="text"/></g><g class="trace scatter traceda2ee1f4-6987-456a-928a-ec94f2685bea" style="stroke-miterlimit: 2;"><g class="fills"/><g class="errorbars"/><g class="lines"><path class="js-line" d="M0,274L47.64,274L49.41,13.7L637,13.7" style="vector-effect: non-scaling-stroke; fill: none; stroke: rgb(148, 103, 189); stroke-opacity: 1; stroke-width: 0px; opacity: 1;"/></g><g class="points"/><g class="text"/></g></g></g><g class="overplot"/><path class="xlines-above crisp" d="M0,0" style="fill: none;"/><path class="ylines-above crisp" d="M0,0" style="fill: none;"/><g class="overlines-above"/><g class="xaxislayer-above"><g class="xtick"><text text-anchor="middle" x="0" y="333" transform="translate(131.81,0)" style="font-family: 'Open Sans', verdana, arial, sans-serif; font-size: 12px; fill: rgb(214, 223, 239); fill-opacity: 1; white-space: pre; opacity: 1;">Mar 2020</text></g><g class="xtick"><text text-anchor="middle" x="0" y="333" style="font-family: 'Open Sans', verdana, arial, sans-serif; font-size: 12px; fill: rgb(214, 223, 239); fill-opacity: 1; white-space: pre; opacity: 1;" transform="translate(239.45,0)">May 2020</text></g><g class="xtick"><text text-anchor="middle" x="0" y="333" style="font-family: 'Open Sans', verdana, arial, sans-serif; font-size: 12px; fill: rgb(214, 223, 239); fill-opacity: 1; white-space: pre; opacity: 1;" transform="translate(347.09,0)">Jul 2020</text></g><g class="xtick"><text text-anchor="middle" x="0" y="333" style="font-family: 'Open Sans', verdana, arial, sans-serif; font-size: 12px; fill: rgb(214, 223, 239); fill-opacity: 1; white-space: pre; opacity: 1;" transform="translate(456.49,0)">Sep 2020</text></g><g class="xtick"><text text-anchor="middle" x="0" y="333" style="font-family: 'Open Sans', verdana, arial, sans-serif; font-size: 12px; fill: rgb(214, 223, 239); fill-opacity: 1; white-space: pre; opacity: 1;" transform="translate(564.13,0)">Nov 2020</text></g></g><g class="yaxislayer-above"><g class="ytick"><text text-anchor="end" x="32" y="4.199999999999999" transform="translate(0,320)" style="font-family: 'Open Sans', verdana, arial, sans-serif; font-size: 12px; fill: rgb(214, 223, 239); fill-opacity: 1; white-space: pre; opacity: 1;">0</text></g><g class="ytick"><text text-anchor="end" x="32" y="4.199999999999999" style="font-family: 'Open Sans', verdana, arial, sans-serif; font-size: 12px; fill: rgb(214, 223, 239); fill-opacity: 1; white-space: pre; opacity: 1;" transform="translate(0,267.94)">0.2</text></g><g class="ytick"><text text-anchor="end" x="32" y="4.199999999999999" style="font-family: 'Open Sans', verdana, arial, sans-serif; font-size: 12px; fill: rgb(214, 223, 239); fill-opacity: 1; white-space: pre; opacity: 1;" transform="translate(0,215.88)">0.4</text></g><g class="ytick"><text text-anchor="end" x="32" y="4.199999999999999" style="font-family: 'Open Sans', verdana, arial, sans-serif; font-size: 12px; fill: rgb(214, 223, 239); fill-opacity: 1; white-space: pre; opacity: 1;" transform="translate(0,163.82)">0.6</text></g><g class="ytick"><text text-anchor="end" x="32" y="4.199999999999999" style="font-family: 'Open Sans', verdana, arial, sans-serif; font-size: 12px; fill: rgb(214, 223, 239); fill-opacity: 1; white-space: pre; opacity: 1;" transform="translate(0,111.76)">0.8</text></g><g class="ytick"><text text-anchor="end" x="32" y="4.199999999999999" style="font-family: 'Open Sans', verdana, arial, sans-serif; font-size: 12px; fill: rgb(214, 223, 239); fill-opacity: 1; white-space: pre; opacity: 1;" transform="translate(0,59.7)">1</text></g></g><g class="overaxes-above"/></g></g><g class="polarlayer"/><g class="smithlayer"/><g class="ternarylayer"/><g class="geolayer"/><g class="funnelarealayer"/><g class="pielayer"/><g class="iciclelayer"/><g class="treemaplayer"/><g class="sunburstlayer"/><g class="glimages"/><defs id="topdefs-eb4548"><g class="clips"/><clipPath id="legendeb4548"><rect width="517" height="29" x="0" y="0"/></clipPath></defs><g class="layer-above"><g class="imagelayer"/><g class="shapelayer"/></g><g class="infolayer"><g class="legend" pointer-events="all" transform="translate(153,11.519999999999996)"><rect class="bg" shape-rendering="crispEdges" width="517" height="29" x="0" y="0" style="stroke: rgb(68, 68, 68); stroke-opacity: 1; fill: rgb(33, 34, 44); fill-opacity: 1; stroke-width: 0px;"/><g class="scrollbox" transform="" clip-path="url(#legendeb4548)"><g class="groups"><g class="traces" transform="translate(0,14.5)" style="opacity: 1;"><text class="legendtext" text-anchor="start" x="40" y="4.680000000000001" style="font-family: 'Open Sans', verdana, arial, sans-serif; font-size: 12px; fill: rgb(214, 223, 239); fill-opacity: 1; white-space: pre;">ADAUSDT</text><g class="layers"><g class="legendfill"><path class="js-fill" d="M5,-2h30v6h-30z" style="stroke-width: 0; fill: rgb(31, 119, 180); fill-opacity: 0.8;"/></g><g class="legendlines"><path class="js-line" d="M5,-2h30" style="fill: none; stroke: rgb(31, 119, 180); stroke-opacity: 1; stroke-width: 0px;"/></g><g class="legendsymbols"><g class="legendpoints"/></g></g><rect class="legendtoggle" x="0" y="-9.5" width="101.78125" height="19" style="fill: rgb(0, 0, 0); fill-opacity: 0;"/></g><g class="traces" transform="translate(104.28125,14.5)" style="opacity: 1;"><text class="legendtext" text-anchor="start" x="40" y="4.680000000000001" style="font-family: 'Open Sans', verdana, arial, sans-serif; font-size: 12px; fill: rgb(214, 223, 239); fill-opacity: 1; white-space: pre;">BNBUSDT</text><g class="layers"><g class="legendfill"><path class="js-fill" d="M5,-2h30v6h-30z" style="stroke-width: 0; fill: rgb(255, 127, 14); fill-opacity: 0.8;"/></g><g class="legendlines"><path class="js-line" d="M5,-2h30" style="fill: none; stroke: rgb(255, 127, 14); stroke-opacity: 1; stroke-width: 0px;"/></g><g class="legendsymbols"><g class="legendpoints"/></g></g><rect class="legendtoggle" x="0" y="-9.5" width="101.5625" height="19" style="fill: rgb(0, 0, 0); fill-opacity: 0;"/></g><g class="traces" transform="translate(208.34375,14.5)" style="opacity: 1;"><text class="legendtext" text-anchor="start" x="40" y="4.680000000000001" style="font-family: 'Open Sans', verdana, arial, sans-serif; font-size: 12px; fill: rgb(214, 223, 239); fill-opacity: 1; white-space: pre;">BTCUSDT</text><g class="layers"><g class="legendfill"><path class="js-fill" d="M5,-2h30v6h-30z" style="stroke-width: 0; fill: rgb(44, 160, 44); fill-opacity: 0.8;"/></g><g class="legendlines"><path class="js-line" d="M5,-2h30" style="fill: none; stroke: rgb(44, 160, 44); stroke-opacity: 1; stroke-width: 0px;"/></g><g class="legendsymbols"><g class="legendpoints"/></g></g><rect class="legendtoggle" x="0" y="-9.5" width="100.140625" height="19" style="fill: rgb(0, 0, 0); fill-opacity: 0;"/></g><g class="traces" transform="translate(310.984375,14.5)" style="opacity: 1;"><text class="legendtext" text-anchor="start" x="40" y="4.680000000000001" style="font-family: 'Open Sans', verdana, arial, sans-serif; font-size: 12px; fill: rgb(214, 223, 239); fill-opacity: 1; white-space: pre;">ETHUSDT</text><g class="layers"><g class="legendfill"><path class="js-fill" d="M5,-2h30v6h-30z" style="stroke-width: 0; fill: rgb(214, 39, 40); fill-opacity: 0.8;"/></g><g class="legendlines"><path class="js-line" d="M5,-2h30" style="fill: none; stroke: rgb(220, 57, 18); stroke-opacity: 1; stroke-width: 0px;"/></g><g class="legendsymbols"><g class="legendpoints"/></g></g><rect class="legendtoggle" x="0" y="-9.5" width="100.140625" height="19" style="fill: rgb(0, 0, 0); fill-opacity: 0;"/></g><g class="traces" transform="translate(413.625,14.5)" style="opacity: 1;"><text class="legendtext" text-anchor="start" x="40" y="4.680000000000001" style="font-family: 'Open Sans', verdana, arial, sans-serif; font-size: 12px; fill: rgb(214, 223, 239); fill-opacity: 1; white-space: pre;">XRPUSDT</text><g class="layers"><g class="legendfill"><path class="js-fill" d="M5,-2h30v6h-30z" style="stroke-width: 0; fill: rgb(148, 103, 189); fill-opacity: 0.8;"/></g><g class="legendlines"><path class="js-line" d="M5,-2h30" style="fill: none; stroke: rgb(148, 103, 189); stroke-opacity: 1; stroke-width: 0px;"/></g><g class="legendsymbols"><g class="legendpoints"/></g></g><rect class="legendtoggle" x="0" y="-9.5" width="99.9375" height="19" style="fill: rgb(0, 0, 0); fill-opacity: 0;"/></g></g></g><rect class="scrollbar" rx="20" ry="3" width="0" height="0" x="0" y="0" style="fill: rgb(128, 139, 164); fill-opacity: 1;"/></g><g class="g-gtitle"/><g class="g-xtitle"/><g class="g-ytitle"/></g></svg>