<svg class="main-svg" xmlns="http://www.w3.org/2000/svg" xmlns:xlink="http://www.w3.org/1999/xlink" width="750" height="960" style="" viewBox="0 0 750 960"><rect x="0" y="0" width="750" height="960" style="fill: rgb(33, 34, 44); fill-opacity: 1;"/><defs id="defs-768297"><g class="clips"><clipPath id="clip768297xyplot" class="plotclip"><rect width="625" height="254.22222222222223"/></clipPath><clipPath id="clip768297x2y2plot" class="plotclip"><rect width="625" height="254.22222222222214"/></clipPath><clipPath id="clip768297x3y3plot" class="plotclip"><rect width="625" height="254.2222222222222"/></clipPath><clipPath class="axesclip" id="clip768297x"><rect x="95" y="0" width="625" height="960"/></clipPath><clipPath class="axesclip" id="clip768297y"><rect x="0" y="76" width="750" height="254.22222222222223"/></clipPath><clipPath class="axesclip" id="clip768297xy"><rect x="95" y="76" width="625" height="254.22222222222223"/></clipPath><clipPath class="axesclip" id="clip768297y2"><rect x="0" y="364.88888888888897" width="750" height="254.22222222222214"/></clipPath><clipPath class="axesclip" id="clip768297xy2"><rect x="95" y="364.88888888888897" width="625" height="254.22222222222214"/></clipPath><clipPath class="axesclip" id="clip768297y3"><rect x="0" y="653.7777777777777" width="750" height="254.2222222222222"/></clipPath><clipPath class="axesclip" id="clip768297xy3"><rect x="95" y="653.7777777777777" width="625" height="254.2222222222222"/></clipPath><clipPath class="axesclip" id="clip768297x2"><rect x="95" y="0" width="625" height="960"/></clipPath><clipPath class="axesclip" id="clip768297x2y"><rect x="95" y="76" width="625" height="254.22222222222223"/></clipPath><clipPath class="axesclip" id="clip768297x2y2"><rect x="95" y="364.88888888888897" width="625" height="254.22222222222214"/></clipPath><clipPath class="axesclip" id="clip768297x2y3"><rect x="95" y="653.7777777777777" width="625" height="254.2222222222222"/></clipPath><clipPath class="axesclip" id="clip768297x3"><rect x="95" y="0" width="625" height="960"/></clipPath><clipPath class="axesclip" id="clip768297x3y"><rect x="95" y="76" width="625" height="254.22222222222223"/></clipPath><clipPath class="axesclip" id="clip768297x3y2"><rect x="95" y="364.88888888888897" width="625" height="254.22222222222214"/></clipPath><clipPath class="axesclip" id="clip768297x3y3"><rect x="95" y="653.7777777777777" width="625" height="254.2222222222222"/></clipPath></g><g class="gradients"/><g class="patterns"/></defs><g class="bglayer"/><g class="layer-below"><g class="imagelayer"/><g class="shapelayer"/></g><g class="cartesianlayer"><g class="subplot xy"><g class="layer-subplot"><g class="shapelayer"/><g class="imagelayer"/></g><g class="gridlayer"><g class="x"><path class="xgrid crisp" transform="translate(164.68,0)" d="M0,76v254.22222222222223" style="stroke: rgb(47, 62, 78); stroke-opacity: 1; stroke-width: 1px;"/><path class="xgrid crisp" transform="translate(277.68,0)" d="M0,76v254.22222222222223" style="stroke: rgb(47, 62, 78); stroke-opacity: 1; stroke-width: 1px;"/><path class="xgrid crisp" transform="translate(390.67,0)" d="M0,76v254.22222222222223" style="stroke: rgb(47, 62, 78); stroke-opacity: 1; stroke-width: 1px;"/><path class="xgrid crisp" transform="translate(503.97,0)" d="M0,76v254.22222222222223" style="stroke: rgb(47, 62, 78); stroke-opacity: 1; stroke-width: 1px;"/><path class="xgrid crisp" transform="translate(616.96,0)" d="M0,76v254.22222222222223" style="stroke: rgb(47, 62, 78); stroke-opacity: 1; stroke-width: 1px;"/></g><g class="y"><path class="ygrid crisp" transform="translate(0,290.41999999999996)" d="M95,0h625" style="stroke: rgb(47, 62, 78); stroke-opacity: 1; stroke-width: 1px;"/><path class="ygrid crisp" transform="translate(0,255.36)" d="M95,0h625" style="stroke: rgb(47, 62, 78); stroke-opacity: 1; stroke-width: 1px;"/><path class="ygrid crisp" transform="translate(0,220.29)" d="M95,0h625" style="stroke: rgb(47, 62, 78); stroke-opacity: 1; stroke-width: 1px;"/><path class="ygrid crisp" transform="translate(0,185.23000000000002)" d="M95,0h625" style="stroke: rgb(47, 62, 78); stroke-opacity: 1; stroke-width: 1px;"/><path class="ygrid crisp" transform="translate(0,150.16)" d="M95,0h625" style="stroke: rgb(47, 62, 78); stroke-opacity: 1; stroke-width: 1px;"/><path class="ygrid crisp" transform="translate(0,115.1)" d="M95,0h625" style="stroke: rgb(47, 62, 78); stroke-opacity: 1; stroke-width: 1px;"/><path class="ygrid crisp" transform="translate(0,80.04)" d="M95,0h625" style="stroke: rgb(47, 62, 78); stroke-opacity: 1; stroke-width: 1px;"/></g></g><g class="zerolinelayer"><path class="yzl zl crisp" transform="translate(0,325.48)" d="M95,0h625" style="stroke: rgb(47, 62, 78); stroke-opacity: 1; stroke-width: 2px;"/></g><path class="xlines-below"/><path class="ylines-below"/><g class="overlines-below"/><g class="xaxislayer-below"/><g class="yaxislayer-below"/><g class="overaxes-below"/><g class="plot" transform="translate(95,76)" clip-path="url(#clip768297xyplot)"><g class="scatterlayer mlayer"><g class="trace scatter trace8ae0e757-46e7-4f35-9fff-35179ec1f842" style="stroke-miterlimit: 2; opacity: 1;"><g class="fills"/><g class="errorbars"/><g class="lines"><path class="js-line" d="M27.27,234.46L28.51,235.4L28.82,235.32L31.92,232.53L32.23,233.8L32.54,233.67L32.84,235.11L33.77,233.03L34.08,234.47L35.32,234.89L35.63,235.65L35.94,238.3L36.25,236.51L36.56,236.46L36.87,236.51L37.18,235.34L38.42,236.88L38.73,236.23L39.04,236.65L39.35,235.74L39.66,235.87L39.96,234.78L40.58,234.85L40.89,234.13L43.06,233.98L43.37,233.22L44.3,232.58L44.61,230.45L45.23,228.9L45.85,229.29L46.16,229.87L46.47,230.16L46.78,229.55L47.08,228.41L48.01,228.74L48.32,230.28L48.94,228.93L49.25,229.26L49.56,229.43L51.11,224.87L51.42,224.54L52.04,223.73L52.35,225.08L52.97,223.88L53.28,224.66L53.59,226.67L54.2,229.11L54.51,226.81L54.82,226.43L55.13,224.1L55.44,221.91L56.06,222.27L56.37,221.3L57.3,220.71L57.61,221.36L57.92,220.95L58.23,218.98L59.16,214.78L59.47,215.52L59.78,214.99L61.02,208.88L61.32,208.46L61.94,191.28L62.25,193.8L62.56,198.09L62.87,197.24L63.18,191.32L63.8,193.27L64.11,192.21L64.42,187.98L64.73,182.5L65.35,183.37L65.66,188.84L66.9,202.85L67.21,202.15L67.52,201.45L67.83,194.47L68.14,195.28L68.45,199.76L68.75,199.07L69.06,205.86L70.3,197.17L70.61,196.68L71.23,189.63L71.54,192.86L72.78,203.06L73.09,201.31L73.4,199.66L73.71,202.24L74.02,202.01L74.33,211.26L74.95,211.05L75.26,209.25L75.57,204.6L75.87,209.06L76.18,211.76L76.49,211.62L76.8,209.69L77.42,210.6L77.73,209.19L78.04,207.83L78.35,210.03L79.59,218.37L79.9,217.23L80.52,225.15L80.83,222.65L81.14,222.84L81.45,222.19L81.76,219.04L82.38,221.21L82.69,218.27L82.99,219.54L83.3,216.35L84.85,210.38L85.16,210.21L86.4,215.49L86.71,215.86L87.95,211.19L88.26,210.78L88.88,209.11L89.19,209.32L89.5,211.91L90.73,218.73L91.04,216.06L92.9,222.05L93.21,220.77L93.83,218.24L94.14,218.33L94.45,218.9L94.76,218.28L95.07,219.52L95.69,220.96L96,222.15L96.31,221.61L96.62,224.62L97.54,225.6L97.85,224.74L98.16,223.52L98.47,225.65L99.09,226.34L99.4,225.31L99.71,224.88L100.02,225.7L100.33,225.49L100.64,225.1L100.95,221.7L101.57,221.44L101.88,220.19L102.5,221.84L102.81,220.83L103.12,220.46L103.74,218.22L104.05,218.67L104.35,218.16L104.66,215.75L104.97,218.38L105.28,216.99L105.59,218.22L105.9,216.71L106.21,216.46L106.83,217.68L107.14,217.06L107.45,215.3L108.38,215.62L108.69,216.65L109.62,217.92L109.93,220.03L110.86,219.11L111.17,219.81L111.78,221.29L112.09,220.59L112.4,220.61L112.71,219.59L113.02,220.1L113.33,221.51L114.26,223.34L114.57,223.77L114.88,223.75L115.19,224.59L116.12,223.24L116.43,223.11L117.05,222.44L117.36,223.23L118.29,222.52L118.6,222.82L118.9,223.22L119.21,225.76L119.52,225.39L119.83,226.59L120.14,227.42L120.45,226.22L120.76,227.08L121.07,226.75L121.38,226.87L121.69,225.95L122.62,225.93L122.93,228.29L123.86,227.56L124.17,228.2L124.48,227.98L124.79,228.96L126.02,226.29L126.33,226.64L127.88,225.95L128.19,226.12L129.12,227.57L129.43,227.69L130.05,227.21L130.36,225.91L131.29,223.31L131.6,223.76L132.22,223.56L132.53,222.41L132.84,220.04L133.14,220.82L133.45,221.71L134.38,220.69L134.69,220.82L136.24,224.91L136.55,224.86L137.17,225.92L137.48,227.45L137.79,226.59L138.1,227.94L138.41,227.63L139.65,227.51L139.96,227.35L140.26,226.4L140.88,226.77L141.19,227.55L142.43,226.06L142.74,225.87L143.05,225.99L143.36,225.26L144.29,224.99L144.6,224.9L145.84,223.68L146.15,225.99L147.08,227.8L147.38,227.57L147.69,227.35L148.31,227.26L148.62,226.74L149.55,226.68L149.86,227.57L151.72,225.96L152.03,226.41L152.65,226.82L152.96,226.03L154.81,226.66L155.12,226.36L156.98,226.23L157.29,227.56L158.22,227.26L158.53,225.81L159.46,226.28L159.77,226.59L161.01,226.51L161.32,226.46L163.79,227.01L164.1,226.92L165.03,226.8L165.34,226.63L165.96,226.76L166.27,226.97L167.51,226.84L167.82,228.72L169.05,229.63L169.36,232.27L170.29,234.16L170.6,233.98L171.53,235.94L171.84,235.9L172.46,234.42L172.77,235.31L173.39,234.89L173.7,235.87L174.01,235.63L174.32,236.27L174.63,237.18L175.25,237.52L175.56,237.05L177.41,238.22L177.72,238.16L178.96,235.29L179.27,236.02L180.2,235.43L180.51,236.35L180.82,236.24L181.13,236.97L182.06,236.15L182.37,236.5L183.6,236.19L183.91,236.26L184.84,235.62L185.15,235.58L186.08,236.92L186.39,237.29L187.32,236.89L187.63,236.8L192.27,237.35L192.58,237.2L194.13,237.57L194.44,236.65L197.23,236.62L197.53,235.81L199.08,235.05L199.39,236.36L200.63,236.11L200.94,236.08L203.11,235.93L203.42,235.66L205.27,235.73L205.58,235.44L208.68,235.64L208.99,235.33L210.54,234.95L210.85,232.45L213.32,230.87L213.63,231.89L217.66,230.5L217.97,231.18L218.89,230.87L219.2,231.12L222.3,227.71L222.61,227.14L223.85,221.62L224.16,220.84L225.09,224.04L225.4,220.91L226.32,222.74L226.63,221.95L226.94,221.56L227.25,221.34L227.56,219.28L228.18,218.92L228.49,219.17L228.8,220.49L229.73,218.89L230.04,221.03L230.35,222.53L230.97,222.18L231.28,221.5L231.9,222.74L232.21,221.49L232.52,221.84L232.83,220.99L233.14,220.67L233.44,219.15L235.3,216.11L235.61,213.86L237.16,203.57L237.47,209.76L237.78,206L238.09,207.75L238.4,211.43L238.71,212.23L239.02,211.47L239.33,207.62L239.95,211.02L240.26,210.01L240.56,209.49L241.18,205.5L241.49,207.03L241.8,209.71L242.11,208.26L242.42,209.67L242.73,213.81L243.04,211.48L243.35,216.39L243.66,215.59L243.97,212.22L245.21,213.23L245.52,214.89L247.38,216.15L247.68,215.91L249.54,208.01L249.85,209.23L250.47,207.41L250.78,207.83L251.09,209.83L251.4,208.99L251.71,209.53L252.02,211.29L252.33,214.24L252.95,213.26L253.26,213.66L253.57,213.34L253.88,211.21L254.19,211.75L254.5,213.92L254.8,214.07L255.11,213.05L255.73,213.92L256.04,213.12L256.97,216.18L257.59,215.87L257.9,215.39L258.52,212.26L258.83,212.43L259.14,212.44L259.45,213.37L260.07,213.08L260.38,213.36L260.69,214.08L261,213.87L261.31,212.97L263.16,213.87L263.47,213.56L264.71,215.46L265.02,219.7L265.33,219.93L265.64,221.21L266.26,220.74L266.57,221.28L267.5,220.17L267.81,220.65L268.74,221.94L269.04,220.77L269.35,220.84L269.66,219.47L269.97,219.48L270.28,220.53L271.21,220.21L271.52,220.87L272.76,221.62L273.07,220.65L273.69,221.36L274,223.3L274.31,223.49L274.62,219.14L275.24,216.07L275.55,217.21L275.86,216.5L276.47,217.43L276.78,217.11L277.09,216.91L278.02,216.84L278.33,216.74L279.26,218.6L279.57,217.79L280.5,218.71L280.81,219.17L282.36,220.96L282.67,221.09L283.9,225.28L284.21,224.56L284.52,224.39L284.83,223.16L285.14,223.47L285.45,222.35L287,224.26L287.31,223.58L288.24,223.15L288.55,223.75L289.48,224.25L289.79,224.03L291.02,226.26L291.33,223.97L292.26,224.47L292.57,223.18L293.81,224.23L294.12,224.05L294.74,223.58L295.05,224.08L295.36,224.26L295.67,224.24L295.98,225.06L297.53,220.92L297.83,221.24L298.14,222.07L298.45,220.74L298.76,221.36L299.38,221.05L299.69,218.59L300.93,218.22L301.24,218.97L303.1,220.24L303.41,219.28L304.65,216.13L304.95,216.69L305.88,216.9L306.19,217.24L307.43,214.79L307.74,213.89L308.05,214.94L308.36,213.64L308.67,213.28L308.98,213.62L309.29,213.21L309.6,214.75L309.91,214.71L310.22,215.45L310.53,213.84L310.84,215.85L311.15,215.84L312.07,214.64L312.38,215.63L313.93,219.6L314.24,219.57L314.55,218.22L315.17,218.8L315.48,217.74L315.79,217.46L316.1,218.32L317.03,221.8L317.34,221.66L317.65,232.65L318.27,231.35L318.58,230.69L318.89,231.85L319.19,230.86L319.5,230.57L320.12,227.72L320.43,227.79L320.74,229.09L321.36,225.84L321.67,226.07L321.98,225.86L322.91,228.86L323.22,227.06L323.53,227.01L323.84,226.19L324.77,225.44L325.08,225.74L326.01,223.67L326.31,223.95L326.93,225.37L327.24,225.28L327.55,225.51L327.86,225.4L328.17,226.27L329.1,224.07L329.41,224.52L330.03,225.5L330.34,224.5L331.58,222.51L331.89,222.22L332.2,222.35L332.51,218.7L332.82,219.26L333.13,218.53L333.43,218.03L334.05,218.38L334.36,217.85L334.67,217.43L334.98,214.47L335.29,215.12L335.6,216.04L336.22,219.46L336.53,218.59L336.84,216.84L337.15,215.15L337.46,216.82L337.77,216.59L338.7,215.21L339.01,216.13L340.25,218.91L340.56,218.28L340.86,218.48L341.17,217.21L342.1,215.48L342.41,216.36L342.72,213.72L343.03,216.11L343.34,215.59L343.65,215.16L343.96,215.75L344.27,215.59L345.51,214.82L345.82,216.94L346.44,216.27L346.75,216.73L347.06,216.43L347.68,216.3L347.98,216.57L348.91,216.89L349.22,215.52L349.53,215.74L349.84,216.89L351.08,217.52L351.39,217.25L353.25,217.68L353.56,216.72L354.8,216.92L355.1,217.11L356.03,217.03L356.34,217.23L357.27,217.33L357.58,217.19L357.89,217.36L358.2,216.56L359.75,214.66L360.06,210.81L360.37,211.24L360.68,210.56L360.99,210.56L361.61,208.11L361.92,210.66L363.15,208.24L363.46,208.83L364.39,207.78L364.7,209.54L366.56,206.42L366.87,207.6L367.8,209.05L368.11,208.59L368.42,208.64L368.73,208.29L369.04,209.8L369.96,209.07L370.27,209.28L371.2,207.68L371.51,209.55L371.82,213.93L372.44,213.84L372.75,213.52L373.06,213.11L373.37,213.98L375.54,211.67L375.85,211.08L377.08,211.19L377.39,212.96L377.7,212.56L378.01,213.57L378.94,211.87L379.25,211.71L381.11,212.52L381.42,212.08L381.73,211.64L382.04,212.32L382.35,212.08L383.89,209.06L384.2,209.44L385.75,209.15L386.06,208.28L386.37,207.72L386.68,204.67L387.61,203.51L387.92,203.8L388.23,203.72L388.54,201.67L388.85,202.97L389.16,202.3L389.47,201.94L390.09,201.23L390.4,201.98L391.63,194.86L391.94,197.53L392.25,195.22L392.87,195.85L393.18,194.49L393.8,192.26L394.11,193.14L394.42,193.53L395.97,184.07L396.28,183.9L396.9,185.08L397.21,182.3L397.52,183.85L397.83,189.35L398.13,189.39L398.44,187.35L399.06,180.42L399.37,183.69L399.99,181.38L400.3,184.09L400.92,181.6L401.23,182.28L401.54,185.23L401.85,184.47L402.16,185.48L402.47,186.24L404.95,165.96L405.25,167.24L405.56,169.82L407.11,156.59L407.42,157.33L408.97,146.64L409.28,136.65L409.9,137.32L410.21,130.44L410.52,120.56L411.14,107.18L411.45,108.92L411.76,115.71L412.37,130.09L412.68,118.45L412.99,112.23L413.3,120.65L413.61,123.27L413.92,123.85L414.23,121.04L414.85,125.12L415.16,141.31L415.47,133.97L416.09,136.37L416.4,136.39L416.71,135.64L417.02,143.01L417.95,129.34L418.26,133.45L418.57,131.93L418.88,125.13L420.11,112.08L420.42,113.45L421.04,86.72L421.35,92.37L421.66,81.28L422.28,84.14L422.59,79.15L422.9,81.49L423.21,77.2L424.76,48.19L425.07,59.83L426,84.42L426.31,87.22L426.61,87.82L426.92,91.22L427.85,72.94L428.16,79.87L428.78,78.08L429.09,70.76L430.95,34.93L431.26,42.72L431.57,54.51L431.88,49.97L432.19,42.91L432.5,47.35L433.12,45.75L433.43,48.39L434.66,69.63L434.97,56.54L436.52,43.52L436.83,43.59L437.14,42.78L437.45,49.44L437.76,45.4L438.07,42.15L438.69,53.29L439,45.84L439.31,45.61L439.62,39.91L439.93,39.09L440.24,39.59L440.55,26.56L441.47,34.42L441.78,39.08L443.02,60.88L443.33,68.23L444.26,77.44L444.57,60.13L444.88,56.59L445.19,57.17L445.5,61.7L446.12,46.81L446.43,51.1L446.74,49.03L447.05,62.94L447.36,48.09L447.67,51.75L448.28,43.09L448.59,45.27L448.9,53.77L449.21,50.78L449.52,75.46L450.14,74.72L450.45,85.51L450.76,86.68L451.07,96.82L451.38,99.24L451.69,120.83L452,107.38L452.31,118.86L452.62,118.17L452.93,127.97L453.24,113.45L453.55,115.1L453.86,111.89L454.17,114.38L454.48,124.43L454.79,128.14L455.1,124.51L455.4,118.86L455.71,120.82L456.02,117.75L456.33,111.87L456.64,120.35L457.88,132.44L458.19,118.39L459.12,124.85L459.43,112.66L459.74,107.42L460.05,108.72L460.36,115.02L460.67,115.92L460.98,123.89L461.29,125.06L461.6,124.66L461.91,138.65L462.83,127.94L463.14,138.74L463.45,136.28L463.76,127.81L464.07,128.53L464.38,123.56L465,132L465.31,131.02L465.62,127.92L465.93,125.76L466.24,131.35L466.55,129.5L466.86,130.75L467.17,134.21L468.1,129.36L468.41,133.47L469.64,139.44L469.95,138.96L470.26,138.06L470.88,145.03L471.19,136.77L471.5,136.27L471.81,131.55L472.43,125.42L472.74,118.91L473.98,101.49L474.29,104.1L475.22,115.51L475.53,110.2L477.07,87.3L477.38,89.64L477.69,89.9L478,93.8L478.31,81.88L479.86,92.73L480.17,85.52L480.48,76.54L481.1,76.83L481.41,75.96L482.34,85.23L482.65,77.43L483.27,78.48L483.58,84.74L483.88,84.33L484.19,78.33L484.81,74.17L485.12,74.46L485.43,68L485.74,64.82L486.05,85.16L486.98,92.22L487.29,91.09L487.6,88.1L487.91,91.9L488.22,84.29L488.53,80.75L488.84,82.1L489.15,83.63L489.46,80.15L489.77,83.84L490.08,98.65L490.39,106.65L490.7,96.8L491,92.17L491.62,99.86L491.93,98.14L492.24,101.7L492.55,105.63L492.86,103.88L493.17,95.82L494.1,80.48L494.41,76.88L495.03,55.53L495.34,60.89L495.65,60.31L496.58,47.97L496.89,53.14L497.82,33.24L498.43,33.74L498.74,32.05L499.36,18.06L499.67,31.41L499.98,36.69L500.6,36.11L500.91,28.3L501.53,44.66L501.84,37.08L502.15,31.2L503.08,35.91L503.39,27.81L503.7,28.94L504.01,34.21L504.32,35.81L504.63,33.94L504.94,27.62L505.25,12.71L505.55,14.74L505.86,21.98L506.17,22.36L506.48,24.65L506.79,23.74L507.1,19.75L508.34,50L508.65,45.93L508.96,40.13L509.58,52.26L509.89,47.72L510.2,49.13L510.51,42.75L510.82,61.1L511.75,46.9L512.06,49.79L512.37,48.97L512.67,51.44L512.98,61.54L513.29,77.14L513.91,72.61L514.22,72.1L514.53,72.51L514.84,82.77L515.15,84.19L515.46,76.3L515.77,73.97L516.08,85.73L516.7,78.14L517.01,82.47L517.32,87.73L517.94,85.8L518.25,84.98L519.18,71.22L519.49,71.29L519.79,72.76L520.1,71.44L520.41,71.7L520.72,82.78L521.65,87.43L521.96,82.15L522.89,88.78L523.2,97.13L523.51,98.42L523.82,103.74L524.75,102.84L525.06,99.66L525.37,95.54L525.68,100.25L525.99,98.5L526.61,98.46L526.91,101.51L527.22,100.98L527.53,103.41L527.84,106.84L528.15,121.69L528.46,126.51L528.77,122.4L529.08,120.94L531.56,113.81L531.87,120.11L532.18,118.65L532.49,103.71L532.8,104.38L533.11,100.88L534.03,93.9L534.34,96.97L535.27,102.03L535.58,100.34L535.89,93.29L536.2,95.65L536.51,107.42L537.44,114.88L537.75,119.72L538.99,111.97L539.3,112.33L539.61,117.3L539.92,98.15L540.23,93.73L540.54,95.58L540.85,100.62L541.77,114.77L542.08,116.28L542.39,113.68L542.7,102.42L543.94,117.02L544.25,110.38L544.56,111.75L544.87,105.32L545.18,106.01L545.49,103.07L545.8,101.51L546.11,104.8L546.42,105.71L546.73,100.94L547.97,93.41L548.27,85.29L548.89,83.16L549.2,84.44L549.51,89.91L550.44,86.76L550.75,86.15L551.99,101.33L552.3,99.57L552.61,101.66L552.92,110.87L553.54,105.2L553.85,109.43L554.16,107.29L554.47,107.9L554.78,110.36L555.4,103.99L555.7,104.47L556.01,107.55L556.94,111.16L557.25,107.73L557.56,115.85L557.87,111.91L558.18,110.13L558.8,117.54L559.11,114.6L559.42,114.4L559.73,117.19L560.04,110.32L561.59,144.02L561.9,140.73L562.52,147.69L562.82,146.79L563.13,143.99L563.44,139.63L563.75,144.73L564.06,142.73L564.37,148.8L564.99,147.09L565.3,146.24L565.61,143.26L565.92,147.42L566.23,145.5L566.85,147.09L567.16,149.1L567.78,146.16L568.09,138.21L568.4,137.98L568.71,144.97L569.02,142.71L569.33,145.34L569.64,144.77L569.94,144.58L570.25,139.48L570.56,140.35L570.87,143.57L571.18,143.91L571.49,147.48L572.11,156.3L572.42,170.63L572.73,171.87L573.04,170.3L573.35,177.95L573.66,177.71L573.97,182.97L574.9,176.82L575.21,179.4L576.14,174.13L576.45,175.72L578.3,181.98L578.61,181.76L578.92,178.53L579.23,178.74L579.54,177.38L579.85,173.66L580.47,173.77L580.78,176.33L581.4,181.71L581.71,178.53L582.02,177.29L582.64,175.16L582.95,176.56L583.57,167.45L583.88,168.05L584.18,168.3L585.73,174.96L586.04,169L586.35,165.88L586.97,166.58L587.28,167.81L587.59,167.9L587.9,168.88L588.21,167.37" style="vector-effect: non-scaling-stroke; fill: none; stroke: rgb(31, 119, 180); stroke-opacity: 1; stroke-width: 2px; opacity: 1;"/></g><g class="points"/><g class="text"/></g><g class="trace scatter trace82fbbfbf-f787-48d3-a185-5ca2e8b81e1a" style="stroke-miterlimit: 2; opacity: 1;"><g class="fills"/><g class="errorbars"/><g class="lines"/><g class="points"><path class="point plotly-customdata" transform="translate(36.25,236.51)" d="M-4.62,2H4.62L0,-4Z" style="opacity: 1; stroke-width: 1px; fill: rgb(55, 177, 63); fill-opacity: 1; stroke: rgb(38, 123, 44); stroke-opacity: 1;"/><path class="point plotly-customdata" transform="translate(80.83,222.65)" d="M-4.62,2H4.62L0,-4Z" style="opacity: 1; stroke-width: 1px; fill: rgb(55, 177, 63); fill-opacity: 1; stroke: rgb(38, 123, 44); stroke-opacity: 1;"/><path class="point plotly-customdata" transform="translate(168.13,229.31)" d="M-4.62,2H4.62L0,-4Z" style="opacity: 1; stroke-width: 1px; fill: rgb(55, 177, 63); fill-opacity: 1; stroke: rgb(38, 123, 44); stroke-opacity: 1;"/><path class="point plotly-customdata" transform="translate(265.33,219.93)" d="M-4.62,2H4.62L0,-4Z" style="opacity: 1; stroke-width: 1px; fill: rgb(55, 177, 63); fill-opacity: 1; stroke: rgb(38, 123, 44); stroke-opacity: 1;"/><path class="point plotly-customdata" transform="translate(317.96,229.92)" d="M-4.62,2H4.62L0,-4Z" style="opacity: 1; stroke-width: 1px; fill: rgb(55, 177, 63); fill-opacity: 1; stroke: rgb(38, 123, 44); stroke-opacity: 1;"/><path class="point plotly-customdata" transform="translate(451.38,99.24)" d="M-4.62,2H4.62L0,-4Z" style="opacity: 1; stroke-width: 1px; fill: rgb(55, 177, 63); fill-opacity: 1; stroke: rgb(38, 123, 44); stroke-opacity: 1;"/><path class="point plotly-customdata" transform="translate(524.13,103.34)" d="M-4.62,2H4.62L0,-4Z" style="opacity: 1; stroke-width: 1px; fill: rgb(55, 177, 63); fill-opacity: 1; stroke: rgb(38, 123, 44); stroke-opacity: 1;"/><path class="point plotly-customdata" transform="translate(561.9,140.73)" d="M-4.62,2H4.62L0,-4Z" style="opacity: 1; stroke-width: 1px; fill: rgb(55, 177, 63); fill-opacity: 1; stroke: rgb(38, 123, 44); stroke-opacity: 1;"/></g><g class="text"/></g><g class="trace scatter trace2a439aec-1592-411e-8f20-2d4478ba0a84" style="stroke-miterlimit: 2; opacity: 1;"><g class="fills"/><g class="errorbars"/><g class="lines"/><g class="points"><path class="point plotly-customdata" transform="translate(44.92,229.67)" d="M-4.62,-2H4.62L0,4Z" style="opacity: 1; stroke-width: 1px; fill: rgb(234, 67, 53); fill-opacity: 1; stroke: rgb(181, 31, 18); stroke-opacity: 1;"/><path class="point plotly-customdata" transform="translate(132.84,220.04)" d="M-4.62,-2H4.62L0,4Z" style="opacity: 1; stroke-width: 1px; fill: rgb(234, 67, 53); fill-opacity: 1; stroke: rgb(181, 31, 18); stroke-opacity: 1;"/><path class="point plotly-customdata" transform="translate(197.84,235.78)" d="M-4.62,-2H4.62L0,4Z" style="opacity: 1; stroke-width: 1px; fill: rgb(234, 67, 53); fill-opacity: 1; stroke: rgb(181, 31, 18); stroke-opacity: 1;"/><path class="point plotly-customdata" transform="translate(300,218.55)" d="M-4.62,-2H4.62L0,4Z" style="opacity: 1; stroke-width: 1px; fill: rgb(234, 67, 53); fill-opacity: 1; stroke: rgb(181, 31, 18); stroke-opacity: 1;"/><path class="point plotly-customdata" transform="translate(332.82,219.26)" d="M-4.62,-2H4.62L0,4Z" style="opacity: 1; stroke-width: 1px; fill: rgb(234, 67, 53); fill-opacity: 1; stroke: rgb(181, 31, 18); stroke-opacity: 1;"/><path class="point plotly-customdata" transform="translate(473.67,109.17)" d="M-4.62,-2H4.62L0,4Z" style="opacity: 1; stroke-width: 1px; fill: rgb(234, 67, 53); fill-opacity: 1; stroke: rgb(181, 31, 18); stroke-opacity: 1;"/><path class="point plotly-customdata" transform="translate(549.2,84.44)" d="M-4.62,-2H4.62L0,4Z" style="opacity: 1; stroke-width: 1px; fill: rgb(234, 67, 53); fill-opacity: 1; stroke: rgb(181, 31, 18); stroke-opacity: 1;"/></g><g class="text"/></g></g></g><g class="overplot"/><path class="xlines-above crisp" d="M0,0" style="fill: none;"/><path class="ylines-above crisp" d="M0,0" style="fill: none;"/><g class="overlines-above"/><g class="xaxislayer-above"/><g class="yaxislayer-above"><g class="ytick"><text text-anchor="end" x="94" y="4.199999999999999" transform="translate(0,325.48)" style="font-family: 'Open Sans', verdana, arial, sans-serif; font-size: 12px; fill: rgb(214, 223, 239); fill-opacity: 1; white-space: pre; opacity: 1;">0</text></g><g class="ytick"><text text-anchor="end" x="94" y="4.199999999999999" style="font-family: 'Open Sans', verdana, arial, sans-serif; font-size: 12px; fill: rgb(214, 223, 239); fill-opacity: 1; white-space: pre; opacity: 1;" transform="translate(0,290.41999999999996)">10k</text></g><g class="ytick"><text text-anchor="end" x="94" y="4.199999999999999" style="font-family: 'Open Sans', verdana, arial, sans-serif; font-size: 12px; fill: rgb(214, 223, 239); fill-opacity: 1; white-space: pre; opacity: 1;" transform="translate(0,255.36)">20k</text></g><g class="ytick"><text text-anchor="end" x="94" y="4.199999999999999" style="font-family: 'Open Sans', verdana, arial, sans-serif; font-size: 12px; fill: rgb(214, 223, 239); fill-opacity: 1; white-space: pre; opacity: 1;" transform="translate(0,220.29)">30k</text></g><g class="ytick"><text text-anchor="end" x="94" y="4.199999999999999" style="font-family: 'Open Sans', verdana, arial, sans-serif; font-size: 12px; fill: rgb(214, 223, 239); fill-opacity: 1; white-space: pre; opacity: 1;" transform="translate(0,185.23000000000002)">40k</text></g><g class="ytick"><text text-anchor="end" x="94" y="4.199999999999999" style="font-family: 'Open Sans', verdana, arial, sans-serif; font-size: 12px; fill: rgb(214, 223, 239); fill-opacity: 1; white-space: pre; opacity: 1;" transform="translate(0,150.16)">50k</text></g><g class="ytick"><text text-anchor="end" x="94" y="4.199999999999999" style="font-family: 'Open Sans', verdana, arial, sans-serif; font-size: 12px; fill: rgb(214, 223, 239); fill-opacity: 1; white-space: pre; opacity: 1;" transform="translate(0,115.1)">60k</text></g><g class="ytick"><text text-anchor="end" x="94" y="4.199999999999999" style="font-family: 'Open Sans', verdana, arial, sans-serif; font-size: 12px; fill: rgb(214, 223, 239); fill-opacity: 1; white-space: pre; opacity: 1;" transform="translate(0,80.04)">70k</text></g></g><g class="overaxes-above"/></g><g class="subplot x2y2"><g class="layer-subplot"><g class="shapelayer"/><g class="imagelayer"/></g><g class="gridlayer"><g class="x2"><path class="x2grid crisp" transform="translate(164.68,0)" d="M0,364.88888888888897v254.22222222222214" style="stroke: rgb(47, 62, 78); stroke-opacity: 1; stroke-width: 1px;"/><path class="x2grid crisp" transform="translate(277.68,0)" d="M0,364.88888888888897v254.22222222222214" style="stroke: rgb(47, 62, 78); stroke-opacity: 1; stroke-width: 1px;"/><path class="x2grid crisp" transform="translate(390.67,0)" d="M0,364.88888888888897v254.22222222222214" style="stroke: rgb(47, 62, 78); stroke-opacity: 1; stroke-width: 1px;"/><path class="x2grid crisp" transform="translate(503.97,0)" d="M0,364.88888888888897v254.22222222222214" style="stroke: rgb(47, 62, 78); stroke-opacity: 1; stroke-width: 1px;"/><path class="x2grid crisp" transform="translate(616.96,0)" d="M0,364.88888888888897v254.22222222222214" style="stroke: rgb(47, 62, 78); stroke-opacity: 1; stroke-width: 1px;"/></g><g class="y2"><path class="y2grid crisp" transform="translate(0,569.8688888888889)" d="M95,0h625" style="stroke: rgb(47, 62, 78); stroke-opacity: 1; stroke-width: 1px;"/><path class="y2grid crisp" transform="translate(0,471.35888888888894)" d="M95,0h625" style="stroke: rgb(47, 62, 78); stroke-opacity: 1; stroke-width: 1px;"/><path class="y2grid crisp" transform="translate(0,422.10888888888894)" d="M95,0h625" style="stroke: rgb(47, 62, 78); stroke-opacity: 1; stroke-width: 1px;"/><path class="y2grid crisp" transform="translate(0,372.84888888888895)" d="M95,0h625" style="stroke: rgb(47, 62, 78); stroke-opacity: 1; stroke-width: 1px;"/></g></g><g class="zerolinelayer"><path class="y2zl zl crisp" transform="translate(0,520.6188888888889)" d="M95,0h625" style="stroke: rgb(47, 62, 78); stroke-opacity: 1; stroke-width: 2px;"/></g><path class="xlines-below"/><path class="ylines-below"/><g class="overlines-below"/><g class="xaxislayer-below"/><g class="yaxislayer-below"/><g class="overaxes-below"/><g class="plot" transform="translate(95,364.88888888888897)" clip-path="url(#clip768297x2y2plot)"><g class="scatterlayer mlayer"><g class="trace scatter trace578e2dce-b9dd-46aa-bd75-3a15945609b8" style="stroke-miterlimit: 2; opacity: 1;"><g class="fills"/><g class="errorbars"/><g class="lines"/><g class="points"><path class="point plotly-customdata" transform="translate(44.92,25.94)" d="M6.87,0A6.87,6.87 0 1,1 0,-6.87A6.87,6.87 0 0,1 6.87,0Z" style="opacity: 0.894536; stroke-width: 1px; fill: rgb(55, 177, 63); fill-opacity: 1; stroke: rgb(38, 123, 44); stroke-opacity: 1;"/><path class="point plotly-customdata" transform="translate(132.84,131.75)" d="M3.86,0A3.86,3.86 0 1,1 0,-3.86A3.86,3.86 0 0,1 3.86,0Z" style="opacity: 0.765322; stroke-width: 1px; fill: rgb(55, 177, 63); fill-opacity: 1; stroke: rgb(38, 123, 44); stroke-opacity: 1;"/><path class="point plotly-customdata" transform="translate(300,144.29)" d="M3.5,0A3.5,3.5 0 1,1 0,-3.5A3.5,3.5 0 0,1 3.5,0Z" style="opacity: 0.75; stroke-width: 1px; fill: rgb(55, 177, 63); fill-opacity: 1; stroke: rgb(38, 123, 44); stroke-opacity: 1;"/><path class="point plotly-customdata" transform="translate(332.82,21.46)" d="M7,0A7,7 0 1,1 0,-7A7,7 0 0,1 7,0Z" style="opacity: 0.9; stroke-width: 1px; fill: rgb(55, 177, 63); fill-opacity: 1; stroke: rgb(38, 123, 44); stroke-opacity: 1;"/><path class="point plotly-customdata" transform="translate(549.2,123.89)" d="M4.08,0A4.08,4.08 0 1,1 0,-4.08A4.08,4.08 0 0,1 4.08,0Z" style="opacity: 0.774917; stroke-width: 1px; fill: rgb(55, 177, 63); fill-opacity: 1; stroke: rgb(38, 123, 44); stroke-opacity: 1;"/></g><g class="text"/></g><g class="trace scatter tracec7825db2-b39d-4dec-a6c8-2cf41e87c2ee" style="stroke-miterlimit: 2; opacity: 1;"><g class="fills"/><g class="errorbars"/><g class="lines"/><g class="points"><path class="point plotly-customdata" transform="translate(197.84,234.73)" d="M5.43,0A5.43,5.43 0 1,1 0,-5.43A5.43,5.43 0 0,1 5.43,0Z" style="opacity: 0.832512; stroke-width: 1px; fill: rgb(234, 67, 53); fill-opacity: 1; stroke: rgb(181, 31, 18); stroke-opacity: 1;"/><path class="point plotly-customdata" transform="translate(473.67,172.01)" d="M3.64,0A3.64,3.64 0 1,1 0,-3.64A3.64,3.64 0 0,1 3.64,0Z" style="opacity: 0.755924; stroke-width: 1px; fill: rgb(234, 67, 53); fill-opacity: 1; stroke: rgb(181, 31, 18); stroke-opacity: 1;"/></g><g class="text"/></g><g class="trace scatter trace83c191d8-d860-4996-9bf6-6183f79d15db" style="stroke-miterlimit: 2; opacity: 1;"><g class="fills"/><g class="errorbars"/><g class="lines"/><g class="points"><path class="point plotly-customdata" transform="translate(588.21,216.07)" d="M4.89,0A4.89,4.89 0 1,1 0,-4.89A4.89,4.89 0 0,1 4.89,0Z" style="opacity: 0.809727; stroke-width: 1px; fill: rgb(255, 170, 0); fill-opacity: 1; stroke: rgb(178, 118, 0); stroke-opacity: 1;"/></g><g class="text"/></g></g></g><g class="overplot"/><path class="xlines-above crisp" d="M0,0" style="fill: none;"/><path class="ylines-above crisp" d="M0,0" style="fill: none;"/><g class="overlines-above"/><g class="xaxislayer-above"/><g class="yaxislayer-above"><g class="y2tick"><text text-anchor="end" x="94" y="4.199999999999999" transform="translate(0,619.1288888888889)" style="font-family: 'Open Sans', verdana, arial, sans-serif; font-size: 12px; fill: rgb(214, 223, 239); fill-opacity: 1; white-space: pre; opacity: 1;">−40.00%</text></g><g class="y2tick"><text text-anchor="end" x="94" y="4.199999999999999" style="font-family: 'Open Sans', verdana, arial, sans-serif; font-size: 12px; fill: rgb(214, 223, 239); fill-opacity: 1; white-space: pre; opacity: 1;" transform="translate(0,569.8688888888889)">−20.00%</text></g><g class="y2tick"><text text-anchor="end" x="94" y="4.199999999999999" style="font-family: 'Open Sans', verdana, arial, sans-serif; font-size: 12px; fill: rgb(214, 223, 239); fill-opacity: 1; white-space: pre; opacity: 1;" transform="translate(0,520.6188888888889)">0.00%</text></g><g class="y2tick"><text text-anchor="end" x="94" y="4.199999999999999" style="font-family: 'Open Sans', verdana, arial, sans-serif; font-size: 12px; fill: rgb(214, 223, 239); fill-opacity: 1; white-space: pre; opacity: 1;" transform="translate(0,471.35888888888894)">20.00%</text></g><g class="y2tick"><text text-anchor="end" x="94" y="4.199999999999999" style="font-family: 'Open Sans', verdana, arial, sans-serif; font-size: 12px; fill: rgb(214, 223, 239); fill-opacity: 1; white-space: pre; opacity: 1;" transform="translate(0,422.10888888888894)">40.00%</text></g><g class="y2tick"><text text-anchor="end" x="94" y="4.199999999999999" style="font-family: 'Open Sans', verdana, arial, sans-serif; font-size: 12px; fill: rgb(214, 223, 239); fill-opacity: 1; white-space: pre; opacity: 1;" transform="translate(0,372.84888888888895)">60.00%</text></g></g><g class="overaxes-above"/></g><g class="subplot x3y3"><g class="layer-subplot"><g class="shapelayer"/><g class="imagelayer"/></g><g class="gridlayer"><g class="x3"><path class="x3grid crisp" transform="translate(164.68,0)" d="M0,653.7777777777777v254.2222222222222" style="stroke: rgb(47, 62, 78); stroke-opacity: 1; stroke-width: 1px;"/><path class="x3grid crisp" transform="translate(277.68,0)" d="M0,653.7777777777777v254.2222222222222" style="stroke: rgb(47, 62, 78); stroke-opacity: 1; stroke-width: 1px;"/><path class="x3grid crisp" transform="translate(390.67,0)" d="M0,653.7777777777777v254.2222222222222" style="stroke: rgb(47, 62, 78); stroke-opacity: 1; stroke-width: 1px;"/><path class="x3grid crisp" transform="translate(503.97,0)" d="M0,653.7777777777777v254.2222222222222" style="stroke: rgb(47, 62, 78); stroke-opacity: 1; stroke-width: 1px;"/><path class="x3grid crisp" transform="translate(616.96,0)" d="M0,653.7777777777777v254.2222222222222" style="stroke: rgb(47, 62, 78); stroke-opacity: 1; stroke-width: 1px;"/></g><g class="y3"><path class="y3grid crisp" transform="translate(0,889.2177777777777)" d="M95,0h625" style="stroke: rgb(47, 62, 78); stroke-opacity: 1; stroke-width: 1px;"/><path class="y3grid crisp" transform="translate(0,846.0477777777777)" d="M95,0h625" style="stroke: rgb(47, 62, 78); stroke-opacity: 1; stroke-width: 1px;"/><path class="y3grid crisp" transform="translate(0,802.8677777777777)" d="M95,0h625" style="stroke: rgb(47, 62, 78); stroke-opacity: 1; stroke-width: 1px;"/><path class="y3grid crisp" transform="translate(0,759.6977777777777)" d="M95,0h625" style="stroke: rgb(47, 62, 78); stroke-opacity: 1; stroke-width: 1px;"/><path class="y3grid crisp" transform="translate(0,716.5277777777777)" d="M95,0h625" style="stroke: rgb(47, 62, 78); stroke-opacity: 1; stroke-width: 1px;"/><path class="y3grid crisp" transform="translate(0,673.3577777777778)" d="M95,0h625" style="stroke: rgb(47, 62, 78); stroke-opacity: 1; stroke-width: 1px;"/></g></g><g class="zerolinelayer"/><path class="xlines-below"/><path class="ylines-below"/><g class="overlines-below"/><g class="xaxislayer-below"/><g class="yaxislayer-below"/><g class="overaxes-below"/><g class="plot" transform="translate(95,653.7777777777777)" clip-path="url(#clip768297x3y3plot)"><g class="scatterlayer mlayer"><g class="trace scatter trace03ad5d34-c744-4a38-8965-65e689c8d3b3" style="stroke-miterlimit: 2;"><g class="fills"><g><path class="js-fill" d="M27.27,235.44L36.25,235.44L36.56,234.56L36.87,235.44L37.18,215.89L38.42,235.44L38.73,230.77L39.04,235.44L39.35,222.56L39.66,224.8L39.96,206.68L40.58,207.74L40.89,195.85L41.51,195.77L41.82,199.85L42.13,205.77L42.44,200.87L42.75,196.41L43.06,193.26L43.37,180.6L44.3,170.01L44.61,134.51L45.54,121.68L45.85,121.68L80.83,121.68L81.14,123.18L81.45,117.96L81.76,92.57L82.38,110.06L82.69,86.39L82.99,96.63L83.3,70.96L84.85,22.92L85.16,21.57L86.4,64.06L86.71,67.01L87.95,29.5L88.26,26.14L88.88,12.71L89.19,14.43L89.5,35.24L90.73,90.14L91.04,68.6L92.9,116.81L93.21,106.5L93.83,86.19L94.14,86.9L94.45,91.47L94.76,86.53L95.07,96.44L95.38,98.6L95.69,108.08L97.54,145.35L97.85,138.49L98.16,128.64L98.47,145.82L98.78,146.54L99.09,151.32L99.71,139.56L100.02,146.2L100.33,144.48L100.64,141.38L100.95,114.04L101.26,115.32L101.57,111.89L101.88,101.85L102.19,110.03L102.5,115.11L103.74,86.04L104.05,89.66L104.35,85.52L104.66,66.17L104.97,87.32L105.28,76.15L105.59,86.04L105.9,73.84L106.21,71.84L106.83,81.64L107.14,76.66L107.45,62.5L107.76,63.51L108.07,59.28L109.62,83.59L109.93,100.58L110.55,92.69L110.86,93.15L111.17,98.83L111.78,110.69L112.09,105.1L112.4,105.28L112.71,97L113.33,112.51L113.64,125.91L113.95,123.85L114.26,127.18L115.19,137.28L115.5,127.06L115.81,129.47L116.12,126.39L116.43,125.38L117.05,119.92L117.36,126.33L118.29,120.58L118.6,123.05L118.9,126.2L119.21,146.7L119.52,143.68L119.83,153.33L120.14,160.02L120.45,150.34L120.76,157.31L121.38,155.6L121.69,148.18L122.31,146.8L122.62,148L122.93,167.01L123.55,164.42L123.86,161.17L124.79,172.4L125.1,162.7L126.02,150.92L126.33,153.79L126.64,151.72L126.95,153.35L127.26,151.08L127.57,146.93L128.19,149.6L128.5,159.91L128.81,157.62L129.12,161.21L129.43,162.23L129.74,161.17L130.05,158.32L131.29,126.92L131.6,130.55L131.91,128.82L132.22,128.94L132.53,119.73L133.45,100.66L133.76,100.66L168.13,100.66L168.44,104.31L168.74,105.35L169.05,104.09L169.36,132.3L170.29,152.56L170.6,150.66L171.53,171.61L171.84,171.12L172.46,155.34L172.77,164.89L173.08,159.31L173.39,160.4L173.7,170.79L174.01,168.26L174.32,175.08L174.94,188.82L175.25,188.54L175.56,183.5L177.1,195.55L177.41,196.02L177.72,195.38L178.03,184.86L178.96,164.58L179.27,172.49L180.2,166.14L180.51,175.98L180.82,174.78L181.13,182.65L181.44,172.47L182.06,173.87L182.37,177.59L182.99,171.75L183.29,175.19L183.6,174.25L183.91,175.03L184.22,166.91L184.84,168.13L185.15,167.69L185.46,181.98L185.77,181.4L186.08,182.08L186.39,186.07L186.7,180.47L187.32,181.75L187.63,180.84L187.94,181.64L188.25,179L188.87,184.19L189.18,182.54L189.49,183.22L190.41,182.75L190.72,183.29L191.34,188.54L191.65,186.77L191.96,187.67L192.58,185.02L192.89,186.77L193.51,186.27L193.82,188.75L194.13,189.01L194.44,179.23L195.06,178.45L195.37,180.28L195.68,180.27L195.99,181.1L196.3,181.8L196.61,181.36L196.92,180.76L197.23,178.91L197.53,170.25L198.77,169.9L199.08,169.9L265.33,169.9L265.64,179.28L266.26,175.82L266.57,179.79L267.5,171.7L267.81,175.18L268.74,184.64L269.04,176.05L269.35,176.6L269.66,166.55L269.97,166.62L270.28,174.29L271.21,172L271.52,176.83L272.45,182.27L272.76,182.24L273.07,175.19L273.38,175.86L273.69,180.4L274.31,195.96L274.62,164.14L275.24,141.74L275.55,150.05L275.86,144.87L276.47,151.7L276.78,149.38L277.09,147.89L277.4,150.32L277.71,145.24L278.64,149.77L278.95,161.1L279.26,160.19L279.57,154.3L279.88,162.14L280.5,161.01L280.81,164.35L282.36,177.49L282.67,178.4L283.9,208.99L284.21,203.71L284.52,202.52L284.83,193.5L285.14,195.78L285.45,187.58L287,201.54L287.31,196.56L287.62,193.01L288.24,193.46L288.55,197.85L289.48,201.45L289.79,199.9L291.02,216.15L291.33,199.4L292.26,203.12L292.57,193.68L293.81,201.35L294.12,200L294.74,196.58L295.05,200.22L295.36,201.52L295.67,201.38L295.98,207.4L297.53,177.19L297.83,179.48L298.14,185.58L298.45,175.87L298.76,180.4L299.07,176.18L299.38,178.09L300.31,159.88L300.62,159.88L317.96,159.88L318.27,175.61L318.58,168.29L318.89,181.15L320.12,135.51L320.43,136.34L320.74,150.69L321.36,114.76L321.67,117.36L321.98,115.04L322.91,148.16L323.22,128.32L323.53,127.69L323.84,118.7L324.77,110.42L325.08,113.67L326.01,90.9L326.31,93.91L326.62,110.34L327.24,108.6L327.55,111.15L327.86,109.96L328.17,119.54L329.1,95.26L329.41,100.21L329.72,111.58L330.03,111.02L330.34,100.04L331.58,78.06L331.89,74.91L332.2,76.29L332.51,36.06L333.43,42.2L333.74,42.2L451.38,42.2L451.69,73.23L452,53.9L452.31,70.4L452.62,69.4L452.93,83.48L453.24,62.62L453.55,64.99L453.86,60.37L454.17,63.96L454.48,78.4L454.79,83.73L455.1,78.51L455.4,70.39L455.71,73.21L456.02,68.8L456.33,60.35L456.64,72.53L457.88,89.9L458.19,69.71L459.12,78.99L459.43,61.49L459.74,53.95L460.05,55.83L460.36,64.87L460.67,66.16L460.98,77.61L461.29,79.3L461.6,78.72L461.91,98.82L462.83,83.44L463.14,98.95L463.45,95.43L463.76,83.25L464.07,84.29L464.38,77.15L465,89.27L465.31,87.85L465.62,83.41L465.93,80.3L466.24,88.34L466.55,85.67L466.86,87.47L467.17,92.44L468.1,85.47L468.41,91.38L469.64,99.96L469.95,99.27L470.26,97.97L470.88,107.98L471.19,96.13L471.5,95.4L471.81,88.62L472.43,79.82L472.74,70.47L473.36,56.46L473.67,56.47L473.98,56.47L524.13,56.47L524.44,55.51L524.75,55.73L525.06,51.04L525.37,44.96L525.68,51.91L525.99,49.32L526.61,49.26L526.91,53.77L527.22,52.99L527.53,56.57L527.84,61.64L528.15,83.58L528.46,90.69L528.77,84.62L529.08,82.47L531.56,71.93L531.87,81.24L532.18,79.09L532.49,57.02L532.8,58.01L533.11,52.84L534.03,42.52L534.34,47.07L535.27,54.53L535.58,52.04L535.89,41.63L536.2,45.11L536.51,62.5L537.44,73.52L537.75,80.66L538.99,69.21L539.3,69.74L539.61,77.09L539.92,48.81L540.23,42.27L540.54,45.01L540.85,52.46L541.77,73.35L542.08,75.59L542.39,71.74L542.7,55.11L543.94,76.68L544.25,66.87L544.56,68.9L544.87,59.4L545.18,60.42L545.49,56.07L545.8,53.77L546.11,58.63L546.42,59.98L546.73,52.93L547.97,41.81L548.27,29.81L548.89,26.67L549.2,28.57L549.51,28.57L561.9,28.57L562.21,41.88L562.52,42.4L562.82,40.61L563.44,26.4L563.75,36.52L564.06,32.55L564.37,44.58L564.68,33.42L564.99,41.2L565.3,39.51L565.61,33.6L565.92,41.84L566.23,38.05L566.85,41.2L567.16,45.18L567.78,39.35L568.09,23.58L568.4,23.11L568.71,37L569.02,32.49L569.33,37.73L569.64,36.59L569.94,36.21L570.25,26.09L570.56,27.81L570.87,34.22L571.18,34.88L571.49,41.96L572.11,59.48L572.42,87.93L572.73,90.37L573.04,87.26L573.35,102.44L573.66,101.97L573.97,112.4L574.9,100.2L575.21,105.32L576.14,94.86L576.45,98.01L578.3,110.44L578.61,110L578.92,103.59L579.23,104.01L579.54,101.31L579.85,93.93L580.47,94.16L580.78,99.23L581.4,109.91L581.71,103.6L582.02,101.14L582.64,96.92L582.95,99.68L583.57,81.6L583.88,82.8L584.18,83.3L585.73,96.5L586.04,84.69L586.35,78.49L586.97,79.88L587.28,82.32L587.59,82.49L587.9,84.44L588.21,81.46L588.21,235.44L27.27,235.44Z" style="fill: rgb(0, 128, 0); fill-opacity: 0.25; stroke-width: 0;"/></g></g><g class="errorbars"/><g class="lines"><path class="js-line" d="M27.27,235.44L588.21,235.44" style="vector-effect: non-scaling-stroke; fill: none; stroke: rgb(0, 0, 0); stroke-opacity: 0; stroke-width: 0px; opacity: 1;"/></g><g class="points"/><g class="text"/></g><g class="trace scatter trace1cf1dbde-a4cc-4087-af94-760a836aad44" style="stroke-miterlimit: 2;"><g class="fills"/><g class="errorbars"/><g class="lines"><path class="js-line" d="M27.27,235.44L36.25,235.44L36.56,234.56L36.87,235.44L37.18,215.89L38.42,235.44L38.73,230.77L39.04,235.44L39.35,222.56L39.66,224.8L39.96,206.68L40.58,207.74L40.89,195.85L41.51,195.77L41.82,199.85L42.13,205.77L42.44,200.87L42.75,196.41L43.06,193.26L43.37,180.6L44.3,170.01L44.61,134.51L45.54,121.68L45.85,121.68L80.83,121.68L81.14,123.18L81.45,117.96L81.76,92.57L82.38,110.06L82.69,86.39L82.99,96.63L83.3,70.96L84.85,22.92L85.16,21.57L86.4,64.06L86.71,67.01L87.95,29.5L88.26,26.14L88.88,12.71L89.19,14.43L89.5,35.24L90.73,90.14L91.04,68.6L92.9,116.81L93.21,106.5L93.83,86.19L94.14,86.9L94.45,91.47L94.76,86.53L95.07,96.44L95.38,98.6L95.69,108.08L97.54,145.35L97.85,138.49L98.16,128.64L98.47,145.82L98.78,146.54L99.09,151.32L99.71,139.56L100.02,146.2L100.33,144.48L100.64,141.38L100.95,114.04L101.26,115.32L101.57,111.89L101.88,101.85L102.19,110.03L102.5,115.11L103.74,86.04L104.05,89.66L104.35,85.52L104.66,66.17L104.97,87.32L105.28,76.15L105.59,86.04L105.9,73.84L106.21,71.84L106.83,81.64L107.14,76.66L107.45,62.5L107.76,63.51L108.07,59.28L109.62,83.59L109.93,100.58L110.55,92.69L110.86,93.15L111.17,98.83L111.78,110.69L112.09,105.1L112.4,105.28L112.71,97L113.33,112.51L113.64,125.91L113.95,123.85L114.26,127.18L115.19,137.28L115.5,127.06L115.81,129.47L116.12,126.39L116.43,125.38L117.05,119.92L117.36,126.33L118.29,120.58L118.6,123.05L118.9,126.2L119.21,146.7L119.52,143.68L119.83,153.33L120.14,160.02L120.45,150.34L120.76,157.31L121.38,155.6L121.69,148.18L122.31,146.8L122.62,148L122.93,167.01L123.55,164.42L123.86,161.17L124.79,172.4L125.1,162.7L126.02,150.92L126.33,153.79L126.64,151.72L126.95,153.35L127.26,151.08L127.57,146.93L128.19,149.6L128.5,159.91L128.81,157.62L129.12,161.21L129.43,162.23L129.74,161.17L130.05,158.32L131.29,126.92L131.6,130.55L131.91,128.82L132.22,128.94L132.53,119.73L133.45,100.66L133.76,100.66L168.13,100.66L168.44,104.31L168.74,105.35L169.05,104.09L169.36,132.3L170.29,152.56L170.6,150.66L171.53,171.61L171.84,171.12L172.46,155.34L172.77,164.89L173.08,159.31L173.39,160.4L173.7,170.79L174.01,168.26L174.32,175.08L174.94,188.82L175.25,188.54L175.56,183.5L177.1,195.55L177.41,196.02L177.72,195.38L178.03,184.86L178.96,164.58L179.27,172.49L180.2,166.14L180.51,175.98L180.82,174.78L181.13,182.65L181.44,172.47L182.06,173.87L182.37,177.59L182.99,171.75L183.29,175.19L183.6,174.25L183.91,175.03L184.22,166.91L184.84,168.13L185.15,167.69L185.46,181.98L185.77,181.4L186.08,182.08L186.39,186.07L186.7,180.47L187.32,181.75L187.63,180.84L187.94,181.64L188.25,179L188.87,184.19L189.18,182.54L189.49,183.22L190.41,182.75L190.72,183.29L191.34,188.54L191.65,186.77L191.96,187.67L192.58,185.02L192.89,186.77L193.51,186.27L193.82,188.75L194.13,189.01L194.44,179.23L195.06,178.45L195.37,180.28L195.68,180.27L195.99,181.1L196.3,181.8L196.61,181.36L196.92,180.76L197.23,178.91L197.53,170.25L198.77,169.9L199.08,169.9L265.33,169.9L265.64,179.28L266.26,175.82L266.57,179.79L267.5,171.7L267.81,175.18L268.74,184.64L269.04,176.05L269.35,176.6L269.66,166.55L269.97,166.62L270.28,174.29L271.21,172L271.52,176.83L272.45,182.27L272.76,182.24L273.07,175.19L273.38,175.86L273.69,180.4L274.31,195.96L274.62,164.14L275.24,141.74L275.55,150.05L275.86,144.87L276.47,151.7L276.78,149.38L277.09,147.89L277.4,150.32L277.71,145.24L278.64,149.77L278.95,161.1L279.26,160.19L279.57,154.3L279.88,162.14L280.5,161.01L280.81,164.35L282.36,177.49L282.67,178.4L283.9,208.99L284.21,203.71L284.52,202.52L284.83,193.5L285.14,195.78L285.45,187.58L287,201.54L287.31,196.56L287.62,193.01L288.24,193.46L288.55,197.85L289.48,201.45L289.79,199.9L291.02,216.15L291.33,199.4L292.26,203.12L292.57,193.68L293.81,201.35L294.12,200L294.74,196.58L295.05,200.22L295.36,201.52L295.67,201.38L295.98,207.4L297.53,177.19L297.83,179.48L298.14,185.58L298.45,175.87L298.76,180.4L299.07,176.18L299.38,178.09L300.31,159.88L300.62,159.88L317.96,159.88L318.27,175.61L318.58,168.29L318.89,181.15L320.12,135.51L320.43,136.34L320.74,150.69L321.36,114.76L321.67,117.36L321.98,115.04L322.91,148.16L323.22,128.32L323.53,127.69L323.84,118.7L324.77,110.42L325.08,113.67L326.01,90.9L326.31,93.91L326.62,110.34L327.24,108.6L327.55,111.15L327.86,109.96L328.17,119.54L329.1,95.26L329.41,100.21L329.72,111.58L330.03,111.02L330.34,100.04L331.58,78.06L331.89,74.91L332.2,76.29L332.51,36.06L333.43,42.2L333.74,42.2L451.38,42.2L451.69,73.23L452,53.9L452.31,70.4L452.62,69.4L452.93,83.48L453.24,62.62L453.55,64.99L453.86,60.37L454.17,63.96L454.48,78.4L454.79,83.73L455.1,78.51L455.4,70.39L455.71,73.21L456.02,68.8L456.33,60.35L456.64,72.53L457.88,89.9L458.19,69.71L459.12,78.99L459.43,61.49L459.74,53.95L460.05,55.83L460.36,64.87L460.67,66.16L460.98,77.61L461.29,79.3L461.6,78.72L461.91,98.82L462.83,83.44L463.14,98.95L463.45,95.43L463.76,83.25L464.07,84.29L464.38,77.15L465,89.27L465.31,87.85L465.62,83.41L465.93,80.3L466.24,88.34L466.55,85.67L466.86,87.47L467.17,92.44L468.1,85.47L468.41,91.38L469.64,99.96L469.95,99.27L470.26,97.97L470.88,107.98L471.19,96.13L471.5,95.4L471.81,88.62L472.43,79.82L472.74,70.47L473.36,56.46L473.67,56.47L473.98,56.47L524.13,56.47L524.44,55.51L524.75,55.73L525.06,51.04L525.37,44.96L525.68,51.91L525.99,49.32L526.61,49.26L526.91,53.77L527.22,52.99L527.53,56.57L527.84,61.64L528.15,83.58L528.46,90.69L528.77,84.62L529.08,82.47L531.56,71.93L531.87,81.24L532.18,79.09L532.49,57.02L532.8,58.01L533.11,52.84L534.03,42.52L534.34,47.07L535.27,54.53L535.58,52.04L535.89,41.63L536.2,45.11L536.51,62.5L537.44,73.52L537.75,80.66L538.99,69.21L539.3,69.74L539.61,77.09L539.92,48.81L540.23,42.27L540.54,45.01L540.85,52.46L541.77,73.35L542.08,75.59L542.39,71.74L542.7,55.11L543.94,76.68L544.25,66.87L544.56,68.9L544.87,59.4L545.18,60.42L545.49,56.07L545.8,53.77L546.11,58.63L546.42,59.98L546.73,52.93L547.97,41.81L548.27,29.81L548.89,26.67L549.2,28.57L549.51,28.57L561.9,28.57L562.21,41.88L562.52,42.4L562.82,40.61L563.44,26.4L563.75,36.52L564.06,32.55L564.37,44.58L564.68,33.42L564.99,41.2L565.3,39.51L565.61,33.6L565.92,41.84L566.23,38.05L566.85,41.2L567.16,45.18L567.78,39.35L568.09,23.58L568.4,23.11L568.71,37L569.02,32.49L569.33,37.73L569.64,36.59L569.94,36.21L570.25,26.09L570.56,27.81L570.87,34.22L571.18,34.88L571.49,41.96L572.11,59.48L572.42,87.93L572.73,90.37L573.04,87.26L573.35,102.44L573.66,101.97L573.97,112.4L574.9,100.2L575.21,105.32L576.14,94.86L576.45,98.01L578.3,110.44L578.61,110L578.92,103.59L579.23,104.01L579.54,101.31L579.85,93.93L580.47,94.16L580.78,99.23L581.4,109.91L581.71,103.6L582.02,101.14L582.64,96.92L582.95,99.68L583.57,81.6L583.88,82.8L584.18,83.3L585.73,96.5L586.04,84.69L586.35,78.49L586.97,79.88L587.28,82.32L587.59,82.49L587.9,84.44L588.21,81.46" style="vector-effect: non-scaling-stroke; fill: none; stroke: rgb(0, 0, 0); stroke-opacity: 0; stroke-width: 0px; opacity: 1;"/></g><g class="points"/><g class="text"/></g><g class="trace scatter traceafb188fc-63e5-40f7-a909-2a157cf2edc4" style="stroke-miterlimit: 2;"><g class="fills"><g><path class="js-fill" d="M27.27,235.44L37.8,235.44L38.11,240.69L38.42,241.51L38.73,235.44L39.04,237.77L39.35,235.44L39.66,235.44L588.21,235.44L588.21,235.44L27.27,235.44Z" style="fill: rgb(255, 0, 0); fill-opacity: 0.25; stroke-width: 0;"/></g></g><g class="errorbars"/><g class="lines"><path class="js-line" d="M27.27,235.44L588.21,235.44" style="vector-effect: non-scaling-stroke; fill: none; stroke: rgb(0, 0, 0); stroke-opacity: 0; stroke-width: 0px; opacity: 1;"/></g><g class="points"/><g class="text"/></g><g class="trace scatter trace6492eb74-dbbd-4803-872f-39d207269ced" style="stroke-miterlimit: 2;"><g class="fills"/><g class="errorbars"/><g class="lines"><path class="js-line" d="M27.27,235.44L37.8,235.44L38.11,240.69L38.42,241.51L38.73,235.44L39.04,237.77L39.35,235.44L39.66,235.44L588.21,235.44" style="vector-effect: non-scaling-stroke; fill: none; stroke: rgb(0, 0, 0); stroke-opacity: 0; stroke-width: 0px; opacity: 1;"/></g><g class="points"/><g class="text"/></g><g class="trace scatter tracee605bb35-1843-45e7-b372-14ada2cce771" style="stroke-miterlimit: 2; opacity: 1;"><g class="fills"/><g class="errorbars"/><g class="lines"><path class="js-line" d="M27.27,235.44L36.25,235.44L36.56,234.56L36.87,235.44L37.18,215.89L38.42,241.51L38.73,230.77L39.04,237.77L39.35,222.56L39.66,224.8L39.96,206.68L40.58,207.74L40.89,195.85L41.51,195.77L41.82,199.85L42.13,205.77L42.44,200.87L42.75,196.41L43.06,193.26L43.37,180.6L44.3,170.01L44.61,134.51L45.54,121.68L45.85,121.68L80.83,121.68L81.14,123.18L81.45,117.96L81.76,92.57L82.38,110.06L82.69,86.39L82.99,96.63L83.3,70.96L84.85,22.92L85.16,21.57L86.4,64.06L86.71,67.01L87.95,29.5L88.26,26.14L88.88,12.71L89.19,14.43L89.5,35.24L90.73,90.14L91.04,68.6L92.9,116.81L93.21,106.5L93.83,86.19L94.14,86.9L94.45,91.47L94.76,86.53L95.07,96.44L95.38,98.6L95.69,108.08L97.54,145.35L97.85,138.49L98.16,128.64L98.47,145.82L98.78,146.54L99.09,151.32L99.71,139.56L100.02,146.2L100.33,144.48L100.64,141.38L100.95,114.04L101.26,115.32L101.57,111.89L101.88,101.85L102.19,110.03L102.5,115.11L103.74,86.04L104.05,89.66L104.35,85.52L104.66,66.17L104.97,87.32L105.28,76.15L105.59,86.04L105.9,73.84L106.21,71.84L106.83,81.64L107.14,76.66L107.45,62.5L107.76,63.51L108.07,59.28L109.62,83.59L109.93,100.58L110.55,92.69L110.86,93.15L111.17,98.83L111.78,110.69L112.09,105.1L112.4,105.28L112.71,97L113.33,112.51L113.64,125.91L113.95,123.85L114.26,127.18L115.19,137.28L115.5,127.06L115.81,129.47L116.12,126.39L116.43,125.38L117.05,119.92L117.36,126.33L118.29,120.58L118.6,123.05L118.9,126.2L119.21,146.7L119.52,143.68L119.83,153.33L120.14,160.02L120.45,150.34L120.76,157.31L121.38,155.6L121.69,148.18L122.31,146.8L122.62,148L122.93,167.01L123.55,164.42L123.86,161.17L124.79,172.4L125.1,162.7L126.02,150.92L126.33,153.79L126.64,151.72L126.95,153.35L127.26,151.08L127.57,146.93L128.19,149.6L128.5,159.91L128.81,157.62L129.12,161.21L129.43,162.23L129.74,161.17L130.05,158.32L131.29,126.92L131.6,130.55L131.91,128.82L132.22,128.94L132.53,119.73L133.45,100.66L133.76,100.66L168.13,100.66L168.44,104.31L168.74,105.35L169.05,104.09L169.36,132.3L170.29,152.56L170.6,150.66L171.53,171.61L171.84,171.12L172.46,155.34L172.77,164.89L173.08,159.31L173.39,160.4L173.7,170.79L174.01,168.26L174.32,175.08L174.94,188.82L175.25,188.54L175.56,183.5L177.1,195.55L177.41,196.02L177.72,195.38L178.03,184.86L178.96,164.58L179.27,172.49L180.2,166.14L180.51,175.98L180.82,174.78L181.13,182.65L181.44,172.47L182.06,173.87L182.37,177.59L182.99,171.75L183.29,175.19L183.6,174.25L183.91,175.03L184.22,166.91L184.84,168.13L185.15,167.69L185.46,181.98L185.77,181.4L186.08,182.08L186.39,186.07L186.7,180.47L187.32,181.75L187.63,180.84L187.94,181.64L188.25,179L188.87,184.19L189.18,182.54L189.49,183.22L190.41,182.75L190.72,183.29L191.34,188.54L191.65,186.77L191.96,187.67L192.58,185.02L192.89,186.77L193.51,186.27L193.82,188.75L194.13,189.01L194.44,179.23L195.06,178.45L195.37,180.28L195.68,180.27L195.99,181.1L196.3,181.8L196.61,181.36L196.92,180.76L197.23,178.91L197.53,170.25L198.77,169.9L199.08,169.9L265.33,169.9L265.64,179.28L266.26,175.82L266.57,179.79L267.5,171.7L267.81,175.18L268.74,184.64L269.04,176.05L269.35,176.6L269.66,166.55L269.97,166.62L270.28,174.29L271.21,172L271.52,176.83L272.45,182.27L272.76,182.24L273.07,175.19L273.38,175.86L273.69,180.4L274.31,195.96L274.62,164.14L275.24,141.74L275.55,150.05L275.86,144.87L276.47,151.7L276.78,149.38L277.09,147.89L277.4,150.32L277.71,145.24L278.64,149.77L278.95,161.1L279.26,160.19L279.57,154.3L279.88,162.14L280.5,161.01L280.81,164.35L282.36,177.49L282.67,178.4L283.9,208.99L284.21,203.71L284.52,202.52L284.83,193.5L285.14,195.78L285.45,187.58L287,201.54L287.31,196.56L287.62,193.01L288.24,193.46L288.55,197.85L289.48,201.45L289.79,199.9L291.02,216.15L291.33,199.4L292.26,203.12L292.57,193.68L293.81,201.35L294.12,200L294.74,196.58L295.05,200.22L295.36,201.52L295.67,201.38L295.98,207.4L297.53,177.19L297.83,179.48L298.14,185.58L298.45,175.87L298.76,180.4L299.07,176.18L299.38,178.09L300.31,159.88L300.62,159.88L317.96,159.88L318.27,175.61L318.58,168.29L318.89,181.15L320.12,135.51L320.43,136.34L320.74,150.69L321.36,114.76L321.67,117.36L321.98,115.04L322.91,148.16L323.22,128.32L323.53,127.69L323.84,118.7L324.77,110.42L325.08,113.67L326.01,90.9L326.31,93.91L326.62,110.34L327.24,108.6L327.55,111.15L327.86,109.96L328.17,119.54L329.1,95.26L329.41,100.21L329.72,111.58L330.03,111.02L330.34,100.04L331.58,78.06L331.89,74.91L332.2,76.29L332.51,36.06L333.43,42.2L333.74,42.2L451.38,42.2L451.69,73.23L452,53.9L452.31,70.4L452.62,69.4L452.93,83.48L453.24,62.62L453.55,64.99L453.86,60.37L454.17,63.96L454.48,78.4L454.79,83.73L455.1,78.51L455.4,70.39L455.71,73.21L456.02,68.8L456.33,60.35L456.64,72.53L457.88,89.9L458.19,69.71L459.12,78.99L459.43,61.49L459.74,53.95L460.05,55.83L460.36,64.87L460.67,66.16L460.98,77.61L461.29,79.3L461.6,78.72L461.91,98.82L462.83,83.44L463.14,98.95L463.45,95.43L463.76,83.25L464.07,84.29L464.38,77.15L465,89.27L465.31,87.85L465.62,83.41L465.93,80.3L466.24,88.34L466.55,85.67L466.86,87.47L467.17,92.44L468.1,85.47L468.41,91.38L469.64,99.96L469.95,99.27L470.26,97.97L470.88,107.98L471.19,96.13L471.5,95.4L471.81,88.62L472.43,79.82L472.74,70.47L473.36,56.46L473.67,56.47L473.98,56.47L524.13,56.47L524.44,55.51L524.75,55.73L525.06,51.04L525.37,44.96L525.68,51.91L525.99,49.32L526.61,49.26L526.91,53.77L527.22,52.99L527.53,56.57L527.84,61.64L528.15,83.58L528.46,90.69L528.77,84.62L529.08,82.47L531.56,71.93L531.87,81.24L532.18,79.09L532.49,57.02L532.8,58.01L533.11,52.84L534.03,42.52L534.34,47.07L535.27,54.53L535.58,52.04L535.89,41.63L536.2,45.11L536.51,62.5L537.44,73.52L537.75,80.66L538.99,69.21L539.3,69.74L539.61,77.09L539.92,48.81L540.23,42.27L540.54,45.01L540.85,52.46L541.77,73.35L542.08,75.59L542.39,71.74L542.7,55.11L543.94,76.68L544.25,66.87L544.56,68.9L544.87,59.4L545.18,60.42L545.49,56.07L545.8,53.77L546.11,58.63L546.42,59.98L546.73,52.93L547.97,41.81L548.27,29.81L548.89,26.67L549.2,28.57L549.51,28.57L561.9,28.57L562.21,41.88L562.52,42.4L562.82,40.61L563.44,26.4L563.75,36.52L564.06,32.55L564.37,44.58L564.68,33.42L564.99,41.2L565.3,39.51L565.61,33.6L565.92,41.84L566.23,38.05L566.85,41.2L567.16,45.18L567.78,39.35L568.09,23.58L568.4,23.11L568.71,37L569.02,32.49L569.33,37.73L569.64,36.59L569.94,36.21L570.25,26.09L570.56,27.81L570.87,34.22L571.18,34.88L571.49,41.96L572.11,59.48L572.42,87.93L572.73,90.37L573.04,87.26L573.35,102.44L573.66,101.97L573.97,112.4L574.9,100.2L575.21,105.32L576.14,94.86L576.45,98.01L578.3,110.44L578.61,110L578.92,103.59L579.23,104.01L579.54,101.31L579.85,93.93L580.47,94.16L580.78,99.23L581.4,109.91L581.71,103.6L582.02,101.14L582.64,96.92L582.95,99.68L583.57,81.6L583.88,82.8L584.18,83.3L585.73,96.5L586.04,84.69L586.35,78.49L586.97,79.88L587.28,82.32L587.59,82.49L587.9,84.44L588.21,81.46" style="vector-effect: non-scaling-stroke; fill: none; stroke: rgb(148, 103, 189); stroke-opacity: 1; stroke-width: 2px; opacity: 1;"/></g><g class="points"/><g class="text"/></g><g class="trace scatter trace3f719805-aa8e-48be-a6d6-8ff47ca83c54" style="stroke-miterlimit: 2; opacity: 0;"><g class="fills"/><g class="errorbars"/><g class="lines"><path class="js-line" d="M27.27,235.44L588.21,235.44" style="vector-effect: non-scaling-stroke; fill: none; stroke: rgb(0, 0, 0); stroke-opacity: 0; stroke-width: 0px; opacity: 1;"/></g><g class="points"/><g class="text"/></g></g></g><g class="overplot"/><path class="xlines-above crisp" d="M0,0" style="fill: none;"/><path class="ylines-above crisp" d="M0,0" style="fill: none;"/><g class="overlines-above"/><g class="xaxislayer-above"><g class="x3tick"><text text-anchor="middle" x="0" y="920.9999999999999" transform="translate(164.68,0)" style="font-family: 'Open Sans', verdana, arial, sans-serif; font-size: 12px; fill: rgb(214, 223, 239); fill-opacity: 1; white-space: pre; opacity: 1;">2018</text></g><g class="x3tick"><text text-anchor="middle" x="0" y="920.9999999999999" style="font-family: 'Open Sans', verdana, arial, sans-serif; font-size: 12px; fill: rgb(214, 223, 239); fill-opacity: 1; white-space: pre; opacity: 1;" transform="translate(277.68,0)">2019</text></g><g class="x3tick"><text text-anchor="middle" x="0" y="920.9999999999999" style="font-family: 'Open Sans', verdana, arial, sans-serif; font-size: 12px; fill: rgb(214, 223, 239); fill-opacity: 1; white-space: pre; opacity: 1;" transform="translate(390.67,0)">2020</text></g><g class="x3tick"><text text-anchor="middle" x="0" y="920.9999999999999" style="font-family: 'Open Sans', verdana, arial, sans-serif; font-size: 12px; fill: rgb(214, 223, 239); fill-opacity: 1; white-space: pre; opacity: 1;" transform="translate(503.97,0)">2021</text></g><g class="x3tick"><text text-anchor="middle" x="0" y="920.9999999999999" style="font-family: 'Open Sans', verdana, arial, sans-serif; font-size: 12px; fill: rgb(214, 223, 239); fill-opacity: 1; white-space: pre; opacity: 1;" transform="translate(616.96,0)">2022</text></g></g><g class="yaxislayer-above"><g class="y3tick"><text text-anchor="end" x="94" y="4.199999999999999" transform="translate(0,889.2177777777777)" style="font-family: 'Open Sans', verdana, arial, sans-serif; font-size: 12px; fill: rgb(214, 223, 239); fill-opacity: 1; white-space: pre; opacity: 1;">1</text></g><g class="y3tick"><text text-anchor="end" x="94" y="4.199999999999999" style="font-family: 'Open Sans', verdana, arial, sans-serif; font-size: 12px; fill: rgb(214, 223, 239); fill-opacity: 1; white-space: pre; opacity: 1;" transform="translate(0,846.0477777777777)">1.2</text></g><g class="y3tick"><text text-anchor="end" x="94" y="4.199999999999999" style="font-family: 'Open Sans', verdana, arial, sans-serif; font-size: 12px; fill: rgb(214, 223, 239); fill-opacity: 1; white-space: pre; opacity: 1;" transform="translate(0,802.8677777777777)">1.4</text></g><g class="y3tick"><text text-anchor="end" x="94" y="4.199999999999999" style="font-family: 'Open Sans', verdana, arial, sans-serif; font-size: 12px; fill: rgb(214, 223, 239); fill-opacity: 1; white-space: pre; opacity: 1;" transform="translate(0,759.6977777777777)">1.6</text></g><g class="y3tick"><text text-anchor="end" x="94" y="4.199999999999999" style="font-family: 'Open Sans', verdana, arial, sans-serif; font-size: 12px; fill: rgb(214, 223, 239); fill-opacity: 1; white-space: pre; opacity: 1;" transform="translate(0,716.5277777777777)">1.8</text></g><g class="y3tick"><text text-anchor="end" x="94" y="4.199999999999999" style="font-family: 'Open Sans', verdana, arial, sans-serif; font-size: 12px; fill: rgb(214, 223, 239); fill-opacity: 1; white-space: pre; opacity: 1;" transform="translate(0,673.3577777777778)">2</text></g></g><g class="overaxes-above"/></g></g><g class="polarlayer"/><g class="smithlayer"/><g class="ternarylayer"/><g class="geolayer"/><g class="funnelarealayer"/><g class="pielayer"/><g class="iciclelayer"/><g class="treemaplayer"/><g class="sunburstlayer"/><g class="glimages"/><defs id="topdefs-768297"><g class="clips"/><clipPath id="legend768297"><rect width="624" height="29" x="0" y="0"/></clipPath></defs><g class="layer-above"><g class="imagelayer"/><g class="shapelayer"><path data-index="0" fill-rule="evenodd" d="M95,520.6188888888889L720,520.6188888888889" clip-path="url(#clip768297y2)" style="opacity: 1; stroke: rgb(128, 128, 128); stroke-opacity: 1; fill: rgb(0, 0, 0); fill-opacity: 0; stroke-dasharray: 9px, 9px; stroke-width: 2px;"/><path data-index="1" fill-rule="evenodd" d="M95,889.2177777777777L720,889.2177777777777" clip-path="url(#clip768297y3)" style="opacity: 1; stroke: rgb(128, 128, 128); stroke-opacity: 1; fill: rgb(0, 0, 0); fill-opacity: 0; stroke-dasharray: 9px, 9px; stroke-width: 2px;"/></g></g><g class="infolayer"><g class="legend" pointer-events="all" transform="translate(96,12.333333333333272)"><rect class="bg" shape-rendering="crispEdges" style="stroke: rgb(68, 68, 68); stroke-opacity: 1; fill: rgb(33, 34, 44); fill-opacity: 1; stroke-width: 0px;" width="624" height="29" x="0" y="0"/><g class="scrollbox" transform="" clip-path="url(#legend768297)"><g class="groups"><g class="traces" transform="translate(0,14.5)" style="opacity: 1;"><text class="legendtext" text-anchor="start" x="40" y="4.680000000000001" style="font-family: 'Open Sans', verdana, arial, sans-serif; font-size: 12px; fill: rgb(214, 223, 239); fill-opacity: 1; white-space: pre;">Close</text><g class="layers" style="opacity: 1;"><g class="legendfill"/><g class="legendlines"><path class="js-line" d="M5,0h30" style="fill: none; stroke: rgb(31, 119, 180); stroke-opacity: 1; stroke-width: 2px;"/></g><g class="legendsymbols"><g class="legendpoints"/></g></g><rect class="legendtoggle" x="0" y="-9.5" width="74.859375" height="19" style="fill: rgb(0, 0, 0); fill-opacity: 0;"/></g><g class="traces" transform="translate(77.359375,14.5)" style="opacity: 1;"><text class="legendtext" text-anchor="start" x="40" y="4.680000000000001" style="font-family: 'Open Sans', verdana, arial, sans-serif; font-size: 12px; fill: rgb(214, 223, 239); fill-opacity: 1; white-space: pre;">Buy</text><g class="layers" style="opacity: 1;"><g class="legendfill"/><g class="legendlines"/><g class="legendsymbols"><g class="legendpoints"><path class="scatterpts" transform="translate(20,0)" d="M-4.62,2H4.62L0,-4Z" style="opacity: 1; stroke-width: 1px; fill: rgb(55, 177, 63); fill-opacity: 1; stroke: rgb(38, 123, 44); stroke-opacity: 1;"/></g></g></g><rect class="legendtoggle" x="0" y="-9.5" width="65.421875" height="19" style="fill: rgb(0, 0, 0); fill-opacity: 0;"/></g><g class="traces" transform="translate(145.28125,14.5)" style="opacity: 1;"><text class="legendtext" text-anchor="start" x="40" y="4.680000000000001" style="font-family: 'Open Sans', verdana, arial, sans-serif; font-size: 12px; fill: rgb(214, 223, 239); fill-opacity: 1; white-space: pre;">Sell</text><g class="layers" style="opacity: 1;"><g class="legendfill"/><g class="legendlines"/><g class="legendsymbols"><g class="legendpoints"><path class="scatterpts" transform="translate(20,0)" d="M-4.62,-2H4.62L0,4Z" style="opacity: 1; stroke-width: 1px; fill: rgb(234, 67, 53); fill-opacity: 1; stroke: rgb(181, 31, 18); stroke-opacity: 1;"/></g></g></g><rect class="legendtoggle" x="0" y="-9.5" width="64.4375" height="19" style="fill: rgb(0, 0, 0); fill-opacity: 0;"/></g><g class="traces" transform="translate(212.21875,14.5)" style="opacity: 1;"><text class="legendtext" text-anchor="start" x="40" y="4.680000000000001" style="font-family: 'Open Sans', verdana, arial, sans-serif; font-size: 12px; fill: rgb(214, 223, 239); fill-opacity: 1; white-space: pre;">Closed - Profit</text><g class="layers" style="opacity: 1;"><g class="legendfill"/><g class="legendlines"/><g class="legendsymbols"><g class="legendpoints"><path class="scatterpts" transform="translate(20,0)" d="M5.06,0A5.06,5.06 0 1,1 0,-5.06A5.06,5.06 0 0,1 5.06,0Z" style="opacity: 0.816955; stroke-width: 1px; fill: rgb(55, 177, 63); fill-opacity: 1; stroke: rgb(38, 123, 44); stroke-opacity: 1;"/></g></g></g><rect class="legendtoggle" x="0" y="-9.5" width="128.109375" height="19" style="fill: rgb(0, 0, 0); fill-opacity: 0;"/></g><g class="traces" transform="translate(342.828125,14.5)" style="opacity: 1;"><text class="legendtext" text-anchor="start" x="40" y="4.680000000000001" style="font-family: 'Open Sans', verdana, arial, sans-serif; font-size: 12px; fill: rgb(214, 223, 239); fill-opacity: 1; white-space: pre;">Closed - Loss</text><g class="layers" style="opacity: 1;"><g class="legendfill"/><g class="legendlines"/><g class="legendsymbols"><g class="legendpoints"><path class="scatterpts" transform="translate(20,0)" d="M4.53,0A4.53,4.53 0 1,1 0,-4.53A4.53,4.53 0 0,1 4.53,0Z" style="opacity: 0.794218; stroke-width: 1px; fill: rgb(234, 67, 53); fill-opacity: 1; stroke: rgb(181, 31, 18); stroke-opacity: 1;"/></g></g></g><rect class="legendtoggle" x="0" y="-9.5" width="122.6875" height="19" style="fill: rgb(0, 0, 0); fill-opacity: 0;"/></g><g class="traces" transform="translate(468.015625,14.5)" style="opacity: 1;"><text class="legendtext" text-anchor="start" x="40" y="4.680000000000001" style="font-family: 'Open Sans', verdana, arial, sans-serif; font-size: 12px; fill: rgb(214, 223, 239); fill-opacity: 1; white-space: pre;">Open</text><g class="layers" style="opacity: 1;"><g class="legendfill"/><g class="legendlines"/><g class="legendsymbols"><g class="legendpoints"><path class="scatterpts" transform="translate(20,0)" d="M4.89,0A4.89,4.89 0 1,1 0,-4.89A4.89,4.89 0 0,1 4.89,0Z" style="opacity: 0.809727; stroke-width: 1px; fill: rgb(255, 170, 0); fill-opacity: 1; stroke: rgb(178, 118, 0); stroke-opacity: 1;"/></g></g></g><rect class="legendtoggle" x="0" y="-9.5" width="74.171875" height="19" style="fill: rgb(0, 0, 0); fill-opacity: 0;"/></g><g class="traces" transform="translate(544.6875,14.5)" style="opacity: 1;"><text class="legendtext" text-anchor="start" x="40" y="4.680000000000001" style="font-family: 'Open Sans', verdana, arial, sans-serif; font-size: 12px; fill: rgb(214, 223, 239); fill-opacity: 1; white-space: pre;">Value</text><g class="layers" style="opacity: 1;"><g class="legendfill"/><g class="legendlines"><path class="js-line" d="M5,0h30" style="fill: none; stroke: rgb(148, 103, 189); stroke-opacity: 1; stroke-width: 2px;"/></g><g class="legendsymbols"><g class="legendpoints"/></g></g><rect class="legendtoggle" x="0" y="-9.5" width="75.953125" height="19" style="fill: rgb(0, 0, 0); fill-opacity: 0;"/></g></g></g><rect class="scrollbar" rx="20" ry="3" width="0" height="0" style="fill: rgb(128, 139, 164); fill-opacity: 1;" x="0" y="0"/></g><g class="g-gtitle"/><g class="g-xtitle"/><g class="g-x2title"/><g class="g-x3title"><text class="x3title" x="407.5" y="948.3" text-anchor="middle" style="font-family: 'Open Sans', verdana, arial, sans-serif; font-size: 14px; fill: rgb(214, 223, 239); opacity: 1; font-weight: normal; white-space: pre;">Index</text></g><g class="g-ytitle"><text class="ytitle" transform="rotate(-90,46.840625,203.11111111111111)" x="46.840625" y="203.11111111111111" text-anchor="middle" style="font-family: 'Open Sans', verdana, arial, sans-serif; font-size: 14px; fill: rgb(214, 223, 239); opacity: 1; font-weight: normal; white-space: pre;">Price</text></g><g class="g-y2title" transform="translate(2.4248046875,0)"><text class="y2title" transform="rotate(-90,11.575000000000003,492.00000000000006)" x="11.575000000000003" y="492.00000000000006" text-anchor="middle" style="font-family: 'Open Sans', verdana, arial, sans-serif; font-size: 14px; fill: rgb(214, 223, 239); opacity: 1; font-weight: normal; white-space: pre;">Trade PnL</text></g><g class="g-y3title"><text class="y3title" transform="rotate(-90,49.575,780.8888888888888)" x="49.575" y="780.8888888888888" text-anchor="middle" style="font-family: 'Open Sans', verdana, arial, sans-serif; font-size: 14px; fill: rgb(214, 223, 239); opacity: 1; font-weight: normal; white-space: pre;">Cumulative returns</text></g><g class="annotation" data-index="0" style="opacity: 1;"><g class="annotation-text-g" transform="rotate(0,407.5,64)"><g class="cursor-pointer" transform="translate(379,52)"><rect class="bg" x="0.5" y="0.5" width="57" height="23" style="stroke-width: 1px; stroke: rgb(0, 0, 0); stroke-opacity: 0; fill: rgb(0, 0, 0); fill-opacity: 0;"/><text class="annotation-text" text-anchor="middle" x="29.046875" y="18" style="font-family: 'Open Sans', verdana, arial, sans-serif; font-size: 16px; fill: rgb(214, 223, 239); fill-opacity: 1; white-space: pre;">Orders</text></g></g></g><g class="annotation" data-index="1" style="opacity: 1;"><g class="annotation-text-g" transform="rotate(0,407.5,352.88888888888897)"><g class="cursor-pointer" transform="translate(366,341)"><rect class="bg" x="0.5" y="0.5" width="83" height="23" style="stroke-width: 1px; stroke: rgb(0, 0, 0); stroke-opacity: 0; fill: rgb(0, 0, 0); fill-opacity: 0;"/><text class="annotation-text" text-anchor="middle" x="42.0625" y="18" style="font-family: 'Open Sans', verdana, arial, sans-serif; font-size: 16px; fill: rgb(214, 223, 239); fill-opacity: 1; white-space: pre;">Trade PnL</text></g></g></g><g class="annotation" data-index="2" style="opacity: 1;"><g class="annotation-text-g" transform="rotate(0,407.5,641.7777777777777)"><g class="cursor-pointer" transform="translate(326,630)"><rect class="bg" x="0.5" y="0.5" width="162" height="23" style="stroke-width: 1px; stroke: rgb(0, 0, 0); stroke-opacity: 0; fill: rgb(0, 0, 0); fill-opacity: 0;"/><text class="annotation-text" text-anchor="middle" x="81.34375" y="18" style="font-family: 'Open Sans', verdana, arial, sans-serif; font-size: 16px; fill: rgb(214, 223, 239); fill-opacity: 1; white-space: pre;">Cumulative Returns</text></g></g></g></g></svg>