<svg class="main-svg" xmlns="http://www.w3.org/2000/svg" xmlns:xlink="http://www.w3.org/1999/xlink" width="700" height="350" style="" viewBox="0 0 700 350"><rect x="0" y="0" width="700" height="350" style="fill: rgb(33, 34, 44); fill-opacity: 1;"/><defs id="defs-93cc48"><g class="clips"><clipPath id="clip93cc48xyplot" class="plotclip"><rect width="637" height="274"/></clipPath><clipPath class="axesclip" id="clip93cc48x"><rect x="33" y="0" width="637" height="350"/></clipPath><clipPath class="axesclip" id="clip93cc48y"><rect x="0" y="46" width="700" height="274"/></clipPath><clipPath class="axesclip" id="clip93cc48xy"><rect x="33" y="46" width="637" height="274"/></clipPath></g><g class="gradients"/><g class="patterns"/></defs><g class="bglayer"/><g class="layer-below"><g class="imagelayer"/><g class="shapelayer"/></g><g class="cartesianlayer"><g class="subplot xy"><g class="layer-subplot"><g class="shapelayer"/><g class="imagelayer"/></g><g class="gridlayer"><g class="x"><path class="xgrid crisp" transform="translate(120.93,0)" d="M0,46v274" style="stroke: rgb(47, 62, 78); stroke-opacity: 1; stroke-width: 1px;"/><path class="xgrid crisp" transform="translate(230.4,0)" d="M0,46v274" style="stroke: rgb(47, 62, 78); stroke-opacity: 1; stroke-width: 1px;"/><path class="xgrid crisp" transform="translate(339.87,0)" d="M0,46v274" style="stroke: rgb(47, 62, 78); stroke-opacity: 1; stroke-width: 1px;"/><path class="xgrid crisp" transform="translate(451.14,0)" d="M0,46v274" style="stroke: rgb(47, 62, 78); stroke-opacity: 1; stroke-width: 1px;"/><path class="xgrid crisp" transform="translate(560.61,0)" d="M0,46v274" style="stroke: rgb(47, 62, 78); stroke-opacity: 1; stroke-width: 1px;"/></g><g class="y"><path class="ygrid crisp" transform="translate(0,267.94)" d="M33,0h637" style="stroke: rgb(47, 62, 78); stroke-opacity: 1; stroke-width: 1px;"/><path class="ygrid crisp" transform="translate(0,215.88)" d="M33,0h637" style="stroke: rgb(47, 62, 78); stroke-opacity: 1; stroke-width: 1px;"/><path class="ygrid crisp" transform="translate(0,163.82)" d="M33,0h637" style="stroke: rgb(47, 62, 78); stroke-opacity: 1; stroke-width: 1px;"/><path class="ygrid crisp" transform="translate(0,111.76)" d="M33,0h637" style="stroke: rgb(47, 62, 78); stroke-opacity: 1; stroke-width: 1px;"/><path class="ygrid crisp" transform="translate(0,59.7)" d="M33,0h637" style="stroke: rgb(47, 62, 78); stroke-opacity: 1; stroke-width: 1px;"/></g></g><g class="zerolinelayer"><path class="yzl zl crisp" transform="translate(0,320)" d="M33,0h637" style="stroke: rgb(47, 62, 78); stroke-opacity: 1; stroke-width: 2px;"/></g><path class="xlines-below"/><path class="ylines-below"/><g class="overlines-below"/><g class="xaxislayer-below"/><g class="yaxislayer-below"/><g class="overaxes-below"/><g class="plot" transform="translate(33,46)" clip-path="url(#clip93cc48xyplot)"><g class="scatterlayer mlayer"><g class="trace scatter trace03d93361-6ee1-40e2-81c8-4ef8e33d038c" style="stroke-miterlimit: 2;"><g class="fills"><g><path class="js-fill" d="M637,274L0,274L0,264.32L12.49,264.32L12.56,229.65L37.61,229.65L37.69,187.45L50.17,187.45L50.25,274L150.67,274L150.74,217.38L163.23,217.38L163.31,274L188.36,274L188.43,13.7L200.92,13.7L200.99,217.16L213.48,217.16L213.55,274L226.04,274L226.12,254.81L238.6,254.81L238.68,13.7L251.17,13.7L251.24,54.16L263.73,54.16L263.8,13.7L326.54,13.7L326.61,201.87L351.66,201.87L351.74,238.19L364.22,238.19L364.3,274L464.72,274L464.8,13.7L477.28,13.7L477.36,274L489.84,274L489.92,244.3L502.41,244.3L502.48,274L577.78,274L577.85,223.05L590.34,223.05L590.42,274L637,274" style="fill: rgb(31, 119, 180); fill-opacity: 0.8; stroke-width: 0;"/></g><g><path class="js-fill" d="M0,227.81L12.49,227.81L12.56,210.34L37.61,210.34L37.69,187.45L50.17,187.45L50.25,194.24L62.74,194.24L62.81,274L125.55,274L125.62,171.46L138.11,171.46L138.18,274L150.67,274L150.74,45.73L163.23,45.73L163.31,274L175.79,274L175.87,137.32L188.36,137.32L188.43,13.7L200.92,13.7L200.99,217.16L213.48,217.16L213.55,274L226.04,274L226.12,254.81L238.6,254.81L238.68,13.7L251.17,13.7L251.24,54.16L263.73,54.16L263.8,13.7L326.54,13.7L326.61,35.9L351.66,35.9L351.74,162.57L364.22,162.57L364.3,274L376.79,274L376.86,13.7L389.35,13.7L389.42,274L414.47,274L414.55,13.7L452.16,13.7L452.23,274L464.72,274L464.8,13.7L489.84,13.7L489.92,244.3L502.41,244.3L502.48,13.7L514.97,13.7L515.04,274L577.78,274L577.85,223.05L590.34,223.05L590.42,274L615.47,274L615.54,190.76L628.03,190.76L628.1,274L637,274L637,274L590.42,274L590.34,223.05L577.85,223.05L577.78,274L502.48,274L502.41,244.3L489.92,244.3L489.84,274L477.36,274L477.28,13.7L464.8,13.7L464.72,274L364.3,274L364.22,238.19L351.74,238.19L351.66,201.87L326.61,201.87L326.54,13.7L263.8,13.7L263.73,54.16L251.24,54.16L251.17,13.7L238.68,13.7L238.6,254.81L226.12,254.81L226.04,274L213.55,274L213.48,217.16L200.99,217.16L200.92,13.7L188.43,13.7L188.36,274L163.31,274L163.23,217.38L150.74,217.38L150.67,274L50.25,274L50.17,187.45L37.69,187.45L37.61,229.65L12.56,229.65L12.49,264.32L0,264.32Z" style="fill: rgb(255, 127, 14); fill-opacity: 0.8; stroke-width: 0;"/></g></g><g class="errorbars"/><g class="lines"><path class="js-line" d="M0,264.32L12.49,264.32L12.56,229.65L37.61,229.65L37.69,187.45L50.17,187.45L50.25,274L150.67,274L150.74,217.38L163.23,217.38L163.31,274L188.36,274L188.43,13.7L200.92,13.7L200.99,217.16L213.48,217.16L213.55,274L226.04,274L226.12,254.81L238.6,254.81L238.68,13.7L251.17,13.7L251.24,54.16L263.73,54.16L263.8,13.7L326.54,13.7L326.61,201.87L351.66,201.87L351.74,238.19L364.22,238.19L364.3,274L464.72,274L464.8,13.7L477.28,13.7L477.36,274L489.84,274L489.92,244.3L502.41,244.3L502.48,274L577.78,274L577.85,223.05L590.34,223.05L590.42,274L637,274" style="vector-effect: non-scaling-stroke; fill: none; stroke: rgb(31, 119, 180); stroke-opacity: 1; stroke-width: 0px; opacity: 1;"/></g><g class="points"/><g class="text"/></g><g class="trace scatter traceba35746e-8884-4143-848a-e96c5564a63e" style="stroke-miterlimit: 2;"><g class="fills"><g><path class="js-fill" d="M0,65.44L12.49,65.44L12.56,203.8L37.61,203.8L37.69,59.89L50.17,59.89L50.25,194.24L62.74,194.24L62.81,274L125.55,274L125.62,13.7L138.11,13.7L138.18,274L150.67,274L150.74,45.73L163.23,45.73L163.31,274L175.79,274L175.87,137.32L188.36,137.32L188.43,13.7L251.17,13.7L251.24,54.16L263.73,54.16L263.8,13.7L326.54,13.7L326.61,35.9L351.66,35.9L351.74,162.57L364.22,162.57L364.3,176.31L376.79,176.31L376.86,13.7L389.35,13.7L389.42,274L414.47,274L414.55,13.7L489.84,13.7L489.92,51.78L502.41,51.78L502.48,13.7L540.09,13.7L540.17,196.49L552.65,196.49L552.73,84.41L565.22,84.41L565.29,259.18L577.78,259.18L577.85,223.05L590.34,223.05L590.42,175.12L615.47,175.12L615.54,13.7L637,13.7L637,274L628.1,274L628.03,190.76L615.54,190.76L615.47,274L590.42,274L590.34,223.05L577.85,223.05L577.78,274L515.04,274L514.97,13.7L502.48,13.7L502.41,244.3L489.92,244.3L489.84,13.7L464.8,13.7L464.72,274L452.23,274L452.16,13.7L414.55,13.7L414.47,274L389.42,274L389.35,13.7L376.86,13.7L376.79,274L364.3,274L364.22,162.57L351.74,162.57L351.66,35.9L326.61,35.9L326.54,13.7L263.8,13.7L263.73,54.16L251.24,54.16L251.17,13.7L238.68,13.7L238.6,254.81L226.12,254.81L226.04,274L213.55,274L213.48,217.16L200.99,217.16L200.92,13.7L188.43,13.7L188.36,137.32L175.87,137.32L175.79,274L163.31,274L163.23,45.73L150.74,45.73L150.67,274L138.18,274L138.11,171.46L125.62,171.46L125.55,274L62.81,274L62.74,194.24L50.25,194.24L50.17,187.45L37.69,187.45L37.61,210.34L12.56,210.34L12.49,227.81L0,227.81Z" style="fill: rgb(44, 160, 44); fill-opacity: 0.8; stroke-width: 0;"/></g></g><g class="errorbars"/><g class="lines"><path class="js-line" d="M0,227.81L12.49,227.81L12.56,210.34L37.61,210.34L37.69,187.45L50.17,187.45L50.25,194.24L62.74,194.24L62.81,274L125.55,274L125.62,171.46L138.11,171.46L138.18,274L150.67,274L150.74,45.73L163.23,45.73L163.31,274L175.79,274L175.87,137.32L188.36,137.32L188.43,13.7L200.92,13.7L200.99,217.16L213.48,217.16L213.55,274L226.04,274L226.12,254.81L238.6,254.81L238.68,13.7L251.17,13.7L251.24,54.16L263.73,54.16L263.8,13.7L326.54,13.7L326.61,35.9L351.66,35.9L351.74,162.57L364.22,162.57L364.3,274L376.79,274L376.86,13.7L389.35,13.7L389.42,274L414.47,274L414.55,13.7L452.16,13.7L452.23,274L464.72,274L464.8,13.7L489.84,13.7L489.92,244.3L502.41,244.3L502.48,13.7L514.97,13.7L515.04,274L577.78,274L577.85,223.05L590.34,223.05L590.42,274L615.47,274L615.54,190.76L628.03,190.76L628.1,274L637,274" style="vector-effect: non-scaling-stroke; fill: none; stroke: rgb(255, 127, 14); stroke-opacity: 1; stroke-width: 0px; opacity: 1;"/></g><g class="points"/><g class="text"/></g><g class="trace scatter trace895d2a90-c7f2-430c-94d3-3f3284234d43" style="stroke-miterlimit: 2;"><g class="fills"><g><path class="js-fill" d="M0,65.44L12.49,65.44L12.56,13.7L138.11,13.7L138.18,274L150.67,274L150.74,13.7L326.54,13.7L326.61,35.9L351.66,35.9L351.74,13.7L364.22,13.7L364.3,116.34L376.79,116.34L376.86,13.7L489.84,13.7L489.92,51.78L502.41,51.78L502.48,13.7L552.65,13.7L552.73,84.41L565.22,84.41L565.29,259.18L577.78,259.18L577.85,223.05L590.34,223.05L590.42,13.7L637,13.7L637,13.7L615.54,13.7L615.47,175.12L590.42,175.12L590.34,223.05L577.85,223.05L577.78,259.18L565.29,259.18L565.22,84.41L552.73,84.41L552.65,196.49L540.17,196.49L540.09,13.7L502.48,13.7L502.41,51.78L489.92,51.78L489.84,13.7L414.55,13.7L414.47,274L389.42,274L389.35,13.7L376.86,13.7L376.79,176.31L364.3,176.31L364.22,162.57L351.74,162.57L351.66,35.9L326.61,35.9L326.54,13.7L263.8,13.7L263.73,54.16L251.24,54.16L251.17,13.7L188.43,13.7L188.36,137.32L175.87,137.32L175.79,274L163.31,274L163.23,45.73L150.74,45.73L150.67,274L138.18,274L138.11,13.7L125.62,13.7L125.55,274L62.81,274L62.74,194.24L50.25,194.24L50.17,59.89L37.69,59.89L37.61,203.8L12.56,203.8L12.49,65.44L0,65.44Z" style="fill: rgb(214, 39, 40); fill-opacity: 0.8; stroke-width: 0;"/></g></g><g class="errorbars"/><g class="lines"><path class="js-line" d="M0,65.44L12.49,65.44L12.56,203.8L37.61,203.8L37.69,59.89L50.17,59.89L50.25,194.24L62.74,194.24L62.81,274L125.55,274L125.62,13.7L138.11,13.7L138.18,274L150.67,274L150.74,45.73L163.23,45.73L163.31,274L175.79,274L175.87,137.32L188.36,137.32L188.43,13.7L251.17,13.7L251.24,54.16L263.73,54.16L263.8,13.7L326.54,13.7L326.61,35.9L351.66,35.9L351.74,162.57L364.22,162.57L364.3,176.31L376.79,176.31L376.86,13.7L389.35,13.7L389.42,274L414.47,274L414.55,13.7L489.84,13.7L489.92,51.78L502.41,51.78L502.48,13.7L540.09,13.7L540.17,196.49L552.65,196.49L552.73,84.41L565.22,84.41L565.29,259.18L577.78,259.18L577.85,223.05L590.34,223.05L590.42,175.12L615.47,175.12L615.54,13.7L637,13.7" style="vector-effect: non-scaling-stroke; fill: none; stroke: rgb(44, 160, 44); stroke-opacity: 1; stroke-width: 0px; opacity: 1;"/></g><g class="points"/><g class="text"/></g><g class="trace scatter traced9127faf-6220-4247-a810-15833ab8181e" style="stroke-miterlimit: 2;"><g class="fills"><g><path class="js-fill" d="M0,13.7L637,13.7L637,13.7L590.42,13.7L590.34,223.05L577.85,223.05L577.78,259.18L565.29,259.18L565.22,84.41L552.73,84.41L552.65,13.7L502.48,13.7L502.41,51.78L489.92,51.78L489.84,13.7L376.86,13.7L376.79,116.34L364.3,116.34L364.22,13.7L351.74,13.7L351.66,35.9L326.61,35.9L326.54,13.7L150.74,13.7L150.67,274L138.18,274L138.11,13.7L12.56,13.7L12.49,65.44L0,65.44Z" style="fill: rgb(148, 103, 189); fill-opacity: 0.8; stroke-width: 0;"/></g></g><g class="errorbars"/><g class="lines"><path class="js-line" d="M0,65.44L12.49,65.44L12.56,13.7L138.11,13.7L138.18,274L150.67,274L150.74,13.7L326.54,13.7L326.61,35.9L351.66,35.9L351.74,13.7L364.22,13.7L364.3,116.34L376.79,116.34L376.86,13.7L489.84,13.7L489.92,51.78L502.41,51.78L502.48,13.7L552.65,13.7L552.73,84.41L565.22,84.41L565.29,259.18L577.78,259.18L577.85,223.05L590.34,223.05L590.42,13.7L637,13.7" style="vector-effect: non-scaling-stroke; fill: none; stroke: rgb(220, 57, 18); stroke-opacity: 1; stroke-width: 0px; opacity: 1;"/></g><g class="points"/><g class="text"/></g><g class="trace scatter trace5f0d7330-4c4b-4c93-b39d-1edd0cc659fb" style="stroke-miterlimit: 2;"><g class="fills"/><g class="errorbars"/><g class="lines"><path class="js-line" d="M0,13.7L637,13.7" style="vector-effect: non-scaling-stroke; fill: none; stroke: rgb(148, 103, 189); stroke-opacity: 1; stroke-width: 0px; opacity: 1;"/></g><g class="points"/><g class="text"/></g></g></g><g class="overplot"/><path class="xlines-above crisp" d="M0,0" style="fill: none;"/><path class="ylines-above crisp" d="M0,0" style="fill: none;"/><g class="overlines-above"/><g class="xaxislayer-above"><g class="xtick"><text text-anchor="middle" x="0" y="333" transform="translate(120.93,0)" style="font-family: 'Open Sans', verdana, arial, sans-serif; font-size: 12px; fill: rgb(214, 223, 239); fill-opacity: 1; white-space: pre; opacity: 1;">Mar 2020</text></g><g class="xtick"><text text-anchor="middle" x="0" y="333" style="font-family: 'Open Sans', verdana, arial, sans-serif; font-size: 12px; fill: rgb(214, 223, 239); fill-opacity: 1; white-space: pre; opacity: 1;" transform="translate(230.4,0)">May 2020</text></g><g class="xtick"><text text-anchor="middle" x="0" y="333" style="font-family: 'Open Sans', verdana, arial, sans-serif; font-size: 12px; fill: rgb(214, 223, 239); fill-opacity: 1; white-space: pre; opacity: 1;" transform="translate(339.87,0)">Jul 2020</text></g><g class="xtick"><text text-anchor="middle" x="0" y="333" style="font-family: 'Open Sans', verdana, arial, sans-serif; font-size: 12px; fill: rgb(214, 223, 239); fill-opacity: 1; white-space: pre; opacity: 1;" transform="translate(451.14,0)">Sep 2020</text></g><g class="xtick"><text text-anchor="middle" x="0" y="333" style="font-family: 'Open Sans', verdana, arial, sans-serif; font-size: 12px; fill: rgb(214, 223, 239); fill-opacity: 1; white-space: pre; opacity: 1;" transform="translate(560.61,0)">Nov 2020</text></g></g><g class="yaxislayer-above"><g class="ytick"><text text-anchor="end" x="32" y="4.199999999999999" transform="translate(0,320)" style="font-family: 'Open Sans', verdana, arial, sans-serif; font-size: 12px; fill: rgb(214, 223, 239); fill-opacity: 1; white-space: pre; opacity: 1;">0</text></g><g class="ytick"><text text-anchor="end" x="32" y="4.199999999999999" style="font-family: 'Open Sans', verdana, arial, sans-serif; font-size: 12px; fill: rgb(214, 223, 239); fill-opacity: 1; white-space: pre; opacity: 1;" transform="translate(0,267.94)">0.2</text></g><g class="ytick"><text text-anchor="end" x="32" y="4.199999999999999" style="font-family: 'Open Sans', verdana, arial, sans-serif; font-size: 12px; fill: rgb(214, 223, 239); fill-opacity: 1; white-space: pre; opacity: 1;" transform="translate(0,215.88)">0.4</text></g><g class="ytick"><text text-anchor="end" x="32" y="4.199999999999999" style="font-family: 'Open Sans', verdana, arial, sans-serif; font-size: 12px; fill: rgb(214, 223, 239); fill-opacity: 1; white-space: pre; opacity: 1;" transform="translate(0,163.82)">0.6</text></g><g class="ytick"><text text-anchor="end" x="32" y="4.199999999999999" style="font-family: 'Open Sans', verdana, arial, sans-serif; font-size: 12px; fill: rgb(214, 223, 239); fill-opacity: 1; white-space: pre; opacity: 1;" transform="translate(0,111.76)">0.8</text></g><g class="ytick"><text text-anchor="end" x="32" y="4.199999999999999" style="font-family: 'Open Sans', verdana, arial, sans-serif; font-size: 12px; fill: rgb(214, 223, 239); fill-opacity: 1; white-space: pre; opacity: 1;" transform="translate(0,59.7)">1</text></g></g><g class="overaxes-above"/></g></g><g class="polarlayer"/><g class="smithlayer"/><g class="ternarylayer"/><g class="geolayer"/><g class="funnelarealayer"/><g class="pielayer"/><g class="iciclelayer"/><g class="treemaplayer"/><g class="sunburstlayer"/><g class="glimages"/><defs id="topdefs-93cc48"><g class="clips"/><clipPath id="legend93cc48"><rect width="517" height="29" x="0" y="0"/></clipPath></defs><g class="layer-above"><g class="imagelayer"/><g class="shapelayer"/></g><g class="infolayer"><g class="legend" pointer-events="all" transform="translate(153,11.519999999999996)"><rect class="bg" shape-rendering="crispEdges" width="517" height="29" x="0" y="0" style="stroke: rgb(68, 68, 68); stroke-opacity: 1; fill: rgb(33, 34, 44); fill-opacity: 1; stroke-width: 0px;"/><g class="scrollbox" transform="" clip-path="url(#legend93cc48)"><g class="groups"><g class="traces" transform="translate(0,14.5)" style="opacity: 1;"><text class="legendtext" text-anchor="start" x="40" y="4.680000000000001" style="font-family: 'Open Sans', verdana, arial, sans-serif; font-size: 12px; fill: rgb(214, 223, 239); fill-opacity: 1; white-space: pre;">ADAUSDT</text><g class="layers"><g class="legendfill"><path class="js-fill" d="M5,-2h30v6h-30z" style="stroke-width: 0; fill: rgb(31, 119, 180); fill-opacity: 0.8;"/></g><g class="legendlines"><path class="js-line" d="M5,-2h30" style="fill: none; stroke: rgb(31, 119, 180); stroke-opacity: 1; stroke-width: 0px;"/></g><g class="legendsymbols"><g class="legendpoints"/></g></g><rect class="legendtoggle" x="0" y="-9.5" width="101.78125" height="19" style="fill: rgb(0, 0, 0); fill-opacity: 0;"/></g><g class="traces" transform="translate(104.28125,14.5)" style="opacity: 1;"><text class="legendtext" text-anchor="start" x="40" y="4.680000000000001" style="font-family: 'Open Sans', verdana, arial, sans-serif; font-size: 12px; fill: rgb(214, 223, 239); fill-opacity: 1; white-space: pre;">BNBUSDT</text><g class="layers"><g class="legendfill"><path class="js-fill" d="M5,-2h30v6h-30z" style="stroke-width: 0; fill: rgb(255, 127, 14); fill-opacity: 0.8;"/></g><g class="legendlines"><path class="js-line" d="M5,-2h30" style="fill: none; stroke: rgb(255, 127, 14); stroke-opacity: 1; stroke-width: 0px;"/></g><g class="legendsymbols"><g class="legendpoints"/></g></g><rect class="legendtoggle" x="0" y="-9.5" width="101.5625" height="19" style="fill: rgb(0, 0, 0); fill-opacity: 0;"/></g><g class="traces" transform="translate(208.34375,14.5)" style="opacity: 1;"><text class="legendtext" text-anchor="start" x="40" y="4.680000000000001" style="font-family: 'Open Sans', verdana, arial, sans-serif; font-size: 12px; fill: rgb(214, 223, 239); fill-opacity: 1; white-space: pre;">BTCUSDT</text><g class="layers"><g class="legendfill"><path class="js-fill" d="M5,-2h30v6h-30z" style="stroke-width: 0; fill: rgb(44, 160, 44); fill-opacity: 0.8;"/></g><g class="legendlines"><path class="js-line" d="M5,-2h30" style="fill: none; stroke: rgb(44, 160, 44); stroke-opacity: 1; stroke-width: 0px;"/></g><g class="legendsymbols"><g class="legendpoints"/></g></g><rect class="legendtoggle" x="0" y="-9.5" width="100.140625" height="19" style="fill: rgb(0, 0, 0); fill-opacity: 0;"/></g><g class="traces" transform="translate(310.984375,14.5)" style="opacity: 1;"><text class="legendtext" text-anchor="start" x="40" y="4.680000000000001" style="font-family: 'Open Sans', verdana, arial, sans-serif; font-size: 12px; fill: rgb(214, 223, 239); fill-opacity: 1; white-space: pre;">ETHUSDT</text><g class="layers"><g class="legendfill"><path class="js-fill" d="M5,-2h30v6h-30z" style="stroke-width: 0; fill: rgb(214, 39, 40); fill-opacity: 0.8;"/></g><g class="legendlines"><path class="js-line" d="M5,-2h30" style="fill: none; stroke: rgb(220, 57, 18); stroke-opacity: 1; stroke-width: 0px;"/></g><g class="legendsymbols"><g class="legendpoints"/></g></g><rect class="legendtoggle" x="0" y="-9.5" width="100.140625" height="19" style="fill: rgb(0, 0, 0); fill-opacity: 0;"/></g><g class="traces" transform="translate(413.625,14.5)" style="opacity: 1;"><text class="legendtext" text-anchor="start" x="40" y="4.680000000000001" style="font-family: 'Open Sans', verdana, arial, sans-serif; font-size: 12px; fill: rgb(214, 223, 239); fill-opacity: 1; white-space: pre;">XRPUSDT</text><g class="layers"><g class="legendfill"><path class="js-fill" d="M5,-2h30v6h-30z" style="stroke-width: 0; fill: rgb(148, 103, 189); fill-opacity: 0.8;"/></g><g class="legendlines"><path class="js-line" d="M5,-2h30" style="fill: none; stroke: rgb(148, 103, 189); stroke-opacity: 1; stroke-width: 0px;"/></g><g class="legendsymbols"><g class="legendpoints"/></g></g><rect class="legendtoggle" x="0" y="-9.5" width="99.9375" height="19" style="fill: rgb(0, 0, 0); fill-opacity: 0;"/></g></g></g><rect class="scrollbar" rx="20" ry="3" width="0" height="0" x="0" y="0" style="fill: rgb(128, 139, 164); fill-opacity: 1;"/></g><g class="g-gtitle"/><g class="g-xtitle"/><g class="g-ytitle"/></g></svg>