<svg class="main-svg" xmlns="http://www.w3.org/2000/svg" xmlns:xlink="http://www.w3.org/1999/xlink" width="700" height="350" style="" viewBox="0 0 700 350"><rect x="0" y="0" width="700" height="350" style="fill: rgb(33, 34, 44); fill-opacity: 1;"/><defs id="defs-329c8b"><g class="clips"><clipPath id="clip329c8bxyplot" class="plotclip"><rect width="630" height="274"/></clipPath><clipPath class="axesclip" id="clip329c8bx"><rect x="40" y="0" width="630" height="350"/></clipPath><clipPath class="axesclip" id="clip329c8by"><rect x="0" y="46" width="700" height="274"/></clipPath><clipPath class="axesclip" id="clip329c8bxy"><rect x="40" y="46" width="630" height="274"/></clipPath></g><g class="gradients"/><g class="patterns"/></defs><g class="bglayer"/><g class="layer-below"><g class="imagelayer"/><g class="shapelayer"/></g><g class="cartesianlayer"><g class="subplot xy"><g class="layer-subplot"><g class="shapelayer"/><g class="imagelayer"/></g><g class="gridlayer"><g class="x"><path class="xgrid crisp" transform="translate(143.29000000000002,0)" d="M0,46v274" style="stroke: rgb(47, 62, 78); stroke-opacity: 1; stroke-width: 1px;"/><path class="xgrid crisp" transform="translate(248.3,0)" d="M0,46v274" style="stroke: rgb(47, 62, 78); stroke-opacity: 1; stroke-width: 1px;"/><path class="xgrid crisp" transform="translate(353.31,0)" d="M0,46v274" style="stroke: rgb(47, 62, 78); stroke-opacity: 1; stroke-width: 1px;"/><path class="xgrid crisp" transform="translate(460.05,0)" d="M0,46v274" style="stroke: rgb(47, 62, 78); stroke-opacity: 1; stroke-width: 1px;"/><path class="xgrid crisp" transform="translate(565.06,0)" d="M0,46v274" style="stroke: rgb(47, 62, 78); stroke-opacity: 1; stroke-width: 1px;"/></g><g class="y"><path class="ygrid crisp" transform="translate(0,267.94)" d="M40,0h630" style="stroke: rgb(47, 62, 78); stroke-opacity: 1; stroke-width: 1px;"/><path class="ygrid crisp" transform="translate(0,215.88)" d="M40,0h630" style="stroke: rgb(47, 62, 78); stroke-opacity: 1; stroke-width: 1px;"/><path class="ygrid crisp" transform="translate(0,163.82)" d="M40,0h630" style="stroke: rgb(47, 62, 78); stroke-opacity: 1; stroke-width: 1px;"/><path class="ygrid crisp" transform="translate(0,111.76)" d="M40,0h630" style="stroke: rgb(47, 62, 78); stroke-opacity: 1; stroke-width: 1px;"/><path class="ygrid crisp" transform="translate(0,59.7)" d="M40,0h630" style="stroke: rgb(47, 62, 78); stroke-opacity: 1; stroke-width: 1px;"/></g></g><g class="zerolinelayer"><path class="yzl zl crisp" transform="translate(0,320)" d="M40,0h630" style="stroke: rgb(47, 62, 78); stroke-opacity: 1; stroke-width: 2px;"/></g><path class="xlines-below"/><path class="ylines-below"/><g class="overlines-below"/><g class="xaxislayer-below"/><g class="yaxislayer-below"/><g class="overaxes-below"/><g class="plot" transform="translate(40,46)" clip-path="url(#clip329c8bxyplot)"><g class="scatterlayer mlayer"><g class="trace scatter trace9b990a9c-357f-4ac2-bce1-c522d4feb04b" style="stroke-miterlimit: 2;"><g class="fills"><g><path class="js-fill" d="M630,274L0,274L0,245.3L48.2,245.3L48.27,270.38L69.36,270.38L69.43,209.98L122.3,209.98L122.37,266.53L124.09,266.53L124.16,192.02L162.47,192.02L162.54,248L200.91,248L200.99,238.43L218.56,238.43L218.63,232.39L256,232.39L256.07,170.33L258.51,170.33L258.58,252.07L314.46,252.07L314.53,222.97L325.22,222.97L325.29,201.11L358.5,201.11L358.58,199.82L367.9,199.82L367.97,197.65L406.28,197.65L406.35,258.24L423.49,258.24L423.56,181.93L428.22,181.93L428.3,192.56L433.75,192.56L433.82,256.55L440.92,256.55L440.99,242.1L448.74,242.1L448.81,228.01L531.23,228.01L531.3,197.83L559.85,197.83L559.92,249.46L560.42,249.46L560.49,239.47L563.94,239.47L564.01,228.43L564.58,228.43L564.65,175.86L566.02,175.86L566.09,232.85L568.38,232.85L568.46,200.73L572.33,200.73L572.4,221.76L605.54,221.76L605.61,269.93L611.06,269.93L611.14,191.18L614.29,191.18L614.36,260.18L614.94,260.18L615.01,223.93L622.04,223.93L622.11,197.59L624.76,197.59L624.84,237.5L625.12,237.5L625.19,269.93L625.98,269.93L626.05,223.37L630,223.94" style="fill: rgb(31, 119, 180); fill-opacity: 0.8; stroke-width: 0;"/></g><g><path class="js-fill" d="M0,221.28L48.2,221.28L48.27,163.03L69.36,163.03L69.43,157.48L122.3,157.48L122.37,183.11L124.09,183.11L124.16,124.97L162.47,124.97L162.54,231.21L200.91,231.21L200.99,219.21L218.56,219.21L218.63,178.5L256,178.5L256.07,138.53L258.51,138.53L258.58,212.7L314.46,212.7L314.53,181.47L325.22,181.47L325.29,152.46L358.5,152.46L358.58,123.33L367.9,123.33L367.97,180.03L406.28,180.03L406.35,172.52L423.49,172.52L423.56,164.77L428.22,164.77L428.3,150.91L433.75,150.91L433.82,214.81L440.92,214.81L440.99,166.21L448.74,166.21L448.81,213.69L531.23,213.69L531.3,158.23L559.85,158.23L559.92,224.83L560.42,224.83L560.49,178.06L563.94,178.06L564.01,203.65L564.58,203.65L564.65,171.74L566.02,171.74L566.09,166.83L568.38,166.83L568.46,200.36L572.33,200.36L572.4,162.52L605.54,162.52L605.61,228.14L611.06,228.14L611.14,183.16L614.29,183.16L614.36,206.13L614.94,206.13L615.01,161.72L622.04,161.72L622.11,141L624.76,141L624.84,177.15L625.12,177.15L625.19,187.49L625.98,187.49L626.05,157.43L626.2,157.43L626.27,163.36L630,163.36L630,223.94L626.05,223.37L625.98,269.93L625.19,269.93L625.12,237.5L624.84,237.5L624.76,197.59L622.11,197.59L622.04,223.93L615.01,223.93L614.94,260.18L614.36,260.18L614.29,191.18L611.14,191.18L611.06,269.93L605.61,269.93L605.54,221.76L572.4,221.76L572.33,200.73L568.46,200.73L568.38,232.85L566.09,232.85L566.02,175.86L564.65,175.86L564.58,228.43L564.01,228.43L563.94,239.47L560.49,239.47L560.42,249.46L559.92,249.46L559.85,197.83L531.3,197.83L531.23,228.01L448.81,228.01L448.74,242.1L440.99,242.1L440.92,256.55L433.82,256.55L433.75,192.56L428.3,192.56L428.22,181.93L423.56,181.93L423.49,258.24L406.35,258.24L406.28,197.65L367.97,197.65L367.9,199.82L358.58,199.82L358.5,201.11L325.29,201.11L325.22,222.97L314.53,222.97L314.46,252.07L258.58,252.07L258.51,170.33L256.07,170.33L256,232.39L218.63,232.39L218.56,238.43L200.99,238.43L200.91,248L162.54,248L162.47,192.02L124.16,192.02L124.09,266.53L122.37,266.53L122.3,209.98L69.43,209.98L69.36,270.38L48.27,270.38L48.2,245.3L0,245.3Z" style="fill: rgb(255, 127, 14); fill-opacity: 0.8; stroke-width: 0;"/></g></g><g class="errorbars"/><g class="lines"><path class="js-line" d="M0,245.3L48.2,245.3L48.27,270.38L69.36,270.38L69.43,209.98L122.3,209.98L122.37,266.53L124.09,266.53L124.16,192.02L162.47,192.02L162.54,248L200.91,248L200.99,238.43L218.56,238.43L218.63,232.39L256,232.39L256.07,170.33L258.51,170.33L258.58,252.07L314.46,252.07L314.53,222.97L325.22,222.97L325.29,201.11L358.5,201.11L358.58,199.82L367.9,199.82L367.97,197.65L406.28,197.65L406.35,258.24L423.49,258.24L423.56,181.93L428.22,181.93L428.3,192.56L433.75,192.56L433.82,256.55L440.92,256.55L440.99,242.1L448.74,242.1L448.81,228.01L531.23,228.01L531.3,197.83L559.85,197.83L559.92,249.46L560.42,249.46L560.49,239.47L563.94,239.47L564.01,228.43L564.58,228.43L564.65,175.86L566.02,175.86L566.09,232.85L568.38,232.85L568.46,200.73L572.33,200.73L572.4,221.76L605.54,221.76L605.61,269.93L611.06,269.93L611.14,191.18L614.29,191.18L614.36,260.18L614.94,260.18L615.01,223.93L622.04,223.93L622.11,197.59L624.76,197.59L624.84,237.5L625.12,237.5L625.19,269.93L625.98,269.93L626.05,223.37L630,223.94" style="vector-effect: non-scaling-stroke; fill: none; stroke: rgb(31, 119, 180); stroke-opacity: 1; stroke-width: 0px; opacity: 1;"/></g><g class="points"/><g class="text"/></g><g class="trace scatter trace0acc51cb-c974-4aaf-a44d-2b8aa1a8ebee" style="stroke-miterlimit: 2;"><g class="fills"><g><path class="js-fill" d="M0,206.28L48.2,206.28L48.27,157.07L69.36,157.07L69.43,98.55L122.3,98.55L122.37,132.06L124.09,132.06L124.16,31.79L162.47,31.79L162.54,139.46L200.91,139.46L200.99,135.84L218.56,135.84L218.63,161.39L256,161.39L256.07,30.09L258.51,30.09L258.58,138.8L314.46,138.8L314.53,136.97L325.22,136.97L325.29,115.59L358.5,115.59L358.58,87.52L367.9,87.52L367.97,127.9L406.28,127.9L406.35,63.66L423.49,63.66L423.56,83.79L428.22,83.79L428.3,102.76L433.75,102.76L433.82,111.34L440.92,111.34L440.99,153.37L448.74,153.37L448.81,180.62L531.23,180.62L531.3,135.37L559.85,135.37L559.92,219.44L560.42,219.44L560.49,119.45L563.94,119.45L564.01,143.93L564.58,143.93L564.65,158.94L566.02,158.94L566.09,161.42L568.38,161.42L568.46,128.1L572.33,128.1L572.4,106.36L605.54,106.36L605.61,132.5L611.06,132.5L611.14,125.72L614.29,125.72L614.36,140.73L614.94,140.73L615.01,74.22L622.04,74.22L622.11,85.48L624.76,85.48L624.84,167.28L625.12,167.28L625.19,153.17L625.98,153.17L626.05,78.99L626.2,78.99L626.27,106.19L630,106.19L630,163.36L626.27,163.36L626.2,157.43L626.05,157.43L625.98,187.49L625.19,187.49L625.12,177.15L624.84,177.15L624.76,141L622.11,141L622.04,161.72L615.01,161.72L614.94,206.13L614.36,206.13L614.29,183.16L611.14,183.16L611.06,228.14L605.61,228.14L605.54,162.52L572.4,162.52L572.33,200.36L568.46,200.36L568.38,166.83L566.09,166.83L566.02,171.74L564.65,171.74L564.58,203.65L564.01,203.65L563.94,178.06L560.49,178.06L560.42,224.83L559.92,224.83L559.85,158.23L531.3,158.23L531.23,213.69L448.81,213.69L448.74,166.21L440.99,166.21L440.92,214.81L433.82,214.81L433.75,150.91L428.3,150.91L428.22,164.77L423.56,164.77L423.49,172.52L406.35,172.52L406.28,180.03L367.97,180.03L367.9,123.33L358.58,123.33L358.5,152.46L325.29,152.46L325.22,181.47L314.53,181.47L314.46,212.7L258.58,212.7L258.51,138.53L256.07,138.53L256,178.5L218.63,178.5L218.56,219.21L200.99,219.21L200.91,231.21L162.54,231.21L162.47,124.97L124.16,124.97L124.09,183.11L122.37,183.11L122.3,157.48L69.43,157.48L69.36,163.03L48.27,163.03L48.2,221.28L0,221.28Z" style="fill: rgb(44, 160, 44); fill-opacity: 0.8; stroke-width: 0;"/></g></g><g class="errorbars"/><g class="lines"><path class="js-line" d="M0,221.28L48.2,221.28L48.27,163.03L69.36,163.03L69.43,157.48L122.3,157.48L122.37,183.11L124.09,183.11L124.16,124.97L162.47,124.97L162.54,231.21L200.91,231.21L200.99,219.21L218.56,219.21L218.63,178.5L256,178.5L256.07,138.53L258.51,138.53L258.58,212.7L314.46,212.7L314.53,181.47L325.22,181.47L325.29,152.46L358.5,152.46L358.58,123.33L367.9,123.33L367.97,180.03L406.28,180.03L406.35,172.52L423.49,172.52L423.56,164.77L428.22,164.77L428.3,150.91L433.75,150.91L433.82,214.81L440.92,214.81L440.99,166.21L448.74,166.21L448.81,213.69L531.23,213.69L531.3,158.23L559.85,158.23L559.92,224.83L560.42,224.83L560.49,178.06L563.94,178.06L564.01,203.65L564.58,203.65L564.65,171.74L566.02,171.74L566.09,166.83L568.38,166.83L568.46,200.36L572.33,200.36L572.4,162.52L605.54,162.52L605.61,228.14L611.06,228.14L611.14,183.16L614.29,183.16L614.36,206.13L614.94,206.13L615.01,161.72L622.04,161.72L622.11,141L624.76,141L624.84,177.15L625.12,177.15L625.19,187.49L625.98,187.49L626.05,157.43L626.2,157.43L626.27,163.36L630,163.36" style="vector-effect: non-scaling-stroke; fill: none; stroke: rgb(255, 127, 14); stroke-opacity: 1; stroke-width: 0px; opacity: 1;"/></g><g class="points"/><g class="text"/></g><g class="trace scatter tracec6bf37b3-9969-4947-85ba-4ee79a5747f7" style="stroke-miterlimit: 2;"><g class="fills"><g><path class="js-fill" d="M0,115.01L48.2,115.01L48.27,95L69.36,95L69.43,73.6L122.3,73.6L122.37,55.87L124.09,55.87L124.16,21.39L162.47,21.39L162.54,116.4L200.91,116.4L200.99,66.3L218.56,66.3L218.63,86.74L256,86.74L256.07,18.59L258.51,18.59L258.58,76.91L314.46,76.91L314.53,18.51L325.22,18.51L325.29,54.61L358.5,54.61L358.58,64.01L367.9,64.01L367.97,75.05L406.28,75.05L406.35,42.15L423.49,42.15L423.56,37.13L428.22,37.13L428.3,69.16L433.75,69.16L433.82,83.79L440.92,83.79L440.99,58.22L448.74,58.22L448.81,79.36L559.85,78.65L559.92,111.24L560.42,111.24L560.49,76.87L563.94,76.87L564.01,131.29L564.58,131.29L564.65,111.56L566.02,111.56L566.09,142.11L568.38,142.11L568.46,79.59L572.33,79.59L572.4,29.74L605.54,29.74L605.61,105.1L611.06,105.1L611.14,87.83L614.29,87.83L614.36,67.02L614.94,67.02L615.01,16.76L622.04,16.76L622.11,67.78L624.76,67.78L624.84,106.31L625.12,106.31L625.19,79.71L625.98,79.71L626.05,42.9L626.2,42.9L626.27,46.36L630,46.36L630,106.19L626.27,106.19L626.2,78.99L626.05,78.99L625.98,153.17L625.19,153.17L625.12,167.28L624.84,167.28L624.76,85.48L622.11,85.48L622.04,74.22L615.01,74.22L614.94,140.73L614.36,140.73L614.29,125.72L611.14,125.72L611.06,132.5L605.61,132.5L605.54,106.36L572.4,106.36L572.33,128.1L568.46,128.1L568.38,161.42L566.09,161.42L566.02,158.94L564.65,158.94L564.58,143.93L564.01,143.93L563.94,119.45L560.49,119.45L560.42,219.44L559.92,219.44L559.85,135.37L531.3,135.37L531.23,180.62L448.81,180.62L448.74,153.37L440.99,153.37L440.92,111.34L433.82,111.34L433.75,102.76L428.3,102.76L428.22,83.79L423.56,83.79L423.49,63.66L406.35,63.66L406.28,127.9L367.97,127.9L367.9,87.52L358.58,87.52L358.5,115.59L325.29,115.59L325.22,136.97L314.53,136.97L314.46,138.8L258.58,138.8L258.51,30.09L256.07,30.09L256,161.39L218.63,161.39L218.56,135.84L200.99,135.84L200.91,139.46L162.54,139.46L162.47,31.79L124.16,31.79L124.09,132.06L122.37,132.06L122.3,98.55L69.43,98.55L69.36,157.07L48.27,157.07L48.2,206.28L0,206.28Z" style="fill: rgb(214, 39, 40); fill-opacity: 0.8; stroke-width: 0;"/></g></g><g class="errorbars"/><g class="lines"><path class="js-line" d="M0,206.28L48.2,206.28L48.27,157.07L69.36,157.07L69.43,98.55L122.3,98.55L122.37,132.06L124.09,132.06L124.16,31.79L162.47,31.79L162.54,139.46L200.91,139.46L200.99,135.84L218.56,135.84L218.63,161.39L256,161.39L256.07,30.09L258.51,30.09L258.58,138.8L314.46,138.8L314.53,136.97L325.22,136.97L325.29,115.59L358.5,115.59L358.58,87.52L367.9,87.52L367.97,127.9L406.28,127.9L406.35,63.66L423.49,63.66L423.56,83.79L428.22,83.79L428.3,102.76L433.75,102.76L433.82,111.34L440.92,111.34L440.99,153.37L448.74,153.37L448.81,180.62L531.23,180.62L531.3,135.37L559.85,135.37L559.92,219.44L560.42,219.44L560.49,119.45L563.94,119.45L564.01,143.93L564.58,143.93L564.65,158.94L566.02,158.94L566.09,161.42L568.38,161.42L568.46,128.1L572.33,128.1L572.4,106.36L605.54,106.36L605.61,132.5L611.06,132.5L611.14,125.72L614.29,125.72L614.36,140.73L614.94,140.73L615.01,74.22L622.04,74.22L622.11,85.48L624.76,85.48L624.84,167.28L625.12,167.28L625.19,153.17L625.98,153.17L626.05,78.99L626.2,78.99L626.27,106.19L630,106.19" style="vector-effect: non-scaling-stroke; fill: none; stroke: rgb(44, 160, 44); stroke-opacity: 1; stroke-width: 0px; opacity: 1;"/></g><g class="points"/><g class="text"/></g><g class="trace scatter trace0e991504-7dfb-4f0a-9823-266002b11095" style="stroke-miterlimit: 2;"><g class="fills"><g><path class="js-fill" d="M0,13.7L630,13.7L630,46.36L626.27,46.36L626.2,42.9L626.05,42.9L625.98,79.71L625.19,79.71L625.12,106.31L624.84,106.31L624.76,67.78L622.11,67.78L622.04,16.76L615.01,16.76L614.94,67.02L614.36,67.02L614.29,87.83L611.14,87.83L611.06,105.1L605.61,105.1L605.54,29.74L572.4,29.74L572.33,79.59L568.46,79.59L568.38,142.11L566.09,142.11L566.02,111.56L564.65,111.56L564.58,131.29L564.01,131.29L563.94,76.87L560.49,76.87L560.42,111.24L559.92,111.24L559.85,78.65L448.81,79.36L448.74,58.22L440.99,58.22L440.92,83.79L433.82,83.79L433.75,69.16L428.3,69.16L428.22,37.13L423.56,37.13L423.49,42.15L406.35,42.15L406.28,75.05L367.97,75.05L367.9,64.01L358.58,64.01L358.5,54.61L325.29,54.61L325.22,18.51L314.53,18.51L314.46,76.91L258.58,76.91L258.51,18.59L256.07,18.59L256,86.74L218.63,86.74L218.56,66.3L200.99,66.3L200.91,116.4L162.54,116.4L162.47,21.39L124.16,21.39L124.09,55.87L122.37,55.87L122.3,73.6L69.43,73.6L69.36,95L48.27,95L48.2,115.01L0,115.01Z" style="fill: rgb(148, 103, 189); fill-opacity: 0.8; stroke-width: 0;"/></g></g><g class="errorbars"/><g class="lines"><path class="js-line" d="M0,115.01L48.2,115.01L48.27,95L69.36,95L69.43,73.6L122.3,73.6L122.37,55.87L124.09,55.87L124.16,21.39L162.47,21.39L162.54,116.4L200.91,116.4L200.99,66.3L218.56,66.3L218.63,86.74L256,86.74L256.07,18.59L258.51,18.59L258.58,76.91L314.46,76.91L314.53,18.51L325.22,18.51L325.29,54.61L358.5,54.61L358.58,64.01L367.9,64.01L367.97,75.05L406.28,75.05L406.35,42.15L423.49,42.15L423.56,37.13L428.22,37.13L428.3,69.16L433.75,69.16L433.82,83.79L440.92,83.79L440.99,58.22L448.74,58.22L448.81,79.36L559.85,78.65L559.92,111.24L560.42,111.24L560.49,76.87L563.94,76.87L564.01,131.29L564.58,131.29L564.65,111.56L566.02,111.56L566.09,142.11L568.38,142.11L568.46,79.59L572.33,79.59L572.4,29.74L605.54,29.74L605.61,105.1L611.06,105.1L611.14,87.83L614.29,87.83L614.36,67.02L614.94,67.02L615.01,16.76L622.04,16.76L622.11,67.78L624.76,67.78L624.84,106.31L625.12,106.31L625.19,79.71L625.98,79.71L626.05,42.9L626.2,42.9L626.27,46.36L630,46.36" style="vector-effect: non-scaling-stroke; fill: none; stroke: rgb(220, 57, 18); stroke-opacity: 1; stroke-width: 0px; opacity: 1;"/></g><g class="points"/><g class="text"/></g><g class="trace scatter tracebd011a12-cfd2-4bb8-8bc1-0357b6067d09" style="stroke-miterlimit: 2;"><g class="fills"/><g class="errorbars"/><g class="lines"><path class="js-line" d="M0,13.7L630,13.7" style="vector-effect: non-scaling-stroke; fill: none; stroke: rgb(148, 103, 189); stroke-opacity: 1; stroke-width: 0px; opacity: 1;"/></g><g class="points"/><g class="text"/></g></g></g><g class="overplot"/><path class="xlines-above crisp" d="M0,0" style="fill: none;"/><path class="ylines-above crisp" d="M0,0" style="fill: none;"/><g class="overlines-above"/><g class="xaxislayer-above"><g class="xtick"><text text-anchor="middle" x="0" y="333" transform="translate(40,0)" style="font-family: 'Open Sans', verdana, arial, sans-serif; font-size: 12px; fill: rgb(214, 223, 239); fill-opacity: 1; white-space: pre; opacity: 1;">Jan 2020</text></g><g class="xtick"><text text-anchor="middle" x="0" y="333" style="font-family: 'Open Sans', verdana, arial, sans-serif; font-size: 12px; fill: rgb(214, 223, 239); fill-opacity: 1; white-space: pre; opacity: 1;" transform="translate(143.29000000000002,0)">Mar 2020</text></g><g class="xtick"><text text-anchor="middle" x="0" y="333" style="font-family: 'Open Sans', verdana, arial, sans-serif; font-size: 12px; fill: rgb(214, 223, 239); fill-opacity: 1; white-space: pre; opacity: 1;" transform="translate(248.3,0)">May 2020</text></g><g class="xtick"><text text-anchor="middle" x="0" y="333" style="font-family: 'Open Sans', verdana, arial, sans-serif; font-size: 12px; fill: rgb(214, 223, 239); fill-opacity: 1; white-space: pre; opacity: 1;" transform="translate(353.31,0)">Jul 2020</text></g><g class="xtick"><text text-anchor="middle" x="0" y="333" style="font-family: 'Open Sans', verdana, arial, sans-serif; font-size: 12px; fill: rgb(214, 223, 239); fill-opacity: 1; white-space: pre; opacity: 1;" transform="translate(460.05,0)">Sep 2020</text></g><g class="xtick"><text text-anchor="middle" x="0" y="333" style="font-family: 'Open Sans', verdana, arial, sans-serif; font-size: 12px; fill: rgb(214, 223, 239); fill-opacity: 1; white-space: pre; opacity: 1;" transform="translate(565.06,0)">Nov 2020</text></g></g><g class="yaxislayer-above"><g class="ytick"><text text-anchor="end" x="39" y="4.199999999999999" transform="translate(0,320)" style="font-family: 'Open Sans', verdana, arial, sans-serif; font-size: 12px; fill: rgb(214, 223, 239); fill-opacity: 1; white-space: pre; opacity: 1;">0</text></g><g class="ytick"><text text-anchor="end" x="39" y="4.199999999999999" style="font-family: 'Open Sans', verdana, arial, sans-serif; font-size: 12px; fill: rgb(214, 223, 239); fill-opacity: 1; white-space: pre; opacity: 1;" transform="translate(0,267.94)">0.2</text></g><g class="ytick"><text text-anchor="end" x="39" y="4.199999999999999" style="font-family: 'Open Sans', verdana, arial, sans-serif; font-size: 12px; fill: rgb(214, 223, 239); fill-opacity: 1; white-space: pre; opacity: 1;" transform="translate(0,215.88)">0.4</text></g><g class="ytick"><text text-anchor="end" x="39" y="4.199999999999999" style="font-family: 'Open Sans', verdana, arial, sans-serif; font-size: 12px; fill: rgb(214, 223, 239); fill-opacity: 1; white-space: pre; opacity: 1;" transform="translate(0,163.82)">0.6</text></g><g class="ytick"><text text-anchor="end" x="39" y="4.199999999999999" style="font-family: 'Open Sans', verdana, arial, sans-serif; font-size: 12px; fill: rgb(214, 223, 239); fill-opacity: 1; white-space: pre; opacity: 1;" transform="translate(0,111.76)">0.8</text></g><g class="ytick"><text text-anchor="end" x="39" y="4.199999999999999" style="font-family: 'Open Sans', verdana, arial, sans-serif; font-size: 12px; fill: rgb(214, 223, 239); fill-opacity: 1; white-space: pre; opacity: 1;" transform="translate(0,59.7)">1</text></g></g><g class="overaxes-above"/></g></g><g class="polarlayer"/><g class="smithlayer"/><g class="ternarylayer"/><g class="geolayer"/><g class="funnelarealayer"/><g class="pielayer"/><g class="iciclelayer"/><g class="treemaplayer"/><g class="sunburstlayer"/><g class="glimages"/><defs id="topdefs-329c8b"><g class="clips"/><clipPath id="legend329c8b"><rect width="517" height="29" x="0" y="0"/></clipPath></defs><g class="layer-above"><g class="imagelayer"/><g class="shapelayer"/></g><g class="infolayer"><g class="legend" pointer-events="all" transform="translate(153,11.519999999999996)"><rect class="bg" shape-rendering="crispEdges" width="517" height="29" x="0" y="0" style="stroke: rgb(68, 68, 68); stroke-opacity: 1; fill: rgb(33, 34, 44); fill-opacity: 1; stroke-width: 0px;"/><g class="scrollbox" transform="" clip-path="url(#legend329c8b)"><g class="groups"><g class="traces" transform="translate(0,14.5)" style="opacity: 1;"><text class="legendtext" text-anchor="start" x="40" y="4.680000000000001" style="font-family: 'Open Sans', verdana, arial, sans-serif; font-size: 12px; fill: rgb(214, 223, 239); fill-opacity: 1; white-space: pre;">ADAUSDT</text><g class="layers"><g class="legendfill"><path class="js-fill" d="M5,-2h30v6h-30z" style="stroke-width: 0; fill: rgb(31, 119, 180); fill-opacity: 0.8;"/></g><g class="legendlines"><path class="js-line" d="M5,-2h30" style="fill: none; stroke: rgb(31, 119, 180); stroke-opacity: 1; stroke-width: 0px;"/></g><g class="legendsymbols"><g class="legendpoints"/></g></g><rect class="legendtoggle" x="0" y="-9.5" width="101.78125" height="19" style="fill: rgb(0, 0, 0); fill-opacity: 0;"/></g><g class="traces" transform="translate(104.28125,14.5)" style="opacity: 1;"><text class="legendtext" text-anchor="start" x="40" y="4.680000000000001" style="font-family: 'Open Sans', verdana, arial, sans-serif; font-size: 12px; fill: rgb(214, 223, 239); fill-opacity: 1; white-space: pre;">BNBUSDT</text><g class="layers"><g class="legendfill"><path class="js-fill" d="M5,-2h30v6h-30z" style="stroke-width: 0; fill: rgb(255, 127, 14); fill-opacity: 0.8;"/></g><g class="legendlines"><path class="js-line" d="M5,-2h30" style="fill: none; stroke: rgb(255, 127, 14); stroke-opacity: 1; stroke-width: 0px;"/></g><g class="legendsymbols"><g class="legendpoints"/></g></g><rect class="legendtoggle" x="0" y="-9.5" width="101.5625" height="19" style="fill: rgb(0, 0, 0); fill-opacity: 0;"/></g><g class="traces" transform="translate(208.34375,14.5)" style="opacity: 1;"><text class="legendtext" text-anchor="start" x="40" y="4.680000000000001" style="font-family: 'Open Sans', verdana, arial, sans-serif; font-size: 12px; fill: rgb(214, 223, 239); fill-opacity: 1; white-space: pre;">BTCUSDT</text><g class="layers"><g class="legendfill"><path class="js-fill" d="M5,-2h30v6h-30z" style="stroke-width: 0; fill: rgb(44, 160, 44); fill-opacity: 0.8;"/></g><g class="legendlines"><path class="js-line" d="M5,-2h30" style="fill: none; stroke: rgb(44, 160, 44); stroke-opacity: 1; stroke-width: 0px;"/></g><g class="legendsymbols"><g class="legendpoints"/></g></g><rect class="legendtoggle" x="0" y="-9.5" width="100.140625" height="19" style="fill: rgb(0, 0, 0); fill-opacity: 0;"/></g><g class="traces" transform="translate(310.984375,14.5)" style="opacity: 1;"><text class="legendtext" text-anchor="start" x="40" y="4.680000000000001" style="font-family: 'Open Sans', verdana, arial, sans-serif; font-size: 12px; fill: rgb(214, 223, 239); fill-opacity: 1; white-space: pre;">ETHUSDT</text><g class="layers"><g class="legendfill"><path class="js-fill" d="M5,-2h30v6h-30z" style="stroke-width: 0; fill: rgb(214, 39, 40); fill-opacity: 0.8;"/></g><g class="legendlines"><path class="js-line" d="M5,-2h30" style="fill: none; stroke: rgb(220, 57, 18); stroke-opacity: 1; stroke-width: 0px;"/></g><g class="legendsymbols"><g class="legendpoints"/></g></g><rect class="legendtoggle" x="0" y="-9.5" width="100.140625" height="19" style="fill: rgb(0, 0, 0); fill-opacity: 0;"/></g><g class="traces" transform="translate(413.625,14.5)" style="opacity: 1;"><text class="legendtext" text-anchor="start" x="40" y="4.680000000000001" style="font-family: 'Open Sans', verdana, arial, sans-serif; font-size: 12px; fill: rgb(214, 223, 239); fill-opacity: 1; white-space: pre;">XRPUSDT</text><g class="layers"><g class="legendfill"><path class="js-fill" d="M5,-2h30v6h-30z" style="stroke-width: 0; fill: rgb(148, 103, 189); fill-opacity: 0.8;"/></g><g class="legendlines"><path class="js-line" d="M5,-2h30" style="fill: none; stroke: rgb(148, 103, 189); stroke-opacity: 1; stroke-width: 0px;"/></g><g class="legendsymbols"><g class="legendpoints"/></g></g><rect class="legendtoggle" x="0" y="-9.5" width="99.9375" height="19" style="fill: rgb(0, 0, 0); fill-opacity: 0;"/></g></g></g><rect class="scrollbar" rx="20" ry="3" width="0" height="0" x="0" y="0" style="fill: rgb(128, 139, 164); fill-opacity: 1;"/></g><g class="g-gtitle"/><g class="g-xtitle"/><g class="g-ytitle"/></g></svg>