<svg class="main-svg" xmlns="http://www.w3.org/2000/svg" xmlns:xlink="http://www.w3.org/1999/xlink" width="750" height="960" viewBox="0 0 750 960"><rect x="0" y="0" width="750" height="960" style="fill: rgb(33, 34, 44); fill-opacity: 1;"/><defs id="defs-2da860"><g class="clips"><clipPath id="clip2da860xyplot" class="plotclip"><rect width="625" height="254.22222222222223"/></clipPath><clipPath id="clip2da860x2y2plot" class="plotclip"><rect width="625" height="254.22222222222214"/></clipPath><clipPath id="clip2da860x3y3plot" class="plotclip"><rect width="625" height="254.2222222222222"/></clipPath><clipPath class="axesclip" id="clip2da860x"><rect x="95" y="0" width="625" height="960"/></clipPath><clipPath class="axesclip" id="clip2da860y"><rect x="0" y="76" width="750" height="254.22222222222223"/></clipPath><clipPath class="axesclip" id="clip2da860xy"><rect x="95" y="76" width="625" height="254.22222222222223"/></clipPath><clipPath class="axesclip" id="clip2da860y2"><rect x="0" y="364.88888888888897" width="750" height="254.22222222222214"/></clipPath><clipPath class="axesclip" id="clip2da860xy2"><rect x="95" y="364.88888888888897" width="625" height="254.22222222222214"/></clipPath><clipPath class="axesclip" id="clip2da860y3"><rect x="0" y="653.7777777777777" width="750" height="254.2222222222222"/></clipPath><clipPath class="axesclip" id="clip2da860xy3"><rect x="95" y="653.7777777777777" width="625" height="254.2222222222222"/></clipPath><clipPath class="axesclip" id="clip2da860x2"><rect x="95" y="0" width="625" height="960"/></clipPath><clipPath class="axesclip" id="clip2da860x2y"><rect x="95" y="76" width="625" height="254.22222222222223"/></clipPath><clipPath class="axesclip" id="clip2da860x2y2"><rect x="95" y="364.88888888888897" width="625" height="254.22222222222214"/></clipPath><clipPath class="axesclip" id="clip2da860x2y3"><rect x="95" y="653.7777777777777" width="625" height="254.2222222222222"/></clipPath><clipPath class="axesclip" id="clip2da860x3"><rect x="95" y="0" width="625" height="960"/></clipPath><clipPath class="axesclip" id="clip2da860x3y"><rect x="95" y="76" width="625" height="254.22222222222223"/></clipPath><clipPath class="axesclip" id="clip2da860x3y2"><rect x="95" y="364.88888888888897" width="625" height="254.22222222222214"/></clipPath><clipPath class="axesclip" id="clip2da860x3y3"><rect x="95" y="653.7777777777777" width="625" height="254.2222222222222"/></clipPath></g><g class="gradients"/><g class="patterns"/></defs><g class="bglayer"/><g class="layer-below"><g class="imagelayer"/><g class="shapelayer"/></g><g class="cartesianlayer"><g class="subplot xy"><g class="layer-subplot"><g class="shapelayer"/><g class="imagelayer"/></g><g class="gridlayer"><g class="x"><path class="xgrid crisp" transform="translate(168.75,0)" d="M0,76v254.22222222222223" style="stroke: rgb(47, 62, 78); stroke-opacity: 1; stroke-width: 1px;"/><path class="xgrid crisp" transform="translate(295.5,0)" d="M0,76v254.22222222222223" style="stroke: rgb(47, 62, 78); stroke-opacity: 1; stroke-width: 1px;"/><path class="xgrid crisp" transform="translate(422.24,0)" d="M0,76v254.22222222222223" style="stroke: rgb(47, 62, 78); stroke-opacity: 1; stroke-width: 1px;"/><path class="xgrid crisp" transform="translate(549.3299999999999,0)" d="M0,76v254.22222222222223" style="stroke: rgb(47, 62, 78); stroke-opacity: 1; stroke-width: 1px;"/><path class="xgrid crisp" transform="translate(676.07,0)" d="M0,76v254.22222222222223" style="stroke: rgb(47, 62, 78); stroke-opacity: 1; stroke-width: 1px;"/></g><g class="y"><path class="ygrid crisp" transform="translate(0,290.41999999999996)" d="M95,0h625" style="stroke: rgb(47, 62, 78); stroke-opacity: 1; stroke-width: 1px;"/><path class="ygrid crisp" transform="translate(0,255.36)" d="M95,0h625" style="stroke: rgb(47, 62, 78); stroke-opacity: 1; stroke-width: 1px;"/><path class="ygrid crisp" transform="translate(0,220.29)" d="M95,0h625" style="stroke: rgb(47, 62, 78); stroke-opacity: 1; stroke-width: 1px;"/><path class="ygrid crisp" transform="translate(0,185.23000000000002)" d="M95,0h625" style="stroke: rgb(47, 62, 78); stroke-opacity: 1; stroke-width: 1px;"/><path class="ygrid crisp" transform="translate(0,150.16)" d="M95,0h625" style="stroke: rgb(47, 62, 78); stroke-opacity: 1; stroke-width: 1px;"/><path class="ygrid crisp" transform="translate(0,115.1)" d="M95,0h625" style="stroke: rgb(47, 62, 78); stroke-opacity: 1; stroke-width: 1px;"/><path class="ygrid crisp" transform="translate(0,80.04)" d="M95,0h625" style="stroke: rgb(47, 62, 78); stroke-opacity: 1; stroke-width: 1px;"/></g></g><g class="zerolinelayer"><path class="yzl zl crisp" transform="translate(0,325.48)" d="M95,0h625" style="stroke: rgb(47, 62, 78); stroke-opacity: 1; stroke-width: 2px;"/></g><path class="xlines-below"/><path class="ylines-below"/><g class="overlines-below"/><g class="xaxislayer-below"/><g class="yaxislayer-below"/><g class="overaxes-below"/><g class="plot" transform="translate(95,76)" clip-path="url(#clip2da860xyplot)"><g class="scatterlayer mlayer"><g class="trace scatter trace9b55a21a-0103-44f9-a533-e49b66e43c43" style="stroke-miterlimit: 2; opacity: 1;"><g class="fills"/><g class="errorbars"/><g class="lines"><path class="js-line" d="M26.18,234.46L27.57,235.4L27.92,235.32L31.39,232.53L31.74,233.8L32.08,233.67L32.43,235.11L33.47,233.03L33.82,234.47L35.21,234.89L35.56,235.65L35.9,238.3L36.25,236.51L36.6,236.46L36.94,236.51L37.29,235.34L38.68,236.88L39.03,236.23L39.38,236.65L39.72,235.74L40.07,235.87L40.42,234.78L41.11,234.85L41.46,234.13L43.89,233.98L44.24,233.22L45.28,232.58L45.63,230.45L46.32,228.9L46.67,229.46L47.01,229.29L47.71,230.16L48.06,229.55L48.75,228.36L49.1,228.62L49.45,228.74L49.79,230.28L50.14,229.53L50.49,228.93L51.18,229.43L51.53,227.85L51.88,228.02L52.22,226.82L53.96,223.73L54.31,225.08L55,223.88L55.35,224.66L56.39,229.11L56.74,226.81L57.08,226.43L57.43,224.1L57.78,221.91L58.47,222.27L58.82,221.3L59.86,220.71L60.21,221.36L60.56,220.95L60.9,218.98L61.95,214.78L62.29,215.52L62.64,214.99L64.03,208.88L64.38,208.46L65.07,191.28L65.42,193.8L65.77,198.09L66.11,197.24L66.46,191.32L67.15,193.27L67.5,192.21L67.85,187.98L68.2,182.5L68.89,183.37L69.24,188.84L70.63,202.85L70.97,202.15L71.32,201.45L71.67,194.47L72.02,195.28L72.36,199.76L72.71,199.07L73.06,205.86L74.45,197.17L74.79,196.68L75.49,189.63L75.84,192.86L77.22,203.06L77.57,201.31L77.92,199.66L78.27,202.24L78.61,202.01L78.96,211.26L79.66,211.05L80,209.25L80.35,204.6L80.7,209.06L81.04,211.76L81.39,211.62L81.74,209.69L82.43,210.6L82.78,209.19L83.13,207.83L83.48,210.03L84.86,218.37L85.21,217.23L85.91,225.15L86.25,222.65L86.6,222.84L86.95,222.19L87.29,219.04L87.99,221.21L88.34,218.27L88.68,219.54L89.03,216.35L90.07,210.78L90.42,213.08L91.11,210.21L91.46,212.89L92.5,215.49L92.85,215.86L94.24,211.19L94.59,210.78L95.28,209.11L95.63,209.32L95.98,211.91L97.36,218.73L97.71,216.06L98.75,220.84L99.1,220.59L99.45,220.52L99.8,222.05L100.14,220.77L100.49,219.33L101.18,218.33L101.53,218.9L101.88,218.28L102.23,219.52L102.92,220.96L103.27,222.15L103.62,221.61L103.96,224.62L105,225.6L105.35,224.74L105.7,223.52L106.05,225.65L106.74,226.34L107.09,225.31L107.43,224.88L107.78,225.7L108.48,225.1L108.82,221.7L109.52,221.44L109.87,220.19L110.56,221.84L110.91,220.83L111.25,220.46L111.6,218.43L112.64,218.16L112.99,215.75L113.34,218.38L114.03,218.22L114.38,216.71L114.73,216.46L115.07,217.06L115.42,217.68L116.81,214.9L117.16,215.62L118.89,220.03L119.24,219.8L119.59,219.05L120.28,219.81L120.63,220.28L120.98,221.29L121.32,220.59L121.67,220.61L122.02,219.59L122.37,220.1L122.71,221.51L123.76,223.34L124.1,223.77L124.45,223.75L124.8,224.59L125.84,223.24L126.19,223.11L126.88,222.44L127.23,223.23L128.27,222.52L128.62,222.82L128.96,223.22L129.31,225.76L129.66,225.39L130.01,226.59L130.35,227.42L130.7,226.22L131.74,226.87L132.09,225.95L133.13,225.93L133.48,228.29L134.52,227.56L134.87,228.2L135.21,227.98L135.56,228.96L136.95,226.29L137.3,226.64L139.03,225.95L139.38,226.12L140.42,227.57L140.77,227.69L141.46,227.21L141.81,225.91L142.85,223.31L143.2,223.76L143.9,223.56L144.24,222.41L144.59,220.04L144.94,220.82L145.28,221.71L146.33,220.69L146.67,220.82L147.71,223.1L148.06,223.47L149.1,225.17L149.45,225.92L150.49,227.94L150.84,227.63L152.23,227.51L152.58,227.35L152.92,226.4L153.27,227.09L153.62,226.77L153.97,227.55L154.31,226.76L154.66,227.18L156.74,224.67L157.09,224.83L157.78,224.9L158.13,224.24L159.17,223.68L159.52,225.99L160.56,227.8L160.91,227.57L161.26,227.35L161.95,227.26L162.3,226.74L163.34,226.68L163.69,227.57L165.77,225.96L166.12,226.41L166.81,226.82L167.16,226.03L169.24,226.66L169.59,226.36L171.67,226.23L172.02,227.56L173.06,227.26L173.41,225.81L174.45,226.28L174.8,226.59L176.19,226.51L176.54,226.46L179.31,227.01L179.66,226.92L180.7,226.8L181.05,226.63L181.74,226.76L182.09,226.97L183.48,226.84L183.83,228.72L185.22,229.63L185.56,232.27L186.61,234.16L186.95,233.98L188,235.94L188.34,235.9L189.04,234.42L189.38,235.31L190.08,234.89L190.43,235.87L190.77,235.63L191.12,236.27L191.47,237.18L192.16,237.52L192.51,237.05L194.25,238.18L194.59,238.22L194.94,238.16L195.29,237.18L196.33,235.29L196.68,236.02L197.02,235.64L197.72,235.43L198.07,236.35L198.41,236.24L198.76,236.97L199.8,236.15L200.15,236.5L201.54,236.19L201.88,236.26L202.93,235.62L203.27,235.58L204.32,236.92L204.66,237.29L205.7,236.89L206.05,236.8L211.26,237.35L211.61,237.2L213.34,237.57L213.69,236.65L216.82,236.62L217.16,235.81L218.9,235.05L219.25,236.36L220.64,236.11L220.98,236.08L223.41,235.93L223.76,235.66L225.84,235.73L226.19,235.44L229.66,235.64L230.01,235.33L231.75,234.95L232.09,232.45L234.87,230.87L235.22,231.89L239.73,230.5L240.08,231.18L241.12,230.87L241.47,231.12L244.94,227.71L245.29,227.14L246.68,221.62L247.03,220.84L248.07,224.04L248.42,220.91L249.46,222.74L249.8,221.95L250.5,221.34L250.85,219.28L251.54,218.92L251.89,219.17L252.23,220.49L252.58,219.49L252.93,219.53L253.28,218.89L253.62,221.03L253.97,222.53L254.32,222.22L254.67,222.18L255.01,221.5L255.36,221.81L255.71,222.74L256.75,220.99L257.1,220.67L258.49,216.83L258.83,217.64L259.53,216.11L259.87,213.86L261.61,203.57L261.96,209.76L262.31,206L262.65,207.75L263,211.43L263.35,212.23L263.69,211.47L264.04,207.62L264.74,211.02L265.08,210.01L265.43,209.49L266.12,205.5L266.47,207.03L266.82,209.71L267.17,208.26L267.51,209.67L267.86,213.81L268.21,211.48L268.56,216.39L268.9,215.59L269.25,212.22L269.6,212.65L269.94,211.83L270.64,213.23L270.99,214.89L273.07,216.15L273.42,215.91L274.81,211.56L275.15,211.16L276.19,207.5L276.54,207.41L276.89,207.83L277.24,209.83L277.58,208.99L277.93,209.53L278.28,211.29L278.63,214.24L278.97,213.39L279.32,213.26L279.67,213.66L280.01,213.34L280.36,211.21L280.71,211.75L281.06,213.92L281.4,214.07L281.75,213.05L282.45,213.92L282.79,213.12L283.83,216.18L284.18,215.88L284.53,215.87L284.88,215.39L285.22,213.23L286.26,212.44L286.61,213.37L286.96,212.82L287.31,213.08L287.65,213.36L288,214.08L288.35,213.87L288.7,212.97L290.78,213.87L291.13,213.56L292.52,215.46L292.86,219.7L293.21,219.93L293.56,221.21L294.25,220.74L294.6,221.28L295.64,220.17L295.99,220.65L297.03,221.94L297.38,220.77L297.72,220.84L298.07,219.47L298.42,219.48L298.77,220.53L299.81,220.21L300.15,220.87L301.2,221.62L301.54,221.62L302.24,220.74L302.59,221.36L303.28,223.49L303.63,219.14L304.32,216.07L304.67,217.21L305.02,216.5L305.71,217.43L306.06,217.11L307.79,216.74L308.14,217.17L308.49,218.72L308.84,218.6L309.18,217.79L310.22,218.71L310.57,219.17L312.31,220.96L312.66,221.09L314.04,225.28L314.39,224.56L314.74,224.39L315.09,223.16L315.43,223.47L315.78,222.35L317.52,224.26L317.86,223.58L318.91,223.15L319.25,223.75L320.29,224.25L320.64,224.03L322.03,226.26L322.38,223.97L323.42,224.47L323.77,223.18L325.16,224.23L325.5,224.05L326.54,224.08L326.89,224.26L327.24,224.24L327.59,225.06L329.32,220.92L329.67,221.24L330.02,222.07L330.36,220.74L330.71,221.36L331.06,220.78L331.41,221.05L332.1,218.55L332.45,218.91L332.8,218.23L333.14,218.22L333.49,218.97L335.57,220.24L335.92,219.28L337.31,216.13L337.66,216.69L338.7,216.9L339.05,217.24L340.09,215.07L340.43,214.79L341.82,213.28L342.17,213.62L342.52,213.21L342.87,214.75L343.21,214.71L343.56,215.45L343.91,213.84L344.25,215.85L345.3,215.64L345.64,214.64L347.73,219.6L348.07,219.57L348.42,218.22L348.77,218.77L349.12,218.8L349.81,217.46L350.16,218.32L351.2,221.8L351.55,221.66L351.89,232.65L352.59,231.35L352.94,230.69L353.28,231.85L353.63,230.86L353.98,230.57L354.67,227.72L355.02,227.79L355.37,229.09L356.06,225.84L356.41,226.07L356.76,225.86L357.8,228.86L358.14,227.06L358.49,227.01L358.84,226.19L359.88,225.44L360.23,225.74L361.27,223.67L361.62,223.95L362.31,225.37L362.66,225.28L363.01,225.51L363.35,225.4L363.7,226.27L364.74,224.07L365.09,224.52L365.78,225.5L366.13,224.5L367.17,223.05L367.52,222.51L368.21,222.35L368.56,218.7L368.91,219.26L369.26,218.53L369.6,218.03L370.3,218.38L370.64,217.85L370.99,217.43L371.34,214.47L372.03,216.04L372.38,218.9L372.73,219.46L373.08,218.59L373.77,215.15L374.12,216.82L374.46,216.59L375.51,215.21L375.85,216.13L376.2,217.69L376.55,217.33L376.9,217.3L377.24,218.91L377.59,218.28L377.94,218.48L379.33,215.48L379.67,216.36L380.02,213.72L380.37,216.11L380.71,215.59L381.06,215.16L381.41,215.75L381.76,215.59L383.15,214.82L383.49,216.94L384.19,216.27L384.53,216.73L385.58,216.3L385.92,216.57L386.97,216.89L387.31,215.52L387.66,215.74L388.01,216.89L389.4,217.52L389.74,217.25L391.83,217.68L392.17,216.72L393.22,217.11L393.56,216.92L395.99,217.39L396.34,217.33L397.38,216.56L397.73,216.11L399.12,214.66L399.47,210.81L399.81,211.24L400.16,210.56L400.51,210.56L401.2,208.11L401.55,210.66L402.24,210.24L402.59,208.3L403.98,208.52L404.33,207.78L404.67,209.54L405.02,208.94L405.37,208.18L406.41,207.72L406.76,206.42L408.15,209.05L408.49,208.59L409.19,208.29L409.54,209.8L410.58,209.07L410.92,209.28L411.97,207.68L412.31,209.55L412.66,213.93L413.36,213.84L413.7,213.52L414.05,213.11L414.4,213.98L416.83,211.67L417.18,211.08L418.56,211.19L418.91,212.96L419.26,212.56L419.61,213.57L420.65,211.87L420.99,211.71L423.08,212.52L423.43,212.08L423.77,211.64L424.12,212.32L424.47,212.08L426.2,209.06L426.55,209.44L428.29,209.15L428.63,208.28L428.98,207.72L429.33,204.67L430.37,203.51L430.72,203.8L431.06,203.72L431.41,201.67L431.76,202.97L432.11,202.3L432.45,201.94L433.15,201.23L433.5,201.98L434.88,194.86L435.23,197.53L435.58,195.22L435.93,195.74L436.27,195.85L437.32,192.26L437.66,193.14L438.01,193.53L438.36,190.88L439.75,184.07L440.09,183.9L440.79,185.08L441.14,182.3L441.48,183.85L441.83,189.35L442.18,189.39L442.52,187.35L442.87,185.72L443.22,180.42L443.57,183.69L443.91,182.15L444.26,181.38L444.61,184.09L444.95,182.35L445.3,181.6L445.65,182.28L446,185.23L446.34,184.47L446.69,185.48L447.04,186.24L448.08,181.91L448.43,181.37L449.82,165.96L450.16,167.24L450.51,169.82L450.86,165.99L451.21,168.02L451.55,166.28L451.9,162.83L452.94,154.53L453.29,153.46L455.02,133.77L455.37,137.32L456.76,107.18L457.11,108.92L457.46,115.71L458.15,130.09L458.5,118.45L458.84,112.23L459.19,120.65L459.89,123.85L460.23,121.04L460.93,125.12L461.28,141.31L461.62,133.97L461.97,137.01L462.32,136.37L462.66,136.39L463.01,135.64L463.36,143.01L463.71,132.49L464.4,129.34L464.75,133.45L465.09,131.93L465.44,125.13L466.48,115.22L466.83,112.08L467.18,113.45L467.53,86.88L467.87,86.72L468.22,92.37L468.57,81.28L468.91,83.67L469.26,84.14L472.04,48.19L472.39,59.83L473.43,84.42L473.78,87.22L474.12,87.82L474.47,91.22L475.51,72.94L475.86,79.87L476.55,78.08L476.9,70.76L478.98,34.93L479.33,42.72L479.68,54.51L480.03,49.97L480.37,42.91L480.72,47.35L481.07,46.01L481.42,45.75L481.76,48.39L482.11,59.85L482.46,58.94L482.8,66.09L483.15,69.63L483.5,56.54L485.23,43.52L485.58,43.59L485.93,42.78L486.28,49.44L486.62,45.4L486.97,42.15L487.67,53.29L488.01,45.84L488.36,45.61L488.71,39.91L489.05,39.09L489.4,39.59L489.75,26.56L490.79,34.42L491.14,39.08L491.83,54.41L492.18,51.64L492.53,60.88L493.92,77.44L494.26,60.13L494.61,56.59L494.96,57.17L495.3,61.7L496,46.81L496.35,51.1L496.69,49.03L497.04,62.94L497.39,48.09L498.08,48.52L498.43,43.09L498.78,45.27L499.12,53.77L499.47,50.78L499.82,75.46L500.51,74.72L500.86,85.51L501.21,86.68L501.56,96.82L501.9,99.24L502.25,120.83L502.6,107.38L502.94,118.86L503.29,118.17L503.64,127.97L503.99,113.45L504.33,115.1L504.68,111.89L505.03,114.38L505.37,124.43L505.72,128.14L506.07,124.51L506.42,118.86L506.76,120.82L507.11,117.75L507.46,111.87L507.81,120.35L509.19,132.44L509.54,118.39L510.58,124.85L510.93,112.66L511.28,107.42L511.63,108.72L511.97,115.02L512.32,115.92L512.67,123.89L513.01,125.06L513.36,124.66L513.71,138.65L514.75,127.94L515.1,138.74L515.44,136.28L515.79,127.81L516.14,128.53L516.49,123.56L517.18,132L517.53,131.02L517.88,127.92L518.22,125.76L518.57,131.35L518.92,129.5L519.26,130.75L519.61,134.21L520.65,129.36L521,133.47L522.39,139.44L522.74,138.96L523.08,138.06L523.78,145.03L524.13,136.77L524.47,136.27L524.82,131.55L525.51,125.42L525.86,118.91L527.25,101.49L527.6,104.1L528.64,115.51L528.99,110.2L530.72,87.3L531.07,89.64L531.42,89.9L531.77,93.8L532.11,81.88L533.85,92.73L534.2,85.52L534.54,76.54L535.24,76.83L535.59,75.96L536.63,85.23L536.97,77.43L537.67,78.48L538.02,84.74L538.36,84.33L538.71,78.33L539.4,74.17L539.75,74.46L540.1,68L540.45,64.82L540.79,85.16L541.84,92.22L542.18,91.09L542.53,88.1L542.88,91.9L543.22,84.29L543.57,80.75L543.92,82.1L544.27,83.63L544.61,80.15L544.96,83.84L545.31,98.65L545.66,106.65L546,96.8L546.35,92.17L546.7,99.37L547.04,99.86L547.39,98.14L548.09,105.63L548.43,103.88L548.78,95.82L549.82,80.48L550.17,76.88L550.86,55.53L551.21,60.89L551.56,60.31L552.6,47.97L552.95,53.14L553.99,33.24L554.68,33.74L555.03,32.05L555.73,18.06L556.07,31.41L556.42,36.69L557.11,36.11L557.46,28.3L558.16,44.66L558.5,37.08L558.85,31.2L559.89,35.91L560.24,27.81L560.59,28.94L560.93,34.21L561.28,35.81L561.63,33.94L561.98,27.62L562.32,12.71L562.67,14.74L563.02,21.98L563.36,22.36L563.71,24.65L564.06,23.74L564.41,19.75L565.8,50L566.14,45.93L566.49,40.13L567.18,52.26L567.53,47.72L567.88,49.13L568.23,42.75L568.57,61.1L568.92,57.61L569.27,48.66L569.61,46.9L569.96,49.79L570.31,48.97L570.66,51.44L571.35,77.14L571.7,76.28L572.05,72.61L572.39,72.1L572.74,72.51L573.09,82.77L573.43,84.19L573.78,76.3L574.13,73.97L574.48,85.73L575.17,78.14L575.52,82.47L575.87,87.73L576.21,85.26L576.56,85.8L576.91,84.98L577.25,78.06L577.6,79.11L577.95,71.22L578.3,71.29L578.64,72.76L578.99,71.44L579.34,71.7L579.68,82.78L580.73,87.43L581.07,82.15L582.12,88.78L582.46,97.13L582.81,98.42L583.16,103.74L584.2,102.84L584.55,99.66L584.89,95.54L585.24,100.25L585.59,98.5L586.28,98.46L586.63,101.51L586.98,102.58" style="vector-effect: non-scaling-stroke; fill: none; stroke: rgb(31, 119, 180); stroke-opacity: 1; stroke-width: 2px; opacity: 1;"/></g><g class="points"/><g class="text"/></g><g class="trace scatter trace1b5a2e81-b596-4910-a1a0-466218ec8de7" style="stroke-miterlimit: 2; opacity: 1;"><g class="fills"/><g class="errorbars"/><g class="lines"/><g class="points"><path class="point plotly-customdata" transform="translate(36.25,236.51)" d="M-4.62,2H4.62L0,-4Z" style="opacity: 1; stroke-width: 1px; fill: rgb(55, 177, 63); fill-opacity: 1; stroke: rgb(38, 123, 44); stroke-opacity: 1;"/><path class="point plotly-customdata" transform="translate(73.4,201.39)" d="M-4.62,2H4.62L0,-4Z" style="opacity: 1; stroke-width: 1px; fill: rgb(55, 177, 63); fill-opacity: 1; stroke: rgb(38, 123, 44); stroke-opacity: 1;"/><path class="point plotly-customdata" transform="translate(99.45,220.52)" d="M-4.62,2H4.62L0,-4Z" style="opacity: 1; stroke-width: 1px; fill: rgb(55, 177, 63); fill-opacity: 1; stroke: rgb(38, 123, 44); stroke-opacity: 1;"/><path class="point plotly-customdata" transform="translate(121.32,220.59)" d="M-4.62,2H4.62L0,-4Z" style="opacity: 1; stroke-width: 1px; fill: rgb(55, 177, 63); fill-opacity: 1; stroke: rgb(38, 123, 44); stroke-opacity: 1;"/><path class="point plotly-customdata" transform="translate(149.8,227.45)" d="M-4.62,2H4.62L0,-4Z" style="opacity: 1; stroke-width: 1px; fill: rgb(55, 177, 63); fill-opacity: 1; stroke: rgb(38, 123, 44); stroke-opacity: 1;"/><path class="point plotly-customdata" transform="translate(161.95,227.26)" d="M-4.62,2H4.62L0,-4Z" style="opacity: 1; stroke-width: 1px; fill: rgb(55, 177, 63); fill-opacity: 1; stroke: rgb(38, 123, 44); stroke-opacity: 1;"/><path class="point plotly-customdata" transform="translate(172.37,227.4)" d="M-4.62,2H4.62L0,-4Z" style="opacity: 1; stroke-width: 1px; fill: rgb(55, 177, 63); fill-opacity: 1; stroke: rgb(38, 123, 44); stroke-opacity: 1;"/><path class="point plotly-customdata" transform="translate(281.4,214.07)" d="M-4.62,2H4.62L0,-4Z" style="opacity: 1; stroke-width: 1px; fill: rgb(55, 177, 63); fill-opacity: 1; stroke: rgb(38, 123, 44); stroke-opacity: 1;"/><path class="point plotly-customdata" transform="translate(292.86,219.7)" d="M-4.62,2H4.62L0,-4Z" style="opacity: 1; stroke-width: 1px; fill: rgb(55, 177, 63); fill-opacity: 1; stroke: rgb(38, 123, 44); stroke-opacity: 1;"/><path class="point plotly-customdata" transform="translate(312.31,220.96)" d="M-4.62,2H4.62L0,-4Z" style="opacity: 1; stroke-width: 1px; fill: rgb(55, 177, 63); fill-opacity: 1; stroke: rgb(38, 123, 44); stroke-opacity: 1;"/><path class="point plotly-customdata" transform="translate(347.03,218.55)" d="M-4.62,2H4.62L0,-4Z" style="opacity: 1; stroke-width: 1px; fill: rgb(55, 177, 63); fill-opacity: 1; stroke: rgb(38, 123, 44); stroke-opacity: 1;"/><path class="point plotly-customdata" transform="translate(413.01,212.86)" d="M-4.62,2H4.62L0,-4Z" style="opacity: 1; stroke-width: 1px; fill: rgb(55, 177, 63); fill-opacity: 1; stroke: rgb(38, 123, 44); stroke-opacity: 1;"/><path class="point plotly-customdata" transform="translate(463.71,132.49)" d="M-4.62,2H4.62L0,-4Z" style="opacity: 1; stroke-width: 1px; fill: rgb(55, 177, 63); fill-opacity: 1; stroke: rgb(38, 123, 44); stroke-opacity: 1;"/><path class="point plotly-customdata" transform="translate(493.92,77.44)" d="M-4.62,2H4.62L0,-4Z" style="opacity: 1; stroke-width: 1px; fill: rgb(55, 177, 63); fill-opacity: 1; stroke: rgb(38, 123, 44); stroke-opacity: 1;"/><path class="point plotly-customdata" transform="translate(545.66,106.65)" d="M-4.62,2H4.62L0,-4Z" style="opacity: 1; stroke-width: 1px; fill: rgb(55, 177, 63); fill-opacity: 1; stroke: rgb(38, 123, 44); stroke-opacity: 1;"/><path class="point plotly-customdata" transform="translate(567.53,47.72)" d="M-4.62,2H4.62L0,-4Z" style="opacity: 1; stroke-width: 1px; fill: rgb(55, 177, 63); fill-opacity: 1; stroke: rgb(38, 123, 44); stroke-opacity: 1;"/></g><g class="text"/></g><g class="trace scatter trace2036278c-4db4-4bba-a3a7-634943e1274a" style="stroke-miterlimit: 2; opacity: 1;"><g class="fills"/><g class="errorbars"/><g class="lines"/><g class="points"><path class="point plotly-customdata" transform="translate(41.11,234.85)" d="M-4.62,-2H4.62L0,4Z" style="opacity: 1; stroke-width: 1px; fill: rgb(234, 67, 53); fill-opacity: 1; stroke: rgb(181, 31, 18); stroke-opacity: 1;"/><path class="point plotly-customdata" transform="translate(91.11,210.21)" d="M-4.62,-2H4.62L0,4Z" style="opacity: 1; stroke-width: 1px; fill: rgb(234, 67, 53); fill-opacity: 1; stroke: rgb(181, 31, 18); stroke-opacity: 1;"/><path class="point plotly-customdata" transform="translate(110.21,221.21)" d="M-4.62,-2H4.62L0,4Z" style="opacity: 1; stroke-width: 1px; fill: rgb(234, 67, 53); fill-opacity: 1; stroke: rgb(181, 31, 18); stroke-opacity: 1;"/><path class="point plotly-customdata" transform="translate(143.2,223.76)" d="M-4.62,-2H4.62L0,4Z" style="opacity: 1; stroke-width: 1px; fill: rgb(234, 67, 53); fill-opacity: 1; stroke: rgb(181, 31, 18); stroke-opacity: 1;"/><path class="point plotly-customdata" transform="translate(157.09,224.83)" d="M-4.62,-2H4.62L0,4Z" style="opacity: 1; stroke-width: 1px; fill: rgb(234, 67, 53); fill-opacity: 1; stroke: rgb(181, 31, 18); stroke-opacity: 1;"/><path class="point plotly-customdata" transform="translate(165.77,225.96)" d="M-4.62,-2H4.62L0,4Z" style="opacity: 1; stroke-width: 1px; fill: rgb(234, 67, 53); fill-opacity: 1; stroke: rgb(181, 31, 18); stroke-opacity: 1;"/><path class="point plotly-customdata" transform="translate(217.51,235.78)" d="M-4.62,-2H4.62L0,4Z" style="opacity: 1; stroke-width: 1px; fill: rgb(234, 67, 53); fill-opacity: 1; stroke: rgb(181, 31, 18); stroke-opacity: 1;"/><path class="point plotly-customdata" transform="translate(289.04,213.22)" d="M-4.62,-2H4.62L0,4Z" style="opacity: 1; stroke-width: 1px; fill: rgb(234, 67, 53); fill-opacity: 1; stroke: rgb(181, 31, 18); stroke-opacity: 1;"/><path class="point plotly-customdata" transform="translate(308.14,217.17)" d="M-4.62,-2H4.62L0,4Z" style="opacity: 1; stroke-width: 1px; fill: rgb(234, 67, 53); fill-opacity: 1; stroke: rgb(181, 31, 18); stroke-opacity: 1;"/><path class="point plotly-customdata" transform="translate(329.67,221.24)" d="M-4.62,-2H4.62L0,4Z" style="opacity: 1; stroke-width: 1px; fill: rgb(234, 67, 53); fill-opacity: 1; stroke: rgb(181, 31, 18); stroke-opacity: 1;"/><path class="point plotly-customdata" transform="translate(357.1,227.19)" d="M-4.62,-2H4.62L0,4Z" style="opacity: 1; stroke-width: 1px; fill: rgb(234, 67, 53); fill-opacity: 1; stroke: rgb(181, 31, 18); stroke-opacity: 1;"/><path class="point plotly-customdata" transform="translate(418.56,211.19)" d="M-4.62,-2H4.62L0,4Z" style="opacity: 1; stroke-width: 1px; fill: rgb(234, 67, 53); fill-opacity: 1; stroke: rgb(181, 31, 18); stroke-opacity: 1;"/><path class="point plotly-customdata" transform="translate(467.18,113.45)" d="M-4.62,-2H4.62L0,4Z" style="opacity: 1; stroke-width: 1px; fill: rgb(234, 67, 53); fill-opacity: 1; stroke: rgb(181, 31, 18); stroke-opacity: 1;"/><path class="point plotly-customdata" transform="translate(526.56,109.16)" d="M-4.62,-2H4.62L0,4Z" style="opacity: 1; stroke-width: 1px; fill: rgb(234, 67, 53); fill-opacity: 1; stroke: rgb(181, 31, 18); stroke-opacity: 1;"/><path class="point plotly-customdata" transform="translate(550.86,55.53)" d="M-4.62,-2H4.62L0,4Z" style="opacity: 1; stroke-width: 1px; fill: rgb(234, 67, 53); fill-opacity: 1; stroke: rgb(181, 31, 18); stroke-opacity: 1;"/></g><g class="text"/></g></g></g><g class="overplot"/><path class="xlines-above crisp" d="M0,0" style="fill: none;"/><path class="ylines-above crisp" d="M0,0" style="fill: none;"/><g class="overlines-above"/><g class="xaxislayer-above"/><g class="yaxislayer-above"><g class="ytick"><text text-anchor="end" x="94" y="4.199999999999999" transform="translate(0,325.48)" style="font-family: 'Open Sans', verdana, arial, sans-serif; font-size: 12px; fill: rgb(214, 223, 239); fill-opacity: 1; white-space: pre; opacity: 1;">0</text></g><g class="ytick"><text text-anchor="end" x="94" y="4.199999999999999" style="font-family: 'Open Sans', verdana, arial, sans-serif; font-size: 12px; fill: rgb(214, 223, 239); fill-opacity: 1; white-space: pre; opacity: 1;" transform="translate(0,290.41999999999996)">10k</text></g><g class="ytick"><text text-anchor="end" x="94" y="4.199999999999999" style="font-family: 'Open Sans', verdana, arial, sans-serif; font-size: 12px; fill: rgb(214, 223, 239); fill-opacity: 1; white-space: pre; opacity: 1;" transform="translate(0,255.36)">20k</text></g><g class="ytick"><text text-anchor="end" x="94" y="4.199999999999999" style="font-family: 'Open Sans', verdana, arial, sans-serif; font-size: 12px; fill: rgb(214, 223, 239); fill-opacity: 1; white-space: pre; opacity: 1;" transform="translate(0,220.29)">30k</text></g><g class="ytick"><text text-anchor="end" x="94" y="4.199999999999999" style="font-family: 'Open Sans', verdana, arial, sans-serif; font-size: 12px; fill: rgb(214, 223, 239); fill-opacity: 1; white-space: pre; opacity: 1;" transform="translate(0,185.23000000000002)">40k</text></g><g class="ytick"><text text-anchor="end" x="94" y="4.199999999999999" style="font-family: 'Open Sans', verdana, arial, sans-serif; font-size: 12px; fill: rgb(214, 223, 239); fill-opacity: 1; white-space: pre; opacity: 1;" transform="translate(0,150.16)">50k</text></g><g class="ytick"><text text-anchor="end" x="94" y="4.199999999999999" style="font-family: 'Open Sans', verdana, arial, sans-serif; font-size: 12px; fill: rgb(214, 223, 239); fill-opacity: 1; white-space: pre; opacity: 1;" transform="translate(0,115.1)">60k</text></g><g class="ytick"><text text-anchor="end" x="94" y="4.199999999999999" style="font-family: 'Open Sans', verdana, arial, sans-serif; font-size: 12px; fill: rgb(214, 223, 239); fill-opacity: 1; white-space: pre; opacity: 1;" transform="translate(0,80.04)">70k</text></g></g><g class="overaxes-above"/></g><g class="subplot x2y2"><g class="layer-subplot"><g class="shapelayer"/><g class="imagelayer"/></g><g class="gridlayer"><g class="x2"><path class="x2grid crisp" transform="translate(168.75,0)" d="M0,364.88888888888897v254.22222222222214" style="stroke: rgb(47, 62, 78); stroke-opacity: 1; stroke-width: 1px;"/><path class="x2grid crisp" transform="translate(295.5,0)" d="M0,364.88888888888897v254.22222222222214" style="stroke: rgb(47, 62, 78); stroke-opacity: 1; stroke-width: 1px;"/><path class="x2grid crisp" transform="translate(422.24,0)" d="M0,364.88888888888897v254.22222222222214" style="stroke: rgb(47, 62, 78); stroke-opacity: 1; stroke-width: 1px;"/><path class="x2grid crisp" transform="translate(549.3299999999999,0)" d="M0,364.88888888888897v254.22222222222214" style="stroke: rgb(47, 62, 78); stroke-opacity: 1; stroke-width: 1px;"/><path class="x2grid crisp" transform="translate(676.07,0)" d="M0,364.88888888888897v254.22222222222214" style="stroke: rgb(47, 62, 78); stroke-opacity: 1; stroke-width: 1px;"/></g><g class="y2"><path class="y2grid crisp" transform="translate(0,603.528888888889)" d="M95,0h625" style="stroke: rgb(47, 62, 78); stroke-opacity: 1; stroke-width: 1px;"/><path class="y2grid crisp" transform="translate(0,546.1488888888889)" d="M95,0h625" style="stroke: rgb(47, 62, 78); stroke-opacity: 1; stroke-width: 1px;"/><path class="y2grid crisp" transform="translate(0,431.40888888888895)" d="M95,0h625" style="stroke: rgb(47, 62, 78); stroke-opacity: 1; stroke-width: 1px;"/><path class="y2grid crisp" transform="translate(0,374.02888888888896)" d="M95,0h625" style="stroke: rgb(47, 62, 78); stroke-opacity: 1; stroke-width: 1px;"/></g></g><g class="zerolinelayer"><path class="y2zl zl crisp" transform="translate(0,488.77888888888896)" d="M95,0h625" style="stroke: rgb(47, 62, 78); stroke-opacity: 1; stroke-width: 2px;"/></g><path class="xlines-below"/><path class="ylines-below"/><g class="overlines-below"/><g class="xaxislayer-below"/><g class="yaxislayer-below"/><g class="overaxes-below"/><g class="plot" transform="translate(95,364.88888888888897)" clip-path="url(#clip2da860x2y2plot)"><g class="scatterlayer mlayer"><g class="trace scatter traceeeea501f-0668-4325-a74e-065c8e9d7d0b" style="stroke-miterlimit: 2; opacity: 1;"><g class="fills"/><g class="errorbars"/><g class="lines"/><g class="points"><path class="point plotly-customdata" transform="translate(41.11,87.09)" d="M4.62,0A4.62,4.62 0 1,1 0,-4.62A4.62,4.62 0 0,1 4.62,0Z" style="opacity: 0.798144; stroke-width: 1px; fill: rgb(55, 177, 63); fill-opacity: 1; stroke: rgb(38, 123, 44); stroke-opacity: 1;"/><path class="point plotly-customdata" transform="translate(157.09,89.83)" d="M4.53,0A4.53,4.53 0 1,1 0,-4.53A4.53,4.53 0 0,1 4.53,0Z" style="opacity: 0.794266; stroke-width: 1px; fill: rgb(55, 177, 63); fill-opacity: 1; stroke: rgb(38, 123, 44); stroke-opacity: 1;"/><path class="point plotly-customdata" transform="translate(165.77,107.17)" d="M3.96,0A3.96,3.96 0 1,1 0,-3.96A3.96,3.96 0 0,1 3.96,0Z" style="opacity: 0.769755; stroke-width: 1px; fill: rgb(55, 177, 63); fill-opacity: 1; stroke: rgb(38, 123, 44); stroke-opacity: 1;"/><path class="point plotly-customdata" transform="translate(289.04,117.01)" d="M3.64,0A3.64,3.64 0 1,1 0,-3.64A3.64,3.64 0 0,1 3.64,0Z" style="opacity: 0.755851; stroke-width: 1px; fill: rgb(55, 177, 63); fill-opacity: 1; stroke: rgb(38, 123, 44); stroke-opacity: 1;"/><path class="point plotly-customdata" transform="translate(308.14,99.47)" d="M4.22,0A4.22,4.22 0 1,1 0,-4.22A4.22,4.22 0 0,1 4.22,0Z" style="opacity: 0.780646; stroke-width: 1px; fill: rgb(55, 177, 63); fill-opacity: 1; stroke: rgb(38, 123, 44); stroke-opacity: 1;"/><path class="point plotly-customdata" transform="translate(418.56,110.87)" d="M3.84,0A3.84,3.84 0 1,1 0,-3.84A3.84,3.84 0 0,1 3.84,0Z" style="opacity: 0.764527; stroke-width: 1px; fill: rgb(55, 177, 63); fill-opacity: 1; stroke: rgb(38, 123, 44); stroke-opacity: 1;"/><path class="point plotly-customdata" transform="translate(467.18,77.19)" d="M4.95,0A4.95,4.95 0 1,1 0,-4.95A4.95,4.95 0 0,1 4.95,0Z" style="opacity: 0.812122; stroke-width: 1px; fill: rgb(55, 177, 63); fill-opacity: 1; stroke: rgb(38, 123, 44); stroke-opacity: 1;"/><path class="point plotly-customdata" transform="translate(550.86,21.21)" d="M6.8,0A6.8,6.8 0 1,1 0,-6.8A6.8,6.8 0 0,1 6.8,0Z" style="opacity: 0.891252; stroke-width: 1px; fill: rgb(55, 177, 63); fill-opacity: 1; stroke: rgb(38, 123, 44); stroke-opacity: 1;"/></g><g class="text"/></g><g class="trace scatter traceb51db766-c005-483a-827a-23390608c9c9" style="stroke-miterlimit: 2; opacity: 1;"><g class="fills"/><g class="errorbars"/><g class="lines"/><g class="points"><path class="point plotly-customdata" transform="translate(91.11,176.5)" d="M5.14,0A5.14,5.14 0 1,1 0,-5.14A5.14,5.14 0 0,1 5.14,0Z" style="opacity: 0.82048; stroke-width: 1px; fill: rgb(234, 67, 53); fill-opacity: 1; stroke: rgb(181, 31, 18); stroke-opacity: 1;"/><path class="point plotly-customdata" transform="translate(110.21,130.66)" d="M3.63,0A3.63,3.63 0 1,1 0,-3.63A3.63,3.63 0 0,1 3.63,0Z" style="opacity: 0.755704; stroke-width: 1px; fill: rgb(234, 67, 53); fill-opacity: 1; stroke: rgb(181, 31, 18); stroke-opacity: 1;"/><path class="point plotly-customdata" transform="translate(143.2,155.3)" d="M4.45,0A4.45,4.45 0 1,1 0,-4.45A4.45,4.45 0 0,1 4.45,0Z" style="opacity: 0.790525; stroke-width: 1px; fill: rgb(234, 67, 53); fill-opacity: 1; stroke: rgb(181, 31, 18); stroke-opacity: 1;"/><path class="point plotly-customdata" transform="translate(217.51,232.76)" d="M7,0A7,7 0 1,1 0,-7A7,7 0 0,1 7,0Z" style="opacity: 0.9; stroke-width: 1px; fill: rgb(234, 67, 53); fill-opacity: 1; stroke: rgb(181, 31, 18); stroke-opacity: 1;"/><path class="point plotly-customdata" transform="translate(329.67,126.63)" d="M3.5,0A3.5,3.5 0 1,1 0,-3.5A3.5,3.5 0 0,1 3.5,0Z" style="opacity: 0.75; stroke-width: 1px; fill: rgb(234, 67, 53); fill-opacity: 1; stroke: rgb(181, 31, 18); stroke-opacity: 1;"/><path class="point plotly-customdata" transform="translate(357.1,204)" d="M6.05,0A6.05,6.05 0 1,1 0,-6.05A6.05,6.05 0 0,1 6.05,0Z" style="opacity: 0.859357; stroke-width: 1px; fill: rgb(234, 67, 53); fill-opacity: 1; stroke: rgb(181, 31, 18); stroke-opacity: 1;"/><path class="point plotly-customdata" transform="translate(526.56,176.78)" d="M5.15,0A5.15,5.15 0 1,1 0,-5.15A5.15,5.15 0 0,1 5.15,0Z" style="opacity: 0.820886; stroke-width: 1px; fill: rgb(234, 67, 53); fill-opacity: 1; stroke: rgb(181, 31, 18); stroke-opacity: 1;"/></g><g class="text"/></g><g class="trace scatter trace730776cb-5307-4230-98ca-4df9f4287053" style="stroke-miterlimit: 2; opacity: 1;"><g class="fills"/><g class="errorbars"/><g class="lines"/><g class="points"><path class="point plotly-customdata" transform="translate(586.98,201.89)" d="M5.98,0A5.98,5.98 0 1,1 0,-5.98A5.98,5.98 0 0,1 5.98,0Z" style="opacity: 0.85637; stroke-width: 1px; fill: rgb(255, 170, 0); fill-opacity: 1; stroke: rgb(178, 118, 0); stroke-opacity: 1;"/></g><g class="text"/></g></g></g><g class="overplot"/><path class="xlines-above crisp" d="M0,0" style="fill: none;"/><path class="ylines-above crisp" d="M0,0" style="fill: none;"/><g class="overlines-above"/><g class="xaxislayer-above"/><g class="yaxislayer-above"><g class="y2tick"><text text-anchor="end" x="94" y="4.199999999999999" transform="translate(0,603.528888888889)" style="font-family: 'Open Sans', verdana, arial, sans-serif; font-size: 12px; fill: rgb(214, 223, 239); fill-opacity: 1; white-space: pre; opacity: 1;">−40.00%</text></g><g class="y2tick"><text text-anchor="end" x="94" y="4.199999999999999" style="font-family: 'Open Sans', verdana, arial, sans-serif; font-size: 12px; fill: rgb(214, 223, 239); fill-opacity: 1; white-space: pre; opacity: 1;" transform="translate(0,546.1488888888889)">−20.00%</text></g><g class="y2tick"><text text-anchor="end" x="94" y="4.199999999999999" style="font-family: 'Open Sans', verdana, arial, sans-serif; font-size: 12px; fill: rgb(214, 223, 239); fill-opacity: 1; white-space: pre; opacity: 1;" transform="translate(0,488.77888888888896)">0.00%</text></g><g class="y2tick"><text text-anchor="end" x="94" y="4.199999999999999" style="font-family: 'Open Sans', verdana, arial, sans-serif; font-size: 12px; fill: rgb(214, 223, 239); fill-opacity: 1; white-space: pre; opacity: 1;" transform="translate(0,431.40888888888895)">20.00%</text></g><g class="y2tick"><text text-anchor="end" x="94" y="4.199999999999999" style="font-family: 'Open Sans', verdana, arial, sans-serif; font-size: 12px; fill: rgb(214, 223, 239); fill-opacity: 1; white-space: pre; opacity: 1;" transform="translate(0,374.02888888888896)">40.00%</text></g></g><g class="overaxes-above"/></g><g class="subplot x3y3"><g class="layer-subplot"><g class="shapelayer"/><g class="imagelayer"/></g><g class="gridlayer"><g class="x3"><path class="x3grid crisp" transform="translate(168.75,0)" d="M0,653.7777777777777v254.2222222222222" style="stroke: rgb(47, 62, 78); stroke-opacity: 1; stroke-width: 1px;"/><path class="x3grid crisp" transform="translate(295.5,0)" d="M0,653.7777777777777v254.2222222222222" style="stroke: rgb(47, 62, 78); stroke-opacity: 1; stroke-width: 1px;"/><path class="x3grid crisp" transform="translate(422.24,0)" d="M0,653.7777777777777v254.2222222222222" style="stroke: rgb(47, 62, 78); stroke-opacity: 1; stroke-width: 1px;"/><path class="x3grid crisp" transform="translate(549.3299999999999,0)" d="M0,653.7777777777777v254.2222222222222" style="stroke: rgb(47, 62, 78); stroke-opacity: 1; stroke-width: 1px;"/><path class="x3grid crisp" transform="translate(676.07,0)" d="M0,653.7777777777777v254.2222222222222" style="stroke: rgb(47, 62, 78); stroke-opacity: 1; stroke-width: 1px;"/></g><g class="y3"><path class="y3grid crisp" transform="translate(0,883.3077777777777)" d="M95,0h625" style="stroke: rgb(47, 62, 78); stroke-opacity: 1; stroke-width: 1px;"/><path class="y3grid crisp" transform="translate(0,840.1177777777777)" d="M95,0h625" style="stroke: rgb(47, 62, 78); stroke-opacity: 1; stroke-width: 1px;"/><path class="y3grid crisp" transform="translate(0,796.9377777777777)" d="M95,0h625" style="stroke: rgb(47, 62, 78); stroke-opacity: 1; stroke-width: 1px;"/><path class="y3grid crisp" transform="translate(0,753.7477777777777)" d="M95,0h625" style="stroke: rgb(47, 62, 78); stroke-opacity: 1; stroke-width: 1px;"/><path class="y3grid crisp" transform="translate(0,710.5677777777777)" d="M95,0h625" style="stroke: rgb(47, 62, 78); stroke-opacity: 1; stroke-width: 1px;"/><path class="y3grid crisp" transform="translate(0,667.3877777777777)" d="M95,0h625" style="stroke: rgb(47, 62, 78); stroke-opacity: 1; stroke-width: 1px;"/></g></g><g class="zerolinelayer"/><path class="xlines-below"/><path class="ylines-below"/><g class="overlines-below"/><g class="xaxislayer-below"/><g class="yaxislayer-below"/><g class="overaxes-below"/><g class="plot" transform="translate(95,653.7777777777777)" clip-path="url(#clip2da860x3y3plot)"><g class="scatterlayer mlayer"><g class="trace scatter tracee07454e4-490d-42c8-a437-05ff7851366d" style="stroke-miterlimit: 2;"><g class="fills"><g><path class="js-fill" d="M26.18,99.97L36.25,99.97L36.6,99.1L36.94,99.97L37.29,80.42L38.68,99.97L39.03,95.31L39.38,99.97L39.72,87.09L40.07,89.33L40.42,71.2L41.46,72.27L41.81,72.27L73.4,72.27L73.75,78.25L75.49,12.71L75.84,29.05L77.22,80.75L77.57,71.85L77.92,63.5L78.27,76.56L78.61,75.41L78.96,99.97L80,99.97L80.35,88.55L81.39,99.97L81.74,99.97L173.06,99.97L173.41,96.33L173.76,96.1L174.11,96.7L174.45,99.97L586.98,99.97L586.98,99.97L26.18,99.97Z" style="fill: rgb(0, 128, 0); fill-opacity: 0.3; stroke-width: 0;"/></g></g><g class="errorbars"/><g class="lines"><path class="js-line" d="M26.18,99.97L586.98,99.97" style="vector-effect: non-scaling-stroke; fill: none; stroke: rgb(0, 0, 0); stroke-opacity: 0; stroke-width: 0px; opacity: 1;"/></g><g class="points"/><g class="text"/></g><g class="trace scatter trace5323039f-7de5-418c-bc54-869fa57f07fd" style="stroke-miterlimit: 2;"><g class="fills"/><g class="errorbars"/><g class="lines"><path class="js-line" d="M26.18,99.97L36.25,99.97L36.6,99.1L36.94,99.97L37.29,80.42L38.68,99.97L39.03,95.31L39.38,99.97L39.72,87.09L40.07,89.33L40.42,71.2L41.46,72.27L41.81,72.27L73.4,72.27L73.75,78.25L75.49,12.71L75.84,29.05L77.22,80.75L77.57,71.85L77.92,63.5L78.27,76.56L78.61,75.41L78.96,99.97L80,99.97L80.35,88.55L81.39,99.97L81.74,99.97L173.06,99.97L173.41,96.33L173.76,96.1L174.11,96.7L174.45,99.97L586.98,99.97" style="vector-effect: non-scaling-stroke; fill: none; stroke: rgb(0, 0, 0); stroke-opacity: 0; stroke-width: 0px; opacity: 1;"/></g><g class="points"/><g class="text"/></g><g class="trace scatter trace27c4ee8c-0c35-4d3b-80eb-ef3bafe867a9" style="stroke-miterlimit: 2;"><g class="fills"><g><path class="js-fill" d="M26.18,99.97L37.99,99.97L38.33,105.23L38.68,106.05L39.03,99.97L39.38,102.31L39.72,99.97L40.07,99.97L78.61,99.97L78.96,122.29L79.31,120.72L79.66,121.19L80,112.08L80.35,99.97L80.7,111.11L81.04,124.78L81.39,124.09L81.74,114.3L82.43,118.94L82.78,111.8L83.13,104.89L83.48,116.06L84.86,158.3L85.21,152.49L85.91,192.63L86.25,179.98L86.6,180.93L86.95,177.64L87.29,161.66L87.99,172.67L88.34,157.76L88.68,164.21L89.03,148.05L90.07,119.82L90.42,131.47L91.46,116.95L91.81,116.95L99.45,116.95L99.8,127.43L100.84,101.29L101.18,101.9L101.53,105.8L101.88,101.58L102.23,110.04L102.57,111.89L102.92,119.98L104.31,151.14L104.66,149.13L105,151.8L105.7,137.54L106.05,152.21L106.39,152.82L106.74,156.9L107.43,146.86L107.78,152.53L108.48,148.41L108.82,125.07L109.17,126.16L109.52,123.23L109.87,114.66L110.21,121.65L110.56,121.65L121.67,121.8L122.02,114.88L122.71,127.84L123.06,139.04L123.41,137.32L123.76,140.1L124.8,148.54L125.14,140L125.49,142.01L125.84,139.44L126.19,138.59L126.53,135.79L126.88,134.04L127.23,139.39L128.27,134.58L128.62,136.65L128.96,139.28L129.31,156.41L129.66,153.89L130.01,161.95L130.35,167.55L130.7,159.46L131.05,165.28L131.39,163.04L131.74,163.85L132.78,156.5L133.13,157.5L133.48,173.39L134.17,171.22L134.52,168.51L135.56,177.89L135.91,169.78L136.95,159.94L137.3,162.34L138.69,156.6L139.03,157.66L139.38,158.84L139.73,167.45L140.08,165.54L140.42,168.54L140.77,169.39L141.12,168.51L141.46,166.13L142.85,139.88L143.2,142.92L149.8,142.92L150.15,136.18L150.49,146.8L150.84,144.37L151.19,142.28L151.88,145.59L152.23,143.41L152.58,142.18L152.92,134.68L153.97,143.75L154.31,137.55L154.66,140.83L155.01,136.31L156.74,121.14L157.09,122.38L161.95,122.38L162.3,117.84L162.65,118.17L162.99,117L163.34,117.3L163.69,125.13L164.73,117.7L165.08,109.55L166.12,111.1L166.47,111.1L172.37,111.1L172.72,109.97L173.06,109.76L173.41,99.97L174.45,100.67L174.8,103.6L175.49,101.61L175.84,101.9L176.19,102.8L176.54,102.41L176.88,103.62L177.23,103.28L177.58,104.35L177.93,104.86L178.27,109.59L178.62,110.04L178.97,108.7L179.66,106.68L180.01,108.21L181.4,101.98L181.74,105.19L182.09,107.14L182.44,106.71L182.79,106.17L183.48,105.91L183.83,123.32L184.87,132.88L185.22,131.78L185.91,167.65L186.26,164.33L186.61,173.8L186.95,172.15L187.3,188.02L187.65,183.04L188,190.31L188.34,189.88L188.69,177.21L189.04,176.21L189.38,184.48L189.73,179.65L190.08,180.59L190.43,189.6L190.77,187.4L191.12,193.31L191.81,205.22L192.16,204.98L192.51,200.61L194.25,211.05L194.59,211.46L194.94,210.91L195.29,201.79L196.33,184.21L196.68,191.07L197.72,185.57L198.07,194.09L198.41,193.05L198.76,199.88L199.11,191.05L199.8,192.27L200.15,195.49L200.84,190.43L201.19,193.41L201.54,192.59L201.88,193.27L202.23,186.23L202.93,187.29L203.27,186.91L203.62,199.29L203.97,198.79L204.32,199.38L204.66,202.84L205.01,197.99L205.36,200.36L205.7,199.1L206.75,196.71L207.09,200.81L207.44,201.21L207.79,199.78L208.14,200.37L208.48,199.82L208.83,199.96L209.52,200.43L209.87,204.23L210.22,204.98L210.57,203.45L210.91,204.23L211.26,203.32L211.61,201.93L211.95,203.45L212.3,203.28L212.65,203.01L213.34,205.39L213.69,196.91L214.39,196.23L214.73,197.82L215.43,198.53L215.77,199.14L216.47,198.24L216.82,196.64L217.86,188.83L218.21,188.83L281.4,188.83L281.75,185.18L282.1,188.39L282.45,188.29L282.79,185.4L283.83,196.39L284.18,195.31L284.53,195.27L284.88,193.54L285.22,185.8L285.57,182.34L285.92,182.95L286.26,182.98L286.61,186.32L286.96,184.35L287.31,185.29L288,188.85L288.35,188.09L288.7,184.86L289.74,185.78L290.08,185.78L292.86,185.78L293.21,186.74L293.56,192.36L293.9,190.61L294.25,190.29L294.6,192.66L294.95,188.9L295.29,188.85L295.64,187.82L297.03,195.57L297.38,190.42L297.72,190.75L298.07,184.74L298.42,184.78L298.77,189.37L299.81,188L300.15,190.89L301.2,194.15L301.54,194.13L301.89,189.91L302.24,190.31L302.59,193.03L303.28,202.34L303.63,183.3L304.32,169.89L304.67,174.87L305.02,171.77L305.71,175.86L306.06,174.47L306.4,173.58L306.75,175.03L307.1,171.99L307.45,173.28L307.79,172.82L308.84,174.7L309.18,174.7L312.66,175.32L313,183.48L314.04,196.06L314.39,192.48L314.74,191.67L315.09,185.55L315.43,187.1L315.78,181.54L317.17,189.3L317.52,191.01L318.21,185.22L318.56,185.91L318.91,185.53L319.95,190.73L320.29,190.94L320.64,189.89L320.99,193.27L321.34,192.32L321.68,196.26L322.03,200.91L322.38,189.56L323.42,192.08L323.77,185.68L324.81,190.83L325.16,190.87L326.2,187.64L326.54,190.11L327.24,190.89L327.59,194.98L329.32,174.5L329.67,176.05L347.03,176.05L347.38,178.11L347.73,180.8L348.07,180.67L348.42,174.59L349.12,177.2L349.46,172.38L349.81,171.16L350.16,175.04L351.2,190.77L351.55,190.13L351.89,239.82L352.59,233.92L352.94,230.92L353.28,236.19L353.63,231.69L353.98,230.42L354.67,217.49L355.02,217.83L355.37,223.71L356.06,208.99L356.41,210.06L356.76,209.11L357.8,215.1L358.14,215.1L413.01,215.1L413.36,217.8L414.05,215.81L414.4,218.19L415.79,215.16L416.13,216.2L417.18,210.21L417.52,210.34L417.87,210.4L418.22,208.98L419.26,210.53L419.61,210.53L463.71,210.53L464.05,207.73L464.4,207.69L464.75,211.39L465.09,210.02L465.44,203.89L466.48,194.98L466.83,192.15L467.87,193.38L468.22,193.38L493.92,193.38L494.26,181.06L494.61,178.54L494.96,178.95L495.3,182.17L496,171.57L496.35,174.63L496.69,173.15L497.04,183.06L497.39,172.48L498.08,172.79L498.43,168.92L498.78,170.47L499.12,176.53L499.47,174.4L499.82,191.97L500.51,191.45L500.86,199.13L501.21,199.96L501.56,207.19L501.9,208.9L502.25,224.28L502.6,214.7L502.94,222.88L503.29,222.39L503.64,229.36L503.99,219.02L504.33,220.2L504.68,217.91L505.03,219.69L505.37,226.85L505.72,229.49L506.07,226.9L506.42,222.88L506.76,224.28L507.11,222.09L507.46,217.9L507.81,223.94L509.19,232.55L509.54,222.54L510.58,227.14L510.93,218.46L511.28,214.73L511.63,215.66L511.97,220.14L512.32,220.78L512.67,226.46L513.01,227.3L513.36,227L513.71,236.97L514.75,229.34L515.1,237.03L515.44,235.29L515.79,229.25L516.14,229.76L516.49,226.23L517.18,232.24L517.53,231.53L517.88,229.33L518.22,227.79L518.57,231.77L518.92,230.45L519.26,231.34L519.61,233.81L520.65,230.35L521,233.28L522.39,237.53L522.74,237.19L523.08,236.55L523.78,241.51L524.13,235.63L524.47,235.28L524.82,231.91L525.51,227.55L525.86,222.92L526.9,215.97L527.25,215.97L545.66,215.97L546,209.08L546.35,205.84L546.7,210.88L547.04,211.22L547.39,210.02L548.09,215.25L548.43,214.03L548.78,208.39L549.82,197.66L550.17,195.14L551.56,180.2L551.91,180.2L567.53,180.2L567.88,181.15L568.23,176.86L568.57,189.2L569.61,179.65L569.96,181.6L570.31,181.05L570.66,182.71L571.35,199.99L571.7,199.41L572.05,196.94L572.74,196.88L573.09,203.77L573.43,204.73L573.78,199.43L574.13,197.86L574.48,205.76L575.17,200.66L575.52,203.57L575.87,207.11L576.21,205.45L576.56,205.81L576.91,205.26L577.25,200.6L577.6,201.32L577.95,196.01L578.3,196.05L578.64,197.04L578.99,196.16L579.34,196.33L579.68,203.78L580.73,206.91L581.07,203.36L582.12,207.82L582.46,213.43L582.81,214.3L583.16,217.87L584.2,217.27L584.55,215.13L584.89,212.37L585.24,215.53L585.59,214.35L586.28,214.32L586.63,216.38L586.98,217.1L586.98,99.97L26.18,99.97Z" style="fill: rgb(255, 0, 0); fill-opacity: 0.3; stroke-width: 0;"/></g></g><g class="errorbars"/><g class="lines"><path class="js-line" d="M26.18,99.97L586.98,99.97" style="vector-effect: non-scaling-stroke; fill: none; stroke: rgb(0, 0, 0); stroke-opacity: 0; stroke-width: 0px; opacity: 1;"/></g><g class="points"/><g class="text"/></g><g class="trace scatter trace2a288151-d066-46c3-8142-4684ea567679" style="stroke-miterlimit: 2;"><g class="fills"/><g class="errorbars"/><g class="lines"><path class="js-line" d="M26.18,99.97L37.99,99.97L38.33,105.23L38.68,106.05L39.03,99.97L39.38,102.31L39.72,99.97L40.07,99.97L78.61,99.97L78.96,122.29L79.31,120.72L79.66,121.19L80,112.08L80.35,99.97L80.7,111.11L81.04,124.78L81.39,124.09L81.74,114.3L82.43,118.94L82.78,111.8L83.13,104.89L83.48,116.06L84.86,158.3L85.21,152.49L85.91,192.63L86.25,179.98L86.6,180.93L86.95,177.64L87.29,161.66L87.99,172.67L88.34,157.76L88.68,164.21L89.03,148.05L90.07,119.82L90.42,131.47L91.46,116.95L91.81,116.95L99.45,116.95L99.8,127.43L100.84,101.29L101.18,101.9L101.53,105.8L101.88,101.58L102.23,110.04L102.57,111.89L102.92,119.98L104.31,151.14L104.66,149.13L105,151.8L105.7,137.54L106.05,152.21L106.39,152.82L106.74,156.9L107.43,146.86L107.78,152.53L108.48,148.41L108.82,125.07L109.17,126.16L109.52,123.23L109.87,114.66L110.21,121.65L110.56,121.65L121.67,121.8L122.02,114.88L122.71,127.84L123.06,139.04L123.41,137.32L123.76,140.1L124.8,148.54L125.14,140L125.49,142.01L125.84,139.44L126.19,138.59L126.53,135.79L126.88,134.04L127.23,139.39L128.27,134.58L128.62,136.65L128.96,139.28L129.31,156.41L129.66,153.89L130.01,161.95L130.35,167.55L130.7,159.46L131.05,165.28L131.39,163.04L131.74,163.85L132.78,156.5L133.13,157.5L133.48,173.39L134.17,171.22L134.52,168.51L135.56,177.89L135.91,169.78L136.95,159.94L137.3,162.34L138.69,156.6L139.03,157.66L139.38,158.84L139.73,167.45L140.08,165.54L140.42,168.54L140.77,169.39L141.12,168.51L141.46,166.13L142.85,139.88L143.2,142.92L149.8,142.92L150.15,136.18L150.49,146.8L150.84,144.37L151.19,142.28L151.88,145.59L152.23,143.41L152.58,142.18L152.92,134.68L153.97,143.75L154.31,137.55L154.66,140.83L155.01,136.31L156.74,121.14L157.09,122.38L161.95,122.38L162.3,117.84L162.65,118.17L162.99,117L163.34,117.3L163.69,125.13L164.73,117.7L165.08,109.55L166.12,111.1L166.47,111.1L172.37,111.1L172.72,109.97L173.06,109.76L173.41,99.97L174.45,100.67L174.8,103.6L175.49,101.61L175.84,101.9L176.19,102.8L176.54,102.41L176.88,103.62L177.23,103.28L177.58,104.35L177.93,104.86L178.27,109.59L178.62,110.04L178.97,108.7L179.66,106.68L180.01,108.21L181.4,101.98L181.74,105.19L182.09,107.14L182.44,106.71L182.79,106.17L183.48,105.91L183.83,123.32L184.87,132.88L185.22,131.78L185.91,167.65L186.26,164.33L186.61,173.8L186.95,172.15L187.3,188.02L187.65,183.04L188,190.31L188.34,189.88L188.69,177.21L189.04,176.21L189.38,184.48L189.73,179.65L190.08,180.59L190.43,189.6L190.77,187.4L191.12,193.31L191.81,205.22L192.16,204.98L192.51,200.61L194.25,211.05L194.59,211.46L194.94,210.91L195.29,201.79L196.33,184.21L196.68,191.07L197.72,185.57L198.07,194.09L198.41,193.05L198.76,199.88L199.11,191.05L199.8,192.27L200.15,195.49L200.84,190.43L201.19,193.41L201.54,192.59L201.88,193.27L202.23,186.23L202.93,187.29L203.27,186.91L203.62,199.29L203.97,198.79L204.32,199.38L204.66,202.84L205.01,197.99L205.36,200.36L205.7,199.1L206.75,196.71L207.09,200.81L207.44,201.21L207.79,199.78L208.14,200.37L208.48,199.82L208.83,199.96L209.52,200.43L209.87,204.23L210.22,204.98L210.57,203.45L210.91,204.23L211.26,203.32L211.61,201.93L211.95,203.45L212.3,203.28L212.65,203.01L213.34,205.39L213.69,196.91L214.39,196.23L214.73,197.82L215.43,198.53L215.77,199.14L216.47,198.24L216.82,196.64L217.86,188.83L218.21,188.83L281.4,188.83L281.75,185.18L282.1,188.39L282.45,188.29L282.79,185.4L283.83,196.39L284.18,195.31L284.53,195.27L284.88,193.54L285.22,185.8L285.57,182.34L285.92,182.95L286.26,182.98L286.61,186.32L286.96,184.35L287.31,185.29L288,188.85L288.35,188.09L288.7,184.86L289.74,185.78L290.08,185.78L292.86,185.78L293.21,186.74L293.56,192.36L293.9,190.61L294.25,190.29L294.6,192.66L294.95,188.9L295.29,188.85L295.64,187.82L297.03,195.57L297.38,190.42L297.72,190.75L298.07,184.74L298.42,184.78L298.77,189.37L299.81,188L300.15,190.89L301.2,194.15L301.54,194.13L301.89,189.91L302.24,190.31L302.59,193.03L303.28,202.34L303.63,183.3L304.32,169.89L304.67,174.87L305.02,171.77L305.71,175.86L306.06,174.47L306.4,173.58L306.75,175.03L307.1,171.99L307.45,173.28L307.79,172.82L308.84,174.7L309.18,174.7L312.66,175.32L313,183.48L314.04,196.06L314.39,192.48L314.74,191.67L315.09,185.55L315.43,187.1L315.78,181.54L317.17,189.3L317.52,191.01L318.21,185.22L318.56,185.91L318.91,185.53L319.95,190.73L320.29,190.94L320.64,189.89L320.99,193.27L321.34,192.32L321.68,196.26L322.03,200.91L322.38,189.56L323.42,192.08L323.77,185.68L324.81,190.83L325.16,190.87L326.2,187.64L326.54,190.11L327.24,190.89L327.59,194.98L329.32,174.5L329.67,176.05L347.03,176.05L347.38,178.11L347.73,180.8L348.07,180.67L348.42,174.59L349.12,177.2L349.46,172.38L349.81,171.16L350.16,175.04L351.2,190.77L351.55,190.13L351.89,239.82L352.59,233.92L352.94,230.92L353.28,236.19L353.63,231.69L353.98,230.42L354.67,217.49L355.02,217.83L355.37,223.71L356.06,208.99L356.41,210.06L356.76,209.11L357.8,215.1L358.14,215.1L413.01,215.1L413.36,217.8L414.05,215.81L414.4,218.19L415.79,215.16L416.13,216.2L417.18,210.21L417.52,210.34L417.87,210.4L418.22,208.98L419.26,210.53L419.61,210.53L463.71,210.53L464.05,207.73L464.4,207.69L464.75,211.39L465.09,210.02L465.44,203.89L466.48,194.98L466.83,192.15L467.87,193.38L468.22,193.38L493.92,193.38L494.26,181.06L494.61,178.54L494.96,178.95L495.3,182.17L496,171.57L496.35,174.63L496.69,173.15L497.04,183.06L497.39,172.48L498.08,172.79L498.43,168.92L498.78,170.47L499.12,176.53L499.47,174.4L499.82,191.97L500.51,191.45L500.86,199.13L501.21,199.96L501.56,207.19L501.9,208.9L502.25,224.28L502.6,214.7L502.94,222.88L503.29,222.39L503.64,229.36L503.99,219.02L504.33,220.2L504.68,217.91L505.03,219.69L505.37,226.85L505.72,229.49L506.07,226.9L506.42,222.88L506.76,224.28L507.11,222.09L507.46,217.9L507.81,223.94L509.19,232.55L509.54,222.54L510.58,227.14L510.93,218.46L511.28,214.73L511.63,215.66L511.97,220.14L512.32,220.78L512.67,226.46L513.01,227.3L513.36,227L513.71,236.97L514.75,229.34L515.1,237.03L515.44,235.29L515.79,229.25L516.14,229.76L516.49,226.23L517.18,232.24L517.53,231.53L517.88,229.33L518.22,227.79L518.57,231.77L518.92,230.45L519.26,231.34L519.61,233.81L520.65,230.35L521,233.28L522.39,237.53L522.74,237.19L523.08,236.55L523.78,241.51L524.13,235.63L524.47,235.28L524.82,231.91L525.51,227.55L525.86,222.92L526.9,215.97L527.25,215.97L545.66,215.97L546,209.08L546.35,205.84L546.7,210.88L547.04,211.22L547.39,210.02L548.09,215.25L548.43,214.03L548.78,208.39L549.82,197.66L550.17,195.14L551.56,180.2L551.91,180.2L567.53,180.2L567.88,181.15L568.23,176.86L568.57,189.2L569.61,179.65L569.96,181.6L570.31,181.05L570.66,182.71L571.35,199.99L571.7,199.41L572.05,196.94L572.74,196.88L573.09,203.77L573.43,204.73L573.78,199.43L574.13,197.86L574.48,205.76L575.17,200.66L575.52,203.57L575.87,207.11L576.21,205.45L576.56,205.81L576.91,205.26L577.25,200.6L577.6,201.32L577.95,196.01L578.3,196.05L578.64,197.04L578.99,196.16L579.34,196.33L579.68,203.78L580.73,206.91L581.07,203.36L582.12,207.82L582.46,213.43L582.81,214.3L583.16,217.87L584.2,217.27L584.55,215.13L584.89,212.37L585.24,215.53L585.59,214.35L586.28,214.32L586.63,216.38L586.98,217.1" style="vector-effect: non-scaling-stroke; fill: none; stroke: rgb(0, 0, 0); stroke-opacity: 0; stroke-width: 0px; opacity: 1;"/></g><g class="points"/><g class="text"/></g><g class="trace scatter traceb618f2d8-e75d-4321-be7b-19ca98a4c5ed" style="stroke-miterlimit: 2; opacity: 1;"><g class="fills"/><g class="errorbars"/><g class="lines"><path class="js-line" d="M26.18,99.97L36.25,99.97L36.6,99.1L36.94,99.97L37.29,80.42L38.68,106.05L39.03,95.31L39.38,102.31L39.72,87.09L40.07,89.33L40.42,71.2L41.46,72.27L41.81,72.27L73.4,72.27L73.75,78.25L75.49,12.71L75.84,29.05L77.22,80.75L77.57,71.85L77.92,63.5L78.27,76.56L78.61,75.41L78.96,122.29L79.31,120.72L79.66,121.19L80,112.08L80.35,88.55L80.7,111.11L81.04,124.78L81.39,124.09L81.74,114.3L82.43,118.94L82.78,111.8L83.13,104.89L83.48,116.06L84.86,158.3L85.21,152.49L85.91,192.63L86.25,179.98L86.6,180.93L86.95,177.64L87.29,161.66L87.99,172.67L88.34,157.76L88.68,164.21L89.03,148.05L90.07,119.82L90.42,131.47L91.46,116.95L91.81,116.95L99.45,116.95L99.8,127.43L100.84,101.29L101.18,101.9L101.53,105.8L101.88,101.58L102.23,110.04L102.57,111.89L102.92,119.98L104.31,151.14L104.66,149.13L105,151.8L105.7,137.54L106.05,152.21L106.39,152.82L106.74,156.9L107.43,146.86L107.78,152.53L108.48,148.41L108.82,125.07L109.17,126.16L109.52,123.23L109.87,114.66L110.21,121.65L110.56,121.65L121.67,121.8L122.02,114.88L122.71,127.84L123.06,139.04L123.41,137.32L123.76,140.1L124.8,148.54L125.14,140L125.49,142.01L125.84,139.44L126.19,138.59L126.53,135.79L126.88,134.04L127.23,139.39L128.27,134.58L128.62,136.65L128.96,139.28L129.31,156.41L129.66,153.89L130.01,161.95L130.35,167.55L130.7,159.46L131.05,165.28L131.39,163.04L131.74,163.85L132.78,156.5L133.13,157.5L133.48,173.39L134.17,171.22L134.52,168.51L135.56,177.89L135.91,169.78L136.95,159.94L137.3,162.34L138.69,156.6L139.03,157.66L139.38,158.84L139.73,167.45L140.08,165.54L140.42,168.54L140.77,169.39L141.12,168.51L141.46,166.13L142.85,139.88L143.2,142.92L149.8,142.92L150.15,136.18L150.49,146.8L150.84,144.37L151.19,142.28L151.88,145.59L152.23,143.41L152.58,142.18L152.92,134.68L153.97,143.75L154.31,137.55L154.66,140.83L155.01,136.31L156.74,121.14L157.09,122.38L161.95,122.38L162.3,117.84L162.65,118.17L162.99,117L163.34,117.3L163.69,125.13L164.73,117.7L165.08,109.55L166.12,111.1L166.47,111.1L172.37,111.1L172.72,109.97L173.06,109.76L173.41,96.33L173.76,96.1L174.11,96.7L174.45,100.67L174.8,103.6L175.15,101.66L175.49,101.61L177.23,103.28L177.58,104.35L177.93,104.86L178.27,109.59L178.62,110.04L178.97,108.7L179.66,106.68L180.01,108.21L181.4,101.98L181.74,105.19L182.09,107.14L182.44,106.71L182.79,106.17L183.48,105.91L183.83,123.32L184.87,132.88L185.22,131.78L185.91,167.65L186.26,164.33L186.61,173.8L186.95,172.15L187.3,188.02L187.65,183.04L188,190.31L188.34,189.88L188.69,177.21L189.04,176.21L189.38,184.48L189.73,179.65L190.08,180.59L190.43,189.6L190.77,187.4L191.12,193.31L191.81,205.22L192.16,204.98L192.51,200.61L194.25,211.05L194.59,211.46L194.94,210.91L195.29,201.79L196.33,184.21L196.68,191.07L197.72,185.57L198.07,194.09L198.41,193.05L198.76,199.88L199.11,191.05L199.8,192.27L200.15,195.49L200.84,190.43L201.19,193.41L201.54,192.59L201.88,193.27L202.23,186.23L202.93,187.29L203.27,186.91L203.62,199.29L203.97,198.79L204.32,199.38L204.66,202.84L205.01,197.99L205.36,200.36L205.7,199.1L206.75,196.71L207.09,200.81L207.44,201.21L207.79,199.78L208.14,200.37L208.48,199.82L208.83,199.96L209.52,200.43L209.87,204.23L210.22,204.98L210.57,203.45L210.91,204.23L211.26,203.32L211.61,201.93L211.95,203.45L212.3,203.28L212.65,203.01L213.34,205.39L213.69,196.91L214.39,196.23L214.73,197.82L215.43,198.53L215.77,199.14L216.47,198.24L216.82,196.64L217.86,188.83L218.21,188.83L281.4,188.83L281.75,185.18L282.1,188.39L282.45,188.29L282.79,185.4L283.83,196.39L284.18,195.31L284.53,195.27L284.88,193.54L285.22,185.8L285.57,182.34L285.92,182.95L286.26,182.98L286.61,186.32L286.96,184.35L287.31,185.29L288,188.85L288.35,188.09L288.7,184.86L289.74,185.78L290.08,185.78L292.86,185.78L293.21,186.74L293.56,192.36L293.9,190.61L294.25,190.29L294.6,192.66L294.95,188.9L295.29,188.85L295.64,187.82L297.03,195.57L297.38,190.42L297.72,190.75L298.07,184.74L298.42,184.78L298.77,189.37L299.81,188L300.15,190.89L301.2,194.15L301.54,194.13L301.89,189.91L302.24,190.31L302.59,193.03L303.28,202.34L303.63,183.3L304.32,169.89L304.67,174.87L305.02,171.77L305.71,175.86L306.06,174.47L306.4,173.58L306.75,175.03L307.1,171.99L307.45,173.28L307.79,172.82L308.84,174.7L309.18,174.7L312.66,175.32L313,183.48L314.04,196.06L314.39,192.48L314.74,191.67L315.09,185.55L315.43,187.1L315.78,181.54L317.17,189.3L317.52,191.01L318.21,185.22L318.56,185.91L318.91,185.53L319.95,190.73L320.29,190.94L320.64,189.89L320.99,193.27L321.34,192.32L321.68,196.26L322.03,200.91L322.38,189.56L323.42,192.08L323.77,185.68L324.81,190.83L325.16,190.87L326.2,187.64L326.54,190.11L327.24,190.89L327.59,194.98L329.32,174.5L329.67,176.05L347.03,176.05L347.38,178.11L347.73,180.8L348.07,180.67L348.42,174.59L349.12,177.2L349.46,172.38L349.81,171.16L350.16,175.04L351.2,190.77L351.55,190.13L351.89,239.82L352.59,233.92L352.94,230.92L353.28,236.19L353.63,231.69L353.98,230.42L354.67,217.49L355.02,217.83L355.37,223.71L356.06,208.99L356.41,210.06L356.76,209.11L357.8,215.1L358.14,215.1L413.01,215.1L413.36,217.8L414.05,215.81L414.4,218.19L415.79,215.16L416.13,216.2L417.18,210.21L417.52,210.34L417.87,210.4L418.22,208.98L419.26,210.53L419.61,210.53L463.71,210.53L464.05,207.73L464.4,207.69L464.75,211.39L465.09,210.02L465.44,203.89L466.48,194.98L466.83,192.15L467.87,193.38L468.22,193.38L493.92,193.38L494.26,181.06L494.61,178.54L494.96,178.95L495.3,182.17L496,171.57L496.35,174.63L496.69,173.15L497.04,183.06L497.39,172.48L498.08,172.79L498.43,168.92L498.78,170.47L499.12,176.53L499.47,174.4L499.82,191.97L500.51,191.45L500.86,199.13L501.21,199.96L501.56,207.19L501.9,208.9L502.25,224.28L502.6,214.7L502.94,222.88L503.29,222.39L503.64,229.36L503.99,219.02L504.33,220.2L504.68,217.91L505.03,219.69L505.37,226.85L505.72,229.49L506.07,226.9L506.42,222.88L506.76,224.28L507.11,222.09L507.46,217.9L507.81,223.94L509.19,232.55L509.54,222.54L510.58,227.14L510.93,218.46L511.28,214.73L511.63,215.66L511.97,220.14L512.32,220.78L512.67,226.46L513.01,227.3L513.36,227L513.71,236.97L514.75,229.34L515.1,237.03L515.44,235.29L515.79,229.25L516.14,229.76L516.49,226.23L517.18,232.24L517.53,231.53L517.88,229.33L518.22,227.79L518.57,231.77L518.92,230.45L519.26,231.34L519.61,233.81L520.65,230.35L521,233.28L522.39,237.53L522.74,237.19L523.08,236.55L523.78,241.51L524.13,235.63L524.47,235.28L524.82,231.91L525.51,227.55L525.86,222.92L526.9,215.97L527.25,215.97L545.66,215.97L546,209.08L546.35,205.84L546.7,210.88L547.04,211.22L547.39,210.02L548.09,215.25L548.43,214.03L548.78,208.39L549.82,197.66L550.17,195.14L551.56,180.2L551.91,180.2L567.53,180.2L567.88,181.15L568.23,176.86L568.57,189.2L569.61,179.65L569.96,181.6L570.31,181.05L570.66,182.71L571.35,199.99L571.7,199.41L572.05,196.94L572.74,196.88L573.09,203.77L573.43,204.73L573.78,199.43L574.13,197.86L574.48,205.76L575.17,200.66L575.52,203.57L575.87,207.11L576.21,205.45L576.56,205.81L576.91,205.26L577.25,200.6L577.6,201.32L577.95,196.01L578.3,196.05L578.64,197.04L578.99,196.16L579.34,196.33L579.68,203.78L580.73,206.91L581.07,203.36L582.12,207.82L582.46,213.43L582.81,214.3L583.16,217.87L584.2,217.27L584.55,215.13L584.89,212.37L585.24,215.53L585.59,214.35L586.28,214.32L586.63,216.38L586.98,217.1" style="vector-effect: non-scaling-stroke; fill: none; stroke: rgb(148, 103, 189); stroke-opacity: 1; stroke-width: 2px; opacity: 1;"/></g><g class="points"/><g class="text"/></g><g class="trace scatter tracee0a202b7-e8cf-4de3-a93f-2e971743c615" style="stroke-miterlimit: 2; opacity: 0;"><g class="fills"/><g class="errorbars"/><g class="lines"><path class="js-line" d="M26.18,99.97L586.98,99.97" style="vector-effect: non-scaling-stroke; fill: none; stroke: rgb(0, 0, 0); stroke-opacity: 0; stroke-width: 0px; opacity: 1;"/></g><g class="points"/><g class="text"/></g></g></g><g class="overplot"/><path class="xlines-above crisp" d="M0,0" style="fill: none;"/><path class="ylines-above crisp" d="M0,0" style="fill: none;"/><g class="overlines-above"/><g class="xaxislayer-above"><g class="x3tick"><text text-anchor="middle" x="0" y="920.9999999999999" transform="translate(168.75,0)" style="font-family: 'Open Sans', verdana, arial, sans-serif; font-size: 12px; fill: rgb(214, 223, 239); fill-opacity: 1; white-space: pre; opacity: 1;">2018</text></g><g class="x3tick"><text text-anchor="middle" x="0" y="920.9999999999999" style="font-family: 'Open Sans', verdana, arial, sans-serif; font-size: 12px; fill: rgb(214, 223, 239); fill-opacity: 1; white-space: pre; opacity: 1;" transform="translate(295.5,0)">2019</text></g><g class="x3tick"><text text-anchor="middle" x="0" y="920.9999999999999" style="font-family: 'Open Sans', verdana, arial, sans-serif; font-size: 12px; fill: rgb(214, 223, 239); fill-opacity: 1; white-space: pre; opacity: 1;" transform="translate(422.24,0)">2020</text></g><g class="x3tick"><text text-anchor="middle" x="0" y="920.9999999999999" style="font-family: 'Open Sans', verdana, arial, sans-serif; font-size: 12px; fill: rgb(214, 223, 239); fill-opacity: 1; white-space: pre; opacity: 1;" transform="translate(549.3299999999999,0)">2021</text></g><g class="x3tick"><text text-anchor="middle" x="0" y="920.9999999999999" style="font-family: 'Open Sans', verdana, arial, sans-serif; font-size: 12px; fill: rgb(214, 223, 239); fill-opacity: 1; white-space: pre; opacity: 1;" transform="translate(676.07,0)">2022</text></g></g><g class="yaxislayer-above"><g class="y3tick"><text text-anchor="end" x="94" y="4.199999999999999" transform="translate(0,883.3077777777777)" style="font-family: 'Open Sans', verdana, arial, sans-serif; font-size: 12px; fill: rgb(214, 223, 239); fill-opacity: 1; white-space: pre; opacity: 1;">0.4</text></g><g class="y3tick"><text text-anchor="end" x="94" y="4.199999999999999" style="font-family: 'Open Sans', verdana, arial, sans-serif; font-size: 12px; fill: rgb(214, 223, 239); fill-opacity: 1; white-space: pre; opacity: 1;" transform="translate(0,840.1177777777777)">0.6</text></g><g class="y3tick"><text text-anchor="end" x="94" y="4.199999999999999" style="font-family: 'Open Sans', verdana, arial, sans-serif; font-size: 12px; fill: rgb(214, 223, 239); fill-opacity: 1; white-space: pre; opacity: 1;" transform="translate(0,796.9377777777777)">0.8</text></g><g class="y3tick"><text text-anchor="end" x="94" y="4.199999999999999" style="font-family: 'Open Sans', verdana, arial, sans-serif; font-size: 12px; fill: rgb(214, 223, 239); fill-opacity: 1; white-space: pre; opacity: 1;" transform="translate(0,753.7477777777777)">1</text></g><g class="y3tick"><text text-anchor="end" x="94" y="4.199999999999999" style="font-family: 'Open Sans', verdana, arial, sans-serif; font-size: 12px; fill: rgb(214, 223, 239); fill-opacity: 1; white-space: pre; opacity: 1;" transform="translate(0,710.5677777777777)">1.2</text></g><g class="y3tick"><text text-anchor="end" x="94" y="4.199999999999999" style="font-family: 'Open Sans', verdana, arial, sans-serif; font-size: 12px; fill: rgb(214, 223, 239); fill-opacity: 1; white-space: pre; opacity: 1;" transform="translate(0,667.3877777777777)">1.4</text></g></g><g class="overaxes-above"/></g></g><g class="polarlayer"/><g class="ternarylayer"/><g class="geolayer"/><g class="funnelarealayer"/><g class="pielayer"/><g class="iciclelayer"/><g class="treemaplayer"/><g class="sunburstlayer"/><g class="glimages"/><defs id="topdefs-2da860"><g class="clips"/><clipPath id="legend2da860"><rect width="624" height="29" x="0" y="0"/></clipPath></defs><g class="layer-above"><g class="imagelayer"/><g class="shapelayer"><path data-index="0" fill-rule="evenodd" d="M95,488.77888888888896L720,488.77888888888896" clip-path="url(#clip2da860y2)" style="opacity: 1; stroke: rgb(128, 128, 128); stroke-opacity: 1; fill: rgb(0, 0, 0); fill-opacity: 0; stroke-dasharray: 9px, 9px; stroke-width: 2px;"/><path data-index="1" fill-rule="evenodd" d="M95,753.7477777777777L720,753.7477777777777" clip-path="url(#clip2da860y3)" style="opacity: 1; stroke: rgb(128, 128, 128); stroke-opacity: 1; fill: rgb(0, 0, 0); fill-opacity: 0; stroke-dasharray: 9px, 9px; stroke-width: 2px;"/></g></g><g class="infolayer"><g class="legend" pointer-events="all" transform="translate(96,12.333333333333272)"><rect class="bg" shape-rendering="crispEdges" width="624" height="29" x="0" y="0" style="stroke: rgb(68, 68, 68); stroke-opacity: 1; fill: rgb(33, 34, 44); fill-opacity: 1; stroke-width: 0px;"/><g class="scrollbox" transform="" clip-path="url(#legend2da860)"><g class="groups"><g class="traces" transform="translate(0,14.5)" style="opacity: 1;"><text class="legendtext" text-anchor="start" x="40" y="4.680000000000001" style="font-family: 'Open Sans', verdana, arial, sans-serif; font-size: 12px; fill: rgb(214, 223, 239); fill-opacity: 1; white-space: pre;">Close</text><g class="layers" style="opacity: 1;"><g class="legendfill"/><g class="legendlines"><path class="js-line" d="M5,0h30" style="fill: none; stroke: rgb(31, 119, 180); stroke-opacity: 1; stroke-width: 2px;"/></g><g class="legendsymbols"><g class="legendpoints"/></g></g><rect class="legendtoggle" x="0" y="-9.5" width="74.84375" height="19" style="fill: rgb(0, 0, 0); fill-opacity: 0;"/></g><g class="traces" transform="translate(77.34375,14.5)" style="opacity: 1;"><text class="legendtext" text-anchor="start" x="40" y="4.680000000000001" style="font-family: 'Open Sans', verdana, arial, sans-serif; font-size: 12px; fill: rgb(214, 223, 239); fill-opacity: 1; white-space: pre;">Buy</text><g class="layers" style="opacity: 1;"><g class="legendfill"/><g class="legendlines"/><g class="legendsymbols"><g class="legendpoints"><path class="scatterpts" transform="translate(20,0)" d="M-4.62,2H4.62L0,-4Z" style="opacity: 1; stroke-width: 1px; fill: rgb(55, 177, 63); fill-opacity: 1; stroke: rgb(38, 123, 44); stroke-opacity: 1;"/></g></g></g><rect class="legendtoggle" x="0" y="-9.5" width="65.421875" height="19" style="fill: rgb(0, 0, 0); fill-opacity: 0;"/></g><g class="traces" transform="translate(145.265625,14.5)" style="opacity: 1;"><text class="legendtext" text-anchor="start" x="40" y="4.680000000000001" style="font-family: 'Open Sans', verdana, arial, sans-serif; font-size: 12px; fill: rgb(214, 223, 239); fill-opacity: 1; white-space: pre;">Sell</text><g class="layers" style="opacity: 1;"><g class="legendfill"/><g class="legendlines"/><g class="legendsymbols"><g class="legendpoints"><path class="scatterpts" transform="translate(20,0)" d="M-4.62,-2H4.62L0,4Z" style="opacity: 1; stroke-width: 1px; fill: rgb(234, 67, 53); fill-opacity: 1; stroke: rgb(181, 31, 18); stroke-opacity: 1;"/></g></g></g><rect class="legendtoggle" x="0" y="-9.5" width="64.4375" height="19" style="fill: rgb(0, 0, 0); fill-opacity: 0;"/></g><g class="traces" transform="translate(212.203125,14.5)" style="opacity: 1;"><text class="legendtext" text-anchor="start" x="40" y="4.680000000000001" style="font-family: 'Open Sans', verdana, arial, sans-serif; font-size: 12px; fill: rgb(214, 223, 239); fill-opacity: 1; white-space: pre;">Closed - Profit</text><g class="layers" style="opacity: 1;"><g class="legendfill"/><g class="legendlines"/><g class="legendsymbols"><g class="legendpoints"><path class="scatterpts" transform="translate(20,0)" d="M4.57,0A4.57,4.57 0 1,1 0,-4.57A4.57,4.57 0 0,1 4.57,0Z" style="opacity: 0.79582; stroke-width: 1px; fill: rgb(55, 177, 63); fill-opacity: 1; stroke: rgb(38, 123, 44); stroke-opacity: 1;"/></g></g></g><rect class="legendtoggle" x="0" y="-9.5" width="128.09375" height="19" style="fill: rgb(0, 0, 0); fill-opacity: 0;"/></g><g class="traces" transform="translate(342.796875,14.5)" style="opacity: 1;"><text class="legendtext" text-anchor="start" x="40" y="4.680000000000001" style="font-family: 'Open Sans', verdana, arial, sans-serif; font-size: 12px; fill: rgb(214, 223, 239); fill-opacity: 1; white-space: pre;">Closed - Loss</text><g class="layers" style="opacity: 1;"><g class="legendfill"/><g class="legendlines"/><g class="legendsymbols"><g class="legendpoints"><path class="scatterpts" transform="translate(20,0)" d="M4.99,0A4.99,4.99 0 1,1 0,-4.99A4.99,4.99 0 0,1 4.99,0Z" style="opacity: 0.81385; stroke-width: 1px; fill: rgb(234, 67, 53); fill-opacity: 1; stroke: rgb(181, 31, 18); stroke-opacity: 1;"/></g></g></g><rect class="legendtoggle" x="0" y="-9.5" width="122.671875" height="19" style="fill: rgb(0, 0, 0); fill-opacity: 0;"/></g><g class="traces" transform="translate(467.96875,14.5)" style="opacity: 1;"><text class="legendtext" text-anchor="start" x="40" y="4.680000000000001" style="font-family: 'Open Sans', verdana, arial, sans-serif; font-size: 12px; fill: rgb(214, 223, 239); fill-opacity: 1; white-space: pre;">Open</text><g class="layers" style="opacity: 1;"><g class="legendfill"/><g class="legendlines"/><g class="legendsymbols"><g class="legendpoints"><path class="scatterpts" transform="translate(20,0)" d="M5.98,0A5.98,5.98 0 1,1 0,-5.98A5.98,5.98 0 0,1 5.98,0Z" style="opacity: 0.85637; stroke-width: 1px; fill: rgb(255, 170, 0); fill-opacity: 1; stroke: rgb(178, 118, 0); stroke-opacity: 1;"/></g></g></g><rect class="legendtoggle" x="0" y="-9.5" width="74.15625" height="19" style="fill: rgb(0, 0, 0); fill-opacity: 0;"/></g><g class="traces" transform="translate(544.625,14.5)" style="opacity: 1;"><text class="legendtext" text-anchor="start" x="40" y="4.680000000000001" style="font-family: 'Open Sans', verdana, arial, sans-serif; font-size: 12px; fill: rgb(214, 223, 239); fill-opacity: 1; white-space: pre;">Value</text><g class="layers" style="opacity: 1;"><g class="legendfill"/><g class="legendlines"><path class="js-line" d="M5,0h30" style="fill: none; stroke: rgb(148, 103, 189); stroke-opacity: 1; stroke-width: 2px;"/></g><g class="legendsymbols"><g class="legendpoints"/></g></g><rect class="legendtoggle" x="0" y="-9.5" width="75.9375" height="19" style="fill: rgb(0, 0, 0); fill-opacity: 0;"/></g></g></g><rect class="scrollbar" rx="20" ry="3" width="0" height="0" x="0" y="0" style="fill: rgb(128, 139, 164); fill-opacity: 1;"/></g><g class="g-gtitle"/><g class="g-xtitle"/><g class="g-x2title"/><g class="g-x3title"><text class="x3title" x="407.5" y="948.3" text-anchor="middle" style="font-family: 'Open Sans', verdana, arial, sans-serif; font-size: 14px; fill: rgb(214, 223, 239); opacity: 1; font-weight: normal; white-space: pre;">Index</text></g><g class="g-ytitle"><text class="ytitle" transform="rotate(-90,46.840625,203.11111111111111)" x="46.840625" y="203.11111111111111" text-anchor="middle" style="font-family: 'Open Sans', verdana, arial, sans-serif; font-size: 14px; fill: rgb(214, 223, 239); opacity: 1; font-weight: normal; white-space: pre;">Price</text></g><g class="g-y2title" transform="translate(2.4248046875,0)"><text class="y2title" transform="rotate(-90,11.575000000000003,492.00000000000006)" x="11.575000000000003" y="492.00000000000006" text-anchor="middle" style="font-family: 'Open Sans', verdana, arial, sans-serif; font-size: 14px; fill: rgb(214, 223, 239); opacity: 1; font-weight: normal; white-space: pre;">Trade PnL</text></g><g class="g-y3title"><text class="y3title" transform="rotate(-90,49.575,780.8888888888888)" x="49.575" y="780.8888888888888" text-anchor="middle" style="font-family: 'Open Sans', verdana, arial, sans-serif; font-size: 14px; fill: rgb(214, 223, 239); opacity: 1; font-weight: normal; white-space: pre;">Cumulative returns</text></g><g class="annotation" data-index="0" style="opacity: 1;"><g class="annotation-text-g" transform="rotate(0,407.5,64)"><g class="cursor-pointer" transform="translate(379,52)"><rect class="bg" x="0.5" y="0.5" width="57" height="23" style="stroke-width: 1px; stroke: rgb(0, 0, 0); stroke-opacity: 0; fill: rgb(0, 0, 0); fill-opacity: 0;"/><text class="annotation-text" text-anchor="middle" x="29.03125" y="18" style="font-family: 'Open Sans', verdana, arial, sans-serif; font-size: 16px; fill: rgb(214, 223, 239); fill-opacity: 1; white-space: pre;">Orders</text></g></g></g><g class="annotation" data-index="1" style="opacity: 1;"><g class="annotation-text-g" transform="rotate(0,407.5,352.88888888888897)"><g class="cursor-pointer" transform="translate(366,341)"><rect class="bg" x="0.5" y="0.5" width="83" height="23" style="stroke-width: 1px; stroke: rgb(0, 0, 0); stroke-opacity: 0; fill: rgb(0, 0, 0); fill-opacity: 0;"/><text class="annotation-text" text-anchor="middle" x="42.046875" y="18" style="font-family: 'Open Sans', verdana, arial, sans-serif; font-size: 16px; fill: rgb(214, 223, 239); fill-opacity: 1; white-space: pre;">Trade PnL</text></g></g></g><g class="annotation" data-index="2" style="opacity: 1;"><g class="annotation-text-g" transform="rotate(0,407.5,641.7777777777777)"><g class="cursor-pointer" transform="translate(326,630)"><rect class="bg" x="0.5" y="0.5" width="162" height="23" style="stroke-width: 1px; stroke: rgb(0, 0, 0); stroke-opacity: 0; fill: rgb(0, 0, 0); fill-opacity: 0;"/><text class="annotation-text" text-anchor="middle" x="81.328125" y="18" style="font-family: 'Open Sans', verdana, arial, sans-serif; font-size: 16px; fill: rgb(214, 223, 239); fill-opacity: 1; white-space: pre;">Cumulative Returns</text></g></g></g></g></svg>