<svg class="main-svg" xmlns="http://www.w3.org/2000/svg" xmlns:xlink="http://www.w3.org/1999/xlink" width="700" height="350" style="" viewBox="0 0 700 350"><rect x="0" y="0" width="700" height="350" style="fill: rgb(33, 34, 44); fill-opacity: 1;"/><defs id="defs-53c649"><g class="clips"><clipPath id="clip53c649xyplot" class="plotclip"><rect width="615" height="274"/></clipPath><clipPath class="axesclip" id="clip53c649x"><rect x="44" y="0" width="615" height="350"/></clipPath><clipPath class="axesclip" id="clip53c649y"><rect x="0" y="46" width="700" height="274"/></clipPath><clipPath class="axesclip" id="clip53c649xy"><rect x="44" y="46" width="615" height="274"/></clipPath></g><g class="gradients"/><g class="patterns"/></defs><g class="bglayer"/><g class="layer-below"><g class="imagelayer"/><g class="shapelayer"/></g><g class="cartesianlayer"><g class="subplot xy"><g class="layer-subplot"><g class="shapelayer"/><g class="imagelayer"/></g><g class="gridlayer"><g class="x"><path class="xgrid crisp" transform="translate(147.61,0)" d="M0,46v274" style="stroke: rgb(47, 62, 78); stroke-opacity: 1; stroke-width: 1px;"/><path class="xgrid crisp" transform="translate(247.89,0)" d="M0,46v274" style="stroke: rgb(47, 62, 78); stroke-opacity: 1; stroke-width: 1px;"/><path class="xgrid crisp" transform="translate(351.5,0)" d="M0,46v274" style="stroke: rgb(47, 62, 78); stroke-opacity: 1; stroke-width: 1px;"/><path class="xgrid crisp" transform="translate(451.77,0)" d="M0,46v274" style="stroke: rgb(47, 62, 78); stroke-opacity: 1; stroke-width: 1px;"/><path class="xgrid crisp" transform="translate(555.39,0)" d="M0,46v274" style="stroke: rgb(47, 62, 78); stroke-opacity: 1; stroke-width: 1px;"/></g><g class="y"><path class="ygrid crisp" transform="translate(0,263.94)" d="M44,0h615" style="stroke: rgb(47, 62, 78); stroke-opacity: 1; stroke-width: 1px;"/><path class="ygrid crisp" transform="translate(0,219.91)" d="M44,0h615" style="stroke: rgb(47, 62, 78); stroke-opacity: 1; stroke-width: 1px;"/><path class="ygrid crisp" transform="translate(0,175.88)" d="M44,0h615" style="stroke: rgb(47, 62, 78); stroke-opacity: 1; stroke-width: 1px;"/><path class="ygrid crisp" transform="translate(0,131.85)" d="M44,0h615" style="stroke: rgb(47, 62, 78); stroke-opacity: 1; stroke-width: 1px;"/><path class="ygrid crisp" transform="translate(0,87.82)" d="M44,0h615" style="stroke: rgb(47, 62, 78); stroke-opacity: 1; stroke-width: 1px;"/></g></g><g class="zerolinelayer"><path class="yzl zl crisp" transform="translate(0,307.97)" d="M44,0h615" style="stroke: rgb(47, 62, 78); stroke-opacity: 1; stroke-width: 2px;"/></g><path class="xlines-below"/><path class="ylines-below"/><g class="overlines-below"/><g class="xaxislayer-below"/><g class="yaxislayer-below"/><g class="overaxes-below"/><g class="plot" transform="translate(44,46)" clip-path="url(#clip53c649xyplot)"><g class="scatterlayer mlayer"><g class="trace scatter trace18e5a352-c788-4b3b-abe5-c8dbc013a8d0" style="stroke-miterlimit: 2; opacity: 1;"><g class="fills"/><g class="errorbars"/><g class="lines"><path class="js-line" d="M0,257.03L3.34,258.23L6.68,258.57L10.03,250.2L13.37,247.99L16.71,257.74L20.05,257.98L26.74,253.61L30.08,258.29L33.42,255.17L36.77,256.39L40.11,258.91L43.45,257.99L46.79,257.16L50.14,251.74L53.48,257.76L56.82,256.47L63.51,256.83L66.85,253.85L70.19,259.12L73.53,258.98L76.88,258.93L80.22,252.74L83.56,258.42L86.9,252.35L90.24,257.16L93.59,254.97L96.93,240.58L100.27,260.3L103.61,255.97L106.96,195.87L110.3,224.07L113.64,242.03L116.98,250.16L120.33,243.16L123.67,245.7L127.01,246.94L130.35,251.18L133.7,241.86L137.04,232.3L140.38,248.98L143.72,256.2L147.07,250.48L150.41,246.77L153.75,245.79L157.09,257.12L160.43,255.85L163.78,252.87L167.12,256.45L173.8,249.43L177.15,240.45L180.49,242.26L183.83,230.19L190.52,255.18L193.86,255.75L197.2,253.62L200.54,249.72L203.89,255.77L207.23,250.69L210.57,228.88L213.91,240.71L217.26,250.89L220.6,248.82L223.94,240.23L227.28,244.77L230.63,244.29L233.97,237.92L237.31,177.67L240.65,201.37L243.99,160.77L247.34,211.57L250.68,234.02L254.02,209.9L257.36,183.5L260.71,244.73L264.05,174.44L267.39,215.98L270.73,242.7L274.08,228.36L277.42,225.81L280.76,234.12L284.1,248.59L287.45,194.79L290.79,240.97L294.13,246.79L297.47,237.92L300.82,192.66L304.16,225.5L307.5,249.28L310.84,240.12L314.18,214.47L317.53,205.04L320.87,241.43L324.21,229.75L327.55,232.22L330.9,240.9L334.24,227.38L337.58,222.76L340.92,239.64L344.27,232.53L347.61,242.2L350.95,215.54L354.29,240.77L357.64,216.06L360.98,224.32L364.32,231.72L367.66,241.78L371.01,230.09L374.35,207.41L377.69,169.48L381.03,201.2L384.38,221.86L387.72,192.95L391.06,82.25L394.4,13.7L397.74,127.17L401.09,182.8L404.43,140.5L407.77,163.59L411.11,158.56L414.46,159.25L421.14,216.11L424.48,205.39L427.83,227.38L431.17,178.09L434.51,213.9L437.85,137.05L441.2,174.12L444.54,198L447.88,179.76L451.22,154.83L454.57,168.56L457.91,125.6L461.25,191.52L464.59,142.2L467.93,219.05L471.28,209.36L474.62,222.14L477.96,218.21L481.3,221.18L484.65,236.03L487.99,228.48L491.33,244.48L494.67,195.41L498.02,233.5L501.36,243.59L504.7,238.68L508.04,219.03L511.39,215.74L514.73,236.7L518.07,222.93L521.41,227.72L524.76,179.69L528.1,175.4L531.44,208.84L538.13,239.01L541.47,209.86L544.81,237.72L548.15,243.72L551.49,210.04L554.84,185.56L561.52,203.07L564.86,229.74L568.21,229.56L571.55,208.88L574.89,233.08L578.23,188.35L581.58,226.61L584.92,229.89L588.26,223.6L591.6,235.92L594.95,227.97L598.29,236.07L601.63,212.41L604.97,232.45L611.66,249.51L615,243.14" style="vector-effect: non-scaling-stroke; fill: none; stroke: rgb(108, 166, 205); stroke-opacity: 1; stroke-width: 2px; opacity: 1;"/></g><g class="points"/><g class="text"/></g><g class="trace scatter trace61cf0f59-13e7-4335-91e0-94316956b3d8" style="stroke-miterlimit: 2; opacity: 1;"><g class="fills"/><g class="errorbars"/><g class="lines"><path class="js-line" d="M43.45,256.48L83.56,256.61L86.9,256.31L93.59,256.27L96.93,255.15L103.61,255.55L106.96,251.29L110.3,249.34L113.64,248.82L120.33,248.5L123.67,248.3L133.7,247.95L137.04,246.83L157.09,248.31L160.43,248.84L173.8,249.86L177.15,249.18L180.49,248.69L183.83,247.37L187.17,247.11L190.52,247.69L203.89,249.23L207.23,249.33L210.57,247.87L213.91,247.36L220.6,247.7L223.94,247.16L233.97,246.17L237.31,241.27L240.65,238.42L243.99,232.88L247.34,231.35L250.68,231.55L254.02,230L257.36,226.68L260.71,227.97L264.05,224.14L267.39,223.56L270.73,224.93L280.76,225.85L284.1,227.48L287.45,225.14L290.79,226.27L297.47,228.47L300.82,225.91L304.16,225.88L307.5,227.55L310.84,228.45L314.18,227.45L317.53,225.85L320.87,226.96L327.55,227.52L330.9,228.48L337.58,228L340.92,228.83L347.61,230.03L350.95,228.99L354.29,229.83L357.64,228.85L364.32,228.76L367.66,229.69L371.01,229.71L374.35,228.12L377.69,223.93L381.03,222.31L384.38,222.28L387.72,220.18L391.06,210.33L394.4,196.28L397.74,191.35L401.09,190.74L404.43,187.15L407.77,185.47L414.46,181.81L417.8,182.25L421.14,184.67L424.48,186.15L427.83,189.1L431.17,188.31L434.51,190.14L437.85,186.35L441.2,185.47L444.54,186.37L447.88,185.9L451.22,183.68L454.57,182.6L457.91,178.53L461.25,179.45L464.59,176.79L471.28,181.92L474.62,184.8L481.3,189.61L484.65,192.93L487.99,195.47L491.33,198.97L494.67,198.71L498.02,201.2L504.7,206.69L508.04,207.57L511.39,208.15L514.73,210.19L521.41,212.29L524.76,209.96L528.1,207.49L531.44,207.59L534.78,208.81L538.13,210.97L541.47,210.89L544.81,212.8L548.15,215.01L551.49,214.66L558.18,211.31L561.52,210.72L568.21,213.33L571.55,213.01L574.89,214.45L578.23,212.58L598.29,218.96L601.63,218.49L608.32,221.09L611.66,223.12L615,224.55" style="vector-effect: non-scaling-stroke; fill: none; stroke: rgb(108, 118, 205); stroke-opacity: 1; stroke-width: 2px; opacity: 1;"/></g><g class="points"/><g class="text"/></g></g></g><g class="overplot"/><path class="xlines-above crisp" d="M0,0" style="fill: none;"/><path class="ylines-above crisp" d="M0,0" style="fill: none;"/><g class="overlines-above"/><g class="xaxislayer-above"><g class="xtick"><text text-anchor="middle" x="0" y="333" transform="translate(44,0)" style="font-family: 'Open Sans', verdana, arial, sans-serif; font-size: 12px; fill: rgb(214, 223, 239); fill-opacity: 1; white-space: pre; opacity: 1;">Mar 2019</text></g><g class="xtick"><text text-anchor="middle" x="0" y="333" style="font-family: 'Open Sans', verdana, arial, sans-serif; font-size: 12px; fill: rgb(214, 223, 239); fill-opacity: 1; white-space: pre; opacity: 1;" transform="translate(147.61,0)">Apr 2019</text></g><g class="xtick"><text text-anchor="middle" x="0" y="333" style="font-family: 'Open Sans', verdana, arial, sans-serif; font-size: 12px; fill: rgb(214, 223, 239); fill-opacity: 1; white-space: pre; opacity: 1;" transform="translate(247.89,0)">May 2019</text></g><g class="xtick"><text text-anchor="middle" x="0" y="333" style="font-family: 'Open Sans', verdana, arial, sans-serif; font-size: 12px; fill: rgb(214, 223, 239); fill-opacity: 1; white-space: pre; opacity: 1;" transform="translate(351.5,0)">Jun 2019</text></g><g class="xtick"><text text-anchor="middle" x="0" y="333" style="font-family: 'Open Sans', verdana, arial, sans-serif; font-size: 12px; fill: rgb(214, 223, 239); fill-opacity: 1; white-space: pre; opacity: 1;" transform="translate(451.77,0)">Jul 2019</text></g><g class="xtick"><text text-anchor="middle" x="0" y="333" style="font-family: 'Open Sans', verdana, arial, sans-serif; font-size: 12px; fill: rgb(214, 223, 239); fill-opacity: 1; white-space: pre; opacity: 1;" transform="translate(555.39,0)">Aug 2019</text></g><g class="xtick"><text text-anchor="middle" x="0" y="333" style="font-family: 'Open Sans', verdana, arial, sans-serif; font-size: 12px; fill: rgb(214, 223, 239); fill-opacity: 1; white-space: pre; opacity: 1;" transform="translate(659,0)">Sep 2019</text></g></g><g class="yaxislayer-above"><g class="ytick"><text text-anchor="end" x="43" y="4.199999999999999" transform="translate(0,307.97)" style="font-family: 'Open Sans', verdana, arial, sans-serif; font-size: 12px; fill: rgb(214, 223, 239); fill-opacity: 1; white-space: pre; opacity: 1;">0</text></g><g class="ytick"><text text-anchor="end" x="43" y="4.199999999999999" style="font-family: 'Open Sans', verdana, arial, sans-serif; font-size: 12px; fill: rgb(214, 223, 239); fill-opacity: 1; white-space: pre; opacity: 1;" transform="translate(0,263.94)">500</text></g><g class="ytick"><text text-anchor="end" x="43" y="4.199999999999999" style="font-family: 'Open Sans', verdana, arial, sans-serif; font-size: 12px; fill: rgb(214, 223, 239); fill-opacity: 1; white-space: pre; opacity: 1;" transform="translate(0,219.91)">1000</text></g><g class="ytick"><text text-anchor="end" x="43" y="4.199999999999999" style="font-family: 'Open Sans', verdana, arial, sans-serif; font-size: 12px; fill: rgb(214, 223, 239); fill-opacity: 1; white-space: pre; opacity: 1;" transform="translate(0,175.88)">1500</text></g><g class="ytick"><text text-anchor="end" x="43" y="4.199999999999999" style="font-family: 'Open Sans', verdana, arial, sans-serif; font-size: 12px; fill: rgb(214, 223, 239); fill-opacity: 1; white-space: pre; opacity: 1;" transform="translate(0,131.85)">2000</text></g><g class="ytick"><text text-anchor="end" x="43" y="4.199999999999999" style="font-family: 'Open Sans', verdana, arial, sans-serif; font-size: 12px; fill: rgb(214, 223, 239); fill-opacity: 1; white-space: pre; opacity: 1;" transform="translate(0,87.82)">2500</text></g></g><g class="overaxes-above"/></g></g><g class="polarlayer"/><g class="smithlayer"/><g class="ternarylayer"/><g class="geolayer"/><g class="funnelarealayer"/><g class="pielayer"/><g class="iciclelayer"/><g class="treemaplayer"/><g class="sunburstlayer"/><g class="glimages"/><defs id="topdefs-53c649"><g class="clips"/><clipPath id="legend53c649"><rect width="130" height="29" x="0" y="0"/></clipPath></defs><g class="layer-above"><g class="imagelayer"/><g class="shapelayer"/></g><g class="infolayer"><g class="legend" pointer-events="all" transform="translate(529,11.519999999999996)"><rect class="bg" shape-rendering="crispEdges" style="stroke: rgb(68, 68, 68); stroke-opacity: 1; fill: rgb(33, 34, 44); fill-opacity: 1; stroke-width: 0px;" width="130" height="29" x="0" y="0"/><g class="scrollbox" transform="" clip-path="url(#legend53c649)"><g class="groups"><g class="traces" transform="translate(0,14.5)" style="opacity: 1;"><text class="legendtext" text-anchor="start" x="40" y="4.680000000000001" style="font-family: 'Open Sans', verdana, arial, sans-serif; font-size: 12px; fill: rgb(214, 223, 239); fill-opacity: 1; white-space: pre;">TR</text><g class="layers" style="opacity: 1;"><g class="legendfill"/><g class="legendlines"><path class="js-line" d="M5,0h30" style="fill: none; stroke: rgb(108, 166, 205); stroke-opacity: 1; stroke-width: 2px;"/></g><g class="legendsymbols"><g class="legendpoints"/></g></g><rect class="legendtoggle" x="0" y="-9.5" width="58.296875" height="19" style="fill: rgb(0, 0, 0); fill-opacity: 0;"/></g><g class="traces" transform="translate(60.796875,14.5)" style="opacity: 1;"><text class="legendtext" text-anchor="start" x="40" y="4.680000000000001" style="font-family: 'Open Sans', verdana, arial, sans-serif; font-size: 12px; fill: rgb(214, 223, 239); fill-opacity: 1; white-space: pre;">ATR</text><g class="layers" style="opacity: 1;"><g class="legendfill"/><g class="legendlines"><path class="js-line" d="M5,0h30" style="fill: none; stroke: rgb(108, 118, 205); stroke-opacity: 1; stroke-width: 2px;"/></g><g class="legendsymbols"><g class="legendpoints"/></g></g><rect class="legendtoggle" x="0" y="-9.5" width="66.5" height="19" style="fill: rgb(0, 0, 0); fill-opacity: 0;"/></g></g></g><rect class="scrollbar" rx="20" ry="3" width="0" height="0" style="fill: rgb(128, 139, 164); fill-opacity: 1;" x="0" y="0"/></g><g class="g-gtitle"/><g class="g-xtitle"/><g class="g-ytitle"/></g></svg>