<svg class="main-svg" xmlns="http://www.w3.org/2000/svg" xmlns:xlink="http://www.w3.org/1999/xlink" width="700" height="350" viewBox="0 0 700 350"><rect x="0" y="0" width="700" height="350" style="fill: rgb(33, 34, 44); fill-opacity: 1;"/><defs id="defs-056579"><g class="clips"><clipPath id="clip056579xyplot" class="plotclip"><rect width="626" height="274"/></clipPath><clipPath class="axesclip" id="clip056579x"><rect x="44" y="0" width="626" height="350"/></clipPath><clipPath class="axesclip" id="clip056579y"><rect x="0" y="46" width="700" height="274"/></clipPath><clipPath class="axesclip" id="clip056579xy"><rect x="44" y="46" width="626" height="274"/></clipPath></g><g class="gradients"/><g class="patterns"/></defs><g class="bglayer"/><g class="layer-below"><g class="imagelayer"/><g class="shapelayer"/></g><g class="cartesianlayer"><g class="subplot xy"><g class="layer-subplot"><g class="shapelayer"/><g class="imagelayer"/></g><g class="gridlayer"><g class="x"><path class="xgrid crisp" transform="translate(150.04000000000002,0)" d="M0,46v274" style="stroke: rgb(47, 62, 78); stroke-opacity: 1; stroke-width: 1px;"/><path class="xgrid crisp" transform="translate(252.67,0)" d="M0,46v274" style="stroke: rgb(47, 62, 78); stroke-opacity: 1; stroke-width: 1px;"/><path class="xgrid crisp" transform="translate(358.71,0)" d="M0,46v274" style="stroke: rgb(47, 62, 78); stroke-opacity: 1; stroke-width: 1px;"/><path class="xgrid crisp" transform="translate(461.33,0)" d="M0,46v274" style="stroke: rgb(47, 62, 78); stroke-opacity: 1; stroke-width: 1px;"/><path class="xgrid crisp" transform="translate(567.38,0)" d="M0,46v274" style="stroke: rgb(47, 62, 78); stroke-opacity: 1; stroke-width: 1px;"/></g><g class="y"><path class="ygrid crisp" transform="translate(0,263.94)" d="M44,0h626" style="stroke: rgb(47, 62, 78); stroke-opacity: 1; stroke-width: 1px;"/><path class="ygrid crisp" transform="translate(0,219.91)" d="M44,0h626" style="stroke: rgb(47, 62, 78); stroke-opacity: 1; stroke-width: 1px;"/><path class="ygrid crisp" transform="translate(0,175.88)" d="M44,0h626" style="stroke: rgb(47, 62, 78); stroke-opacity: 1; stroke-width: 1px;"/><path class="ygrid crisp" transform="translate(0,131.85)" d="M44,0h626" style="stroke: rgb(47, 62, 78); stroke-opacity: 1; stroke-width: 1px;"/><path class="ygrid crisp" transform="translate(0,87.82)" d="M44,0h626" style="stroke: rgb(47, 62, 78); stroke-opacity: 1; stroke-width: 1px;"/></g></g><g class="zerolinelayer"><path class="yzl zl crisp" transform="translate(0,307.97)" d="M44,0h626" style="stroke: rgb(47, 62, 78); stroke-opacity: 1; stroke-width: 2px;"/></g><path class="xlines-below"/><path class="ylines-below"/><g class="overlines-below"/><g class="xaxislayer-below"/><g class="yaxislayer-below"/><g class="overaxes-below"/><g class="plot" transform="translate(44,46)" clip-path="url(#clip056579xyplot)"><g class="scatterlayer mlayer"><g class="trace scatter traceefefba72-f1b4-4262-a437-62b0da23e0a3" style="stroke-miterlimit: 2; opacity: 1;"><g class="fills"/><g class="errorbars"/><g class="lines"><path class="js-line" d="M0,257.03L3.42,258.23L6.84,258.57L10.26,250.2L13.68,247.99L17.1,257.74L20.52,257.98L27.37,253.61L30.79,258.29L34.21,255.17L37.63,256.39L41.05,258.91L44.47,257.99L47.89,257.16L51.31,251.74L54.73,257.76L58.15,256.47L64.99,256.83L68.42,253.85L71.84,259.12L75.26,258.98L78.68,258.93L82.1,252.74L85.52,258.42L88.94,252.35L92.36,257.16L95.78,254.97L99.2,240.58L102.62,260.3L106.04,255.97L109.46,195.87L112.89,224.07L116.31,242.03L119.73,250.16L123.15,243.16L126.57,245.7L129.99,246.94L133.41,251.18L136.83,241.86L140.25,232.3L143.67,248.98L147.09,256.2L150.51,250.48L153.93,246.77L157.36,245.79L160.78,257.12L164.2,255.85L167.62,252.87L171.04,256.45L177.88,249.43L181.3,240.45L184.72,242.26L188.14,230.19L194.98,255.18L198.4,255.75L201.83,253.62L205.25,249.72L208.67,255.77L212.09,250.69L215.51,228.88L218.93,240.71L222.35,250.89L225.77,248.82L229.19,240.23L232.61,244.77L236.03,244.29L239.45,237.92L242.87,177.67L246.3,201.37L249.72,160.77L253.14,211.57L256.56,234.02L259.98,209.9L263.4,183.5L266.82,244.73L270.24,174.44L273.66,215.98L277.08,242.7L280.5,228.36L283.92,225.81L287.34,234.12L290.77,248.59L294.19,194.79L297.61,240.97L301.03,246.79L304.45,237.92L307.87,192.66L311.29,225.5L314.71,249.28L318.13,240.12L321.55,214.47L324.97,205.04L328.39,241.43L331.81,229.75L335.23,232.22L338.66,240.9L342.08,227.38L345.5,222.76L348.92,239.64L352.34,232.53L355.76,242.2L359.18,215.54L362.6,240.77L366.02,216.06L369.44,224.32L372.86,231.72L376.28,241.78L379.7,230.09L383.13,207.41L386.55,169.48L389.97,201.2L393.39,221.86L396.81,192.95L400.23,82.25L403.65,13.7L407.07,127.17L410.49,182.8L413.91,140.5L417.33,163.59L420.75,158.56L424.17,159.25L431.02,216.11L434.44,205.39L437.86,227.38L441.28,178.09L444.7,213.9L448.12,137.05L451.54,174.12L454.96,198L458.38,179.76L461.8,154.83L465.22,168.56L468.64,125.6L472.07,191.52L475.49,142.2L478.91,219.05L482.33,209.36L485.75,222.14L489.17,218.21L492.59,221.18L496.01,236.03L499.43,228.48L502.85,244.48L506.27,195.41L509.69,233.5L513.11,243.59L516.54,238.68L519.96,219.03L523.38,215.74L526.8,236.7L530.22,222.93L533.64,227.72L537.06,179.69L540.48,175.4L543.9,208.84L550.74,239.01L554.16,209.86L557.58,237.72L561.01,243.72L564.43,210.04L567.85,185.56L574.69,203.07L578.11,229.74L581.53,229.56L584.95,208.88L588.37,233.08L591.79,188.35L595.21,226.61L598.63,229.89L602.05,223.6L605.48,235.92L608.9,227.97L612.32,236.07L615.74,212.41L619.16,232.45L626,249.51" style="vector-effect: non-scaling-stroke; fill: none; stroke: rgb(31, 119, 180); stroke-opacity: 1; stroke-width: 2px; opacity: 1;"/></g><g class="points"/><g class="text"/></g><g class="trace scatter trace9d28cd7e-1eae-4926-a419-e4953d053828" style="stroke-miterlimit: 2; opacity: 1;"><g class="fills"/><g class="errorbars"/><g class="lines"><path class="js-line" d="M30.79,255.83L37.63,255.84L41.05,256.4L47.89,256.77L51.31,255.86L61.57,256.36L64.99,256.44L68.42,255.97L71.84,256.54L78.68,257.34L82.1,256.5L85.52,256.85L88.94,256.03L95.78,256.01L99.2,253.2L102.62,254.49L106.04,254.76L109.46,244.05L112.89,240.42L116.31,240.71L119.73,242.43L126.57,243.13L129.99,243.82L133.41,245.16L136.83,244.56L140.25,242.33L143.67,243.54L147.09,245.84L150.51,246.69L157.36,246.53L160.78,248.46L167.62,250.36L171.04,251.47L177.88,251.31L181.3,249.34L184.72,248.05L188.14,244.8L191.56,244.62L194.98,246.54L201.83,249.2L205.25,249.29L208.67,250.47L212.09,250.51L215.51,246.58L218.93,245.51L225.77,246.91L229.19,245.7L236.03,245.3L239.45,243.96L242.87,231.91L246.3,226.36L249.72,214.43L253.14,213.91L256.56,217.57L259.98,216.17L263.4,210.23L266.82,216.51L270.24,208.86L273.66,210.15L277.08,216.07L280.5,218.3L283.92,219.67L287.34,222.3L290.77,227.08L294.19,221.21L301.03,228.8L304.45,230.46L307.87,223.58L311.29,223.93L314.71,228.54L318.13,230.65L321.55,227.71L324.97,223.58L328.39,226.83L331.81,227.36L335.23,228.24L338.66,230.54L345.5,228.66L348.92,230.65L352.34,231L355.76,233.03L359.18,229.85L362.6,231.84L366.02,228.97L369.44,228.12L372.86,228.78L376.28,231.14L379.7,230.95L383.13,226.67L386.55,216.27L389.97,213.53L393.39,215.05L396.81,211.03L400.23,187.61L403.65,155.99L407.07,150.75L410.49,156.58L413.91,153.66L417.33,155.46L424.17,156.61L427.6,162.33L431.02,172.11L434.44,178.16L437.86,187.11L441.28,185.47L444.7,190.64L448.12,180.89L451.54,179.66L454.96,183L458.38,182.41L461.8,177.39L465.22,175.79L468.64,166.66L472.07,171.18L475.49,165.91L478.91,175.57L482.33,181.72L485.75,189.07L489.17,194.37L492.59,199.24L496.01,205.93L499.43,210.03L502.85,216.29L506.27,212.5L509.69,216.32L513.11,221.27L516.54,224.44L523.38,222.05L526.8,224.72L530.22,224.39L533.64,225L540.48,209.24L543.9,209.17L547.32,211.99L550.74,216.9L554.16,215.62L557.58,219.64L561.01,224.02L564.43,221.48L567.85,214.94L571.27,211.29L574.69,209.8L578.11,213.42L581.53,216.36L584.95,215L588.37,218.28L591.79,212.84L598.63,217.99L602.05,219.01L605.48,222.08L608.9,223.15L612.32,225.5L615.74,223.12L619.16,224.82L622.58,227.93L626,231.85" style="vector-effect: non-scaling-stroke; fill: none; stroke: rgb(255, 127, 14); stroke-opacity: 1; stroke-width: 2px; opacity: 1;"/></g><g class="points"/><g class="text"/></g></g></g><g class="overplot"/><path class="xlines-above crisp" d="M0,0" style="fill: none;"/><path class="ylines-above crisp" d="M0,0" style="fill: none;"/><g class="overlines-above"/><g class="xaxislayer-above"><g class="xtick"><text text-anchor="middle" x="0" y="333" transform="translate(44,0)" style="font-family: 'Open Sans', verdana, arial, sans-serif; font-size: 12px; fill: rgb(214, 223, 239); fill-opacity: 1; white-space: pre; opacity: 1;">Mar 2019</text></g><g class="xtick"><text text-anchor="middle" x="0" y="333" style="font-family: 'Open Sans', verdana, arial, sans-serif; font-size: 12px; fill: rgb(214, 223, 239); fill-opacity: 1; white-space: pre; opacity: 1;" transform="translate(150.04000000000002,0)">Apr 2019</text></g><g class="xtick"><text text-anchor="middle" x="0" y="333" style="font-family: 'Open Sans', verdana, arial, sans-serif; font-size: 12px; fill: rgb(214, 223, 239); fill-opacity: 1; white-space: pre; opacity: 1;" transform="translate(252.67,0)">May 2019</text></g><g class="xtick"><text text-anchor="middle" x="0" y="333" style="font-family: 'Open Sans', verdana, arial, sans-serif; font-size: 12px; fill: rgb(214, 223, 239); fill-opacity: 1; white-space: pre; opacity: 1;" transform="translate(358.71,0)">Jun 2019</text></g><g class="xtick"><text text-anchor="middle" x="0" y="333" style="font-family: 'Open Sans', verdana, arial, sans-serif; font-size: 12px; fill: rgb(214, 223, 239); fill-opacity: 1; white-space: pre; opacity: 1;" transform="translate(461.33,0)">Jul 2019</text></g><g class="xtick"><text text-anchor="middle" x="0" y="333" style="font-family: 'Open Sans', verdana, arial, sans-serif; font-size: 12px; fill: rgb(214, 223, 239); fill-opacity: 1; white-space: pre; opacity: 1;" transform="translate(567.38,0)">Aug 2019</text></g></g><g class="yaxislayer-above"><g class="ytick"><text text-anchor="end" x="43" y="4.199999999999999" transform="translate(0,307.97)" style="font-family: 'Open Sans', verdana, arial, sans-serif; font-size: 12px; fill: rgb(214, 223, 239); fill-opacity: 1; white-space: pre; opacity: 1;">0</text></g><g class="ytick"><text text-anchor="end" x="43" y="4.199999999999999" style="font-family: 'Open Sans', verdana, arial, sans-serif; font-size: 12px; fill: rgb(214, 223, 239); fill-opacity: 1; white-space: pre; opacity: 1;" transform="translate(0,263.94)">500</text></g><g class="ytick"><text text-anchor="end" x="43" y="4.199999999999999" style="font-family: 'Open Sans', verdana, arial, sans-serif; font-size: 12px; fill: rgb(214, 223, 239); fill-opacity: 1; white-space: pre; opacity: 1;" transform="translate(0,219.91)">1000</text></g><g class="ytick"><text text-anchor="end" x="43" y="4.199999999999999" style="font-family: 'Open Sans', verdana, arial, sans-serif; font-size: 12px; fill: rgb(214, 223, 239); fill-opacity: 1; white-space: pre; opacity: 1;" transform="translate(0,175.88)">1500</text></g><g class="ytick"><text text-anchor="end" x="43" y="4.199999999999999" style="font-family: 'Open Sans', verdana, arial, sans-serif; font-size: 12px; fill: rgb(214, 223, 239); fill-opacity: 1; white-space: pre; opacity: 1;" transform="translate(0,131.85)">2000</text></g><g class="ytick"><text text-anchor="end" x="43" y="4.199999999999999" style="font-family: 'Open Sans', verdana, arial, sans-serif; font-size: 12px; fill: rgb(214, 223, 239); fill-opacity: 1; white-space: pre; opacity: 1;" transform="translate(0,87.82)">2500</text></g></g><g class="overaxes-above"/></g></g><g class="polarlayer"/><g class="ternarylayer"/><g class="geolayer"/><g class="funnelarealayer"/><g class="pielayer"/><g class="iciclelayer"/><g class="treemaplayer"/><g class="sunburstlayer"/><g class="glimages"/><defs id="topdefs-056579"><g class="clips"/><clipPath id="legend056579"><rect width="130" height="29" x="0" y="0"/></clipPath></defs><g class="layer-above"><g class="imagelayer"/><g class="shapelayer"/></g><g class="infolayer"><g class="legend" pointer-events="all" transform="translate(540,11.519999999999996)"><rect class="bg" shape-rendering="crispEdges" style="stroke: rgb(68, 68, 68); stroke-opacity: 1; fill: rgb(33, 34, 44); fill-opacity: 1; stroke-width: 0px;" width="130" height="29" x="0" y="0"/><g class="scrollbox" transform="" clip-path="url(#legend056579)"><g class="groups"><g class="traces" transform="translate(0,14.5)" style="opacity: 1;"><text class="legendtext" text-anchor="start" x="40" y="4.680000000000001" style="font-family: 'Open Sans', verdana, arial, sans-serif; font-size: 12px; fill: rgb(214, 223, 239); fill-opacity: 1; white-space: pre;">TR</text><g class="layers" style="opacity: 1;"><g class="legendfill"/><g class="legendlines"><path class="js-line" d="M5,0h30" style="fill: none; stroke: rgb(31, 119, 180); stroke-opacity: 1; stroke-width: 2px;"/></g><g class="legendsymbols"><g class="legendpoints"/></g></g><rect class="legendtoggle" x="0" y="-9.5" width="58.28125" height="19" style="fill: rgb(0, 0, 0); fill-opacity: 0;"/></g><g class="traces" transform="translate(60.78125,14.5)" style="opacity: 1;"><text class="legendtext" text-anchor="start" x="40" y="4.680000000000001" style="font-family: 'Open Sans', verdana, arial, sans-serif; font-size: 12px; fill: rgb(214, 223, 239); fill-opacity: 1; white-space: pre;">ATR</text><g class="layers" style="opacity: 1;"><g class="legendfill"/><g class="legendlines"><path class="js-line" d="M5,0h30" style="fill: none; stroke: rgb(255, 127, 14); stroke-opacity: 1; stroke-width: 2px;"/></g><g class="legendsymbols"><g class="legendpoints"/></g></g><rect class="legendtoggle" x="0" y="-9.5" width="66.484375" height="19" style="fill: rgb(0, 0, 0); fill-opacity: 0;"/></g></g></g><rect class="scrollbar" rx="20" ry="3" width="0" height="0" style="fill: rgb(128, 139, 164); fill-opacity: 1;" x="0" y="0"/></g><g class="g-gtitle"/><g class="g-xtitle"/><g class="g-ytitle"/></g></svg>