<svg class="main-svg" xmlns="http://www.w3.org/2000/svg" xmlns:xlink="http://www.w3.org/1999/xlink" width="700" height="350" viewBox="0 0 700 350"><rect x="0" y="0" width="700" height="350" style="fill: rgb(33, 34, 44); fill-opacity: 1;"/><defs id="defs-761f6f"><g class="clips"><clipPath id="clip761f6fxyplot" class="plotclip"><rect width="629" height="274"/></clipPath><clipPath class="axesclip" id="clip761f6fx"><rect x="41" y="0" width="629" height="350"/></clipPath><clipPath class="axesclip" id="clip761f6fy"><rect x="0" y="46" width="700" height="274"/></clipPath><clipPath class="axesclip" id="clip761f6fxy"><rect x="41" y="46" width="629" height="274"/></clipPath></g><g class="gradients"/><g class="patterns"/></defs><g class="bglayer"/><g class="layer-below"><g class="imagelayer"/><g class="shapelayer"/></g><g class="cartesianlayer"><g class="subplot xy"><g class="layer-subplot"><g class="shapelayer"/><g class="imagelayer"/></g><g class="gridlayer"><g class="x"><path class="xgrid crisp" transform="translate(147.55,0)" d="M0,46v274" style="stroke: rgb(47, 62, 78); stroke-opacity: 1; stroke-width: 1px;"/><path class="xgrid crisp" transform="translate(250.67,0)" d="M0,46v274" style="stroke: rgb(47, 62, 78); stroke-opacity: 1; stroke-width: 1px;"/><path class="xgrid crisp" transform="translate(357.22,0)" d="M0,46v274" style="stroke: rgb(47, 62, 78); stroke-opacity: 1; stroke-width: 1px;"/><path class="xgrid crisp" transform="translate(460.33,0)" d="M0,46v274" style="stroke: rgb(47, 62, 78); stroke-opacity: 1; stroke-width: 1px;"/><path class="xgrid crisp" transform="translate(566.89,0)" d="M0,46v274" style="stroke: rgb(47, 62, 78); stroke-opacity: 1; stroke-width: 1px;"/></g><g class="y"><path class="ygrid crisp" transform="translate(0,291.99)" d="M41,0h629" style="stroke: rgb(47, 62, 78); stroke-opacity: 1; stroke-width: 1px;"/><path class="ygrid crisp" transform="translate(0,240.64)" d="M41,0h629" style="stroke: rgb(47, 62, 78); stroke-opacity: 1; stroke-width: 1px;"/><path class="ygrid crisp" transform="translate(0,189.28)" d="M41,0h629" style="stroke: rgb(47, 62, 78); stroke-opacity: 1; stroke-width: 1px;"/><path class="ygrid crisp" transform="translate(0,137.93)" d="M41,0h629" style="stroke: rgb(47, 62, 78); stroke-opacity: 1; stroke-width: 1px;"/><path class="ygrid crisp" transform="translate(0,86.58)" d="M41,0h629" style="stroke: rgb(47, 62, 78); stroke-opacity: 1; stroke-width: 1px;"/></g></g><g class="zerolinelayer"/><path class="xlines-below"/><path class="ylines-below"/><g class="overlines-below"/><g class="xaxislayer-below"/><g class="yaxislayer-below"/><g class="overaxes-below"/><g class="plot" transform="translate(41,46)" clip-path="url(#clip761f6fxyplot)"><g class="scatterlayer mlayer"><g class="trace scatter tracef9b0868d-b21d-4ca7-a23a-b472a1eb5461" style="stroke-miterlimit: 2;"><g class="fills"><g><path class="js-fill" d="M65.31,243.49L75.62,242.93L79.05,243.32L92.8,242.93L96.24,242.6L106.55,241.8L109.99,234.01L113.43,228.7L116.86,225.09L130.61,210.8L134.05,208.13L137.49,205.3L140.92,204.01L151.23,201.4L154.67,201.44L161.55,201.12L164.98,201.51L168.42,202.6L171.86,204.79L175.3,209.25L178.73,208.87L182.17,207.27L185.61,206.87L202.79,207.05L206.23,206.97L213.1,206.24L216.54,203.96L219.98,201.59L223.42,200.22L230.29,197.64L233.73,195.49L240.6,188.46L244.04,178.46L247.48,172.77L250.91,161.81L257.79,142.54L261.22,136.66L268.1,132.42L271.54,127.37L278.41,121.91L281.85,121.2L288.72,118.64L292.16,118.11L299.03,114.58L302.47,114.41L305.91,115.22L309.34,117.98L312.78,117.11L316.22,117.93L319.66,116.05L323.09,115.87L329.97,115.86L333.4,116.89L336.84,118.62L340.28,118.7L347.15,118.36L350.59,118.7L357.46,118.62L360.9,117.24L367.78,115.48L371.21,112.09L374.65,110.27L378.09,106.88L381.52,102.77L384.96,95.03L398.71,53.74L402.15,34.99L405.58,29.99L409.02,20.04L412.46,14.74L415.9,14.1L422.77,15.8L426.21,13.7L429.64,13.96L433.08,15.15L439.96,16.56L443.39,15.92L446.83,14.77L450.27,16.04L453.7,17.66L457.14,17.44L460.58,17.72L464.02,15.96L467.45,16.47L470.89,18.78L474.33,16.54L477.77,20.5L481.2,22.81L484.64,22.83L491.51,22.66L494.95,24.66L505.26,25.25L508.7,26.27L512.14,32.07L515.57,41.34L519.01,49.45L522.45,53.44L525.89,61.03L529.32,65.95L532.76,63.9L536.2,63.48L539.63,55.43L543.07,50.9L549.95,38.91L553.38,34.71L563.69,28.23L567.13,27.99L574.01,28.46L577.44,29.74L584.32,32.66L587.75,34.31L591.19,34.98L594.63,34.53L601.5,33.99L604.94,33.92L611.81,38.77L615.25,43.49L622.13,53.71L625.56,56.6L629,61.7L629,108.56L625.56,108.8L622.13,107.18L615.25,105.68L611.81,105.89L594.63,98.87L591.19,97.75L587.75,100.16L584.32,105.17L577.44,111.95L574.01,115.54L570.57,117L567.13,117.49L563.69,120.04L560.26,122L556.82,122.34L553.38,122.33L546.51,118.82L543.07,115.91L539.63,115.97L536.2,113.9L532.76,113.67L529.32,113.07L525.89,115.75L522.45,119.7L512.14,123.41L508.7,122.2L491.51,105.68L488.08,104.32L484.64,104.37L481.2,104.25L477.77,102.9L474.33,102.38L467.45,89.54L464.02,87.76L460.58,84.06L457.14,85.72L453.7,88.36L450.27,93.09L443.39,108.44L439.96,116.03L436.52,121.83L433.08,128.59L419.33,157.08L415.9,164.83L409.02,177.09L405.58,178.57L402.15,181.63L398.71,176.22L395.27,174L391.84,173.71L388.4,170.61L384.96,165.42L381.52,161.74L378.09,160.07L371.21,158.4L367.78,156.55L360.9,155.7L357.46,155.97L347.15,158.17L343.72,158.27L340.28,157.18L336.84,156.63L333.4,160.34L329.97,162.6L326.53,162.42L323.09,161.16L319.66,161.53L316.22,162.03L312.78,166.94L309.34,169.59L302.47,184.52L299.03,191.38L288.72,208.27L285.28,212.6L278.41,221.54L274.97,225.81L264.66,235.31L261.22,238.12L257.79,238.93L254.35,237.3L250.91,233.85L247.48,228.64L244.04,226.99L240.6,221.85L237.16,220.56L233.73,219.73L223.42,219.55L219.98,220.04L216.54,219.39L213.1,218.82L209.67,219.31L206.23,220.03L195.92,220.11L192.48,220.23L182.17,222.48L178.73,222.42L175.3,223.37L171.86,230.79L168.42,236.15L164.98,240.32L151.23,252.27L147.8,254.74L137.49,259.6L134.05,260.09L127.17,259.8L123.74,259.17L116.86,257.32L113.43,256.18L109.99,253.57L106.55,248.28L79.05,249.91L75.62,250.97L65.31,251.74Z" style="fill: rgb(128, 128, 128); fill-opacity: 0.2; stroke-width: 0;"/></g></g><g class="errorbars"/><g class="lines"><path class="js-line" d="M65.31,251.74L75.62,250.97L79.05,249.91L106.55,248.28L109.99,253.57L113.43,256.18L116.86,257.32L123.74,259.17L127.17,259.8L134.05,260.09L137.49,259.6L147.8,254.74L151.23,252.27L164.98,240.32L168.42,236.15L171.86,230.79L175.3,223.37L178.73,222.42L182.17,222.48L192.48,220.23L195.92,220.11L206.23,220.03L209.67,219.31L213.1,218.82L216.54,219.39L219.98,220.04L223.42,219.55L233.73,219.73L237.16,220.56L240.6,221.85L244.04,226.99L247.48,228.64L250.91,233.85L254.35,237.3L257.79,238.93L261.22,238.12L264.66,235.31L274.97,225.81L278.41,221.54L285.28,212.6L288.72,208.27L299.03,191.38L302.47,184.52L309.34,169.59L312.78,166.94L316.22,162.03L319.66,161.53L323.09,161.16L326.53,162.42L329.97,162.6L333.4,160.34L336.84,156.63L340.28,157.18L343.72,158.27L347.15,158.17L357.46,155.97L360.9,155.7L367.78,156.55L371.21,158.4L378.09,160.07L381.52,161.74L384.96,165.42L388.4,170.61L391.84,173.71L395.27,174L398.71,176.22L402.15,181.63L405.58,178.57L409.02,177.09L415.9,164.83L419.33,157.08L433.08,128.59L436.52,121.83L439.96,116.03L443.39,108.44L450.27,93.09L453.7,88.36L457.14,85.72L460.58,84.06L464.02,87.76L467.45,89.54L474.33,102.38L477.77,102.9L481.2,104.25L484.64,104.37L488.08,104.32L491.51,105.68L508.7,122.2L512.14,123.41L522.45,119.7L525.89,115.75L529.32,113.07L532.76,113.67L536.2,113.9L539.63,115.97L543.07,115.91L546.51,118.82L553.38,122.33L556.82,122.34L560.26,122L563.69,120.04L567.13,117.49L570.57,117L574.01,115.54L577.44,111.95L584.32,105.17L587.75,100.16L591.19,97.75L594.63,98.87L611.81,105.89L615.25,105.68L622.13,107.18L625.56,108.8L629,108.56" style="vector-effect: non-scaling-stroke; fill: none; stroke: rgb(127, 127, 127); stroke-opacity: 0.75; stroke-width: 2px; opacity: 1;"/></g><g class="points"/><g class="text"/></g><g class="trace scatter trace7d1af530-873a-42aa-9ce7-d5cfba3f063d" style="stroke-miterlimit: 2;"><g class="fills"/><g class="errorbars"/><g class="lines"><path class="js-line" d="M65.31,243.49L75.62,242.93L79.05,243.32L92.8,242.93L96.24,242.6L106.55,241.8L109.99,234.01L113.43,228.7L116.86,225.09L130.61,210.8L134.05,208.13L137.49,205.3L140.92,204.01L151.23,201.4L154.67,201.44L161.55,201.12L164.98,201.51L168.42,202.6L171.86,204.79L175.3,209.25L178.73,208.87L182.17,207.27L185.61,206.87L202.79,207.05L206.23,206.97L213.1,206.24L216.54,203.96L219.98,201.59L223.42,200.22L230.29,197.64L233.73,195.49L240.6,188.46L244.04,178.46L247.48,172.77L250.91,161.81L257.79,142.54L261.22,136.66L268.1,132.42L271.54,127.37L278.41,121.91L281.85,121.2L288.72,118.64L292.16,118.11L299.03,114.58L302.47,114.41L305.91,115.22L309.34,117.98L312.78,117.11L316.22,117.93L319.66,116.05L323.09,115.87L329.97,115.86L333.4,116.89L336.84,118.62L340.28,118.7L347.15,118.36L350.59,118.7L357.46,118.62L360.9,117.24L367.78,115.48L371.21,112.09L374.65,110.27L378.09,106.88L381.52,102.77L384.96,95.03L398.71,53.74L402.15,34.99L405.58,29.99L409.02,20.04L412.46,14.74L415.9,14.1L422.77,15.8L426.21,13.7L429.64,13.96L433.08,15.15L439.96,16.56L443.39,15.92L446.83,14.77L450.27,16.04L453.7,17.66L457.14,17.44L460.58,17.72L464.02,15.96L467.45,16.47L470.89,18.78L474.33,16.54L477.77,20.5L481.2,22.81L484.64,22.83L491.51,22.66L494.95,24.66L505.26,25.25L508.7,26.27L512.14,32.07L515.57,41.34L519.01,49.45L522.45,53.44L525.89,61.03L529.32,65.95L532.76,63.9L536.2,63.48L539.63,55.43L543.07,50.9L549.95,38.91L553.38,34.71L563.69,28.23L567.13,27.99L574.01,28.46L577.44,29.74L584.32,32.66L587.75,34.31L591.19,34.98L594.63,34.53L601.5,33.99L604.94,33.92L611.81,38.77L615.25,43.49L622.13,53.71L625.56,56.6L629,61.7" style="vector-effect: non-scaling-stroke; fill: none; stroke: rgb(127, 127, 127); stroke-opacity: 0.75; stroke-width: 2px; opacity: 1;"/></g><g class="points"/><g class="text"/></g><g class="trace scatter trace5ee76d5e-961d-44a3-a9fa-492c51588bf4" style="stroke-miterlimit: 2; opacity: 1;"><g class="fills"/><g class="errorbars"/><g class="lines"><path class="js-line" d="M65.31,247.62L106.55,245.04L109.99,243.79L147.8,228.38L151.23,226.84L178.73,215.64L182.17,214.87L189.04,213.95L192.48,213.67L209.67,213.07L213.1,212.53L240.6,205.15L244.04,202.73L250.91,197.83L254.35,194.58L261.22,187.39L264.66,184.73L268.1,182.18L271.54,178.39L281.85,168.94L285.28,166.22L292.16,160.56L295.6,156.8L305.91,146.27L309.34,143.78L319.66,138.79L323.09,138.51L329.97,139.23L333.4,138.62L336.84,137.63L340.28,137.94L347.15,138.26L350.59,137.94L371.21,135.24L374.65,134.7L381.52,132.25L384.96,130.23L391.84,124.31L395.27,120.07L398.71,114.98L402.15,108.31L405.58,104.28L409.02,98.57L412.46,93.08L415.9,89.47L422.77,82.65L426.21,77.86L436.52,69.03L439.96,66.29L450.27,54.57L453.7,53.01L460.58,50.89L464.02,51.86L467.45,53.01L470.89,57.55L481.2,63.53L484.64,63.6L491.51,64.17L494.95,66.81L508.7,74.23L512.14,77.74L519.01,84.94L522.45,86.57L529.32,89.51L532.76,88.79L536.2,88.69L539.63,85.7L546.51,81.77L549.95,79.93L567.13,72.74L570.57,72.56L577.44,70.85L580.88,69.97L591.19,66.36L594.63,66.7L604.94,68.77L608.38,70.91L611.81,72.33L615.25,74.58L625.56,82.7L629,85.13" style="vector-effect: non-scaling-stroke; fill: none; stroke: rgb(44, 160, 44); stroke-opacity: 1; stroke-width: 2px; opacity: 1;"/></g><g class="points"/><g class="text"/></g><g class="trace scatter traceb2d17bb1-c135-4129-8f0a-f4d0b4d3ea26" style="stroke-miterlimit: 2; opacity: 1;"><g class="fills"/><g class="errorbars"/><g class="lines"><path class="js-line" d="M0,249.59L6.87,249.91L10.31,252.11L13.75,248.65L17.19,248.46L24.06,248.53L27.5,246.93L30.93,247.23L34.37,248.42L44.68,247.93L48.12,246.99L51.56,244.74L54.99,245.34L58.43,245.15L61.87,244.16L65.31,243.74L68.74,245.24L79.05,245.42L82.49,246.94L85.93,246.37L89.37,243.75L92.8,244.21L96.24,243.46L103.11,243.28L106.55,241.93L109.99,223.4L113.43,221.01L116.86,222.29L120.3,219.37L123.74,218.78L127.17,215.21L130.61,212.87L134.05,215.05L137.49,211.98L140.92,218.66L147.8,217.83L151.23,216.01L154.67,218.59L158.11,214.26L161.55,213.84L164.98,212.65L175.3,212.24L178.73,210.06L182.17,205.62L185.61,208.38L189.04,214.91L192.48,213.14L202.79,213.96L206.23,211.31L209.67,209.97L213.1,207.34L216.54,200.59L219.98,198.97L226.85,201.14L230.29,199.01L237.16,190.16L240.6,184.91L244.04,163.7L247.48,169.67L250.91,148.04L254.35,143.43L257.79,138.02L261.22,146.24L264.66,160.13L268.1,162L271.54,138.21L274.97,143.84L278.41,144.23L281.85,151.5L285.28,146.32L288.72,143.61L292.16,141.93L295.6,126L299.03,122.59L302.47,124.8L305.91,126.35L309.34,135.08L312.78,128.53L316.22,128.8L319.66,124.21L323.09,137.92L326.53,150.79L329.97,147.8L333.4,147.85L336.84,142.16L340.28,144.46L343.72,151.29L347.15,143.28L350.59,145.14L354.03,139.54L357.46,137.35L360.9,125.47L364.34,121.76L367.78,117.75L371.21,109.38L374.65,115.51L378.09,110.58L381.52,104.07L384.96,88.22L388.4,73.91L391.84,69.97L395.27,65.97L398.71,45.95L402.15,14.48L405.58,61.56L409.02,30.12L412.46,41.62L415.9,70.95L419.33,76.96L422.77,71.35L426.21,41.57L429.64,60.72L433.08,66.81L439.96,54.68L443.39,33.24L446.83,25.84L450.27,36.56L453.7,57.05L457.14,45.3L460.58,56.18L464.02,85.36L467.45,68.95L470.89,105.34L474.33,99.79L477.77,74.82L481.2,78.3L484.64,72.23L488.08,76.55L491.51,83.12L494.95,94.48L498.39,96.76L501.83,94.19L505.26,95.26L508.7,105.34L512.14,103.41L515.57,104.28L519.01,102.01L522.45,89.73L525.89,81.67L529.32,78.63L532.76,70.83L536.2,67.02L539.63,45.57L543.07,53.98L546.51,42.07L549.95,41.44L553.38,44.1L556.82,57.16L560.26,52.81L563.69,56.43L567.13,68.93L570.57,90.6L574.01,83.93L577.44,82.32L580.88,85.98L584.32,83.05L587.75,68.41L591.19,72.33L594.63,88.39L598.07,88.57L601.5,81.46L604.94,87.82L608.38,88.37L611.81,82.41L615.25,87.17L618.69,98.24L622.13,104.51L625.56,102.25L629,101.41" style="vector-effect: non-scaling-stroke; fill: none; stroke: rgb(31, 119, 180); stroke-opacity: 1; stroke-width: 2px; opacity: 1;"/></g><g class="points"/><g class="text"/></g></g></g><g class="overplot"/><path class="xlines-above crisp" d="M0,0" style="fill: none;"/><path class="ylines-above crisp" d="M0,0" style="fill: none;"/><g class="overlines-above"/><g class="xaxislayer-above"><g class="xtick"><text text-anchor="middle" x="0" y="333" transform="translate(41,0)" style="font-family: 'Open Sans', verdana, arial, sans-serif; font-size: 12px; fill: rgb(214, 223, 239); fill-opacity: 1; white-space: pre; opacity: 1;">Mar 2019</text></g><g class="xtick"><text text-anchor="middle" x="0" y="333" style="font-family: 'Open Sans', verdana, arial, sans-serif; font-size: 12px; fill: rgb(214, 223, 239); fill-opacity: 1; white-space: pre; opacity: 1;" transform="translate(147.55,0)">Apr 2019</text></g><g class="xtick"><text text-anchor="middle" x="0" y="333" style="font-family: 'Open Sans', verdana, arial, sans-serif; font-size: 12px; fill: rgb(214, 223, 239); fill-opacity: 1; white-space: pre; opacity: 1;" transform="translate(250.67,0)">May 2019</text></g><g class="xtick"><text text-anchor="middle" x="0" y="333" style="font-family: 'Open Sans', verdana, arial, sans-serif; font-size: 12px; fill: rgb(214, 223, 239); fill-opacity: 1; white-space: pre; opacity: 1;" transform="translate(357.22,0)">Jun 2019</text></g><g class="xtick"><text text-anchor="middle" x="0" y="333" style="font-family: 'Open Sans', verdana, arial, sans-serif; font-size: 12px; fill: rgb(214, 223, 239); fill-opacity: 1; white-space: pre; opacity: 1;" transform="translate(460.33,0)">Jul 2019</text></g><g class="xtick"><text text-anchor="middle" x="0" y="333" style="font-family: 'Open Sans', verdana, arial, sans-serif; font-size: 12px; fill: rgb(214, 223, 239); fill-opacity: 1; white-space: pre; opacity: 1;" transform="translate(566.89,0)">Aug 2019</text></g></g><g class="yaxislayer-above"><g class="ytick"><text text-anchor="end" x="40" y="4.199999999999999" transform="translate(0,291.99)" style="font-family: 'Open Sans', verdana, arial, sans-serif; font-size: 12px; fill: rgb(214, 223, 239); fill-opacity: 1; white-space: pre; opacity: 1;">4k</text></g><g class="ytick"><text text-anchor="end" x="40" y="4.199999999999999" style="font-family: 'Open Sans', verdana, arial, sans-serif; font-size: 12px; fill: rgb(214, 223, 239); fill-opacity: 1; white-space: pre; opacity: 1;" transform="translate(0,240.64)">6k</text></g><g class="ytick"><text text-anchor="end" x="40" y="4.199999999999999" style="font-family: 'Open Sans', verdana, arial, sans-serif; font-size: 12px; fill: rgb(214, 223, 239); fill-opacity: 1; white-space: pre; opacity: 1;" transform="translate(0,189.28)">8k</text></g><g class="ytick"><text text-anchor="end" x="40" y="4.199999999999999" style="font-family: 'Open Sans', verdana, arial, sans-serif; font-size: 12px; fill: rgb(214, 223, 239); fill-opacity: 1; white-space: pre; opacity: 1;" transform="translate(0,137.93)">10k</text></g><g class="ytick"><text text-anchor="end" x="40" y="4.199999999999999" style="font-family: 'Open Sans', verdana, arial, sans-serif; font-size: 12px; fill: rgb(214, 223, 239); fill-opacity: 1; white-space: pre; opacity: 1;" transform="translate(0,86.58)">12k</text></g></g><g class="overaxes-above"/></g></g><g class="polarlayer"/><g class="ternarylayer"/><g class="geolayer"/><g class="funnelarealayer"/><g class="pielayer"/><g class="iciclelayer"/><g class="treemaplayer"/><g class="sunburstlayer"/><g class="glimages"/><defs id="topdefs-761f6f"><g class="clips"/><clipPath id="legend761f6f"><rect width="428" height="29" x="0" y="0"/></clipPath></defs><g class="layer-above"><g class="imagelayer"/><g class="shapelayer"/></g><g class="infolayer"><g class="legend" pointer-events="all" transform="translate(242,11.519999999999996)"><rect class="bg" shape-rendering="crispEdges" style="stroke: rgb(68, 68, 68); stroke-opacity: 1; fill: rgb(33, 34, 44); fill-opacity: 1; stroke-width: 0px;" width="428" height="29" x="0" y="0"/><g class="scrollbox" transform="" clip-path="url(#legend761f6f)"><g class="groups"><g class="traces" transform="translate(0,14.5)" style="opacity: 1;"><text class="legendtext" text-anchor="start" x="40" y="4.680000000000001" style="font-family: 'Open Sans', verdana, arial, sans-serif; font-size: 12px; fill: rgb(214, 223, 239); fill-opacity: 1; white-space: pre;">Lower Band</text><g class="layers"><g class="legendfill"/><g class="legendlines"><path class="js-line" d="M5,0h30" style="fill: none; stroke: rgb(127, 127, 127); stroke-opacity: 0.75; stroke-width: 2px;"/></g><g class="legendsymbols"><g class="legendpoints"/></g></g><rect class="legendtoggle" x="0" y="-9.5" width="113.265625" height="19" style="fill: rgb(0, 0, 0); fill-opacity: 0;"/></g><g class="traces" transform="translate(115.765625,14.5)" style="opacity: 1;"><text class="legendtext" text-anchor="start" x="40" y="4.680000000000001" style="font-family: 'Open Sans', verdana, arial, sans-serif; font-size: 12px; fill: rgb(214, 223, 239); fill-opacity: 1; white-space: pre;">Upper Band</text><g class="layers"><g class="legendfill"><path class="js-fill" d="M5,-2h30v6h-30z" style="stroke-width: 0; fill: rgb(128, 128, 128); fill-opacity: 0.2;"/></g><g class="legendlines"><path class="js-line" d="M5,-2h30" style="fill: none; stroke: rgb(127, 127, 127); stroke-opacity: 0.75; stroke-width: 2px;"/></g><g class="legendsymbols"><g class="legendpoints"/></g></g><rect class="legendtoggle" x="0" y="-9.5" width="113.21875" height="19" style="fill: rgb(0, 0, 0); fill-opacity: 0;"/></g><g class="traces" transform="translate(231.484375,14.5)" style="opacity: 1;"><text class="legendtext" text-anchor="start" x="40" y="4.680000000000001" style="font-family: 'Open Sans', verdana, arial, sans-serif; font-size: 12px; fill: rgb(214, 223, 239); fill-opacity: 1; white-space: pre;">Middle Band</text><g class="layers" style="opacity: 1;"><g class="legendfill"/><g class="legendlines"><path class="js-line" d="M5,0h30" style="fill: none; stroke: rgb(44, 160, 44); stroke-opacity: 1; stroke-width: 2px;"/></g><g class="legendsymbols"><g class="legendpoints"/></g></g><rect class="legendtoggle" x="0" y="-9.5" width="116.015625" height="19" style="fill: rgb(0, 0, 0); fill-opacity: 0;"/></g><g class="traces" transform="translate(350,14.5)" style="opacity: 1;"><text class="legendtext" text-anchor="start" x="40" y="4.680000000000001" style="font-family: 'Open Sans', verdana, arial, sans-serif; font-size: 12px; fill: rgb(214, 223, 239); fill-opacity: 1; white-space: pre;">Close</text><g class="layers" style="opacity: 1;"><g class="legendfill"/><g class="legendlines"><path class="js-line" d="M5,0h30" style="fill: none; stroke: rgb(31, 119, 180); stroke-opacity: 1; stroke-width: 2px;"/></g><g class="legendsymbols"><g class="legendpoints"/></g></g><rect class="legendtoggle" x="0" y="-9.5" width="74.84375" height="19" style="fill: rgb(0, 0, 0); fill-opacity: 0;"/></g></g></g><rect class="scrollbar" rx="20" ry="3" width="0" height="0" style="fill: rgb(128, 139, 164); fill-opacity: 1;" x="0" y="0"/></g><g class="g-gtitle"/><g class="g-xtitle"/><g class="g-ytitle"/></g></svg>