<svg class="main-svg" xmlns="http://www.w3.org/2000/svg" xmlns:xlink="http://www.w3.org/1999/xlink" width="700" height="350" style="" viewBox="0 0 700 350"><rect x="0" y="0" width="700" height="350" style="fill: rgb(33, 34, 44); fill-opacity: 1;"/><defs id="defs-b07a7d"><g class="clips"><clipPath id="clipb07a7dxyplot" class="plotclip"><rect width="618" height="274"/></clipPath><clipPath class="axesclip" id="clipb07a7dx"><rect x="41" y="0" width="618" height="350"/></clipPath><clipPath class="axesclip" id="clipb07a7dy"><rect x="0" y="46" width="700" height="274"/></clipPath><clipPath class="axesclip" id="clipb07a7dxy"><rect x="41" y="46" width="618" height="274"/></clipPath></g><g class="gradients"/><g class="patterns"/></defs><g class="bglayer"/><g class="layer-below"><g class="imagelayer"/><g class="shapelayer"/></g><g class="cartesianlayer"><g class="subplot xy"><g class="layer-subplot"><g class="shapelayer"/><g class="imagelayer"/></g><g class="gridlayer"><g class="x"><path class="xgrid crisp" transform="translate(145.12,0)" d="M0,46v274" style="stroke: rgb(47, 62, 78); stroke-opacity: 1; stroke-width: 1px;"/><path class="xgrid crisp" transform="translate(245.88,0)" d="M0,46v274" style="stroke: rgb(47, 62, 78); stroke-opacity: 1; stroke-width: 1px;"/><path class="xgrid crisp" transform="translate(350,0)" d="M0,46v274" style="stroke: rgb(47, 62, 78); stroke-opacity: 1; stroke-width: 1px;"/><path class="xgrid crisp" transform="translate(450.76,0)" d="M0,46v274" style="stroke: rgb(47, 62, 78); stroke-opacity: 1; stroke-width: 1px;"/><path class="xgrid crisp" transform="translate(554.88,0)" d="M0,46v274" style="stroke: rgb(47, 62, 78); stroke-opacity: 1; stroke-width: 1px;"/></g><g class="y"><path class="ygrid crisp" transform="translate(0,291.99)" d="M41,0h618" style="stroke: rgb(47, 62, 78); stroke-opacity: 1; stroke-width: 1px;"/><path class="ygrid crisp" transform="translate(0,240.64)" d="M41,0h618" style="stroke: rgb(47, 62, 78); stroke-opacity: 1; stroke-width: 1px;"/><path class="ygrid crisp" transform="translate(0,189.28)" d="M41,0h618" style="stroke: rgb(47, 62, 78); stroke-opacity: 1; stroke-width: 1px;"/><path class="ygrid crisp" transform="translate(0,137.93)" d="M41,0h618" style="stroke: rgb(47, 62, 78); stroke-opacity: 1; stroke-width: 1px;"/><path class="ygrid crisp" transform="translate(0,86.58)" d="M41,0h618" style="stroke: rgb(47, 62, 78); stroke-opacity: 1; stroke-width: 1px;"/></g></g><g class="zerolinelayer"/><path class="xlines-below"/><path class="ylines-below"/><g class="overlines-below"/><g class="xaxislayer-below"/><g class="yaxislayer-below"/><g class="overaxes-below"/><g class="plot" transform="translate(41,46)" clip-path="url(#clipb07a7dxyplot)"><g class="scatterlayer mlayer"><g class="trace scatter traced8466f4d-f2a6-4568-8d85-f8a9662bd55c" style="stroke-miterlimit: 2;"><g class="fills"><g><path class="js-fill" d="M63.82,243.49L73.89,242.93L77.25,243.32L90.68,242.93L94.04,242.6L104.12,241.8L107.48,234.01L110.84,228.7L114.2,225.09L127.63,210.8L130.99,208.13L134.35,205.3L137.71,204.01L147.78,201.4L151.14,201.44L157.86,201.12L161.22,201.51L164.58,202.6L167.93,204.79L171.29,209.25L174.65,208.87L178.01,207.27L181.37,206.87L198.16,207.05L201.52,206.97L208.24,206.24L211.6,203.96L214.96,201.59L218.32,200.22L225.03,197.64L228.39,195.49L235.11,188.46L238.47,178.46L241.83,172.77L245.18,161.81L251.9,142.54L255.26,136.66L261.98,132.42L265.34,127.37L272.05,121.91L275.41,121.2L282.13,118.64L285.49,118.11L292.21,114.58L295.57,114.41L298.92,115.22L302.28,117.98L305.64,117.11L309,117.93L312.36,116.05L315.72,115.87L322.43,115.86L325.79,116.89L329.15,118.62L332.51,118.7L339.23,118.36L342.59,118.7L349.3,118.62L352.66,117.24L359.38,115.48L362.74,112.09L366.1,110.27L369.46,106.88L372.82,102.77L376.17,95.03L389.61,53.74L392.97,34.99L396.33,29.99L399.68,20.04L403.04,14.74L406.4,14.1L413.12,15.8L416.48,13.7L419.84,13.96L423.2,15.15L429.91,16.56L433.27,15.92L436.63,14.77L439.99,16.04L443.35,17.66L446.71,17.44L450.07,17.72L453.42,15.96L456.78,16.47L460.14,18.78L463.5,16.54L466.86,20.5L470.22,22.81L473.58,22.83L480.29,22.66L483.65,24.66L493.73,25.25L497.09,26.27L500.45,32.07L503.8,41.34L507.16,49.45L510.52,53.44L513.88,61.03L517.24,65.95L520.6,63.9L523.96,63.48L527.32,55.43L530.67,50.9L537.39,38.91L540.75,34.71L550.83,28.23L554.18,27.99L560.9,28.46L564.26,29.74L570.98,32.66L574.34,34.31L577.7,34.98L581.05,34.53L587.77,33.99L591.13,33.92L597.85,38.77L601.21,43.49L607.92,53.71L611.28,56.6L618,67.2L618,107.23L614.64,108.56L611.28,108.8L607.92,107.18L601.21,105.68L597.85,105.89L581.05,98.87L577.7,97.75L574.34,100.16L570.98,105.17L564.26,111.95L560.9,115.54L557.54,117L554.18,117.49L550.83,120.04L547.47,122L544.11,122.34L540.75,122.33L534.03,118.82L530.67,115.91L527.32,115.97L523.96,113.9L520.6,113.67L517.24,113.07L513.88,115.75L510.52,119.7L500.45,123.41L497.09,122.2L480.29,105.68L476.93,104.32L473.58,104.37L470.22,104.25L466.86,102.9L463.5,102.38L456.78,89.54L453.42,87.76L450.07,84.06L446.71,85.72L443.35,88.36L439.99,93.09L433.27,108.44L429.91,116.03L426.55,121.83L423.2,128.59L409.76,157.08L406.4,164.83L399.68,177.09L396.33,178.57L392.97,181.63L389.61,176.22L386.25,174L382.89,173.71L379.53,170.61L376.17,165.42L372.82,161.74L369.46,160.07L362.74,158.4L359.38,156.55L352.66,155.7L349.3,155.97L339.23,158.17L335.87,158.27L332.51,157.18L329.15,156.63L325.79,160.34L322.43,162.6L319.08,162.42L315.72,161.16L312.36,161.53L309,162.03L305.64,166.94L302.28,169.59L295.57,184.52L292.21,191.38L282.13,208.27L278.77,212.6L272.05,221.54L268.7,225.81L258.62,235.31L255.26,238.12L251.9,238.93L248.54,237.3L245.18,233.85L241.83,228.64L238.47,226.99L235.11,221.85L231.75,220.56L228.39,219.73L218.32,219.55L214.96,220.04L211.6,219.39L208.24,218.82L204.88,219.31L201.52,220.03L191.45,220.11L188.09,220.23L178.01,222.48L174.65,222.42L171.29,223.37L167.93,230.79L164.58,236.15L161.22,240.32L147.78,252.27L144.42,254.74L134.35,259.6L130.99,260.09L124.27,259.8L120.91,259.17L114.2,257.32L110.84,256.18L107.48,253.57L104.12,248.28L77.25,249.91L73.89,250.97L63.82,251.74Z" style="fill: rgb(128, 128, 128); fill-opacity: 0.2; stroke-width: 0;"/></g></g><g class="errorbars"/><g class="lines"><path class="js-line" d="M63.82,251.74L73.89,250.97L77.25,249.91L104.12,248.28L107.48,253.57L110.84,256.18L114.2,257.32L120.91,259.17L124.27,259.8L130.99,260.09L134.35,259.6L144.42,254.74L147.78,252.27L161.22,240.32L164.58,236.15L167.93,230.79L171.29,223.37L174.65,222.42L178.01,222.48L188.09,220.23L191.45,220.11L201.52,220.03L204.88,219.31L208.24,218.82L211.6,219.39L214.96,220.04L218.32,219.55L228.39,219.73L231.75,220.56L235.11,221.85L238.47,226.99L241.83,228.64L245.18,233.85L248.54,237.3L251.9,238.93L255.26,238.12L258.62,235.31L268.7,225.81L272.05,221.54L278.77,212.6L282.13,208.27L292.21,191.38L295.57,184.52L302.28,169.59L305.64,166.94L309,162.03L312.36,161.53L315.72,161.16L319.08,162.42L322.43,162.6L325.79,160.34L329.15,156.63L332.51,157.18L335.87,158.27L339.23,158.17L349.3,155.97L352.66,155.7L359.38,156.55L362.74,158.4L369.46,160.07L372.82,161.74L376.17,165.42L379.53,170.61L382.89,173.71L386.25,174L389.61,176.22L392.97,181.63L396.33,178.57L399.68,177.09L406.4,164.83L409.76,157.08L423.2,128.59L426.55,121.83L429.91,116.03L433.27,108.44L439.99,93.09L443.35,88.36L446.71,85.72L450.07,84.06L453.42,87.76L456.78,89.54L463.5,102.38L466.86,102.9L470.22,104.25L473.58,104.37L476.93,104.32L480.29,105.68L497.09,122.2L500.45,123.41L510.52,119.7L513.88,115.75L517.24,113.07L520.6,113.67L523.96,113.9L527.32,115.97L530.67,115.91L534.03,118.82L540.75,122.33L544.11,122.34L547.47,122L550.83,120.04L554.18,117.49L557.54,117L560.9,115.54L564.26,111.95L570.98,105.17L574.34,100.16L577.7,97.75L581.05,98.87L597.85,105.89L601.21,105.68L607.92,107.18L611.28,108.8L614.64,108.56L618,107.23" style="vector-effect: non-scaling-stroke; fill: none; stroke: rgb(127, 127, 127); stroke-opacity: 0.5; stroke-width: 2px; opacity: 1;"/></g><g class="points"/><g class="text"/></g><g class="trace scatter tracef6964eac-4e29-4599-8933-5fd23fc708dc" style="stroke-miterlimit: 2;"><g class="fills"/><g class="errorbars"/><g class="lines"><path class="js-line" d="M63.82,243.49L73.89,242.93L77.25,243.32L90.68,242.93L94.04,242.6L104.12,241.8L107.48,234.01L110.84,228.7L114.2,225.09L127.63,210.8L130.99,208.13L134.35,205.3L137.71,204.01L147.78,201.4L151.14,201.44L157.86,201.12L161.22,201.51L164.58,202.6L167.93,204.79L171.29,209.25L174.65,208.87L178.01,207.27L181.37,206.87L198.16,207.05L201.52,206.97L208.24,206.24L211.6,203.96L214.96,201.59L218.32,200.22L225.03,197.64L228.39,195.49L235.11,188.46L238.47,178.46L241.83,172.77L245.18,161.81L251.9,142.54L255.26,136.66L261.98,132.42L265.34,127.37L272.05,121.91L275.41,121.2L282.13,118.64L285.49,118.11L292.21,114.58L295.57,114.41L298.92,115.22L302.28,117.98L305.64,117.11L309,117.93L312.36,116.05L315.72,115.87L322.43,115.86L325.79,116.89L329.15,118.62L332.51,118.7L339.23,118.36L342.59,118.7L349.3,118.62L352.66,117.24L359.38,115.48L362.74,112.09L366.1,110.27L369.46,106.88L372.82,102.77L376.17,95.03L389.61,53.74L392.97,34.99L396.33,29.99L399.68,20.04L403.04,14.74L406.4,14.1L413.12,15.8L416.48,13.7L419.84,13.96L423.2,15.15L429.91,16.56L433.27,15.92L436.63,14.77L439.99,16.04L443.35,17.66L446.71,17.44L450.07,17.72L453.42,15.96L456.78,16.47L460.14,18.78L463.5,16.54L466.86,20.5L470.22,22.81L473.58,22.83L480.29,22.66L483.65,24.66L493.73,25.25L497.09,26.27L500.45,32.07L503.8,41.34L507.16,49.45L510.52,53.44L513.88,61.03L517.24,65.95L520.6,63.9L523.96,63.48L527.32,55.43L530.67,50.9L537.39,38.91L540.75,34.71L550.83,28.23L554.18,27.99L560.9,28.46L564.26,29.74L570.98,32.66L574.34,34.31L577.7,34.98L581.05,34.53L587.77,33.99L591.13,33.92L597.85,38.77L601.21,43.49L607.92,53.71L611.28,56.6L618,67.2" style="vector-effect: non-scaling-stroke; fill: none; stroke: rgb(127, 127, 127); stroke-opacity: 0.5; stroke-width: 2px; opacity: 1;"/></g><g class="points"/><g class="text"/></g><g class="trace scatter trace01036523-c3f3-46b6-a3f7-2c1e7bf72407" style="stroke-miterlimit: 2; opacity: 1;"><g class="fills"/><g class="errorbars"/><g class="lines"><path class="js-line" d="M63.82,247.62L104.12,245.04L107.48,243.79L144.42,228.38L147.78,226.84L174.65,215.64L178.01,214.87L184.73,213.95L188.09,213.67L204.88,213.07L208.24,212.53L235.11,205.15L238.47,202.73L245.18,197.83L248.54,194.58L255.26,187.39L258.62,184.73L261.98,182.18L265.34,178.39L275.41,168.94L278.77,166.22L285.49,160.56L288.85,156.8L298.92,146.27L302.28,143.78L312.36,138.79L315.72,138.51L322.43,139.23L325.79,138.62L329.15,137.63L332.51,137.94L339.23,138.26L342.59,137.94L362.74,135.24L366.1,134.7L372.82,132.25L376.17,130.23L382.89,124.31L386.25,120.07L389.61,114.98L392.97,108.31L396.33,104.28L399.68,98.57L403.04,93.08L406.4,89.47L413.12,82.65L416.48,77.86L426.55,69.03L429.91,66.29L439.99,54.57L443.35,53.01L450.07,50.89L453.42,51.86L456.78,53.01L460.14,57.55L470.22,63.53L473.58,63.6L480.29,64.17L483.65,66.81L497.09,74.23L500.45,77.74L507.16,84.94L510.52,86.57L517.24,89.51L520.6,88.79L523.96,88.69L527.32,85.7L534.03,81.77L537.39,79.93L554.18,72.74L557.54,72.56L564.26,70.85L567.62,69.97L577.7,66.36L581.05,66.7L591.13,68.77L594.49,70.91L597.85,72.33L601.21,74.58L611.28,82.7L614.64,85.13L618,87.21" style="vector-effect: non-scaling-stroke; fill: none; stroke: rgb(108, 166, 205); stroke-opacity: 1; stroke-width: 2px; opacity: 1;"/></g><g class="points"/><g class="text"/></g><g class="trace scatter traceca7dd5cf-a5dc-47d5-ab5c-6b6318e30c5b" style="stroke-miterlimit: 2; opacity: 1;"><g class="fills"/><g class="errorbars"/><g class="lines"><path class="js-line" d="M0,249.59L6.72,249.91L10.08,252.11L13.43,248.65L16.79,248.46L23.51,248.53L26.87,246.93L30.23,247.23L33.59,248.42L43.66,247.93L47.02,246.99L50.38,244.74L53.74,245.34L57.1,245.15L60.46,244.16L63.82,243.74L67.17,245.24L77.25,245.42L80.61,246.94L83.97,246.37L87.33,243.75L90.68,244.21L94.04,243.46L100.76,243.28L104.12,241.93L107.48,223.4L110.84,221.01L114.2,222.29L117.55,219.37L120.91,218.78L124.27,215.21L127.63,212.87L130.99,215.05L134.35,211.98L137.71,218.66L144.42,217.83L147.78,216.01L151.14,218.59L154.5,214.26L157.86,213.84L161.22,212.65L171.29,212.24L174.65,210.06L178.01,205.62L181.37,208.38L184.73,214.91L188.09,213.14L198.16,213.96L201.52,211.31L204.88,209.97L208.24,207.34L211.6,200.59L214.96,198.97L221.67,201.14L225.03,199.01L231.75,190.16L235.11,184.91L238.47,163.7L241.83,169.67L245.18,148.04L248.54,143.43L251.9,138.02L255.26,146.24L258.62,160.13L261.98,162L265.34,138.21L268.7,143.84L272.05,144.23L275.41,151.5L278.77,146.32L282.13,143.61L285.49,141.93L288.85,126L292.21,122.59L295.57,124.8L298.92,126.35L302.28,135.08L305.64,128.53L309,128.8L312.36,124.21L315.72,137.92L319.08,150.79L322.43,147.8L325.79,147.85L329.15,142.16L332.51,144.46L335.87,151.29L339.23,143.28L342.59,145.14L345.95,139.54L349.3,137.35L352.66,125.47L356.02,121.76L359.38,117.75L362.74,109.38L366.1,115.51L369.46,110.58L372.82,104.07L376.17,88.22L379.53,73.91L382.89,69.97L386.25,65.97L389.61,45.95L392.97,14.48L396.33,61.56L399.68,30.12L403.04,41.62L406.4,70.95L409.76,76.96L413.12,71.35L416.48,41.57L419.84,60.72L423.2,66.81L429.91,54.68L433.27,33.24L436.63,25.84L439.99,36.56L443.35,57.05L446.71,45.3L450.07,56.18L453.42,85.36L456.78,68.95L460.14,105.34L463.5,99.79L466.86,74.82L470.22,78.3L473.58,72.23L476.93,76.55L480.29,83.12L483.65,94.48L487.01,96.76L490.37,94.19L493.73,95.26L497.09,105.34L500.45,103.41L503.8,104.28L507.16,102.01L510.52,89.73L513.88,81.67L517.24,78.63L520.6,70.83L523.96,67.02L527.32,45.57L530.67,53.98L534.03,42.07L537.39,41.44L540.75,44.1L544.11,57.16L547.47,52.81L550.83,56.43L554.18,68.93L557.54,90.6L560.9,83.93L564.26,82.32L567.62,85.98L570.98,83.05L574.34,68.41L577.7,72.33L581.05,88.39L584.41,88.57L587.77,81.46L591.13,87.82L594.49,88.37L597.85,82.41L601.21,87.17L604.57,98.24L607.92,104.51L611.28,102.25L614.64,101.41L618,98.15" style="vector-effect: non-scaling-stroke; fill: none; stroke: rgb(31, 119, 180); stroke-opacity: 1; stroke-width: 2px; opacity: 1;"/></g><g class="points"/><g class="text"/></g></g></g><g class="overplot"/><path class="xlines-above crisp" d="M0,0" style="fill: none;"/><path class="ylines-above crisp" d="M0,0" style="fill: none;"/><g class="overlines-above"/><g class="xaxislayer-above"><g class="xtick"><text text-anchor="middle" x="0" y="333" transform="translate(41,0)" style="font-family: 'Open Sans', verdana, arial, sans-serif; font-size: 12px; fill: rgb(214, 223, 239); fill-opacity: 1; white-space: pre; opacity: 1;">Mar 2019</text></g><g class="xtick"><text text-anchor="middle" x="0" y="333" style="font-family: 'Open Sans', verdana, arial, sans-serif; font-size: 12px; fill: rgb(214, 223, 239); fill-opacity: 1; white-space: pre; opacity: 1;" transform="translate(145.12,0)">Apr 2019</text></g><g class="xtick"><text text-anchor="middle" x="0" y="333" style="font-family: 'Open Sans', verdana, arial, sans-serif; font-size: 12px; fill: rgb(214, 223, 239); fill-opacity: 1; white-space: pre; opacity: 1;" transform="translate(245.88,0)">May 2019</text></g><g class="xtick"><text text-anchor="middle" x="0" y="333" style="font-family: 'Open Sans', verdana, arial, sans-serif; font-size: 12px; fill: rgb(214, 223, 239); fill-opacity: 1; white-space: pre; opacity: 1;" transform="translate(350,0)">Jun 2019</text></g><g class="xtick"><text text-anchor="middle" x="0" y="333" style="font-family: 'Open Sans', verdana, arial, sans-serif; font-size: 12px; fill: rgb(214, 223, 239); fill-opacity: 1; white-space: pre; opacity: 1;" transform="translate(450.76,0)">Jul 2019</text></g><g class="xtick"><text text-anchor="middle" x="0" y="333" style="font-family: 'Open Sans', verdana, arial, sans-serif; font-size: 12px; fill: rgb(214, 223, 239); fill-opacity: 1; white-space: pre; opacity: 1;" transform="translate(554.88,0)">Aug 2019</text></g><g class="xtick"><text text-anchor="middle" x="0" y="333" style="font-family: 'Open Sans', verdana, arial, sans-serif; font-size: 12px; fill: rgb(214, 223, 239); fill-opacity: 1; white-space: pre; opacity: 1;" transform="translate(659,0)">Sep 2019</text></g></g><g class="yaxislayer-above"><g class="ytick"><text text-anchor="end" x="40" y="4.199999999999999" transform="translate(0,291.99)" style="font-family: 'Open Sans', verdana, arial, sans-serif; font-size: 12px; fill: rgb(214, 223, 239); fill-opacity: 1; white-space: pre; opacity: 1;">4k</text></g><g class="ytick"><text text-anchor="end" x="40" y="4.199999999999999" style="font-family: 'Open Sans', verdana, arial, sans-serif; font-size: 12px; fill: rgb(214, 223, 239); fill-opacity: 1; white-space: pre; opacity: 1;" transform="translate(0,240.64)">6k</text></g><g class="ytick"><text text-anchor="end" x="40" y="4.199999999999999" style="font-family: 'Open Sans', verdana, arial, sans-serif; font-size: 12px; fill: rgb(214, 223, 239); fill-opacity: 1; white-space: pre; opacity: 1;" transform="translate(0,189.28)">8k</text></g><g class="ytick"><text text-anchor="end" x="40" y="4.199999999999999" style="font-family: 'Open Sans', verdana, arial, sans-serif; font-size: 12px; fill: rgb(214, 223, 239); fill-opacity: 1; white-space: pre; opacity: 1;" transform="translate(0,137.93)">10k</text></g><g class="ytick"><text text-anchor="end" x="40" y="4.199999999999999" style="font-family: 'Open Sans', verdana, arial, sans-serif; font-size: 12px; fill: rgb(214, 223, 239); fill-opacity: 1; white-space: pre; opacity: 1;" transform="translate(0,86.58)">12k</text></g></g><g class="overaxes-above"/></g></g><g class="polarlayer"/><g class="smithlayer"/><g class="ternarylayer"/><g class="geolayer"/><g class="funnelarealayer"/><g class="pielayer"/><g class="iciclelayer"/><g class="treemaplayer"/><g class="sunburstlayer"/><g class="glimages"/><defs id="topdefs-b07a7d"><g class="clips"/><clipPath id="legendb07a7d"><rect width="426" height="29" x="0" y="0"/></clipPath></defs><g class="layer-above"><g class="imagelayer"/><g class="shapelayer"/></g><g class="infolayer"><g class="legend" pointer-events="all" transform="translate(233,11.519999999999996)"><rect class="bg" shape-rendering="crispEdges" style="stroke: rgb(68, 68, 68); stroke-opacity: 1; fill: rgb(33, 34, 44); fill-opacity: 1; stroke-width: 0px;" width="426" height="29" x="0" y="0"/><g class="scrollbox" transform="" clip-path="url(#legendb07a7d)"><g class="groups"><g class="traces" transform="translate(0,14.5)" style="opacity: 1;"><text class="legendtext" text-anchor="start" x="40" y="4.680000000000001" style="font-family: 'Open Sans', verdana, arial, sans-serif; font-size: 12px; fill: rgb(214, 223, 239); fill-opacity: 1; white-space: pre;">Lower band</text><g class="layers"><g class="legendfill"/><g class="legendlines"><path class="js-line" d="M5,0h30" style="fill: none; stroke: rgb(127, 127, 127); stroke-opacity: 0.5; stroke-width: 2px;"/></g><g class="legendsymbols"><g class="legendpoints"/></g></g><rect class="legendtoggle" x="0" y="-9.5" width="112.53125" height="19" style="fill: rgb(0, 0, 0); fill-opacity: 0;"/></g><g class="traces" transform="translate(115.03125,14.5)" style="opacity: 1;"><text class="legendtext" text-anchor="start" x="40" y="4.680000000000001" style="font-family: 'Open Sans', verdana, arial, sans-serif; font-size: 12px; fill: rgb(214, 223, 239); fill-opacity: 1; white-space: pre;">Upper band</text><g class="layers"><g class="legendfill"><path class="js-fill" d="M5,-2h30v6h-30z" style="stroke-width: 0; fill: rgb(128, 128, 128); fill-opacity: 0.2;"/></g><g class="legendlines"><path class="js-line" d="M5,-2h30" style="fill: none; stroke: rgb(127, 127, 127); stroke-opacity: 0.5; stroke-width: 2px;"/></g><g class="legendsymbols"><g class="legendpoints"/></g></g><rect class="legendtoggle" x="0" y="-9.5" width="112.484375" height="19" style="fill: rgb(0, 0, 0); fill-opacity: 0;"/></g><g class="traces" transform="translate(230.015625,14.5)" style="opacity: 1;"><text class="legendtext" text-anchor="start" x="40" y="4.680000000000001" style="font-family: 'Open Sans', verdana, arial, sans-serif; font-size: 12px; fill: rgb(214, 223, 239); fill-opacity: 1; white-space: pre;">Middle band</text><g class="layers" style="opacity: 1;"><g class="legendfill"/><g class="legendlines"><path class="js-line" d="M5,0h30" style="fill: none; stroke: rgb(108, 166, 205); stroke-opacity: 1; stroke-width: 2px;"/></g><g class="legendsymbols"><g class="legendpoints"/></g></g><rect class="legendtoggle" x="0" y="-9.5" width="115.28125" height="19" style="fill: rgb(0, 0, 0); fill-opacity: 0;"/></g><g class="traces" transform="translate(347.796875,14.5)" style="opacity: 1;"><text class="legendtext" text-anchor="start" x="40" y="4.680000000000001" style="font-family: 'Open Sans', verdana, arial, sans-serif; font-size: 12px; fill: rgb(214, 223, 239); fill-opacity: 1; white-space: pre;">Close</text><g class="layers" style="opacity: 1;"><g class="legendfill"/><g class="legendlines"><path class="js-line" d="M5,0h30" style="fill: none; stroke: rgb(31, 119, 180); stroke-opacity: 1; stroke-width: 2px;"/></g><g class="legendsymbols"><g class="legendpoints"/></g></g><rect class="legendtoggle" x="0" y="-9.5" width="74.859375" height="19" style="fill: rgb(0, 0, 0); fill-opacity: 0;"/></g></g></g><rect class="scrollbar" rx="20" ry="3" width="0" height="0" style="fill: rgb(128, 139, 164); fill-opacity: 1;" x="0" y="0"/></g><g class="g-gtitle"/><g class="g-xtitle"/><g class="g-ytitle"/></g></svg>