<svg class="main-svg" xmlns="http://www.w3.org/2000/svg" xmlns:xlink="http://www.w3.org/1999/xlink" width="700" height="350" viewBox="0 0 700 350"><rect x="0" y="0" width="700" height="350" style="fill: rgb(33, 34, 44); fill-opacity: 1;"/><defs id="defs-097514"><g class="clips"><clipPath id="clip097514xyplot" class="plotclip"><rect width="631" height="274"/></clipPath><clipPath class="axesclip" id="clip097514x"><rect x="39" y="0" width="631" height="350"/></clipPath><clipPath class="axesclip" id="clip097514y"><rect x="0" y="46" width="700" height="274"/></clipPath><clipPath class="axesclip" id="clip097514xy"><rect x="39" y="46" width="631" height="274"/></clipPath></g><g class="gradients"/><g class="patterns"/></defs><g class="bglayer"/><g class="layer-below"><g class="imagelayer"/><g class="shapelayer"/></g><g class="cartesianlayer"><g class="subplot xy"><g class="layer-subplot"><g class="shapelayer"/><g class="imagelayer"/></g><g class="gridlayer"><g class="x"><path class="xgrid crisp" transform="translate(169.41,0)" d="M0,46v274" style="stroke: rgb(47, 62, 78); stroke-opacity: 1; stroke-width: 1px;"/><path class="xgrid crisp" transform="translate(287.19,0)" d="M0,46v274" style="stroke: rgb(47, 62, 78); stroke-opacity: 1; stroke-width: 1px;"/><path class="xgrid crisp" transform="translate(417.6,0)" d="M0,46v274" style="stroke: rgb(47, 62, 78); stroke-opacity: 1; stroke-width: 1px;"/><path class="xgrid crisp" transform="translate(543.8,0)" d="M0,46v274" style="stroke: rgb(47, 62, 78); stroke-opacity: 1; stroke-width: 1px;"/></g><g class="y"><path class="ygrid crisp" transform="translate(0,286.03)" d="M39,0h631" style="stroke: rgb(47, 62, 78); stroke-opacity: 1; stroke-width: 1px;"/><path class="ygrid crisp" transform="translate(0,245.5)" d="M39,0h631" style="stroke: rgb(47, 62, 78); stroke-opacity: 1; stroke-width: 1px;"/><path class="ygrid crisp" transform="translate(0,204.97)" d="M39,0h631" style="stroke: rgb(47, 62, 78); stroke-opacity: 1; stroke-width: 1px;"/><path class="ygrid crisp" transform="translate(0,164.44)" d="M39,0h631" style="stroke: rgb(47, 62, 78); stroke-opacity: 1; stroke-width: 1px;"/><path class="ygrid crisp" transform="translate(0,123.91)" d="M39,0h631" style="stroke: rgb(47, 62, 78); stroke-opacity: 1; stroke-width: 1px;"/><path class="ygrid crisp" transform="translate(0,83.38)" d="M39,0h631" style="stroke: rgb(47, 62, 78); stroke-opacity: 1; stroke-width: 1px;"/></g></g><g class="zerolinelayer"/><path class="xlines-below"/><path class="ylines-below"/><g class="overlines-below"/><g class="xaxislayer-below"/><g class="yaxislayer-below"/><g class="overaxes-below"/><g class="plot" transform="translate(39,46)" clip-path="url(#clip097514xyplot)"><g class="scatterlayer mlayer"><g class="trace scatter trace509bd944-a6a7-4957-91b0-0a6eb6ba2948" style="stroke-miterlimit: 2; opacity: 1;"><g class="fills"/><g class="errorbars"/><g class="lines"><path class="js-line" d="M0,260.3L4.21,258.4L8.41,257.95L12.62,258.51L16.83,257.11L25.24,253.4L29.45,252.42L33.65,252.79L37.86,254.1L46.27,257.16L50.48,254.82L54.69,253.53L58.89,255.16L67.31,255.87L71.51,255.29L79.93,256.04L84.13,259.3L88.34,257.79L92.55,258.44L105.17,258.1L109.37,259.57L113.58,258.73L117.79,256.89L121.99,256.92L126.2,257.72L130.41,257.43L134.61,256.07L138.82,254.71L143.03,255.09L151.44,253.48L155.65,253.73L159.85,248.69L164.06,248.5L168.27,249.58L172.47,247.51L180.89,248.07L185.09,246.96L189.3,247.49L193.51,246.62L197.71,244.59L201.92,244.91L206.13,242.01L210.33,241.86L214.54,240.87L218.75,243.17L222.95,246.88L227.16,246.27L231.37,248.08L235.57,248.6L243.99,249.42L248.19,246.32L252.4,247.19L256.61,245.7L260.81,247.06L265.02,246.81L269.23,246.82L273.43,245.24L277.64,244.52L281.85,242.74L290.26,240.69L294.47,241.01L298.67,238.31L302.88,239.65L307.09,241.99L311.29,241.38L315.5,239.95L319.71,240.65L328.12,240.33L332.33,240.88L336.53,242.95L340.74,242.8L349.15,244.89L353.36,242.53L365.98,240.72L370.19,239.92L382.81,239.6L387.01,240.82L395.43,239.82L399.63,240.42L403.84,241.9L408.05,240.33L412.25,240.38L416.46,239.31L424.87,239.24L429.08,236.75L437.49,236.88L441.7,238.09L445.91,238.7L450.11,241.78L454.32,242.12L458.53,241.6L466.94,244.85L471.15,245.32L479.56,246.76L483.77,243.3L487.97,242.6L492.18,242.74L496.39,243.62L500.59,240.72L504.8,240.67L509.01,241.5L513.21,241.1L517.42,243.77L521.63,240.95L525.83,241.66L534.25,240L538.45,240.39L542.66,242.03L546.87,241.44L551.07,246.66L555.28,246.27L559.49,246.15L563.69,248.31L567.9,248.52L572.11,250.53L576.31,250.96L580.52,255.04L584.73,252.43L588.93,254.83L593.14,254.67L597.35,256.58L601.55,253.86L605.76,254.07L609.97,253.46L614.17,254.05L618.38,255.94L622.59,256.68L631,254.81" style="vector-effect: non-scaling-stroke; fill: none; stroke: rgb(31, 119, 180); stroke-opacity: 1; stroke-width: 2px; opacity: 1;"/></g><g class="points"/><g class="text"/></g><g class="trace scatter trace757dedfd-f47a-4846-8498-9db59c032dd0" style="stroke-miterlimit: 2; opacity: 1;"><g class="fills"/><g class="errorbars"/><g class="lines"><path class="js-line" d="M0,260.3L4.21,259.07L8.41,253.5L16.83,250.04L21.03,247.07L29.45,246.6L33.65,245.02L37.86,245.54L42.07,250.32L46.27,251.61L50.48,249.19L54.69,246.76L58.89,248.05L63.1,246.34L67.31,246.43L71.51,245.68L75.72,242.35L79.93,242.21L84.13,249.45L88.34,246.26L92.55,246.41L96.75,241.95L100.96,243.82L105.17,242.91L109.37,245.79L113.58,244.55L117.79,242.2L121.99,242.38L126.2,244.08L130.41,242.58L134.61,238.52L138.82,234.48L143.03,236.32L147.23,232.88L151.44,234.01L155.65,235.78L159.85,232.1L164.06,231.51L168.27,232.17L176.68,229.41L180.89,230.23L193.51,231.15L197.71,229.28L201.92,226.81L206.13,226.18L210.33,227.3L214.54,226.86L218.75,231.12L222.95,237L227.16,235.43L231.37,239.62L235.57,240.44L239.78,240.06L243.99,241.27L248.19,237.15L252.4,239.15L256.61,236.84L265.02,238.02L269.23,234.65L273.43,232.75L277.64,229.66L281.85,228.73L286.05,230.64L290.26,229.89L294.47,231.4L298.67,227.16L302.88,229.11L307.09,230.85L311.29,230.43L315.5,229.97L319.71,231.1L323.91,230.13L328.12,230.27L332.33,230.95L336.53,233.64L340.74,233.99L344.95,236.35L349.15,236.3L353.36,233.32L357.57,232.94L361.77,233.64L365.98,230.08L370.19,229.34L378.6,225.7L382.81,221.1L387.01,224.28L391.22,222.49L399.63,221.79L403.84,225.87L408.05,222.61L412.25,223.07L416.46,221.3L420.67,220.7L424.87,221.21L429.08,216.77L433.29,213L437.49,210.67L454.32,220.46L458.53,215.91L466.94,213.88L471.15,214.98L475.35,219.2L479.56,216.3L483.77,210.24L487.97,206.68L492.18,204.36L496.39,204.07L500.59,203.62L504.8,198.83L509.01,198.66L513.21,185.36L517.42,190.29L521.63,182.82L530.04,183.88L534.25,172.28L542.66,170.9L546.87,164.9L551.07,175.52L555.28,177.48L559.49,167.38L563.69,179.62L567.9,181.02L572.11,189.49L576.31,186.78L580.52,212.29L584.73,203.31L588.93,213.12L593.14,216.87L597.35,222.03L601.55,207.21L605.76,205.47L609.97,200.41L614.17,204.64L618.38,213.42L622.59,217.32L626.79,214.24L631,205.23" style="vector-effect: non-scaling-stroke; fill: none; stroke: rgb(255, 127, 14); stroke-opacity: 1; stroke-width: 2px; opacity: 1;"/></g><g class="points"/><g class="text"/></g><g class="trace scatter tracee2defb6e-e56e-4262-9575-897c55924232" style="stroke-miterlimit: 2; opacity: 1;"><g class="fills"/><g class="errorbars"/><g class="lines"><path class="js-line" d="M0,260.3L4.21,260.06L8.41,256.87L12.62,254.59L16.83,250.71L21.03,242.21L25.24,245.9L29.45,245.25L33.65,242.08L42.07,248.73L46.27,247.4L50.48,244.32L54.69,244.69L58.89,245.6L63.1,239.83L67.31,236.67L71.51,237.64L75.72,237.9L79.93,237.18L84.13,244.71L88.34,240.16L92.55,240.62L96.75,239.67L100.96,240.82L105.17,240.78L109.37,244.38L113.58,242.05L121.99,238.66L126.2,240.71L130.41,234.1L134.61,231.3L138.82,229.55L143.03,229.59L151.44,208L155.65,203.91L164.06,199.26L168.27,173.05L176.68,173.59L180.89,175.89L185.09,182.51L189.3,181.06L193.51,179.91L197.71,177.6L201.92,174.92L206.13,173.36L210.33,150.78L214.54,153.38L218.75,153.54L222.95,170.23L227.16,159.02L231.37,155.85L235.57,137.13L239.78,127.45L248.19,131.2L252.4,138.92L256.61,139.96L260.81,151.72L265.02,145.52L269.23,149.85L273.43,149.58L277.64,151.35L281.85,142.44L286.05,149.39L290.26,150.57L294.47,160.47L298.67,153.05L302.88,158.16L307.09,161.12L311.29,136.92L315.5,121.23L319.71,137.37L323.91,130.07L328.12,141.12L332.33,143.14L336.53,152.3L340.74,150.95L344.95,156.33L349.15,153.26L353.36,140.27L357.57,144.59L361.77,142.91L370.19,140.34L374.39,142.66L378.6,143.12L382.81,142.28L387.01,144.97L391.22,142.87L395.43,140.23L399.63,135.48L403.84,144.75L408.05,139.63L412.25,141.47L416.46,139.71L424.87,128.46L429.08,117.4L433.29,112.36L437.49,109.34L441.7,116.81L445.91,120.52L450.11,133.16L454.32,142.12L458.53,134.26L462.73,141.1L466.94,148L471.15,147L475.35,153.28L479.56,154.8L483.77,137.95L487.97,129.52L492.18,126.2L496.39,129.4L500.59,124.26L504.8,124.19L509.01,127.22L513.21,123.15L517.42,133.32L521.63,110.04L525.83,89.86L530.04,89.47L534.25,93.39L538.45,75.94L542.66,90.49L546.87,76.69L551.07,101.11L555.28,57.09L559.49,48.87L563.69,29.31L567.9,13.7L572.11,45.7L576.31,49L580.52,109.23L584.73,71.33L588.93,101.17L593.14,111.41L597.35,127.38L601.55,101.49L605.76,100.81L609.97,74.54L614.17,90.34L618.38,105.82L622.59,118.05L631,79.15" style="vector-effect: non-scaling-stroke; fill: none; stroke: rgb(44, 160, 44); stroke-opacity: 1; stroke-width: 2px; opacity: 1;"/></g><g class="points"/><g class="text"/></g></g></g><g class="overplot"/><path class="xlines-above crisp" d="M0,0" style="fill: none;"/><path class="ylines-above crisp" d="M0,0" style="fill: none;"/><g class="overlines-above"/><g class="xaxislayer-above"><g class="xtick"><text text-anchor="middle" x="0" y="333" transform="translate(39,0)" style="font-family: 'Open Sans', verdana, arial, sans-serif; font-size: 12px; fill: rgb(214, 223, 239); fill-opacity: 1; white-space: pre; opacity: 1;">Jan 2021</text></g><g class="xtick"><text text-anchor="middle" x="0" y="333" style="font-family: 'Open Sans', verdana, arial, sans-serif; font-size: 12px; fill: rgb(214, 223, 239); fill-opacity: 1; white-space: pre; opacity: 1;" transform="translate(169.41,0)">Feb 2021</text></g><g class="xtick"><text text-anchor="middle" x="0" y="333" style="font-family: 'Open Sans', verdana, arial, sans-serif; font-size: 12px; fill: rgb(214, 223, 239); fill-opacity: 1; white-space: pre; opacity: 1;" transform="translate(287.19,0)">Mar 2021</text></g><g class="xtick"><text text-anchor="middle" x="0" y="333" style="font-family: 'Open Sans', verdana, arial, sans-serif; font-size: 12px; fill: rgb(214, 223, 239); fill-opacity: 1; white-space: pre; opacity: 1;" transform="translate(417.6,0)">Apr 2021</text></g><g class="xtick"><text text-anchor="middle" x="0" y="333" style="font-family: 'Open Sans', verdana, arial, sans-serif; font-size: 12px; fill: rgb(214, 223, 239); fill-opacity: 1; white-space: pre; opacity: 1;" transform="translate(543.8,0)">May 2021</text></g></g><g class="yaxislayer-above"><g class="ytick"><text text-anchor="end" x="38" y="4.199999999999999" transform="translate(0,286.03)" style="font-family: 'Open Sans', verdana, arial, sans-serif; font-size: 12px; fill: rgb(214, 223, 239); fill-opacity: 1; white-space: pre; opacity: 1;">2</text></g><g class="ytick"><text text-anchor="end" x="38" y="4.199999999999999" style="font-family: 'Open Sans', verdana, arial, sans-serif; font-size: 12px; fill: rgb(214, 223, 239); fill-opacity: 1; white-space: pre; opacity: 1;" transform="translate(0,245.5)">4</text></g><g class="ytick"><text text-anchor="end" x="38" y="4.199999999999999" style="font-family: 'Open Sans', verdana, arial, sans-serif; font-size: 12px; fill: rgb(214, 223, 239); fill-opacity: 1; white-space: pre; opacity: 1;" transform="translate(0,204.97)">6</text></g><g class="ytick"><text text-anchor="end" x="38" y="4.199999999999999" style="font-family: 'Open Sans', verdana, arial, sans-serif; font-size: 12px; fill: rgb(214, 223, 239); fill-opacity: 1; white-space: pre; opacity: 1;" transform="translate(0,164.44)">8</text></g><g class="ytick"><text text-anchor="end" x="38" y="4.199999999999999" style="font-family: 'Open Sans', verdana, arial, sans-serif; font-size: 12px; fill: rgb(214, 223, 239); fill-opacity: 1; white-space: pre; opacity: 1;" transform="translate(0,123.91)">10</text></g><g class="ytick"><text text-anchor="end" x="38" y="4.199999999999999" style="font-family: 'Open Sans', verdana, arial, sans-serif; font-size: 12px; fill: rgb(214, 223, 239); fill-opacity: 1; white-space: pre; opacity: 1;" transform="translate(0,83.38)">12</text></g></g><g class="overaxes-above"/></g></g><g class="polarlayer"/><g class="ternarylayer"/><g class="geolayer"/><g class="funnelarealayer"/><g class="pielayer"/><g class="iciclelayer"/><g class="treemaplayer"/><g class="sunburstlayer"/><g class="glimages"/><defs id="topdefs-097514"><g class="clips"/><clipPath id="legend097514"><rect width="304" height="29" x="0" y="0"/></clipPath></defs><g class="layer-above"><g class="imagelayer"/><g class="shapelayer"/></g><g class="infolayer"><g class="legend" pointer-events="all" transform="translate(366,11.519999999999996)"><rect class="bg" shape-rendering="crispEdges" style="stroke: rgb(68, 68, 68); stroke-opacity: 1; fill: rgb(33, 34, 44); fill-opacity: 1; stroke-width: 0px;" width="304" height="29" x="0" y="0"/><g class="scrollbox" transform="" clip-path="url(#legend097514)"><g class="groups"><g class="traces" transform="translate(0,14.5)" style="opacity: 1;"><text class="legendtext" text-anchor="start" x="40" y="4.680000000000001" style="font-family: 'Open Sans', verdana, arial, sans-serif; font-size: 12px; fill: rgb(214, 223, 239); fill-opacity: 1; white-space: pre;">BTC-USD</text><g class="layers" style="opacity: 1;"><g class="legendfill"/><g class="legendlines"><path class="js-line" d="M5,0h30" style="fill: none; stroke: rgb(31, 119, 180); stroke-opacity: 1; stroke-width: 2px;"/></g><g class="legendsymbols"><g class="legendpoints"/></g></g><rect class="legendtoggle" x="0" y="-9.5" width="98.171875" height="19" style="fill: rgb(0, 0, 0); fill-opacity: 0;"/></g><g class="traces" transform="translate(100.671875,14.5)" style="opacity: 1;"><text class="legendtext" text-anchor="start" x="40" y="4.680000000000001" style="font-family: 'Open Sans', verdana, arial, sans-serif; font-size: 12px; fill: rgb(214, 223, 239); fill-opacity: 1; white-space: pre;">ETH-USD</text><g class="layers" style="opacity: 1;"><g class="legendfill"/><g class="legendlines"><path class="js-line" d="M5,0h30" style="fill: none; stroke: rgb(255, 127, 14); stroke-opacity: 1; stroke-width: 2px;"/></g><g class="legendsymbols"><g class="legendpoints"/></g></g><rect class="legendtoggle" x="0" y="-9.5" width="98.171875" height="19" style="fill: rgb(0, 0, 0); fill-opacity: 0;"/></g><g class="traces" transform="translate(201.34375,14.5)" style="opacity: 1;"><text class="legendtext" text-anchor="start" x="40" y="4.680000000000001" style="font-family: 'Open Sans', verdana, arial, sans-serif; font-size: 12px; fill: rgb(214, 223, 239); fill-opacity: 1; white-space: pre;">ADA-USD</text><g class="layers" style="opacity: 1;"><g class="legendfill"/><g class="legendlines"><path class="js-line" d="M5,0h30" style="fill: none; stroke: rgb(44, 160, 44); stroke-opacity: 1; stroke-width: 2px;"/></g><g class="legendsymbols"><g class="legendpoints"/></g></g><rect class="legendtoggle" x="0" y="-9.5" width="99.828125" height="19" style="fill: rgb(0, 0, 0); fill-opacity: 0;"/></g></g></g><rect class="scrollbar" rx="20" ry="3" width="0" height="0" style="fill: rgb(128, 139, 164); fill-opacity: 1;" x="0" y="0"/></g><g class="g-gtitle"/><g class="g-xtitle"/><g class="g-ytitle"/></g></svg>