<svg class="main-svg" xmlns="http://www.w3.org/2000/svg" xmlns:xlink="http://www.w3.org/1999/xlink" width="700" height="350" viewBox="0 0 700 350"><rect x="0" y="0" width="700" height="350" style="fill: rgb(33, 34, 44); fill-opacity: 1;"/><defs id="defs-079238"><g class="clips"><clipPath id="clip079238xyplot" class="plotclip"><rect width="634" height="274"/></clipPath><clipPath class="axesclip" id="clip079238x"><rect x="36" y="0" width="634" height="350"/></clipPath><clipPath class="axesclip" id="clip079238y"><rect x="0" y="46" width="700" height="274"/></clipPath><clipPath class="axesclip" id="clip079238xy"><rect x="36" y="46" width="634" height="274"/></clipPath></g><g class="gradients"/><g class="patterns"/></defs><g class="bglayer"/><g class="layer-below"><g class="imagelayer"/><g class="shapelayer"/></g><g class="cartesianlayer"><g class="subplot xy"><g class="layer-subplot"><g class="shapelayer"><path data-index="0" fill-rule="evenodd" d="M67.08,232.82H634V133.18H67.08Z" clip-path="url(#clip079238xy)" style="opacity: 0.2; stroke: rgb(0, 0, 0); stroke-opacity: 0; fill: rgb(128, 0, 128); fill-opacity: 1; stroke-width: 0px;"/></g><g class="imagelayer"/></g><g class="gridlayer"><g class="x"><path class="xgrid crisp" transform="translate(115.18,0)" d="M0,46v274" style="stroke: rgb(47, 62, 78); stroke-opacity: 1; stroke-width: 1px;"/><path class="xgrid crisp" transform="translate(243.3,0)" d="M0,46v274" style="stroke: rgb(47, 62, 78); stroke-opacity: 1; stroke-width: 1px;"/><path class="xgrid crisp" transform="translate(371.43,0)" d="M0,46v274" style="stroke: rgb(47, 62, 78); stroke-opacity: 1; stroke-width: 1px;"/><path class="xgrid crisp" transform="translate(499.91,0)" d="M0,46v274" style="stroke: rgb(47, 62, 78); stroke-opacity: 1; stroke-width: 1px;"/><path class="xgrid crisp" transform="translate(628.03,0)" d="M0,46v274" style="stroke: rgb(47, 62, 78); stroke-opacity: 1; stroke-width: 1px;"/></g><g class="y"><path class="ygrid crisp" transform="translate(0,257.73)" d="M36,0h634" style="stroke: rgb(47, 62, 78); stroke-opacity: 1; stroke-width: 1px;"/><path class="ygrid crisp" transform="translate(0,207.91)" d="M36,0h634" style="stroke: rgb(47, 62, 78); stroke-opacity: 1; stroke-width: 1px;"/><path class="ygrid crisp" transform="translate(0,158.09)" d="M36,0h634" style="stroke: rgb(47, 62, 78); stroke-opacity: 1; stroke-width: 1px;"/><path class="ygrid crisp" transform="translate(0,108.27000000000001)" d="M36,0h634" style="stroke: rgb(47, 62, 78); stroke-opacity: 1; stroke-width: 1px;"/><path class="ygrid crisp" transform="translate(0,58.45)" d="M36,0h634" style="stroke: rgb(47, 62, 78); stroke-opacity: 1; stroke-width: 1px;"/></g></g><g class="zerolinelayer"><path class="yzl zl crisp" transform="translate(0,307.55)" d="M36,0h634" style="stroke: rgb(47, 62, 78); stroke-opacity: 1; stroke-width: 2px;"/></g><path class="xlines-below"/><path class="ylines-below"/><g class="overlines-below"/><g class="xaxislayer-below"/><g class="yaxislayer-below"/><g class="overaxes-below"/><g class="plot" transform="translate(36,46)" clip-path="url(#clip079238xyplot)"><g class="scatterlayer mlayer"><g class="trace scatter tracedb039a35-6efc-4748-a2e2-f901dc367544" style="stroke-miterlimit: 2; opacity: 1;"><g class="fills"/><g class="errorbars"/><g class="lines"><path class="js-line" d="M36,100.11L36.35,91.27L36.7,54L37.75,129.94L38.1,114.89L38.46,107.34L38.81,112.22L39.16,136.88L39.86,145.41L40.21,144.76L40.56,160.27L40.91,169.08L41.26,199.48L42.67,138.91L43.02,156.2L43.72,183.35L44.07,170.59L44.42,159.05L44.77,159.59L45.12,148.91L45.48,148.79L45.83,126.78L46.18,82.91L46.53,102.33L46.88,93.66L47.23,92.98L47.58,112.97L47.93,104.96L48.28,113.1L48.64,75.62L48.99,73.67L49.34,79.28L50.39,52.37L50.74,62.65L51.79,38.51L52.15,55.04L52.5,51.94L52.85,61.82L53.9,52.93L54.25,54.79L54.6,61.57L54.95,71.14L55.3,101.25L55.66,97.06L56.01,113.33L56.71,146.23L57.06,113.42L57.41,116.56L57.76,91.47L58.46,75.08L58.82,80.87L59.52,72.83L59.87,91.84L60.57,62.03L60.92,81.77L61.97,147.71L62.33,126.3L62.68,133.29L63.03,122.46L63.38,113.25L63.73,121.82L64.08,125.74L64.78,103.32L65.13,109.26L65.48,111.22L65.84,110.85L66.19,86.38L67.59,42.65L67.94,59.4L68.29,66.05L68.64,44.82L69.35,44.72L69.7,42.9L70.75,18.24L71.1,36.54L71.8,65.3L72.15,60.03L72.86,67.27L73.21,66.52L73.56,65.4L73.91,59.48L74.26,64.4L74.61,66.1L76.02,162.28L76.37,151.91L76.72,152.93L77.07,173.46L77.42,143.85L77.77,143.14L78.12,158.24L78.82,207.58L79.18,186.04L79.53,187.9L79.88,161.69L80.58,141.83L80.93,97.45L81.28,96.27L81.63,109.19L82.33,150.83L82.69,142.36L83.04,146.56L83.39,143.1L83.74,116.39L85.14,179.9L85.49,182.07L85.84,205.7L86.2,184.66L86.55,187.44L87.6,179.26L87.95,165.28L88.65,176.34L89,161.19L89.35,168.71L89.71,148.5L90.06,148.83L90.41,163.08L91.81,201.77L92.16,185.81L92.51,199.06L92.87,192.98L93.22,172.87L93.92,195.1L94.27,171.84L94.97,149.1L95.32,125.04L96.38,103.22L96.73,68.27L97.08,73.63L97.43,90.81L98.48,118.46L98.83,111.42L99.18,112.89L99.53,101.65L99.89,120.38L100.59,120.26L100.94,128.34L101.29,111.18L101.64,128.99L101.99,147.88L102.69,149.32L103.05,158.3L103.4,158.75L103.75,138.18L105.15,197.22L105.5,200.5L105.85,220.02L106.2,208.72L106.56,195.19L107.96,146.03L108.31,143.63L109.36,178.85L109.71,146.07L110.42,178.55L110.77,165.8L112.17,200.44L112.52,198.3L112.87,209.38L113.23,189.5L114.28,170.57L114.63,172.35L114.98,108.33L116.03,85.09L116.38,103.66L116.74,120.06L117.09,84.12L117.44,80.57L117.79,61.83L118.49,74.07L118.84,58.86L119.19,51.69L119.54,86.14L120.25,107.8L120.95,107.28L121.3,103.04L121.65,103.06L122,105.35L122.35,97.27L122.7,110.73L123.05,108.68L123.41,111.32L124.11,151.1L124.46,120.28L125.51,172.39L125.86,165.64L126.21,160.78L126.56,161.66L126.92,174.68L127.27,212.5L127.97,208.49L128.32,185.19L128.67,180.9L129.02,186.89L129.37,204.4L129.72,193.99L130.07,181.84L131.13,208.8L131.48,179.97L131.83,178.64L132.18,163.06L133.59,182.44L133.94,156.88L134.29,125.86L134.99,126.1L135.34,125.19L136.39,189.52L136.74,194.1L137.1,177.25L137.45,187.01L137.8,187.83L138.15,193.72L138.5,171.14L139.9,195.67L140.25,187.66L141.66,145.68L142.01,181.49L143.06,141.36L143.41,142.07L143.77,148.7L144.12,145.89L144.47,146.39L145.17,98.43L145.52,100.85L145.87,110.26L146.22,123.26L146.57,122.61L146.92,111.41L147.63,148.78L147.98,137.53L148.33,128.94L149.38,83.31L149.73,96.37L150.08,99.57L150.43,96.74L150.79,81.81L151.14,40.08L151.49,58.16L151.84,66.99L152.54,60.17L152.89,62.67L153.24,72.16L153.59,117.14L155.7,172.29L156.05,227.19L156.4,230.11L156.75,205.65L157.1,233.44L157.46,230.3L157.81,223.32L158.16,223.6L158.51,217.64L160.26,166.33L160.61,171.64L162.02,100.72L162.37,102.07L162.72,109.45L163.42,82.36L163.77,89.01L164.13,95.15L164.48,106.31L164.83,79.2L165.18,78.79L165.53,57.05L165.88,61.15L166.23,116.03L167.28,169.09L167.64,162.79L167.99,173.79L168.34,189.38L168.69,183.36L169.04,168.51L169.39,171.13L169.74,184.54L170.79,203.43L171.15,166L172.2,81.25L172.55,87.81L172.9,109.42L173.6,124.72L173.95,118.84L174.66,129.78L175.01,126.06L175.36,99.66L177.11,154.07L177.46,149.31L178.17,101.33L178.52,109.76L178.87,197.48L179.57,174.16L179.92,178.36L180.27,122.93L180.62,112.15L180.97,113.14L181.33,134.25L181.68,147.39L182.03,138.03L182.38,139.44L183.08,147.31L183.43,143.41L183.78,98.62L184.13,102.11L184.48,111.91L184.84,115.35L185.19,221.89L185.54,226.41L185.89,211.39L186.59,162.37L186.94,190.57L188,143.53L188.35,134.7L189.05,157L189.4,149.17L189.75,143.78L190.45,108.78L190.8,189.58L192.56,238.15L192.91,247.36L193.96,239.43L194.31,244.29L194.66,233.67L195.02,235.64L195.37,235.38L196.07,197.9L196.42,200.9L196.77,191.89L197.12,194.27L197.47,182.88L197.82,167.27L198.18,179.98L198.53,179.01L198.88,185.17L199.23,167.37L199.58,168.67L199.93,163.61L200.28,167.04L200.63,195.42L201.69,216.41L202.04,213.16L202.39,167.65L203.09,146.45L203.44,93.68L204.49,108.24L204.84,92.62L205.9,119.17L206.25,99.73L207.65,128.25L208,125.26L208.36,156.75L208.71,140.89L209.06,151.6L210.11,118.34L210.46,120L211.87,171.68L212.22,144.7L212.92,165.26L213.27,154.39L213.62,159.15L213.97,148.41L214.67,189.8L215.02,181.26L215.38,184.19L215.73,139.88L216.08,143.05L216.43,140.3L216.78,122.1L217.13,178.7L217.48,170.96L217.83,168.38L218.18,178.71L218.54,167.33L218.89,176.04L219.59,155.53L219.94,168.34L220.64,186.16L220.99,120.16L221.34,119.18L221.69,113.75L222.4,91.33L222.75,104.59L223.1,103.05L223.45,105.68L223.8,110.44L224.15,88.24L225.2,44.69L225.56,51.29L225.91,68.16L226.26,56.08L226.61,129.48L227.66,113.2L228.01,111.28L228.36,111.65L228.72,113.33L229.07,120.09L229.42,162.35L229.77,143.07L230.47,145.41L230.82,150.05L231.17,162.59L231.52,94.29L231.87,125.37L232.58,124.08L232.93,120.33L233.63,97.62L233.98,100.76L234.33,71.22L235.38,108.85L235.74,104.59L236.09,118.09L236.44,113.5L236.79,117.65L237.14,117.08L237.49,92.64L238.19,93.63L238.54,108.24L239.25,94.01L239.6,45.02L239.95,43.65L240.3,38.34L241.35,31.4L241.7,21.31L243.46,71.02L243.81,67.9L244.86,111.31L245.21,103.31L246.27,127.38L246.62,124.25L246.97,101.78L247.32,125.12L247.67,112.39L248.02,106.45L248.72,115.65L249.08,110.63L249.43,117.4L249.78,113.9L250.13,108.42L250.83,86.75L251.18,89.48L251.53,98.65L251.88,101.25L252.23,82.34L253.29,30.57L253.64,42.15L254.69,27.26L255.04,48.76L255.74,87.98L256.1,70.7L258.2,107.72L258.55,91.57L259.96,123.34L260.31,93.14L260.66,88.67L261.01,109.41L261.71,144.95L262.06,131.19L262.41,139.58L262.77,136.42L263.12,142.12L263.47,181.03L263.82,169.03L264.17,170.86L265.57,126.78L265.92,128.16L266.98,72.08L267.33,67.15L269.44,23.01L269.79,82.47L270.14,76.66L270.49,89.44L271.19,118.58L271.54,112.23L271.89,102.82L273.3,130.41L273.65,122.56L274,127.7L274.35,150.85L274.7,136.8L275.05,148.18L275.4,146.55L275.75,148.65L276.1,133.62L276.81,172.23L277.16,144.86L277.51,144.28L277.86,144.92L278.21,149.59L278.91,180.42L279.26,176.69L279.61,164.1L279.97,174.88L280.32,174.11L280.67,152.21L281.02,173.23L281.37,131.39L281.72,122.28L282.07,148.21L283.13,122.23L283.48,84.35L284.18,64.12L284.53,65.52L284.88,68.46L286.28,101.89L286.64,137.63L287.34,141.95L287.69,153.04L288.04,153.74L288.39,163.21L288.74,158.62L289.09,190.36L289.44,191.82L289.79,178.5L290.15,172.17L290.5,181.16L291.55,149.47L291.9,166.94L293.31,158.62L293.66,142.4L294.36,116.52L294.71,140.99L295.06,122.16L295.41,126.25L295.76,140.39L296.11,141.15L296.46,112.48L296.82,86.47L297.17,94.76L297.52,95.82L297.87,103.33L298.22,144.11L298.57,175.51L298.92,174.57L299.27,164.59L299.62,150L299.97,182.84L300.33,172.27L300.68,187.04L301.73,249.13L302.08,238.64L302.43,236.68L302.78,237.81L303.13,218.75L303.49,217.65L303.84,212.52L304.54,220.69L304.89,218.2L305.24,224.9L305.59,197.95L306.64,103.99L307,132.11L307.35,130.84L307.7,122.12L308.75,159.17L309.1,146.62L309.45,148.69L309.8,147.95L310.15,114.32L311.56,205.55L311.91,120.61L312.61,96.21L312.96,110.81L313.31,99.02L313.67,102.49L314.02,104.66L314.72,96.72L315.07,106.42L315.77,97.31L316.12,70.81L316.47,74.48L316.82,131.73L317.53,164.88L317.88,164.13L318.23,172.61L318.58,162.49L318.93,168.47L319.28,183.35L319.63,186.71L319.98,181.97L321.04,213.76L321.39,220.76L322.09,218.64L322.44,245.11L324.2,170.22L324.55,177.52L324.9,182.27L325.25,176.15L325.6,174.59L325.95,176.5L327.36,98.29L327.71,122.2L329.11,182.81L329.46,182.38L329.81,164.89L330.51,188.71L330.87,132.22L331.92,159.01L332.27,137.5L332.62,138.12L332.97,135.3L334.03,137.14L334.38,122.82L334.73,121.94L335.08,116.34L335.43,99.96L335.78,144.54L336.13,153.75L336.48,125.66L336.83,120.47L337.18,150.59L337.89,77.22L338.24,81.16L338.59,100.98L338.94,89.15L339.29,102.93L339.99,95.59L340.34,75L340.69,75.01L341.05,66.91L341.75,70.51L342.1,83.58L342.8,107.59L343.15,105.21L343.5,107.79L343.85,123.12L344.21,117.8L344.56,112.52L344.91,95.69L345.26,104.77L345.61,110.17L345.96,94.98L346.31,113.38L346.66,112.05L347.01,101.05L347.36,99.64L347.72,110.47L349.12,56.2L349.47,56.53L350.17,90.89L350.52,82L350.87,96.56L351.23,79.83L352.28,117.78L352.63,97.51L353.33,144.14L353.68,142.52L354.03,147.03L354.74,145.03L355.09,174.51L356.14,197.68L356.49,192.1L356.84,192.07L357.19,167.02L357.54,195.51L357.9,180.25L358.25,161.75L358.6,161.95L358.95,169.37L359.3,204.46L359.65,201.44L360,195.42L360.35,178.73L360.7,225.87L361.76,195.93L362.11,209.71L363.16,186.22L363.51,187.03L363.86,184.62L364.92,156.44L365.27,158.18L365.62,81.13L366.67,119.99L367.02,94.38L368.43,116.91L368.78,112.31L369.13,98.51L369.48,101.15L369.83,117.27L370.18,108.2L370.53,114.09L370.88,116.36L371.23,109.61L371.59,87.64L372.64,138.27L372.99,121.61L373.34,122.41L373.69,118.3L374.04,120.6L374.39,163.18L375.1,149.29L375.45,127.64L376.5,96.13L376.85,88.85L377.2,92.3L377.55,53.48L377.9,71.69L378.26,62.94L378.61,64.22L378.96,60.9L379.31,40.3L380.01,40.57L380.36,36.16L380.71,49.21L381.77,113.76L382.12,106.91L382.47,120.04L382.82,102.43L383.17,123.41L383.52,125.47L383.87,115.84L384.22,113.97L384.57,116.39L384.92,127.24L385.28,163.63L386.68,125.38L387.03,135.91L387.73,145.43L388.08,132.19L388.44,124.15L388.79,146.6L389.14,121.31L389.49,144.34L389.84,132.46L390.19,114.15L390.54,122.93L390.89,121.92L391.24,101.88L391.95,103.39L392.3,110.5L392.65,147.77L393.35,145.71L393.7,141.28L394.05,176.96L394.4,136.39L394.75,151.31L395.1,166.31L395.46,160.95L395.81,160.67L396.16,172.12L396.51,143.12L396.86,146.17L397.21,169.85L397.56,139.2L397.91,161.04L398.26,170.59L398.62,153.72L398.97,154.32L399.32,166.71L399.67,154.47L400.37,155.7L400.72,153.31L401.07,153.39L401.42,163.83L401.77,165.26L402.13,125.33L402.48,138.31L402.83,127.14L403.18,118.53L403.53,121.06L403.88,132.72L404.23,126.56L404.58,140.13L405.28,127.6L405.64,133.39L405.99,122.41L406.34,160.41L407.39,87.95L407.74,104.28L408.8,38.43L409.15,50.23L409.5,42.38L410.55,31.52L410.9,75.92L411.6,76.28L411.95,69.7L412.31,70.66L413.36,82.63L413.71,102.57L414.41,120.39L414.76,114.06L415.46,134.94L415.82,93.97L416.17,87.15L416.52,105.31L417.57,139.77L417.92,141.34L418.27,138.53L418.62,143.87L418.98,140.59L419.33,142.08L419.68,159.94L420.73,145.98L421.08,168.92L421.43,138.2L421.78,153.61L422.13,191.85L422.49,171.83L422.84,183.29L423.19,179.28L423.54,178.57L423.89,174.71L424.24,176.82L424.59,168.96L425.64,184.94L426,168.56L426.35,175.27L426.7,153.23L427.75,68.61L428.1,89.32L429.16,135.73L429.51,117.56L430.21,122.92L430.56,114.88L431.96,154.42L432.31,156.35L432.67,167.25L433.02,151.48L434.07,105.17L434.42,120.5L435.82,79.88L436.18,96.36L436.53,90.46L436.88,69.96L437.23,84.69L437.58,80.25L437.93,79.57L438.28,75.32L438.63,51.23L438.98,39.72L439.34,40.45L439.69,45.78L440.04,46.5L440.39,54.56L440.74,56.99L441.09,40.13L441.44,65.4L441.79,63.77L442.14,50.76L442.49,48.64L442.85,52.09L443.9,77.24L444.25,57.36L444.6,55.57L444.95,91.16L445.3,78.55L445.65,83.86L446,93.74L446.71,69.31L447.06,70.15L447.41,82.02L447.76,84.86L448.11,68.94L448.81,64.69L449.16,80.04L449.87,39.58L450.22,57.44L450.92,45.55L451.27,65.89L451.97,120.69L452.32,105.8L453.03,88.72L453.38,119.07L454.08,112.38L454.43,137.08L455.13,123.13L455.48,125.47L455.83,148.99L456.54,117.81L457.24,119.09L457.59,120.5L457.94,145.67L458.29,121.41L458.64,97.69L459.69,61.91L460.05,72.47L460.4,84.64L460.75,58.45L461.1,72.52L461.45,63.46L461.8,54.15L462.15,50.35L462.5,55.73L463.21,52.59L463.56,54.07L463.91,60.01L464.26,59.54L464.61,51.28L464.96,42.63L465.31,47.3L465.66,45.1L466.72,29.07L467.07,37.62L468.12,98.86L468.47,92.15L468.82,86.72L469.87,122.68L470.23,113.3L470.93,144.82L471.28,184.13L473.03,147.76L473.39,187.96L474.44,150.39L474.79,156.89L475.14,160.11L476.9,78.12L477.25,83.54L478.3,55.77L478.65,55.47L479.35,64.73L479.7,51.18L480.41,59.62L480.76,57.89L481.11,56.83L482.16,48.04L482.51,92.96L483.57,141.36L483.92,141.95L484.27,142.1L484.62,153.98L484.97,129.78L485.32,139.99L485.67,144.88L486.02,150.49L486.37,172.15L487.08,167.98L487.43,145.87L488.48,73.08L488.83,70.84L489.18,59.99L489.53,69.76L489.88,106.51L490.94,89.07L491.29,89.02L491.64,89.23L491.99,101.93L493.39,172.92L493.75,147.67L494.1,166.77L494.45,156.63L494.8,123.54L495.15,124.64L495.5,138.3L495.85,128.24L496.2,129.45L496.55,144.67L497.26,95.3L497.61,108.53L497.96,108.5L498.31,87.49L498.66,108.02L499.01,102.42L499.36,100.55L499.71,115.19L500.06,97.71L500.41,103.98L500.77,102.66L502.17,159.43L502.52,147.22L502.87,150.71L503.22,177.5L503.57,180.45L503.93,198.8L504.28,203.93L504.63,166.02L505.68,188.83L506.03,154.84L507.08,128.14L507.44,153.19L508.49,106.88L508.84,94.99L509.19,92.7L509.54,127.29L509.89,128.07L510.24,158.97L510.59,153.71L510.95,176.18L512,194.82L512.35,186.44L512.7,229.26L513.05,201.07L513.4,212.26L514.11,223.35L514.46,196.35L514.81,201.69L515.16,181.06L515.86,191.56L516.21,186.89L517.26,162.86L517.62,132.41L518.67,147.78L519.02,130.04L519.37,173.25L519.72,171.71L520.07,148.08L520.42,148.08L520.77,125.83L521.13,130.94L521.48,117.68L521.83,118.25L522.18,117L522.88,143.85L523.23,143.03L523.58,137.2L523.93,138.24L524.29,148.29L524.64,141.9L524.99,160.94L525.34,149.81L525.69,169.55L526.04,156.4L526.39,164.03L526.74,177.31L527.44,158.98L527.8,165.58L529.2,121.5L529.55,123.94L529.9,135.5L530.25,151.36L530.6,116.12L532.01,172.37L532.36,163.57L532.71,157.62L534.47,199.74L534.82,156.83L537.98,45.93L538.33,56.65L538.68,77.03L539.03,74.4L539.38,73.15L539.73,76.41L540.08,72.57L540.78,66.87L541.13,78.69L541.49,76.57L541.84,92.14L542.54,106.05L542.89,100.03L543.24,99.92L543.59,85.76L544.65,99.3L545,94.69L545.35,91.99L545.7,105.33L546.05,95.53L546.4,108.48L546.75,119.99L547.45,119.65L547.8,127.34L548.16,122.61L548.51,122.9L548.86,128.86L549.56,107.19L549.91,117.09L550.26,130.88L551.31,111.31L551.67,142.18L552.37,140.26L552.72,169.01L553.07,164.91L554.12,136.98L554.47,141.77L554.82,147.48L555.88,168.7L556.23,194.08L557.28,146.29L557.63,149.05L557.98,151.98L558.34,154.44L558.69,154.07L559.04,176.14L559.39,180.65L559.74,160.53L561.49,71.48L561.85,68.65L562.2,85.7L562.55,66.79L562.9,62.85L563.25,66.89L563.6,51.12L565,57.43L565.36,60.19L565.71,60L566.06,61.24L566.41,61.17L566.76,66.64L567.81,101.34L568.16,102.38L568.52,104.8L568.87,113.51L569.92,133.85L570.27,131.58L571.67,155.37L572.03,142.3L573.43,110.66L573.78,93.27L574.13,94.6L574.48,106.15L574.83,122.38L575.18,117.11L575.54,104.89L576.94,163.66L577.29,153.51L577.64,146.6L577.99,163.17L578.34,206.29L578.7,192.79L579.05,186.88L579.4,171.4L579.75,187.52L580.1,182.64L581.85,139.43L582.21,161.59L582.56,188.82L582.91,183.84L583.26,168.16L584.31,199.22L584.66,182.48L585.01,171.4L585.36,188.71L585.72,205.14L586.07,187.97L586.42,185.54L586.77,187.4L587.12,182.39L587.47,154.24L587.82,157.31L588.17,164.74L589.58,109.7L589.93,128.59L590.28,130.87L590.63,93.29L591.33,159.2L591.68,141.94L592.03,136.16L592.39,128.56L592.74,131.37L593.09,141.17L594.49,217.43L594.84,214.45L595.19,217.24L595.54,217.14L595.9,188.92L596.25,164.41L596.6,183.08L596.95,169.96L597.3,192.3L598,189.58" style="vector-effect: non-scaling-stroke; fill: none; stroke: rgb(31, 119, 180); stroke-opacity: 1; stroke-width: 2px; opacity: 1;"/></g><g class="points"/><g class="text"/></g><g class="trace scatter tracece096893-52ec-4610-a6b1-eb7bc0fef79f" style="stroke-miterlimit: 2; opacity: 1;"><g class="fills"/><g class="errorbars"/><g class="lines"/><g class="points"><path class="point" transform="translate(41.26,199.48)" d="M-4.62,2H4.62L0,-4Z" style="opacity: 1; stroke-width: 1px; fill: rgb(55, 177, 63); fill-opacity: 1; stroke: rgb(38, 123, 44); stroke-opacity: 1;"/><path class="point" transform="translate(78.82,207.58)" d="M-4.62,2H4.62L0,-4Z" style="opacity: 1; stroke-width: 1px; fill: rgb(55, 177, 63); fill-opacity: 1; stroke: rgb(38, 123, 44); stroke-opacity: 1;"/><path class="point" transform="translate(85.84,205.7)" d="M-4.62,2H4.62L0,-4Z" style="opacity: 1; stroke-width: 1px; fill: rgb(55, 177, 63); fill-opacity: 1; stroke: rgb(38, 123, 44); stroke-opacity: 1;"/><path class="point" transform="translate(91.11,199.92)" d="M-4.62,2H4.62L0,-4Z" style="opacity: 1; stroke-width: 1px; fill: rgb(55, 177, 63); fill-opacity: 1; stroke: rgb(38, 123, 44); stroke-opacity: 1;"/><path class="point" transform="translate(93.92,195.1)" d="M-4.62,2H4.62L0,-4Z" style="opacity: 1; stroke-width: 1px; fill: rgb(55, 177, 63); fill-opacity: 1; stroke: rgb(38, 123, 44); stroke-opacity: 1;"/><path class="point" transform="translate(105.15,197.22)" d="M-4.62,2H4.62L0,-4Z" style="opacity: 1; stroke-width: 1px; fill: rgb(55, 177, 63); fill-opacity: 1; stroke: rgb(38, 123, 44); stroke-opacity: 1;"/><path class="point" transform="translate(111.47,191.64)" d="M-4.62,2H4.62L0,-4Z" style="opacity: 1; stroke-width: 1px; fill: rgb(55, 177, 63); fill-opacity: 1; stroke: rgb(38, 123, 44); stroke-opacity: 1;"/><path class="point" transform="translate(127.27,212.5)" d="M-4.62,2H4.62L0,-4Z" style="opacity: 1; stroke-width: 1px; fill: rgb(55, 177, 63); fill-opacity: 1; stroke: rgb(38, 123, 44); stroke-opacity: 1;"/><path class="point" transform="translate(129.02,186.89)" d="M-4.62,2H4.62L0,-4Z" style="opacity: 1; stroke-width: 1px; fill: rgb(55, 177, 63); fill-opacity: 1; stroke: rgb(38, 123, 44); stroke-opacity: 1;"/><path class="point" transform="translate(136.39,189.52)" d="M-4.62,2H4.62L0,-4Z" style="opacity: 1; stroke-width: 1px; fill: rgb(55, 177, 63); fill-opacity: 1; stroke: rgb(38, 123, 44); stroke-opacity: 1;"/><path class="point" transform="translate(139.9,195.67)" d="M-4.62,2H4.62L0,-4Z" style="opacity: 1; stroke-width: 1px; fill: rgb(55, 177, 63); fill-opacity: 1; stroke: rgb(38, 123, 44); stroke-opacity: 1;"/><path class="point" transform="translate(156.05,227.19)" d="M-4.62,2H4.62L0,-4Z" style="opacity: 1; stroke-width: 1px; fill: rgb(55, 177, 63); fill-opacity: 1; stroke: rgb(38, 123, 44); stroke-opacity: 1;"/><path class="point" transform="translate(168.34,189.38)" d="M-4.62,2H4.62L0,-4Z" style="opacity: 1; stroke-width: 1px; fill: rgb(55, 177, 63); fill-opacity: 1; stroke: rgb(38, 123, 44); stroke-opacity: 1;"/><path class="point" transform="translate(170.09,195.29)" d="M-4.62,2H4.62L0,-4Z" style="opacity: 1; stroke-width: 1px; fill: rgb(55, 177, 63); fill-opacity: 1; stroke: rgb(38, 123, 44); stroke-opacity: 1;"/><path class="point" transform="translate(178.87,197.48)" d="M-4.62,2H4.62L0,-4Z" style="opacity: 1; stroke-width: 1px; fill: rgb(55, 177, 63); fill-opacity: 1; stroke: rgb(38, 123, 44); stroke-opacity: 1;"/><path class="point" transform="translate(185.19,221.89)" d="M-4.62,2H4.62L0,-4Z" style="opacity: 1; stroke-width: 1px; fill: rgb(55, 177, 63); fill-opacity: 1; stroke: rgb(38, 123, 44); stroke-opacity: 1;"/><path class="point" transform="translate(186.94,190.57)" d="M-4.62,2H4.62L0,-4Z" style="opacity: 1; stroke-width: 1px; fill: rgb(55, 177, 63); fill-opacity: 1; stroke: rgb(38, 123, 44); stroke-opacity: 1;"/><path class="point" transform="translate(190.8,189.58)" d="M-4.62,2H4.62L0,-4Z" style="opacity: 1; stroke-width: 1px; fill: rgb(55, 177, 63); fill-opacity: 1; stroke: rgb(38, 123, 44); stroke-opacity: 1;"/><path class="point" transform="translate(200.63,195.42)" d="M-4.62,2H4.62L0,-4Z" style="opacity: 1; stroke-width: 1px; fill: rgb(55, 177, 63); fill-opacity: 1; stroke: rgb(38, 123, 44); stroke-opacity: 1;"/><path class="point" transform="translate(214.32,189.69)" d="M-4.62,2H4.62L0,-4Z" style="opacity: 1; stroke-width: 1px; fill: rgb(55, 177, 63); fill-opacity: 1; stroke: rgb(38, 123, 44); stroke-opacity: 1;"/><path class="point" transform="translate(289.09,190.36)" d="M-4.62,2H4.62L0,-4Z" style="opacity: 1; stroke-width: 1px; fill: rgb(55, 177, 63); fill-opacity: 1; stroke: rgb(38, 123, 44); stroke-opacity: 1;"/><path class="point" transform="translate(300.68,187.04)" d="M-4.62,2H4.62L0,-4Z" style="opacity: 1; stroke-width: 1px; fill: rgb(55, 177, 63); fill-opacity: 1; stroke: rgb(38, 123, 44); stroke-opacity: 1;"/><path class="point" transform="translate(311.21,204.12)" d="M-4.62,2H4.62L0,-4Z" style="opacity: 1; stroke-width: 1px; fill: rgb(55, 177, 63); fill-opacity: 1; stroke: rgb(38, 123, 44); stroke-opacity: 1;"/><path class="point" transform="translate(320.33,210.58)" d="M-4.62,2H4.62L0,-4Z" style="opacity: 1; stroke-width: 1px; fill: rgb(55, 177, 63); fill-opacity: 1; stroke: rgb(38, 123, 44); stroke-opacity: 1;"/><path class="point" transform="translate(330.51,188.71)" d="M-4.62,2H4.62L0,-4Z" style="opacity: 1; stroke-width: 1px; fill: rgb(55, 177, 63); fill-opacity: 1; stroke: rgb(38, 123, 44); stroke-opacity: 1;"/><path class="point" transform="translate(355.44,192.76)" d="M-4.62,2H4.62L0,-4Z" style="opacity: 1; stroke-width: 1px; fill: rgb(55, 177, 63); fill-opacity: 1; stroke: rgb(38, 123, 44); stroke-opacity: 1;"/><path class="point" transform="translate(359.3,204.46)" d="M-4.62,2H4.62L0,-4Z" style="opacity: 1; stroke-width: 1px; fill: rgb(55, 177, 63); fill-opacity: 1; stroke: rgb(38, 123, 44); stroke-opacity: 1;"/><path class="point" transform="translate(363.51,187.03)" d="M-4.62,2H4.62L0,-4Z" style="opacity: 1; stroke-width: 1px; fill: rgb(55, 177, 63); fill-opacity: 1; stroke: rgb(38, 123, 44); stroke-opacity: 1;"/><path class="point" transform="translate(422.13,191.85)" d="M-4.62,2H4.62L0,-4Z" style="opacity: 1; stroke-width: 1px; fill: rgb(55, 177, 63); fill-opacity: 1; stroke: rgb(38, 123, 44); stroke-opacity: 1;"/><path class="point" transform="translate(473.39,187.96)" d="M-4.62,2H4.62L0,-4Z" style="opacity: 1; stroke-width: 1px; fill: rgb(55, 177, 63); fill-opacity: 1; stroke: rgb(38, 123, 44); stroke-opacity: 1;"/><path class="point" transform="translate(503.93,198.8)" d="M-4.62,2H4.62L0,-4Z" style="opacity: 1; stroke-width: 1px; fill: rgb(55, 177, 63); fill-opacity: 1; stroke: rgb(38, 123, 44); stroke-opacity: 1;"/><path class="point" transform="translate(505.68,188.83)" d="M-4.62,2H4.62L0,-4Z" style="opacity: 1; stroke-width: 1px; fill: rgb(55, 177, 63); fill-opacity: 1; stroke: rgb(38, 123, 44); stroke-opacity: 1;"/><path class="point" transform="translate(512,194.82)" d="M-4.62,2H4.62L0,-4Z" style="opacity: 1; stroke-width: 1px; fill: rgb(55, 177, 63); fill-opacity: 1; stroke: rgb(38, 123, 44); stroke-opacity: 1;"/><path class="point" transform="translate(515.86,191.56)" d="M-4.62,2H4.62L0,-4Z" style="opacity: 1; stroke-width: 1px; fill: rgb(55, 177, 63); fill-opacity: 1; stroke: rgb(38, 123, 44); stroke-opacity: 1;"/><path class="point" transform="translate(534.47,199.74)" d="M-4.62,2H4.62L0,-4Z" style="opacity: 1; stroke-width: 1px; fill: rgb(55, 177, 63); fill-opacity: 1; stroke: rgb(38, 123, 44); stroke-opacity: 1;"/><path class="point" transform="translate(556.23,194.08)" d="M-4.62,2H4.62L0,-4Z" style="opacity: 1; stroke-width: 1px; fill: rgb(55, 177, 63); fill-opacity: 1; stroke: rgb(38, 123, 44); stroke-opacity: 1;"/><path class="point" transform="translate(578.34,206.29)" d="M-4.62,2H4.62L0,-4Z" style="opacity: 1; stroke-width: 1px; fill: rgb(55, 177, 63); fill-opacity: 1; stroke: rgb(38, 123, 44); stroke-opacity: 1;"/><path class="point" transform="translate(582.56,188.82)" d="M-4.62,2H4.62L0,-4Z" style="opacity: 1; stroke-width: 1px; fill: rgb(55, 177, 63); fill-opacity: 1; stroke: rgb(38, 123, 44); stroke-opacity: 1;"/><path class="point" transform="translate(584.31,199.22)" d="M-4.62,2H4.62L0,-4Z" style="opacity: 1; stroke-width: 1px; fill: rgb(55, 177, 63); fill-opacity: 1; stroke: rgb(38, 123, 44); stroke-opacity: 1;"/><path class="point" transform="translate(585.36,188.71)" d="M-4.62,2H4.62L0,-4Z" style="opacity: 1; stroke-width: 1px; fill: rgb(55, 177, 63); fill-opacity: 1; stroke: rgb(38, 123, 44); stroke-opacity: 1;"/><path class="point" transform="translate(594.14,212.28)" d="M-4.62,2H4.62L0,-4Z" style="opacity: 1; stroke-width: 1px; fill: rgb(55, 177, 63); fill-opacity: 1; stroke: rgb(38, 123, 44); stroke-opacity: 1;"/><path class="point" transform="translate(597.3,192.3)" d="M-4.62,2H4.62L0,-4Z" style="opacity: 1; stroke-width: 1px; fill: rgb(55, 177, 63); fill-opacity: 1; stroke: rgb(38, 123, 44); stroke-opacity: 1;"/></g><g class="text"/></g><g class="trace scatter trace621beae8-415e-4b27-8510-f0b09b43cf5e" style="stroke-miterlimit: 2; opacity: 1;"><g class="fills"/><g class="errorbars"/><g class="lines"/><g class="points"><path class="point" transform="translate(36.7,54)" d="M-4.62,-2H4.62L0,4Z" style="opacity: 1; stroke-width: 1px; fill: rgb(234, 67, 53); fill-opacity: 1; stroke: rgb(181, 31, 18); stroke-opacity: 1;"/><path class="point" transform="translate(46.18,82.91)" d="M-4.62,-2H4.62L0,4Z" style="opacity: 1; stroke-width: 1px; fill: rgb(234, 67, 53); fill-opacity: 1; stroke: rgb(181, 31, 18); stroke-opacity: 1;"/><path class="point" transform="translate(48.64,75.62)" d="M-4.62,-2H4.62L0,4Z" style="opacity: 1; stroke-width: 1px; fill: rgb(234, 67, 53); fill-opacity: 1; stroke: rgb(181, 31, 18); stroke-opacity: 1;"/><path class="point" transform="translate(58.11,77.17)" d="M-4.62,-2H4.62L0,4Z" style="opacity: 1; stroke-width: 1px; fill: rgb(234, 67, 53); fill-opacity: 1; stroke: rgb(181, 31, 18); stroke-opacity: 1;"/><path class="point" transform="translate(66.19,86.38)" d="M-4.62,-2H4.62L0,4Z" style="opacity: 1; stroke-width: 1px; fill: rgb(234, 67, 53); fill-opacity: 1; stroke: rgb(181, 31, 18); stroke-opacity: 1;"/><path class="point" transform="translate(96.73,68.27)" d="M-4.62,-2H4.62L0,4Z" style="opacity: 1; stroke-width: 1px; fill: rgb(234, 67, 53); fill-opacity: 1; stroke: rgb(181, 31, 18); stroke-opacity: 1;"/><path class="point" transform="translate(116.03,85.09)" d="M-4.62,-2H4.62L0,4Z" style="opacity: 1; stroke-width: 1px; fill: rgb(234, 67, 53); fill-opacity: 1; stroke: rgb(181, 31, 18); stroke-opacity: 1;"/><path class="point" transform="translate(117.09,84.12)" d="M-4.62,-2H4.62L0,4Z" style="opacity: 1; stroke-width: 1px; fill: rgb(234, 67, 53); fill-opacity: 1; stroke: rgb(181, 31, 18); stroke-opacity: 1;"/><path class="point" transform="translate(149.38,83.31)" d="M-4.62,-2H4.62L0,4Z" style="opacity: 1; stroke-width: 1px; fill: rgb(234, 67, 53); fill-opacity: 1; stroke: rgb(181, 31, 18); stroke-opacity: 1;"/><path class="point" transform="translate(150.79,81.81)" d="M-4.62,-2H4.62L0,4Z" style="opacity: 1; stroke-width: 1px; fill: rgb(234, 67, 53); fill-opacity: 1; stroke: rgb(181, 31, 18); stroke-opacity: 1;"/><path class="point" transform="translate(163.42,82.36)" d="M-4.62,-2H4.62L0,4Z" style="opacity: 1; stroke-width: 1px; fill: rgb(234, 67, 53); fill-opacity: 1; stroke: rgb(181, 31, 18); stroke-opacity: 1;"/><path class="point" transform="translate(164.83,79.2)" d="M-4.62,-2H4.62L0,4Z" style="opacity: 1; stroke-width: 1px; fill: rgb(234, 67, 53); fill-opacity: 1; stroke: rgb(181, 31, 18); stroke-opacity: 1;"/><path class="point" transform="translate(172.2,81.25)" d="M-4.62,-2H4.62L0,4Z" style="opacity: 1; stroke-width: 1px; fill: rgb(234, 67, 53); fill-opacity: 1; stroke: rgb(181, 31, 18); stroke-opacity: 1;"/><path class="point" transform="translate(224.5,65.83)" d="M-4.62,-2H4.62L0,4Z" style="opacity: 1; stroke-width: 1px; fill: rgb(234, 67, 53); fill-opacity: 1; stroke: rgb(181, 31, 18); stroke-opacity: 1;"/><path class="point" transform="translate(234.33,71.22)" d="M-4.62,-2H4.62L0,4Z" style="opacity: 1; stroke-width: 1px; fill: rgb(234, 67, 53); fill-opacity: 1; stroke: rgb(181, 31, 18); stroke-opacity: 1;"/><path class="point" transform="translate(239.6,45.02)" d="M-4.62,-2H4.62L0,4Z" style="opacity: 1; stroke-width: 1px; fill: rgb(234, 67, 53); fill-opacity: 1; stroke: rgb(181, 31, 18); stroke-opacity: 1;"/><path class="point" transform="translate(250.83,86.75)" d="M-4.62,-2H4.62L0,4Z" style="opacity: 1; stroke-width: 1px; fill: rgb(234, 67, 53); fill-opacity: 1; stroke: rgb(181, 31, 18); stroke-opacity: 1;"/><path class="point" transform="translate(252.23,82.34)" d="M-4.62,-2H4.62L0,4Z" style="opacity: 1; stroke-width: 1px; fill: rgb(234, 67, 53); fill-opacity: 1; stroke: rgb(181, 31, 18); stroke-opacity: 1;"/><path class="point" transform="translate(266.28,86.46)" d="M-4.62,-2H4.62L0,4Z" style="opacity: 1; stroke-width: 1px; fill: rgb(234, 67, 53); fill-opacity: 1; stroke: rgb(181, 31, 18); stroke-opacity: 1;"/><path class="point" transform="translate(283.48,84.35)" d="M-4.62,-2H4.62L0,4Z" style="opacity: 1; stroke-width: 1px; fill: rgb(234, 67, 53); fill-opacity: 1; stroke: rgb(181, 31, 18); stroke-opacity: 1;"/><path class="point" transform="translate(296.82,86.47)" d="M-4.62,-2H4.62L0,4Z" style="opacity: 1; stroke-width: 1px; fill: rgb(234, 67, 53); fill-opacity: 1; stroke: rgb(181, 31, 18); stroke-opacity: 1;"/><path class="point" transform="translate(316.12,70.81)" d="M-4.62,-2H4.62L0,4Z" style="opacity: 1; stroke-width: 1px; fill: rgb(234, 67, 53); fill-opacity: 1; stroke: rgb(181, 31, 18); stroke-opacity: 1;"/><path class="point" transform="translate(337.89,77.22)" d="M-4.62,-2H4.62L0,4Z" style="opacity: 1; stroke-width: 1px; fill: rgb(234, 67, 53); fill-opacity: 1; stroke: rgb(181, 31, 18); stroke-opacity: 1;"/><path class="point" transform="translate(340.34,75)" d="M-4.62,-2H4.62L0,4Z" style="opacity: 1; stroke-width: 1px; fill: rgb(234, 67, 53); fill-opacity: 1; stroke: rgb(181, 31, 18); stroke-opacity: 1;"/><path class="point" transform="translate(348.42,66.25)" d="M-4.62,-2H4.62L0,4Z" style="opacity: 1; stroke-width: 1px; fill: rgb(234, 67, 53); fill-opacity: 1; stroke: rgb(181, 31, 18); stroke-opacity: 1;"/><path class="point" transform="translate(350.52,82)" d="M-4.62,-2H4.62L0,4Z" style="opacity: 1; stroke-width: 1px; fill: rgb(234, 67, 53); fill-opacity: 1; stroke: rgb(181, 31, 18); stroke-opacity: 1;"/><path class="point" transform="translate(365.62,81.13)" d="M-4.62,-2H4.62L0,4Z" style="opacity: 1; stroke-width: 1px; fill: rgb(234, 67, 53); fill-opacity: 1; stroke: rgb(181, 31, 18); stroke-opacity: 1;"/><path class="point" transform="translate(377.55,53.48)" d="M-4.62,-2H4.62L0,4Z" style="opacity: 1; stroke-width: 1px; fill: rgb(234, 67, 53); fill-opacity: 1; stroke: rgb(181, 31, 18); stroke-opacity: 1;"/><path class="point" transform="translate(408.09,82.14)" d="M-4.62,-2H4.62L0,4Z" style="opacity: 1; stroke-width: 1px; fill: rgb(234, 67, 53); fill-opacity: 1; stroke: rgb(181, 31, 18); stroke-opacity: 1;"/><path class="point" transform="translate(416.17,87.15)" d="M-4.62,-2H4.62L0,4Z" style="opacity: 1; stroke-width: 1px; fill: rgb(234, 67, 53); fill-opacity: 1; stroke: rgb(181, 31, 18); stroke-opacity: 1;"/><path class="point" transform="translate(427.75,68.61)" d="M-4.62,-2H4.62L0,4Z" style="opacity: 1; stroke-width: 1px; fill: rgb(234, 67, 53); fill-opacity: 1; stroke: rgb(181, 31, 18); stroke-opacity: 1;"/><path class="point" transform="translate(435.82,79.88)" d="M-4.62,-2H4.62L0,4Z" style="opacity: 1; stroke-width: 1px; fill: rgb(234, 67, 53); fill-opacity: 1; stroke: rgb(181, 31, 18); stroke-opacity: 1;"/><path class="point" transform="translate(436.88,69.96)" d="M-4.62,-2H4.62L0,4Z" style="opacity: 1; stroke-width: 1px; fill: rgb(234, 67, 53); fill-opacity: 1; stroke: rgb(181, 31, 18); stroke-opacity: 1;"/><path class="point" transform="translate(446.36,74.26)" d="M-4.62,-2H4.62L0,4Z" style="opacity: 1; stroke-width: 1px; fill: rgb(234, 67, 53); fill-opacity: 1; stroke: rgb(181, 31, 18); stroke-opacity: 1;"/><path class="point" transform="translate(458.99,84.44)" d="M-4.62,-2H4.62L0,4Z" style="opacity: 1; stroke-width: 1px; fill: rgb(234, 67, 53); fill-opacity: 1; stroke: rgb(181, 31, 18); stroke-opacity: 1;"/><path class="point" transform="translate(468.82,86.72)" d="M-4.62,-2H4.62L0,4Z" style="opacity: 1; stroke-width: 1px; fill: rgb(234, 67, 53); fill-opacity: 1; stroke: rgb(181, 31, 18); stroke-opacity: 1;"/><path class="point" transform="translate(476.9,78.12)" d="M-4.62,-2H4.62L0,4Z" style="opacity: 1; stroke-width: 1px; fill: rgb(234, 67, 53); fill-opacity: 1; stroke: rgb(181, 31, 18); stroke-opacity: 1;"/><path class="point" transform="translate(488.48,73.08)" d="M-4.62,-2H4.62L0,4Z" style="opacity: 1; stroke-width: 1px; fill: rgb(234, 67, 53); fill-opacity: 1; stroke: rgb(181, 31, 18); stroke-opacity: 1;"/><path class="point" transform="translate(536.92,75.28)" d="M-4.62,-2H4.62L0,4Z" style="opacity: 1; stroke-width: 1px; fill: rgb(234, 67, 53); fill-opacity: 1; stroke: rgb(181, 31, 18); stroke-opacity: 1;"/><path class="point" transform="translate(543.59,85.76)" d="M-4.62,-2H4.62L0,4Z" style="opacity: 1; stroke-width: 1px; fill: rgb(234, 67, 53); fill-opacity: 1; stroke: rgb(181, 31, 18); stroke-opacity: 1;"/><path class="point" transform="translate(561.49,71.48)" d="M-4.62,-2H4.62L0,4Z" style="opacity: 1; stroke-width: 1px; fill: rgb(234, 67, 53); fill-opacity: 1; stroke: rgb(181, 31, 18); stroke-opacity: 1;"/></g><g class="text"/></g></g></g><g class="overplot"/><path class="xlines-above crisp" d="M0,0" style="fill: none;"/><path class="ylines-above crisp" d="M0,0" style="fill: none;"/><g class="overlines-above"/><g class="xaxislayer-above"><g class="xtick"><text text-anchor="middle" x="0" y="333" transform="translate(115.18,0)" style="font-family: 'Open Sans', verdana, arial, sans-serif; font-size: 12px; fill: rgb(214, 223, 239); fill-opacity: 1; white-space: pre; opacity: 1;">2018</text></g><g class="xtick"><text text-anchor="middle" x="0" y="333" style="font-family: 'Open Sans', verdana, arial, sans-serif; font-size: 12px; fill: rgb(214, 223, 239); fill-opacity: 1; white-space: pre; opacity: 1;" transform="translate(243.3,0)">2019</text></g><g class="xtick"><text text-anchor="middle" x="0" y="333" style="font-family: 'Open Sans', verdana, arial, sans-serif; font-size: 12px; fill: rgb(214, 223, 239); fill-opacity: 1; white-space: pre; opacity: 1;" transform="translate(371.43,0)">2020</text></g><g class="xtick"><text text-anchor="middle" x="0" y="333" style="font-family: 'Open Sans', verdana, arial, sans-serif; font-size: 12px; fill: rgb(214, 223, 239); fill-opacity: 1; white-space: pre; opacity: 1;" transform="translate(499.91,0)">2021</text></g><g class="xtick"><text text-anchor="middle" x="0" y="333" style="font-family: 'Open Sans', verdana, arial, sans-serif; font-size: 12px; fill: rgb(214, 223, 239); fill-opacity: 1; white-space: pre; opacity: 1;" transform="translate(628.03,0)">2022</text></g></g><g class="yaxislayer-above"><g class="ytick"><text text-anchor="end" x="35" y="4.199999999999999" transform="translate(0,307.55)" style="font-family: 'Open Sans', verdana, arial, sans-serif; font-size: 12px; fill: rgb(214, 223, 239); fill-opacity: 1; white-space: pre; opacity: 1;">0</text></g><g class="ytick"><text text-anchor="end" x="35" y="4.199999999999999" style="font-family: 'Open Sans', verdana, arial, sans-serif; font-size: 12px; fill: rgb(214, 223, 239); fill-opacity: 1; white-space: pre; opacity: 1;" transform="translate(0,257.73)">20</text></g><g class="ytick"><text text-anchor="end" x="35" y="4.199999999999999" style="font-family: 'Open Sans', verdana, arial, sans-serif; font-size: 12px; fill: rgb(214, 223, 239); fill-opacity: 1; white-space: pre; opacity: 1;" transform="translate(0,207.91)">40</text></g><g class="ytick"><text text-anchor="end" x="35" y="4.199999999999999" style="font-family: 'Open Sans', verdana, arial, sans-serif; font-size: 12px; fill: rgb(214, 223, 239); fill-opacity: 1; white-space: pre; opacity: 1;" transform="translate(0,158.09)">60</text></g><g class="ytick"><text text-anchor="end" x="35" y="4.199999999999999" style="font-family: 'Open Sans', verdana, arial, sans-serif; font-size: 12px; fill: rgb(214, 223, 239); fill-opacity: 1; white-space: pre; opacity: 1;" transform="translate(0,108.27000000000001)">80</text></g><g class="ytick"><text text-anchor="end" x="35" y="4.199999999999999" style="font-family: 'Open Sans', verdana, arial, sans-serif; font-size: 12px; fill: rgb(214, 223, 239); fill-opacity: 1; white-space: pre; opacity: 1;" transform="translate(0,58.45)">100</text></g></g><g class="overaxes-above"/></g></g><g class="polarlayer"/><g class="ternarylayer"/><g class="geolayer"/><g class="funnelarealayer"/><g class="pielayer"/><g class="iciclelayer"/><g class="treemaplayer"/><g class="sunburstlayer"/><g class="glimages"/><defs id="topdefs-079238"><g class="clips"/><clipPath id="legend079238"><rect width="212" height="29" x="0" y="0"/></clipPath></defs><g class="layer-above"><g class="imagelayer"/><g class="shapelayer"/></g><g class="infolayer"><g class="legend" pointer-events="all" transform="translate(458,11.519999999999996)"><rect class="bg" shape-rendering="crispEdges" style="stroke: rgb(68, 68, 68); stroke-opacity: 1; fill: rgb(33, 34, 44); fill-opacity: 1; stroke-width: 0px;" width="212" height="29" x="0" y="0"/><g class="scrollbox" transform="" clip-path="url(#legend079238)"><g class="groups"><g class="traces" transform="translate(0,14.5)" style="opacity: 1;"><text class="legendtext" text-anchor="start" x="40" y="4.680000000000001" style="font-family: 'Open Sans', verdana, arial, sans-serif; font-size: 12px; fill: rgb(214, 223, 239); fill-opacity: 1; white-space: pre;">RSI</text><g class="layers" style="opacity: 1;"><g class="legendfill"/><g class="legendlines"><path class="js-line" d="M5,0h30" style="fill: none; stroke: rgb(31, 119, 180); stroke-opacity: 1; stroke-width: 2px;"/></g><g class="legendsymbols"><g class="legendpoints"/></g></g><rect class="legendtoggle" x="0" y="-9.5" width="64.09375" height="19" style="fill: rgb(0, 0, 0); fill-opacity: 0;"/></g><g class="traces" transform="translate(66.59375,14.5)" style="opacity: 1;"><text class="legendtext" text-anchor="start" x="40" y="4.680000000000001" style="font-family: 'Open Sans', verdana, arial, sans-serif; font-size: 12px; fill: rgb(214, 223, 239); fill-opacity: 1; white-space: pre;">Entry</text><g class="layers" style="opacity: 1;"><g class="legendfill"/><g class="legendlines"/><g class="legendsymbols"><g class="legendpoints"><path class="scatterpts" transform="translate(20,0)" d="M-4.62,2H4.62L0,-4Z" style="opacity: 1; stroke-width: 1px; fill: rgb(55, 177, 63); fill-opacity: 1; stroke: rgb(38, 123, 44); stroke-opacity: 1;"/></g></g></g><rect class="legendtoggle" x="0" y="-9.5" width="74.625" height="19" style="fill: rgb(0, 0, 0); fill-opacity: 0;"/></g><g class="traces" transform="translate(143.71875,14.5)" style="opacity: 1;"><text class="legendtext" text-anchor="start" x="40" y="4.680000000000001" style="font-family: 'Open Sans', verdana, arial, sans-serif; font-size: 12px; fill: rgb(214, 223, 239); fill-opacity: 1; white-space: pre;">Exit</text><g class="layers" style="opacity: 1;"><g class="legendfill"/><g class="legendlines"/><g class="legendsymbols"><g class="legendpoints"><path class="scatterpts" transform="translate(20,0)" d="M-4.62,-2H4.62L0,4Z" style="opacity: 1; stroke-width: 1px; fill: rgb(234, 67, 53); fill-opacity: 1; stroke: rgb(181, 31, 18); stroke-opacity: 1;"/></g></g></g><rect class="legendtoggle" x="0" y="-9.5" width="65.203125" height="19" style="fill: rgb(0, 0, 0); fill-opacity: 0;"/></g></g></g><rect class="scrollbar" rx="20" ry="3" width="0" height="0" style="fill: rgb(128, 139, 164); fill-opacity: 1;" x="0" y="0"/></g><g class="g-gtitle"/><g class="g-xtitle"/><g class="g-ytitle"/></g></svg>