<svg class="main-svg" xmlns="http://www.w3.org/2000/svg" xmlns:xlink="http://www.w3.org/1999/xlink" width="700" height="350" viewBox="0 0 700 350"><rect x="0" y="0" width="700" height="350" style="fill: rgb(33, 34, 44); fill-opacity: 1;"/><defs id="defs-7a4663"><g class="clips"><clipPath id="clip7a4663xyplot" class="plotclip"><rect width="631" height="274"/></clipPath><clipPath class="axesclip" id="clip7a4663x"><rect x="36" y="0" width="631" height="350"/></clipPath><clipPath class="axesclip" id="clip7a4663y"><rect x="0" y="46" width="700" height="274"/></clipPath><clipPath class="axesclip" id="clip7a4663xy"><rect x="36" y="46" width="631" height="274"/></clipPath></g><g class="gradients"/><g class="patterns"/></defs><g class="bglayer"/><g class="layer-below"><g class="imagelayer"/><g class="shapelayer"/></g><g class="cartesianlayer"><g class="subplot xy"><g class="layer-subplot"><g class="shapelayer"/><g class="imagelayer"/></g><g class="gridlayer"><g class="x"><path class="xgrid crisp" transform="translate(89.53,0)" d="M0,46v274" style="stroke: rgb(47, 62, 78); stroke-opacity: 1; stroke-width: 1px;"/><path class="xgrid crisp" transform="translate(160.25,0)" d="M0,46v274" style="stroke: rgb(47, 62, 78); stroke-opacity: 1; stroke-width: 1px;"/><path class="xgrid crisp" transform="translate(232.14,0)" d="M0,46v274" style="stroke: rgb(47, 62, 78); stroke-opacity: 1; stroke-width: 1px;"/><path class="xgrid crisp" transform="translate(302.86,0)" d="M0,46v274" style="stroke: rgb(47, 62, 78); stroke-opacity: 1; stroke-width: 1px;"/><path class="xgrid crisp" transform="translate(374.75,0)" d="M0,46v274" style="stroke: rgb(47, 62, 78); stroke-opacity: 1; stroke-width: 1px;"/><path class="xgrid crisp" transform="translate(445.86,0)" d="M0,46v274" style="stroke: rgb(47, 62, 78); stroke-opacity: 1; stroke-width: 1px;"/><path class="xgrid crisp" transform="translate(517.75,0)" d="M0,46v274" style="stroke: rgb(47, 62, 78); stroke-opacity: 1; stroke-width: 1px;"/><path class="xgrid crisp" transform="translate(588.47,0)" d="M0,46v274" style="stroke: rgb(47, 62, 78); stroke-opacity: 1; stroke-width: 1px;"/><path class="xgrid crisp" transform="translate(660.36,0)" d="M0,46v274" style="stroke: rgb(47, 62, 78); stroke-opacity: 1; stroke-width: 1px;"/></g><g class="y"><path class="ygrid crisp" transform="translate(0,301.47)" d="M36,0h631" style="stroke: rgb(47, 62, 78); stroke-opacity: 1; stroke-width: 1px;"/><path class="ygrid crisp" transform="translate(0,215.65)" d="M36,0h631" style="stroke: rgb(47, 62, 78); stroke-opacity: 1; stroke-width: 1px;"/><path class="ygrid crisp" transform="translate(0,129.84)" d="M36,0h631" style="stroke: rgb(47, 62, 78); stroke-opacity: 1; stroke-width: 1px;"/></g></g><g class="zerolinelayer"/><path class="xlines-below"/><path class="ylines-below"/><g class="overlines-below"/><g class="xaxislayer-below"/><g class="yaxislayer-below"/><g class="overaxes-below"/><g class="plot" transform="translate(36,46)" clip-path="url(#clip7a4663xyplot)"><g class="scatterlayer mlayer"><g class="trace scatter trace96f79ca4-8529-4a66-a8a6-eae92ca1c623" style="stroke-miterlimit: 2;"><g class="fills"><g><path class="js-fill" d="M0,255.47L12.11,255.47L12.5,239.93L14.07,255.47L14.46,251.76L14.85,255.47L15.24,245.23L15.63,247.01L16.02,232.6L16.8,233.45L17.19,224L17.97,223.93L18.36,227.17L18.75,231.88L19.14,227.99L19.54,224.44L19.93,221.93L20.32,211.87L21.49,203.45L21.88,175.22L22.66,165.02L23.05,165.02L67.59,165.02L67.98,166.21L68.37,162.06L68.77,141.87L69.16,145.24L69.55,155.78L71.11,112.35L71.5,108.77L72.67,86.49L73.06,85.42L73.84,116.59L74.24,109.42L74.63,119.21L75.02,121.55L75.41,105.09L75.8,99.59L76.19,105.03L77.36,79.51L77.75,78.37L78.14,79.74L78.53,96.28L80.1,139.94L80.49,122.82L81.66,153.4L82.05,151.81L82.44,151.38L82.83,161.14L83.22,152.95L83.61,143.76L84,136.8L84.39,137.36L84.78,141L85.18,137.07L85.57,144.95L85.96,146.67L86.35,154.2L87.91,183.23L88.3,181.35L88.69,183.84L89.47,170.55L89.86,184.22L90.25,184.78L90.65,188.58L91.43,179.24L91.82,184.52L92.6,180.68L92.99,158.94L93.38,159.96L93.77,157.24L94.16,149.25L94.55,155.76L94.94,159.79L96.51,136.68L96.9,139.56L97.29,136.26L97.68,120.88L98.46,137.7L98.85,137.7L117.6,137.7L118,144.09L119.95,134.45L120.34,135.56L120.73,152.99L121.12,150.27L121.51,150.61L121.9,147.63L122.29,152.32L122.68,150.69L123.07,157.93L124.64,138.24L125.03,140.86L126.59,134.57L126.98,135.73L127.37,137.02L127.76,146.47L128.15,144.37L128.54,147.67L128.93,148.6L129.33,147.63L129.72,145.02L131.28,116.23L131.67,119.56L132.06,117.97L132.45,118.07L132.84,109.64L133.62,92.15L134.01,92.15L177.77,92.15L178.16,95.05L178.56,95.88L178.95,94.87L179.73,127.78L180.12,124.73L180.51,133.42L180.9,131.91L181.29,146.47L181.68,141.89L182.07,148.56L182.46,148.18L182.85,136.55L183.24,135.63L183.63,143.22L184.03,138.78L184.42,139.65L184.81,147.91L185.2,145.9L185.59,151.32L186.37,162.25L186.76,162.03L187.15,158.02L187.93,162.94L188.32,161.01L189.5,167.97L189.89,167.46L191.45,142.97L191.84,149.27L193.01,144.21L193.4,152.04L193.79,151.08L194.18,157.34L194.57,149.25L194.97,153.54L195.36,150.36L195.75,153.32L196.14,150.51L196.53,148.67L196.92,151.41L197.31,150.66L197.7,151.29L198.09,144.82L199.26,145.45L199.65,156.81L200.04,156.35L200.44,156.89L200.83,160.06L201.22,155.61L201.61,157.79L202,156.63L203.17,154.44L203.56,158.2L203.95,158.57L204.34,157.25L204.73,157.79L205.12,157.29L205.51,157.42L206.3,157.85L206.69,161.33L207.08,162.02L207.47,160.62L207.86,161.34L208.25,160.5L208.64,159.23L209.03,160.62L209.42,160.47L209.81,160.22L210.59,162.4L210.98,154.62L211.77,154L212.16,155.46L212.94,156.11L213.33,156.67L214.11,155.84L214.5,154.37L215.28,147.2L215.67,147.2L300.46,147.2L300.85,154.66L301.63,151.91L302.02,155.07L303.19,148.63L303.58,151.4L304.36,153.39L304.76,158.93L305.93,144.54L306.32,144.6L306.71,150.7L307.88,148.87L308.27,152.72L309.44,157.04L309.83,157.02L310.23,151.41L310.62,151.94L311.01,155.55L311.79,167.92L312.18,142.62L312.96,124.81L313.35,131.42L313.74,127.3L314.13,132.45L314.52,132.73L314.91,130.88L315.3,129.71L315.7,131.64L316.09,127.59L316.48,129.32L316.87,128.7L317.26,131.2L317.65,140.21L318.04,139.48L318.43,134.8L318.82,141.03L319.21,139.23L319.6,140.14L320.38,146.36L320.77,145.96L321.17,145.73L323.12,170.86L323.51,169.98L323.9,178.29L324.29,174.09L324.68,173.14L325.85,161.26L326.24,165.29L327.81,172.36L328.2,168.4L328.59,165.58L328.98,166.38L329.37,165.93L330.54,172.04L330.93,172.29L331.32,171.06L331.71,175.02L332.11,173.91L332.5,178.52L332.89,183.98L333.28,170.66L334.45,173.62L334.84,166.11L336.01,172.15L336.4,172.21L337.58,168.42L337.97,171.31L338.75,172.23L339.14,177.02L339.92,169.11L340.31,169.02L341.09,153L341.48,154.82L341.87,159.67L342.26,151.95L342.65,155.55L343.05,152.19L343.44,153.71L343.83,139.47L344.22,139.24L344.61,141.3L345.39,137.31L345.78,141.67L346.17,142.88L346.56,140.97L346.95,142.07L347.34,147.72L347.73,147.02L348.12,149.03L350.08,125.15L350.47,128.42L350.86,127.77L351.25,128.85L352.03,131.59L352.42,123.14L354.38,112.15L354.77,112.15L366.88,112.15L367.27,124.66L367.66,118.84L368.05,129.06L369.61,92.78L370,93.43L370.4,104.84L371.18,76.27L371.57,78.34L371.96,76.5L373.13,102.83L373.52,87.05L373.91,86.56L374.3,79.41L375.47,72.82L375.87,75.41L376.26,58.27L376.65,62.35L377.04,57.3L377.43,59.7L377.82,72.76L378.6,71.38L378.99,73.41L379.38,72.46L379.77,80.07L380.94,60.77L381.33,64.71L381.73,73.75L382.12,73.3L382.51,64.57L383.68,51.85L384.07,47.1L384.46,44.59L384.85,45.68L385.24,13.7L386.02,18.58L386.41,18.58L536.06,18.58L536.45,32.45L536.84,31.61L537.23,43.44L538.4,24.02L538.79,27.03L539.57,43.66L539.96,39.27L541.53,24L541.92,34.24L543.48,48.84L543.87,31.87L545.04,39.67L545.43,24.96L545.82,18.62L546.22,20.2L546.61,27.8L547,28.89L547.39,38.51L547.78,39.94L548.17,39.44L548.56,56.35L549.73,43.41L550.12,56.45L550.51,53.49L550.9,43.25L551.29,44.12L551.69,38.12L552.47,48.32L552.86,47.12L553.25,43.39L553.64,40.77L554.03,47.53L554.42,45.29L554.81,46.8L555.2,50.98L556.37,45.12L556.76,50.09L557.94,55.2L558.33,57.3L559.11,55.63L559.5,59.6L559.89,64.05L560.28,54.08L560.67,53.47L561.06,47.77L561.84,40.37L562.23,32.51L563.41,20.73L563.8,20.73L631,20.73L631,255.47L0,255.47Z" style="fill: rgb(0, 128, 0); fill-opacity: 0.3; stroke-width: 0;"/></g></g><g class="errorbars"/><g class="lines"><path class="js-line" d="M0,255.47L631,255.47" style="vector-effect: non-scaling-stroke; fill: none; stroke: rgb(0, 0, 0); stroke-opacity: 0; stroke-width: 0px; opacity: 1;"/></g><g class="points"/><g class="text"/></g><g class="trace scatter trace233041df-e4be-4724-a266-dbf42c08cdb8" style="stroke-miterlimit: 2;"><g class="fills"/><g class="errorbars"/><g class="lines"><path class="js-line" d="M0,255.47L12.11,255.47L12.5,239.93L14.07,255.47L14.46,251.76L14.85,255.47L15.24,245.23L15.63,247.01L16.02,232.6L16.8,233.45L17.19,224L17.97,223.93L18.36,227.17L18.75,231.88L19.14,227.99L19.54,224.44L19.93,221.93L20.32,211.87L21.49,203.45L21.88,175.22L22.66,165.02L23.05,165.02L67.59,165.02L67.98,166.21L68.37,162.06L68.77,141.87L69.16,145.24L69.55,155.78L71.11,112.35L71.5,108.77L72.67,86.49L73.06,85.42L73.84,116.59L74.24,109.42L74.63,119.21L75.02,121.55L75.41,105.09L75.8,99.59L76.19,105.03L77.36,79.51L77.75,78.37L78.14,79.74L78.53,96.28L80.1,139.94L80.49,122.82L81.66,153.4L82.05,151.81L82.44,151.38L82.83,161.14L83.22,152.95L83.61,143.76L84,136.8L84.39,137.36L84.78,141L85.18,137.07L85.57,144.95L85.96,146.67L86.35,154.2L87.91,183.23L88.3,181.35L88.69,183.84L89.47,170.55L89.86,184.22L90.25,184.78L90.65,188.58L91.43,179.24L91.82,184.52L92.6,180.68L92.99,158.94L93.38,159.96L93.77,157.24L94.16,149.25L94.55,155.76L94.94,159.79L96.51,136.68L96.9,139.56L97.29,136.26L97.68,120.88L98.46,137.7L98.85,137.7L117.6,137.7L118,144.09L119.95,134.45L120.34,135.56L120.73,152.99L121.12,150.27L121.51,150.61L121.9,147.63L122.29,152.32L122.68,150.69L123.07,157.93L124.64,138.24L125.03,140.86L126.59,134.57L126.98,135.73L127.37,137.02L127.76,146.47L128.15,144.37L128.54,147.67L128.93,148.6L129.33,147.63L129.72,145.02L131.28,116.23L131.67,119.56L132.06,117.97L132.45,118.07L132.84,109.64L133.62,92.15L134.01,92.15L177.77,92.15L178.16,95.05L178.56,95.88L178.95,94.87L179.73,127.78L180.12,124.73L180.51,133.42L180.9,131.91L181.29,146.47L181.68,141.89L182.07,148.56L182.46,148.18L182.85,136.55L183.24,135.63L183.63,143.22L184.03,138.78L184.42,139.65L184.81,147.91L185.2,145.9L185.59,151.32L186.37,162.25L186.76,162.03L187.15,158.02L187.93,162.94L188.32,161.01L189.5,167.97L189.89,167.46L191.45,142.97L191.84,149.27L193.01,144.21L193.4,152.04L193.79,151.08L194.18,157.34L194.57,149.25L194.97,153.54L195.36,150.36L195.75,153.32L196.14,150.51L196.53,148.67L196.92,151.41L197.31,150.66L197.7,151.29L198.09,144.82L199.26,145.45L199.65,156.81L200.04,156.35L200.44,156.89L200.83,160.06L201.22,155.61L201.61,157.79L202,156.63L203.17,154.44L203.56,158.2L203.95,158.57L204.34,157.25L204.73,157.79L205.12,157.29L205.51,157.42L206.3,157.85L206.69,161.33L207.08,162.02L207.47,160.62L207.86,161.34L208.25,160.5L208.64,159.23L209.03,160.62L209.42,160.47L209.81,160.22L210.59,162.4L210.98,154.62L211.77,154L212.16,155.46L212.94,156.11L213.33,156.67L214.11,155.84L214.5,154.37L215.28,147.2L215.67,147.2L300.46,147.2L300.85,154.66L301.63,151.91L302.02,155.07L303.19,148.63L303.58,151.4L304.36,153.39L304.76,158.93L305.93,144.54L306.32,144.6L306.71,150.7L307.88,148.87L308.27,152.72L309.44,157.04L309.83,157.02L310.23,151.41L310.62,151.94L311.01,155.55L311.79,167.92L312.18,142.62L312.96,124.81L313.35,131.42L313.74,127.3L314.13,132.45L314.52,132.73L314.91,130.88L315.3,129.71L315.7,131.64L316.09,127.59L316.48,129.32L316.87,128.7L317.26,131.2L317.65,140.21L318.04,139.48L318.43,134.8L318.82,141.03L319.21,139.23L319.6,140.14L320.38,146.36L320.77,145.96L321.17,145.73L323.12,170.86L323.51,169.98L323.9,178.29L324.29,174.09L324.68,173.14L325.85,161.26L326.24,165.29L327.81,172.36L328.2,168.4L328.59,165.58L328.98,166.38L329.37,165.93L330.54,172.04L330.93,172.29L331.32,171.06L331.71,175.02L332.11,173.91L332.5,178.52L332.89,183.98L333.28,170.66L334.45,173.62L334.84,166.11L336.01,172.15L336.4,172.21L337.58,168.42L337.97,171.31L338.75,172.23L339.14,177.02L339.92,169.11L340.31,169.02L341.09,153L341.48,154.82L341.87,159.67L342.26,151.95L342.65,155.55L343.05,152.19L343.44,153.71L343.83,139.47L344.22,139.24L344.61,141.3L345.39,137.31L345.78,141.67L346.17,142.88L346.56,140.97L346.95,142.07L347.34,147.72L347.73,147.02L348.12,149.03L350.08,125.15L350.47,128.42L350.86,127.77L351.25,128.85L352.03,131.59L352.42,123.14L354.38,112.15L354.77,112.15L366.88,112.15L367.27,124.66L367.66,118.84L368.05,129.06L369.61,92.78L370,93.43L370.4,104.84L371.18,76.27L371.57,78.34L371.96,76.5L373.13,102.83L373.52,87.05L373.91,86.56L374.3,79.41L375.47,72.82L375.87,75.41L376.26,58.27L376.65,62.35L377.04,57.3L377.43,59.7L377.82,72.76L378.6,71.38L378.99,73.41L379.38,72.46L379.77,80.07L380.94,60.77L381.33,64.71L381.73,73.75L382.12,73.3L382.51,64.57L383.68,51.85L384.07,47.1L384.46,44.59L384.85,45.68L385.24,13.7L386.02,18.58L386.41,18.58L536.06,18.58L536.45,32.45L536.84,31.61L537.23,43.44L538.4,24.02L538.79,27.03L539.57,43.66L539.96,39.27L541.53,24L541.92,34.24L543.48,48.84L543.87,31.87L545.04,39.67L545.43,24.96L545.82,18.62L546.22,20.2L546.61,27.8L547,28.89L547.39,38.51L547.78,39.94L548.17,39.44L548.56,56.35L549.73,43.41L550.12,56.45L550.51,53.49L550.9,43.25L551.29,44.12L551.69,38.12L552.47,48.32L552.86,47.12L553.25,43.39L553.64,40.77L554.03,47.53L554.42,45.29L554.81,46.8L555.2,50.98L556.37,45.12L556.76,50.09L557.94,55.2L558.33,57.3L559.11,55.63L559.5,59.6L559.89,64.05L560.28,54.08L560.67,53.47L561.06,47.77L561.84,40.37L562.23,32.51L563.41,20.73L563.8,20.73L631,20.73" style="vector-effect: non-scaling-stroke; fill: none; stroke: rgb(0, 0, 0); stroke-opacity: 0; stroke-width: 0px; opacity: 1;"/></g><g class="points"/><g class="text"/></g><g class="trace scatter trace3e8ff68c-fb9f-414e-9f13-8364cb2319af" style="stroke-miterlimit: 2;"><g class="fills"><g><path class="js-fill" d="M0,255.47L13.28,255.47L13.67,259.65L14.07,260.3L14.46,255.47L14.85,257.32L15.24,255.47L631,255.47L631,255.47L0,255.47Z" style="fill: rgb(255, 0, 0); fill-opacity: 0.3; stroke-width: 0;"/></g></g><g class="errorbars"/><g class="lines"><path class="js-line" d="M0,255.47L631,255.47" style="vector-effect: non-scaling-stroke; fill: none; stroke: rgb(0, 0, 0); stroke-opacity: 0; stroke-width: 0px; opacity: 1;"/></g><g class="points"/><g class="text"/></g><g class="trace scatter trace59cb949a-56ea-49b0-b904-ac4f9f6fdeb4" style="stroke-miterlimit: 2;"><g class="fills"/><g class="errorbars"/><g class="lines"><path class="js-line" d="M0,255.47L13.28,255.47L13.67,259.65L14.07,260.3L14.46,255.47L14.85,257.32L15.24,255.47L631,255.47" style="vector-effect: non-scaling-stroke; fill: none; stroke: rgb(0, 0, 0); stroke-opacity: 0; stroke-width: 0px; opacity: 1;"/></g><g class="points"/><g class="text"/></g><g class="trace scatter trace271e31f5-eaf4-4b03-8687-542b11b5742b" style="stroke-miterlimit: 2; opacity: 1;"><g class="fills"/><g class="errorbars"/><g class="lines"><path class="js-line" d="M0,255.47L12.11,255.47L12.5,239.93L14.07,260.3L14.46,251.76L14.85,257.32L15.24,245.23L15.63,247.01L16.02,232.6L16.8,233.45L17.19,224L17.97,223.93L18.36,227.17L18.75,231.88L19.14,227.99L19.54,224.44L19.93,221.93L20.32,211.87L21.49,203.45L21.88,175.22L22.66,165.02L23.05,165.02L67.59,165.02L67.98,166.21L68.37,162.06L68.77,141.87L69.16,145.24L69.55,155.78L71.11,112.35L71.5,108.77L72.67,86.49L73.06,85.42L73.84,116.59L74.24,109.42L74.63,119.21L75.02,121.55L75.41,105.09L75.8,99.59L76.19,105.03L77.36,79.51L77.75,78.37L78.14,79.74L78.53,96.28L80.1,139.94L80.49,122.82L81.66,153.4L82.05,151.81L82.44,151.38L82.83,161.14L83.22,152.95L83.61,143.76L84,136.8L84.39,137.36L84.78,141L85.18,137.07L85.57,144.95L85.96,146.67L86.35,154.2L87.91,183.23L88.3,181.35L88.69,183.84L89.47,170.55L89.86,184.22L90.25,184.78L90.65,188.58L91.43,179.24L91.82,184.52L92.6,180.68L92.99,158.94L93.38,159.96L93.77,157.24L94.16,149.25L94.55,155.76L94.94,159.79L96.51,136.68L96.9,139.56L97.29,136.26L97.68,120.88L98.46,137.7L98.85,137.7L117.6,137.7L118,144.09L119.95,134.45L120.34,135.56L120.73,152.99L121.12,150.27L121.51,150.61L121.9,147.63L122.29,152.32L122.68,150.69L123.07,157.93L124.64,138.24L125.03,140.86L126.59,134.57L126.98,135.73L127.37,137.02L127.76,146.47L128.15,144.37L128.54,147.67L128.93,148.6L129.33,147.63L129.72,145.02L131.28,116.23L131.67,119.56L132.06,117.97L132.45,118.07L132.84,109.64L133.62,92.15L134.01,92.15L177.77,92.15L178.16,95.05L178.56,95.88L178.95,94.87L179.73,127.78L180.12,124.73L180.51,133.42L180.9,131.91L181.29,146.47L181.68,141.89L182.07,148.56L182.46,148.18L182.85,136.55L183.24,135.63L183.63,143.22L184.03,138.78L184.42,139.65L184.81,147.91L185.2,145.9L185.59,151.32L186.37,162.25L186.76,162.03L187.15,158.02L187.93,162.94L188.32,161.01L189.5,167.97L189.89,167.46L191.45,142.97L191.84,149.27L193.01,144.21L193.4,152.04L193.79,151.08L194.18,157.34L194.57,149.25L194.97,153.54L195.36,150.36L195.75,153.32L196.14,150.51L196.53,148.67L196.92,151.41L197.31,150.66L197.7,151.29L198.09,144.82L199.26,145.45L199.65,156.81L200.04,156.35L200.44,156.89L200.83,160.06L201.22,155.61L201.61,157.79L202,156.63L203.17,154.44L203.56,158.2L203.95,158.57L204.34,157.25L204.73,157.79L205.12,157.29L205.51,157.42L206.3,157.85L206.69,161.33L207.08,162.02L207.47,160.62L207.86,161.34L208.25,160.5L208.64,159.23L209.03,160.62L209.42,160.47L209.81,160.22L210.59,162.4L210.98,154.62L211.77,154L212.16,155.46L212.94,156.11L213.33,156.67L214.11,155.84L214.5,154.37L215.28,147.2L215.67,147.2L300.46,147.2L300.85,154.66L301.63,151.91L302.02,155.07L303.19,148.63L303.58,151.4L304.36,153.39L304.76,158.93L305.93,144.54L306.32,144.6L306.71,150.7L307.88,148.87L308.27,152.72L309.44,157.04L309.83,157.02L310.23,151.41L310.62,151.94L311.01,155.55L311.79,167.92L312.18,142.62L312.96,124.81L313.35,131.42L313.74,127.3L314.13,132.45L314.52,132.73L314.91,130.88L315.3,129.71L315.7,131.64L316.09,127.59L316.48,129.32L316.87,128.7L317.26,131.2L317.65,140.21L318.04,139.48L318.43,134.8L318.82,141.03L319.21,139.23L319.6,140.14L320.38,146.36L320.77,145.96L321.17,145.73L323.12,170.86L323.51,169.98L323.9,178.29L324.29,174.09L324.68,173.14L325.85,161.26L326.24,165.29L327.81,172.36L328.2,168.4L328.59,165.58L328.98,166.38L329.37,165.93L330.54,172.04L330.93,172.29L331.32,171.06L331.71,175.02L332.11,173.91L332.5,178.52L332.89,183.98L333.28,170.66L334.45,173.62L334.84,166.11L336.01,172.15L336.4,172.21L337.58,168.42L337.97,171.31L338.75,172.23L339.14,177.02L339.92,169.11L340.31,169.02L341.09,153L341.48,154.82L341.87,159.67L342.26,151.95L342.65,155.55L343.05,152.19L343.44,153.71L343.83,139.47L344.22,139.24L344.61,141.3L345.39,137.31L345.78,141.67L346.17,142.88L346.56,140.97L346.95,142.07L347.34,147.72L347.73,147.02L348.12,149.03L350.08,125.15L350.47,128.42L350.86,127.77L351.25,128.85L352.03,131.59L352.42,123.14L354.38,112.15L354.77,112.15L366.88,112.15L367.27,124.66L367.66,118.84L368.05,129.06L369.61,92.78L370,93.43L370.4,104.84L371.18,76.27L371.57,78.34L371.96,76.5L373.13,102.83L373.52,87.05L373.91,86.56L374.3,79.41L375.47,72.82L375.87,75.41L376.26,58.27L376.65,62.35L377.04,57.3L377.43,59.7L377.82,72.76L378.6,71.38L378.99,73.41L379.38,72.46L379.77,80.07L380.94,60.77L381.33,64.71L381.73,73.75L382.12,73.3L382.51,64.57L383.68,51.85L384.07,47.1L384.46,44.59L384.85,45.68L385.24,13.7L386.02,18.58L386.41,18.58L536.06,18.58L536.45,32.45L536.84,31.61L537.23,43.44L538.4,24.02L538.79,27.03L539.57,43.66L539.96,39.27L541.53,24L541.92,34.24L543.48,48.84L543.87,31.87L545.04,39.67L545.43,24.96L545.82,18.62L546.22,20.2L546.61,27.8L547,28.89L547.39,38.51L547.78,39.94L548.17,39.44L548.56,56.35L549.73,43.41L550.12,56.45L550.51,53.49L550.9,43.25L551.29,44.12L551.69,38.12L552.47,48.32L552.86,47.12L553.25,43.39L553.64,40.77L554.03,47.53L554.42,45.29L554.81,46.8L555.2,50.98L556.37,45.12L556.76,50.09L557.94,55.2L558.33,57.3L559.11,55.63L559.5,59.6L559.89,64.05L560.28,54.08L560.67,53.47L561.06,47.77L561.84,40.37L562.23,32.51L563.41,20.73L563.8,20.73L631,20.73" style="vector-effect: non-scaling-stroke; fill: none; stroke: rgb(148, 103, 189); stroke-opacity: 1; stroke-width: 2px; opacity: 1;"/></g><g class="points"/><g class="text"/></g><g class="trace scatter trace55c7ef8a-f04c-4aa1-af27-f46d4eb8b5d8" style="stroke-miterlimit: 2; opacity: 0;"><g class="fills"/><g class="errorbars"/><g class="lines"><path class="js-line" d="M0,255.47L631,255.47" style="vector-effect: non-scaling-stroke; fill: none; stroke: rgb(0, 0, 0); stroke-opacity: 0; stroke-width: 0px; opacity: 1;"/></g><g class="points"/><g class="text"/></g></g></g><g class="overplot"/><path class="xlines-above crisp" d="M0,0" style="fill: none;"/><path class="ylines-above crisp" d="M0,0" style="fill: none;"/><g class="overlines-above"/><g class="xaxislayer-above"><g class="xtick"><text text-anchor="middle" x="0" y="333" transform="translate(89.53,0)" style="font-family: 'Open Sans', verdana, arial, sans-serif; font-size: 12px; fill: rgb(214, 223, 239); fill-opacity: 1; white-space: pre; opacity: 1;">Jan 2018</text></g><g class="xtick"><text text-anchor="middle" x="0" y="333" style="font-family: 'Open Sans', verdana, arial, sans-serif; font-size: 12px; fill: rgb(214, 223, 239); fill-opacity: 1; white-space: pre; opacity: 1;" transform="translate(160.25,0)">Jul 2018</text></g><g class="xtick"><text text-anchor="middle" x="0" y="333" style="font-family: 'Open Sans', verdana, arial, sans-serif; font-size: 12px; fill: rgb(214, 223, 239); fill-opacity: 1; white-space: pre; opacity: 1;" transform="translate(232.14,0)">Jan 2019</text></g><g class="xtick"><text text-anchor="middle" x="0" y="333" style="font-family: 'Open Sans', verdana, arial, sans-serif; font-size: 12px; fill: rgb(214, 223, 239); fill-opacity: 1; white-space: pre; opacity: 1;" transform="translate(302.86,0)">Jul 2019</text></g><g class="xtick"><text text-anchor="middle" x="0" y="333" style="font-family: 'Open Sans', verdana, arial, sans-serif; font-size: 12px; fill: rgb(214, 223, 239); fill-opacity: 1; white-space: pre; opacity: 1;" transform="translate(374.75,0)">Jan 2020</text></g><g class="xtick"><text text-anchor="middle" x="0" y="333" style="font-family: 'Open Sans', verdana, arial, sans-serif; font-size: 12px; fill: rgb(214, 223, 239); fill-opacity: 1; white-space: pre; opacity: 1;" transform="translate(445.86,0)">Jul 2020</text></g><g class="xtick"><text text-anchor="middle" x="0" y="333" style="font-family: 'Open Sans', verdana, arial, sans-serif; font-size: 12px; fill: rgb(214, 223, 239); fill-opacity: 1; white-space: pre; opacity: 1;" transform="translate(517.75,0)">Jan 2021</text></g><g class="xtick"><text text-anchor="middle" x="0" y="333" style="font-family: 'Open Sans', verdana, arial, sans-serif; font-size: 12px; fill: rgb(214, 223, 239); fill-opacity: 1; white-space: pre; opacity: 1;" transform="translate(588.47,0)">Jul 2021</text></g><g class="xtick"><text text-anchor="middle" x="0" y="333" style="font-family: 'Open Sans', verdana, arial, sans-serif; font-size: 12px; fill: rgb(214, 223, 239); fill-opacity: 1; white-space: pre; opacity: 1;" transform="translate(660.36,0)">Jan 2022</text></g></g><g class="yaxislayer-above"><g class="ytick"><text text-anchor="end" x="35" y="4.199999999999999" transform="translate(0,301.47)" style="font-family: 'Open Sans', verdana, arial, sans-serif; font-size: 12px; fill: rgb(214, 223, 239); fill-opacity: 1; white-space: pre; opacity: 1;">100</text></g><g class="ytick"><text text-anchor="end" x="35" y="4.199999999999999" style="font-family: 'Open Sans', verdana, arial, sans-serif; font-size: 12px; fill: rgb(214, 223, 239); fill-opacity: 1; white-space: pre; opacity: 1;" transform="translate(0,215.65)">150</text></g><g class="ytick"><text text-anchor="end" x="35" y="4.199999999999999" style="font-family: 'Open Sans', verdana, arial, sans-serif; font-size: 12px; fill: rgb(214, 223, 239); fill-opacity: 1; white-space: pre; opacity: 1;" transform="translate(0,129.84)">200</text></g></g><g class="overaxes-above"/></g></g><g class="polarlayer"/><g class="ternarylayer"/><g class="geolayer"/><g class="funnelarealayer"/><g class="pielayer"/><g class="iciclelayer"/><g class="treemaplayer"/><g class="sunburstlayer"/><g class="glimages"/><defs id="topdefs-7a4663"><g class="clips"/><clipPath id="legend7a4663"><rect width="79" height="29" x="0" y="0"/></clipPath></defs><g class="layer-above"><g class="imagelayer"/><g class="shapelayer"><path data-index="0" fill-rule="evenodd" d="M36,301.47L667,301.47" clip-path="url(#clip7a4663y)" style="opacity: 1; stroke: rgb(128, 128, 128); stroke-opacity: 1; fill: rgb(0, 0, 0); fill-opacity: 0; stroke-dasharray: 9px, 9px; stroke-width: 2px;"/></g></g><g class="infolayer"><g class="legend" pointer-events="all" transform="translate(588,11.519999999999996)"><rect class="bg" shape-rendering="crispEdges" width="79" height="29" x="0" y="0" style="stroke: rgb(68, 68, 68); stroke-opacity: 1; fill: rgb(33, 34, 44); fill-opacity: 1; stroke-width: 0px;"/><g class="scrollbox" transform="" clip-path="url(#legend7a4663)"><g class="groups"><g class="traces" transform="translate(0,14.5)" style="opacity: 1;"><text class="legendtext" text-anchor="start" x="40" y="4.680000000000001" style="font-family: 'Open Sans', verdana, arial, sans-serif; font-size: 12px; fill: rgb(214, 223, 239); fill-opacity: 1; white-space: pre;">Value</text><g class="layers" style="opacity: 1;"><g class="legendfill"/><g class="legendlines"><path class="js-line" d="M5,0h30" style="fill: none; stroke: rgb(148, 103, 189); stroke-opacity: 1; stroke-width: 2px;"/></g><g class="legendsymbols"><g class="legendpoints"/></g></g><rect class="legendtoggle" x="0" y="-9.5" width="75.9375" height="19" style="fill: rgb(0, 0, 0); fill-opacity: 0;"/></g></g></g><rect class="scrollbar" rx="20" ry="3" width="0" height="0" x="0" y="0" style="fill: rgb(128, 139, 164); fill-opacity: 1;"/></g><g class="g-gtitle"/><g class="g-xtitle"/><g class="g-ytitle"/></g></svg>