<svg class="main-svg" xmlns="http://www.w3.org/2000/svg" xmlns:xlink="http://www.w3.org/1999/xlink" width="700" height="350" viewBox="0 0 700 350"><rect x="0" y="0" width="700" height="350" style="fill: rgb(33, 34, 44); fill-opacity: 1;"/><defs id="defs-0518d2"><g class="clips"><clipPath id="clip0518d2xyplot" class="plotclip"><rect width="634" height="274"/></clipPath><clipPath class="axesclip" id="clip0518d2x"><rect x="36" y="0" width="634" height="350"/></clipPath><clipPath class="axesclip" id="clip0518d2y"><rect x="0" y="46" width="700" height="274"/></clipPath><clipPath class="axesclip" id="clip0518d2xy"><rect x="36" y="46" width="634" height="274"/></clipPath></g><g class="gradients"/><g class="patterns"/></defs><g class="bglayer"/><g class="layer-below"><g class="imagelayer"/><g class="shapelayer"/></g><g class="cartesianlayer"><g class="subplot xy"><g class="layer-subplot"><g class="shapelayer"><path data-index="0" fill-rule="evenodd" d="M62.07,232.82H653.82V133.18H62.07Z" clip-path="url(#clip0518d2xy)" style="opacity: 0.2; stroke: rgb(0, 0, 0); stroke-opacity: 0; fill: rgb(128, 0, 128); fill-opacity: 1; stroke-width: 0px;"/></g><g class="imagelayer"/></g><g class="gridlayer"><g class="x"><path class="xgrid crisp" transform="translate(112.27,0)" d="M0,46v274" style="stroke: rgb(47, 62, 78); stroke-opacity: 1; stroke-width: 1px;"/><path class="xgrid crisp" transform="translate(246.01,0)" d="M0,46v274" style="stroke: rgb(47, 62, 78); stroke-opacity: 1; stroke-width: 1px;"/><path class="xgrid crisp" transform="translate(379.75,0)" d="M0,46v274" style="stroke: rgb(47, 62, 78); stroke-opacity: 1; stroke-width: 1px;"/><path class="xgrid crisp" transform="translate(513.85,0)" d="M0,46v274" style="stroke: rgb(47, 62, 78); stroke-opacity: 1; stroke-width: 1px;"/><path class="xgrid crisp" transform="translate(647.59,0)" d="M0,46v274" style="stroke: rgb(47, 62, 78); stroke-opacity: 1; stroke-width: 1px;"/></g><g class="y"><path class="ygrid crisp" transform="translate(0,257.73)" d="M36,0h634" style="stroke: rgb(47, 62, 78); stroke-opacity: 1; stroke-width: 1px;"/><path class="ygrid crisp" transform="translate(0,207.91)" d="M36,0h634" style="stroke: rgb(47, 62, 78); stroke-opacity: 1; stroke-width: 1px;"/><path class="ygrid crisp" transform="translate(0,158.09)" d="M36,0h634" style="stroke: rgb(47, 62, 78); stroke-opacity: 1; stroke-width: 1px;"/><path class="ygrid crisp" transform="translate(0,108.27000000000001)" d="M36,0h634" style="stroke: rgb(47, 62, 78); stroke-opacity: 1; stroke-width: 1px;"/><path class="ygrid crisp" transform="translate(0,58.45)" d="M36,0h634" style="stroke: rgb(47, 62, 78); stroke-opacity: 1; stroke-width: 1px;"/></g></g><g class="zerolinelayer"><path class="yzl zl crisp" transform="translate(0,307.55)" d="M36,0h634" style="stroke: rgb(47, 62, 78); stroke-opacity: 1; stroke-width: 2px;"/></g><path class="xlines-below"/><path class="ylines-below"/><g class="overlines-below"/><g class="xaxislayer-below"/><g class="yaxislayer-below"/><g class="overaxes-below"/><g class="plot" transform="translate(36,46)" clip-path="url(#clip0518d2xyplot)"><g class="scatterlayer mlayer"><g class="trace scatter trace4c4d00f4-d8e6-46c1-b973-ab18c23a1074" style="stroke-miterlimit: 2; opacity: 1;"><g class="fills"/><g class="errorbars"/><g class="lines"><path class="js-line" d="M31.2,100.11L31.57,91.27L31.94,54L33.04,129.94L33.4,114.89L33.77,107.34L34.14,112.22L34.5,136.88L35.23,145.41L35.6,144.76L35.97,160.27L36.33,169.08L36.7,199.48L38.17,138.91L38.53,156.2L39.26,183.35L39.63,170.59L40,159.05L40.36,159.59L40.73,148.91L41.1,148.79L41.46,126.78L41.83,82.91L42.2,102.33L42.56,93.66L42.93,92.98L43.3,112.97L43.66,104.96L44.03,113.1L44.39,75.62L44.76,73.67L45.13,79.28L46.23,52.37L46.59,62.65L47.69,38.51L48.06,55.04L48.42,51.94L48.79,61.82L49.89,52.93L50.26,54.79L50.62,61.57L50.99,71.14L51.36,101.25L51.72,97.06L52.09,113.33L52.82,146.23L53.19,113.42L53.55,116.56L53.92,91.47L54.65,75.08L55.02,80.87L55.75,72.83L56.12,91.84L56.85,62.03L57.22,81.77L58.32,147.71L58.68,126.3L59.05,133.29L59.42,122.46L59.78,113.25L60.15,121.82L60.52,125.74L61.25,103.32L61.62,109.26L61.98,111.22L62.35,110.85L62.71,86.38L64.18,42.65L64.55,59.4L64.91,66.05L65.28,44.82L66.01,44.72L66.38,42.9L67.48,18.24L67.84,36.54L68.58,65.3L68.94,60.03L69.68,67.27L70.04,66.52L70.41,65.4L70.78,59.48L71.14,64.4L71.51,66.1L72.97,162.28L73.34,151.91L73.71,152.93L74.07,173.46L74.44,143.85L74.81,143.14L75.17,158.24L75.91,207.58L76.27,186.04L76.64,187.9L77,161.69L77.74,141.83L78.1,97.45L78.47,96.27L78.84,109.19L79.57,150.83L79.94,142.36L80.3,146.56L80.67,143.1L81.04,116.39L82.5,179.9L82.87,182.07L83.23,205.7L83.6,184.66L83.97,187.44L85.07,179.26L85.43,165.28L86.16,176.34L86.53,161.19L86.9,168.71L87.26,148.5L87.63,148.83L88,163.08L89.46,201.77L89.83,185.81L90.2,199.06L90.56,192.98L90.93,172.87L91.66,195.1L92.03,171.84L92.76,149.1L93.13,125.04L94.23,103.22L94.59,68.27L94.96,73.63L95.32,90.81L96.42,118.46L96.79,111.42L97.16,112.89L97.52,101.65L97.89,120.38L98.62,120.26L98.99,128.34L99.36,111.18L99.72,128.99L100.09,147.88L100.82,149.32L101.19,158.3L101.55,158.75L101.92,138.18L103.39,197.22L103.75,200.5L104.12,220.02L104.48,208.72L104.85,195.19L106.32,146.03L106.68,143.63L107.78,178.85L108.15,146.07L108.88,178.55L109.25,165.8L109.98,191.64L110.35,190.3L110.71,200.44L111.08,198.3L111.45,209.38L112.55,181.02L112.91,170.57L113.28,172.35L113.65,108.33L114.74,85.09L115.11,103.66L115.48,120.06L115.84,84.12L116.21,80.57L116.58,61.83L117.31,74.07L117.68,58.86L118.04,51.69L118.41,86.14L119.14,107.8L119.87,107.28L120.24,103.04L120.61,103.06L120.97,105.35L121.34,97.27L121.71,110.73L122.07,108.68L122.44,111.32L123.17,151.1L123.54,120.28L124.64,172.39L125,165.64L125.37,160.78L125.74,161.66L126.1,174.68L126.47,212.5L126.84,198.57L127.2,208.49L127.93,180.9L128.3,186.89L128.67,204.4L129.03,193.99L129.4,181.84L130.5,208.8L130.87,179.97L131.23,178.64L131.6,163.06L133.06,182.44L133.43,156.88L133.8,125.86L134.53,126.1L134.9,125.19L136,189.52L136.36,194.1L136.73,177.25L137.1,187.01L137.46,187.83L137.83,193.72L138.19,171.14L139.66,195.67L140.03,187.66L141.49,145.68L141.86,181.49L142.96,141.36L143.32,142.07L143.69,148.7L144.06,145.89L144.42,146.39L145.16,98.43L145.52,100.85L145.89,110.26L146.26,123.26L146.62,122.61L146.99,111.41L147.72,148.78L148.09,137.53L148.45,128.94L149.55,83.31L149.92,96.37L150.29,99.57L150.65,96.74L151.02,81.81L151.38,40.08L151.75,58.16L152.12,66.99L152.85,60.17L153.22,62.67L153.58,72.16L153.95,117.14L156.15,172.29L156.51,227.19L156.88,230.11L157.25,205.65L157.61,233.44L157.98,230.3L158.35,223.32L158.71,223.6L159.08,217.64L160.91,166.33L161.28,171.64L162.74,100.72L163.11,102.07L163.48,109.45L164.21,82.36L164.58,89.01L164.94,95.15L165.31,106.31L165.67,79.2L166.04,78.79L166.41,57.05L166.77,61.15L167.14,116.03L168.24,169.09L168.61,162.79L168.97,173.79L169.34,189.38L169.71,183.36L170.07,168.51L170.44,171.13L170.8,184.54L171.9,203.43L172.27,166L173.37,81.25L173.74,87.81L174.1,109.42L174.83,124.72L175.2,118.84L175.93,129.78L176.3,126.06L176.67,99.66L178.5,154.07L178.87,149.31L179.6,101.33L179.96,109.76L180.33,197.48L181.06,174.16L181.43,178.36L181.8,122.93L182.16,112.15L182.53,113.14L182.9,134.25L183.26,147.39L183.63,138.03L183.99,139.44L184.73,147.31L185.09,143.41L185.46,98.62L185.83,102.11L186.19,111.91L186.56,115.35L186.93,221.89L187.29,226.41L187.66,211.39L188.39,162.37L188.76,190.57L189.86,143.53L190.22,134.7L190.96,157L191.32,149.17L191.69,143.78L192.42,108.78L192.79,189.58L194.62,238.15L194.99,247.36L196.09,239.43L196.45,244.29L196.82,233.67L197.19,235.64L197.55,235.38L198.28,197.9L198.65,200.9L199.02,191.89L199.38,194.27L199.75,182.88L200.12,167.27L200.48,179.98L200.85,179.01L201.22,185.17L201.58,167.37L201.95,168.67L202.32,163.61L202.68,167.04L203.05,195.42L204.15,216.41L204.51,213.16L204.88,167.65L205.61,146.45L205.98,93.68L207.08,108.24L207.44,92.62L208.54,119.17L208.91,99.73L210.38,128.25L210.74,125.26L211.11,156.75L211.48,140.89L211.84,151.6L212.94,118.34L213.31,120L214.77,171.68L215.14,144.7L215.87,165.26L216.24,154.39L216.6,159.15L216.97,148.41L217.7,189.8L218.07,181.26L218.44,184.19L218.8,139.88L219.17,143.05L219.54,140.3L219.9,122.1L220.27,178.7L220.64,170.96L221,168.38L221.37,178.71L221.73,167.33L222.1,176.04L222.47,160.22L222.83,155.53L223.2,168.34L223.93,186.16L224.3,120.16L224.67,119.18L225.03,113.75L225.77,91.33L226.13,104.59L226.5,103.05L226.86,105.68L227.23,110.44L227.6,88.24L228.7,44.69L229.06,51.29L229.43,68.16L229.8,56.08L230.16,129.48L231.26,113.2L231.63,111.28L231.99,111.65L232.36,113.33L232.73,120.09L233.09,162.35L233.46,143.07L233.83,150.94L234.19,145.41L234.93,162.59L235.29,94.29L235.66,125.37L236.39,124.08L236.76,120.33L237.49,97.62L237.86,100.76L238.22,71.22L239.32,108.85L239.69,104.59L240.05,118.09L240.42,113.5L240.79,117.65L241.15,117.08L241.52,92.64L242.25,93.63L242.62,108.24L243.35,94.01L243.72,45.02L244.09,43.65L244.45,38.34L245.55,31.4L245.92,21.31L247.75,71.02L248.12,67.9L249.22,111.31L249.58,103.31L250.68,127.38L251.05,124.25L251.41,101.78L251.78,125.12L252.15,112.39L252.51,106.45L253.25,115.65L253.61,110.63L253.98,117.4L254.34,113.9L254.71,108.42L255.44,86.75L255.81,89.48L256.54,101.25L256.91,82.34L258.01,30.57L258.38,42.15L259.47,27.26L259.84,48.76L260.57,87.98L260.94,70.7L263.14,107.72L263.5,91.57L264.97,123.34L265.34,93.14L265.7,88.67L266.07,109.41L266.8,144.95L267.17,131.19L267.54,139.58L267.9,136.42L268.27,142.12L268.63,181.03L269,169.03L269.37,170.86L270.83,126.78L271.2,128.16L272.3,72.08L272.66,67.15L274.86,23.01L275.23,82.47L275.6,76.66L275.96,89.44L276.7,118.58L277.06,112.23L277.43,102.82L278.53,130.12L278.89,130.41L279.26,122.56L279.63,127.7L279.99,150.85L280.36,136.8L280.73,148.18L281.09,146.55L281.46,148.65L281.83,133.62L282.56,172.23L282.92,144.86L283.29,144.28L283.66,144.92L284.02,149.59L284.76,180.42L285.12,176.69L285.49,164.1L285.86,174.88L286.22,174.11L286.59,152.21L286.95,173.23L287.32,131.39L287.69,122.28L288.05,148.21L289.15,122.23L289.52,84.35L290.25,64.12L290.62,65.52L290.99,68.46L292.45,101.89L292.82,137.63L293.55,141.95L293.92,153.04L294.28,153.74L294.65,163.21L295.02,158.62L295.38,190.36L295.75,191.82L296.11,178.5L296.48,172.17L296.85,181.16L297.95,149.47L298.31,166.94L299.78,158.62L300.15,142.4L300.88,116.52L301.24,140.99L301.61,122.16L301.98,126.25L302.34,140.39L302.71,141.15L303.08,112.48L303.44,86.47L303.81,94.76L304.18,95.82L304.54,103.33L304.91,144.11L305.28,175.51L305.64,174.57L306.01,164.59L306.37,150L306.74,182.84L307.11,172.27L307.47,187.04L308.57,249.13L308.94,238.64L309.31,236.68L309.67,237.81L310.04,218.75L310.4,217.65L310.77,212.52L311.5,220.69L311.87,218.2L312.24,224.9L312.6,197.95L313.7,103.99L314.07,132.11L314.44,130.84L314.8,122.12L315.9,159.17L316.27,146.62L316.63,148.69L317,147.95L317.37,114.32L318.83,205.55L319.2,120.61L319.93,96.21L320.3,110.81L320.66,99.02L321.03,102.49L321.4,104.66L322.13,96.72L322.5,106.42L323.23,97.31L323.6,70.81L323.96,74.48L324.33,131.73L325.06,164.88L325.43,164.13L325.79,172.61L326.16,162.49L326.53,168.47L326.89,183.35L327.26,186.71L327.63,181.97L328.72,213.76L329.09,220.76L329.82,218.64L330.19,245.11L332.02,170.22L332.39,177.52L332.76,182.27L333.12,176.15L333.49,174.59L333.85,176.5L335.32,98.29L335.69,122.2L337.15,182.81L337.52,182.38L337.89,164.89L338.62,188.71L338.98,132.22L340.08,159.01L340.45,137.5L340.82,138.12L341.18,135.3L342.28,137.14L342.65,122.82L343.01,121.94L343.38,116.34L343.75,99.96L344.11,144.54L344.48,153.75L344.85,125.66L345.21,120.47L345.58,150.59L346.31,77.22L346.68,81.16L347.05,100.98L347.41,89.15L347.78,102.93L348.51,95.59L348.88,75L349.24,75.01L349.61,66.91L350.34,70.51L350.71,83.58L351.44,107.59L351.81,105.21L352.17,107.79L352.54,123.12L352.91,117.8L353.27,112.52L353.64,95.69L354.01,104.77L354.37,110.17L354.74,94.98L355.11,113.38L355.47,112.05L355.84,101.05L356.21,99.64L356.57,110.47L358.04,56.2L358.4,56.53L359.14,90.89L359.5,82L359.87,96.56L360.24,79.83L361.34,117.78L361.7,97.51L362.43,144.14L362.8,142.52L363.17,147.03L363.9,145.03L364.27,174.51L365.37,197.68L365.73,192.1L366.1,192.07L366.46,167.02L366.83,195.51L367.2,180.25L367.56,161.75L367.93,161.95L368.3,169.37L368.66,204.46L369.03,201.44L369.4,195.42L369.76,178.73L370.13,225.87L371.23,195.93L371.59,209.71L372.69,186.22L373.06,187.03L373.43,184.62L374.53,156.44L374.89,158.18L375.26,81.13L376.36,119.99L376.72,94.38L378.19,116.91L378.56,112.31L378.92,98.51L379.29,101.15L379.66,117.27L380.02,108.2L380.39,114.09L380.75,116.36L381.12,109.61L381.49,87.64L382.59,138.27L382.95,121.61L383.32,122.41L383.69,118.3L384.05,120.6L384.42,163.18L385.15,149.29L385.52,127.64L386.62,96.13L386.98,88.85L387.35,92.3L387.72,53.48L388.08,71.69L388.45,62.94L388.82,64.22L389.18,60.9L389.55,40.3L389.91,38.92L390.28,40.57L390.65,36.16L391.01,49.21L392.11,113.76L392.48,106.91L392.85,120.04L393.21,102.43L393.58,123.41L393.95,125.47L394.31,115.84L394.68,113.97L395.04,116.39L395.41,127.24L395.78,163.63L397.24,125.38L397.61,135.91L398.34,145.43L398.71,132.19L399.07,124.15L399.44,146.6L399.81,121.31L400.17,144.34L400.54,132.46L400.91,114.15L401.27,122.93L401.64,121.92L402.01,101.88L402.37,105.64L402.74,103.39L403.11,110.5L403.47,147.77L403.84,135.62L404.2,145.71L404.57,141.28L404.94,176.96L405.3,136.39L406.04,166.31L406.4,160.95L406.77,160.67L407.14,172.12L407.5,143.12L407.87,146.17L408.23,169.85L408.6,139.2L408.97,161.04L409.33,170.59L409.7,153.72L410.07,154.32L410.43,166.71L410.8,154.47L411.17,158.6L411.53,155.7L411.9,153.31L412.27,153.39L412.63,163.83L413,165.26L413.36,125.33L413.73,138.31L414.1,127.14L414.46,118.53L414.83,121.06L415.2,132.72L415.56,126.56L415.93,140.13L416.66,127.6L417.03,133.39L417.4,122.41L417.76,160.41L418.86,87.95L419.23,104.28L420.33,38.43L420.69,50.23L421.06,42.38L422.16,31.52L422.52,75.92L422.89,71.21L423.26,76.28L423.62,69.7L423.99,70.66L424.36,75.38L424.72,75.32L425.09,82.63L426.19,120.39L426.56,114.06L427.29,134.94L427.65,93.97L428.02,87.15L428.39,105.31L429.49,139.77L429.85,141.34L430.22,138.53L430.59,143.87L430.95,140.59L431.32,142.08L431.68,159.94L432.78,145.98L433.15,168.92L433.52,138.2L433.88,153.61L434.25,191.85L434.62,171.83L434.98,183.29L435.35,179.28L435.72,178.57L436.08,174.71L436.45,176.82L436.81,168.96L437.91,184.94L438.28,168.56L438.65,175.27L439.01,153.23L440.11,68.61L440.48,89.32L441.58,135.73L441.94,117.56L442.68,122.92L443.04,114.88L444.14,147.27L444.51,154.42L444.88,156.35L445.24,167.25L445.97,111.11L446.34,132.37L446.71,105.17L447.07,120.5L447.44,106.82L448.54,79.88L448.91,96.36L449.27,90.46L449.64,69.96L450.01,84.69L450.37,80.25L450.74,79.57L451.1,75.32L451.47,51.23L451.84,39.72L452.2,40.45L452.57,45.78L452.94,46.5L453.3,54.56L453.67,56.99L454.04,40.13L454.4,65.4L454.77,63.77L455.13,50.76L455.5,48.64L455.87,52.09L456.97,77.24L457.33,57.36L457.7,55.57L458.07,91.16L458.43,78.55L458.8,83.86L459.17,93.74L459.9,69.31L460.26,70.15L460.63,82.02L461,84.86L461.36,68.94L462.1,64.69L462.46,80.04L463.2,39.58L463.56,57.44L464.29,45.55L464.66,65.89L465.39,120.69L465.76,105.8L466.49,88.72L466.86,119.07L467.59,112.38L467.96,137.08L468.69,123.13L469.06,125.47L469.42,148.99L470.16,117.81L470.52,121.86L470.89,119.09L471.26,120.5L471.62,145.67L473.46,61.91L473.82,72.47L474.19,84.64L474.55,58.45L474.92,72.52L475.29,63.46L475.65,54.15L476.02,50.35L476.39,55.73L477.12,52.59L477.49,54.07L477.85,60.01L478.22,59.54L478.58,51.28L478.95,42.63L479.32,47.3L479.68,45.1L480.78,29.07L481.15,37.62L482.25,98.86L482.62,92.15L482.98,86.72L484.08,122.68L484.45,113.3L485.18,144.82L485.55,184.13L487.38,147.76L487.74,187.96L488.84,150.39L489.21,156.89L489.58,160.11L489.94,139.98L491.41,78.12L491.78,83.54L492.87,55.77L493.24,55.47L493.97,64.73L494.34,51.18L495.07,59.62L495.44,57.89L495.81,56.83L496.9,48.04L497.27,92.96L498.37,141.36L498.74,141.95L499.1,142.1L499.47,153.98L499.84,129.78L500.2,139.99L500.57,144.88L500.94,150.49L501.3,172.15L502.03,167.98L502.4,145.87L503.5,73.08L503.87,70.84L504.23,59.99L504.6,69.76L504.97,106.51L506.07,89.07L506.43,89.02L506.8,89.23L507.16,101.93L508.63,172.92L509,147.67L509.36,166.77L509.73,156.63L510.1,123.54L510.46,124.64L510.83,138.3L511.19,128.24L511.56,129.45L511.93,144.67L512.66,95.3L513.03,108.53L513.39,108.5L513.76,87.49L514.13,108.02L514.49,102.42L514.86,100.55L515.23,115.19L515.59,97.71L515.96,103.98L516.32,102.66L517.79,159.43L518.16,147.22L518.52,150.71L518.89,177.5L519.26,180.45L519.62,198.8L519.99,203.93L520.35,166.02L521.45,188.83L521.82,154.84L522.92,128.14L523.29,153.19L524.39,106.88L524.75,94.99L525.12,92.7L525.48,127.29L525.85,128.07L526.22,158.97L526.58,153.71L526.95,176.18L528.05,194.82L528.42,186.44L528.78,229.26L529.15,201.07L529.52,212.26L530.25,223.35L530.61,196.35L530.98,201.69L531.35,181.06L532.08,191.56L532.45,186.89L533.55,162.86L533.91,132.41L535.01,147.78L535.38,130.04L535.74,173.25L536.11,171.71L536.48,148.08L536.84,148.08L537.21,125.83L537.58,130.94L537.94,117.68L538.31,118.25L538.68,117L539.41,143.85L539.77,143.03L540.14,137.2L540.51,138.24L540.87,148.29L541.24,141.9L541.61,160.94L541.97,149.81L542.34,169.55L542.71,156.4L543.07,164.03L543.44,177.31L544.17,158.98L544.54,165.58L546,121.5L546.37,123.94L547.1,151.36L547.47,116.12L548.57,151.3L548.93,172.37L549.67,157.62L550.03,166.81L551.5,199.74L551.87,156.83L555.16,45.93L555.53,56.65L555.9,77.03L556.26,74.4L556.63,73.15L557,76.41L557.36,72.57L558.09,66.87L558.46,78.69L558.83,76.57L559.19,92.14L559.93,106.05L560.29,100.03L560.66,99.92L561.03,85.76L562.13,99.3L562.49,94.69L562.86,91.99L563.22,105.33L563.59,95.53L563.96,108.48L564.32,119.99L564.69,110.9L565.06,119.65L565.42,127.34L565.79,122.61L566.16,122.9L566.52,128.86L566.89,117.64L567.25,107.19L567.62,117.09L567.99,130.88L569.09,111.31L569.45,142.18L569.82,156.27L570.19,140.26L570.55,169.01L570.92,164.91L571.29,156.71L571.65,152.29L572.02,136.98L573.12,156.07L573.48,147.92L574.22,194.08L574.58,180.56L574.95,152.95L575.32,146.29L575.68,149.05L576.05,151.98L576.41,154.44L576.78,154.07L577.15,176.14L577.51,180.65L577.88,160.53L579.71,71.48L580.08,68.65L580.45,85.7L580.81,66.79L581.18,62.85L581.54,66.89L581.91,51.12L583.01,57.44L583.38,57.43L584.48,61.24L584.84,61.17L585.21,66.64L585.58,87.59L586.67,102.38L587.04,104.8L587.77,131.48L588.14,121.33L589.24,138.26L589.61,143.08L589.97,142.88L590.34,155.37L592.54,93.27L592.9,94.6L593.64,122.38L594,117.11L594.37,104.89L595.83,163.66L596.2,153.51L596.57,146.6L596.93,163.17L597.3,206.29L597.67,192.79L598.03,186.88L598.4,171.4L598.77,187.52L599.86,164.53L600.23,153.36L600.6,153.68L600.96,139.43L601.7,188.82L602.06,183.84L602.43,168.16L603.53,199.22L603.9,182.48L604.26,171.4L604.63,188.71L604.99,205.14L605.36,187.97L605.73,185.54L606.09,187.4L606.46,182.39L606.83,154.24L607.19,157.31L607.56,164.74L609.02,109.7L609.39,128.59L609.76,130.87L610.12,93.29L610.86,159.2L611.22,141.94L611.59,136.16L611.96,128.56L612.32,131.37L612.69,141.17L614.15,217.43L614.52,214.45L614.89,217.24L615.25,217.14L615.62,188.92L615.99,164.41L616.35,183.08L616.72,169.96L617.09,192.3L617.45,189.37L617.82,189.58" style="vector-effect: non-scaling-stroke; fill: none; stroke: rgb(31, 119, 180); stroke-opacity: 1; stroke-width: 2px; opacity: 1;"/></g><g class="points"/><g class="text"/></g><g class="trace scatter trace766511ff-7a2d-44d5-abb7-21d07d1b01ce" style="stroke-miterlimit: 2; opacity: 1;"><g class="fills"/><g class="errorbars"/><g class="lines"/><g class="points"><path class="point" transform="translate(36.7,199.48)" d="M-4.62,2H4.62L0,-4Z" style="opacity: 1; stroke-width: 1px; fill: rgb(55, 177, 63); fill-opacity: 1; stroke: rgb(38, 123, 44); stroke-opacity: 1;"/><path class="point" transform="translate(75.91,207.58)" d="M-4.62,2H4.62L0,-4Z" style="opacity: 1; stroke-width: 1px; fill: rgb(55, 177, 63); fill-opacity: 1; stroke: rgb(38, 123, 44); stroke-opacity: 1;"/><path class="point" transform="translate(103.39,197.22)" d="M-4.62,2H4.62L0,-4Z" style="opacity: 1; stroke-width: 1px; fill: rgb(55, 177, 63); fill-opacity: 1; stroke: rgb(38, 123, 44); stroke-opacity: 1;"/><path class="point" transform="translate(126.47,212.5)" d="M-4.62,2H4.62L0,-4Z" style="opacity: 1; stroke-width: 1px; fill: rgb(55, 177, 63); fill-opacity: 1; stroke: rgb(38, 123, 44); stroke-opacity: 1;"/><path class="point" transform="translate(156.51,227.19)" d="M-4.62,2H4.62L0,-4Z" style="opacity: 1; stroke-width: 1px; fill: rgb(55, 177, 63); fill-opacity: 1; stroke: rgb(38, 123, 44); stroke-opacity: 1;"/><path class="point" transform="translate(169.34,189.38)" d="M-4.62,2H4.62L0,-4Z" style="opacity: 1; stroke-width: 1px; fill: rgb(55, 177, 63); fill-opacity: 1; stroke: rgb(38, 123, 44); stroke-opacity: 1;"/><path class="point" transform="translate(180.33,197.48)" d="M-4.62,2H4.62L0,-4Z" style="opacity: 1; stroke-width: 1px; fill: rgb(55, 177, 63); fill-opacity: 1; stroke: rgb(38, 123, 44); stroke-opacity: 1;"/><path class="point" transform="translate(295.38,190.36)" d="M-4.62,2H4.62L0,-4Z" style="opacity: 1; stroke-width: 1px; fill: rgb(55, 177, 63); fill-opacity: 1; stroke: rgb(38, 123, 44); stroke-opacity: 1;"/><path class="point" transform="translate(307.47,187.04)" d="M-4.62,2H4.62L0,-4Z" style="opacity: 1; stroke-width: 1px; fill: rgb(55, 177, 63); fill-opacity: 1; stroke: rgb(38, 123, 44); stroke-opacity: 1;"/><path class="point" transform="translate(327.99,210.58)" d="M-4.62,2H4.62L0,-4Z" style="opacity: 1; stroke-width: 1px; fill: rgb(55, 177, 63); fill-opacity: 1; stroke: rgb(38, 123, 44); stroke-opacity: 1;"/><path class="point" transform="translate(364.63,192.76)" d="M-4.62,2H4.62L0,-4Z" style="opacity: 1; stroke-width: 1px; fill: rgb(55, 177, 63); fill-opacity: 1; stroke: rgb(38, 123, 44); stroke-opacity: 1;"/><path class="point" transform="translate(434.25,191.85)" d="M-4.62,2H4.62L0,-4Z" style="opacity: 1; stroke-width: 1px; fill: rgb(55, 177, 63); fill-opacity: 1; stroke: rgb(38, 123, 44); stroke-opacity: 1;"/><path class="point" transform="translate(487.74,187.96)" d="M-4.62,2H4.62L0,-4Z" style="opacity: 1; stroke-width: 1px; fill: rgb(55, 177, 63); fill-opacity: 1; stroke: rgb(38, 123, 44); stroke-opacity: 1;"/><path class="point" transform="translate(519.62,198.8)" d="M-4.62,2H4.62L0,-4Z" style="opacity: 1; stroke-width: 1px; fill: rgb(55, 177, 63); fill-opacity: 1; stroke: rgb(38, 123, 44); stroke-opacity: 1;"/><path class="point" transform="translate(574.22,194.08)" d="M-4.62,2H4.62L0,-4Z" style="opacity: 1; stroke-width: 1px; fill: rgb(55, 177, 63); fill-opacity: 1; stroke: rgb(38, 123, 44); stroke-opacity: 1;"/><path class="point" transform="translate(597.3,206.29)" d="M-4.62,2H4.62L0,-4Z" style="opacity: 1; stroke-width: 1px; fill: rgb(55, 177, 63); fill-opacity: 1; stroke: rgb(38, 123, 44); stroke-opacity: 1;"/></g><g class="text"/></g><g class="trace scatter trace70d48cf0-ac5a-44a2-9823-bafbd86a04c6" style="stroke-miterlimit: 2; opacity: 1;"><g class="fills"/><g class="errorbars"/><g class="lines"/><g class="points"><path class="point" transform="translate(41.83,82.91)" d="M-4.62,-2H4.62L0,4Z" style="opacity: 1; stroke-width: 1px; fill: rgb(234, 67, 53); fill-opacity: 1; stroke: rgb(181, 31, 18); stroke-opacity: 1;"/><path class="point" transform="translate(94.59,68.27)" d="M-4.62,-2H4.62L0,4Z" style="opacity: 1; stroke-width: 1px; fill: rgb(234, 67, 53); fill-opacity: 1; stroke: rgb(181, 31, 18); stroke-opacity: 1;"/><path class="point" transform="translate(114.74,85.09)" d="M-4.62,-2H4.62L0,4Z" style="opacity: 1; stroke-width: 1px; fill: rgb(234, 67, 53); fill-opacity: 1; stroke: rgb(181, 31, 18); stroke-opacity: 1;"/><path class="point" transform="translate(149.55,83.31)" d="M-4.62,-2H4.62L0,4Z" style="opacity: 1; stroke-width: 1px; fill: rgb(234, 67, 53); fill-opacity: 1; stroke: rgb(181, 31, 18); stroke-opacity: 1;"/><path class="point" transform="translate(164.21,82.36)" d="M-4.62,-2H4.62L0,4Z" style="opacity: 1; stroke-width: 1px; fill: rgb(234, 67, 53); fill-opacity: 1; stroke: rgb(181, 31, 18); stroke-opacity: 1;"/><path class="point" transform="translate(173.37,81.25)" d="M-4.62,-2H4.62L0,4Z" style="opacity: 1; stroke-width: 1px; fill: rgb(234, 67, 53); fill-opacity: 1; stroke: rgb(181, 31, 18); stroke-opacity: 1;"/><path class="point" transform="translate(227.96,65.83)" d="M-4.62,-2H4.62L0,4Z" style="opacity: 1; stroke-width: 1px; fill: rgb(234, 67, 53); fill-opacity: 1; stroke: rgb(181, 31, 18); stroke-opacity: 1;"/><path class="point" transform="translate(303.44,86.47)" d="M-4.62,-2H4.62L0,4Z" style="opacity: 1; stroke-width: 1px; fill: rgb(234, 67, 53); fill-opacity: 1; stroke: rgb(181, 31, 18); stroke-opacity: 1;"/><path class="point" transform="translate(323.6,70.81)" d="M-4.62,-2H4.62L0,4Z" style="opacity: 1; stroke-width: 1px; fill: rgb(234, 67, 53); fill-opacity: 1; stroke: rgb(181, 31, 18); stroke-opacity: 1;"/><path class="point" transform="translate(346.31,77.22)" d="M-4.62,-2H4.62L0,4Z" style="opacity: 1; stroke-width: 1px; fill: rgb(234, 67, 53); fill-opacity: 1; stroke: rgb(181, 31, 18); stroke-opacity: 1;"/><path class="point" transform="translate(375.26,81.13)" d="M-4.62,-2H4.62L0,4Z" style="opacity: 1; stroke-width: 1px; fill: rgb(234, 67, 53); fill-opacity: 1; stroke: rgb(181, 31, 18); stroke-opacity: 1;"/><path class="point" transform="translate(440.11,68.61)" d="M-4.62,-2H4.62L0,4Z" style="opacity: 1; stroke-width: 1px; fill: rgb(234, 67, 53); fill-opacity: 1; stroke: rgb(181, 31, 18); stroke-opacity: 1;"/><path class="point" transform="translate(491.41,78.12)" d="M-4.62,-2H4.62L0,4Z" style="opacity: 1; stroke-width: 1px; fill: rgb(234, 67, 53); fill-opacity: 1; stroke: rgb(181, 31, 18); stroke-opacity: 1;"/><path class="point" transform="translate(554.06,75.28)" d="M-4.62,-2H4.62L0,4Z" style="opacity: 1; stroke-width: 1px; fill: rgb(234, 67, 53); fill-opacity: 1; stroke: rgb(181, 31, 18); stroke-opacity: 1;"/><path class="point" transform="translate(579.71,71.48)" d="M-4.62,-2H4.62L0,4Z" style="opacity: 1; stroke-width: 1px; fill: rgb(234, 67, 53); fill-opacity: 1; stroke: rgb(181, 31, 18); stroke-opacity: 1;"/></g><g class="text"/></g></g></g><g class="overplot"/><path class="xlines-above crisp" d="M0,0" style="fill: none;"/><path class="ylines-above crisp" d="M0,0" style="fill: none;"/><g class="overlines-above"/><g class="xaxislayer-above"><g class="xtick"><text text-anchor="middle" x="0" y="333" transform="translate(112.27,0)" style="font-family: 'Open Sans', verdana, arial, sans-serif; font-size: 12px; fill: rgb(214, 223, 239); fill-opacity: 1; white-space: pre; opacity: 1;">2018</text></g><g class="xtick"><text text-anchor="middle" x="0" y="333" style="font-family: 'Open Sans', verdana, arial, sans-serif; font-size: 12px; fill: rgb(214, 223, 239); fill-opacity: 1; white-space: pre; opacity: 1;" transform="translate(246.01,0)">2019</text></g><g class="xtick"><text text-anchor="middle" x="0" y="333" style="font-family: 'Open Sans', verdana, arial, sans-serif; font-size: 12px; fill: rgb(214, 223, 239); fill-opacity: 1; white-space: pre; opacity: 1;" transform="translate(379.75,0)">2020</text></g><g class="xtick"><text text-anchor="middle" x="0" y="333" style="font-family: 'Open Sans', verdana, arial, sans-serif; font-size: 12px; fill: rgb(214, 223, 239); fill-opacity: 1; white-space: pre; opacity: 1;" transform="translate(513.85,0)">2021</text></g><g class="xtick"><text text-anchor="middle" x="0" y="333" style="font-family: 'Open Sans', verdana, arial, sans-serif; font-size: 12px; fill: rgb(214, 223, 239); fill-opacity: 1; white-space: pre; opacity: 1;" transform="translate(647.59,0)">2022</text></g></g><g class="yaxislayer-above"><g class="ytick"><text text-anchor="end" x="35" y="4.199999999999999" transform="translate(0,307.55)" style="font-family: 'Open Sans', verdana, arial, sans-serif; font-size: 12px; fill: rgb(214, 223, 239); fill-opacity: 1; white-space: pre; opacity: 1;">0</text></g><g class="ytick"><text text-anchor="end" x="35" y="4.199999999999999" style="font-family: 'Open Sans', verdana, arial, sans-serif; font-size: 12px; fill: rgb(214, 223, 239); fill-opacity: 1; white-space: pre; opacity: 1;" transform="translate(0,257.73)">20</text></g><g class="ytick"><text text-anchor="end" x="35" y="4.199999999999999" style="font-family: 'Open Sans', verdana, arial, sans-serif; font-size: 12px; fill: rgb(214, 223, 239); fill-opacity: 1; white-space: pre; opacity: 1;" transform="translate(0,207.91)">40</text></g><g class="ytick"><text text-anchor="end" x="35" y="4.199999999999999" style="font-family: 'Open Sans', verdana, arial, sans-serif; font-size: 12px; fill: rgb(214, 223, 239); fill-opacity: 1; white-space: pre; opacity: 1;" transform="translate(0,158.09)">60</text></g><g class="ytick"><text text-anchor="end" x="35" y="4.199999999999999" style="font-family: 'Open Sans', verdana, arial, sans-serif; font-size: 12px; fill: rgb(214, 223, 239); fill-opacity: 1; white-space: pre; opacity: 1;" transform="translate(0,108.27000000000001)">80</text></g><g class="ytick"><text text-anchor="end" x="35" y="4.199999999999999" style="font-family: 'Open Sans', verdana, arial, sans-serif; font-size: 12px; fill: rgb(214, 223, 239); fill-opacity: 1; white-space: pre; opacity: 1;" transform="translate(0,58.45)">100</text></g></g><g class="overaxes-above"/></g></g><g class="polarlayer"/><g class="ternarylayer"/><g class="geolayer"/><g class="funnelarealayer"/><g class="pielayer"/><g class="iciclelayer"/><g class="treemaplayer"/><g class="sunburstlayer"/><g class="glimages"/><defs id="topdefs-0518d2"><g class="clips"/><clipPath id="legend0518d2"><rect width="212" height="29" x="0" y="0"/></clipPath></defs><g class="layer-above"><g class="imagelayer"/><g class="shapelayer"/></g><g class="infolayer"><g class="legend" pointer-events="all" transform="translate(458,11.519999999999996)"><rect class="bg" shape-rendering="crispEdges" width="212" height="29" x="0" y="0" style="stroke: rgb(68, 68, 68); stroke-opacity: 1; fill: rgb(33, 34, 44); fill-opacity: 1; stroke-width: 0px;"/><g class="scrollbox" transform="" clip-path="url(#legend0518d2)"><g class="groups"><g class="traces" transform="translate(0,14.5)" style="opacity: 1;"><text class="legendtext" text-anchor="start" x="40" y="4.680000000000001" style="font-family: 'Open Sans', verdana, arial, sans-serif; font-size: 12px; fill: rgb(214, 223, 239); fill-opacity: 1; white-space: pre;">RSI</text><g class="layers" style="opacity: 1;"><g class="legendfill"/><g class="legendlines"><path class="js-line" d="M5,0h30" style="fill: none; stroke: rgb(31, 119, 180); stroke-opacity: 1; stroke-width: 2px;"/></g><g class="legendsymbols"><g class="legendpoints"/></g></g><rect class="legendtoggle" x="0" y="-9.5" width="64.09375" height="19" style="fill: rgb(0, 0, 0); fill-opacity: 0;"/></g><g class="traces" transform="translate(66.59375,14.5)" style="opacity: 1;"><text class="legendtext" text-anchor="start" x="40" y="4.680000000000001" style="font-family: 'Open Sans', verdana, arial, sans-serif; font-size: 12px; fill: rgb(214, 223, 239); fill-opacity: 1; white-space: pre;">Entry</text><g class="layers" style="opacity: 1;"><g class="legendfill"/><g class="legendlines"/><g class="legendsymbols"><g class="legendpoints"><path class="scatterpts" transform="translate(20,0)" d="M-4.62,2H4.62L0,-4Z" style="opacity: 1; stroke-width: 1px; fill: rgb(55, 177, 63); fill-opacity: 1; stroke: rgb(38, 123, 44); stroke-opacity: 1;"/></g></g></g><rect class="legendtoggle" x="0" y="-9.5" width="74.625" height="19" style="fill: rgb(0, 0, 0); fill-opacity: 0;"/></g><g class="traces" transform="translate(143.71875,14.5)" style="opacity: 1;"><text class="legendtext" text-anchor="start" x="40" y="4.680000000000001" style="font-family: 'Open Sans', verdana, arial, sans-serif; font-size: 12px; fill: rgb(214, 223, 239); fill-opacity: 1; white-space: pre;">Exit</text><g class="layers" style="opacity: 1;"><g class="legendfill"/><g class="legendlines"/><g class="legendsymbols"><g class="legendpoints"><path class="scatterpts" transform="translate(20,0)" d="M-4.62,-2H4.62L0,4Z" style="opacity: 1; stroke-width: 1px; fill: rgb(234, 67, 53); fill-opacity: 1; stroke: rgb(181, 31, 18); stroke-opacity: 1;"/></g></g></g><rect class="legendtoggle" x="0" y="-9.5" width="65.203125" height="19" style="fill: rgb(0, 0, 0); fill-opacity: 0;"/></g></g></g><rect class="scrollbar" rx="20" ry="3" width="0" height="0" x="0" y="0" style="fill: rgb(128, 139, 164); fill-opacity: 1;"/></g><g class="g-gtitle"/><g class="g-xtitle"/><g class="g-ytitle"/></g></svg>