<svg class="main-svg" xmlns="http://www.w3.org/2000/svg" xmlns:xlink="http://www.w3.org/1999/xlink" width="700" height="350" viewBox="0 0 700 350"><rect x="0" y="0" width="700" height="350" style="fill: rgb(33, 34, 44); fill-opacity: 1;"/><defs id="defs-3fd5f2"><g class="clips"><clipPath id="clip3fd5f2xyplot" class="plotclip"><rect width="635" height="290"/></clipPath><clipPath class="axesclip" id="clip3fd5f2x"><rect x="35" y="0" width="635" height="350"/></clipPath><clipPath class="axesclip" id="clip3fd5f2y"><rect x="0" y="30" width="700" height="290"/></clipPath><clipPath class="axesclip" id="clip3fd5f2xy"><rect x="35" y="30" width="635" height="290"/></clipPath></g><g class="gradients"/><g class="patterns"/></defs><g class="bglayer"/><g class="layer-below"><g class="imagelayer"/><g class="shapelayer"/></g><g class="cartesianlayer"><g class="subplot xy"><g class="layer-subplot"><g class="shapelayer"/><g class="imagelayer"/></g><g class="gridlayer"><g class="x"><path class="xgrid crisp" transform="translate(60.05,0)" d="M0,30v290" style="stroke: rgb(47, 62, 78); stroke-opacity: 1; stroke-width: 1px;"/><path class="xgrid crisp" transform="translate(146.31,0)" d="M0,30v290" style="stroke: rgb(47, 62, 78); stroke-opacity: 1; stroke-width: 1px;"/><path class="xgrid crisp" transform="translate(232.8,0)" d="M0,30v290" style="stroke: rgb(47, 62, 78); stroke-opacity: 1; stroke-width: 1px;"/><path class="xgrid crisp" transform="translate(319.06,0)" d="M0,30v290" style="stroke: rgb(47, 62, 78); stroke-opacity: 1; stroke-width: 1px;"/><path class="xgrid crisp" transform="translate(405.32,0)" d="M0,30v290" style="stroke: rgb(47, 62, 78); stroke-opacity: 1; stroke-width: 1px;"/><path class="xgrid crisp" transform="translate(491.58,0)" d="M0,30v290" style="stroke: rgb(47, 62, 78); stroke-opacity: 1; stroke-width: 1px;"/><path class="xgrid crisp" transform="translate(578.07,0)" d="M0,30v290" style="stroke: rgb(47, 62, 78); stroke-opacity: 1; stroke-width: 1px;"/><path class="xgrid crisp" transform="translate(664.33,0)" d="M0,30v290" style="stroke: rgb(47, 62, 78); stroke-opacity: 1; stroke-width: 1px;"/></g><g class="y"><path class="ygrid crisp" transform="translate(0,259.51)" d="M35,0h635" style="stroke: rgb(47, 62, 78); stroke-opacity: 1; stroke-width: 1px;"/><path class="ygrid crisp" transform="translate(0,210.81)" d="M35,0h635" style="stroke: rgb(47, 62, 78); stroke-opacity: 1; stroke-width: 1px;"/><path class="ygrid crisp" transform="translate(0,162.11)" d="M35,0h635" style="stroke: rgb(47, 62, 78); stroke-opacity: 1; stroke-width: 1px;"/><path class="ygrid crisp" transform="translate(0,113.41)" d="M35,0h635" style="stroke: rgb(47, 62, 78); stroke-opacity: 1; stroke-width: 1px;"/><path class="ygrid crisp" transform="translate(0,64.71000000000001)" d="M35,0h635" style="stroke: rgb(47, 62, 78); stroke-opacity: 1; stroke-width: 1px;"/></g></g><g class="zerolinelayer"><path class="yzl zl crisp" transform="translate(0,308.21)" d="M35,0h635" style="stroke: rgb(47, 62, 78); stroke-opacity: 1; stroke-width: 2px;"/></g><path class="xlines-below"/><path class="ylines-below"/><g class="overlines-below"/><g class="xaxislayer-below"/><g class="yaxislayer-below"/><g class="overaxes-below"/><g class="plot" transform="translate(35,30)" clip-path="url(#clip3fd5f2xyplot)"><g class="scatterlayer mlayer"><g class="trace scatter trace4728aa1b-a26c-4b73-b128-730f78af4a51" style="stroke-miterlimit: 2; opacity: 1;"><g class="fills"/><g class="errorbars"/><g class="lines"><path class="js-line" d="M0,273.76L1.42,274.15L1.65,274.14L25.05,274.65L25.29,274.65L56.48,275.35L56.72,275.35L145.81,274.75L146.05,274.74L184.1,273.66L184.33,273.66L203,272.91L203.24,272.9L220.73,271.42L220.96,271.4L227.58,270.47L227.82,270.33L234.91,265.95L235.14,265.79L240.1,263.04L240.34,262.99L249.32,260.8L249.56,260.66L251.21,259.11L251.45,258.86L255.7,255.12L255.94,254.91L258.77,253.45L259.01,253.4L266.34,250.42L266.57,250.28L271.3,245.52L271.54,245.22L276.03,237.03L276.26,235.75L277.92,228.72L278.15,224.78L279.81,208.63L280.04,206.47L282.64,189.21L282.88,188.26L285.24,178.95L285.48,178.01L287.37,173.98L287.61,173.86L291.15,173.17L291.39,173.29L294.69,175.09L294.93,175.11L300.13,175.16L300.37,175.2L307.22,177.44L307.46,177.53L313.36,178.9L313.6,178.92L321.64,180.67L321.87,180.76L343.14,185.41L343.38,185.46L362.05,189.43L362.28,189.55L377.64,195.16L377.88,195.23L386.39,198.82L386.62,198.93L397.26,203.43L397.5,203.52L402.22,204.42L402.46,204.43L405.77,203.99L406,203.95L411.67,202.78L411.91,202.35L415.93,199.46L416.16,199.38L419.95,198.46L420.18,198.41L434.6,195.63L434.83,195.63L453.03,196.1L453.27,196.14L462.25,196.56L462.48,196.56L469.1,195.28L469.34,195.23L473.36,195.33L473.59,195.51L480.21,197.29L480.44,197.32L486.35,197.61L486.59,197.54L494.15,196.71L494.39,196.69L513.53,194.75L513.77,194.71L529.6,191.35L529.84,191.22L534.33,188.45L534.56,188.22L540.47,183.79L540.71,183.5L543.54,178.3L543.78,177.51L552.76,148.52L553,147.48L556.07,134.01L556.3,129.81L559.38,121.29L559.61,120.44L563.63,106.66L563.87,105.86L569.77,84.06L570.01,83.61L576.63,66.45L576.86,66.09L579.7,63.69L579.94,63.57L583.01,61.13L583.25,60.98L588.21,58.56L588.44,58.48L592.46,56.95L592.7,56.76L596.48,53.66L596.72,53.44L602.15,47.49L602.39,47.24L610.66,38.95L610.9,38.43L622.71,21.84L622.95,21.62L626.49,19.1L626.73,18.94L635,14.5" style="vector-effect: non-scaling-stroke; fill: none; stroke: rgb(31, 119, 180); stroke-opacity: 1; stroke-width: 2px; opacity: 1;"/></g><g class="points"/><g class="text"/></g></g></g><g class="overplot"/><path class="xlines-above crisp" d="M0,0" style="fill: none;"/><path class="ylines-above crisp" d="M0,0" style="fill: none;"/><g class="overlines-above"/><g class="xaxislayer-above"><g class="xtick"><text text-anchor="middle" x="0" y="333" transform="translate(60.05,0)" style="font-family: 'Open Sans', verdana, arial, sans-serif; font-size: 12px; fill: rgb(214, 223, 239); fill-opacity: 1; white-space: pre; opacity: 1;">2015</text></g><g class="xtick"><text text-anchor="middle" x="0" y="333" style="font-family: 'Open Sans', verdana, arial, sans-serif; font-size: 12px; fill: rgb(214, 223, 239); fill-opacity: 1; white-space: pre; opacity: 1;" transform="translate(146.31,0)">2016</text></g><g class="xtick"><text text-anchor="middle" x="0" y="333" style="font-family: 'Open Sans', verdana, arial, sans-serif; font-size: 12px; fill: rgb(214, 223, 239); fill-opacity: 1; white-space: pre; opacity: 1;" transform="translate(232.8,0)">2017</text></g><g class="xtick"><text text-anchor="middle" x="0" y="333" style="font-family: 'Open Sans', verdana, arial, sans-serif; font-size: 12px; fill: rgb(214, 223, 239); fill-opacity: 1; white-space: pre; opacity: 1;" transform="translate(319.06,0)">2018</text></g><g class="xtick"><text text-anchor="middle" x="0" y="333" style="font-family: 'Open Sans', verdana, arial, sans-serif; font-size: 12px; fill: rgb(214, 223, 239); fill-opacity: 1; white-space: pre; opacity: 1;" transform="translate(405.32,0)">2019</text></g><g class="xtick"><text text-anchor="middle" x="0" y="333" style="font-family: 'Open Sans', verdana, arial, sans-serif; font-size: 12px; fill: rgb(214, 223, 239); fill-opacity: 1; white-space: pre; opacity: 1;" transform="translate(491.58,0)">2020</text></g><g class="xtick"><text text-anchor="middle" x="0" y="333" style="font-family: 'Open Sans', verdana, arial, sans-serif; font-size: 12px; fill: rgb(214, 223, 239); fill-opacity: 1; white-space: pre; opacity: 1;" transform="translate(578.07,0)">2021</text></g><g class="xtick"><text text-anchor="middle" x="0" y="333" style="font-family: 'Open Sans', verdana, arial, sans-serif; font-size: 12px; fill: rgb(214, 223, 239); fill-opacity: 1; white-space: pre; opacity: 1;" transform="translate(664.33,0)">2022</text></g></g><g class="yaxislayer-above"><g class="ytick"><text text-anchor="end" x="34" y="4.199999999999999" transform="translate(0,308.21)" style="font-family: 'Open Sans', verdana, arial, sans-serif; font-size: 12px; fill: rgb(214, 223, 239); fill-opacity: 1; white-space: pre; opacity: 1;">0</text></g><g class="ytick"><text text-anchor="end" x="34" y="4.199999999999999" style="font-family: 'Open Sans', verdana, arial, sans-serif; font-size: 12px; fill: rgb(214, 223, 239); fill-opacity: 1; white-space: pre; opacity: 1;" transform="translate(0,259.51)">5k</text></g><g class="ytick"><text text-anchor="end" x="34" y="4.199999999999999" style="font-family: 'Open Sans', verdana, arial, sans-serif; font-size: 12px; fill: rgb(214, 223, 239); fill-opacity: 1; white-space: pre; opacity: 1;" transform="translate(0,210.81)">10k</text></g><g class="ytick"><text text-anchor="end" x="34" y="4.199999999999999" style="font-family: 'Open Sans', verdana, arial, sans-serif; font-size: 12px; fill: rgb(214, 223, 239); fill-opacity: 1; white-space: pre; opacity: 1;" transform="translate(0,162.11)">15k</text></g><g class="ytick"><text text-anchor="end" x="34" y="4.199999999999999" style="font-family: 'Open Sans', verdana, arial, sans-serif; font-size: 12px; fill: rgb(214, 223, 239); fill-opacity: 1; white-space: pre; opacity: 1;" transform="translate(0,113.41)">20k</text></g><g class="ytick"><text text-anchor="end" x="34" y="4.199999999999999" style="font-family: 'Open Sans', verdana, arial, sans-serif; font-size: 12px; fill: rgb(214, 223, 239); fill-opacity: 1; white-space: pre; opacity: 1;" transform="translate(0,64.71000000000001)">25k</text></g></g><g class="overaxes-above"/></g></g><g class="polarlayer"/><g class="ternarylayer"/><g class="geolayer"/><g class="funnelarealayer"/><g class="pielayer"/><g class="iciclelayer"/><g class="treemaplayer"/><g class="sunburstlayer"/><g class="glimages"/><defs id="topdefs-3fd5f2"><g class="clips"/></defs><g class="layer-above"><g class="imagelayer"/><g class="shapelayer"/></g><g class="infolayer"><g class="g-gtitle"/><g class="g-xtitle"/><g class="g-ytitle"/></g></svg>