<svg class="main-svg" xmlns="http://www.w3.org/2000/svg" xmlns:xlink="http://www.w3.org/1999/xlink" width="700" height="350" viewBox="0 0 700 350"><rect x="0" y="0" width="700" height="350" style="fill: rgb(33, 34, 44); fill-opacity: 1;"/><defs id="defs-1489b6"><g class="clips"><clipPath id="clip1489b6xyplot" class="plotclip"><rect width="640" height="274"/></clipPath><clipPath class="axesclip" id="clip1489b6x"><rect x="30" y="0" width="640" height="350"/></clipPath><clipPath class="axesclip" id="clip1489b6y"><rect x="0" y="46" width="700" height="274"/></clipPath><clipPath class="axesclip" id="clip1489b6xy"><rect x="30" y="46" width="640" height="274"/></clipPath></g><g class="gradients"/><g class="patterns"/></defs><g class="bglayer"/><g class="layer-below"><g class="imagelayer"/><g class="shapelayer"/></g><g class="cartesianlayer"><g class="subplot xy"><g class="layer-subplot"><g class="shapelayer"/><g class="imagelayer"/></g><g class="gridlayer"><g class="x"><path class="xgrid crisp" transform="translate(136.62,0)" d="M0,46v274" style="stroke: rgb(47, 62, 78); stroke-opacity: 1; stroke-width: 1px;"/><path class="xgrid crisp" transform="translate(243.24,0)" d="M0,46v274" style="stroke: rgb(47, 62, 78); stroke-opacity: 1; stroke-width: 1px;"/><path class="xgrid crisp" transform="translate(349.71,0)" d="M0,46v274" style="stroke: rgb(47, 62, 78); stroke-opacity: 1; stroke-width: 1px;"/><path class="xgrid crisp" transform="translate(456.33,0)" d="M0,46v274" style="stroke: rgb(47, 62, 78); stroke-opacity: 1; stroke-width: 1px;"/><path class="xgrid crisp" transform="translate(562.8,0)" d="M0,46v274" style="stroke: rgb(47, 62, 78); stroke-opacity: 1; stroke-width: 1px;"/></g><g class="y"><path class="ygrid crisp" transform="translate(0,284.2)" d="M30,0h640" style="stroke: rgb(47, 62, 78); stroke-opacity: 1; stroke-width: 1px;"/><path class="ygrid crisp" transform="translate(0,248.49)" d="M30,0h640" style="stroke: rgb(47, 62, 78); stroke-opacity: 1; stroke-width: 1px;"/><path class="ygrid crisp" transform="translate(0,212.78)" d="M30,0h640" style="stroke: rgb(47, 62, 78); stroke-opacity: 1; stroke-width: 1px;"/><path class="ygrid crisp" transform="translate(0,177.08)" d="M30,0h640" style="stroke: rgb(47, 62, 78); stroke-opacity: 1; stroke-width: 1px;"/><path class="ygrid crisp" transform="translate(0,141.37)" d="M30,0h640" style="stroke: rgb(47, 62, 78); stroke-opacity: 1; stroke-width: 1px;"/><path class="ygrid crisp" transform="translate(0,105.66)" d="M30,0h640" style="stroke: rgb(47, 62, 78); stroke-opacity: 1; stroke-width: 1px;"/><path class="ygrid crisp" transform="translate(0,69.95)" d="M30,0h640" style="stroke: rgb(47, 62, 78); stroke-opacity: 1; stroke-width: 1px;"/></g></g><g class="zerolinelayer"><path class="yzl zl crisp" transform="translate(0,319.9)" d="M30,0h640" style="stroke: rgb(47, 62, 78); stroke-opacity: 1; stroke-width: 2px;"/></g><path class="xlines-below"/><path class="ylines-below"/><g class="overlines-below"/><g class="xaxislayer-below"/><g class="yaxislayer-below"/><g class="overaxes-below"/><g class="plot" transform="translate(30,46)" clip-path="url(#clip1489b6xyplot)"><g class="scatterlayer mlayer"><g class="trace scatter trace48727108-f6c2-4296-b90e-e101bd789924" style="stroke-miterlimit: 2; opacity: 1;"><g class="fills"/><g class="errorbars"/><g class="lines"><path class="js-line" d="M0,256.05L2.19,255.7L2.77,255.47L4.23,256.7L4.67,256.43L4.96,256.31L5.1,256.85L5.25,256.81L5.69,256.94L7,256.24L7.15,256.13L10.79,255.4L10.94,255.25L12.25,255.14L12.4,255.15L16.92,254.38L17.06,254.84L17.94,254.54L18.09,255L18.52,256L18.96,255.22L20.27,255.92L20.42,256.6L21.15,256.56L21.29,256.66L21.44,256.08L21.59,256.31L22.17,256.6L22.46,256.09L22.61,256.72L23.04,256.93L24.65,255.84L25.09,255.89L26.55,257.29L26.69,257.38L28.15,256.44L28.3,256.18L30.77,256.08L31.21,255.68L34.71,256.89L34.86,256.63L35.44,256.88L35.59,256.37L35.73,256.21L36.75,255.97L36.9,255.88L39.96,255.28L40.4,255.42L40.98,254.96L41.42,254.95L43.9,254.66L44.05,254.65L46.53,254.4L46.67,254.7L49.88,253.87L50.03,253.79L51.19,253.6L51.63,253.55L52.94,253.33L53.09,253.37L59.22,252.29L59.36,252.16L61.84,252.15L61.99,252.51L63.01,252.24L63.15,252.28L64.18,253.29L64.32,253.02L67.38,252.03L67.53,252.1L70.01,251.98L70.15,251.79L71.18,251.63L71.32,251.78L72.05,251.8L72.2,251.61L73.22,252.05L73.36,251.86L75.26,251.77L75.41,252.27L77.16,252.95L77.3,252.69L77.59,253.02L77.74,252.95L78.18,252.85L78.32,252.56L78.76,252.99L79.2,252.81L80.51,251.81L80.66,251.58L82.26,252.37L82.41,252.02L83.43,251.92L83.57,252.37L84.59,253.1L84.74,254.07L84.89,254.1L85.32,255.39L85.91,254.43L86.34,254.01L87.37,255.32L87.51,254.7L88.68,253.75L88.82,253.96L89.55,254.61L89.7,254.07L90.43,254.67L90.57,254.49L90.72,254.22L91.6,253.99L91.74,254.57L91.89,255.2L92.47,254.64L92.62,254.42L93.49,255.68L93.64,255.28L93.78,254.94L95.1,253.59L95.53,253.98L96.55,253.1L96.7,253.51L97.14,252.59L97.58,253.1L97.72,253.68L98.01,252.98L98.16,253.11L98.6,252.98L98.89,253.49L99.18,252.91L99.62,253.11L99.76,253.01L100.05,253.67L100.2,253.69L101.22,254.62L101.66,254.06L102.68,252.98L102.83,252.98L103.7,253.32L103.85,253.51L104.72,253.84L104.87,253.23L106.33,252.97L106.91,252.64L115.52,251L115.95,251.1L116.1,251.43L116.54,250.96L116.97,250.96L117.99,250.31L118.14,250.38L119.6,250.32L120.04,250.14L122.08,250.94L122.22,250.6L123.25,250.9L123.39,250.59L123.54,250.42L125.72,251.19L126.16,251.44L127.33,251.76L127.47,251.75L128.64,251.88L128.79,252.43L129.66,251.78L129.81,251.61L130.54,251.78L130.68,251.54L130.83,251.32L131.85,251.43L132.29,251.79L133.75,250.87L133.89,251.09L134.33,251.12L134.77,251.42L134.91,251.04L135.35,251.1L135.79,250.71L135.93,250.92L136.37,251.16L136.66,251.35L136.81,250.97L136.96,250.55L139.73,250.17L139.87,249.99L142.64,250.16L142.79,250.18L143.66,249.67L143.81,249.59L144.69,249.21L144.83,249.2L149.64,249.63L149.79,249.96L150.96,249.97L151.1,249.72L152.27,250.51L152.71,250.5L153.29,250.82L153.73,250.35L159.27,249.77L159.42,250.03L161.31,248.83L161.46,248.83L164.38,248.38L164.52,248.12L165.54,248.02L165.98,248.03L167.58,248.01L168.02,248.5L169.63,247.4L170.06,247.3L172.11,247.37L172.25,247.16L175.46,247.34L175.61,247.51L176.77,246.81L177.21,246.62L181.44,245.43L181.59,245.61L182.46,245.89L182.61,246.29L183.34,245.68L183.48,245.97L183.63,246.2L184.5,245.52L184.65,245.91L185.38,246.87L185.52,246.61L185.67,246.34L186.98,245.84L187.42,245.68L189.02,244.78L189.46,244.72L190.77,244.86L190.92,244.52L192.09,244.76L192.53,244.79L192.82,244.86L192.96,245.26L193.11,245.36L195.15,245.73L195.73,245.6L197.05,244.82L197.19,244.75L198.65,244.51L198.8,244.58L200.98,245.26L201.13,244.64L202.88,243.56L203.03,243.7L204.78,243.31L204.92,243.41L206.38,242.76L206.82,242.87L207.99,242.65L208.13,242.57L211.34,242.51L211.49,242.33L213.53,242.09L213.97,242.19L214.55,241.88L214.99,242.3L215.42,241.83L215.57,241.96L216.15,241.87L216.44,242.11L216.59,242.79L218.49,243.03L218.63,242.65L222.13,241.73L222.28,241.28L223.45,241.33L223.59,241.7L224.18,241.5L224.32,241.26L225.49,241.59L225.63,241.66L226.65,240.95L226.8,241.34L227.24,241.7L227.53,241.22L227.68,241.91L227.82,242.19L229.72,241.09L229.86,241.36L230.3,241.26L231.32,240.99L231.47,241.27L232.49,240.72L232.63,240.88L232.78,241.17L234.97,240.24L235.41,240.21L241.82,239.16L241.97,239.55L242.84,239.04L242.99,239.03L245.03,240.37L245.18,239.98L246.93,238.99L247.07,238.89L248.82,238.69L248.97,238.71L251.01,238.67L251.16,238.48L253.93,239.82L254.07,239.23L255.1,241.03L255.24,241.05L256.41,239.26L256.85,239.31L257.87,238.32L258.01,238.44L259.18,237.93L259.33,237.89L263.12,237.49L263.26,238.08L263.41,237.89L263.56,238.48L263.99,238.72L264.14,239L264.28,238.32L264.43,237.44L265.6,236.94L266.03,236.89L267.2,238.47L267.35,238.03L267.49,237.39L268.51,238.61L268.66,238.15L269.24,238.07L270.12,237.47L270.26,237.95L270.7,238.54L271.14,238.1L271.58,237.35L271.72,237.45L272.16,237.62L273.33,236.65L273.47,236.64L276.24,236.96L276.39,237.56L276.83,237.4L277.27,236.92L277.7,236.75L277.85,236.43L278.29,236.5L278.87,237.26L279.31,236.81L279.6,237.27L279.74,237.13L280.33,236.89L281.35,236.66L281.49,236.59L282.37,236.53L282.52,236.57L283.54,236.24L283.68,236.4L284.56,236.7L284.7,236.85L286.02,236.06L286.45,235.95L290.83,236.39L290.98,236L292.73,237.06L292.87,236.76L294.18,236.77L294.62,236.36L295.64,235.85L295.79,236L295.93,236.07L296.66,236.89L296.81,236.44L296.96,236.18L300.02,236.62L300.16,237.4L300.89,240.39L301.04,239.1L301.19,238.24L301.77,238.52L301.91,239.58L302.21,238.9L302.35,239.43L302.94,238.57L303.08,239.04L303.37,238.69L303.81,238.82L304.1,238.07L304.39,238.74L304.83,238.56L306,240.06L306.14,239.43L307.16,238.03L307.31,237.7L309.21,237.59L309.35,236.97L310.37,236.33L310.52,236.49L311.54,236.11L311.98,236.47L312.27,236.53L312.42,237.05L312.56,237.46L314.31,236.24L314.6,236.2L315.33,236.39L315.48,236.91L315.62,236.19L316.21,236.67L316.35,236.96L316.5,236.86L316.65,237.58L317.08,237.4L317.37,236.48L317.67,237.7L318.1,237.4L319.27,236.37L319.42,236.63L320.73,239.17L321.17,239.13L321.31,238.85L321.46,239.73L321.6,239.17L321.75,239.91L322.63,240.12L322.77,239.42L323.5,239.85L323.65,239.68L323.79,238.84L324.67,239.23L324.81,239.89L325.69,240.81L325.83,240.13L326.42,239.56L327.29,238.65L327.44,239.1L329.33,237.6L329.48,238L330.94,236.72L331.38,236.67L332.4,236.93L332.54,236.59L333.42,236.38L333.56,236.76L333.71,236.35L334,236.7L334.44,236.79L335.61,235.72L335.75,235.68L337.06,236.37L337.5,236.07L337.94,236.62L338.09,236.48L338.52,236.45L338.67,235.98L339.11,236.65L339.54,236.29L339.98,236.76L340.13,236.52L340.57,236.57L341.15,235.66L341.73,235.73L343.04,235.32L343.19,235.69L343.63,235.98L344.79,235.79L344.94,235.85L345.09,235.35L345.23,236.74L345.67,237.4L346.25,235.52L346.84,235.79L348.3,234.44L348.73,234.33L351.21,234.33L351.36,234.01L356.32,233.95L356.46,234.9L357.34,234.54L357.48,234.69L357.92,234.68L358.36,233.99L358.51,234.21L358.94,234.53L359.96,234.25L360.11,234.45L360.98,234.18L361.13,234.68L363.32,234.62L363.46,234.73L364.63,235.57L365.07,234.73L366.53,233.66L366.67,233.75L368.42,233.4L368.57,233.55L371.63,232.24L371.78,232.18L375.86,231.99L376.3,232.1L376.88,231.57L377.32,231.84L378.92,231.1L379.36,230.87L380.82,230.19L380.97,230.14L383.45,229.94L383.59,230.11L383.74,229.73L384.03,229.89L384.47,229.94L385.05,230.48L385.49,230.53L385.93,230.03L386.07,230.13L386.51,230.21L388.84,230.56L388.99,230.21L389.13,230.35L389.57,229.87L389.72,229.61L392.78,229.33L392.93,230.12L394.24,229.02L394.82,229.06L397.3,228.63L397.74,228.26L398.32,228.54L398.76,228.51L399.2,228.87L399.34,228.79L399.78,228.71L404.45,227.74L404.89,227.66L405.47,228.36L405.91,227.9L406.2,227.83L406.34,228.55L406.49,228.62L408.39,227.73L408.53,227.66L409.55,227.9L409.99,227.41L411.3,227.02L411.45,227.14L413.35,226.43L413.49,226.15L415.1,226.04L415.24,226L418.6,225.5L418.74,225.51L421.22,225.11L421.37,224.61L422.24,224.38L422.39,224.55L424.87,223.49L425.45,223.55L426.76,222.72L426.91,222.37L428.51,221.71L428.66,221.21L428.81,221.3L428.95,221.06L429.39,220.63L430.41,220.25L430.56,220.8L430.85,220.84L430.99,221.99L431.87,225.35L432.01,224.62L432.45,223.9L432.74,223.1L432.89,222.45L433.91,222.94L434.06,222.13L434.49,221.53L434.64,222.18L434.79,222.71L434.93,223.45L435.52,222.61L435.66,222.48L435.95,222.25L436.1,221.35L437.12,222.02L437.56,222.72L437.85,222.73L437.99,224.01L438.14,225.08L438.58,223.74L438.72,224.59L438.87,224.74L439.02,224.11L439.6,225.19L440.04,223.64L440.18,224.76L440.62,224.52L441.06,223.59L441.2,223.73L441.64,223.32L441.93,222.74L442.22,223.46L442.66,223.46L442.81,224.14L443.25,223.47L443.68,223.85L445,222.91L445.14,222.43L446.16,222.43L446.31,222.56L447.33,222.41L447.91,223L448.93,221.85L449.08,221.41L451.41,221.68L451.85,222.4L455.21,220.48L455.35,220.68L456.08,220.38L456.23,219.92L457.25,220.52L457.39,220.23L457.54,220L458.41,219.72L458.56,220.08L459,220.29L460.02,219.61L460.16,219.48L460.6,219.26L461.04,218.83L462.35,218.97L462.5,219.13L463.37,218.95L463.52,218.63L464.39,218.55L464.54,218.1L467.31,219.03L467.46,220.77L467.6,221.94L468.19,221.51L468.33,220.37L468.48,220.36L468.62,221.13L469.35,221.66L469.5,223.25L469.64,222.34L469.79,223.24L470.23,223.53L471.54,220.25L471.69,220.35L472.56,222.32L472.71,221.78L472.85,221.64L473.87,223.64L474.31,222.83L475.33,220.58L475.48,222.31L475.77,222.38L475.92,223.58L476.79,223.24L476.94,224.17L478.4,228.9L478.69,226.63L479.71,225.86L479.85,227L480.73,224.36L480.88,224.19L481.46,224.47L481.75,223.78L481.9,223.4L482.04,222.73L482.63,223.42L482.77,223.32L483.65,223.32L483.79,222.52L484.67,221.46L484.81,221.53L484.96,222.03L485.98,221.21L486.13,220.64L488.9,220.64L489.04,221.09L489.19,221.2L489.63,220.43L491.08,218.98L491.23,220.04L492.25,219.42L492.69,218.77L497.79,217.42L497.94,218.37L498.38,218.33L498.81,219.73L499.25,218.41L499.4,218.77L499.84,219.13L499.98,218.64L500.27,219.48L500.42,219.36L501,219.87L501.88,220.94L502.02,219.79L503.34,218.05L503.48,218.11L504.21,217.38L504.36,216.84L505.38,217.4L505.52,217.11L505.96,216.6L506.55,216.05L506.98,216.37L508.15,215.8L508.3,216.19L509.61,215.37L510.05,215.47L510.63,217.19L511.07,218.89L511.5,216.99L511.65,217.38L512.09,218.07L512.23,217.2L512.38,218.88L512.67,217.92L513.11,217.24L513.69,218.69L514.13,218.08L514.28,218.3L514.71,217.22L515.3,217.55L516.46,215.71L516.61,215.51L519.38,216.8L519.53,217.81L519.82,216.59L520.26,216.83L520.4,217.72L521.71,215.63L521.86,215.88L524.92,213.75L525.36,213.86L526.53,213.16L526.67,213.39L526.82,213.49L527.99,212.7L528.42,213.22L528.57,213.63L528.86,213.15L529.01,212.59L529.74,212.68L529.88,212.15L531.63,211.05L531.92,210.71L532.65,210.92L532.94,210.33L533.67,210.75L533.82,210.42L534.99,209.15L535.13,208.95L536.15,209.57L536.59,210.6L537.03,209.78L537.17,210.95L537.61,210.48L538.63,208.41L538.78,208.3L539.22,207.84L539.8,208.01L539.95,207.7L540.24,208.65L540.67,210.81L541.26,215.93L541.7,213.42L541.99,212.68L542.72,220.24L542.86,217.47L543.74,226.97L543.88,224.44L544.76,230.02L544.9,226.04L545.78,222.4L545.93,223.17L546.07,225.45L546.36,225.05L546.8,221.77L546.95,221.72L547.09,219.97L547.97,218.05L548.11,219.23L548.4,217.48L548.84,218.48L548.99,220.16L549.43,218.21L549.86,217.4L550.01,217.66L550.15,216.19L550.45,218.24L551.03,217.57L551.18,217.96L551.91,216.33L552.05,217.48L552.2,218.48L552.49,217.56L552.93,215.84L553.07,216.44L553.22,215.46L553.51,215.75L554.09,215.04L555.26,212.46L555.41,212.62L555.99,210.29L556.28,211.12L556.43,214.74L557.16,212.3L557.45,212.54L557.59,212.89L558.18,212.21L558.32,213.79L558.61,214.59L559.34,212.52L559.49,212.18L560.66,211.12L561.09,211.66L562.11,209.79L562.26,209.65L562.41,209.29L562.7,210.47L563.14,210L563.28,210.41L563.43,209.63L563.57,209.86L563.72,209.35L566.34,206.96L566.49,207.24L568.53,203.19L568.68,205.62L569.41,208.03L569.85,207.86L570.28,206.99L570.43,206.65L570.72,207.51L570.87,208.27L571.6,209.86L571.74,209.69L571.89,208.66L573.35,206.47L573.49,207.42L574.37,203.95L574.51,204.41L574.66,204.84L575.68,205.88L575.82,205.5L575.97,205.27L576.99,209.09L577.43,208.36L578.74,203.11L578.89,203.8L579.47,201.94L579.62,202.33L579.76,203.19L580.05,203.38L581.08,201.72L581.51,202.04L582.1,200.49L582.53,200.64L582.68,200.43L583.56,201.52L583.7,200.55L583.99,200.02L584.14,200.31L584.58,200.58L584.87,200.64L585.01,200.35L585.6,199.72L586.62,200.39L586.76,199.89L586.91,199.44L587.2,197.91L587.78,198.4L587.93,198.2L588.22,199.01L588.81,198.43L589.68,197.28L589.83,197.4L590.26,200.14L590.7,198.91L591.72,196.06L591.87,196.11L593.18,196.02L593.33,196.16L593.91,196.66L594.06,195.81L594.35,198.09L594.79,196.25L594.93,196.85L595.22,198.82L595.81,197.82L595.95,196.73L597.12,194.72L597.27,195.87L598.14,196.41L598.29,195.97L598.43,194.71L599.16,194.64L599.31,193.79L601.49,190.46L601.93,190.87L602.37,191.46L602.52,190.56L602.95,190.39L603.97,190.27L604.12,190.79L604.41,190.1L604.56,189.49L605.14,191.07L605.29,192.83L605.58,190.59L606.16,191.52L606.31,191.74L607.04,190.08L607.18,190.26L607.33,190.1L610.1,188.86L610.25,189.01L610.68,190.66L611.12,189.46L612.29,188.09L612.43,188.02L613.45,186.73L613.6,187.44L614.18,186.21L614.48,186.38L614.62,186.68L615.21,188.64L615.35,187.42L615.5,186.72L616.66,185.49L616.81,185.92L617.54,185.83L617.68,185.27L619.29,184.22L619.43,184.81L619.58,185.79L619.87,184.95L620.31,184.17L621.91,183L622.5,183.32L623.52,184.79L623.66,184.04L623.96,185.06L624.39,186.54L624.54,186.62L624.69,185.77L624.98,184.55L625.41,184.81L625.56,186.6L625.71,186.46L625.85,187.53L626.44,187.63L626.87,185.61L627.02,185.77L627.6,186.62L627.75,186.31L627.89,184.84L628.92,182.6L629.06,182.7L629.5,182.21L629.94,181.65L630.08,181.47L630.67,180.93L630.81,180.36L631.54,179.52L631.69,179.83L631.83,180.59L632.56,179.82L632.71,179.45L633.58,179.79L633.73,179.67L633.87,179.41L634.17,181.52L634.6,180.39L634.75,182.21L634.9,183.23L635.04,181.84L635.19,182.64L635.62,181.56L636.21,179.15L636.65,179.99L636.94,179.18L637.67,182L637.81,180.37L638.98,177.46L639.12,177.73L639.27,177.97L639.71,177.41L639.85,177.44L640,179.3" style="vector-effect: non-scaling-stroke; fill: none; stroke: rgb(127, 127, 127); stroke-opacity: 1; stroke-width: 2px; opacity: 1;"/></g><g class="points"/><g class="text"/></g><g class="trace scatter trace2d33d52d-3552-4736-9e24-c89858e26ab8" style="stroke-miterlimit: 2;"><g class="fills"><g><path class="js-fill" d="M0,256.05L1.6,256.05L1.75,256.05L2.77,255.69L2.92,255.98L4.67,256.05L4.81,256.05L111.87,255.36L112.01,255.27L112.89,255.13L113.04,255.21L113.18,255.34L113.33,254.57L113.47,254.59L114.06,254.48L114.93,254.53L115.08,254.21L116.39,254.12L116.54,254.14L120.04,253.95L120.18,254.17L121.2,255.08L121.35,255.15L122.22,254.48L122.37,254.66L122.52,254.74L122.66,253.87L127.77,255.83L128.35,255.52L129.37,256.05L129.52,255.65L130.68,255.65L130.83,255.23L132.73,255.3L132.87,254.88L134.48,255.41L134.62,255.68L134.77,256.05L135.35,255.59L135.5,255.46L135.79,254.83L135.93,255.17L136.37,255.69L136.81,255.77L136.96,255.39L137.39,255.47L138.41,255.28L138.56,255.08L141.77,254.71L141.91,254.92L142.64,254.88L142.79,254.88L142.94,254.28L143.52,254.67L143.66,254.63L145.71,254.88L145.85,255.01L149.21,255.97L149.64,256.05L151.69,255.35L151.83,255.21L152.85,256.05L153,256.05L174.15,255.71L174.29,255.06L174.44,254.63L174.73,255.58L175.17,255.64L178.23,252.42L178.38,252.7L179.25,252.88L179.4,252.41L180.27,251.42L180.57,251.72L180.71,252.02L183.34,251.17L183.48,251.57L184.5,251.48L184.65,251.73L184.94,252.58L185.52,252.32L185.67,251.89L186.4,251.88L186.55,252.15L188,251.04L188.44,250.72L188.88,251.19L189.02,253.78L190.05,253.64L190.48,253.69L191.07,253.46L191.5,253.59L191.8,253.36L191.94,252.82L193.84,253.5L193.98,253L194.13,251.47L194.71,252.44L194.86,252.59L195,252.25L195.15,252.35L195.73,253.33L196.17,253.8L196.61,253.47L197.19,252.58L197.63,252.73L198.07,252.19L198.21,252.74L198.65,252.77L198.94,252.92L199.23,252.43L199.67,252.42L200.26,252.04L200.69,252.41L200.98,252.56L201.13,252.11L201.28,251.87L202.88,251.58L203.03,252.11L204.05,250.96L204.19,251.05L204.92,250.25L205.07,249.26L205.94,249.79L206.09,249.27L207.4,249.47L207.84,249.43L207.99,249.61L208.42,249.11L208.86,248.9L210.32,249.7L210.46,250.04L213.53,249.9L213.97,250.41L214.4,250.8L214.55,250.47L214.99,251.16L215.42,249.91L215.57,250.24L216.15,250.38L217.03,250.47L217.17,250.32L217.61,249.3L218.05,250.18L218.63,250.13L219.07,249.97L220.24,249.39L220.38,249.33L221.26,249.31L221.4,249.35L222.28,248.74L222.42,248.93L222.57,248.91L223.74,249.2L224.18,248.97L224.61,247.48L224.76,247.59L225.2,247.37L225.63,248.11L225.78,247.5L226.22,247.05L226.51,246.81L226.65,247.03L226.8,247.78L227.68,248.11L227.82,248.21L228.4,247.86L228.55,247.43L229.57,247.9L229.72,247.79L230.3,247.13L230.74,247.7L230.88,247.9L231.91,248L232.34,247.72L232.49,247.23L232.93,247.62L233.36,247.68L234.68,247.5L234.82,247.29L235.41,246.99L235.55,247.32L235.7,247.3L235.99,246.53L236.57,246.78L236.72,246.94L236.86,247.13L237.01,246.7L237.45,246.52L238.76,246.17L238.91,246.38L239.05,246.03L239.64,246.28L239.78,246.26L241.09,246.13L241.53,246.1L242.84,244.3L242.99,244.61L243.72,244.94L243.87,245.15L244.89,245.7L245.03,245.38L245.91,244.82L246.05,244.69L247.07,243.88L247.22,243.93L249.26,243.42L249.7,243.05L250.14,242.7L250.28,242.9L250.72,243.2L251.3,242.35L251.74,242.66L251.89,242.99L252.03,242.65L252.18,243.34L252.32,243.09L252.76,243.07L253.93,243.67L254.07,242.84L255.24,245.53L255.39,244.94L256.26,244.01L256.41,243.28L257.28,243.33L257.43,242.73L259.91,241.07L260.05,241.34L261.08,242.19L261.22,242L262.53,241.55L262.97,242.03L263.99,242.72L264.14,243.73L265.16,241.53L265.31,241.74L265.6,241.91L267.2,243.4L267.35,243.02L267.49,242.11L268.51,243.52L268.66,243.01L269.24,242.91L269.39,243.22L269.54,242.41L269.68,242.38L270.12,242.5L270.7,246.91L271.14,246.32L272.74,244.59L273.33,244.58L275.66,244.9L275.81,245.4L276.24,245.07L276.54,245.66L276.68,246.3L278.29,245.06L278.43,245.04L279.31,246.34L279.45,246.54L281.49,245.88L281.64,245.47L281.93,245.9L282.37,245.03L282.52,245.21L282.81,244.74L282.95,241.69L283.97,241.16L284.41,241.44L284.7,242.76L285,241.77L285.43,242.03L285.72,241.85L285.87,241.12L287.04,242.14L287.62,242.35L287.77,241.66L288.06,242.17L288.5,241.92L289.66,242.99L289.81,242.34L290.83,242.77L290.98,242.26L292,242.99L292.14,243.25L293.02,243.83L293.6,243.84L294.18,243.69L294.62,243.06L295.79,241.88L295.93,243.06L296.08,242.68L296.66,243.19L296.81,243.2L297.83,241.71L297.98,241.68L298.85,242.47L299,242.25L299.87,241.68L300.02,242.13L300.16,242.78L300.89,246.31L301.04,244.79L301.19,243.98L301.77,244.24L301.91,245.39L302.21,244.25L302.35,244.86L302.94,243.98L303.81,244.56L303.96,243.92L304.39,244.26L304.83,243.83L304.98,243.98L306.14,243.73L306.29,243.49L307.31,241.56L307.46,241.79L308.92,241.44L309.06,241.34L309.21,241.73L309.35,241.16L309.5,237.86L309.94,236.92L310.37,237.53L310.52,238.02L311.54,236.46L311.98,236.98L312.12,237.43L314.17,236.67L314.31,237.06L315.33,236.01L315.48,236.71L315.62,235.53L316.21,235.61L316.35,236.17L316.65,236.8L317.37,235.38L317.52,235.68L317.67,236.75L319.27,235.09L319.42,235.26L319.56,235.83L320.44,236.81L320.58,238.1L321.31,237.68L321.46,238.46L321.6,237.45L321.75,238.91L322.33,239.2L322.48,239.05L322.63,239.26L322.77,238.02L323.5,238.75L323.65,238.17L323.79,236.09L324.23,236.36L324.38,237.53L325.4,240.08L325.54,239.79L325.69,239.8L326.56,237.67L326.86,238.08L327.29,237.51L327.44,238.53L327.88,238.44L328.31,238.73L328.61,237.3L328.9,237.94L329.33,238.63L330.79,236.12L330.94,236.93L331.81,236.43L332.4,236.89L332.98,235.49L333.42,235.59L334,236.29L334.44,236.36L335.61,234.92L335.75,235.48L335.9,235.35L336.04,238.11L336.48,237.88L336.63,238.35L336.77,238.69L337.65,239.49L337.79,239.43L338.81,238.62L338.96,238.3L339.98,238.88L340.13,238.67L340.57,239.08L340.71,237.99L341.73,237.01L341.88,237.12L343.04,237.97L343.19,238.07L343.92,239.32L344.21,239.01L344.65,239.05L345.09,237.77L345.23,239.22L345.67,240.19L346.25,238.29L346.84,238.29L348.73,236.34L348.88,236.95L349.75,234.42L349.9,234.39L350.19,234.78L350.34,234.45L350.77,234.52L351.21,233.96L351.36,233.56L355,233.36L355.15,233.66L356.32,233.68L356.46,234.53L357.48,233.81L357.92,234.03L358.07,234.11L358.21,233.45L358.36,233.41L358.94,234.05L359.09,233.32L359.23,233.26L360.11,233.81L360.26,233.53L360.98,233.25L361.13,233.85L361.28,233.9L362.01,233.83L362.15,233.52L362.44,233.81L362.59,232.12L363.17,231.19L363.46,231.81L363.61,231.97L364.48,232.43L364.63,232.78L365.21,231.55L365.36,231.76L365.51,232.79L366.09,233.2L367.26,230.81L367.4,231.31L368.28,230.83L368.42,231.41L368.57,232.16L371.49,229.1L371.63,229.09L372.8,230.09L373.38,229.78L374.26,229.73L374.4,229.75L374.55,229.35L374.84,229.69L375.42,229.81L376.3,229.51L376.44,229.11L376.74,228.58L376.88,227.52L378.63,229.24L378.78,228.73L380.53,228.15L380.67,228.25L381.4,228.34L381.55,228.52L381.7,227.83L381.99,228.32L382.42,228.31L383.45,228L383.59,228.21L384.47,227.84L384.61,228.35L385.49,227.72L385.63,227.59L386.95,227.27L387.09,227.31L388.99,227.44L389.13,226.8L390.74,224.74L390.88,224.9L391.03,225.09L391.91,224.73L392.05,225.34L392.63,225.36L392.78,224.38L392.93,225.76L393.22,225.61L393.66,225.07L395.99,222.26L396.13,222.57L396.28,223.73L397.3,223.96L397.74,223.34L397.89,224.02L398.32,223.1L398.76,223.58L399.78,225.27L400.07,224.62L400.22,224.98L400.36,224.35L400.8,223.97L402.26,220.95L402.41,221.26L402.84,221.39L402.99,220.97L403.43,221.79L403.87,222.03L404.89,222.25L405.03,221.97L405.32,222.95L405.47,222.18L405.91,221.4L406.2,221.08L406.34,221.97L406.49,221.91L407.51,221.67L407.95,221.66L408.39,220.27L408.53,220.87L409.12,221.11L409.26,221.26L409.41,220.58L409.55,220.84L409.99,220.28L411.01,219.99L411.16,219.79L412.18,221.36L412.32,220.93L412.47,220.92L413.64,219.39L414.07,219.18L414.51,218.59L414.66,218.32L415.53,218.02L415.68,217.38L416.55,217.41L416.7,213.79L417.72,213.55L418.16,213.32L420.2,214.41L420.35,213.55L420.49,213.99L420.78,213.88L421.22,213.44L421.37,212.72L421.51,213.83L421.8,213.16L422.24,215.46L423.85,211.3L424.28,211.63L424.43,212.03L425.45,212.34L425.6,212.12L426.47,211.94L426.62,211.66L427.35,210.27L427.49,210.31L427.64,210.6L427.93,209.31L428.51,210.21L429.54,207.66L429.68,207.71L430.41,206.2L430.56,207.05L430.7,205.41L430.99,207.74L431.43,210.47L431.58,208.07L431.87,212.62L432.01,210.34L432.45,209.65L433.62,206.75L433.76,207.64L433.91,207.47L434.06,205.78L434.49,204.8L434.64,205.68L434.79,205.99L434.93,206.66L435.52,206.08L435.66,206.32L436.54,203.82L436.68,205.53L437.99,208.87L438.14,210.76L438.58,205.98L439.02,207.8L439.6,209.79L440.04,207L440.18,208.55L440.62,208.16L441.06,206.13L441.2,206.49L441.64,205.7L441.93,204.06L442.22,205.1L442.66,204.85L442.95,207.05L443.25,204.51L443.68,206.17L444.7,204.22L444.85,204.51L445.72,202.9L445.87,203.42L446.16,203.94L447.33,202.36L447.91,202.61L449.08,199.35L449.23,200.52L449.37,199.98L449.95,200.21L450.1,200.55L450.25,200.13L450.39,201.07L450.83,200.54L450.98,200.54L451.12,199.8L451.41,200.87L451.85,202.34L452.14,202.95L452.87,201.16L453.02,201.86L454.33,198.12L454.48,197.21L455.35,197.96L455.5,196.6L456.23,193.29L456.37,194.17L456.52,195.58L456.96,197.26L457.25,196.6L457.39,195.66L458.41,194.13L458.56,194.62L459,195.19L459.14,194.21L459.58,195.35L460.02,195.87L460.16,196.52L460.46,195.36L460.6,194.75L461.62,191.88L462.21,192.33L462.64,194.89L463.08,194.04L463.66,191.12L464.1,192.02L464.39,192.34L465.12,190.17L465.27,190.33L465.41,190.68L465.71,190.39L466.14,189.49L467.16,192.96L467.31,191.93L467.46,196.39L467.6,196.57L467.75,193.9L468.19,195.33L468.33,192.85L468.48,193.06L468.62,194.68L469.21,193.85L469.35,194.97L469.5,199.19L469.64,194.82L469.79,195.8L470.23,198.07L470.37,198.16L470.52,195.91L470.67,196.56L470.81,196.39L471.25,195.4L471.39,195.25L471.54,192.15L471.69,192.3L471.83,193.9L472.56,196.92L472.71,195.23L472.85,194.49L473.44,199.31L473.87,198.32L474.31,195.82L475.33,191.7L475.48,194.32L475.77,193.83L475.92,197.03L476.79,193.64L476.94,196.15L478.4,204.87L478.69,200.16L478.98,200.28L479.42,199.42L479.71,199.75L479.85,202.48L480,199.15L480.44,199.06L480.73,197.44L481.02,198.52L481.46,199.07L482.04,194.91L482.63,196.4L483.06,195.31L483.5,196.84L483.79,195.89L484.08,198.53L484.52,196.36L484.67,195.27L484.96,196.7L485.1,196.41L485.54,196.72L486.13,194.54L486.71,194.58L486.86,194.99L487,193.33L487.15,192.18L488.61,191.23L488.75,191.64L488.9,191.6L489.04,192.6L489.19,192.52L489.63,190.81L491.08,185.36L491.23,187.7L492.84,186.12L492.98,185.55L493.86,186.06L494,185.39L495.02,184.22L495.17,183.04L495.75,182.76L495.9,181.52L496.04,181.84L496.19,178.79L496.92,177.72L497.06,179.72L497.36,178.97L497.94,181.46L498.09,181.47L498.38,180.28L498.81,183.06L499.25,178.6L499.4,179.23L499.84,180.6L500.13,179.53L500.42,180.59L501,180.65L501.88,185.32L502.02,182.86L502.17,180.89L502.9,175.89L503.19,176.71L503.34,176.09L503.92,175.7L504.07,173.99L504.94,172.06L505.09,175.27L506.25,172.29L506.55,172.59L506.98,172.66L507.13,173.03L507.27,172L507.42,171.6L508,171.23L508.15,172.57L508.3,173.17L508.59,172.91L509.02,171.58L509.61,169.42L510.05,169.65L510.19,170.16L511.07,176.17L511.21,174.34L511.5,171.24L511.65,172.11L512.09,173.53L512.23,171.45L512.53,174.76L512.67,172.94L513.11,171.25L513.4,170.97L513.69,174.97L514.13,173.45L514.28,173.23L514.42,173.36L514.57,171.47L515.3,173.01L515.44,171.83L515.59,170.03L516.17,171.91L516.32,172.98L516.61,171.91L516.75,172.06L517.19,172.79L517.63,169.28L517.78,170.49L518.21,170.71L518.36,172.01L518.65,170.41L518.8,171.75L519.23,170.79L519.53,174.04L519.82,171.47L520.26,172.21L520.4,173.28L520.69,170.74L520.84,170.31L521.28,170.4L521.42,168.91L522.44,172.76L522.59,172.12L522.73,170.12L523.61,166.65L523.9,167.31L524.34,166.7L524.78,166.91L524.92,165.65L525.51,164.83L525.65,164.65L526.53,162.36L526.67,162.56L526.82,162.66L526.96,162.58L527.4,161.36L527.69,160.55L527.99,161.25L528.42,162.61L528.57,162.79L528.86,162.33L529.01,160.97L529.59,161.43L529.74,161.01L529.88,159.86L531.05,156.76L531.49,156.76L532.07,155.61L532.51,156.63L532.65,156.55L532.94,154.37L533.67,156.63L533.82,154.77L534.55,152.39L534.69,153.25L534.84,152.47L535.13,149.55L535.72,150L535.86,150.59L536.01,149.83L536.15,151.08L536.59,153.14L538.2,137.06L538.63,133.48L539.07,137.19L539.22,135.97L539.8,134.57L539.95,134.15L540.09,136.29L541.11,155.87L541.26,153.01L541.7,144.96L542.72,161.51L542.86,153.82L543.74,172.85L543.88,164.53L544.76,172.43L544.9,163.21L545.05,164.27L545.2,157.41L545.34,162.19L545.78,154.34L545.93,156.22L546.07,160.4L546.36,159.11L546.8,150.58L546.95,151.9L547.24,150.67L547.82,150.4L548.4,140.63L548.84,143.27L548.99,148.67L549.43,143.65L549.86,144.02L550.01,147.19L550.3,140.17L550.45,143.64L550.88,140.45L551.91,134.56L552.05,137.71L552.2,139.77L552.49,137.23L552.93,135.92L553.07,136.88L553.22,134.98L553.51,136.58L554.09,138.04L554.24,137.86L554.38,138.16L554.53,136.78L554.97,137.09L555.11,135.54L555.26,135.2L555.41,137.03L556.28,126.61L556.43,134.52L558.18,122.82L558.32,125.86L558.61,126.99L559.49,119.56L560.07,116.24L560.22,118.07L560.51,113.53L560.66,114.02L561.68,122.09L562.11,115.56L562.41,115.45L562.7,123.27L563.28,122.73L563.43,121.21L563.57,121.33L563.72,120.5L564.16,111.87L565.32,121.72L565.47,117.37L565.62,117.73L565.76,117.58L566.2,116.55L566.49,116.61L567.51,108.02L567.66,103.95L568.24,104.73L568.53,100.14L568.68,110.91L569.41,121.89L569.85,120.86L570.28,119.82L570.43,117.3L570.72,121.7L570.87,123.59L571.3,121.98L571.45,118.32L571.6,123.44L571.89,118.02L572.32,116.8L572.76,114.54L572.91,119.24L573.35,116.1L573.49,119.45L573.93,112.02L574.37,107.83L574.51,106.74L574.8,109.14L574.95,109.14L575.39,113.22L575.97,111.71L576.41,116.32L576.55,113.94L576.7,121.87L576.85,120.34L576.99,122.03L577.43,122.14L577.58,119.06L578.01,106.09L578.45,110.09L578.6,115.62L579.47,110.96L579.62,113.04L580.49,115.89L580.64,113.07L581.66,111.3L581.8,111.93L581.95,112.78L582.53,112.74L582.68,111.45L582.97,115.58L583.12,113.52L583.56,112.81L584.72,105.49L584.87,107.68L585.6,104.72L585.74,105.33L585.89,107.19L586.03,106.63L586.62,110.19L586.76,110.03L586.91,114.28L587.2,108.73L587.64,110.34L587.78,112.26L587.93,111.2L588.22,113.98L588.81,111.13L589.83,99.18L589.97,98.75L590.26,99.45L590.7,93.67L590.85,93.78L590.99,91.15L591.14,91.9L591.72,91.55L591.87,90.57L592.01,91.29L592.31,89.66L592.89,90.63L593.04,89.83L593.33,92.26L593.76,97.13L594.2,101.29L594.35,98.74L594.79,95.3L595.22,102.99L595.81,102.5L595.95,97.68L596.1,98.71L596.24,95.16L596.39,96.2L596.83,96.9L596.97,94.72L597.27,99.99L597.41,100.27L597.99,94.82L598.43,95.65L598.87,96.58L599.02,99.14L599.16,96.18L599.31,91.22L601.49,77.36L601.93,78.87L602.08,79.23L602.22,77.48L602.37,80.05L602.52,77.05L602.95,76.75L603.1,76.43L603.25,82.02L604.27,88.12L604.41,85.66L604.56,83.6L605,87.58L605.14,88.3L605.29,93.75L605.58,86.85L606.02,89.09L606.16,90.67L606.45,87.68L606.6,88.67L607.04,84.43L607.18,83.72L607.47,85.54L607.62,85.26L608.2,86.98L608.35,87.06L608.5,88.26L609.52,79.55L609.66,79.06L610.1,77.55L610.25,78.7L610.39,79.44L611.27,73.3L611.41,73.48L611.56,72.41L611.7,73.67L612.14,70.88L612.29,68.85L612.43,69.23L612.58,68.7L612.73,64.13L613.31,64.12L613.45,62.41L614.18,64.38L614.33,61.61L614.48,60.46L614.77,61.79L615.21,64.61L615.79,55.05L616.23,55.52L616.37,57.41L617.25,58.71L617.39,56.97L617.54,57.43L617.68,55.16L618.27,56.06L618.41,57.49L618.71,54.94L618.85,52.64L619.29,51.32L619.43,52.47L619.58,53.83L620.31,43.29L620.46,44.83L620.6,45.29L620.75,47.5L620.89,47.02L621.33,44.09L621.91,45.95L622.5,46.67L622.94,50.06L623.37,49.09L623.52,46.97L623.81,42.86L623.96,46.91L624.39,51.12L624.54,50.74L624.69,47.88L624.83,47.14L624.98,47.3L625.41,51.22L625.85,60.49L626,55.06L626.44,59.59L627.02,50.71L627.46,51.18L627.6,52.2L628.92,38.66L629.06,39.87L629.5,40.65L629.64,39.16L630.08,22.87L630.52,24.58L630.67,21.73L631.54,18.81L631.69,19.6L631.83,23.49L632.12,19.01L632.56,19.5L633.14,13.7L633.58,16.19L634.17,23.88L634.6,18.61L635.19,28.94L635.62,26.53L636.21,14.13L636.65,16.51L637.23,28.34L637.67,31.29L638.69,14.2L638.83,15.11L638.98,14.58L639.12,16.57L639.27,18.85L639.71,20.04L639.85,24.39L640,33.97L640,256.05L0,256.05Z" style="fill: rgb(0, 128, 0); fill-opacity: 0.3; stroke-width: 0;"/></g></g><g class="errorbars"/><g class="lines"><path class="js-line" d="M0,256.05L640,256.05" style="vector-effect: non-scaling-stroke; fill: none; stroke: rgb(0, 0, 0); stroke-opacity: 0; stroke-width: 0px; opacity: 1;"/></g><g class="points"/><g class="text"/></g><g class="trace scatter tracee017edcf-903e-4b2b-8ded-535a19d453ea" style="stroke-miterlimit: 2;"><g class="fills"/><g class="errorbars"/><g class="lines"><path class="js-line" d="M0,256.05L1.6,256.05L1.75,256.05L2.77,255.69L2.92,255.98L4.67,256.05L4.81,256.05L111.87,255.36L112.01,255.27L112.89,255.13L113.04,255.21L113.18,255.34L113.33,254.57L113.47,254.59L114.06,254.48L114.93,254.53L115.08,254.21L116.39,254.12L116.54,254.14L120.04,253.95L120.18,254.17L121.2,255.08L121.35,255.15L122.22,254.48L122.37,254.66L122.52,254.74L122.66,253.87L127.77,255.83L128.35,255.52L129.37,256.05L129.52,255.65L130.68,255.65L130.83,255.23L132.73,255.3L132.87,254.88L134.48,255.41L134.62,255.68L134.77,256.05L135.35,255.59L135.5,255.46L135.79,254.83L135.93,255.17L136.37,255.69L136.81,255.77L136.96,255.39L137.39,255.47L138.41,255.28L138.56,255.08L141.77,254.71L141.91,254.92L142.64,254.88L142.79,254.88L142.94,254.28L143.52,254.67L143.66,254.63L145.71,254.88L145.85,255.01L149.21,255.97L149.64,256.05L151.69,255.35L151.83,255.21L152.85,256.05L153,256.05L174.15,255.71L174.29,255.06L174.44,254.63L174.73,255.58L175.17,255.64L178.23,252.42L178.38,252.7L179.25,252.88L179.4,252.41L180.27,251.42L180.57,251.72L180.71,252.02L183.34,251.17L183.48,251.57L184.5,251.48L184.65,251.73L184.94,252.58L185.52,252.32L185.67,251.89L186.4,251.88L186.55,252.15L188,251.04L188.44,250.72L188.88,251.19L189.02,253.78L190.05,253.64L190.48,253.69L191.07,253.46L191.5,253.59L191.8,253.36L191.94,252.82L193.84,253.5L193.98,253L194.13,251.47L194.71,252.44L194.86,252.59L195,252.25L195.15,252.35L195.73,253.33L196.17,253.8L196.61,253.47L197.19,252.58L197.63,252.73L198.07,252.19L198.21,252.74L198.65,252.77L198.94,252.92L199.23,252.43L199.67,252.42L200.26,252.04L200.69,252.41L200.98,252.56L201.13,252.11L201.28,251.87L202.88,251.58L203.03,252.11L204.05,250.96L204.19,251.05L204.92,250.25L205.07,249.26L205.94,249.79L206.09,249.27L207.4,249.47L207.84,249.43L207.99,249.61L208.42,249.11L208.86,248.9L210.32,249.7L210.46,250.04L213.53,249.9L213.97,250.41L214.4,250.8L214.55,250.47L214.99,251.16L215.42,249.91L215.57,250.24L216.15,250.38L217.03,250.47L217.17,250.32L217.61,249.3L218.05,250.18L218.63,250.13L219.07,249.97L220.24,249.39L220.38,249.33L221.26,249.31L221.4,249.35L222.28,248.74L222.42,248.93L222.57,248.91L223.74,249.2L224.18,248.97L224.61,247.48L224.76,247.59L225.2,247.37L225.63,248.11L225.78,247.5L226.22,247.05L226.51,246.81L226.65,247.03L226.8,247.78L227.68,248.11L227.82,248.21L228.4,247.86L228.55,247.43L229.57,247.9L229.72,247.79L230.3,247.13L230.74,247.7L230.88,247.9L231.91,248L232.34,247.72L232.49,247.23L232.93,247.62L233.36,247.68L234.68,247.5L234.82,247.29L235.41,246.99L235.55,247.32L235.7,247.3L235.99,246.53L236.57,246.78L236.72,246.94L236.86,247.13L237.01,246.7L237.45,246.52L238.76,246.17L238.91,246.38L239.05,246.03L239.64,246.28L239.78,246.26L241.09,246.13L241.53,246.1L242.84,244.3L242.99,244.61L243.72,244.94L243.87,245.15L244.89,245.7L245.03,245.38L245.91,244.82L246.05,244.69L247.07,243.88L247.22,243.93L249.26,243.42L249.7,243.05L250.14,242.7L250.28,242.9L250.72,243.2L251.3,242.35L251.74,242.66L251.89,242.99L252.03,242.65L252.18,243.34L252.32,243.09L252.76,243.07L253.93,243.67L254.07,242.84L255.24,245.53L255.39,244.94L256.26,244.01L256.41,243.28L257.28,243.33L257.43,242.73L259.91,241.07L260.05,241.34L261.08,242.19L261.22,242L262.53,241.55L262.97,242.03L263.99,242.72L264.14,243.73L265.16,241.53L265.31,241.74L265.6,241.91L267.2,243.4L267.35,243.02L267.49,242.11L268.51,243.52L268.66,243.01L269.24,242.91L269.39,243.22L269.54,242.41L269.68,242.38L270.12,242.5L270.7,246.91L271.14,246.32L272.74,244.59L273.33,244.58L275.66,244.9L275.81,245.4L276.24,245.07L276.54,245.66L276.68,246.3L278.29,245.06L278.43,245.04L279.31,246.34L279.45,246.54L281.49,245.88L281.64,245.47L281.93,245.9L282.37,245.03L282.52,245.21L282.81,244.74L282.95,241.69L283.97,241.16L284.41,241.44L284.7,242.76L285,241.77L285.43,242.03L285.72,241.85L285.87,241.12L287.04,242.14L287.62,242.35L287.77,241.66L288.06,242.17L288.5,241.92L289.66,242.99L289.81,242.34L290.83,242.77L290.98,242.26L292,242.99L292.14,243.25L293.02,243.83L293.6,243.84L294.18,243.69L294.62,243.06L295.79,241.88L295.93,243.06L296.08,242.68L296.66,243.19L296.81,243.2L297.83,241.71L297.98,241.68L298.85,242.47L299,242.25L299.87,241.68L300.02,242.13L300.16,242.78L300.89,246.31L301.04,244.79L301.19,243.98L301.77,244.24L301.91,245.39L302.21,244.25L302.35,244.86L302.94,243.98L303.81,244.56L303.96,243.92L304.39,244.26L304.83,243.83L304.98,243.98L306.14,243.73L306.29,243.49L307.31,241.56L307.46,241.79L308.92,241.44L309.06,241.34L309.21,241.73L309.35,241.16L309.5,237.86L309.94,236.92L310.37,237.53L310.52,238.02L311.54,236.46L311.98,236.98L312.12,237.43L314.17,236.67L314.31,237.06L315.33,236.01L315.48,236.71L315.62,235.53L316.21,235.61L316.35,236.17L316.65,236.8L317.37,235.38L317.52,235.68L317.67,236.75L319.27,235.09L319.42,235.26L319.56,235.83L320.44,236.81L320.58,238.1L321.31,237.68L321.46,238.46L321.6,237.45L321.75,238.91L322.33,239.2L322.48,239.05L322.63,239.26L322.77,238.02L323.5,238.75L323.65,238.17L323.79,236.09L324.23,236.36L324.38,237.53L325.4,240.08L325.54,239.79L325.69,239.8L326.56,237.67L326.86,238.08L327.29,237.51L327.44,238.53L327.88,238.44L328.31,238.73L328.61,237.3L328.9,237.94L329.33,238.63L330.79,236.12L330.94,236.93L331.81,236.43L332.4,236.89L332.98,235.49L333.42,235.59L334,236.29L334.44,236.36L335.61,234.92L335.75,235.48L335.9,235.35L336.04,238.11L336.48,237.88L336.63,238.35L336.77,238.69L337.65,239.49L337.79,239.43L338.81,238.62L338.96,238.3L339.98,238.88L340.13,238.67L340.57,239.08L340.71,237.99L341.73,237.01L341.88,237.12L343.04,237.97L343.19,238.07L343.92,239.32L344.21,239.01L344.65,239.05L345.09,237.77L345.23,239.22L345.67,240.19L346.25,238.29L346.84,238.29L348.73,236.34L348.88,236.95L349.75,234.42L349.9,234.39L350.19,234.78L350.34,234.45L350.77,234.52L351.21,233.96L351.36,233.56L355,233.36L355.15,233.66L356.32,233.68L356.46,234.53L357.48,233.81L357.92,234.03L358.07,234.11L358.21,233.45L358.36,233.41L358.94,234.05L359.09,233.32L359.23,233.26L360.11,233.81L360.26,233.53L360.98,233.25L361.13,233.85L361.28,233.9L362.01,233.83L362.15,233.52L362.44,233.81L362.59,232.12L363.17,231.19L363.46,231.81L363.61,231.97L364.48,232.43L364.63,232.78L365.21,231.55L365.36,231.76L365.51,232.79L366.09,233.2L367.26,230.81L367.4,231.31L368.28,230.83L368.42,231.41L368.57,232.16L371.49,229.1L371.63,229.09L372.8,230.09L373.38,229.78L374.26,229.73L374.4,229.75L374.55,229.35L374.84,229.69L375.42,229.81L376.3,229.51L376.44,229.11L376.74,228.58L376.88,227.52L378.63,229.24L378.78,228.73L380.53,228.15L380.67,228.25L381.4,228.34L381.55,228.52L381.7,227.83L381.99,228.32L382.42,228.31L383.45,228L383.59,228.21L384.47,227.84L384.61,228.35L385.49,227.72L385.63,227.59L386.95,227.27L387.09,227.31L388.99,227.44L389.13,226.8L390.74,224.74L390.88,224.9L391.03,225.09L391.91,224.73L392.05,225.34L392.63,225.36L392.78,224.38L392.93,225.76L393.22,225.61L393.66,225.07L395.99,222.26L396.13,222.57L396.28,223.73L397.3,223.96L397.74,223.34L397.89,224.02L398.32,223.1L398.76,223.58L399.78,225.27L400.07,224.62L400.22,224.98L400.36,224.35L400.8,223.97L402.26,220.95L402.41,221.26L402.84,221.39L402.99,220.97L403.43,221.79L403.87,222.03L404.89,222.25L405.03,221.97L405.32,222.95L405.47,222.18L405.91,221.4L406.2,221.08L406.34,221.97L406.49,221.91L407.51,221.67L407.95,221.66L408.39,220.27L408.53,220.87L409.12,221.11L409.26,221.26L409.41,220.58L409.55,220.84L409.99,220.28L411.01,219.99L411.16,219.79L412.18,221.36L412.32,220.93L412.47,220.92L413.64,219.39L414.07,219.18L414.51,218.59L414.66,218.32L415.53,218.02L415.68,217.38L416.55,217.41L416.7,213.79L417.72,213.55L418.16,213.32L420.2,214.41L420.35,213.55L420.49,213.99L420.78,213.88L421.22,213.44L421.37,212.72L421.51,213.83L421.8,213.16L422.24,215.46L423.85,211.3L424.28,211.63L424.43,212.03L425.45,212.34L425.6,212.12L426.47,211.94L426.62,211.66L427.35,210.27L427.49,210.31L427.64,210.6L427.93,209.31L428.51,210.21L429.54,207.66L429.68,207.71L430.41,206.2L430.56,207.05L430.7,205.41L430.99,207.74L431.43,210.47L431.58,208.07L431.87,212.62L432.01,210.34L432.45,209.65L433.62,206.75L433.76,207.64L433.91,207.47L434.06,205.78L434.49,204.8L434.64,205.68L434.79,205.99L434.93,206.66L435.52,206.08L435.66,206.32L436.54,203.82L436.68,205.53L437.99,208.87L438.14,210.76L438.58,205.98L439.02,207.8L439.6,209.79L440.04,207L440.18,208.55L440.62,208.16L441.06,206.13L441.2,206.49L441.64,205.7L441.93,204.06L442.22,205.1L442.66,204.85L442.95,207.05L443.25,204.51L443.68,206.17L444.7,204.22L444.85,204.51L445.72,202.9L445.87,203.42L446.16,203.94L447.33,202.36L447.91,202.61L449.08,199.35L449.23,200.52L449.37,199.98L449.95,200.21L450.1,200.55L450.25,200.13L450.39,201.07L450.83,200.54L450.98,200.54L451.12,199.8L451.41,200.87L451.85,202.34L452.14,202.95L452.87,201.16L453.02,201.86L454.33,198.12L454.48,197.21L455.35,197.96L455.5,196.6L456.23,193.29L456.37,194.17L456.52,195.58L456.96,197.26L457.25,196.6L457.39,195.66L458.41,194.13L458.56,194.62L459,195.19L459.14,194.21L459.58,195.35L460.02,195.87L460.16,196.52L460.46,195.36L460.6,194.75L461.62,191.88L462.21,192.33L462.64,194.89L463.08,194.04L463.66,191.12L464.1,192.02L464.39,192.34L465.12,190.17L465.27,190.33L465.41,190.68L465.71,190.39L466.14,189.49L467.16,192.96L467.31,191.93L467.46,196.39L467.6,196.57L467.75,193.9L468.19,195.33L468.33,192.85L468.48,193.06L468.62,194.68L469.21,193.85L469.35,194.97L469.5,199.19L469.64,194.82L469.79,195.8L470.23,198.07L470.37,198.16L470.52,195.91L470.67,196.56L470.81,196.39L471.25,195.4L471.39,195.25L471.54,192.15L471.69,192.3L471.83,193.9L472.56,196.92L472.71,195.23L472.85,194.49L473.44,199.31L473.87,198.32L474.31,195.82L475.33,191.7L475.48,194.32L475.77,193.83L475.92,197.03L476.79,193.64L476.94,196.15L478.4,204.87L478.69,200.16L478.98,200.28L479.42,199.42L479.71,199.75L479.85,202.48L480,199.15L480.44,199.06L480.73,197.44L481.02,198.52L481.46,199.07L482.04,194.91L482.63,196.4L483.06,195.31L483.5,196.84L483.79,195.89L484.08,198.53L484.52,196.36L484.67,195.27L484.96,196.7L485.1,196.41L485.54,196.72L486.13,194.54L486.71,194.58L486.86,194.99L487,193.33L487.15,192.18L488.61,191.23L488.75,191.64L488.9,191.6L489.04,192.6L489.19,192.52L489.63,190.81L491.08,185.36L491.23,187.7L492.84,186.12L492.98,185.55L493.86,186.06L494,185.39L495.02,184.22L495.17,183.04L495.75,182.76L495.9,181.52L496.04,181.84L496.19,178.79L496.92,177.72L497.06,179.72L497.36,178.97L497.94,181.46L498.09,181.47L498.38,180.28L498.81,183.06L499.25,178.6L499.4,179.23L499.84,180.6L500.13,179.53L500.42,180.59L501,180.65L501.88,185.32L502.02,182.86L502.17,180.89L502.9,175.89L503.19,176.71L503.34,176.09L503.92,175.7L504.07,173.99L504.94,172.06L505.09,175.27L506.25,172.29L506.55,172.59L506.98,172.66L507.13,173.03L507.27,172L507.42,171.6L508,171.23L508.15,172.57L508.3,173.17L508.59,172.91L509.02,171.58L509.61,169.42L510.05,169.65L510.19,170.16L511.07,176.17L511.21,174.34L511.5,171.24L511.65,172.11L512.09,173.53L512.23,171.45L512.53,174.76L512.67,172.94L513.11,171.25L513.4,170.97L513.69,174.97L514.13,173.45L514.28,173.23L514.42,173.36L514.57,171.47L515.3,173.01L515.44,171.83L515.59,170.03L516.17,171.91L516.32,172.98L516.61,171.91L516.75,172.06L517.19,172.79L517.63,169.28L517.78,170.49L518.21,170.71L518.36,172.01L518.65,170.41L518.8,171.75L519.23,170.79L519.53,174.04L519.82,171.47L520.26,172.21L520.4,173.28L520.69,170.74L520.84,170.31L521.28,170.4L521.42,168.91L522.44,172.76L522.59,172.12L522.73,170.12L523.61,166.65L523.9,167.31L524.34,166.7L524.78,166.91L524.92,165.65L525.51,164.83L525.65,164.65L526.53,162.36L526.67,162.56L526.82,162.66L526.96,162.58L527.4,161.36L527.69,160.55L527.99,161.25L528.42,162.61L528.57,162.79L528.86,162.33L529.01,160.97L529.59,161.43L529.74,161.01L529.88,159.86L531.05,156.76L531.49,156.76L532.07,155.61L532.51,156.63L532.65,156.55L532.94,154.37L533.67,156.63L533.82,154.77L534.55,152.39L534.69,153.25L534.84,152.47L535.13,149.55L535.72,150L535.86,150.59L536.01,149.83L536.15,151.08L536.59,153.14L538.2,137.06L538.63,133.48L539.07,137.19L539.22,135.97L539.8,134.57L539.95,134.15L540.09,136.29L541.11,155.87L541.26,153.01L541.7,144.96L542.72,161.51L542.86,153.82L543.74,172.85L543.88,164.53L544.76,172.43L544.9,163.21L545.05,164.27L545.2,157.41L545.34,162.19L545.78,154.34L545.93,156.22L546.07,160.4L546.36,159.11L546.8,150.58L546.95,151.9L547.24,150.67L547.82,150.4L548.4,140.63L548.84,143.27L548.99,148.67L549.43,143.65L549.86,144.02L550.01,147.19L550.3,140.17L550.45,143.64L550.88,140.45L551.91,134.56L552.05,137.71L552.2,139.77L552.49,137.23L552.93,135.92L553.07,136.88L553.22,134.98L553.51,136.58L554.09,138.04L554.24,137.86L554.38,138.16L554.53,136.78L554.97,137.09L555.11,135.54L555.26,135.2L555.41,137.03L556.28,126.61L556.43,134.52L558.18,122.82L558.32,125.86L558.61,126.99L559.49,119.56L560.07,116.24L560.22,118.07L560.51,113.53L560.66,114.02L561.68,122.09L562.11,115.56L562.41,115.45L562.7,123.27L563.28,122.73L563.43,121.21L563.57,121.33L563.72,120.5L564.16,111.87L565.32,121.72L565.47,117.37L565.62,117.73L565.76,117.58L566.2,116.55L566.49,116.61L567.51,108.02L567.66,103.95L568.24,104.73L568.53,100.14L568.68,110.91L569.41,121.89L569.85,120.86L570.28,119.82L570.43,117.3L570.72,121.7L570.87,123.59L571.3,121.98L571.45,118.32L571.6,123.44L571.89,118.02L572.32,116.8L572.76,114.54L572.91,119.24L573.35,116.1L573.49,119.45L573.93,112.02L574.37,107.83L574.51,106.74L574.8,109.14L574.95,109.14L575.39,113.22L575.97,111.71L576.41,116.32L576.55,113.94L576.7,121.87L576.85,120.34L576.99,122.03L577.43,122.14L577.58,119.06L578.01,106.09L578.45,110.09L578.6,115.62L579.47,110.96L579.62,113.04L580.49,115.89L580.64,113.07L581.66,111.3L581.8,111.93L581.95,112.78L582.53,112.74L582.68,111.45L582.97,115.58L583.12,113.52L583.56,112.81L584.72,105.49L584.87,107.68L585.6,104.72L585.74,105.33L585.89,107.19L586.03,106.63L586.62,110.19L586.76,110.03L586.91,114.28L587.2,108.73L587.64,110.34L587.78,112.26L587.93,111.2L588.22,113.98L588.81,111.13L589.83,99.18L589.97,98.75L590.26,99.45L590.7,93.67L590.85,93.78L590.99,91.15L591.14,91.9L591.72,91.55L591.87,90.57L592.01,91.29L592.31,89.66L592.89,90.63L593.04,89.83L593.33,92.26L593.76,97.13L594.2,101.29L594.35,98.74L594.79,95.3L595.22,102.99L595.81,102.5L595.95,97.68L596.1,98.71L596.24,95.16L596.39,96.2L596.83,96.9L596.97,94.72L597.27,99.99L597.41,100.27L597.99,94.82L598.43,95.65L598.87,96.58L599.02,99.14L599.16,96.18L599.31,91.22L601.49,77.36L601.93,78.87L602.08,79.23L602.22,77.48L602.37,80.05L602.52,77.05L602.95,76.75L603.1,76.43L603.25,82.02L604.27,88.12L604.41,85.66L604.56,83.6L605,87.58L605.14,88.3L605.29,93.75L605.58,86.85L606.02,89.09L606.16,90.67L606.45,87.68L606.6,88.67L607.04,84.43L607.18,83.72L607.47,85.54L607.62,85.26L608.2,86.98L608.35,87.06L608.5,88.26L609.52,79.55L609.66,79.06L610.1,77.55L610.25,78.7L610.39,79.44L611.27,73.3L611.41,73.48L611.56,72.41L611.7,73.67L612.14,70.88L612.29,68.85L612.43,69.23L612.58,68.7L612.73,64.13L613.31,64.12L613.45,62.41L614.18,64.38L614.33,61.61L614.48,60.46L614.77,61.79L615.21,64.61L615.79,55.05L616.23,55.52L616.37,57.41L617.25,58.71L617.39,56.97L617.54,57.43L617.68,55.16L618.27,56.06L618.41,57.49L618.71,54.94L618.85,52.64L619.29,51.32L619.43,52.47L619.58,53.83L620.31,43.29L620.46,44.83L620.6,45.29L620.75,47.5L620.89,47.02L621.33,44.09L621.91,45.95L622.5,46.67L622.94,50.06L623.37,49.09L623.52,46.97L623.81,42.86L623.96,46.91L624.39,51.12L624.54,50.74L624.69,47.88L624.83,47.14L624.98,47.3L625.41,51.22L625.85,60.49L626,55.06L626.44,59.59L627.02,50.71L627.46,51.18L627.6,52.2L628.92,38.66L629.06,39.87L629.5,40.65L629.64,39.16L630.08,22.87L630.52,24.58L630.67,21.73L631.54,18.81L631.69,19.6L631.83,23.49L632.12,19.01L632.56,19.5L633.14,13.7L633.58,16.19L634.17,23.88L634.6,18.61L635.19,28.94L635.62,26.53L636.21,14.13L636.65,16.51L637.23,28.34L637.67,31.29L638.69,14.2L638.83,15.11L638.98,14.58L639.12,16.57L639.27,18.85L639.71,20.04L639.85,24.39L640,33.97" style="vector-effect: non-scaling-stroke; fill: none; stroke: rgb(0, 0, 0); stroke-opacity: 0; stroke-width: 0px; opacity: 1;"/></g><g class="points"/><g class="text"/></g><g class="trace scatter trace45f2c711-046e-4121-8486-56e5cedc343d" style="stroke-miterlimit: 2;"><g class="fills"><g><path class="js-fill" d="M0,256.05L3.06,256.32L3.21,256.94L3.94,256.52L4.08,256.82L4.23,257.4L6.13,257.43L6.27,257.54L8.75,256.82L8.9,257.15L12.98,256.38L13.13,256.67L14.15,256.63L14.29,256.29L15.31,256.05L15.46,256.05L18.23,256.34L18.38,256.85L18.52,257.3L19.11,256.91L19.25,256.58L21.15,258.49L21.29,259.12L22.17,258.6L22.32,258.26L22.46,258.02L22.61,258.66L23.04,258.95L23.48,259.12L23.63,258.73L24.07,258.83L24.65,258.27L25.09,258.56L26.69,260.15L27.27,259.82L28.59,258.82L28.73,259.19L31.36,258.44L31.5,258.69L32.82,259.48L33.25,259.42L33.55,259.15L33.84,259.5L34.28,259.47L35.44,259.95L35.59,259.7L36.75,259.63L36.9,259.73L37.92,258.91L38.36,258.79L39.67,259.34L39.82,259.35L40.98,259.3L41.42,259.29L42.73,258.86L42.88,258.8L43.9,258.28L44.05,258.05L45.8,257.89L45.94,258.05L47.11,258.54L47.55,258.52L48.13,258.8L48.57,258.77L49.88,257.62L50.03,257.71L51.19,257.22L51.63,257.27L52.8,257.15L52.94,257.18L53.97,257.16L54.11,256.67L55.28,256.98L55.86,256.77L56.88,256.89L57.03,256.69L58.05,257.2L58.2,257.37L59.22,257.46L59.36,257.61L62.42,258.29L62.86,258.43L63.88,258.45L64.03,258.63L64.47,258.99L64.9,258.67L70.01,258.5L70.15,258.15L70.45,257.84L70.59,258.31L71.03,258.47L72.2,258.46L72.34,258.65L78.18,259.09L78.32,258.91L79.2,258.65L79.34,258.28L80.36,258.14L80.51,257.96L81.39,257.83L81.53,257.78L82.26,257.8L82.41,257.23L82.7,257.5L82.84,257.23L83.28,257L83.87,257.31L84.3,257.39L85.62,259.25L85.76,258.65L85.91,258.71L86.64,258.52L86.78,258.87L86.93,259.25L87.8,258.93L87.95,258.52L88.68,257.7L88.97,258.18L89.55,258.36L90.43,258.13L90.57,258.04L91.45,257.32L91.6,257.46L91.74,258.07L92.03,258.63L92.47,258.4L92.62,258.26L93.49,258.96L93.64,258.46L93.78,258.13L94.95,257.34L95.1,257.29L98.16,257.91L98.6,257.57L98.89,257.94L99.18,257.51L99.62,257.6L99.76,257.49L99.91,257.9L100.05,258.22L101.22,258.99L101.66,258.64L102.83,258.15L102.97,258.19L104.14,258.21L104.28,257.94L105.31,257.92L105.89,257.92L106.33,257.97L106.91,257.47L107.93,256.81L108.08,256.89L109.1,256.57L109.24,256.64L110.12,256.05L110.26,256.05L152.85,256.8L153,256.96L154.02,256.89L154.31,256.42L156.35,257.2L156.79,256.9L157.23,256.79L157.37,256.98L157.81,256.8L158.25,256.43L158.4,256.58L158.83,256.82L159.85,257.04L160.15,256.47L161.31,257.2L161.46,256.97L174.15,256.05L174.29,256.05L640,256.05L640,256.05L0,256.05Z" style="fill: rgb(255, 0, 0); fill-opacity: 0.3; stroke-width: 0;"/></g></g><g class="errorbars"/><g class="lines"><path class="js-line" d="M0,256.05L640,256.05" style="vector-effect: non-scaling-stroke; fill: none; stroke: rgb(0, 0, 0); stroke-opacity: 0; stroke-width: 0px; opacity: 1;"/></g><g class="points"/><g class="text"/></g><g class="trace scatter tracebc5b7eed-ac7a-457b-ad78-c5ebb6319679" style="stroke-miterlimit: 2;"><g class="fills"/><g class="errorbars"/><g class="lines"><path class="js-line" d="M0,256.05L3.06,256.32L3.21,256.94L3.94,256.52L4.08,256.82L4.23,257.4L6.13,257.43L6.27,257.54L8.75,256.82L8.9,257.15L12.98,256.38L13.13,256.67L14.15,256.63L14.29,256.29L15.31,256.05L15.46,256.05L18.23,256.34L18.38,256.85L18.52,257.3L19.11,256.91L19.25,256.58L21.15,258.49L21.29,259.12L22.17,258.6L22.32,258.26L22.46,258.02L22.61,258.66L23.04,258.95L23.48,259.12L23.63,258.73L24.07,258.83L24.65,258.27L25.09,258.56L26.69,260.15L27.27,259.82L28.59,258.82L28.73,259.19L31.36,258.44L31.5,258.69L32.82,259.48L33.25,259.42L33.55,259.15L33.84,259.5L34.28,259.47L35.44,259.95L35.59,259.7L36.75,259.63L36.9,259.73L37.92,258.91L38.36,258.79L39.67,259.34L39.82,259.35L40.98,259.3L41.42,259.29L42.73,258.86L42.88,258.8L43.9,258.28L44.05,258.05L45.8,257.89L45.94,258.05L47.11,258.54L47.55,258.52L48.13,258.8L48.57,258.77L49.88,257.62L50.03,257.71L51.19,257.22L51.63,257.27L52.8,257.15L52.94,257.18L53.97,257.16L54.11,256.67L55.28,256.98L55.86,256.77L56.88,256.89L57.03,256.69L58.05,257.2L58.2,257.37L59.22,257.46L59.36,257.61L62.42,258.29L62.86,258.43L63.88,258.45L64.03,258.63L64.47,258.99L64.9,258.67L70.01,258.5L70.15,258.15L70.45,257.84L70.59,258.31L71.03,258.47L72.2,258.46L72.34,258.65L78.18,259.09L78.32,258.91L79.2,258.65L79.34,258.28L80.36,258.14L80.51,257.96L81.39,257.83L81.53,257.78L82.26,257.8L82.41,257.23L82.7,257.5L82.84,257.23L83.28,257L83.87,257.31L84.3,257.39L85.62,259.25L85.76,258.65L85.91,258.71L86.64,258.52L86.78,258.87L86.93,259.25L87.8,258.93L87.95,258.52L88.68,257.7L88.97,258.18L89.55,258.36L90.43,258.13L90.57,258.04L91.45,257.32L91.6,257.46L91.74,258.07L92.03,258.63L92.47,258.4L92.62,258.26L93.49,258.96L93.64,258.46L93.78,258.13L94.95,257.34L95.1,257.29L98.16,257.91L98.6,257.57L98.89,257.94L99.18,257.51L99.62,257.6L99.76,257.49L99.91,257.9L100.05,258.22L101.22,258.99L101.66,258.64L102.83,258.15L102.97,258.19L104.14,258.21L104.28,257.94L105.31,257.92L105.89,257.92L106.33,257.97L106.91,257.47L107.93,256.81L108.08,256.89L109.1,256.57L109.24,256.64L110.12,256.05L110.26,256.05L152.85,256.8L153,256.96L154.02,256.89L154.31,256.42L156.35,257.2L156.79,256.9L157.23,256.79L157.37,256.98L157.81,256.8L158.25,256.43L158.4,256.58L158.83,256.82L159.85,257.04L160.15,256.47L161.31,257.2L161.46,256.97L174.15,256.05L174.29,256.05L640,256.05" style="vector-effect: non-scaling-stroke; fill: none; stroke: rgb(0, 0, 0); stroke-opacity: 0; stroke-width: 0px; opacity: 1;"/></g><g class="points"/><g class="text"/></g><g class="trace scatter tracea03288de-81de-498a-a3c2-4fd9a56b7855" style="stroke-miterlimit: 2; opacity: 1;"><g class="fills"/><g class="errorbars"/><g class="lines"><path class="js-line" d="M0,256.05L1.17,255.94L1.6,256.17L2.19,255.83L2.77,255.69L3.65,256.73L3.79,256.62L3.94,256.52L4.81,257.23L4.96,257.13L5.69,257.67L5.83,257.5L5.98,257.51L8.75,256.82L8.9,257.15L12.98,256.38L13.13,256.67L14.15,256.63L14.29,256.29L15.31,255.74L15.46,255.85L17.21,255.71L17.36,255.66L18.52,257.3L18.96,256.87L20.27,257.21L20.42,257.88L21.29,259.12L21.59,258.65L22.17,258.6L22.46,258.02L22.61,258.66L23.04,258.95L23.48,259.12L23.63,258.73L24.07,258.83L24.65,258.27L25.09,258.56L26.69,260.15L27.27,259.82L28.59,258.82L28.73,259.19L31.36,258.44L31.5,258.69L32.82,259.48L33.25,259.42L33.55,259.15L33.84,259.5L34.28,259.47L35.44,259.95L35.59,259.7L36.75,259.63L36.9,259.73L37.92,258.91L38.36,258.79L39.67,259.34L39.82,259.35L40.98,259.3L41.42,259.29L42.73,258.86L42.88,258.8L43.9,258.28L44.05,258.05L45.8,257.89L45.94,258.05L47.11,258.54L47.55,258.52L48.13,258.8L48.57,258.77L49.88,257.62L50.03,257.71L51.19,257.22L51.63,257.27L52.8,257.15L52.94,257.18L53.97,257.16L54.11,256.67L55.28,256.98L55.86,256.77L56.88,256.89L57.03,256.69L58.05,257.2L58.2,257.37L59.22,257.46L59.36,257.61L62.42,258.29L62.86,258.43L63.88,258.45L64.03,258.63L64.47,258.99L64.9,258.67L70.01,258.5L70.15,258.15L70.45,257.84L70.59,258.31L71.03,258.47L72.2,258.46L72.34,258.65L78.18,259.09L78.32,258.91L79.2,258.65L79.34,258.28L80.36,258.14L80.51,257.96L81.39,257.83L81.53,257.78L82.26,257.8L82.41,257.23L82.7,257.5L82.84,257.23L83.28,257L83.87,257.31L84.3,257.39L85.62,259.25L85.76,258.65L85.91,258.71L86.64,258.52L86.78,258.87L86.93,259.25L87.8,258.93L87.95,258.52L88.68,257.7L88.97,258.18L89.55,258.36L90.43,258.13L90.57,258.04L91.45,257.32L91.6,257.46L91.74,258.07L92.03,258.63L92.47,258.4L92.62,258.26L93.49,258.96L93.64,258.46L93.78,258.13L94.95,257.34L95.1,257.29L98.16,257.91L98.6,257.57L98.89,257.94L99.18,257.51L99.62,257.6L99.76,257.49L99.91,257.9L100.05,258.22L101.22,258.99L101.66,258.64L102.83,258.15L102.97,258.19L104.14,258.21L104.28,257.94L105.31,257.92L105.89,257.92L106.33,257.97L106.91,257.47L107.93,256.81L108.08,256.89L109.1,256.57L109.24,256.64L109.83,255.65L110.12,255.76L110.26,255.79L110.99,255.78L111.14,255.55L115.22,254.29L115.37,253.95L116.54,254.14L116.97,254.11L117.41,253.61L117.56,253.76L117.99,254.01L118.58,254.12L119.02,253.77L121.35,255.15L121.49,254.76L122.52,254.74L122.66,253.87L127.77,255.83L128.35,255.52L129.37,256.17L129.52,255.65L130.68,255.65L130.83,255.23L132.73,255.3L132.87,254.88L134.48,255.41L134.62,255.68L134.77,256.1L135.35,255.59L135.5,255.46L135.79,254.83L135.93,255.17L136.37,255.69L136.81,255.77L136.96,255.39L137.39,255.47L138.41,255.28L138.56,255.08L141.77,254.71L141.91,254.92L142.64,254.88L142.79,254.88L142.94,254.28L143.52,254.67L143.66,254.63L145.71,254.88L145.85,255.01L149.21,255.97L149.64,256.37L150.96,256.03L151.1,255.42L152.27,255.85L152.71,256.24L153.29,257.16L153.73,257.03L155.04,256.63L155.19,256.89L155.92,257.26L156.06,257.07L156.21,257.03L156.79,256.9L156.94,256.66L158.1,256.66L158.25,256.43L159.85,257.04L160.15,256.47L161.31,257.2L161.46,256.97L174.15,255.71L174.29,255.06L174.44,254.63L174.73,255.58L175.17,255.64L178.23,252.42L178.38,252.7L179.25,252.88L179.4,252.41L180.27,251.42L180.57,251.72L180.71,252.02L183.34,251.17L183.48,251.57L184.5,251.48L184.65,251.73L184.94,252.58L185.52,252.32L185.67,251.89L186.4,251.88L186.55,252.15L188,251.04L188.44,250.72L188.88,251.19L189.02,253.78L190.05,253.64L190.48,253.69L191.07,253.46L191.5,253.59L191.8,253.36L191.94,252.82L193.84,253.5L193.98,253L194.13,251.47L194.71,252.44L194.86,252.59L195,252.25L195.15,252.35L195.73,253.33L196.17,253.8L196.61,253.47L197.19,252.58L197.63,252.73L198.07,252.19L198.21,252.74L198.65,252.77L198.94,252.92L199.23,252.43L199.67,252.42L200.26,252.04L200.69,252.41L200.98,252.56L201.13,252.11L201.28,251.87L202.88,251.58L203.03,252.11L204.05,250.96L204.19,251.05L204.92,250.25L205.07,249.26L205.94,249.79L206.09,249.27L207.4,249.47L207.84,249.43L207.99,249.61L208.42,249.11L208.86,248.9L210.32,249.7L210.46,250.04L213.53,249.9L213.97,250.41L214.4,250.8L214.55,250.47L214.99,251.16L215.42,249.91L215.57,250.24L216.15,250.38L217.03,250.47L217.17,250.32L217.61,249.3L218.05,250.18L218.63,250.13L219.07,249.97L220.24,249.39L220.38,249.33L221.26,249.31L221.4,249.35L222.28,248.74L222.42,248.93L222.57,248.91L223.74,249.2L224.18,248.97L224.61,247.48L224.76,247.59L225.2,247.37L225.63,248.11L225.78,247.5L226.22,247.05L226.51,246.81L226.65,247.03L226.8,247.78L227.68,248.11L227.82,248.21L228.4,247.86L228.55,247.43L229.57,247.9L229.72,247.79L230.3,247.13L230.74,247.7L230.88,247.9L231.91,248L232.34,247.72L232.49,247.23L232.93,247.62L233.36,247.68L234.68,247.5L234.82,247.29L235.41,246.99L235.55,247.32L235.7,247.3L235.99,246.53L236.57,246.78L236.72,246.94L236.86,247.13L237.01,246.7L237.45,246.52L238.76,246.17L238.91,246.38L239.05,246.03L239.64,246.28L239.78,246.26L241.09,246.13L241.53,246.1L242.84,244.3L242.99,244.61L243.72,244.94L243.87,245.15L244.89,245.7L245.03,245.38L245.91,244.82L246.05,244.69L247.07,243.88L247.22,243.93L249.26,243.42L249.7,243.05L250.14,242.7L250.28,242.9L250.72,243.2L251.3,242.35L251.74,242.66L251.89,242.99L252.03,242.65L252.18,243.34L252.32,243.09L252.76,243.07L253.93,243.67L254.07,242.84L255.24,245.53L255.39,244.94L256.26,244.01L256.41,243.28L257.28,243.33L257.43,242.73L259.91,241.07L260.05,241.34L261.08,242.19L261.22,242L262.53,241.55L262.97,242.03L263.99,242.72L264.14,243.73L265.16,241.53L265.31,241.74L265.6,241.91L267.2,243.4L267.35,243.02L267.49,242.11L268.51,243.52L268.66,243.01L269.24,242.91L269.39,243.22L269.54,242.41L269.68,242.38L270.12,242.5L270.7,246.91L271.14,246.32L272.74,244.59L273.33,244.58L275.66,244.9L275.81,245.4L276.24,245.07L276.54,245.66L276.68,246.3L278.29,245.06L278.43,245.04L279.31,246.34L279.45,246.54L281.49,245.88L281.64,245.47L281.93,245.9L282.37,245.03L282.52,245.21L282.81,244.74L282.95,241.69L283.97,241.16L284.41,241.44L284.7,242.76L285,241.77L285.43,242.03L285.72,241.85L285.87,241.12L287.04,242.14L287.62,242.35L287.77,241.66L288.06,242.17L288.5,241.92L289.66,242.99L289.81,242.34L290.83,242.77L290.98,242.26L292,242.99L292.14,243.25L293.02,243.83L293.6,243.84L294.18,243.69L294.62,243.06L295.79,241.88L295.93,243.06L296.08,242.68L296.66,243.19L296.81,243.2L297.83,241.71L297.98,241.68L298.85,242.47L299,242.25L299.87,241.68L300.02,242.13L300.16,242.78L300.89,246.31L301.04,244.79L301.19,243.98L301.77,244.24L301.91,245.39L302.21,244.25L302.35,244.86L302.94,243.98L303.81,244.56L303.96,243.92L304.39,244.26L304.83,243.83L304.98,243.98L306.14,243.73L306.29,243.49L307.31,241.56L307.46,241.79L308.92,241.44L309.06,241.34L309.21,241.73L309.35,241.16L309.5,237.86L309.94,236.92L310.37,237.53L310.52,238.02L311.54,236.46L311.98,236.98L312.12,237.43L314.17,236.67L314.31,237.06L315.33,236.01L315.48,236.71L315.62,235.53L316.21,235.61L316.35,236.17L316.65,236.8L317.37,235.38L317.52,235.68L317.67,236.75L319.27,235.09L319.42,235.26L319.56,235.83L320.44,236.81L320.58,238.1L321.31,237.68L321.46,238.46L321.6,237.45L321.75,238.91L322.33,239.2L322.48,239.05L322.63,239.26L322.77,238.02L323.5,238.75L323.65,238.17L323.79,236.09L324.23,236.36L324.38,237.53L325.4,240.08L325.54,239.79L325.69,239.8L326.56,237.67L326.86,238.08L327.29,237.51L327.44,238.53L327.88,238.44L328.31,238.73L328.61,237.3L328.9,237.94L329.33,238.63L330.79,236.12L330.94,236.93L331.81,236.43L332.4,236.89L332.98,235.49L333.42,235.59L334,236.29L334.44,236.36L335.61,234.92L335.75,235.48L335.9,235.35L336.04,238.11L336.48,237.88L336.63,238.35L336.77,238.69L337.65,239.49L337.79,239.43L338.81,238.62L338.96,238.3L339.98,238.88L340.13,238.67L340.57,239.08L340.71,237.99L341.73,237.01L341.88,237.12L343.04,237.97L343.19,238.07L343.92,239.32L344.21,239.01L344.65,239.05L345.09,237.77L345.23,239.22L345.67,240.19L346.25,238.29L346.84,238.29L348.73,236.34L348.88,236.95L349.75,234.42L349.9,234.39L350.19,234.78L350.34,234.45L350.77,234.52L351.21,233.96L351.36,233.56L355,233.36L355.15,233.66L356.32,233.68L356.46,234.53L357.48,233.81L357.92,234.03L358.07,234.11L358.21,233.45L358.36,233.41L358.94,234.05L359.09,233.32L359.23,233.26L360.11,233.81L360.26,233.53L360.98,233.25L361.13,233.85L361.28,233.9L362.01,233.83L362.15,233.52L362.44,233.81L362.59,232.12L363.17,231.19L363.46,231.81L363.61,231.97L364.48,232.43L364.63,232.78L365.21,231.55L365.36,231.76L365.51,232.79L366.09,233.2L367.26,230.81L367.4,231.31L368.28,230.83L368.42,231.41L368.57,232.16L371.49,229.1L371.63,229.09L372.8,230.09L373.38,229.78L374.26,229.73L374.4,229.75L374.55,229.35L374.84,229.69L375.42,229.81L376.3,229.51L376.44,229.11L376.74,228.58L376.88,227.52L378.63,229.24L378.78,228.73L380.53,228.15L380.67,228.25L381.4,228.34L381.55,228.52L381.7,227.83L381.99,228.32L382.42,228.31L383.45,228L383.59,228.21L384.47,227.84L384.61,228.35L385.49,227.72L385.63,227.59L386.95,227.27L387.09,227.31L388.99,227.44L389.13,226.8L390.74,224.74L390.88,224.9L391.03,225.09L391.91,224.73L392.05,225.34L392.63,225.36L392.78,224.38L392.93,225.76L393.22,225.61L393.66,225.07L395.99,222.26L396.13,222.57L396.28,223.73L397.3,223.96L397.74,223.34L397.89,224.02L398.32,223.1L398.76,223.58L399.78,225.27L400.07,224.62L400.22,224.98L400.36,224.35L400.8,223.97L402.26,220.95L402.41,221.26L402.84,221.39L402.99,220.97L403.43,221.79L403.87,222.03L404.89,222.25L405.03,221.97L405.32,222.95L405.47,222.18L405.91,221.4L406.2,221.08L406.34,221.97L406.49,221.91L407.51,221.67L407.95,221.66L408.39,220.27L408.53,220.87L409.12,221.11L409.26,221.26L409.41,220.58L409.55,220.84L409.99,220.28L411.01,219.99L411.16,219.79L412.18,221.36L412.32,220.93L412.47,220.92L413.64,219.39L414.07,219.18L414.51,218.59L414.66,218.32L415.53,218.02L415.68,217.38L416.55,217.41L416.7,213.79L417.72,213.55L418.16,213.32L420.2,214.41L420.35,213.55L420.49,213.99L420.78,213.88L421.22,213.44L421.37,212.72L421.51,213.83L421.8,213.16L422.24,215.46L423.85,211.3L424.28,211.63L424.43,212.03L425.45,212.34L425.6,212.12L426.47,211.94L426.62,211.66L427.35,210.27L427.49,210.31L427.64,210.6L427.93,209.31L428.51,210.21L429.54,207.66L429.68,207.71L430.41,206.2L430.56,207.05L430.7,205.41L430.99,207.74L431.43,210.47L431.58,208.07L431.87,212.62L432.01,210.34L432.45,209.65L433.62,206.75L433.76,207.64L433.91,207.47L434.06,205.78L434.49,204.8L434.64,205.68L434.79,205.99L434.93,206.66L435.52,206.08L435.66,206.32L436.54,203.82L436.68,205.53L437.99,208.87L438.14,210.76L438.58,205.98L439.02,207.8L439.6,209.79L440.04,207L440.18,208.55L440.62,208.16L441.06,206.13L441.2,206.49L441.64,205.7L441.93,204.06L442.22,205.1L442.66,204.85L442.95,207.05L443.25,204.51L443.68,206.17L444.7,204.22L444.85,204.51L445.72,202.9L445.87,203.42L446.16,203.94L447.33,202.36L447.91,202.61L449.08,199.35L449.23,200.52L449.37,199.98L449.95,200.21L450.1,200.55L450.25,200.13L450.39,201.07L450.83,200.54L450.98,200.54L451.12,199.8L451.41,200.87L451.85,202.34L452.14,202.95L452.87,201.16L453.02,201.86L454.33,198.12L454.48,197.21L455.35,197.96L455.5,196.6L456.23,193.29L456.37,194.17L456.52,195.58L456.96,197.26L457.25,196.6L457.39,195.66L458.41,194.13L458.56,194.62L459,195.19L459.14,194.21L459.58,195.35L460.02,195.87L460.16,196.52L460.46,195.36L460.6,194.75L461.62,191.88L462.21,192.33L462.64,194.89L463.08,194.04L463.66,191.12L464.1,192.02L464.39,192.34L465.12,190.17L465.27,190.33L465.41,190.68L465.71,190.39L466.14,189.49L467.16,192.96L467.31,191.93L467.46,196.39L467.6,196.57L467.75,193.9L468.19,195.33L468.33,192.85L468.48,193.06L468.62,194.68L469.21,193.85L469.35,194.97L469.5,199.19L469.64,194.82L469.79,195.8L470.23,198.07L470.37,198.16L470.52,195.91L470.67,196.56L470.81,196.39L471.25,195.4L471.39,195.25L471.54,192.15L471.69,192.3L471.83,193.9L472.56,196.92L472.71,195.23L472.85,194.49L473.44,199.31L473.87,198.32L474.31,195.82L475.33,191.7L475.48,194.32L475.77,193.83L475.92,197.03L476.79,193.64L476.94,196.15L478.4,204.87L478.69,200.16L478.98,200.28L479.42,199.42L479.71,199.75L479.85,202.48L480,199.15L480.44,199.06L480.73,197.44L481.02,198.52L481.46,199.07L482.04,194.91L482.63,196.4L483.06,195.31L483.5,196.84L483.79,195.89L484.08,198.53L484.52,196.36L484.67,195.27L484.96,196.7L485.1,196.41L485.54,196.72L486.13,194.54L486.71,194.58L486.86,194.99L487,193.33L487.15,192.18L488.61,191.23L488.75,191.64L488.9,191.6L489.04,192.6L489.19,192.52L489.63,190.81L491.08,185.36L491.23,187.7L492.84,186.12L492.98,185.55L493.86,186.06L494,185.39L495.02,184.22L495.17,183.04L495.75,182.76L495.9,181.52L496.04,181.84L496.19,178.79L496.92,177.72L497.06,179.72L497.36,178.97L497.94,181.46L498.09,181.47L498.38,180.28L498.81,183.06L499.25,178.6L499.4,179.23L499.84,180.6L500.13,179.53L500.42,180.59L501,180.65L501.88,185.32L502.02,182.86L502.17,180.89L502.9,175.89L503.19,176.71L503.34,176.09L503.92,175.7L504.07,173.99L504.94,172.06L505.09,175.27L506.25,172.29L506.55,172.59L506.98,172.66L507.13,173.03L507.27,172L507.42,171.6L508,171.23L508.15,172.57L508.3,173.17L508.59,172.91L509.02,171.58L509.61,169.42L510.05,169.65L510.19,170.16L511.07,176.17L511.21,174.34L511.5,171.24L511.65,172.11L512.09,173.53L512.23,171.45L512.53,174.76L512.67,172.94L513.11,171.25L513.4,170.97L513.69,174.97L514.13,173.45L514.28,173.23L514.42,173.36L514.57,171.47L515.3,173.01L515.44,171.83L515.59,170.03L516.17,171.91L516.32,172.98L516.61,171.91L516.75,172.06L517.19,172.79L517.63,169.28L517.78,170.49L518.21,170.71L518.36,172.01L518.65,170.41L518.8,171.75L519.23,170.79L519.53,174.04L519.82,171.47L520.26,172.21L520.4,173.28L520.69,170.74L520.84,170.31L521.28,170.4L521.42,168.91L522.44,172.76L522.59,172.12L522.73,170.12L523.61,166.65L523.9,167.31L524.34,166.7L524.78,166.91L524.92,165.65L525.51,164.83L525.65,164.65L526.53,162.36L526.67,162.56L526.82,162.66L526.96,162.58L527.4,161.36L527.69,160.55L527.99,161.25L528.42,162.61L528.57,162.79L528.86,162.33L529.01,160.97L529.59,161.43L529.74,161.01L529.88,159.86L531.05,156.76L531.49,156.76L532.07,155.61L532.51,156.63L532.65,156.55L532.94,154.37L533.67,156.63L533.82,154.77L534.55,152.39L534.69,153.25L534.84,152.47L535.13,149.55L535.72,150L535.86,150.59L536.01,149.83L536.15,151.08L536.59,153.14L538.2,137.06L538.63,133.48L539.07,137.19L539.22,135.97L539.8,134.57L539.95,134.15L540.09,136.29L541.11,155.87L541.26,153.01L541.7,144.96L542.72,161.51L542.86,153.82L543.74,172.85L543.88,164.53L544.76,172.43L544.9,163.21L545.05,164.27L545.2,157.41L545.34,162.19L545.78,154.34L545.93,156.22L546.07,160.4L546.36,159.11L546.8,150.58L546.95,151.9L547.24,150.67L547.82,150.4L548.4,140.63L548.84,143.27L548.99,148.67L549.43,143.65L549.86,144.02L550.01,147.19L550.3,140.17L550.45,143.64L550.88,140.45L551.91,134.56L552.05,137.71L552.2,139.77L552.49,137.23L552.93,135.92L553.07,136.88L553.22,134.98L553.51,136.58L554.09,138.04L554.24,137.86L554.38,138.16L554.53,136.78L554.97,137.09L555.11,135.54L555.26,135.2L555.41,137.03L556.28,126.61L556.43,134.52L558.18,122.82L558.32,125.86L558.61,126.99L559.49,119.56L560.07,116.24L560.22,118.07L560.51,113.53L560.66,114.02L561.68,122.09L562.11,115.56L562.41,115.45L562.7,123.27L563.28,122.73L563.43,121.21L563.57,121.33L563.72,120.5L564.16,111.87L565.32,121.72L565.47,117.37L565.62,117.73L565.76,117.58L566.2,116.55L566.49,116.61L567.51,108.02L567.66,103.95L568.24,104.73L568.53,100.14L568.68,110.91L569.41,121.89L569.85,120.86L570.28,119.82L570.43,117.3L570.72,121.7L570.87,123.59L571.3,121.98L571.45,118.32L571.6,123.44L571.89,118.02L572.32,116.8L572.76,114.54L572.91,119.24L573.35,116.1L573.49,119.45L573.93,112.02L574.37,107.83L574.51,106.74L574.8,109.14L574.95,109.14L575.39,113.22L575.97,111.71L576.41,116.32L576.55,113.94L576.7,121.87L576.85,120.34L576.99,122.03L577.43,122.14L577.58,119.06L578.01,106.09L578.45,110.09L578.6,115.62L579.47,110.96L579.62,113.04L580.49,115.89L580.64,113.07L581.66,111.3L581.8,111.93L581.95,112.78L582.53,112.74L582.68,111.45L582.97,115.58L583.12,113.52L583.56,112.81L584.72,105.49L584.87,107.68L585.6,104.72L585.74,105.33L585.89,107.19L586.03,106.63L586.62,110.19L586.76,110.03L586.91,114.28L587.2,108.73L587.64,110.34L587.78,112.26L587.93,111.2L588.22,113.98L588.81,111.13L589.83,99.18L589.97,98.75L590.26,99.45L590.7,93.67L590.85,93.78L590.99,91.15L591.14,91.9L591.72,91.55L591.87,90.57L592.01,91.29L592.31,89.66L592.89,90.63L593.04,89.83L593.33,92.26L593.76,97.13L594.2,101.29L594.35,98.74L594.79,95.3L595.22,102.99L595.81,102.5L595.95,97.68L596.1,98.71L596.24,95.16L596.39,96.2L596.83,96.9L596.97,94.72L597.27,99.99L597.41,100.27L597.99,94.82L598.43,95.65L598.87,96.58L599.02,99.14L599.16,96.18L599.31,91.22L601.49,77.36L601.93,78.87L602.08,79.23L602.22,77.48L602.37,80.05L602.52,77.05L602.95,76.75L603.1,76.43L603.25,82.02L604.27,88.12L604.41,85.66L604.56,83.6L605,87.58L605.14,88.3L605.29,93.75L605.58,86.85L606.02,89.09L606.16,90.67L606.45,87.68L606.6,88.67L607.04,84.43L607.18,83.72L607.47,85.54L607.62,85.26L608.2,86.98L608.35,87.06L608.5,88.26L609.52,79.55L609.66,79.06L610.1,77.55L610.25,78.7L610.39,79.44L611.27,73.3L611.41,73.48L611.56,72.41L611.7,73.67L612.14,70.88L612.29,68.85L612.43,69.23L612.58,68.7L612.73,64.13L613.31,64.12L613.45,62.41L614.18,64.38L614.33,61.61L614.48,60.46L614.77,61.79L615.21,64.61L615.79,55.05L616.23,55.52L616.37,57.41L617.25,58.71L617.39,56.97L617.54,57.43L617.68,55.16L618.27,56.06L618.41,57.49L618.71,54.94L618.85,52.64L619.29,51.32L619.43,52.47L619.58,53.83L620.31,43.29L620.46,44.83L620.6,45.29L620.75,47.5L620.89,47.02L621.33,44.09L621.91,45.95L622.5,46.67L622.94,50.06L623.37,49.09L623.52,46.97L623.81,42.86L623.96,46.91L624.39,51.12L624.54,50.74L624.69,47.88L624.83,47.14L624.98,47.3L625.41,51.22L625.85,60.49L626,55.06L626.44,59.59L627.02,50.71L627.46,51.18L627.6,52.2L628.92,38.66L629.06,39.87L629.5,40.65L629.64,39.16L630.08,22.87L630.52,24.58L630.67,21.73L631.54,18.81L631.69,19.6L631.83,23.49L632.12,19.01L632.56,19.5L633.14,13.7L633.58,16.19L634.17,23.88L634.6,18.61L635.19,28.94L635.62,26.53L636.21,14.13L636.65,16.51L637.23,28.34L637.67,31.29L638.69,14.2L638.83,15.11L638.98,14.58L639.12,16.57L639.27,18.85L639.71,20.04L639.85,24.39L640,33.97" style="vector-effect: non-scaling-stroke; fill: none; stroke: rgb(148, 103, 189); stroke-opacity: 1; stroke-width: 2px; opacity: 1;"/></g><g class="points"/><g class="text"/></g><g class="trace scatter trace862eaafb-e52d-48e4-915f-33e127e07b72" style="stroke-miterlimit: 2; opacity: 0;"><g class="fills"/><g class="errorbars"/><g class="lines"><path class="js-line" d="M0,256.05L640,256.05" style="vector-effect: non-scaling-stroke; fill: none; stroke: rgb(0, 0, 0); stroke-opacity: 0; stroke-width: 0px; opacity: 1;"/></g><g class="points"/><g class="text"/></g></g></g><g class="overplot"/><path class="xlines-above crisp" d="M0,0" style="fill: none;"/><path class="ylines-above crisp" d="M0,0" style="fill: none;"/><g class="overlines-above"/><g class="xaxislayer-above"><g class="xtick"><text text-anchor="middle" x="0" y="333" transform="translate(30.15,0)" style="font-family: 'Open Sans', verdana, arial, sans-serif; font-size: 12px; fill: rgb(214, 223, 239); fill-opacity: 1; white-space: pre; opacity: 1;">2010</text></g><g class="xtick"><text text-anchor="middle" x="0" y="333" style="font-family: 'Open Sans', verdana, arial, sans-serif; font-size: 12px; fill: rgb(214, 223, 239); fill-opacity: 1; white-space: pre; opacity: 1;" transform="translate(136.62,0)">2012</text></g><g class="xtick"><text text-anchor="middle" x="0" y="333" style="font-family: 'Open Sans', verdana, arial, sans-serif; font-size: 12px; fill: rgb(214, 223, 239); fill-opacity: 1; white-space: pre; opacity: 1;" transform="translate(243.24,0)">2014</text></g><g class="xtick"><text text-anchor="middle" x="0" y="333" style="font-family: 'Open Sans', verdana, arial, sans-serif; font-size: 12px; fill: rgb(214, 223, 239); fill-opacity: 1; white-space: pre; opacity: 1;" transform="translate(349.71,0)">2016</text></g><g class="xtick"><text text-anchor="middle" x="0" y="333" style="font-family: 'Open Sans', verdana, arial, sans-serif; font-size: 12px; fill: rgb(214, 223, 239); fill-opacity: 1; white-space: pre; opacity: 1;" transform="translate(456.33,0)">2018</text></g><g class="xtick"><text text-anchor="middle" x="0" y="333" style="font-family: 'Open Sans', verdana, arial, sans-serif; font-size: 12px; fill: rgb(214, 223, 239); fill-opacity: 1; white-space: pre; opacity: 1;" transform="translate(562.8,0)">2020</text></g><g class="xtick"><text text-anchor="middle" x="0" y="333" style="font-family: 'Open Sans', verdana, arial, sans-serif; font-size: 12px; fill: rgb(214, 223, 239); fill-opacity: 1; white-space: pre; opacity: 1;" transform="translate(669.42,0)">2022</text></g></g><g class="yaxislayer-above"><g class="ytick"><text text-anchor="end" x="29" y="4.199999999999999" transform="translate(0,319.9)" style="font-family: 'Open Sans', verdana, arial, sans-serif; font-size: 12px; fill: rgb(214, 223, 239); fill-opacity: 1; white-space: pre; opacity: 1;">0</text></g><g class="ytick"><text text-anchor="end" x="29" y="4.199999999999999" style="font-family: 'Open Sans', verdana, arial, sans-serif; font-size: 12px; fill: rgb(214, 223, 239); fill-opacity: 1; white-space: pre; opacity: 1;" transform="translate(0,284.2)">2</text></g><g class="ytick"><text text-anchor="end" x="29" y="4.199999999999999" style="font-family: 'Open Sans', verdana, arial, sans-serif; font-size: 12px; fill: rgb(214, 223, 239); fill-opacity: 1; white-space: pre; opacity: 1;" transform="translate(0,248.49)">4</text></g><g class="ytick"><text text-anchor="end" x="29" y="4.199999999999999" style="font-family: 'Open Sans', verdana, arial, sans-serif; font-size: 12px; fill: rgb(214, 223, 239); fill-opacity: 1; white-space: pre; opacity: 1;" transform="translate(0,212.78)">6</text></g><g class="ytick"><text text-anchor="end" x="29" y="4.199999999999999" style="font-family: 'Open Sans', verdana, arial, sans-serif; font-size: 12px; fill: rgb(214, 223, 239); fill-opacity: 1; white-space: pre; opacity: 1;" transform="translate(0,177.08)">8</text></g><g class="ytick"><text text-anchor="end" x="29" y="4.199999999999999" style="font-family: 'Open Sans', verdana, arial, sans-serif; font-size: 12px; fill: rgb(214, 223, 239); fill-opacity: 1; white-space: pre; opacity: 1;" transform="translate(0,141.37)">10</text></g><g class="ytick"><text text-anchor="end" x="29" y="4.199999999999999" style="font-family: 'Open Sans', verdana, arial, sans-serif; font-size: 12px; fill: rgb(214, 223, 239); fill-opacity: 1; white-space: pre; opacity: 1;" transform="translate(0,105.66)">12</text></g><g class="ytick"><text text-anchor="end" x="29" y="4.199999999999999" style="font-family: 'Open Sans', verdana, arial, sans-serif; font-size: 12px; fill: rgb(214, 223, 239); fill-opacity: 1; white-space: pre; opacity: 1;" transform="translate(0,69.95)">14</text></g></g><g class="overaxes-above"/></g></g><g class="polarlayer"/><g class="ternarylayer"/><g class="geolayer"/><g class="funnelarealayer"/><g class="pielayer"/><g class="iciclelayer"/><g class="treemaplayer"/><g class="sunburstlayer"/><g class="glimages"/><defs id="topdefs-1489b6"><g class="clips"/><clipPath id="legend1489b6"><rect width="192" height="29" x="0" y="0"/></clipPath></defs><g class="layer-above"><g class="imagelayer"/><g class="shapelayer"><path data-index="0" fill-rule="evenodd" d="M30,302.05L670,302.05" clip-path="url(#clip1489b6y)" style="opacity: 1; stroke: rgb(128, 128, 128); stroke-opacity: 1; fill: rgb(0, 0, 0); fill-opacity: 0; stroke-dasharray: 9px, 9px; stroke-width: 2px;"/></g></g><g class="infolayer"><g class="legend" pointer-events="all" transform="translate(478,11.519999999999996)"><rect class="bg" shape-rendering="crispEdges" style="stroke: rgb(68, 68, 68); stroke-opacity: 1; fill: rgb(33, 34, 44); fill-opacity: 1; stroke-width: 0px;" width="192" height="29" x="0" y="0"/><g class="scrollbox" transform="" clip-path="url(#legend1489b6)"><g class="groups"><g class="traces" transform="translate(0,14.5)" style="opacity: 1;"><text class="legendtext" text-anchor="start" x="40" y="4.680000000000001" style="font-family: 'Open Sans', verdana, arial, sans-serif; font-size: 12px; fill: rgb(214, 223, 239); fill-opacity: 1; white-space: pre;">Benchmark</text><g class="layers" style="opacity: 1;"><g class="legendfill"/><g class="legendlines"><path class="js-line" d="M5,0h30" style="fill: none; stroke: rgb(127, 127, 127); stroke-opacity: 1; stroke-width: 2px;"/></g><g class="legendsymbols"><g class="legendpoints"/></g></g><rect class="legendtoggle" x="0" y="-9.5" width="110.40625" height="19" style="fill: rgb(0, 0, 0); fill-opacity: 0;"/></g><g class="traces" transform="translate(112.90625,14.5)" style="opacity: 1;"><text class="legendtext" text-anchor="start" x="40" y="4.680000000000001" style="font-family: 'Open Sans', verdana, arial, sans-serif; font-size: 12px; fill: rgb(214, 223, 239); fill-opacity: 1; white-space: pre;">Value</text><g class="layers" style="opacity: 1;"><g class="legendfill"/><g class="legendlines"><path class="js-line" d="M5,0h30" style="fill: none; stroke: rgb(148, 103, 189); stroke-opacity: 1; stroke-width: 2px;"/></g><g class="legendsymbols"><g class="legendpoints"/></g></g><rect class="legendtoggle" x="0" y="-9.5" width="75.9375" height="19" style="fill: rgb(0, 0, 0); fill-opacity: 0;"/></g></g></g><rect class="scrollbar" rx="20" ry="3" width="0" height="0" style="fill: rgb(128, 139, 164); fill-opacity: 1;" x="0" y="0"/></g><g class="g-gtitle"/><g class="g-xtitle"/><g class="g-ytitle"/></g></svg>