<svg class="main-svg" xmlns="http://www.w3.org/2000/svg" xmlns:xlink="http://www.w3.org/1999/xlink" width="700" height="350" style="" viewBox="0 0 700 350"><rect x="0" y="0" width="700" height="350" style="fill: rgb(33, 34, 44); fill-opacity: 1;"/><defs id="defs-bf2f17"><g class="clips"><clipPath id="clipbf2f17xyplot" class="plotclip"><rect width="621" height="290"/></clipPath><clipPath class="axesclip" id="clipbf2f17x"><rect x="39" y="0" width="621" height="350"/></clipPath><clipPath class="axesclip" id="clipbf2f17y"><rect x="0" y="30" width="700" height="290"/></clipPath><clipPath class="axesclip" id="clipbf2f17xy"><rect x="39" y="30" width="621" height="290"/></clipPath></g><g class="gradients"/><g class="patterns"/></defs><g class="bglayer"/><g class="layer-below"><g class="imagelayer"/><g class="shapelayer"/></g><g class="cartesianlayer"><g class="subplot xy"><g class="layer-subplot"><g class="shapelayer"/><g class="imagelayer"/></g><g class="gridlayer"><g class="x"><path class="xgrid crisp" transform="translate(116.34,0)" d="M0,30v290" style="stroke: rgb(47, 62, 78); stroke-opacity: 1; stroke-width: 1px;"/><path class="xgrid crisp" transform="translate(193.65,0)" d="M0,30v290" style="stroke: rgb(47, 62, 78); stroke-opacity: 1; stroke-width: 1px;"/><path class="xgrid crisp" transform="translate(271.8,0)" d="M0,30v290" style="stroke: rgb(47, 62, 78); stroke-opacity: 1; stroke-width: 1px;"/><path class="xgrid crisp" transform="translate(349.96,0)" d="M0,30v290" style="stroke: rgb(47, 62, 78); stroke-opacity: 1; stroke-width: 1px;"/><path class="xgrid crisp" transform="translate(426.42,0)" d="M0,30v290" style="stroke: rgb(47, 62, 78); stroke-opacity: 1; stroke-width: 1px;"/><path class="xgrid crisp" transform="translate(503.72,0)" d="M0,30v290" style="stroke: rgb(47, 62, 78); stroke-opacity: 1; stroke-width: 1px;"/><path class="xgrid crisp" transform="translate(581.88,0)" d="M0,30v290" style="stroke: rgb(47, 62, 78); stroke-opacity: 1; stroke-width: 1px;"/></g><g class="y"><path class="ygrid crisp" transform="translate(0,305.67)" d="M39,0h621" style="stroke: rgb(47, 62, 78); stroke-opacity: 1; stroke-width: 1px;"/><path class="ygrid crisp" transform="translate(0,249.95)" d="M39,0h621" style="stroke: rgb(47, 62, 78); stroke-opacity: 1; stroke-width: 1px;"/><path class="ygrid crisp" transform="translate(0,194.24)" d="M39,0h621" style="stroke: rgb(47, 62, 78); stroke-opacity: 1; stroke-width: 1px;"/><path class="ygrid crisp" transform="translate(0,138.51999999999998)" d="M39,0h621" style="stroke: rgb(47, 62, 78); stroke-opacity: 1; stroke-width: 1px;"/><path class="ygrid crisp" transform="translate(0,82.8)" d="M39,0h621" style="stroke: rgb(47, 62, 78); stroke-opacity: 1; stroke-width: 1px;"/></g></g><g class="zerolinelayer"/><path class="xlines-below"/><path class="ylines-below"/><g class="overlines-below"/><g class="xaxislayer-below"/><g class="yaxislayer-below"/><g class="overaxes-below"/><g class="plot" transform="translate(39,30)" clip-path="url(#clipbf2f17xyplot)"><g class="scatterlayer mlayer"><g class="trace scatter tracee7da00c1-8d8d-47c4-bd80-cc2dcac8b8c2" style="stroke-miterlimit: 2; opacity: 1;"><g class="fills"/><g class="errorbars"/><g class="lines"><path class="js-line" d="M0,221.42L0.85,224.68L1.7,222.55L2.55,221.02L3.4,217.02L4.25,218.35L5.1,216.83L5.95,218.43L6.8,217.97L8.5,219.7L9.34,219.17L10.19,216.45L11.04,219.36L11.89,220.26L12.74,226.32L13.59,226.4L14.44,224.15L16.14,227.67L16.99,232.16L18.69,222.92L19.54,222.92L20.39,219.72L21.24,222.29L22.09,221.99L22.94,218.03L27.18,208.37L28.03,214.64L28.88,215.73L29.73,215.24L30.58,217.43L31.43,217.54L32.28,215.89L33.13,218.65L35.68,210.92L36.53,211.85L37.38,209.96L38.23,205.94L39.93,202.71L40.78,199.35L41.63,199.89L42.48,199.36L43.33,200.7L44.18,199.68L45.02,200.13L45.87,201.52L46.72,201.77L47.57,198.51L48.42,201.35L49.27,201.2L50.12,203.87L50.97,201.4L52.67,203.52L53.52,204.82L54.37,205.75L55.22,203.12L56.07,204.69L56.92,207.87L57.77,200.07L58.62,200.83L59.47,196.11L60.32,199.36L62.02,189.95L62.86,192.22L64.56,194.18L65.41,192.3L66.26,191.72L67.11,194.19L67.96,194.71L68.81,193.28L69.66,195.67L70.51,194.1L71.36,192.01L72.21,193.17L73.06,194.2L73.91,191.32L74.76,191.03L75.61,192.46L77.31,196.7L78.16,193.48L79.01,191.06L79.85,192.19L80.7,195.27L81.55,194.37L82.4,187.76L83.25,188.98L84.1,184.04L84.95,183.69L86.65,177.95L87.5,178.68L88.35,174.8L89.2,177.98L90.9,175.74L91.75,178.44L92.6,182.48L93.45,179.9L94.3,178.13L95.15,181.22L96,181.8L96.85,179.61L98.54,172.61L99.39,171.78L100.24,170.79L101.09,167.38L102.79,168.42L103.64,171.26L104.49,171.64L105.34,168.35L106.19,171.16L107.04,168.15L108.74,170.73L109.59,166.87L110.44,166.36L111.29,168.34L112.99,165.16L113.84,165.49L114.69,162.36L115.53,163.39L116.38,168.41L117.23,166.63L118.08,169.26L118.93,165.11L120.63,169.18L121.48,163.63L122.33,165.21L123.18,164.57L124.88,157.67L125.73,158.89L126.58,151.48L127.43,154.85L128.28,158.63L129.13,156.02L129.98,157.17L130.83,161.17L131.68,157.23L132.53,160.88L135.07,152.44L135.92,156.25L138.47,162.75L139.32,163.58L140.17,165.14L141.02,163.87L141.87,161.35L142.72,156.22L143.57,147.25L144.42,147.46L146.12,142.69L146.97,141.76L148.67,150.06L149.52,146.37L151.21,143.4L152.06,151.29L152.91,154.63L153.76,148.23L155.46,137.55L156.31,140.01L157.16,143.36L158.01,141.47L158.86,145.72L159.71,143.98L160.56,145.82L161.41,143.77L162.26,144.69L163.11,147.42L163.96,148.01L164.81,141.24L165.66,139.18L166.51,142.42L167.36,143.64L168.21,136.97L169.05,143.71L169.9,142.72L170.75,145.14L171.6,144.64L172.45,149.54L173.3,141.31L174.15,142.74L175,147.39L175.85,147.5L176.7,148.79L178.4,139.27L179.25,139.16L181.8,145.11L182.65,144.64L183.5,139.94L184.35,139.81L186.05,143.59L186.89,143.08L187.74,138.4L188.59,145.16L190.29,145.93L191.14,149.88L191.99,146.69L192.84,148.03L193.69,138.07L194.54,145.58L195.39,142.03L196.24,145.27L197.09,153.68L197.94,149.37L198.79,146.2L199.64,150.4L200.49,149.62L201.34,150.93L203.04,144.96L203.89,149.04L204.73,152.92L205.58,152.27L206.43,154L207.28,153.2L208.13,148.47L208.98,156.1L209.83,152.55L210.68,152.51L211.53,150.43L212.38,152.7L213.23,152.88L214.08,150.75L216.63,144.8L217.48,148.67L219.18,153.73L220.03,153.21L220.88,151.62L221.73,154.04L222.57,156.26L223.42,155.42L224.27,155.66L225.12,152.79L225.97,146.74L226.82,149.44L227.67,153L228.52,152.35L229.37,153.86L230.22,152.85L231.07,154.67L231.92,154.34L232.77,154.21L233.62,160.16L236.17,177.84L237.02,174.27L238.72,171.56L239.56,177.38L241.26,180.68L242.11,185.94L243.81,181.03L244.66,180.77L246.36,171.79L247.21,173.75L248.91,171.68L249.76,175.37L250.61,171.71L251.46,175.36L252.31,179.3L253.16,178.22L254.86,173.91L255.71,177.76L259.1,165.81L259.95,170.98L260.8,170.46L261.65,164.31L262.5,167.52L263.35,162.63L264.2,158.15L265.05,160.45L265.9,160.74L266.75,158.14L267.6,155.31L268.45,155.31L269.3,158.15L270.15,153.4L271,153.28L271.85,157.12L272.7,155.87L273.55,157.43L274.4,156.16L275.24,158.05L276.94,155.16L277.79,154.15L279.49,143.23L280.34,149.5L281.19,150.4L282.04,153.25L282.89,150.56L283.74,156.3L284.59,157.28L285.44,156.36L286.29,155.13L287.14,155.65L288.84,156.77L289.69,162.24L292.24,168.3L293.08,167.08L293.93,164.81L294.78,165.1L296.48,167.86L297.33,165.82L299.03,178.35L299.88,178.44L301.58,178.09L302.43,176.12L304.13,167.93L304.98,164.2L306.68,164.43L307.53,167.04L308.38,167.38L309.23,168.83L310.08,170.2L310.92,175.98L311.77,177.82L312.62,181.62L313.47,182.68L314.32,178.14L315.17,177.28L316.02,180.91L317.72,188.19L318.57,183.31L319.42,182.54L320.27,180L321.97,177.28L322.82,178.96L323.67,180.84L324.52,180.5L325.37,179.56L326.22,180.76L327.07,185.36L327.92,184.96L330.46,185.16L331.31,183.72L332.16,185.2L333.01,184.93L337.26,178.05L338.11,171L338.96,168.62L339.81,169.83L340.66,174.11L341.51,166.36L344.06,177.58L344.91,180.77L346.6,185.63L347.45,178.29L348.3,174.62L349.15,174.53L351.7,170.21L352.55,173.43L355.1,163.12L355.95,166.31L356.8,165.48L357.65,167.34L359.35,167.64L360.2,161.16L361.05,161.88L361.9,158.19L362.75,154.72L363.6,157.43L365.29,155.99L366.14,159.61L366.99,160.84L367.84,164.4L368.69,163.49L369.54,154.81L370.39,156.08L371.24,155.59L372.09,155.09L372.94,156.45L373.79,153.66L374.64,154.49L375.49,149.62L376.34,153.19L377.19,149.4L378.04,150.34L378.89,144.32L379.74,146.36L380.59,144.68L381.44,148.19L383.13,140.21L383.98,148.66L384.83,149.03L385.68,151.33L387.38,148.91L388.23,149.36L389.08,148.83L389.93,151.82L390.78,149.28L391.63,143.72L394.18,135.29L395.03,135.59L396.73,142.51L397.58,139.51L399.27,145.13L400.12,144.62L400.97,141.35L401.82,146.37L403.52,139.99L404.37,139.6L405.22,138.62L406.07,142.11L407.77,141.81L408.62,143.98L409.47,148.61L410.32,147.63L411.17,145.14L412.02,145.72L412.87,146.05L413.72,142.56L415.42,121.77L416.27,119.49L417.96,129.17L418.81,128.08L420.51,122.86L421.36,119.42L422.21,120.06L423.06,118.98L423.91,119.02L424.76,121.55L425.61,119.31L426.46,127.81L427.31,129.55L428.16,134.3L429.01,129.85L429.86,129.64L431.56,125.28L432.41,130.25L434.11,126.73L434.95,125.75L435.8,123.91L436.65,120.07L437.5,124.5L438.35,124L441.75,101.57L442.6,103.06L443.45,99.71L444.3,103.19L446,102.12L446.85,99.93L447.7,101.82L448.55,101.86L449.4,98.37L450.25,103.72L451.1,97.73L451.95,98.84L453.64,91.28L454.49,92.8L455.34,91.96L456.19,98.32L457.04,94.39L457.89,95.41L458.74,98.02L459.59,92.87L460.44,94.24L461.29,93.57L462.14,98.3L462.99,96.15L463.84,102.55L464.69,94.93L466.39,96.62L467.24,103.23L468.09,103L468.94,96.73L470.63,86.48L471.48,92.66L473.18,88.76L474.03,79.38L474.88,84.94L475.73,85.01L477.43,77.06L478.28,73.17L479.13,71.35L479.98,78.8L481.68,72.86L482.53,72.88L483.38,68.7L484.23,71.75L485.08,68.08L485.93,72.5L486.78,71.17L487.63,67.16L488.47,62.43L489.32,64.79L491.02,53.32L491.87,56.92L492.72,57.43L493.57,59L495.27,65.35L496.12,61.44L496.97,58.82L497.82,61.7L499.52,54.65L500.37,59.78L502.07,50.55L502.92,54.57L503.77,55.85L504.62,55.47L505.47,54.56L506.31,59.98L508.01,67.01L508.86,61.28L509.71,55.17L510.56,58.01L512.26,44.59L513.11,46.2L513.96,51.96L514.81,50.25L515.66,48.61L516.51,51.31L518.21,41.19L519.06,48.25L519.91,45.81L520.76,49.67L521.61,47.84L522.46,47.87L524.15,47.93L525,49.73L527.55,58.54L528.4,55.71L530.1,61.64L530.95,57.24L531.8,58.2L532.65,63.59L533.5,59.46L534.35,61.4L535.2,64.34L536.05,56.84L537.75,42.36L538.6,44.25L539.45,44.02L540.3,49.12L541.99,45.93L542.84,41.61L543.69,39.37L544.54,33.44L546.24,36.15L547.09,40.39L547.94,44.43L548.79,36.98L549.64,42.42L550.49,37.29L551.34,41.11L552.19,34.67L553.89,26.68L554.74,29.22L555.59,23.41L556.44,32.28L558.98,26.61L559.83,31.55L561.53,39.52L562.38,34.08L563.23,34.11L564.08,42.21L565.78,50.67L566.63,47.29L567.48,52.88L568.33,48.72L569.18,47.91L570.03,53.45L570.88,45.97L571.73,47.06L572.58,48.11L573.43,50.4L574.28,41.78L575.13,45.64L575.98,41.66L576.82,43.03L578.52,44.76L579.37,43.82L581.07,43.91L581.92,37.38L583.62,25.83L584.47,27.15L586.17,18.88L587.02,14.5L587.87,16.77L588.72,23.32L590.42,31.81L591.27,28.55L592.12,25.12L592.97,27.06L593.82,31.47L594.66,29.9L595.51,33.93L596.36,33.68L597.21,33.02L598.06,35.17L598.91,33.26L599.76,35.96L601.46,42.25L602.31,46.04L604.01,48.07L604.86,31.96L605.71,33.89L606.56,40.4L607.41,40.51L608.26,36.95L609.11,37.08L609.96,38.5L610.81,29.73L611.66,32.63L613.35,25.93L614.2,27.67L615.9,24.88L616.75,32.41L617.6,33.21L618.45,29L619.3,27.27L620.15,32.63L621,25.46" style="vector-effect: non-scaling-stroke; fill: none; stroke: rgb(31, 119, 180); stroke-opacity: 1; stroke-width: 2px; opacity: 1;"/></g><g class="points"/><g class="text"/></g><g class="trace scatter trace5dba6489-18bf-4ed7-ab9f-68e7f35247b4" style="stroke-miterlimit: 2; opacity: 1;"><g class="fills"/><g class="errorbars"/><g class="lines"><path class="js-line" d="M0,224.21L1.7,228.24L2.55,223.28L4.25,224.82L5.1,222.1L5.95,220.71L6.8,224.75L7.65,225.58L8.5,224.8L9.34,224.96L10.19,226.36L11.04,226.67L11.89,224.09L12.74,224.17L13.59,225.01L16.14,224.38L16.99,221.97L18.69,215.52L19.54,219.49L20.39,217.97L21.24,212.76L22.09,210.64L22.94,214.47L23.79,214.29L24.64,215.23L25.49,221.69L26.34,222.35L27.18,222.97L28.03,222.13L28.88,220.65L29.73,215.16L30.58,212.77L31.43,215.92L32.28,216.15L33.13,219.52L33.98,217.82L34.83,212.69L36.53,209.52L37.38,211.66L38.23,209.74L39.08,210.59L39.93,212.77L40.78,210.21L41.63,205.76L42.48,206.04L43.33,203.78L44.18,204.38L45.87,198.53L46.72,204.33L48.42,201.36L49.27,203.42L50.12,195.15L50.97,194.92L52.67,200.44L53.52,199.44L55.22,207.36L56.07,206.11L59.47,218.07L60.32,219.81L61.17,222.06L62.02,220.24L62.86,222.9L63.71,219.84L65.41,216.68L66.26,216.77L67.96,211.91L68.81,213.18L69.66,214.13L70.51,217.14L72.21,219.77L73.06,220.84L73.91,219.65L74.76,221.23L76.46,214.62L77.31,215.21L78.16,213.31L79.01,217.67L79.85,216.19L80.7,216.41L81.55,216.53L82.4,211L84.1,207.79L84.95,205.22L85.8,202.19L86.65,203.13L87.5,207.31L88.35,207.15L90.05,213.35L90.9,213.61L91.75,215L92.6,218.26L93.45,214.55L94.3,215.24L95.15,217.42L96,215.17L96.85,212.19L97.69,218.07L98.54,215.46L99.39,216.69L100.24,215.86L101.09,213.02L101.94,218.54L102.79,214.25L103.64,219.2L104.49,216.34L106.19,214.24L107.04,211.42L109.59,214.46L110.44,214.67L112.14,215.06L112.99,214.09L115.53,216.98L116.38,221.63L117.23,224.93L118.08,221.77L118.93,224.3L119.78,219.5L121.48,217.35L122.33,217.31L124.03,215.59L124.88,210.16L125.73,209.25L126.58,212.33L128.28,207.14L129.13,206.8L129.98,211.66L130.83,211.23L131.68,212.4L132.53,215.67L134.22,212.94L135.07,209.98L135.92,208.91L136.77,205.8L137.62,206.97L138.47,209.9L139.32,208.41L140.17,211.68L141.02,211.37L141.87,213.92L142.72,213.26L143.57,216.69L144.42,217.76L145.27,221.01L148.67,234.41L149.52,236.37L150.37,235.76L151.21,238.16L153.76,237.7L154.61,235.05L155.46,236.2L156.31,243.09L158.01,251.18L158.86,246.1L161.41,245.95L162.26,239.09L163.96,240.26L164.81,242.61L166.51,239.07L167.36,235.73L168.21,236.41L169.05,233.35L170.75,228.34L171.6,232.3L172.45,234.06L173.3,231.7L174.15,235.65L175,234.64L175.85,236.49L176.7,233.83L178.4,239.47L179.25,236L180.95,228.91L181.8,232.2L182.65,229.68L183.5,230.04L184.35,227.59L185.2,227.94L186.89,222.26L187.74,225.08L188.59,225.14L189.44,222.82L191.14,216.02L191.99,218.23L192.84,214.9L193.69,215.94L194.54,221.88L195.39,217.74L197.09,211.23L197.94,211.96L198.79,213.38L199.64,211.83L200.49,212.55L201.34,214.37L203.04,216.1L203.89,217.56L204.73,214.6L205.58,216.6L206.43,220.3L207.28,220.54L208.98,215.85L209.83,211.29L210.68,211.82L211.53,207.42L214.93,214.57L215.78,212.44L216.63,212.79L217.48,215.07L220.03,209.62L220.88,217.23L221.73,216.82L222.57,215.43L224.27,211.69L225.12,214.9L225.97,212.87L226.82,216.93L227.67,219.92L228.52,216.65L229.37,217.66L230.22,215.53L231.92,208.35L232.77,203.73L233.62,207.68L234.47,205.09L235.32,205.15L236.17,208L237.02,207.71L237.87,210.38L238.72,211.45L239.56,210.74L242.11,205.51L242.96,202.71L244.66,205.98L245.51,210.35L246.36,211.09L247.21,210.73L248.06,210.47L248.91,211.09L250.61,215.17L251.46,213.52L252.31,215.44L253.16,212.99L254.01,213.38L254.86,210.71L255.71,210.86L256.56,208.33L258.25,203.11L259.1,208.65L259.95,208.33L260.8,209.59L262.5,204.29L263.35,202.91L264.2,202.44L265.05,205.32L265.9,205.43L266.75,203.49L268.45,210.92L269.3,208.35L271,209.4L271.85,211.07L275.24,219.89L276.09,218.99L276.94,214.07L277.79,213.99L280.34,223.11L281.19,220.42L283.74,227.14L284.59,233.61L286.29,223.02L287.14,224.7L287.99,222.36L288.84,227.02L289.69,228.64L290.54,224L291.39,223.85L292.24,219.69L293.08,222.52L293.93,222.63L294.78,221.79L295.63,223.97L297.33,223.65L298.18,220.31L299.03,224.31L299.88,223.03L301.58,222.72L302.43,224.17L303.28,225.8L304.13,225.32L304.98,223.5L305.83,232.79L307.53,229.92L308.38,232.58L310.08,230.07L310.92,230.79L311.77,234.97L312.62,233.53L313.47,231.71L314.32,231.91L315.17,232.12L316.02,229.92L317.72,232.03L318.57,232.15L320.27,236.43L321.12,236.49L321.97,234.07L322.82,228.58L323.67,230.96L324.52,230.98L326.22,234.94L327.07,230.95L327.92,233.9L328.76,232.09L330.46,235.01L331.31,240.52L332.16,238.56L333.01,241.8L334.71,243.31L335.56,241.63L336.41,240.2L337.26,234.99L338.11,234.62L338.96,237.67L340.66,233.1L341.51,232.9L342.36,230.71L343.21,231.44L344.06,231.98L344.91,229.42L347.45,219.34L348.3,220.45L350.85,219.55L351.7,217.99L352.55,218.87L353.4,221.07L354.25,225.55L355.1,223.96L355.95,224.31L356.8,225.63L357.65,226.46L358.5,224.69L361.9,237.04L362.75,237.59L363.6,233.05L364.44,232.88L366.14,240.31L366.99,242.62L369.54,249.77L370.39,250.11L372.09,244.35L372.94,242.91L373.79,244.73L374.64,243.39L375.49,245.34L376.34,242.89L377.19,240.56L378.04,235.49L378.89,229.55L379.74,230.34L380.59,230.65L381.44,228.98L382.28,230.76L383.13,234.55L385.68,240.04L386.53,239.16L387.38,243.9L388.23,243.8L389.08,246.09L389.93,245.04L390.78,247.04L391.63,246.79L392.48,247.12L393.33,248.72L395.03,252.46L395.88,249.73L397.58,258.14L398.43,262.13L399.27,258.98L400.12,259.92L400.97,258.08L401.82,260.3L402.67,260.06L403.52,258.93L405.22,257.75L406.07,258.39L406.92,257.77L407.77,254.44L408.62,253.3L409.47,250.64L410.32,244.1L411.17,246.41L412.02,247.63L412.87,244.54L414.57,243.07L415.42,246.92L418.81,237.44L419.66,238.28L421.36,245.7L422.21,238.48L423.06,239.16L423.91,237.92L425.61,235.46L426.46,235.13L427.31,239.03L428.16,239.25L429.01,238.04L429.86,238.57L431.56,232.27L432.41,230.66L433.26,231.43L434.11,233.57L434.95,235.14L435.8,238.96L436.65,237.1L437.5,238.91L438.35,238.58L439.2,241.45L440.05,246.72L440.9,244.51L443.45,238.6L444.3,239.64L446,237.99L446.85,240.57L447.7,238.83L448.55,239.84L449.4,238.27L450.25,239.91L451.1,239.16L451.95,235.21L452.79,234.75L453.64,231.62L455.34,238.01L456.19,235.63L460.44,219.7L461.29,222.42L462.14,228.37L462.99,228.86L463.84,230.1L464.69,228.81L467.24,236.27L468.09,231.7L468.94,234.31L469.79,231.17L472.33,221.99L473.18,221.8L474.88,224L475.73,224.3L476.58,224.22L477.43,226.8L478.28,225.76L479.13,227.44L480.83,231.29L481.68,230.59L485.08,223.54L485.93,224.38L486.78,225.07L487.63,222.98L489.32,229.57L490.17,227.89L492.72,231.35L493.57,229.76L495.27,225.88L496.12,229.18L496.97,223.66L497.82,223.68L502.07,232.96L502.92,230.09L503.77,228.32L504.62,231.03L505.47,232.39L506.31,232.06L507.16,228.07L508.01,233.26L508.86,230.32L509.71,230.7L511.41,233.84L512.26,231.71L516.51,236.92L517.36,239.37L519.06,238.49L519.91,239.57L521.61,251.06L522.46,250.29L523.31,252.18L524.15,250.24L525,250.53L525.85,247.82L527.55,252.41L528.4,251.9L529.25,250.21L530.1,246.31L531.8,243.09L532.65,240.55L533.5,233.95L534.35,237.26L536.05,240.73L536.9,236.72L538.6,224.14L539.45,221.02L540.3,218.53L541.15,220.76L543.69,225.69L544.54,223.49L546.24,226.81L547.09,226.73L547.94,227.47L548.79,230.41L550.49,235.18L551.34,234.97L553.89,236.89L554.74,234.93L555.59,232.83L556.44,233.34L558.98,241.87L559.83,242.92L560.68,242.38L561.53,244.17L562.38,246.48L563.23,241.06L564.08,240.96L564.93,242.35L565.78,241.91L566.63,243.97L570.03,232.95L570.88,234.71L571.73,231.69L572.58,231.91L573.43,234.8L574.28,232.93L575.13,235.99L575.98,234.87L576.82,236L577.67,233.66L578.52,233.03L579.37,230.41L580.22,236.81L581.07,236.15L583.62,243.78L584.47,242.61L585.32,241.54L586.17,244L587.02,244.46L587.87,242.32L589.57,249.27L590.42,248.78L592.97,256.44L593.82,258.51L594.66,259.92L595.51,257.82L596.36,257.49L597.21,263.42L598.06,263.5L598.91,261.82L600.61,264.66L601.46,264.4L602.31,265.79L603.16,261.42L604.01,261.5L604.86,259.16L606.56,262.14L607.41,257.97L608.26,254.47L609.11,255.92L609.96,256.88L610.81,260.34L612.5,263.61L613.35,263.68L614.2,262.47L615.05,259.49L616.75,257.81L617.6,258.93L618.45,263.6L619.3,262.35L620.15,264.76L621,261.92" style="vector-effect: non-scaling-stroke; fill: none; stroke: rgb(255, 127, 14); stroke-opacity: 1; stroke-width: 2px; opacity: 1;"/></g><g class="points"/><g class="text"/></g><g class="trace scatter trace66212b39-1b64-4069-a2e0-9330042daa86" style="stroke-miterlimit: 2; opacity: 1;"><g class="fills"/><g class="errorbars"/><g class="lines"><path class="js-line" d="M0,215.81L0.85,217.04L1.7,215.81L2.55,221.05L3.4,218.84L4.25,221.86L5.1,218.88L7.65,212.7L8.5,211.72L9.34,212.89L10.19,208.33L11.89,203.69L12.74,199.92L13.59,200.89L14.44,198.06L16.14,203.38L16.99,201.29L17.84,201.16L18.69,203.13L20.39,197.03L21.24,198.77L22.94,192.28L23.79,191.06L24.64,191.13L25.49,185.95L26.34,181.69L27.18,186.03L28.03,181.08L28.88,183.59L29.73,176.88L30.58,177.76L32.28,171.48L33.13,175.61L33.98,177.15L34.83,174.99L36.53,171.71L37.38,166.79L38.23,162.69L39.08,162.92L39.93,163.89L40.78,167.9L41.63,167.05L42.48,163.05L43.33,166.82L44.18,164.51L45.02,166.85L45.87,165.91L47.57,161.3L48.42,167.08L49.27,165.54L50.12,157.87L51.82,152.88L52.67,153.17L53.52,157.1L54.37,152.9L55.22,147.56L56.07,148.04L56.92,137.71L57.77,139.09L59.47,131.13L60.32,136.68L61.17,133.25L62.02,135.16L62.86,136.18L63.71,134.27L65.41,139.72L66.26,136.26L67.11,137.17L67.96,135.79L69.66,142.46L70.51,147.68L71.36,151.24L72.21,149.92L73.06,148.69L73.91,151.93L75.61,144.43L76.46,142.24L77.31,142.05L78.16,148.26L79.85,159.09L80.7,159.71L82.4,157.23L83.25,157.12L84.1,163.93L84.95,158.11L87.5,152.23L88.35,155.52L89.2,149.22L90.05,149.03L90.9,149.8L91.75,145.44L93.45,145.32L94.3,142.4L95.15,139.02L96,146.12L96.85,147.51L97.69,151.08L100.24,169.14L101.09,168.92L101.94,169.23L102.79,172.39L104.49,177.88L105.34,174.28L106.19,175.33L107.04,177.89L110.44,193.28L111.29,191.42L112.99,186.46L113.84,187.35L114.69,192.35L115.53,187.14L116.38,187.01L117.23,191.34L118.93,195.92L119.78,198.39L121.48,195.23L122.33,199.67L124.03,207.03L124.88,203.35L126.58,201.53L127.43,204.24L128.28,204.38L129.13,202.91L130.83,201.43L131.68,197.49L132.53,195.91L133.37,197.3L134.22,200.95L135.07,198.88L135.92,202.34L136.77,200.81L137.62,199.6L138.47,202.7L139.32,199.94L140.17,200.98L141.02,205.68L141.87,205.62L142.72,203.27L143.57,207.81L144.42,209.82L145.27,214.87L146.97,218.98L147.82,216.62L148.67,215.95L149.52,217.63L150.37,219.29L151.21,216.22L152.06,216.19L152.91,212.28L156.31,199.07L157.16,199.04L158.01,202.22L158.86,201.84L161.41,200.28L162.26,201.12L163.96,202.69L164.81,202.42L166.51,200.33L167.36,203.34L168.21,201.68L169.05,205.96L171.6,212.29L172.45,207.24L173.3,209.21L174.15,208.86L175,206.03L175.85,207.69L177.55,213.89L178.4,213.96L180.1,207.09L180.95,200.46L181.8,198.24L182.65,200L184.35,196.27L185.2,196.11L186.05,197.83L186.89,194.03L188.59,194.19L189.44,190.27L190.29,189.24L191.14,193.01L192.84,181.41L193.69,183.44L194.54,180.81L195.39,180.75L196.24,177.62L197.09,179.08L197.94,180.67L198.79,178.33L199.64,179.39L200.49,178.5L201.34,176.49L202.19,178.69L203.89,181.05L204.73,183.86L205.58,181.98L206.43,185.58L208.98,190.46L209.83,186.72L210.68,190.16L211.53,189.25L212.38,189.61L213.23,195.41L214.08,194.23L214.93,188.23L216.63,187.14L217.48,191.42L219.18,184.95L220.03,181.14L220.88,181.09L221.73,176.66L222.57,172.8L223.42,178.71L225.12,178.33L225.97,179.53L226.82,182.42L227.67,180.38L228.52,179.98L229.37,177.54L231.07,173.09L231.92,167.48L232.77,166.82L233.62,167.75L234.47,171.22L235.32,167.92L236.17,170.97L237.02,168.04L238.72,165.85L239.56,166.87L241.26,162.9L242.11,165.72L243.81,172.74L244.66,171.4L246.36,167.47L247.21,164.61L248.91,172.34L249.76,171.83L251.46,180.97L252.31,179.22L253.16,184.16L254.01,183.2L254.86,186.63L255.71,193.64L256.56,198.61L257.4,196.38L258.25,194.53L259.1,190.03L260.8,199.24L261.65,199.1L262.5,195.09L263.35,196.01L264.2,193.61L265.05,193.54L265.9,188L266.75,191.53L267.6,191.38L268.45,193.72L270.15,191.94L271,194.53L272.7,187.84L273.55,186.16L274.4,186.27L275.24,192.09L276.09,192.14L276.94,189.79L277.79,185.49L278.64,191.97L279.49,195.76L280.34,193.78L281.19,190L282.04,199.62L282.89,196.9L283.74,199.34L284.59,199.52L285.44,193.81L286.29,193.78L287.14,195.63L289.69,199.49L290.54,195.88L293.08,204L293.93,203.2L296.48,219.12L297.33,214.98L298.18,214.84L299.03,216.73L299.88,221.5L300.73,219.35L301.58,218.28L302.43,220.6L303.28,217.36L304.13,220.04L304.98,217.82L305.83,219.11L306.68,218.76L307.53,214.94L310.08,222.29L310.92,220.42L311.77,216.06L312.62,216.94L313.47,218.43L314.32,217.2L316.02,225.42L316.87,224.21L318.57,220.4L319.42,219.61L321.12,220.8L321.97,218.63L322.82,217.48L323.67,218.64L325.37,225.29L326.22,224.58L330.46,219.86L331.31,224.58L332.16,220.34L333.01,220.98L334.71,213.2L335.56,216.43L337.26,213.86L338.11,211.56L338.96,211.7L339.81,209.3L340.66,209.83L341.51,213.38L344.06,209.03L344.91,216.11L346.6,212.42L347.45,218.05L348.3,221.63L349.15,220.83L350,222.97L350.85,221.99L351.7,221.39L352.55,225.15L354.25,218.02L355.1,217.36L356.8,223.48L357.65,224.79L360.2,221.73L361.05,218.54L361.9,219.35L362.75,217.9L363.6,219.23L364.44,217.95L365.29,213.69L366.14,213.49L367.84,217.97L368.69,217.49L370.39,223.82L371.24,224.49L372.94,226.02L373.79,221.88L374.64,219.9L375.49,221.06L376.34,221.38L377.19,220.42L378.04,222.13L378.89,227.36L380.59,230.23L381.44,228.62L383.98,226.09L384.83,225.07L385.68,225.86L386.53,222.25L387.38,221.67L388.23,223.82L389.08,226.49L389.93,221.53L390.78,224.48L391.63,224.72L392.48,221.04L393.33,223.99L394.18,222.13L395.03,222.3L395.88,224.13L396.73,221.86L397.58,222.02L398.43,218.33L399.27,216.02L400.12,216.36L400.97,219.21L401.82,227.9L402.67,228.52L403.52,230.55L405.22,230.26L406.07,231.57L407.77,237.23L408.62,238.08L409.47,238.49L410.32,235.57L412.02,233.72L412.87,236.42L414.57,237.09L415.42,231.88L416.27,231.84L417.11,234.05L417.96,233.49L418.81,225.89L420.51,228.06L421.36,231.8L423.91,219.86L424.76,219.83L427.31,210.02L428.16,209.67L429.86,207.22L430.71,207.67L431.56,209.67L432.41,205.85L434.11,199.99L434.95,203.52L436.65,197.44L437.5,200.5L438.35,199.43L439.2,205.96L440.05,204.1L440.9,205.78L441.75,208.47L442.6,206.46L443.45,212.21L444.3,210.76L446,205.32L446.85,206.12L448.55,197.75L449.4,198.37L450.25,192.6L451.1,195.73L452.79,189.91L453.64,191.55L454.49,190.65L455.34,193.88L457.04,190.6L457.89,191.24L458.74,192.45L459.59,190.32L460.44,188.15L461.29,190.49L462.99,193.02L463.84,196.74L467.24,185.79L468.09,181.26L468.94,181.97L469.79,181.4L471.48,183.63L472.33,182.08L474.03,180.28L474.88,179.68L477.43,172.6L478.28,176.18L479.13,167.49L479.98,171.38L480.83,168.34L481.68,161.76L484.23,154.1L485.08,158.66L487.63,165.81L488.47,165.65L489.32,161.26L490.17,165.61L492.72,173.93L493.57,168.41L494.42,166.69L495.27,171.6L496.12,168.72L496.97,170.99L497.82,165.91L498.67,169.36L499.52,165.87L500.37,166.11L501.22,171.13L502.07,171.21L503.77,178.91L504.62,183.41L505.47,187.22L506.31,185.65L507.16,183.51L508.01,178.4L508.86,180.78L509.71,177.23L510.56,177.94L511.41,173.45L512.26,169.93L513.11,172.33L513.96,172.67L514.81,168.17L515.66,171.03L516.51,169.51L517.36,169.47L518.21,161.24L519.06,163.92L519.91,169.36L521.61,172.85L522.46,175.01L523.31,174.09L524.15,183.78L525,184.55L525.85,189.43L527.55,187.33L528.4,184.28L529.25,184.92L530.1,188.92L530.95,191.41L531.8,182.98L532.65,180.96L533.5,185.41L534.35,180.57L535.2,182.6L536.9,185.79L537.75,185.74L538.6,185.23L539.45,179.62L541.99,191.52L542.84,191.05L543.69,185.66L544.54,185.6L545.39,184.61L546.24,179.89L547.09,176.25L547.94,176.89L548.79,176.54L549.64,172.85L551.34,162.69L552.19,167.66L553.04,176.57L553.89,174.44L554.74,172.95L555.59,175.25L556.44,176.23L557.29,172.08L558.14,173.05L558.98,177.46L559.83,176.3L560.68,179.19L561.53,175.89L562.38,177.58L563.23,174.22L564.08,175.25L564.93,175.08L565.78,172.71L567.48,177.9L568.33,173.6L569.18,173.52L570.03,171.03L573.43,182.65L574.28,183.38L575.13,184.12L575.98,177.63L576.82,173.48L577.67,174.45L578.52,174.41L579.37,175.54L581.07,170.64L581.92,169.7L584.47,179.56L585.32,175.9L586.17,177.31L587.02,176.33L587.87,178.47L588.72,184.18L591.27,194.93L592.12,193.3L595.51,202.41L596.36,201.09L597.21,204.75L598.06,200.94L598.91,202.14L599.76,201.84L601.46,199.66L602.31,196.89L603.16,196.44L604.01,197.13L604.86,199.67L605.71,199.61L606.56,198.39L607.41,200.14L608.26,201.75L609.11,200.57L609.96,200.43L610.81,196.12L611.66,195.74L612.5,191.98L613.35,195.42L614.2,192.24L615.9,189.54L616.75,185.54L617.6,185.94L618.45,185.05L620.15,185.43L621,183.27" style="vector-effect: non-scaling-stroke; fill: none; stroke: rgb(44, 160, 44); stroke-opacity: 1; stroke-width: 2px; opacity: 1;"/></g><g class="points"/><g class="text"/></g><g class="trace scatter tracee514d1b5-8194-4bb7-9106-6f845ea7b818" style="stroke-miterlimit: 2; opacity: 1;"><g class="fills"/><g class="errorbars"/><g class="lines"><path class="js-line" d="M0,215.82L0.85,213.18L1.7,215.27L3.4,221.95L4.25,221.38L5.1,219.15L5.95,219.48L6.8,218.23L7.65,221.66L8.5,226.14L9.34,223.05L10.19,224.17L11.04,220.1L11.89,216.99L12.74,219.14L13.59,218.33L14.44,216.45L16.99,222.47L17.84,220.76L18.69,220.11L19.54,216.13L20.39,216.37L21.24,217.57L22.09,219.61L22.94,216.12L23.79,214L24.64,218.72L25.49,217.53L26.34,221.51L27.18,219.85L28.03,223.38L29.73,231.35L30.58,228.24L31.43,228.94L32.28,227.96L33.13,228.22L33.98,225.55L34.83,227.63L35.68,225.64L37.38,225.12L38.23,222.89L39.08,221.21L39.93,223.55L41.63,227.68L42.48,227.48L45.02,230.52L45.87,224.27L47.57,220.94L48.42,221.17L50.12,226.75L50.97,225.43L54.37,220.12L55.22,222.23L56.07,221.28L56.92,222.04L58.62,226.26L59.47,225.12L60.32,228.52L61.17,223.82L62.02,228.79L62.86,227.58L64.56,222.75L65.41,224.13L66.26,222.63L67.11,225.73L67.96,221.72L68.81,221.75L69.66,222.23L70.51,223.97L72.21,227.26L73.06,222.45L74.76,227.4L75.61,234L76.46,229.91L77.31,232.39L79.01,234.46L79.85,235.55L80.7,229.18L81.55,229.49L82.4,225.76L83.25,229.84L84.1,230.86L84.95,229.41L85.8,226.34L86.65,227L88.35,229.51L89.2,225.72L90.05,232.12L90.9,230.06L91.75,226.51L92.6,227.68L93.45,227.57L94.3,225.54L95.15,223.31L96,224L96.85,221.93L97.69,215.75L99.39,211.31L100.24,214.78L101.09,217.93L101.94,217.41L102.79,214.99L103.64,216.18L104.49,216.54L105.34,218.64L106.19,214.71L107.04,215.54L107.89,214.33L108.74,216.6L109.59,217.24L110.44,219.67L112.14,221.73L112.99,221.08L114.69,214.67L115.53,215.11L117.23,215.15L118.08,213.43L121.48,217.49L122.33,213.32L123.18,212.28L124.03,213.62L124.88,212.32L125.73,215.24L127.43,213.99L128.28,216.9L129.13,213.77L129.98,215.84L131.68,217.62L132.53,214.87L133.37,214.08L134.22,214.47L135.07,217.67L135.92,214.5L136.77,210.35L137.62,212.51L138.47,211.94L139.32,217.85L140.17,215.73L141.02,216.7L142.72,219.9L143.57,217.82L144.42,210.01L145.27,211.05L146.12,213.25L146.97,210.56L149.52,213.02L150.37,213.02L151.21,214.06L152.06,211.02L152.91,211.04L153.76,209.75L155.46,210.48L156.31,209.8L157.16,211.84L158.01,204.92L159.71,204.15L160.56,205.02L161.41,208.95L162.26,203.37L163.96,209.8L164.81,205.39L165.66,207.93L166.51,206.09L167.36,206.05L168.21,204.75L169.9,199.91L170.75,202.02L172.45,196.45L173.3,199.5L175.85,212.39L176.7,211.38L179.25,215.88L180.1,214.79L180.95,220.75L181.8,217.21L182.65,223.95L183.5,220.13L186.05,223L186.89,223.08L187.74,221.63L188.59,226.24L189.44,224.48L190.29,226.16L191.99,221.54L192.84,218.58L193.69,218.13L194.54,219.07L196.24,226.55L197.09,223.39L197.94,223.8L198.79,226.39L199.64,228.61L200.49,221.6L201.34,220.21L202.19,223.15L203.04,223.12L203.89,218.02L205.58,216.31L206.43,216.3L207.28,215.56L208.13,220.56L208.98,217.7L209.83,222.54L210.68,223.9L211.53,223.2L212.38,222.66L213.23,223.42L214.08,220.48L214.93,221.15L215.78,217.43L216.63,222.92L217.48,222.55L218.33,220.02L219.18,218.9L220.03,219.39L221.73,216.38L222.57,219.32L223.42,220.9L224.27,216.71L225.12,217.12L225.97,220.29L226.82,214.22L227.67,216.76L228.52,217.64L229.37,221.79L230.22,222.71L231.07,221.01L232.77,226L233.62,221.35L234.47,224.13L235.32,223.27L236.17,225.22L237.02,224.91L237.87,222.95L238.72,223.36L239.56,219.94L240.41,222.06L241.26,219.5L242.11,219.87L242.96,218.62L243.81,215.3L244.66,213.56L245.51,215.62L249.76,209.11L250.61,208.63L251.46,209.17L252.31,205.49L253.16,205.46L254.01,210.9L255.71,211.34L256.56,211.69L257.4,206.5L258.25,208.12L259.1,209.28L259.95,208.54L260.8,213.57L261.65,213.19L264.2,204.72L265.05,203.89L266.75,191.7L267.6,193.73L268.45,191.01L269.3,191.45L270.15,193.68L271,198.97L272.7,190.67L273.55,193.72L275.24,197.11L276.09,195.98L277.79,199.17L278.64,198.33L279.49,193.6L280.34,197.82L281.19,200.69L282.04,198.23L282.89,194.28L283.74,194.74L284.59,193.17L285.44,193.68L286.29,191.52L287.14,195.29L287.99,200.93L288.84,200.24L289.69,199.12L290.54,205.25L291.39,207.08L292.24,211.99L293.08,213.91L293.93,213.62L295.63,212.54L296.48,214.88L298.18,212.48L299.03,214.76L299.88,212.15L300.73,214.22L301.58,219.73L302.43,218.2L303.28,215.07L304.13,216.52L305.83,216.78L306.68,214.97L308.38,210.47L309.23,209.56L310.08,207.15L310.92,200.9L312.62,207.72L313.47,208.94L315.17,204.68L316.02,204.68L316.87,207.9L317.72,204.47L318.57,202.04L319.42,202.31L321.12,204.75L321.97,206.76L323.67,201.9L324.52,205.63L325.37,211.52L326.22,211.49L327.92,214.94L328.76,217.99L329.61,221.69L330.46,218.22L331.31,213.5L332.16,214.42L333.01,215.67L333.86,214.1L334.71,210.3L335.56,210.45L336.41,206.76L337.26,208.73L338.11,207.34L338.96,210.59L341.51,197.23L342.36,197.53L343.21,195.89L344.06,203.85L344.91,204.04L345.76,202.3L347.45,191.65L348.3,190.54L349.15,185.5L350,186.04L350.85,185.81L351.7,187.96L353.4,187.95L354.25,196.11L355.95,202.23L356.8,203.79L357.65,197.8L358.5,202.77L359.35,203.05L360.2,208.44L361.9,199.04L362.75,196.7L363.6,200.5L364.44,196.99L365.29,198.19L366.14,195L366.99,196L367.84,194.77L369.54,198.93L370.39,198.75L371.24,199.42L372.09,195.79L373.79,199.6L374.64,206.97L376.34,215.2L377.19,216.18L378.04,219.96L378.89,214.2L379.74,213.21L380.59,215.4L381.44,215.91L382.28,213.97L383.13,214.08L383.98,212L384.83,213.23L385.68,212.28L386.53,211.39L387.38,212.31L390.78,208.24L391.63,206.53L392.48,203.89L393.33,208.76L395.03,203.71L395.88,203.18L396.73,201.6L397.58,202.73L398.43,197.86L399.27,197.83L400.12,196.11L400.97,196.85L401.82,195.84L402.67,197.89L403.52,196.95L404.37,199.33L406.07,197.41L406.92,194.12L408.62,207.18L409.47,204.74L410.32,204.15L411.17,201.56L412.02,201.11L412.87,202.26L413.72,203.85L414.57,200.25L416.27,195.53L417.11,196.2L418.81,187.43L419.66,187.68L420.51,191.11L421.36,185.05L422.21,184.57L423.06,182.89L424.76,173.99L425.61,176.18L426.46,171.67L427.31,175.11L428.16,175.46L429.01,176.78L430.71,165.73L431.56,161.08L432.41,157.19L433.26,163.69L434.95,170.02L435.8,166.56L436.65,166.14L437.5,168.37L438.35,172.73L439.2,171.34L440.05,168.3L440.9,171.33L441.75,171.81L442.6,171.3L443.45,171.55L444.3,170.64L445.15,171.11L446,179.76L447.7,177.88L448.55,178.8L449.4,173.49L450.25,176.74L452.79,173.26L453.64,173.46L454.49,170.26L455.34,170.32L457.04,164.91L457.89,166.64L458.74,166.3L459.59,167.43L460.44,162.05L461.29,162.22L462.14,163.31L462.99,162.12L463.84,165.63L464.69,174.85L466.39,180.65L467.24,177.27L468.09,180.5L468.94,180.09L470.63,188.05L471.48,185.56L472.33,188.6L473.18,187.19L474.88,183.42L475.73,188.16L477.43,195.52L478.28,194.8L479.13,195.3L479.98,191.29L480.83,192.62L481.68,190.29L483.38,193.32L484.23,188.22L485.08,192.72L485.93,191.73L488.47,190.35L489.32,190.37L490.17,186.26L491.02,186.2L492.72,166.8L493.57,165L494.42,165.24L495.27,163.09L498.67,167.6L499.52,161.18L500.37,151.26L501.22,154.19L502.07,154.54L502.92,161.98L503.77,163.01L504.62,167.04L505.47,168.07L506.31,166.69L509.71,169.72L510.56,164.45L511.41,162.49L512.26,167.01L513.96,164.64L514.81,162L515.66,157.86L516.51,168.29L517.36,168.93L518.21,171.2L519.06,167.28L519.91,168.35L521.61,164.62L522.46,167.07L524.15,171.55L525,169.88L525.85,162.67L526.7,165.07L528.4,162.15L529.25,163.04L530.1,160.64L530.95,162.71L531.8,164.68L532.65,158.62L533.5,156.54L534.35,157.43L535.2,156.08L536.05,162.87L538.6,175.57L539.45,174.36L540.3,174.88L541.15,172.49L541.99,173.09L542.84,170.8L543.69,169.5L544.54,175.67L546.24,181.46L547.09,182.15L547.94,184.17L548.79,181.53L549.64,179.72L550.49,182.11L551.34,183.59L552.19,182.53L553.04,183.01L553.89,184.88L554.74,190.38L555.59,190.44L556.44,191.2L557.29,193.05L559.83,181.79L560.68,186.68L561.53,188.77L562.38,188.64L564.08,196.34L564.93,194.4L565.78,194.65L566.63,195.71L567.48,195.85L568.33,198.76L569.18,201.95L570.03,199.31L570.88,199.59L571.73,205.38L572.58,207.86L573.43,205.76L574.28,204.98L575.13,200.72L575.98,197.37L576.82,200.89L577.67,197.59L578.52,197.6L579.37,194.71L580.22,197.14L581.07,196.74L581.92,192.45L582.77,200.67L583.62,200.38L585.32,194.88L586.17,197.71L587.02,197.07L587.87,192.3L588.72,186.51L589.57,187.35L590.42,187.44L591.27,193.25L593.82,197.44L594.66,196.23L595.51,193.07L596.36,194.36L597.21,195.13L598.06,194.38L598.91,188.78L599.76,190.48L601.46,184.4L602.31,185.27L603.16,180.78L604.01,182.06L604.86,179.99L605.71,181.37L606.56,178L607.41,180.43L613.35,197.97L614.2,199.12L615.05,201.91L615.9,196.06L617.6,193.29L618.45,185.02L619.3,183.5L620.15,185.6L621,186.48" style="vector-effect: non-scaling-stroke; fill: none; stroke: rgb(220, 57, 18); stroke-opacity: 1; stroke-width: 2px; opacity: 1;"/></g><g class="points"/><g class="text"/></g><g class="trace scatter traceb3151e86-90eb-43dd-9654-9f6ed37e2794" style="stroke-miterlimit: 2; opacity: 1;"><g class="fills"/><g class="errorbars"/><g class="lines"><path class="js-line" d="M0,217.29L0.85,217L1.7,218.48L2.55,219.53L3.4,222.32L4.25,222.19L5.1,224.41L5.95,226.03L6.8,221.88L10.19,215.92L11.04,218.69L11.89,219.65L12.74,227.42L13.59,229.24L14.44,226.73L16.14,217.11L16.99,220.23L19.54,209.16L20.39,208.13L22.09,206.96L22.94,204.81L24.64,199.25L25.49,201.57L26.34,206.94L27.18,205.65L28.03,207.55L28.88,205.25L29.73,205.73L30.58,207.29L31.43,206.13L32.28,208.28L33.13,203.43L33.98,204.41L34.83,196.42L35.68,199.99L36.53,201.7L37.38,198.08L38.23,201.45L39.08,198.43L40.78,203.56L41.63,202.05L43.33,197.14L44.18,202.95L45.87,204.33L46.72,205.25L48.42,204.94L49.27,204.47L50.12,205.67L50.97,203.54L51.82,202.58L52.67,202.93L54.37,201.46L55.22,202.48L56.07,203.61L56.92,203.17L58.62,211.18L59.47,207.7L60.32,209.79L61.17,208.89L62.02,209L62.86,205.47L63.71,205.52L64.56,200.56L65.41,203.04L66.26,202.53L67.11,204.7L67.96,201.69L68.81,197.13L69.66,196.9L71.36,199.25L72.21,200.95L73.91,207.26L74.76,204.62L76.46,206.61L77.31,203.34L79.01,194.9L79.85,188.52L80.7,190.08L81.55,190.01L83.25,194.05L84.1,192.31L85.8,187.9L86.65,179.58L88.35,184.05L89.2,185.27L90.05,180.15L90.9,184.65L91.75,188.8L92.6,185.26L93.45,184.18L94.3,178.2L95.15,177.05L96,179.48L97.69,189.2L98.54,188.45L99.39,186.8L100.24,192.56L101.09,196.48L101.94,196.45L102.79,200.52L103.64,200.19L105.34,192.59L106.19,194.65L107.89,194.74L108.74,198.08L109.59,197.72L110.44,201.09L111.29,204.04L112.14,201.15L112.99,202.11L113.84,200.96L115.53,206.71L116.38,207.44L117.23,207.73L118.08,209.78L119.78,206.67L120.63,210.99L122.33,219.18L123.18,218.15L124.03,219.92L124.88,218.43L125.73,216.24L126.58,218.11L127.43,219.67L128.28,218.88L129.98,223.92L130.83,222.72L131.68,222.35L132.53,220.96L133.37,221.73L134.22,220.03L135.07,223.41L135.92,217.73L137.62,207.2L138.47,203.95L139.32,205.34L140.17,210.65L141.87,211.89L142.72,211.42L143.57,210.14L144.42,210.82L145.27,207.07L146.12,208.05L146.97,212.04L147.82,211.18L149.52,209.11L150.37,208.06L152.06,211.02L152.91,218L155.46,220.93L156.31,219.17L159.71,224.33L160.56,220.27L161.41,219.51L162.26,217.04L163.96,225.26L164.81,220.24L165.66,221.01L166.51,223.22L167.36,227.58L168.21,227.42L169.05,226.39L169.9,223.43L171.6,219.2L172.45,219.45L173.3,222.99L174.15,217.01L176.7,215.15L177.55,217.05L178.4,219.08L179.25,213.27L180.95,209.17L181.8,210.99L183.5,211.13L184.35,214.65L186.89,224.28L187.74,224.37L188.59,220.89L189.44,222.74L190.29,224.65L191.14,224.01L192.84,221.41L193.69,224.72L195.39,225.27L196.24,223.98L197.09,222.09L197.94,222.67L199.64,224.59L200.49,223.8L201.34,220.45L202.19,222.23L203.04,223.44L203.89,222.01L204.73,222.63L205.58,220.21L207.28,220.82L208.13,220.74L208.98,218.99L209.83,225.46L211.53,223.45L212.38,223.7L213.23,222L214.08,223.82L215.78,217.23L216.63,213.3L218.33,213.89L219.18,213.67L220.88,207.21L221.73,208.62L222.57,207.47L223.42,203.22L224.27,197.35L225.12,197.22L225.97,194.42L226.82,194.37L227.67,193.72L228.52,194.8L230.22,198.49L231.07,197.98L231.92,196.65L232.77,199.26L234.47,200.93L235.32,205.62L237.87,209.3L238.72,207.12L239.56,203.47L240.41,206.69L241.26,205.43L242.11,200.31L242.96,195.88L243.81,197.41L245.51,195.41L246.36,198L247.21,197.09L248.06,200.21L250.61,206.77L251.46,207.48L252.31,205.4L253.16,206.51L254.86,210.45L255.71,209.18L256.56,202.39L257.4,203.46L258.25,207.72L259.1,205.51L259.95,199.65L260.8,204.17L261.65,206.15L262.5,199.73L263.35,199.91L264.2,198.53L265.9,191.59L266.75,191.84L267.6,189.07L268.45,182.93L269.3,185.35L270.15,183.87L271,190.57L271.85,186.16L272.7,186.22L273.55,187.87L274.4,189.22L275.24,187.14L276.94,183.63L277.79,185.26L278.64,184.37L279.49,187.82L281.19,199.21L282.04,197.77L282.89,198.4L283.74,201.25L285.44,204.92L286.29,203.7L287.14,204.7L287.99,204.15L288.84,203L289.69,206.39L291.39,216.94L292.24,214.33L293.93,222.09L294.78,218.47L296.48,215.41L297.33,218.13L298.18,217.22L299.03,219.07L299.88,222.47L300.73,219.04L301.58,214.56L302.43,217.51L303.28,216.91L304.13,217.35L304.98,213.59L305.83,214.37L307.53,215.11L308.38,216.76L310.08,220.16L310.92,219.18L311.77,216.87L312.62,222.37L313.47,223.91L314.32,220.59L316.02,224.04L316.87,223.66L317.72,223.1L318.57,226.38L319.42,227.13L320.27,226.65L321.12,229.26L321.97,228.99L322.82,229.41L323.67,230.75L324.52,232.03L325.37,234.7L326.22,231.21L327.07,234.58L327.92,233.33L328.76,237.92L330.46,242.92L331.31,241.68L332.16,239.85L333.01,245.85L334.71,239.83L335.56,239.22L336.41,241.01L337.26,244.75L338.11,243.95L338.96,246.13L340.66,246.59L341.51,247.03L342.36,246.21L343.21,248.99L344.06,248.45L344.91,244.99L346.6,242.66L347.45,238.46L350,245.26L350.85,242.31L352.55,242.04L353.4,247.57L354.25,246.34L355.1,248.66L355.95,248.48L356.8,250.45L358.5,253.05L359.35,253.44L361.05,253.73L361.9,253.89L363.6,245.01L364.44,248.55L365.29,249.52L366.14,249L366.99,250.89L367.84,248.87L368.69,247.68L369.54,248.27L371.24,247.71L372.09,249.97L372.94,250.76L373.79,249.43L374.64,249.94L375.49,251.48L376.34,254.49L377.19,254.12L378.04,253.17L378.89,255.53L380.59,256.84L381.44,256.66L383.13,262.81L383.98,263.06L384.83,262.83L385.68,260.69L388.23,258.59L389.08,253.51L390.78,258.72L391.63,256.74L393.33,253.52L394.18,258.45L395.03,255.44L395.88,256.91L396.73,258.63L397.58,256.26L399.27,253.29L400.12,254.86L400.97,256.62L401.82,256.47L403.52,258.08L404.37,257.17L405.22,258.59L406.07,256.76L407.77,264.3L408.62,265.42L409.47,260.87L410.32,260.47L411.17,262.17L412.02,266.38L412.87,261.2L413.72,261.45L414.57,266.85L415.42,262.14L416.27,259.91L417.11,262.99L418.81,259.19L419.66,255.74L420.51,257.85L421.36,257.62L423.91,257.44L424.76,261.39L425.61,262.9L426.46,267L427.31,272.2L428.16,272.44L429.01,275.5L429.86,272.59L431.56,271.52L432.41,267.27L434.11,267.15L434.95,267.95L436.65,259.9L437.5,260.86L438.35,262.3L439.2,259.31L440.05,262.49L440.9,262.54L442.6,268.58L443.45,267.81L444.3,268.03L445.15,264.74L447.7,262.71L448.55,262.96L449.4,260.51L450.25,260.83L451.1,260.35L451.95,261.89L453.64,261.24L454.49,257.52L455.34,255.84L456.19,256.9L457.04,260.83L457.89,260L458.74,259.28L459.59,253.82L460.44,258.41L461.29,257.68L462.14,257.73L462.99,255.5L463.84,259.63L464.69,258.99L465.54,256.33L466.39,258.69L467.24,259.88L468.09,257.97L469.79,255.01L470.63,254.62L471.48,253.86L472.33,255.06L473.18,254.89L474.03,253.95L476.58,255.23L477.43,252.21L478.28,252.17L479.13,255.16L482.53,246.91L483.38,246.38L484.23,239.27L485.08,240.64L485.93,242.8L486.78,239.47L488.47,239.9L489.32,242.56L490.17,243.31L491.02,241.89L491.87,246.88L492.72,244.34L494.42,242.93L495.27,243.16L496.12,242.53L496.97,244.85L498.67,246.45L499.52,244.91L500.37,245.18L501.22,243.01L502.07,242.65L502.92,248.89L504.62,249.6L505.47,245.4L506.31,245.54L507.16,248.15L508.01,248.05L508.86,245.7L511.41,251.68L512.26,251.91L513.11,251.78L513.96,247.84L514.81,241.83L515.66,241.75L516.51,243.63L517.36,242.19L518.21,245.17L519.06,245.25L519.91,249L520.76,249.23L522.46,243.23L523.31,245.11L524.15,247.14L525,253.48L525.85,253.48L526.7,250.22L528.4,249.39L529.25,249.28L530.95,246.4L531.8,245.75L533.5,248.24L534.35,248.35L536.05,250.24L536.9,244.94L539.45,244.36L540.3,245.47L541.15,243.56L541.99,243.9L543.69,244.53L544.54,246.81L547.09,252.06L547.94,250.72L549.64,251.24L550.49,248.92L551.34,248.23L552.19,250.23L553.04,248.41L553.89,252.07L555.59,247.62L556.44,249.89L557.29,248.63L558.14,245.29L558.98,248.82L559.83,248.61L560.68,248.63L561.53,252.15L562.38,249.73L563.23,250.41L564.08,252.13L564.93,250.62L566.63,252.87L567.48,251.28L570.03,244.7L570.88,245.09L571.73,246.92L572.58,244.43L574.28,242.92L575.13,242.26L576.82,238.21L577.67,242.49L578.52,243.14L579.37,239.47L581.07,240.66L581.92,239.23L582.77,235.39L583.62,235.35L586.17,239.94L587.02,236.7L587.87,237.01L588.72,244.81L589.57,245.54L590.42,248.42L591.27,252.12L592.12,252L593.82,252.36L594.66,253.4L595.51,252.66L596.36,248.68L598.91,255.1L599.76,251.53L600.61,248.43L601.46,249.41L602.31,248.04L603.16,248.65L604.01,245.7L604.86,248.73L605.71,251.55L606.56,248.01L607.41,247.76L608.26,246.42L609.11,239.64L609.96,243.18L611.66,240.93L612.5,237.83L614.2,234.98L615.05,234.74L616.75,226.59L617.6,229.49L618.45,226.09L619.3,226.3L621,228.65" style="vector-effect: non-scaling-stroke; fill: none; stroke: rgb(148, 103, 189); stroke-opacity: 1; stroke-width: 2px; opacity: 1;"/></g><g class="points"/><g class="text"/></g></g></g><g class="overplot"/><path class="xlines-above crisp" d="M0,0" style="fill: none;"/><path class="ylines-above crisp" d="M0,0" style="fill: none;"/><g class="overlines-above"/><g class="xaxislayer-above"><g class="xtick"><text text-anchor="middle" x="0" y="333" transform="translate(39.04,0)" style="font-family: 'Open Sans', verdana, arial, sans-serif; font-size: 12px; fill: rgb(214, 223, 239); fill-opacity: 1; white-space: pre; opacity: 1;">Jan 2020</text></g><g class="xtick"><text text-anchor="middle" x="0" y="333" style="font-family: 'Open Sans', verdana, arial, sans-serif; font-size: 12px; fill: rgb(214, 223, 239); fill-opacity: 1; white-space: pre; opacity: 1;" transform="translate(116.34,0)">Apr 2020</text></g><g class="xtick"><text text-anchor="middle" x="0" y="333" style="font-family: 'Open Sans', verdana, arial, sans-serif; font-size: 12px; fill: rgb(214, 223, 239); fill-opacity: 1; white-space: pre; opacity: 1;" transform="translate(193.65,0)">Jul 2020</text></g><g class="xtick"><text text-anchor="middle" x="0" y="333" style="font-family: 'Open Sans', verdana, arial, sans-serif; font-size: 12px; fill: rgb(214, 223, 239); fill-opacity: 1; white-space: pre; opacity: 1;" transform="translate(271.8,0)">Oct 2020</text></g><g class="xtick"><text text-anchor="middle" x="0" y="333" style="font-family: 'Open Sans', verdana, arial, sans-serif; font-size: 12px; fill: rgb(214, 223, 239); fill-opacity: 1; white-space: pre; opacity: 1;" transform="translate(349.96,0)">Jan 2021</text></g><g class="xtick"><text text-anchor="middle" x="0" y="333" style="font-family: 'Open Sans', verdana, arial, sans-serif; font-size: 12px; fill: rgb(214, 223, 239); fill-opacity: 1; white-space: pre; opacity: 1;" transform="translate(426.42,0)">Apr 2021</text></g><g class="xtick"><text text-anchor="middle" x="0" y="333" style="font-family: 'Open Sans', verdana, arial, sans-serif; font-size: 12px; fill: rgb(214, 223, 239); fill-opacity: 1; white-space: pre; opacity: 1;" transform="translate(503.72,0)">Jul 2021</text></g><g class="xtick"><text text-anchor="middle" x="0" y="333" style="font-family: 'Open Sans', verdana, arial, sans-serif; font-size: 12px; fill: rgb(214, 223, 239); fill-opacity: 1; white-space: pre; opacity: 1;" transform="translate(581.88,0)">Oct 2021</text></g><g class="xtick"><text text-anchor="middle" x="0" y="333" style="font-family: 'Open Sans', verdana, arial, sans-serif; font-size: 12px; fill: rgb(214, 223, 239); fill-opacity: 1; white-space: pre; opacity: 1;" transform="translate(660.04,0)">Jan 2022</text></g></g><g class="yaxislayer-above"><g class="ytick"><text text-anchor="end" x="38" y="4.199999999999999" transform="translate(0,305.67)" style="font-family: 'Open Sans', verdana, arial, sans-serif; font-size: 12px; fill: rgb(214, 223, 239); fill-opacity: 1; white-space: pre; opacity: 1;">80</text></g><g class="ytick"><text text-anchor="end" x="38" y="4.199999999999999" style="font-family: 'Open Sans', verdana, arial, sans-serif; font-size: 12px; fill: rgb(214, 223, 239); fill-opacity: 1; white-space: pre; opacity: 1;" transform="translate(0,249.95)">100</text></g><g class="ytick"><text text-anchor="end" x="38" y="4.199999999999999" style="font-family: 'Open Sans', verdana, arial, sans-serif; font-size: 12px; fill: rgb(214, 223, 239); fill-opacity: 1; white-space: pre; opacity: 1;" transform="translate(0,194.24)">120</text></g><g class="ytick"><text text-anchor="end" x="38" y="4.199999999999999" style="font-family: 'Open Sans', verdana, arial, sans-serif; font-size: 12px; fill: rgb(214, 223, 239); fill-opacity: 1; white-space: pre; opacity: 1;" transform="translate(0,138.51999999999998)">140</text></g><g class="ytick"><text text-anchor="end" x="38" y="4.199999999999999" style="font-family: 'Open Sans', verdana, arial, sans-serif; font-size: 12px; fill: rgb(214, 223, 239); fill-opacity: 1; white-space: pre; opacity: 1;" transform="translate(0,82.8)">160</text></g></g><g class="overaxes-above"/></g></g><g class="polarlayer"/><g class="ternarylayer"/><g class="geolayer"/><g class="funnelarealayer"/><g class="pielayer"/><g class="iciclelayer"/><g class="treemaplayer"/><g class="sunburstlayer"/><g class="glimages"/><defs id="topdefs-bf2f17"><g class="clips"/></defs><g class="layer-above"><g class="imagelayer"/><g class="shapelayer"/></g><g class="infolayer"><g class="g-gtitle"/><g class="g-xtitle"/><g class="g-ytitle"/></g></svg>