<svg class="main-svg" xmlns="http://www.w3.org/2000/svg" xmlns:xlink="http://www.w3.org/1999/xlink" width="700" height="350" viewBox="0 0 700 350"><rect x="0" y="0" width="700" height="350" style="fill: rgb(33, 34, 44); fill-opacity: 1;"/><defs id="defs-7a7fda"><g class="clips"><clipPath id="clip7a7fdaxyplot" class="plotclip"><rect width="634" height="274"/></clipPath><clipPath class="axesclip" id="clip7a7fdax"><rect x="36" y="0" width="634" height="350"/></clipPath><clipPath class="axesclip" id="clip7a7fday"><rect x="0" y="46" width="700" height="274"/></clipPath><clipPath class="axesclip" id="clip7a7fdaxy"><rect x="36" y="46" width="634" height="274"/></clipPath></g><g class="gradients"/><g class="patterns"/></defs><g class="bglayer"/><g class="layer-below"><g class="imagelayer"/><g class="shapelayer"/></g><g class="cartesianlayer"><g class="subplot xy"><g class="layer-subplot"><g class="shapelayer"/><g class="imagelayer"/></g><g class="gridlayer"><g class="x"><path class="xgrid crisp" transform="translate(40.17,0)" d="M0,46v274" style="stroke: rgb(47, 62, 78); stroke-opacity: 1; stroke-width: 1px;"/><path class="xgrid crisp" transform="translate(169.47,0)" d="M0,46v274" style="stroke: rgb(47, 62, 78); stroke-opacity: 1; stroke-width: 1px;"/><path class="xgrid crisp" transform="translate(290.43,0)" d="M0,46v274" style="stroke: rgb(47, 62, 78); stroke-opacity: 1; stroke-width: 1px;"/><path class="xgrid crisp" transform="translate(419.74,0)" d="M0,46v274" style="stroke: rgb(47, 62, 78); stroke-opacity: 1; stroke-width: 1px;"/><path class="xgrid crisp" transform="translate(544.87,0)" d="M0,46v274" style="stroke: rgb(47, 62, 78); stroke-opacity: 1; stroke-width: 1px;"/></g><g class="y"><path class="ygrid crisp" transform="translate(0,262.89)" d="M36,0h634" style="stroke: rgb(47, 62, 78); stroke-opacity: 1; stroke-width: 1px;"/><path class="ygrid crisp" transform="translate(0,212.05)" d="M36,0h634" style="stroke: rgb(47, 62, 78); stroke-opacity: 1; stroke-width: 1px;"/><path class="ygrid crisp" transform="translate(0,161.22)" d="M36,0h634" style="stroke: rgb(47, 62, 78); stroke-opacity: 1; stroke-width: 1px;"/><path class="ygrid crisp" transform="translate(0,110.38)" d="M36,0h634" style="stroke: rgb(47, 62, 78); stroke-opacity: 1; stroke-width: 1px;"/><path class="ygrid crisp" transform="translate(0,59.55)" d="M36,0h634" style="stroke: rgb(47, 62, 78); stroke-opacity: 1; stroke-width: 1px;"/></g></g><g class="zerolinelayer"><path class="yzl zl crisp" transform="translate(0,313.72)" d="M36,0h634" style="stroke: rgb(47, 62, 78); stroke-opacity: 1; stroke-width: 2px;"/></g><path class="xlines-below"/><path class="ylines-below"/><g class="overlines-below"/><g class="xaxislayer-below"/><g class="yaxislayer-below"/><g class="overaxes-below"/><g class="plot" transform="translate(36,46)" clip-path="url(#clip7a7fdaxyplot)"><g class="scatterlayer mlayer"><g class="trace scatter trace6d003624-dd24-4092-9911-da31c41ce5c6" style="stroke-miterlimit: 2; opacity: 1;"><g class="fills"/><g class="errorbars"/><g class="lines"><path class="js-line" d="M33.37,117.66L37.54,53.54L41.71,63.11L45.88,79.1L50.05,118.61L54.22,111.05L58.39,85.87L62.57,84.88L66.74,102.26L70.91,117.75L75.08,105.24L79.25,129.59L83.42,147.64L87.59,179.12L91.76,204.61L95.93,240.31L100.11,260.3L104.28,246.88L108.45,180.74L112.62,163.01L116.79,150.8L120.96,189.17L125.13,191.13L129.3,206.26L133.47,201.53L141.82,81.78L145.99,52.96L150.16,47.05L154.33,36.35L158.5,16.72L162.67,29.16L166.84,35.46L171.01,62.78L175.18,63.71L179.36,71.98L183.53,50.73L187.7,59.59L191.87,48.97L196.04,50.5L200.21,51.74L204.38,59.62L208.55,79.42L212.72,88.23L221.07,140.68L225.24,132.64L229.41,122.03L233.58,76.89L237.75,134.21L241.92,138.31L246.09,139.13L250.26,54.41L254.43,32.94L258.61,41.06L271.12,62.07L275.29,115.14L279.46,172.94L283.63,202.63L287.8,143.59L291.97,69.05L296.14,14.61L300.32,13.7L304.49,25.18L308.66,39.68L312.83,78.63L317,150.95L321.17,215.62L325.34,249.26L329.51,237.41L333.68,232.79L337.86,192.49L342.03,125.65L346.2,51.1L350.37,68.98L354.54,116.5L358.71,183.04L362.88,217.61L367.05,244.44L375.39,211.11L379.57,188.92L383.74,168.58L387.91,138.92L392.08,117.06L396.25,173.38L400.42,163.83L404.59,132.53L408.76,49.42L412.93,38.73L421.28,173.7L425.45,213.62L433.79,136.44L437.96,107.09L442.13,81.14L446.3,95.26L450.47,87.33L454.64,142.43L458.82,104.26L462.99,105.51L467.16,86.24L471.33,86.24L475.5,66.75L479.67,25.05L483.84,56.16L488.01,106.3L492.18,157.81L496.36,187.85L500.53,218.76L504.7,233L508.87,219.59L513.04,188.35L517.21,158.48L521.38,150.94L529.72,216.97L533.89,248.14L546.41,182.55L550.58,205.78L554.75,210.03L558.92,216.16L563.09,185.33L567.26,146.16L571.43,105.86L575.61,52.83L579.78,48.48L583.95,61.03L588.12,98.22L592.29,111L596.46,80.85L600.63,73.96L604.8,81.08L608.97,142.47L613.14,195.19L617.32,200.63L621.49,163.4L625.66,86.61L629.83,51.06L634,57.09" style="vector-effect: non-scaling-stroke; fill: none; stroke: rgb(31, 119, 180); stroke-opacity: 1; stroke-width: 2px; opacity: 1; stroke-dasharray: 9px, 9px;"/></g><g class="points"/><g class="text"/></g><g class="trace scatter tracef053c328-45d3-43d8-b05b-edfb47e75cdc" style="stroke-miterlimit: 2; opacity: 1;"><g class="fills"/><g class="errorbars"/><g class="lines"><path class="js-line" d="M33.37,167.55L37.54,110.79L41.71,78.1L45.88,65.25L50.05,86.94L54.22,102.92L58.39,105.18L62.57,93.93L66.74,91L70.91,101.63L75.08,108.42L83.42,127.49L87.59,152.12L91.76,177.13L95.93,208.02L100.11,235.08L104.28,249.16L108.45,229.31L112.62,196.88L116.79,164.85L120.96,167.66L125.13,177.03L129.3,195.52L133.47,199.64L137.64,183.97L141.82,142.48L145.99,92.95L150.16,60.6L154.33,45.46L158.5,33.37L162.67,27.41L166.84,27.11L171.01,42.47L179.36,66.16L183.53,62.14L187.7,60.77L191.87,53.1L196.04,53.02L200.21,50.4L204.38,53.95L208.55,63.59L212.72,75.76L216.89,94.33L221.07,114.74L225.24,129.55L229.41,131.78L233.58,110.52L237.75,111.04L241.92,116.47L246.09,137.22L250.26,110.62L258.61,42.81L262.78,40.65L271.12,54.63L275.29,77.03L283.63,163.57L287.8,173.05L291.97,138.43L296.14,75.75L300.32,32.45L304.49,17.83L308.66,26.19L312.83,47.83L317,89.75L321.17,148.4L325.34,205.28L329.51,234.1L333.68,239.82L337.86,220.9L342.03,183.64L346.2,123.08L350.37,81.91L354.54,78.86L367.05,215.03L371.22,229.56L375.39,227.39L379.57,208.89L383.74,189.54L387.91,165.47L392.08,141.52L396.25,143.12L400.42,151.42L404.59,156.58L412.93,73.56L417.11,66.16L421.28,107.59L425.45,165.89L429.62,188.23L433.79,175.81L442.13,108.22L446.3,94.49L450.47,87.91L454.64,108.34L458.82,111.34L462.99,117.4L467.16,98.67L471.33,92.67L475.5,79.75L479.67,59.35L483.84,49.32L488.01,62.5L500.53,188.14L504.7,213.2L508.87,223.79L513.04,213.65L521.38,165.92L525.55,163.59L529.72,183.09L533.89,215.49L538.07,230.19L542.24,225.25L546.41,203.38L550.58,196.83L554.75,199.46L558.92,210.66L563.09,203.84L567.26,182.55L571.43,145.78L575.61,101.62L579.78,69.06L583.95,54.11L588.12,69.24L592.29,90.09L596.46,96.69L600.63,88.6L604.8,78.63L608.97,99.17L617.32,179.43L621.49,186.41L625.66,150.21L629.83,100.36L634,64.92" style="vector-effect: non-scaling-stroke; fill: none; stroke: rgb(255, 127, 14); stroke-opacity: 1; stroke-width: 2px; opacity: 1; stroke-dasharray: 9px, 9px;"/></g><g class="points"/><g class="text"/></g></g></g><g class="overplot"/><path class="xlines-above crisp" d="M0,0" style="fill: none;"/><path class="ylines-above crisp" d="M0,0" style="fill: none;"/><g class="overlines-above"/><g class="xaxislayer-above"><g class="xtick"><text text-anchor="middle" x="0" y="333" transform="translate(40.17,0)" style="font-family: 'Open Sans', verdana, arial, sans-serif; font-size: 12px; fill: rgb(214, 223, 239); fill-opacity: 1; white-space: pre; opacity: 1;">Jan 2020</text></g><g class="xtick"><text text-anchor="middle" x="0" y="333" style="font-family: 'Open Sans', verdana, arial, sans-serif; font-size: 12px; fill: rgb(214, 223, 239); fill-opacity: 1; white-space: pre; opacity: 1;" transform="translate(169.47,0)">Feb 2020</text></g><g class="xtick"><text text-anchor="middle" x="0" y="333" style="font-family: 'Open Sans', verdana, arial, sans-serif; font-size: 12px; fill: rgb(214, 223, 239); fill-opacity: 1; white-space: pre; opacity: 1;" transform="translate(290.43,0)">Mar 2020</text></g><g class="xtick"><text text-anchor="middle" x="0" y="333" style="font-family: 'Open Sans', verdana, arial, sans-serif; font-size: 12px; fill: rgb(214, 223, 239); fill-opacity: 1; white-space: pre; opacity: 1;" transform="translate(419.74,0)">Apr 2020</text></g><g class="xtick"><text text-anchor="middle" x="0" y="333" style="font-family: 'Open Sans', verdana, arial, sans-serif; font-size: 12px; fill: rgb(214, 223, 239); fill-opacity: 1; white-space: pre; opacity: 1;" transform="translate(544.87,0)">May 2020</text></g></g><g class="yaxislayer-above"><g class="ytick"><text text-anchor="end" x="35" y="4.199999999999999" transform="translate(0,313.72)" style="font-family: 'Open Sans', verdana, arial, sans-serif; font-size: 12px; fill: rgb(214, 223, 239); fill-opacity: 1; white-space: pre; opacity: 1;">0</text></g><g class="ytick"><text text-anchor="end" x="35" y="4.199999999999999" style="font-family: 'Open Sans', verdana, arial, sans-serif; font-size: 12px; fill: rgb(214, 223, 239); fill-opacity: 1; white-space: pre; opacity: 1;" transform="translate(0,262.89)">20</text></g><g class="ytick"><text text-anchor="end" x="35" y="4.199999999999999" style="font-family: 'Open Sans', verdana, arial, sans-serif; font-size: 12px; fill: rgb(214, 223, 239); fill-opacity: 1; white-space: pre; opacity: 1;" transform="translate(0,212.05)">40</text></g><g class="ytick"><text text-anchor="end" x="35" y="4.199999999999999" style="font-family: 'Open Sans', verdana, arial, sans-serif; font-size: 12px; fill: rgb(214, 223, 239); fill-opacity: 1; white-space: pre; opacity: 1;" transform="translate(0,161.22)">60</text></g><g class="ytick"><text text-anchor="end" x="35" y="4.199999999999999" style="font-family: 'Open Sans', verdana, arial, sans-serif; font-size: 12px; fill: rgb(214, 223, 239); fill-opacity: 1; white-space: pre; opacity: 1;" transform="translate(0,110.38)">80</text></g><g class="ytick"><text text-anchor="end" x="35" y="4.199999999999999" style="font-family: 'Open Sans', verdana, arial, sans-serif; font-size: 12px; fill: rgb(214, 223, 239); fill-opacity: 1; white-space: pre; opacity: 1;" transform="translate(0,59.55)">100</text></g></g><g class="overaxes-above"/></g></g><g class="polarlayer"/><g class="ternarylayer"/><g class="geolayer"/><g class="funnelarealayer"/><g class="pielayer"/><g class="iciclelayer"/><g class="treemaplayer"/><g class="sunburstlayer"/><g class="glimages"/><defs id="topdefs-7a7fda"><g class="clips"/><clipPath id="legend7a7fda"><rect width="158" height="29" x="0" y="0"/></clipPath></defs><g class="layer-above"><g class="imagelayer"/><g class="shapelayer"/></g><g class="infolayer"><g class="legend" pointer-events="all" transform="translate(512,11.519999999999996)"><rect class="bg" shape-rendering="crispEdges" style="stroke: rgb(68, 68, 68); stroke-opacity: 1; fill: rgb(33, 34, 44); fill-opacity: 1; stroke-width: 0px;" width="158" height="29" x="0" y="0"/><g class="scrollbox" transform="" clip-path="url(#legend7a7fda)"><g class="groups"><g class="traces" transform="translate(0,14.5)" style="opacity: 1;"><text class="legendtext" text-anchor="start" x="40" y="4.680000000000001" style="font-family: 'Open Sans', verdana, arial, sans-serif; font-size: 12px; fill: rgb(214, 223, 239); fill-opacity: 1; white-space: pre;">slowk</text><g class="layers" style="opacity: 1;"><g class="legendfill"/><g class="legendlines"><path class="js-line" d="M5,0h30" style="fill: none; stroke: rgb(31, 119, 180); stroke-opacity: 1; stroke-dasharray: 9px, 9px; stroke-width: 2px;"/></g><g class="legendsymbols"><g class="legendpoints"/></g></g><rect class="legendtoggle" x="0" y="-9.5" width="76.25" height="19" style="fill: rgb(0, 0, 0); fill-opacity: 0;"/></g><g class="traces" transform="translate(78.75,14.5)" style="opacity: 1;"><text class="legendtext" text-anchor="start" x="40" y="4.680000000000001" style="font-family: 'Open Sans', verdana, arial, sans-serif; font-size: 12px; fill: rgb(214, 223, 239); fill-opacity: 1; white-space: pre;">slowd</text><g class="layers" style="opacity: 1;"><g class="legendfill"/><g class="legendlines"><path class="js-line" d="M5,0h30" style="fill: none; stroke: rgb(255, 127, 14); stroke-opacity: 1; stroke-dasharray: 9px, 9px; stroke-width: 2px;"/></g><g class="legendsymbols"><g class="legendpoints"/></g></g><rect class="legendtoggle" x="0" y="-9.5" width="76.625" height="19" style="fill: rgb(0, 0, 0); fill-opacity: 0;"/></g></g></g><rect class="scrollbar" rx="20" ry="3" width="0" height="0" style="fill: rgb(128, 139, 164); fill-opacity: 1;" x="0" y="0"/></g><g class="g-gtitle"/><g class="g-xtitle"/><g class="g-ytitle"/></g></svg>