<svg class="main-svg" xmlns="http://www.w3.org/2000/svg" xmlns:xlink="http://www.w3.org/1999/xlink" width="700" height="350" viewBox="0 0 700 350"><rect x="0" y="0" width="700" height="350" style="fill: rgb(33, 34, 44); fill-opacity: 1;"/><defs id="defs-f932d2"><g class="clips"><clipPath id="clipf932d2xyplot" class="plotclip"><rect width="634" height="130.15"/></clipPath><clipPath id="clipf932d2x2y2plot" class="plotclip"><rect width="634" height="130.15"/></clipPath><clipPath class="axesclip" id="clipf932d2x"><rect x="36" y="0" width="634" height="350"/></clipPath><clipPath class="axesclip" id="clipf932d2y"><rect x="0" y="46" width="700" height="130.15"/></clipPath><clipPath class="axesclip" id="clipf932d2xy"><rect x="36" y="46" width="634" height="130.15"/></clipPath><clipPath class="axesclip" id="clipf932d2y2"><rect x="0" y="189.85" width="700" height="130.15"/></clipPath><clipPath class="axesclip" id="clipf932d2xy2"><rect x="36" y="189.85" width="634" height="130.15"/></clipPath><clipPath class="axesclip" id="clipf932d2x2"><rect x="36" y="0" width="634" height="350"/></clipPath><clipPath class="axesclip" id="clipf932d2x2y"><rect x="36" y="46" width="634" height="130.15"/></clipPath><clipPath class="axesclip" id="clipf932d2x2y2"><rect x="36" y="189.85" width="634" height="130.15"/></clipPath></g><g class="gradients"/><g class="patterns"/></defs><g class="bglayer"/><g class="layer-below"><g class="imagelayer"/><g class="shapelayer"/></g><g class="cartesianlayer"><g class="subplot xy"><g class="layer-subplot"><g class="shapelayer"/><g class="imagelayer"/></g><g class="gridlayer"><g class="x"><path class="xgrid crisp" transform="translate(42.22,0)" d="M0,46v130.15" style="stroke: rgb(47, 62, 78); stroke-opacity: 1; stroke-width: 1px;"/><path class="xgrid crisp" transform="translate(170.67,0)" d="M0,46v130.15" style="stroke: rgb(47, 62, 78); stroke-opacity: 1; stroke-width: 1px;"/><path class="xgrid crisp" transform="translate(290.84000000000003,0)" d="M0,46v130.15" style="stroke: rgb(47, 62, 78); stroke-opacity: 1; stroke-width: 1px;"/><path class="xgrid crisp" transform="translate(419.3,0)" d="M0,46v130.15" style="stroke: rgb(47, 62, 78); stroke-opacity: 1; stroke-width: 1px;"/><path class="xgrid crisp" transform="translate(543.61,0)" d="M0,46v130.15" style="stroke: rgb(47, 62, 78); stroke-opacity: 1; stroke-width: 1px;"/></g><g class="y"><path class="ygrid crisp" transform="translate(0,157.8)" d="M36,0h634" style="stroke: rgb(47, 62, 78); stroke-opacity: 1; stroke-width: 1px;"/><path class="ygrid crisp" transform="translate(0,125.58)" d="M36,0h634" style="stroke: rgb(47, 62, 78); stroke-opacity: 1; stroke-width: 1px;"/><path class="ygrid crisp" transform="translate(0,93.35)" d="M36,0h634" style="stroke: rgb(47, 62, 78); stroke-opacity: 1; stroke-width: 1px;"/><path class="ygrid crisp" transform="translate(0,61.13)" d="M36,0h634" style="stroke: rgb(47, 62, 78); stroke-opacity: 1; stroke-width: 1px;"/></g></g><g class="zerolinelayer"/><path class="xlines-below"/><path class="ylines-below"/><g class="overlines-below"/><g class="xaxislayer-below"/><g class="yaxislayer-below"/><g class="overaxes-below"/><g class="plot" transform="translate(36,46)" clip-path="url(#clipf932d2xyplot)"><g class="ohlclayer mlayer"><g class="trace ohlc" style="opacity: 1;"><path d="M0.83,111.48H2.07M2.07,111.48V111.48M3.32,111.48H2.07" style="fill: none; stroke: rgb(27, 158, 118); stroke-opacity: 1; stroke-width: 2px; opacity: 1;"/><path d="M4.97,111.57H6.22M6.22,108.87V114.45M7.46,114.45H6.22" style="fill: none; stroke: rgb(217, 95, 2); stroke-opacity: 1; stroke-width: 2px; opacity: 1;"/><path d="M9.12,114.38H10.36M10.36,114.38V118.58M11.6,117.77H10.36" style="fill: none; stroke: rgb(217, 95, 2); stroke-opacity: 1; stroke-width: 2px; opacity: 1;"/><path d="M13.26,118.8H14.5M14.5,116.65V119.38M15.75,116.67H14.5" style="fill: none; stroke: rgb(27, 158, 118); stroke-opacity: 1; stroke-width: 2px; opacity: 1;"/><path d="M17.4,115.74H18.65M18.65,115.74V118.58M19.89,118.41H18.65" style="fill: none; stroke: rgb(217, 95, 2); stroke-opacity: 1; stroke-width: 2px; opacity: 1;"/><path d="M21.55,118.26H22.79M22.79,117.48V120.19M24.03,117.48H22.79" style="fill: none; stroke: rgb(27, 158, 118); stroke-opacity: 1; stroke-width: 2px; opacity: 1;"/><path d="M25.69,118.01H26.93M26.93,116.4V119.36M28.18,119.11H26.93" style="fill: none; stroke: rgb(217, 95, 2); stroke-opacity: 1; stroke-width: 2px; opacity: 1;"/><path d="M29.84,118.66H31.08M31.08,116.34V120.12M32.32,116.49H31.08" style="fill: none; stroke: rgb(27, 158, 118); stroke-opacity: 1; stroke-width: 2px; opacity: 1;"/><path d="M33.98,116.94H35.22M35.22,114.43V117.99M36.47,115.85H35.22" style="fill: none; stroke: rgb(27, 158, 118); stroke-opacity: 1; stroke-width: 2px; opacity: 1;"/><path d="M38.12,116.6H39.37M39.37,111.31V117.35M40.61,111.81H39.37" style="fill: none; stroke: rgb(27, 158, 118); stroke-opacity: 1; stroke-width: 2px; opacity: 1;"/><path d="M42.27,111.97H43.51M43.51,110.74V113.56M44.75,113.39H43.51" style="fill: none; stroke: rgb(217, 95, 2); stroke-opacity: 1; stroke-width: 2px; opacity: 1;"/><path d="M46.41,113.46H47.65M47.65,111.15V114.83M48.9,114.83H47.65" style="fill: none; stroke: rgb(217, 95, 2); stroke-opacity: 1; stroke-width: 2px; opacity: 1;"/><path d="M50.55,115.59H51.8M51.8,113.75V115.75M53.04,114.53H51.8" style="fill: none; stroke: rgb(27, 158, 118); stroke-opacity: 1; stroke-width: 2px; opacity: 1;"/><path d="M54.7,114.92H55.94M55.94,112.02V115.71M57.18,112.02H55.94" style="fill: none; stroke: rgb(27, 158, 118); stroke-opacity: 1; stroke-width: 2px; opacity: 1;"/><path d="M58.84,111.49H60.08M60.08,108.33V111.49M61.33,109.35H60.08" style="fill: none; stroke: rgb(27, 158, 118); stroke-opacity: 1; stroke-width: 2px; opacity: 1;"/><path d="M62.99,109.57H64.23M64.23,109.29V112.85M65.47,112.12H64.23" style="fill: none; stroke: rgb(217, 95, 2); stroke-opacity: 1; stroke-width: 2px; opacity: 1;"/><path d="M67.13,111.14H68.37M68.37,105.98V111.21M69.62,109.87H68.37" style="fill: none; stroke: rgb(27, 158, 118); stroke-opacity: 1; stroke-width: 2px; opacity: 1;"/><path d="M71.27,109.77H72.52M72.52,107V109.77M73.76,109.1H72.52" style="fill: none; stroke: rgb(27, 158, 118); stroke-opacity: 1; stroke-width: 2px; opacity: 1;"/><path d="M75.42,108.76H76.66M76.66,102.37V110.07M77.9,106.18H76.66" style="fill: none; stroke: rgb(27, 158, 118); stroke-opacity: 1; stroke-width: 2px; opacity: 1;"/><path d="M79.56,105.67H80.8M80.8,103.39V109.55M82.05,109.55H80.8" style="fill: none; stroke: rgb(217, 95, 2); stroke-opacity: 1; stroke-width: 2px; opacity: 1;"/><path d="M83.7,110.24H84.95M84.95,108.03V113.13M86.19,108.12H84.95" style="fill: none; stroke: rgb(27, 158, 118); stroke-opacity: 1; stroke-width: 2px; opacity: 1;"/><path d="M87.85,108.77H89.09M89.09,108.77V112.28M90.33,110.28H89.09" style="fill: none; stroke: rgb(217, 95, 2); stroke-opacity: 1; stroke-width: 2px; opacity: 1;"/><path d="M91.99,110.6H93.24M93.24,110.6V115.71M94.48,115.52H93.24" style="fill: none; stroke: rgb(217, 95, 2); stroke-opacity: 1; stroke-width: 2px; opacity: 1;"/><path d="M96.14,116.07H97.38M97.38,115.69V119.24M98.62,118.53H97.38" style="fill: none; stroke: rgb(217, 95, 2); stroke-opacity: 1; stroke-width: 2px; opacity: 1;"/><path d="M100.28,118.38H101.52M101.52,116.59V119.91M102.77,119.56H101.52" style="fill: none; stroke: rgb(217, 95, 2); stroke-opacity: 1; stroke-width: 2px; opacity: 1;"/><path d="M104.42,119.13H105.67M105.67,117.41V119.97M106.91,118.04H105.67" style="fill: none; stroke: rgb(27, 158, 118); stroke-opacity: 1; stroke-width: 2px; opacity: 1;"/><path d="M108.57,118.58H109.81M109.81,112.24V118.58M111.05,112.24H109.81" style="fill: none; stroke: rgb(27, 158, 118); stroke-opacity: 1; stroke-width: 2px; opacity: 1;"/><path d="M112.71,112.56H113.95M113.95,112.55V118.13M115.2,118.13H113.95" style="fill: none; stroke: rgb(217, 95, 2); stroke-opacity: 1; stroke-width: 2px; opacity: 1;"/><path d="M116.85,117.72H118.1M118.1,115.11V117.72M119.34,117.52H118.1" style="fill: none; stroke: rgb(27, 158, 118); stroke-opacity: 1; stroke-width: 2px; opacity: 1;"/><path d="M121,117.74H122.24M122.24,116.95V119.65M123.48,117.09H122.24" style="fill: none; stroke: rgb(27, 158, 118); stroke-opacity: 1; stroke-width: 2px; opacity: 1;"/><path d="M125.14,117.83H126.39M126.39,117.09V119.83M127.63,118.2H126.39" style="fill: none; stroke: rgb(217, 95, 2); stroke-opacity: 1; stroke-width: 2px; opacity: 1;"/><path d="M129.29,119.19H130.53M130.53,118.21V121.25M131.77,120.05H130.53" style="fill: none; stroke: rgb(217, 95, 2); stroke-opacity: 1; stroke-width: 2px; opacity: 1;"/><path d="M133.43,120.46H134.67M134.67,119.64V123.64M135.92,119.99H134.67" style="fill: none; stroke: rgb(27, 158, 118); stroke-opacity: 1; stroke-width: 2px; opacity: 1;"/><path d="M137.57,118.97H138.82M138.82,117.18V119.44M140.06,117.67H138.82" style="fill: none; stroke: rgb(27, 158, 118); stroke-opacity: 1; stroke-width: 2px; opacity: 1;"/><path d="M141.72,118.42H142.96M142.96,117.2V119.04M144.2,117.92H142.96" style="fill: none; stroke: rgb(27, 158, 118); stroke-opacity: 1; stroke-width: 2px; opacity: 1;"/><path d="M145.86,117.4H147.1M147.1,113.45V117.4M148.35,115.81H147.1" style="fill: none; stroke: rgb(27, 158, 118); stroke-opacity: 1; stroke-width: 2px; opacity: 1;"/><path d="M150.01,115.41H151.25M151.25,113.33V116.09M152.49,113.72H151.25" style="fill: none; stroke: rgb(27, 158, 118); stroke-opacity: 1; stroke-width: 2px; opacity: 1;"/><path d="M154.15,113.96H155.39M155.39,108.36V113.96M156.64,108.36H155.39" style="fill: none; stroke: rgb(27, 158, 118); stroke-opacity: 1; stroke-width: 2px; opacity: 1;"/><path d="M158.29,107.61H159.54M159.54,100.58V107.61M160.78,100.58H159.54" style="fill: none; stroke: rgb(27, 158, 118); stroke-opacity: 1; stroke-width: 2px; opacity: 1;"/><path d="M162.44,99.38H163.68M163.68,97.47V101.15M164.92,101.15H163.68" style="fill: none; stroke: rgb(217, 95, 2); stroke-opacity: 1; stroke-width: 2px; opacity: 1;"/><path d="M166.58,100.61H167.82M167.82,98.86V102.57M169.07,98.86H167.82" style="fill: none; stroke: rgb(27, 158, 118); stroke-opacity: 1; stroke-width: 2px; opacity: 1;"/><path d="M170.72,97.83H171.97M171.97,95.16V101.93M173.21,101.22H171.97" style="fill: none; stroke: rgb(217, 95, 2); stroke-opacity: 1; stroke-width: 2px; opacity: 1;"/><path d="M174.87,102.09H176.11M176.11,97.59V103.49M177.35,97.59H176.11" style="fill: none; stroke: rgb(27, 158, 118); stroke-opacity: 1; stroke-width: 2px; opacity: 1;"/><path d="M179.01,98.01H180.25M180.25,90.89V98.01M181.5,93.06H180.25" style="fill: none; stroke: rgb(27, 158, 118); stroke-opacity: 1; stroke-width: 2px; opacity: 1;"/><path d="M183.16,92.52H184.4M184.4,88.22V93.87M185.64,89.32H184.4" style="fill: none; stroke: rgb(27, 158, 118); stroke-opacity: 1; stroke-width: 2px; opacity: 1;"/><path d="M187.3,88.3H188.54M188.54,87.47V93.92M189.79,92.27H188.54" style="fill: none; stroke: rgb(217, 95, 2); stroke-opacity: 1; stroke-width: 2px; opacity: 1;"/><path d="M191.44,92.56H192.69M192.69,88.21V92.83M193.93,88.21H192.69" style="fill: none; stroke: rgb(27, 158, 118); stroke-opacity: 1; stroke-width: 2px; opacity: 1;"/><path d="M195.59,89.13H196.83M196.83,80.28V90.06M198.07,81.87H196.83" style="fill: none; stroke: rgb(27, 158, 118); stroke-opacity: 1; stroke-width: 2px; opacity: 1;"/><path d="M199.73,81.56H200.97M200.97,75.89V81.56M202.22,81.56H200.97" style="fill: none; stroke: rgb(27, 158, 118); stroke-opacity: 1; stroke-width: 2px; opacity: 1;"/><path d="M203.87,82.81H205.12M205.12,73.56V82.81M206.36,76.4H205.12" style="fill: none; stroke: rgb(27, 158, 118); stroke-opacity: 1; stroke-width: 2px; opacity: 1;"/><path d="M208.02,76.5H209.26M209.26,76.12V82.34M210.5,79.79H209.26" style="fill: none; stroke: rgb(217, 95, 2); stroke-opacity: 1; stroke-width: 2px; opacity: 1;"/><path d="M212.16,80.21H213.41M213.41,79.48V83.01M214.65,80.46H213.41" style="fill: none; stroke: rgb(217, 95, 2); stroke-opacity: 1; stroke-width: 2px; opacity: 1;"/><path d="M216.31,80.58H217.55M217.55,72.96V80.68M218.79,77.58H217.55" style="fill: none; stroke: rgb(27, 158, 118); stroke-opacity: 1; stroke-width: 2px; opacity: 1;"/><path d="M220.45,79.11H221.69M221.69,77.14V80.97M222.94,79.21H221.69" style="fill: none; stroke: rgb(217, 95, 2); stroke-opacity: 1; stroke-width: 2px; opacity: 1;"/><path d="M224.59,79.52H225.84M225.84,74V80.68M227.08,76.21H225.84" style="fill: none; stroke: rgb(27, 158, 118); stroke-opacity: 1; stroke-width: 2px; opacity: 1;"/><path d="M228.74,76.5H229.98M229.98,72.52V76.89M231.22,76.02H229.98" style="fill: none; stroke: rgb(27, 158, 118); stroke-opacity: 1; stroke-width: 2px; opacity: 1;"/><path d="M232.88,75.49H234.12M234.12,73.28V79.27M235.37,73.28H234.12" style="fill: none; stroke: rgb(27, 158, 118); stroke-opacity: 1; stroke-width: 2px; opacity: 1;"/><path d="M237.02,74.81H238.27M238.27,74.81V84.73M239.51,84.73H238.27" style="fill: none; stroke: rgb(217, 95, 2); stroke-opacity: 1; stroke-width: 2px; opacity: 1;"/><path d="M241.17,85.54H242.41M242.41,78.01V86.88M243.65,78.01H242.41" style="fill: none; stroke: rgb(27, 158, 118); stroke-opacity: 1; stroke-width: 2px; opacity: 1;"/><path d="M245.31,77.88H246.56M246.56,73.95V80.82M247.8,73.95H246.56" style="fill: none; stroke: rgb(27, 158, 118); stroke-opacity: 1; stroke-width: 2px; opacity: 1;"/><path d="M249.46,73.67H250.7M250.7,68.9V74.3M251.94,68.9H250.7" style="fill: none; stroke: rgb(27, 158, 118); stroke-opacity: 1; stroke-width: 2px; opacity: 1;"/><path d="M253.6,67.64H254.84M254.84,60.23V69.7M256.09,63.68H254.84" style="fill: none; stroke: rgb(27, 158, 118); stroke-opacity: 1; stroke-width: 2px; opacity: 1;"/><path d="M257.74,63.02H258.99M258.99,59.12V64.54M260.23,64.54H258.99" style="fill: none; stroke: rgb(217, 95, 2); stroke-opacity: 1; stroke-width: 2px; opacity: 1;"/><path d="M261.89,63.13H263.13M263.13,48.8V63.76M264.37,51.4H263.13" style="fill: none; stroke: rgb(27, 158, 118); stroke-opacity: 1; stroke-width: 2px; opacity: 1;"/><path d="M266.03,53.73H267.27M267.27,44.26V53.98M268.52,50.25H267.27" style="fill: none; stroke: rgb(27, 158, 118); stroke-opacity: 1; stroke-width: 2px; opacity: 1;"/><path d="M270.18,50.92H271.42M271.42,50.92V55.98M272.66,51.69H271.42" style="fill: none; stroke: rgb(217, 95, 2); stroke-opacity: 1; stroke-width: 2px; opacity: 1;"/><path d="M274.32,52.62H275.56M275.56,52.62V59.56M276.81,58.61H275.56" style="fill: none; stroke: rgb(217, 95, 2); stroke-opacity: 1; stroke-width: 2px; opacity: 1;"/><path d="M278.46,57.8H279.71M279.71,57.59V65.86M280.95,63.3H279.71" style="fill: none; stroke: rgb(217, 95, 2); stroke-opacity: 1; stroke-width: 2px; opacity: 1;"/><path d="M282.61,63.59H283.85M283.85,56.36V65.67M285.09,58.14H283.85" style="fill: none; stroke: rgb(27, 158, 118); stroke-opacity: 1; stroke-width: 2px; opacity: 1;"/><path d="M286.75,56.92H287.99M287.99,48.94V58.93M289.24,49.12H287.99" style="fill: none; stroke: rgb(27, 158, 118); stroke-opacity: 1; stroke-width: 2px; opacity: 1;"/><path d="M290.89,47.44H292.14M292.14,43.84V50.28M293.38,43.88H292.14" style="fill: none; stroke: rgb(27, 158, 118); stroke-opacity: 1; stroke-width: 2px; opacity: 1;"/><path d="M295.04,43.91H296.28M296.28,40.11V46.23M297.52,40.11H296.28" style="fill: none; stroke: rgb(27, 158, 118); stroke-opacity: 1; stroke-width: 2px; opacity: 1;"/><path d="M299.18,40.44H300.42M300.42,35.45V40.44M301.67,35.45H300.42" style="fill: none; stroke: rgb(27, 158, 118); stroke-opacity: 1; stroke-width: 2px; opacity: 1;"/><path d="M303.33,32.86H304.57M304.57,30.41V38.29M305.81,34.33H304.57" style="fill: none; stroke: rgb(217, 95, 2); stroke-opacity: 1; stroke-width: 2px; opacity: 1;"/><path d="M307.47,36.93H308.71M308.71,22.75V36.93M309.96,27.46H308.71" style="fill: none; stroke: rgb(27, 158, 118); stroke-opacity: 1; stroke-width: 2px; opacity: 1;"/><path d="M311.61,27.51H312.86M312.86,27.51V37.73M314.1,33.54H312.86" style="fill: none; stroke: rgb(217, 95, 2); stroke-opacity: 1; stroke-width: 2px; opacity: 1;"/><path d="M315.76,33.63H317M317,33.63V46.71M318.24,46.49H317" style="fill: none; stroke: rgb(217, 95, 2); stroke-opacity: 1; stroke-width: 2px; opacity: 1;"/><path d="M319.9,45.92H321.14M321.14,42.76V49.13M322.39,47.4H321.14" style="fill: none; stroke: rgb(217, 95, 2); stroke-opacity: 1; stroke-width: 2px; opacity: 1;"/><path d="M324.04,46.85H325.29M325.29,41.17V47.69M326.53,45.35H325.29" style="fill: none; stroke: rgb(27, 158, 118); stroke-opacity: 1; stroke-width: 2px; opacity: 1;"/><path d="M328.19,44.33H329.43M329.43,40.74V45.91M330.67,45.91H329.43" style="fill: none; stroke: rgb(217, 95, 2); stroke-opacity: 1; stroke-width: 2px; opacity: 1;"/><path d="M332.33,43.83H333.58M333.58,38.73V47.27M334.82,47.27H333.58" style="fill: none; stroke: rgb(217, 95, 2); stroke-opacity: 1; stroke-width: 2px; opacity: 1;"/><path d="M336.48,46.31H337.72M337.72,42.87V49.59M338.96,42.87H337.72" style="fill: none; stroke: rgb(27, 158, 118); stroke-opacity: 1; stroke-width: 2px; opacity: 1;"/><path d="M340.62,43.36H341.86M341.86,37.49V46.09M343.11,38.24H341.86" style="fill: none; stroke: rgb(27, 158, 118); stroke-opacity: 1; stroke-width: 2px; opacity: 1;"/><path d="M344.76,36.68H346.01M346.01,32.69V41.15M347.25,32.69H346.01" style="fill: none; stroke: rgb(27, 158, 118); stroke-opacity: 1; stroke-width: 2px; opacity: 1;"/><path d="M348.91,31.67H350.15M350.15,29.61V41.93M351.39,41.44H350.15" style="fill: none; stroke: rgb(217, 95, 2); stroke-opacity: 1; stroke-width: 2px; opacity: 1;"/><path d="M353.05,44.14H354.29M354.29,37.95V48.44M355.54,42.06H354.29" style="fill: none; stroke: rgb(27, 158, 118); stroke-opacity: 1; stroke-width: 2px; opacity: 1;"/><path d="M357.19,42.61H358.44M358.44,41.86V47.77M359.68,44.4H358.44" style="fill: none; stroke: rgb(217, 95, 2); stroke-opacity: 1; stroke-width: 2px; opacity: 1;"/><path d="M361.34,45.17H362.58M362.58,41.05V49.77M363.82,49.77H362.58" style="fill: none; stroke: rgb(217, 95, 2); stroke-opacity: 1; stroke-width: 2px; opacity: 1;"/><path d="M365.48,47.94H366.73M366.73,45.7V49.95M367.97,48.73H366.73" style="fill: none; stroke: rgb(217, 95, 2); stroke-opacity: 1; stroke-width: 2px; opacity: 1;"/><path d="M369.63,50.01H370.87M370.87,46.52V54.7M372.11,47.59H370.87" style="fill: none; stroke: rgb(27, 158, 118); stroke-opacity: 1; stroke-width: 2px; opacity: 1;"/><path d="M373.77,45.59H375.01M375.01,45.59V53.08M376.26,52.2H375.01" style="fill: none; stroke: rgb(217, 95, 2); stroke-opacity: 1; stroke-width: 2px; opacity: 1;"/><path d="M377.91,51.89H379.16M379.16,47.46V52.06M380.4,50.31H379.16" style="fill: none; stroke: rgb(27, 158, 118); stroke-opacity: 1; stroke-width: 2px; opacity: 1;"/><path d="M382.06,48.37H383.3M383.3,48.25V52.35M384.54,48.65H383.3" style="fill: none; stroke: rgb(217, 95, 2); stroke-opacity: 1; stroke-width: 2px; opacity: 1;"/><path d="M386.2,48.65H387.44M387.44,45.4V50.24M388.69,49.74H387.44" style="fill: none; stroke: rgb(217, 95, 2); stroke-opacity: 1; stroke-width: 2px; opacity: 1;"/><path d="M390.35,48.61H391.59M391.59,46.53V50.94M392.83,48.63H391.59" style="fill: none; stroke: rgb(217, 95, 2); stroke-opacity: 1; stroke-width: 2px; opacity: 1;"/><path d="M394.49,49.16H395.73M395.73,48.63V56.22M396.98,56.22H395.73" style="fill: none; stroke: rgb(217, 95, 2); stroke-opacity: 1; stroke-width: 2px; opacity: 1;"/><path d="M398.63,57.03H399.88M399.88,49.63V57.35M401.12,49.63H399.88" style="fill: none; stroke: rgb(27, 158, 118); stroke-opacity: 1; stroke-width: 2px; opacity: 1;"/><path d="M402.78,45.69H404.02M404.02,35.31V45.69M405.26,36.42H404.02" style="fill: none; stroke: rgb(27, 158, 118); stroke-opacity: 1; stroke-width: 2px; opacity: 1;"/><path d="M406.92,35.24H408.16M408.16,34.23V38.38M409.41,34.67H408.16" style="fill: none; stroke: rgb(27, 158, 118); stroke-opacity: 1; stroke-width: 2px; opacity: 1;"/><path d="M411.06,36.61H412.31M412.31,34.55V44.03M413.55,39.5H412.31" style="fill: none; stroke: rgb(217, 95, 2); stroke-opacity: 1; stroke-width: 2px; opacity: 1;"/><path d="M415.21,41.31H416.45M416.45,41.31V54.94M417.69,54.94H416.45" style="fill: none; stroke: rgb(217, 95, 2); stroke-opacity: 1; stroke-width: 2px; opacity: 1;"/><path d="M419.35,54.72H420.59M420.59,48.41V55.71M421.84,50.71H420.59" style="fill: none; stroke: rgb(27, 158, 118); stroke-opacity: 1; stroke-width: 2px; opacity: 1;"/><path d="M423.5,50.06H424.74M424.74,47.22V51.17M425.98,49.24H424.74" style="fill: none; stroke: rgb(27, 158, 118); stroke-opacity: 1; stroke-width: 2px; opacity: 1;"/><path d="M427.64,50.12H428.88M428.88,43.41V53.29M430.13,44.45H428.88" style="fill: none; stroke: rgb(27, 158, 118); stroke-opacity: 1; stroke-width: 2px; opacity: 1;"/><path d="M431.78,46.27H433.03M433.03,40.09V46.27M434.27,44.52H433.03" style="fill: none; stroke: rgb(27, 158, 118); stroke-opacity: 1; stroke-width: 2px; opacity: 1;"/><path d="M435.93,44.89H437.17M437.17,39.62V45.52M438.41,45.29H437.17" style="fill: none; stroke: rgb(217, 95, 2); stroke-opacity: 1; stroke-width: 2px; opacity: 1;"/><path d="M440.07,41.38H441.31M441.31,35.16V41.38M442.56,38.08H441.31" style="fill: none; stroke: rgb(27, 158, 118); stroke-opacity: 1; stroke-width: 2px; opacity: 1;"/><path d="M444.21,37.49H445.46M445.46,35.91V45.31M446.7,43.32H445.46" style="fill: none; stroke: rgb(217, 95, 2); stroke-opacity: 1; stroke-width: 2px; opacity: 1;"/><path d="M448.36,43.63H449.6M449.6,33.76V45.96M450.84,37H449.6" style="fill: none; stroke: rgb(27, 158, 118); stroke-opacity: 1; stroke-width: 2px; opacity: 1;"/><path d="M452.5,36.92H453.75M453.75,35.74V47.48M454.99,44.9H453.75" style="fill: none; stroke: rgb(217, 95, 2); stroke-opacity: 1; stroke-width: 2px; opacity: 1;"/><path d="M456.65,44.79H457.89M457.89,28.21V44.79M459.13,28.21H457.89" style="fill: none; stroke: rgb(27, 158, 118); stroke-opacity: 1; stroke-width: 2px; opacity: 1;"/><path d="M460.79,28.54H462.03M462.03,28.54V35.99M463.28,33.48H462.03" style="fill: none; stroke: rgb(217, 95, 2); stroke-opacity: 1; stroke-width: 2px; opacity: 1;"/><path d="M464.93,35.43H466.18M466.18,34.13V40.97M467.42,39.48H466.18" style="fill: none; stroke: rgb(217, 95, 2); stroke-opacity: 1; stroke-width: 2px; opacity: 1;"/><path d="M469.08,38.64H470.32M470.32,23.64V40.61M471.56,23.64H470.32" style="fill: none; stroke: rgb(27, 158, 118); stroke-opacity: 1; stroke-width: 2px; opacity: 1;"/><path d="M473.22,25.78H474.46M474.46,12.09V28.39M475.71,13.51H474.46" style="fill: none; stroke: rgb(27, 158, 118); stroke-opacity: 1; stroke-width: 2px; opacity: 1;"/><path d="M477.36,12.95H478.61M478.61,6.51V12.95M479.85,9.69H478.61" style="fill: none; stroke: rgb(27, 158, 118); stroke-opacity: 1; stroke-width: 2px; opacity: 1;"/><path d="M481.51,11.03H482.75M482.75,8.12V19.16M483.99,19.16H482.75" style="fill: none; stroke: rgb(217, 95, 2); stroke-opacity: 1; stroke-width: 2px; opacity: 1;"/><path d="M485.65,19.71H486.9M486.9,19.71V29.51M488.14,28.17H486.9" style="fill: none; stroke: rgb(217, 95, 2); stroke-opacity: 1; stroke-width: 2px; opacity: 1;"/><path d="M489.8,28.98H491.04M491.04,20.76V30.09M492.28,23.02H491.04" style="fill: none; stroke: rgb(27, 158, 118); stroke-opacity: 1; stroke-width: 2px; opacity: 1;"/><path d="M493.94,23.44H495.18M495.18,15.15V24.27M496.43,23.52H495.18" style="fill: none; stroke: rgb(217, 95, 2); stroke-opacity: 1; stroke-width: 2px; opacity: 1;"/><path d="M498.08,23.88H499.33M499.33,21.78V33.58M500.57,33.58H499.33" style="fill: none; stroke: rgb(217, 95, 2); stroke-opacity: 1; stroke-width: 2px; opacity: 1;"/><path d="M502.23,36.61H503.47M503.47,35.58V42.89M504.71,39.24H503.47" style="fill: none; stroke: rgb(217, 95, 2); stroke-opacity: 1; stroke-width: 2px; opacity: 1;"/><path d="M506.37,38.22H507.61M507.61,30.78V40.95M508.86,30.78H507.61" style="fill: none; stroke: rgb(27, 158, 118); stroke-opacity: 1; stroke-width: 2px; opacity: 1;"/><path d="M510.52,29.35H511.76M511.76,25.17V36.12M513,32.66H511.76" style="fill: none; stroke: rgb(217, 95, 2); stroke-opacity: 1; stroke-width: 2px; opacity: 1;"/><path d="M514.66,30.48H515.9M515.9,26.64V38.63M517.15,32.67H515.9" style="fill: none; stroke: rgb(217, 95, 2); stroke-opacity: 1; stroke-width: 2px; opacity: 1;"/><path d="M518.8,33.89H520.05M520.05,28.01V34.61M521.29,33.58H520.05" style="fill: none; stroke: rgb(27, 158, 118); stroke-opacity: 1; stroke-width: 2px; opacity: 1;"/><path d="M522.95,34.81H524.19M524.19,31.93V42.63M525.43,42.46H524.19" style="fill: none; stroke: rgb(217, 95, 2); stroke-opacity: 1; stroke-width: 2px; opacity: 1;"/><path d="M527.09,42.98H528.33M528.33,42.13V49.93M529.58,48.35H528.33" style="fill: none; stroke: rgb(217, 95, 2); stroke-opacity: 1; stroke-width: 2px; opacity: 1;"/><path d="M531.23,46.82H532.48M532.48,46.82V54.89M533.72,50.43H532.48" style="fill: none; stroke: rgb(217, 95, 2); stroke-opacity: 1; stroke-width: 2px; opacity: 1;"/><path d="M535.38,48.37H536.62M536.62,43.54V50.64M537.86,47.43H536.62" style="fill: none; stroke: rgb(27, 158, 118); stroke-opacity: 1; stroke-width: 2px; opacity: 1;"/><path d="M539.52,46.68H540.76M540.76,42.34V49.92M542.01,47.11H540.76" style="fill: none; stroke: rgb(217, 95, 2); stroke-opacity: 1; stroke-width: 2px; opacity: 1;"/><path d="M543.67,47.9H544.91M544.91,46.82V50.57M546.15,49.92H544.91" style="fill: none; stroke: rgb(217, 95, 2); stroke-opacity: 1; stroke-width: 2px; opacity: 1;"/><path d="M547.81,49.33H549.05M549.05,49.33V63.81M550.3,63.74H549.05" style="fill: none; stroke: rgb(217, 95, 2); stroke-opacity: 1; stroke-width: 2px; opacity: 1;"/><path d="M551.95,64.21H553.2M553.2,61.51V69.29M554.44,61.51H553.2" style="fill: none; stroke: rgb(27, 158, 118); stroke-opacity: 1; stroke-width: 2px; opacity: 1;"/><path d="M556.1,62.22H557.34M557.34,58.81V67.79M558.58,60.75H557.34" style="fill: none; stroke: rgb(27, 158, 118); stroke-opacity: 1; stroke-width: 2px; opacity: 1;"/><path d="M560.24,61.36H561.48M561.48,58.81V62.94M562.73,61.04H561.48" style="fill: none; stroke: rgb(27, 158, 118); stroke-opacity: 1; stroke-width: 2px; opacity: 1;"/><path d="M564.38,57.74H565.63M565.63,54.3V60.06M566.87,54.3H565.63" style="fill: none; stroke: rgb(27, 158, 118); stroke-opacity: 1; stroke-width: 2px; opacity: 1;"/><path d="M568.53,51.93H569.77M569.77,48.82V53.75M571.01,53.07H569.77" style="fill: none; stroke: rgb(217, 95, 2); stroke-opacity: 1; stroke-width: 2px; opacity: 1;"/><path d="M572.67,53.42H573.92M573.92,48.95V56.5M575.16,48.95H573.92" style="fill: none; stroke: rgb(27, 158, 118); stroke-opacity: 1; stroke-width: 2px; opacity: 1;"/><path d="M576.82,50.24H578.06M578.06,45.09V51.48M579.3,48.62H578.06" style="fill: none; stroke: rgb(27, 158, 118); stroke-opacity: 1; stroke-width: 2px; opacity: 1;"/><path d="M580.96,48.81H582.2M582.2,41.53V48.81M583.45,48.13H582.2" style="fill: none; stroke: rgb(27, 158, 118); stroke-opacity: 1; stroke-width: 2px; opacity: 1;"/><path d="M585.1,50.29H586.35M586.35,48.21V55.25M587.59,48.21H586.35" style="fill: none; stroke: rgb(27, 158, 118); stroke-opacity: 1; stroke-width: 2px; opacity: 1;"/><path d="M589.25,48.93H590.49M590.49,44.16V51.81M591.73,46.75H590.49" style="fill: none; stroke: rgb(27, 158, 118); stroke-opacity: 1; stroke-width: 2px; opacity: 1;"/><path d="M593.39,44.1H594.63M594.63,39.42V48.09M595.88,39.42H594.63" style="fill: none; stroke: rgb(27, 158, 118); stroke-opacity: 1; stroke-width: 2px; opacity: 1;"/><path d="M597.53,39.55H598.78M598.78,34.4V46.12M600.02,42H598.78" style="fill: none; stroke: rgb(217, 95, 2); stroke-opacity: 1; stroke-width: 2px; opacity: 1;"/><path d="M601.68,42.5H602.92M602.92,37.39V46.33M604.16,43.41H602.92" style="fill: none; stroke: rgb(217, 95, 2); stroke-opacity: 1; stroke-width: 2px; opacity: 1;"/><path d="M605.82,46.87H607.07M607.07,45.67V50.57M608.31,47.02H607.07" style="fill: none; stroke: rgb(217, 95, 2); stroke-opacity: 1; stroke-width: 2px; opacity: 1;"/><path d="M609.97,48.79H611.21M611.21,45.83V52.91M612.45,52.66H611.21" style="fill: none; stroke: rgb(217, 95, 2); stroke-opacity: 1; stroke-width: 2px; opacity: 1;"/><path d="M614.11,53.96H615.35M615.35,40.2V53.96M616.6,44.11H615.35" style="fill: none; stroke: rgb(27, 158, 118); stroke-opacity: 1; stroke-width: 2px; opacity: 1;"/><path d="M618.25,40.79H619.5M619.5,39.65V47.77M620.74,42.12H619.5" style="fill: none; stroke: rgb(217, 95, 2); stroke-opacity: 1; stroke-width: 2px; opacity: 1;"/><path d="M622.4,42.98H623.64M623.64,35.59V45.47M624.88,37.07H623.64" style="fill: none; stroke: rgb(27, 158, 118); stroke-opacity: 1; stroke-width: 2px; opacity: 1;"/><path d="M626.54,38.07H627.78M627.78,33.69V38.07M629.03,35.25H627.78" style="fill: none; stroke: rgb(27, 158, 118); stroke-opacity: 1; stroke-width: 2px; opacity: 1;"/><path d="M630.68,36.59H631.93M631.93,36.59V42.6M633.17,40.92H631.93" style="fill: none; stroke: rgb(217, 95, 2); stroke-opacity: 1; stroke-width: 2px; opacity: 1;"/></g></g></g><g class="overplot"/><path class="xlines-above crisp" d="M0,0" style="fill: none;"/><path class="ylines-above crisp" d="M0,0" style="fill: none;"/><g class="overlines-above"/><g class="xaxislayer-above"/><g class="yaxislayer-above"><g class="ytick"><text text-anchor="end" x="35" y="4.199999999999999" transform="translate(0,157.8)" style="font-family: 'Open Sans', verdana, arial, sans-serif; font-size: 12px; fill: rgb(214, 223, 239); fill-opacity: 1; white-space: pre; opacity: 1;">100</text></g><g class="ytick"><text text-anchor="end" x="35" y="4.199999999999999" style="font-family: 'Open Sans', verdana, arial, sans-serif; font-size: 12px; fill: rgb(214, 223, 239); fill-opacity: 1; white-space: pre; opacity: 1;" transform="translate(0,125.58)">150</text></g><g class="ytick"><text text-anchor="end" x="35" y="4.199999999999999" style="font-family: 'Open Sans', verdana, arial, sans-serif; font-size: 12px; fill: rgb(214, 223, 239); fill-opacity: 1; white-space: pre; opacity: 1;" transform="translate(0,93.35)">200</text></g><g class="ytick"><text text-anchor="end" x="35" y="4.199999999999999" style="font-family: 'Open Sans', verdana, arial, sans-serif; font-size: 12px; fill: rgb(214, 223, 239); fill-opacity: 1; white-space: pre; opacity: 1;" transform="translate(0,61.13)">250</text></g></g><g class="overaxes-above"/></g><g class="subplot x2y2"><g class="layer-subplot"><g class="shapelayer"><path data-index="0" fill-rule="evenodd" d="M38.07,292.87H667.93V220.43H38.07Z" clip-path="url(#clipf932d2x2y2)" style="opacity: 0.2; stroke: rgb(0, 0, 0); stroke-opacity: 0; fill: rgb(128, 0, 128); fill-opacity: 1; stroke-width: 0px;"/></g><g class="imagelayer"/></g><g class="gridlayer"><g class="x2"><path class="x2grid crisp" transform="translate(42.22,0)" d="M0,189.85v130.15" style="stroke: rgb(47, 62, 78); stroke-opacity: 1; stroke-width: 1px;"/><path class="x2grid crisp" transform="translate(170.67,0)" d="M0,189.85v130.15" style="stroke: rgb(47, 62, 78); stroke-opacity: 1; stroke-width: 1px;"/><path class="x2grid crisp" transform="translate(290.84000000000003,0)" d="M0,189.85v130.15" style="stroke: rgb(47, 62, 78); stroke-opacity: 1; stroke-width: 1px;"/><path class="x2grid crisp" transform="translate(419.3,0)" d="M0,189.85v130.15" style="stroke: rgb(47, 62, 78); stroke-opacity: 1; stroke-width: 1px;"/><path class="x2grid crisp" transform="translate(543.61,0)" d="M0,189.85v130.15" style="stroke: rgb(47, 62, 78); stroke-opacity: 1; stroke-width: 1px;"/></g><g class="y2"><path class="y2grid crisp" transform="translate(0,256.65)" d="M36,0h634" style="stroke: rgb(47, 62, 78); stroke-opacity: 1; stroke-width: 1px;"/><path class="y2grid crisp" transform="translate(0,196.29)" d="M36,0h634" style="stroke: rgb(47, 62, 78); stroke-opacity: 1; stroke-width: 1px;"/></g></g><g class="zerolinelayer"><path class="y2zl zl crisp" transform="translate(0,317.02)" d="M36,0h634" style="stroke: rgb(47, 62, 78); stroke-opacity: 1; stroke-width: 2px;"/></g><path class="xlines-below"/><path class="ylines-below"/><g class="overlines-below"/><g class="xaxislayer-below"/><g class="yaxislayer-below"/><g class="overaxes-below"/><g class="plot" transform="translate(36,189.85)" clip-path="url(#clipf932d2x2y2plot)"><g class="scatterlayer mlayer"><g class="trace scatter trace92c7c837-bf49-46cc-a34d-acfac4ee68ba" style="stroke-miterlimit: 2; opacity: 1;"><g class="fills"/><g class="errorbars"/><g class="lines"><path class="js-line" d="M35.22,55.89L39.37,25.43L43.51,29.98L47.65,37.57L51.8,56.34L55.94,52.75L60.08,40.79L64.23,40.32L68.37,48.57L72.52,55.93L76.66,49.99L80.8,61.55L84.95,70.13L89.09,85.08L93.24,97.19L97.38,114.15L101.52,123.64L105.67,117.27L109.81,85.85L113.95,77.43L118.1,71.63L122.24,89.85L126.39,90.79L130.53,97.97L134.67,95.73L142.96,38.85L147.1,25.16L151.25,22.35L155.39,17.27L159.54,7.94L163.68,13.85L167.82,16.84L171.97,29.82L176.11,30.26L180.25,34.19L184.4,24.1L188.54,28.31L192.69,23.26L196.83,23.99L200.97,24.58L205.12,28.32L209.26,37.73L213.41,41.91L221.69,66.82L225.84,63L229.98,57.96L234.12,36.52L238.27,63.75L242.41,65.7L246.56,66.09L250.7,25.84L254.84,15.65L258.99,19.51L271.42,29.48L275.56,54.69L279.71,82.14L283.85,96.25L287.99,68.21L292.14,32.8L296.28,6.94L300.42,6.51L304.57,11.96L308.71,18.85L312.86,37.35L317,71.7L321.14,102.42L325.29,118.4L329.43,112.77L333.58,110.58L337.72,91.43L341.86,59.68L346.01,24.27L350.15,32.77L354.29,55.34L358.44,86.95L362.58,103.36L366.73,116.11L375.01,100.28L379.16,89.74L383.3,80.08L387.44,65.99L391.59,55.6L395.73,82.36L399.88,77.82L404.02,62.95L408.16,23.48L412.31,18.4L420.59,82.51L424.74,101.47L433.03,64.81L437.17,50.87L441.31,38.54L445.46,45.25L449.6,41.48L453.75,67.66L457.89,49.53L462.03,50.12L466.18,40.97L470.32,40.97L474.46,31.71L478.61,11.9L482.75,26.68L486.9,50.49L491.04,74.96L495.18,89.23L499.33,103.91L503.47,110.68L507.61,104.31L511.76,89.47L515.9,75.28L520.05,71.69L528.33,103.06L532.48,117.86L544.91,86.71L549.05,97.75L553.2,99.77L557.34,102.68L561.48,88.03L565.63,69.43L569.77,50.28L573.92,25.09L578.06,23.03L582.2,28.99L586.35,46.66L590.49,52.73L594.63,38.4L598.78,35.13L602.92,38.51L607.07,67.67L611.21,92.71L615.35,95.3L619.5,77.62L623.64,41.14L627.78,24.25L631.93,27.12" style="vector-effect: non-scaling-stroke; fill: none; stroke: rgb(255, 127, 14); stroke-opacity: 1; stroke-width: 2px; opacity: 1;"/></g><g class="points"/><g class="text"/></g><g class="trace scatter tracee3d0fe37-5337-4088-b558-a91a92b0e6c5" style="stroke-miterlimit: 2; opacity: 1;"><g class="fills"/><g class="errorbars"/><g class="lines"><path class="js-line" d="M35.22,79.59L39.37,52.63L43.51,37.1L47.65,30.99L51.8,41.3L55.94,48.89L60.08,49.96L64.23,44.62L68.37,43.23L72.52,48.27L76.66,51.5L84.95,60.56L89.09,72.26L93.24,84.13L97.38,98.81L101.52,111.66L105.67,118.35L109.81,108.92L113.95,93.52L118.1,78.3L122.24,79.64L126.39,84.09L130.53,92.87L134.67,94.83L138.82,87.39L142.96,67.68L147.1,44.15L151.25,28.78L155.39,21.59L159.54,15.85L163.68,13.02L167.82,12.88L171.97,20.17L180.25,31.42L184.4,29.52L188.54,28.86L192.69,25.22L196.83,25.19L200.97,23.94L205.12,25.63L209.26,30.21L213.41,35.98L217.55,44.8L221.69,54.5L225.84,61.54L229.98,62.6L234.12,52.5L238.27,52.74L242.41,55.32L246.56,65.18L250.7,52.54L258.99,20.33L263.13,19.31L271.42,25.95L275.56,36.59L283.85,77.7L287.99,82.2L292.14,65.75L296.28,35.98L300.42,15.42L304.57,8.47L308.71,12.44L312.86,22.72L317,42.63L321.14,70.49L325.29,97.51L329.43,111.2L333.58,113.92L337.72,104.93L341.86,87.23L346.01,58.46L350.15,38.91L354.29,37.46L366.73,102.14L370.87,109.04L375.01,108.01L379.16,99.22L383.3,90.03L387.44,78.6L391.59,67.22L395.73,67.98L399.88,71.93L404.02,74.38L412.31,34.94L416.45,31.43L420.59,51.1L424.74,78.8L428.88,89.41L433.03,83.51L441.31,51.41L445.46,44.89L449.6,41.76L453.75,51.46L457.89,52.89L462.03,55.77L466.18,46.87L470.32,44.02L474.46,37.88L478.61,28.19L482.75,23.43L486.9,29.69L499.33,89.37L503.47,101.27L507.61,106.3L511.76,101.48L520.05,78.81L524.19,77.71L528.33,86.97L532.48,102.36L536.62,109.34L540.76,106.99L544.91,96.61L549.05,93.49L553.2,94.74L557.34,100.06L561.48,96.83L565.63,86.71L569.77,69.25L573.92,48.27L578.06,32.8L582.2,25.7L586.35,32.89L590.49,42.79L594.63,45.93L598.78,42.09L602.92,37.35L607.07,47.1L615.35,85.23L619.5,88.54L623.64,71.35L627.78,47.67L631.93,30.84" style="vector-effect: non-scaling-stroke; fill: none; stroke: rgb(44, 160, 44); stroke-opacity: 1; stroke-width: 2px; opacity: 1;"/></g><g class="points"/><g class="text"/></g></g></g><g class="overplot"/><path class="xlines-above crisp" d="M0,0" style="fill: none;"/><path class="ylines-above crisp" d="M0,0" style="fill: none;"/><g class="overlines-above"/><g class="xaxislayer-above"><g class="x2tick"><text text-anchor="middle" x="0" y="333" transform="translate(42.22,0)" style="font-family: 'Open Sans', verdana, arial, sans-serif; font-size: 12px; fill: rgb(214, 223, 239); fill-opacity: 1; white-space: pre; opacity: 1;">Jan 2020</text></g><g class="x2tick"><text text-anchor="middle" x="0" y="333" style="font-family: 'Open Sans', verdana, arial, sans-serif; font-size: 12px; fill: rgb(214, 223, 239); fill-opacity: 1; white-space: pre; opacity: 1;" transform="translate(170.67,0)">Feb 2020</text></g><g class="x2tick"><text text-anchor="middle" x="0" y="333" style="font-family: 'Open Sans', verdana, arial, sans-serif; font-size: 12px; fill: rgb(214, 223, 239); fill-opacity: 1; white-space: pre; opacity: 1;" transform="translate(290.84000000000003,0)">Mar 2020</text></g><g class="x2tick"><text text-anchor="middle" x="0" y="333" style="font-family: 'Open Sans', verdana, arial, sans-serif; font-size: 12px; fill: rgb(214, 223, 239); fill-opacity: 1; white-space: pre; opacity: 1;" transform="translate(419.3,0)">Apr 2020</text></g><g class="x2tick"><text text-anchor="middle" x="0" y="333" style="font-family: 'Open Sans', verdana, arial, sans-serif; font-size: 12px; fill: rgb(214, 223, 239); fill-opacity: 1; white-space: pre; opacity: 1;" transform="translate(543.61,0)">May 2020</text></g></g><g class="yaxislayer-above"><g class="y2tick"><text text-anchor="end" x="35" y="4.199999999999999" transform="translate(0,317.02)" style="font-family: 'Open Sans', verdana, arial, sans-serif; font-size: 12px; fill: rgb(214, 223, 239); fill-opacity: 1; white-space: pre; opacity: 1;">0</text></g><g class="y2tick"><text text-anchor="end" x="35" y="4.199999999999999" style="font-family: 'Open Sans', verdana, arial, sans-serif; font-size: 12px; fill: rgb(214, 223, 239); fill-opacity: 1; white-space: pre; opacity: 1;" transform="translate(0,256.65)">50</text></g><g class="y2tick"><text text-anchor="end" x="35" y="4.199999999999999" style="font-family: 'Open Sans', verdana, arial, sans-serif; font-size: 12px; fill: rgb(214, 223, 239); fill-opacity: 1; white-space: pre; opacity: 1;" transform="translate(0,196.29)">100</text></g></g><g class="overaxes-above"/></g></g><g class="polarlayer"/><g class="ternarylayer"/><g class="geolayer"/><g class="funnelarealayer"/><g class="pielayer"/><g class="iciclelayer"/><g class="treemaplayer"/><g class="sunburstlayer"/><g class="glimages"/><defs id="topdefs-f932d2"><g class="clips"/><clipPath id="legendf932d2"><rect width="237" height="29" x="0" y="0"/></clipPath></defs><g class="layer-above"><g class="imagelayer"/><g class="shapelayer"/></g><g class="infolayer"><g class="legend" pointer-events="all" transform="translate(433,11.519999999999996)"><rect class="bg" shape-rendering="crispEdges" style="stroke: rgb(68, 68, 68); stroke-opacity: 1; fill: rgb(33, 34, 44); fill-opacity: 1; stroke-width: 0px;" width="237" height="29" x="0" y="0"/><g class="scrollbox" transform="" clip-path="url(#legendf932d2)"><g class="groups"><g class="traces" transform="translate(0,14.5)" style="opacity: 1;"><text class="legendtext" text-anchor="start" x="40" y="4.680000000000001" style="font-family: 'Open Sans', verdana, arial, sans-serif; font-size: 12px; fill: rgb(214, 223, 239); fill-opacity: 1; white-space: pre;">OHLC</text><g class="layers" style="opacity: 1;"><g class="legendfill"/><g class="legendlines"/><g class="legendsymbols"><g class="legendpoints"><path class="legendohlc" d="M15,0H0M8,6V0" transform="translate(20,0)" style="stroke-miterlimit: 1; fill: none; stroke-width: 2px; stroke: rgb(217, 95, 2); stroke-opacity: 1;"/><path class="legendohlc" d="M-15,0H0M-8,-6V0" transform="translate(20,0)" style="stroke-miterlimit: 1; fill: none; stroke-width: 2px; stroke: rgb(27, 158, 118); stroke-opacity: 1;"/></g></g></g><rect class="legendtoggle" x="0" y="-9.5" width="76.015625" height="19" style="fill: rgb(0, 0, 0); fill-opacity: 0;"/></g><g class="traces" transform="translate(78.515625,14.5)" style="opacity: 1;"><text class="legendtext" text-anchor="start" x="40" y="4.680000000000001" style="font-family: 'Open Sans', verdana, arial, sans-serif; font-size: 12px; fill: rgb(214, 223, 239); fill-opacity: 1; white-space: pre;">slowk</text><g class="layers" style="opacity: 1;"><g class="legendfill"/><g class="legendlines"><path class="js-line" d="M5,0h30" style="fill: none; stroke: rgb(255, 127, 14); stroke-opacity: 1; stroke-width: 2px;"/></g><g class="legendsymbols"><g class="legendpoints"/></g></g><rect class="legendtoggle" x="0" y="-9.5" width="76.25" height="19" style="fill: rgb(0, 0, 0); fill-opacity: 0;"/></g><g class="traces" transform="translate(157.265625,14.5)" style="opacity: 1;"><text class="legendtext" text-anchor="start" x="40" y="4.680000000000001" style="font-family: 'Open Sans', verdana, arial, sans-serif; font-size: 12px; fill: rgb(214, 223, 239); fill-opacity: 1; white-space: pre;">slowd</text><g class="layers" style="opacity: 1;"><g class="legendfill"/><g class="legendlines"><path class="js-line" d="M5,0h30" style="fill: none; stroke: rgb(44, 160, 44); stroke-opacity: 1; stroke-width: 2px;"/></g><g class="legendsymbols"><g class="legendpoints"/></g></g><rect class="legendtoggle" x="0" y="-9.5" width="76.625" height="19" style="fill: rgb(0, 0, 0); fill-opacity: 0;"/></g></g></g><rect class="scrollbar" rx="20" ry="3" width="0" height="0" style="fill: rgb(128, 139, 164); fill-opacity: 1;" x="0" y="0"/></g><g class="g-gtitle"/><g class="g-xtitle"/><g class="g-x2title"/><g class="g-ytitle"/><g class="g-y2title"/></g></svg>