<svg class="main-svg" xmlns="http://www.w3.org/2000/svg" xmlns:xlink="http://www.w3.org/1999/xlink" width="700" height="350" viewBox="0 0 700 350"><rect x="0" y="0" width="700" height="350" style="fill: rgb(33, 34, 44); fill-opacity: 1;"/><defs id="defs-07089c"><g class="clips"><clipPath id="clip07089cxyplot" class="plotclip"><rect width="634" height="274"/></clipPath><clipPath class="axesclip" id="clip07089cx"><rect x="36" y="0" width="634" height="350"/></clipPath><clipPath class="axesclip" id="clip07089cy"><rect x="0" y="46" width="700" height="274"/></clipPath><clipPath class="axesclip" id="clip07089cxy"><rect x="36" y="46" width="634" height="274"/></clipPath></g><g class="gradients"/><g class="patterns"/></defs><g class="bglayer"/><g class="layer-below"><g class="imagelayer"/><g class="shapelayer"/></g><g class="cartesianlayer"><g class="subplot xy"><g class="layer-subplot"><g class="shapelayer"/><g class="imagelayer"/></g><g class="gridlayer"><g class="x"><path class="xgrid crisp" transform="translate(42.22,0)" d="M0,46v274" style="stroke: rgb(47, 62, 78); stroke-opacity: 1; stroke-width: 1px;"/><path class="xgrid crisp" transform="translate(170.67,0)" d="M0,46v274" style="stroke: rgb(47, 62, 78); stroke-opacity: 1; stroke-width: 1px;"/><path class="xgrid crisp" transform="translate(290.84000000000003,0)" d="M0,46v274" style="stroke: rgb(47, 62, 78); stroke-opacity: 1; stroke-width: 1px;"/><path class="xgrid crisp" transform="translate(419.3,0)" d="M0,46v274" style="stroke: rgb(47, 62, 78); stroke-opacity: 1; stroke-width: 1px;"/><path class="xgrid crisp" transform="translate(543.61,0)" d="M0,46v274" style="stroke: rgb(47, 62, 78); stroke-opacity: 1; stroke-width: 1px;"/></g><g class="y"><path class="ygrid crisp" transform="translate(0,271.68)" d="M36,0h634" style="stroke: rgb(47, 62, 78); stroke-opacity: 1; stroke-width: 1px;"/><path class="ygrid crisp" transform="translate(0,220.25)" d="M36,0h634" style="stroke: rgb(47, 62, 78); stroke-opacity: 1; stroke-width: 1px;"/><path class="ygrid crisp" transform="translate(0,168.82999999999998)" d="M36,0h634" style="stroke: rgb(47, 62, 78); stroke-opacity: 1; stroke-width: 1px;"/><path class="ygrid crisp" transform="translate(0,117.41)" d="M36,0h634" style="stroke: rgb(47, 62, 78); stroke-opacity: 1; stroke-width: 1px;"/><path class="ygrid crisp" transform="translate(0,65.99)" d="M36,0h634" style="stroke: rgb(47, 62, 78); stroke-opacity: 1; stroke-width: 1px;"/></g></g><g class="zerolinelayer"/><path class="xlines-below"/><path class="ylines-below"/><g class="overlines-below"/><g class="xaxislayer-below"/><g class="yaxislayer-below"/><g class="overaxes-below"/><g class="plot" transform="translate(36,46)" clip-path="url(#clip07089cxyplot)"><g class="ohlclayer mlayer"><g class="trace ohlc" style="opacity: 1;"><path d="M0.83,225.17H2.07M2.07,225.17V225.17M3.32,225.17H2.07" style="fill: none; stroke: rgb(27, 158, 118); stroke-opacity: 1; stroke-width: 2px; opacity: 1;"/><path d="M4.97,225.31H6.22M6.22,221V229.91M7.46,229.91H6.22" style="fill: none; stroke: rgb(217, 95, 2); stroke-opacity: 1; stroke-width: 2px; opacity: 1;"/><path d="M9.12,229.8H10.36M10.36,229.8V236.5M11.6,235.2H10.36" style="fill: none; stroke: rgb(217, 95, 2); stroke-opacity: 1; stroke-width: 2px; opacity: 1;"/><path d="M13.26,236.85H14.5M14.5,233.42V237.77M15.75,233.45H14.5" style="fill: none; stroke: rgb(27, 158, 118); stroke-opacity: 1; stroke-width: 2px; opacity: 1;"/><path d="M17.4,231.97H18.65M18.65,231.97V236.51M19.89,236.23H18.65" style="fill: none; stroke: rgb(217, 95, 2); stroke-opacity: 1; stroke-width: 2px; opacity: 1;"/><path d="M21.55,235.99H22.79M22.79,234.74V239.07M24.03,234.74H22.79" style="fill: none; stroke: rgb(27, 158, 118); stroke-opacity: 1; stroke-width: 2px; opacity: 1;"/><path d="M25.69,235.59H26.93M26.93,233.02V237.74M28.18,237.34H26.93" style="fill: none; stroke: rgb(217, 95, 2); stroke-opacity: 1; stroke-width: 2px; opacity: 1;"/><path d="M29.84,236.63H31.08M31.08,232.93V238.96M32.32,233.17H31.08" style="fill: none; stroke: rgb(27, 158, 118); stroke-opacity: 1; stroke-width: 2px; opacity: 1;"/><path d="M33.98,233.89H35.22M35.22,229.88V235.56M36.47,232.15H35.22" style="fill: none; stroke: rgb(27, 158, 118); stroke-opacity: 1; stroke-width: 2px; opacity: 1;"/><path d="M38.12,233.35H39.37M39.37,224.9V234.54M40.61,225.7H39.37" style="fill: none; stroke: rgb(27, 158, 118); stroke-opacity: 1; stroke-width: 2px; opacity: 1;"/><path d="M42.27,225.94H43.51M43.51,223.99V228.5M44.75,228.21H43.51" style="fill: none; stroke: rgb(217, 95, 2); stroke-opacity: 1; stroke-width: 2px; opacity: 1;"/><path d="M46.41,228.33H47.65M47.65,224.64V230.51M48.9,230.51H47.65" style="fill: none; stroke: rgb(217, 95, 2); stroke-opacity: 1; stroke-width: 2px; opacity: 1;"/><path d="M50.55,231.73H51.8M51.8,228.8V231.99M53.04,230.04H51.8" style="fill: none; stroke: rgb(27, 158, 118); stroke-opacity: 1; stroke-width: 2px; opacity: 1;"/><path d="M54.7,230.66H55.94M55.94,226.03V231.91M57.18,226.03H55.94" style="fill: none; stroke: rgb(27, 158, 118); stroke-opacity: 1; stroke-width: 2px; opacity: 1;"/><path d="M58.84,225.19H60.08M60.08,220.14V225.19M61.33,221.77H60.08" style="fill: none; stroke: rgb(27, 158, 118); stroke-opacity: 1; stroke-width: 2px; opacity: 1;"/><path d="M62.99,222.12H64.23M64.23,221.68V227.36M65.47,226.19H64.23" style="fill: none; stroke: rgb(217, 95, 2); stroke-opacity: 1; stroke-width: 2px; opacity: 1;"/><path d="M67.13,224.63H68.37M68.37,216.39V224.74M69.62,222.59H68.37" style="fill: none; stroke: rgb(27, 158, 118); stroke-opacity: 1; stroke-width: 2px; opacity: 1;"/><path d="M71.27,222.43H72.52M72.52,218.02V222.43M73.76,221.37H72.52" style="fill: none; stroke: rgb(27, 158, 118); stroke-opacity: 1; stroke-width: 2px; opacity: 1;"/><path d="M75.42,220.82H76.66M76.66,210.63V222.92M77.9,216.71H76.66" style="fill: none; stroke: rgb(27, 158, 118); stroke-opacity: 1; stroke-width: 2px; opacity: 1;"/><path d="M79.56,215.9H80.8M80.8,212.27V222.09M82.05,222.09H80.8" style="fill: none; stroke: rgb(217, 95, 2); stroke-opacity: 1; stroke-width: 2px; opacity: 1;"/><path d="M83.7,223.19H84.95M84.95,219.66V227.8M86.19,219.8H84.95" style="fill: none; stroke: rgb(27, 158, 118); stroke-opacity: 1; stroke-width: 2px; opacity: 1;"/><path d="M87.85,220.84H89.09M89.09,220.84V226.44M90.33,223.25H89.09" style="fill: none; stroke: rgb(217, 95, 2); stroke-opacity: 1; stroke-width: 2px; opacity: 1;"/><path d="M91.99,223.76H93.24M93.24,223.76V231.92M94.48,231.62H93.24" style="fill: none; stroke: rgb(217, 95, 2); stroke-opacity: 1; stroke-width: 2px; opacity: 1;"/><path d="M96.14,232.5H97.38M97.38,231.88V237.55M98.62,236.42H97.38" style="fill: none; stroke: rgb(217, 95, 2); stroke-opacity: 1; stroke-width: 2px; opacity: 1;"/><path d="M100.28,236.19H101.52M101.52,233.33V238.62M102.77,238.07H101.52" style="fill: none; stroke: rgb(217, 95, 2); stroke-opacity: 1; stroke-width: 2px; opacity: 1;"/><path d="M104.42,237.37H105.67M105.67,234.63V238.72M106.91,235.64H105.67" style="fill: none; stroke: rgb(27, 158, 118); stroke-opacity: 1; stroke-width: 2px; opacity: 1;"/><path d="M108.57,236.49H109.81M109.81,226.38V236.49M111.05,226.38H109.81" style="fill: none; stroke: rgb(27, 158, 118); stroke-opacity: 1; stroke-width: 2px; opacity: 1;"/><path d="M112.71,226.9H113.95M113.95,226.88V235.78M115.2,235.78H113.95" style="fill: none; stroke: rgb(217, 95, 2); stroke-opacity: 1; stroke-width: 2px; opacity: 1;"/><path d="M116.85,235.13H118.1M118.1,230.97V235.13M119.34,234.81H118.1" style="fill: none; stroke: rgb(27, 158, 118); stroke-opacity: 1; stroke-width: 2px; opacity: 1;"/><path d="M121,235.16H122.24M122.24,233.91V238.2M123.48,234.12H122.24" style="fill: none; stroke: rgb(27, 158, 118); stroke-opacity: 1; stroke-width: 2px; opacity: 1;"/><path d="M125.14,235.31H126.39M126.39,234.13V238.5M127.63,235.89H126.39" style="fill: none; stroke: rgb(217, 95, 2); stroke-opacity: 1; stroke-width: 2px; opacity: 1;"/><path d="M129.29,237.48H130.53M130.53,235.91V240.77M131.77,238.85H130.53" style="fill: none; stroke: rgb(217, 95, 2); stroke-opacity: 1; stroke-width: 2px; opacity: 1;"/><path d="M133.43,239.5H134.67M134.67,238.19V244.58M135.92,238.75H134.67" style="fill: none; stroke: rgb(27, 158, 118); stroke-opacity: 1; stroke-width: 2px; opacity: 1;"/><path d="M137.57,237.13H138.82M138.82,234.26V237.88M140.06,235.05H138.82" style="fill: none; stroke: rgb(27, 158, 118); stroke-opacity: 1; stroke-width: 2px; opacity: 1;"/><path d="M141.72,236.24H142.96M142.96,234.3V237.24M144.2,235.45H142.96" style="fill: none; stroke: rgb(27, 158, 118); stroke-opacity: 1; stroke-width: 2px; opacity: 1;"/><path d="M145.86,234.62H147.1M147.1,228.32V234.62M148.35,232.09H147.1" style="fill: none; stroke: rgb(27, 158, 118); stroke-opacity: 1; stroke-width: 2px; opacity: 1;"/><path d="M150.01,231.44H151.25M151.25,228.13V232.53M152.49,228.74H151.25" style="fill: none; stroke: rgb(27, 158, 118); stroke-opacity: 1; stroke-width: 2px; opacity: 1;"/><path d="M154.15,229.13H155.39M155.39,220.19V229.13M156.64,220.19H155.39" style="fill: none; stroke: rgb(27, 158, 118); stroke-opacity: 1; stroke-width: 2px; opacity: 1;"/><path d="M158.29,218.99H159.54M159.54,207.77V218.99M160.78,207.77H159.54" style="fill: none; stroke: rgb(27, 158, 118); stroke-opacity: 1; stroke-width: 2px; opacity: 1;"/><path d="M162.44,205.86H163.68M163.68,202.82V208.68M164.92,208.68H163.68" style="fill: none; stroke: rgb(217, 95, 2); stroke-opacity: 1; stroke-width: 2px; opacity: 1;"/><path d="M166.58,207.83H167.82M167.82,205.03V210.95M169.07,205.03H167.82" style="fill: none; stroke: rgb(27, 158, 118); stroke-opacity: 1; stroke-width: 2px; opacity: 1;"/><path d="M170.72,203.39H171.97M171.97,199.12V209.92M173.21,208.8H171.97" style="fill: none; stroke: rgb(217, 95, 2); stroke-opacity: 1; stroke-width: 2px; opacity: 1;"/><path d="M174.87,210.19H176.11M176.11,203V212.42M177.35,203H176.11" style="fill: none; stroke: rgb(27, 158, 118); stroke-opacity: 1; stroke-width: 2px; opacity: 1;"/><path d="M179.01,203.67H180.25M180.25,192.31V203.67M181.5,195.77H180.25" style="fill: none; stroke: rgb(27, 158, 118); stroke-opacity: 1; stroke-width: 2px; opacity: 1;"/><path d="M183.16,194.91H184.4M184.4,188.05V197.07M185.64,189.8H184.4" style="fill: none; stroke: rgb(27, 158, 118); stroke-opacity: 1; stroke-width: 2px; opacity: 1;"/><path d="M187.3,188.17H188.54M188.54,186.85V197.15M189.79,194.51H188.54" style="fill: none; stroke: rgb(217, 95, 2); stroke-opacity: 1; stroke-width: 2px; opacity: 1;"/><path d="M191.44,194.98H192.69M192.69,188.04V195.41M193.93,188.04H192.69" style="fill: none; stroke: rgb(27, 158, 118); stroke-opacity: 1; stroke-width: 2px; opacity: 1;"/><path d="M195.59,189.5H196.83M196.83,175.38V190.98M198.07,177.92H196.83" style="fill: none; stroke: rgb(27, 158, 118); stroke-opacity: 1; stroke-width: 2px; opacity: 1;"/><path d="M199.73,177.42H200.97M200.97,168.37V177.42M202.22,177.42H200.97" style="fill: none; stroke: rgb(27, 158, 118); stroke-opacity: 1; stroke-width: 2px; opacity: 1;"/><path d="M203.87,179.42H205.12M205.12,164.65V179.42M206.36,169.18H205.12" style="fill: none; stroke: rgb(27, 158, 118); stroke-opacity: 1; stroke-width: 2px; opacity: 1;"/><path d="M208.02,169.34H209.26M209.26,168.75V178.66M210.5,174.6H209.26" style="fill: none; stroke: rgb(217, 95, 2); stroke-opacity: 1; stroke-width: 2px; opacity: 1;"/><path d="M212.16,175.26H213.41M213.41,174.1V179.73M214.65,175.67H213.41" style="fill: none; stroke: rgb(217, 95, 2); stroke-opacity: 1; stroke-width: 2px; opacity: 1;"/><path d="M216.31,175.86H217.55M217.55,163.69V176.02M218.79,171.06H217.55" style="fill: none; stroke: rgb(27, 158, 118); stroke-opacity: 1; stroke-width: 2px; opacity: 1;"/><path d="M220.45,173.51H221.69M221.69,170.37V176.47M222.94,173.68H221.69" style="fill: none; stroke: rgb(217, 95, 2); stroke-opacity: 1; stroke-width: 2px; opacity: 1;"/><path d="M224.59,174.17H225.84M225.84,165.35V176.02M227.08,168.88H225.84" style="fill: none; stroke: rgb(27, 158, 118); stroke-opacity: 1; stroke-width: 2px; opacity: 1;"/><path d="M228.74,169.34H229.98M229.98,162.99V169.97M231.22,168.59H229.98" style="fill: none; stroke: rgb(27, 158, 118); stroke-opacity: 1; stroke-width: 2px; opacity: 1;"/><path d="M232.88,167.74H234.12M234.12,164.2V173.77M235.37,164.2H234.12" style="fill: none; stroke: rgb(27, 158, 118); stroke-opacity: 1; stroke-width: 2px; opacity: 1;"/><path d="M237.02,166.64H238.27M238.27,166.64V182.48M239.51,182.48H238.27" style="fill: none; stroke: rgb(217, 95, 2); stroke-opacity: 1; stroke-width: 2px; opacity: 1;"/><path d="M241.17,183.78H242.41M242.41,171.76V185.91M243.65,171.76H242.41" style="fill: none; stroke: rgb(27, 158, 118); stroke-opacity: 1; stroke-width: 2px; opacity: 1;"/><path d="M245.31,171.55H246.56M246.56,165.27V176.23M247.8,165.27H246.56" style="fill: none; stroke: rgb(27, 158, 118); stroke-opacity: 1; stroke-width: 2px; opacity: 1;"/><path d="M249.46,164.83H250.7M250.7,157.22V165.84M251.94,157.22H250.7" style="fill: none; stroke: rgb(27, 158, 118); stroke-opacity: 1; stroke-width: 2px; opacity: 1;"/><path d="M253.6,155.21H254.84M254.84,143.38V158.49M256.09,148.88H254.84" style="fill: none; stroke: rgb(27, 158, 118); stroke-opacity: 1; stroke-width: 2px; opacity: 1;"/><path d="M257.74,147.83H258.99M258.99,141.6V150.26M260.23,150.26H258.99" style="fill: none; stroke: rgb(217, 95, 2); stroke-opacity: 1; stroke-width: 2px; opacity: 1;"/><path d="M261.89,148.01H263.13M263.13,125.13V149.01M264.37,129.28H263.13" style="fill: none; stroke: rgb(27, 158, 118); stroke-opacity: 1; stroke-width: 2px; opacity: 1;"/><path d="M266.03,133H267.27M267.27,117.89V133.4M268.52,127.45H267.27" style="fill: none; stroke: rgb(27, 158, 118); stroke-opacity: 1; stroke-width: 2px; opacity: 1;"/><path d="M270.18,128.52H271.42M271.42,128.52V136.59M272.66,129.75H271.42" style="fill: none; stroke: rgb(217, 95, 2); stroke-opacity: 1; stroke-width: 2px; opacity: 1;"/><path d="M274.32,131.23H275.56M275.56,131.23V142.31M276.81,140.8H275.56" style="fill: none; stroke: rgb(217, 95, 2); stroke-opacity: 1; stroke-width: 2px; opacity: 1;"/><path d="M278.46,139.49H279.71M279.71,139.16V152.36M280.95,148.28H279.71" style="fill: none; stroke: rgb(217, 95, 2); stroke-opacity: 1; stroke-width: 2px; opacity: 1;"/><path d="M282.61,148.73H283.85M283.85,137.2V152.06M285.09,140.04H283.85" style="fill: none; stroke: rgb(27, 158, 118); stroke-opacity: 1; stroke-width: 2px; opacity: 1;"/><path d="M286.75,138.1H287.99M287.99,125.36V141.31M289.24,125.65H287.99" style="fill: none; stroke: rgb(27, 158, 118); stroke-opacity: 1; stroke-width: 2px; opacity: 1;"/><path d="M290.89,122.97H292.14M292.14,117.22V127.51M293.38,117.28H292.14" style="fill: none; stroke: rgb(27, 158, 118); stroke-opacity: 1; stroke-width: 2px; opacity: 1;"/><path d="M295.04,117.33H296.28M296.28,111.27V121.04M297.52,111.27H296.28" style="fill: none; stroke: rgb(27, 158, 118); stroke-opacity: 1; stroke-width: 2px; opacity: 1;"/><path d="M299.18,111.8H300.42M300.42,103.83V111.8M301.67,103.83H300.42" style="fill: none; stroke: rgb(27, 158, 118); stroke-opacity: 1; stroke-width: 2px; opacity: 1;"/><path d="M303.33,99.7H304.57M304.57,95.8V108.37M305.81,102.04H304.57" style="fill: none; stroke: rgb(217, 95, 2); stroke-opacity: 1; stroke-width: 2px; opacity: 1;"/><path d="M307.47,106.19H308.71M308.71,83.56V106.19M309.96,91.08H308.71" style="fill: none; stroke: rgb(27, 158, 118); stroke-opacity: 1; stroke-width: 2px; opacity: 1;"/><path d="M311.61,91.17H312.86M312.86,91.17V107.46M314.1,100.79H312.86" style="fill: none; stroke: rgb(217, 95, 2); stroke-opacity: 1; stroke-width: 2px; opacity: 1;"/><path d="M315.76,100.93H317M317,100.93V121.81M318.24,121.46H317" style="fill: none; stroke: rgb(217, 95, 2); stroke-opacity: 1; stroke-width: 2px; opacity: 1;"/><path d="M319.9,120.54H321.14M321.14,115.49V125.67M322.39,122.91H321.14" style="fill: none; stroke: rgb(217, 95, 2); stroke-opacity: 1; stroke-width: 2px; opacity: 1;"/><path d="M324.04,122.03H325.29M325.29,112.97V123.37M326.53,119.64H325.29" style="fill: none; stroke: rgb(27, 158, 118); stroke-opacity: 1; stroke-width: 2px; opacity: 1;"/><path d="M328.19,118.01H329.43M329.43,112.28V120.53M330.67,120.53H329.43" style="fill: none; stroke: rgb(217, 95, 2); stroke-opacity: 1; stroke-width: 2px; opacity: 1;"/><path d="M332.33,117.21H333.58M333.58,109.06V122.7M334.82,122.7H333.58" style="fill: none; stroke: rgb(217, 95, 2); stroke-opacity: 1; stroke-width: 2px; opacity: 1;"/><path d="M336.48,121.16H337.72M337.72,115.67V126.4M338.96,115.67H337.72" style="fill: none; stroke: rgb(27, 158, 118); stroke-opacity: 1; stroke-width: 2px; opacity: 1;"/><path d="M340.62,116.45H341.86M341.86,107.09V120.81M343.11,108.29H341.86" style="fill: none; stroke: rgb(27, 158, 118); stroke-opacity: 1; stroke-width: 2px; opacity: 1;"/><path d="M344.76,105.79H346.01M346.01,99.42V112.92M347.25,99.42H346.01" style="fill: none; stroke: rgb(27, 158, 118); stroke-opacity: 1; stroke-width: 2px; opacity: 1;"/><path d="M348.91,97.8H350.15M350.15,94.51V114.18M351.39,113.39H350.15" style="fill: none; stroke: rgb(217, 95, 2); stroke-opacity: 1; stroke-width: 2px; opacity: 1;"/><path d="M353.05,117.7H354.29M354.29,107.82V124.56M355.54,114.38H354.29" style="fill: none; stroke: rgb(27, 158, 118); stroke-opacity: 1; stroke-width: 2px; opacity: 1;"/><path d="M357.19,115.26H358.44M358.44,114.07V123.49M359.68,118.11H358.44" style="fill: none; stroke: rgb(217, 95, 2); stroke-opacity: 1; stroke-width: 2px; opacity: 1;"/><path d="M361.34,119.34H362.58M362.58,112.77V126.69M363.82,126.69H362.58" style="fill: none; stroke: rgb(217, 95, 2); stroke-opacity: 1; stroke-width: 2px; opacity: 1;"/><path d="M365.48,123.76H366.73M366.73,120.19V126.98M367.97,125.02H366.73" style="fill: none; stroke: rgb(217, 95, 2); stroke-opacity: 1; stroke-width: 2px; opacity: 1;"/><path d="M369.63,127.06H370.87M370.87,121.49V134.56M372.11,123.2H370.87" style="fill: none; stroke: rgb(27, 158, 118); stroke-opacity: 1; stroke-width: 2px; opacity: 1;"/><path d="M373.77,120.02H375.01M375.01,120.02V131.97M376.26,130.56H375.01" style="fill: none; stroke: rgb(217, 95, 2); stroke-opacity: 1; stroke-width: 2px; opacity: 1;"/><path d="M377.91,130.08H379.16M379.16,123V130.34M380.4,127.54H379.16" style="fill: none; stroke: rgb(27, 158, 118); stroke-opacity: 1; stroke-width: 2px; opacity: 1;"/><path d="M382.06,124.46H383.3M383.3,124.25V130.8M384.54,124.89H383.3" style="fill: none; stroke: rgb(217, 95, 2); stroke-opacity: 1; stroke-width: 2px; opacity: 1;"/><path d="M386.2,124.9H387.44M387.44,119.71V127.44M388.69,126.64H387.44" style="fill: none; stroke: rgb(217, 95, 2); stroke-opacity: 1; stroke-width: 2px; opacity: 1;"/><path d="M390.35,124.84H391.59M391.59,121.51V128.56M392.83,124.86H391.59" style="fill: none; stroke: rgb(217, 95, 2); stroke-opacity: 1; stroke-width: 2px; opacity: 1;"/><path d="M394.49,125.72H395.73M395.73,124.87V136.98M396.98,136.98H395.73" style="fill: none; stroke: rgb(217, 95, 2); stroke-opacity: 1; stroke-width: 2px; opacity: 1;"/><path d="M398.63,138.27H399.88M399.88,126.46V138.78M401.12,126.46H399.88" style="fill: none; stroke: rgb(27, 158, 118); stroke-opacity: 1; stroke-width: 2px; opacity: 1;"/><path d="M402.78,120.18H404.02M404.02,103.61V120.18M405.26,105.39H404.02" style="fill: none; stroke: rgb(27, 158, 118); stroke-opacity: 1; stroke-width: 2px; opacity: 1;"/><path d="M406.92,103.49H408.16M408.16,101.89V108.51M409.41,102.6H408.16" style="fill: none; stroke: rgb(27, 158, 118); stroke-opacity: 1; stroke-width: 2px; opacity: 1;"/><path d="M411.06,105.68H412.31M412.31,102.39V117.53M413.55,110.29H412.31" style="fill: none; stroke: rgb(217, 95, 2); stroke-opacity: 1; stroke-width: 2px; opacity: 1;"/><path d="M415.21,113.18H416.45M416.45,113.18V134.93M417.69,134.93H416.45" style="fill: none; stroke: rgb(217, 95, 2); stroke-opacity: 1; stroke-width: 2px; opacity: 1;"/><path d="M419.35,134.59H420.59M420.59,124.51V136.17M421.84,128.18H420.59" style="fill: none; stroke: rgb(27, 158, 118); stroke-opacity: 1; stroke-width: 2px; opacity: 1;"/><path d="M423.5,127.15H424.74M424.74,122.62V128.91M425.98,125.85H424.74" style="fill: none; stroke: rgb(27, 158, 118); stroke-opacity: 1; stroke-width: 2px; opacity: 1;"/><path d="M427.64,127.25H428.88M428.88,116.53V132.3M430.13,118.19H428.88" style="fill: none; stroke: rgb(27, 158, 118); stroke-opacity: 1; stroke-width: 2px; opacity: 1;"/><path d="M431.78,121.1H433.03M433.03,111.23V121.1M434.27,118.31H433.03" style="fill: none; stroke: rgb(27, 158, 118); stroke-opacity: 1; stroke-width: 2px; opacity: 1;"/><path d="M435.93,118.9H437.17M437.17,110.48V119.9M438.41,119.53H437.17" style="fill: none; stroke: rgb(217, 95, 2); stroke-opacity: 1; stroke-width: 2px; opacity: 1;"/><path d="M440.07,113.3H441.31M441.31,103.36V113.3M442.56,108.04H441.31" style="fill: none; stroke: rgb(27, 158, 118); stroke-opacity: 1; stroke-width: 2px; opacity: 1;"/><path d="M444.21,107.08H445.46M445.46,104.57V119.56M446.7,116.4H445.46" style="fill: none; stroke: rgb(217, 95, 2); stroke-opacity: 1; stroke-width: 2px; opacity: 1;"/><path d="M448.36,116.9H449.6M449.6,101.14V120.61M450.84,106.31H449.6" style="fill: none; stroke: rgb(27, 158, 118); stroke-opacity: 1; stroke-width: 2px; opacity: 1;"/><path d="M452.5,106.18H453.75M453.75,104.29V123.03M454.99,118.92H453.75" style="fill: none; stroke: rgb(217, 95, 2); stroke-opacity: 1; stroke-width: 2px; opacity: 1;"/><path d="M456.65,118.75H457.89M457.89,92.28V118.75M459.13,92.28H457.89" style="fill: none; stroke: rgb(27, 158, 118); stroke-opacity: 1; stroke-width: 2px; opacity: 1;"/><path d="M460.79,92.8H462.03M462.03,92.8V104.69M463.28,100.69H462.03" style="fill: none; stroke: rgb(217, 95, 2); stroke-opacity: 1; stroke-width: 2px; opacity: 1;"/><path d="M464.93,103.81H466.18M466.18,101.73V112.64M467.42,110.26H466.18" style="fill: none; stroke: rgb(217, 95, 2); stroke-opacity: 1; stroke-width: 2px; opacity: 1;"/><path d="M469.08,108.92H470.32M470.32,84.99V112.06M471.56,84.99H470.32" style="fill: none; stroke: rgb(27, 158, 118); stroke-opacity: 1; stroke-width: 2px; opacity: 1;"/><path d="M473.22,88.39H474.46M474.46,66.55V92.57M475.71,68.81H474.46" style="fill: none; stroke: rgb(27, 158, 118); stroke-opacity: 1; stroke-width: 2px; opacity: 1;"/><path d="M477.36,67.92H478.61M478.61,57.64V67.92M479.85,62.72H478.61" style="fill: none; stroke: rgb(27, 158, 118); stroke-opacity: 1; stroke-width: 2px; opacity: 1;"/><path d="M481.51,64.86H482.75M482.75,60.21V77.84M483.99,77.84H482.75" style="fill: none; stroke: rgb(217, 95, 2); stroke-opacity: 1; stroke-width: 2px; opacity: 1;"/><path d="M485.65,78.72H486.9M486.9,78.72V94.35M488.14,92.21H486.9" style="fill: none; stroke: rgb(217, 95, 2); stroke-opacity: 1; stroke-width: 2px; opacity: 1;"/><path d="M489.8,93.51H491.04M491.04,80.39V95.27M492.28,84H491.04" style="fill: none; stroke: rgb(27, 158, 118); stroke-opacity: 1; stroke-width: 2px; opacity: 1;"/><path d="M493.94,84.67H495.18M495.18,71.43V85.99M496.43,84.8H495.18" style="fill: none; stroke: rgb(217, 95, 2); stroke-opacity: 1; stroke-width: 2px; opacity: 1;"/><path d="M498.08,85.36H499.33M499.33,82.02V100.86M500.57,100.86H499.33" style="fill: none; stroke: rgb(217, 95, 2); stroke-opacity: 1; stroke-width: 2px; opacity: 1;"/><path d="M502.23,105.68H503.47M503.47,104.04V115.71M504.71,109.89H503.47" style="fill: none; stroke: rgb(217, 95, 2); stroke-opacity: 1; stroke-width: 2px; opacity: 1;"/><path d="M506.37,108.25H507.61M507.61,96.38V112.62M508.86,96.38H507.61" style="fill: none; stroke: rgb(27, 158, 118); stroke-opacity: 1; stroke-width: 2px; opacity: 1;"/><path d="M510.52,94.09H511.76M511.76,87.43V104.91M513,99.39H511.76" style="fill: none; stroke: rgb(217, 95, 2); stroke-opacity: 1; stroke-width: 2px; opacity: 1;"/><path d="M514.66,95.9H515.9M515.9,89.77V108.9M517.15,99.4H515.9" style="fill: none; stroke: rgb(217, 95, 2); stroke-opacity: 1; stroke-width: 2px; opacity: 1;"/><path d="M518.8,101.34H520.05M520.05,91.95V102.5M521.29,100.85H520.05" style="fill: none; stroke: rgb(27, 158, 118); stroke-opacity: 1; stroke-width: 2px; opacity: 1;"/><path d="M522.95,102.8H524.19M524.19,98.22V115.29M525.43,115.02H524.19" style="fill: none; stroke: rgb(217, 95, 2); stroke-opacity: 1; stroke-width: 2px; opacity: 1;"/><path d="M527.09,115.85H528.33M528.33,114.49V126.94M529.58,124.42H528.33" style="fill: none; stroke: rgb(217, 95, 2); stroke-opacity: 1; stroke-width: 2px; opacity: 1;"/><path d="M531.23,121.98H532.48M532.48,121.98V134.85M533.72,127.74H532.48" style="fill: none; stroke: rgb(217, 95, 2); stroke-opacity: 1; stroke-width: 2px; opacity: 1;"/><path d="M535.38,124.46H536.62M536.62,116.75V128.07M537.86,122.95H536.62" style="fill: none; stroke: rgb(27, 158, 118); stroke-opacity: 1; stroke-width: 2px; opacity: 1;"/><path d="M539.52,121.75H540.76M540.76,114.83V126.92M542.01,122.44H540.76" style="fill: none; stroke: rgb(217, 95, 2); stroke-opacity: 1; stroke-width: 2px; opacity: 1;"/><path d="M543.67,123.7H544.91M544.91,121.99V127.96M546.15,126.93H544.91" style="fill: none; stroke: rgb(217, 95, 2); stroke-opacity: 1; stroke-width: 2px; opacity: 1;"/><path d="M547.81,125.98H549.05M549.05,125.98V149.09M550.3,148.98H549.05" style="fill: none; stroke: rgb(217, 95, 2); stroke-opacity: 1; stroke-width: 2px; opacity: 1;"/><path d="M551.95,149.73H553.2M553.2,145.42V157.83M554.44,145.42H553.2" style="fill: none; stroke: rgb(27, 158, 118); stroke-opacity: 1; stroke-width: 2px; opacity: 1;"/><path d="M556.1,146.55H557.34M557.34,141.11V155.44M558.58,144.21H557.34" style="fill: none; stroke: rgb(27, 158, 118); stroke-opacity: 1; stroke-width: 2px; opacity: 1;"/><path d="M560.24,145.18H561.48M561.48,141.12V147.71M562.73,144.68H561.48" style="fill: none; stroke: rgb(27, 158, 118); stroke-opacity: 1; stroke-width: 2px; opacity: 1;"/><path d="M564.38,139.4H565.63M565.63,133.91V143.1M566.87,133.91H565.63" style="fill: none; stroke: rgb(27, 158, 118); stroke-opacity: 1; stroke-width: 2px; opacity: 1;"/><path d="M568.53,130.13H569.77M569.77,125.17V133.04M571.01,131.95H569.77" style="fill: none; stroke: rgb(217, 95, 2); stroke-opacity: 1; stroke-width: 2px; opacity: 1;"/><path d="M572.67,132.51H573.92M573.92,125.38V137.42M575.16,125.38H573.92" style="fill: none; stroke: rgb(27, 158, 118); stroke-opacity: 1; stroke-width: 2px; opacity: 1;"/><path d="M576.82,127.44H578.06M578.06,119.21V129.42M579.3,124.84H578.06" style="fill: none; stroke: rgb(27, 158, 118); stroke-opacity: 1; stroke-width: 2px; opacity: 1;"/><path d="M580.96,125.15H582.2M582.2,113.54V125.15M583.45,124.06H582.2" style="fill: none; stroke: rgb(27, 158, 118); stroke-opacity: 1; stroke-width: 2px; opacity: 1;"/><path d="M585.1,127.51H586.35M586.35,124.19V135.43M587.59,124.19H586.35" style="fill: none; stroke: rgb(27, 158, 118); stroke-opacity: 1; stroke-width: 2px; opacity: 1;"/><path d="M589.25,125.34H590.49M590.49,117.73V129.94M591.73,121.86H590.49" style="fill: none; stroke: rgb(27, 158, 118); stroke-opacity: 1; stroke-width: 2px; opacity: 1;"/><path d="M593.39,117.63H594.63M594.63,110.17V124.01M595.88,110.17H594.63" style="fill: none; stroke: rgb(27, 158, 118); stroke-opacity: 1; stroke-width: 2px; opacity: 1;"/><path d="M597.53,110.38H598.78M598.78,102.15V120.86M600.02,114.29H598.78" style="fill: none; stroke: rgb(217, 95, 2); stroke-opacity: 1; stroke-width: 2px; opacity: 1;"/><path d="M601.68,115.09H602.92M602.92,106.93V121.2M604.16,116.54H602.92" style="fill: none; stroke: rgb(217, 95, 2); stroke-opacity: 1; stroke-width: 2px; opacity: 1;"/><path d="M605.82,122.06H607.07M607.07,120.14V127.96M608.31,122.29H607.07" style="fill: none; stroke: rgb(217, 95, 2); stroke-opacity: 1; stroke-width: 2px; opacity: 1;"/><path d="M609.97,125.12H611.21M611.21,120.4V131.69M612.45,131.3H611.21" style="fill: none; stroke: rgb(217, 95, 2); stroke-opacity: 1; stroke-width: 2px; opacity: 1;"/><path d="M614.11,133.38H615.35M615.35,111.41V133.38M616.6,117.66H615.35" style="fill: none; stroke: rgb(27, 158, 118); stroke-opacity: 1; stroke-width: 2px; opacity: 1;"/><path d="M618.25,112.36H619.5M619.5,110.53V123.5M620.74,114.48H619.5" style="fill: none; stroke: rgb(217, 95, 2); stroke-opacity: 1; stroke-width: 2px; opacity: 1;"/><path d="M622.4,115.84H623.64M623.64,104.06V119.83M624.88,106.42H623.64" style="fill: none; stroke: rgb(27, 158, 118); stroke-opacity: 1; stroke-width: 2px; opacity: 1;"/><path d="M626.54,108.01H627.78M627.78,101.03V108.01M629.03,103.52H627.78" style="fill: none; stroke: rgb(27, 158, 118); stroke-opacity: 1; stroke-width: 2px; opacity: 1;"/><path d="M630.68,105.65H631.93M631.93,105.65V115.24M633.17,112.56H631.93" style="fill: none; stroke: rgb(217, 95, 2); stroke-opacity: 1; stroke-width: 2px; opacity: 1;"/></g></g><g class="scatterlayer mlayer"><g class="trace scatter trace829aa9b2-8611-459c-9c09-3bc7fbd639a9" style="stroke-miterlimit: 2; opacity: 1;"><g class="fills"/><g class="errorbars"/><g class="lines"><path class="js-line" d="M43.51,208.42L47.65,209.77L51.8,213.41L55.94,211.92L60.08,205.55L64.23,207.41L68.37,202.23L72.52,202.35L76.66,197L80.8,196.43L84.95,202.62L89.09,202.65L93.24,206.34L97.38,213.59L101.52,215.37L105.67,216.91L109.81,210.61L113.95,209.76L118.1,212.2L122.24,216L126.39,216.95L134.67,222.47L138.82,217.7L142.96,218.35L147.1,213.65L151.25,212.97L155.39,206.36L159.54,193.18L163.68,185.81L167.82,188.27L171.97,183.54L176.11,186L180.25,175.04L184.4,169.2L188.54,167.89L192.69,167.81L196.83,156.97L200.97,146.44L205.12,143.8L209.26,145.32L213.41,149.68L217.55,141.64L221.69,146.2L229.98,139.45L234.12,141.79L242.41,147.63L246.56,139.38L250.7,130.71L254.84,118.66L258.99,114.29L263.13,101.05L267.27,88.58L271.42,96.45L275.56,100.51L279.71,109.16L283.85,107.23L287.99,94.89L292.14,84.68L296.28,79.31L304.57,66.32L308.71,55.89L312.86,59.32L317,69.06L321.14,79.46L325.29,78.03L333.58,77.05L337.72,82.87L346.01,67.5L350.15,63.64L354.29,74.53L358.44,78.46L362.58,79.27L366.73,85.14L370.87,89.5L375.01,87.74L383.3,92.53L387.44,89.76L391.59,92.49L395.73,98L399.88,99.29L404.02,75.04L408.16,70.05L412.31,73.79L416.45,84.11L420.59,90.89L428.88,86.03L433.03,78.66L437.17,78.61L441.31,70.55L445.46,73.57L449.6,70.39L453.75,71.6L457.89,59.67L462.03,53.76L466.18,63.12L470.32,50.74L474.46,28.75L478.61,13.7L482.75,19.56L486.9,37.07L491.04,38.85L495.18,30.26L499.33,42.17L503.47,61.08L507.61,55.71L511.76,47.02L515.9,49.37L520.05,49.09L524.19,58.31L528.33,73.38L532.48,81.95L536.62,77.2L540.76,76.56L544.91,83.29L549.05,93.09L553.2,107.9L557.34,104.62L561.48,103.15L565.63,98.14L569.77,90.15L573.92,92.73L578.06,86.45L582.2,81.79L586.35,92.6L590.49,86.68L598.78,72.06L602.92,74.28L607.07,84.82L611.21,87.35L619.5,75.85L623.64,70.16L627.78,64.82L631.93,71.2" style="vector-effect: non-scaling-stroke; fill: none; stroke: rgb(255, 127, 14); stroke-opacity: 1; stroke-width: 2px; opacity: 1;"/></g><g class="points"/><g class="text"/></g><g class="trace scatter trace0f255fa3-2648-4838-a2e9-0fc8c00f2c14" style="stroke-miterlimit: 2; opacity: 1;"><g class="fills"/><g class="errorbars"/><g class="lines"><path class="js-line" d="M43.51,244.07L51.8,247.37L55.94,246.02L60.08,239.78L64.23,241.62L68.37,238.9L72.52,238.1L76.66,236.55L80.8,237.92L84.95,244.84L89.09,244.64L93.24,249.33L97.38,255.84L101.52,256.57L105.67,256.44L109.81,252.26L113.95,252.89L118.1,253.9L122.24,256.11L126.39,255.68L130.53,257.23L134.67,260.3L138.82,254.44L142.96,253.19L147.1,249.28L151.25,247.68L155.39,242.96L163.68,225.68L167.82,227.71L171.97,225.51L176.11,229.42L180.25,220.94L184.4,215.92L192.69,215.64L196.83,209.39L200.97,199.34L205.12,200.27L213.41,204.15L217.55,198.07L221.69,200.65L225.84,198.39L229.98,193.51L234.12,196.18L238.27,204.52L242.41,210.04L246.56,202.13L250.7,192.35L254.84,183.21L258.99,177.57L263.13,173.09L267.27,162.71L271.42,168.66L275.56,173.04L279.71,182.36L283.85,182.03L292.14,160.05L296.28,153L300.42,143.37L304.57,137.85L308.71,133.85L312.86,139.31L317,153.67L321.14,161.71L329.43,155L333.58,154.71L337.72,159.2L341.86,152.42L346.01,144.84L350.15,145.05L354.29,157.85L358.44,159.1L366.73,162.04L370.87,166.55L375.01,164.25L379.16,163.37L383.3,162.52L387.44,157.39L391.59,157.58L395.73,163.85L399.88,165.95L404.02,148.74L408.16,140.35L412.31,146.13L416.45,164L420.59,169.79L424.74,163.16L428.88,162.8L433.03,153.67L437.17,151.77L441.31,146.1L445.46,150.56L449.6,151.36L453.75,155.72L457.89,151.36L462.03,143.73L466.18,151.26L470.32,146.31L478.61,111.87L482.75,118.49L486.9,136.01L491.04,136.82L495.18,127.17L499.33,140.7L503.47,158.67L507.61,153.28L511.76,145.32L515.9,149.31L520.05,145.37L524.19,155.2L528.33,168.05L532.48,174.88L536.62,167.62L540.76,165.2L544.91,166.65L549.05,181.98L553.2,195.35L557.34,191.93L565.63,178.87L569.77,168.06L573.92,170.07L578.06,162.18L582.2,156.91L586.35,167.03L594.63,154.68L598.78,150.95L602.92,153.85L607.07,163.28L611.21,164.74L615.35,163.81L623.64,153.72L627.78,144.22L631.93,149.69" style="vector-effect: non-scaling-stroke; fill: none; stroke: rgb(44, 160, 44); stroke-opacity: 1; stroke-width: 2px; opacity: 1;"/></g><g class="points"/><g class="text"/></g></g></g><g class="overplot"/><path class="xlines-above crisp" d="M0,0" style="fill: none;"/><path class="ylines-above crisp" d="M0,0" style="fill: none;"/><g class="overlines-above"/><g class="xaxislayer-above"><g class="xtick"><text text-anchor="middle" x="0" y="333" transform="translate(42.22,0)" style="font-family: 'Open Sans', verdana, arial, sans-serif; font-size: 12px; fill: rgb(214, 223, 239); fill-opacity: 1; white-space: pre; opacity: 1;">Jan 2020</text></g><g class="xtick"><text text-anchor="middle" x="0" y="333" style="font-family: 'Open Sans', verdana, arial, sans-serif; font-size: 12px; fill: rgb(214, 223, 239); fill-opacity: 1; white-space: pre; opacity: 1;" transform="translate(170.67,0)">Feb 2020</text></g><g class="xtick"><text text-anchor="middle" x="0" y="333" style="font-family: 'Open Sans', verdana, arial, sans-serif; font-size: 12px; fill: rgb(214, 223, 239); fill-opacity: 1; white-space: pre; opacity: 1;" transform="translate(290.84000000000003,0)">Mar 2020</text></g><g class="xtick"><text text-anchor="middle" x="0" y="333" style="font-family: 'Open Sans', verdana, arial, sans-serif; font-size: 12px; fill: rgb(214, 223, 239); fill-opacity: 1; white-space: pre; opacity: 1;" transform="translate(419.3,0)">Apr 2020</text></g><g class="xtick"><text text-anchor="middle" x="0" y="333" style="font-family: 'Open Sans', verdana, arial, sans-serif; font-size: 12px; fill: rgb(214, 223, 239); fill-opacity: 1; white-space: pre; opacity: 1;" transform="translate(543.61,0)">May 2020</text></g></g><g class="yaxislayer-above"><g class="ytick"><text text-anchor="end" x="35" y="4.199999999999999" transform="translate(0,271.68)" style="font-family: 'Open Sans', verdana, arial, sans-serif; font-size: 12px; fill: rgb(214, 223, 239); fill-opacity: 1; white-space: pre; opacity: 1;">100</text></g><g class="ytick"><text text-anchor="end" x="35" y="4.199999999999999" style="font-family: 'Open Sans', verdana, arial, sans-serif; font-size: 12px; fill: rgb(214, 223, 239); fill-opacity: 1; white-space: pre; opacity: 1;" transform="translate(0,220.25)">150</text></g><g class="ytick"><text text-anchor="end" x="35" y="4.199999999999999" style="font-family: 'Open Sans', verdana, arial, sans-serif; font-size: 12px; fill: rgb(214, 223, 239); fill-opacity: 1; white-space: pre; opacity: 1;" transform="translate(0,168.82999999999998)">200</text></g><g class="ytick"><text text-anchor="end" x="35" y="4.199999999999999" style="font-family: 'Open Sans', verdana, arial, sans-serif; font-size: 12px; fill: rgb(214, 223, 239); fill-opacity: 1; white-space: pre; opacity: 1;" transform="translate(0,117.41)">250</text></g><g class="ytick"><text text-anchor="end" x="35" y="4.199999999999999" style="font-family: 'Open Sans', verdana, arial, sans-serif; font-size: 12px; fill: rgb(214, 223, 239); fill-opacity: 1; white-space: pre; opacity: 1;" transform="translate(0,65.99)">300</text></g></g><g class="overaxes-above"/></g></g><g class="polarlayer"/><g class="ternarylayer"/><g class="geolayer"/><g class="funnelarealayer"/><g class="pielayer"/><g class="iciclelayer"/><g class="treemaplayer"/><g class="sunburstlayer"/><g class="glimages"/><defs id="topdefs-07089c"><g class="clips"/><clipPath id="legend07089c"><rect width="241" height="29" x="0" y="0"/></clipPath></defs><g class="layer-above"><g class="imagelayer"/><g class="shapelayer"/></g><g class="infolayer"><g class="legend" pointer-events="all" transform="translate(429,11.519999999999996)"><rect class="bg" shape-rendering="crispEdges" style="stroke: rgb(68, 68, 68); stroke-opacity: 1; fill: rgb(33, 34, 44); fill-opacity: 1; stroke-width: 0px;" width="241" height="29" x="0" y="0"/><g class="scrollbox" transform="" clip-path="url(#legend07089c)"><g class="groups"><g class="traces" transform="translate(0,14.5)" style="opacity: 1;"><text class="legendtext" text-anchor="start" x="40" y="4.680000000000001" style="font-family: 'Open Sans', verdana, arial, sans-serif; font-size: 12px; fill: rgb(214, 223, 239); fill-opacity: 1; white-space: pre;">OHLC</text><g class="layers" style="opacity: 1;"><g class="legendfill"/><g class="legendlines"/><g class="legendsymbols"><g class="legendpoints"><path class="legendohlc" d="M15,0H0M8,6V0" transform="translate(20,0)" style="stroke-miterlimit: 1; fill: none; stroke-width: 2px; stroke: rgb(217, 95, 2); stroke-opacity: 1;"/><path class="legendohlc" d="M-15,0H0M-8,-6V0" transform="translate(20,0)" style="stroke-miterlimit: 1; fill: none; stroke-width: 2px; stroke: rgb(27, 158, 118); stroke-opacity: 1;"/></g></g></g><rect class="legendtoggle" x="0" y="-9.5" width="76.015625" height="19" style="fill: rgb(0, 0, 0); fill-opacity: 0;"/></g><g class="traces" transform="translate(78.515625,14.5)" style="opacity: 1;"><text class="legendtext" text-anchor="start" x="40" y="4.680000000000001" style="font-family: 'Open Sans', verdana, arial, sans-serif; font-size: 12px; fill: rgb(214, 223, 239); fill-opacity: 1; white-space: pre;">Upper</text><g class="layers" style="opacity: 1;"><g class="legendfill"/><g class="legendlines"><path class="js-line" d="M5,0h30" style="fill: none; stroke: rgb(255, 127, 14); stroke-opacity: 1; stroke-width: 2px;"/></g><g class="legendsymbols"><g class="legendpoints"/></g></g><rect class="legendtoggle" x="0" y="-9.5" width="78.546875" height="19" style="fill: rgb(0, 0, 0); fill-opacity: 0;"/></g><g class="traces" transform="translate(159.5625,14.5)" style="opacity: 1;"><text class="legendtext" text-anchor="start" x="40" y="4.680000000000001" style="font-family: 'Open Sans', verdana, arial, sans-serif; font-size: 12px; fill: rgb(214, 223, 239); fill-opacity: 1; white-space: pre;">Lower</text><g class="layers" style="opacity: 1;"><g class="legendfill"/><g class="legendlines"><path class="js-line" d="M5,0h30" style="fill: none; stroke: rgb(44, 160, 44); stroke-opacity: 1; stroke-width: 2px;"/></g><g class="legendsymbols"><g class="legendpoints"/></g></g><rect class="legendtoggle" x="0" y="-9.5" width="78.59375" height="19" style="fill: rgb(0, 0, 0); fill-opacity: 0;"/></g></g></g><rect class="scrollbar" rx="20" ry="3" width="0" height="0" style="fill: rgb(128, 139, 164); fill-opacity: 1;" x="0" y="0"/></g><g class="g-gtitle"/><g class="g-xtitle"/><g class="g-ytitle"/></g></svg>