<svg class="main-svg" xmlns="http://www.w3.org/2000/svg" xmlns:xlink="http://www.w3.org/1999/xlink" width="700" height="350" style="" viewBox="0 0 700 350"><rect x="0" y="0" width="700" height="350" style="fill: rgb(33, 34, 44); fill-opacity: 1;"/><defs id="defs-c5683d"><g class="clips"><clipPath id="clipc5683dxyplot" class="plotclip"><rect width="618" height="274"/></clipPath><clipPath class="axesclip" id="clipc5683dx"><rect x="41" y="0" width="618" height="350"/></clipPath><clipPath class="axesclip" id="clipc5683dy"><rect x="0" y="46" width="700" height="274"/></clipPath><clipPath class="axesclip" id="clipc5683dxy"><rect x="41" y="46" width="618" height="274"/></clipPath></g><g class="gradients"/><g class="patterns"/></defs><g class="bglayer"/><g class="layer-below"><g class="imagelayer"/><g class="shapelayer"/></g><g class="cartesianlayer"><g class="subplot xy"><g class="layer-subplot"><g class="shapelayer"/><g class="imagelayer"/></g><g class="gridlayer"><g class="x"><path class="xgrid crisp" transform="translate(145.12,0)" d="M0,46v274" style="stroke: rgb(47, 62, 78); stroke-opacity: 1; stroke-width: 1px;"/><path class="xgrid crisp" transform="translate(245.88,0)" d="M0,46v274" style="stroke: rgb(47, 62, 78); stroke-opacity: 1; stroke-width: 1px;"/><path class="xgrid crisp" transform="translate(350,0)" d="M0,46v274" style="stroke: rgb(47, 62, 78); stroke-opacity: 1; stroke-width: 1px;"/><path class="xgrid crisp" transform="translate(450.76,0)" d="M0,46v274" style="stroke: rgb(47, 62, 78); stroke-opacity: 1; stroke-width: 1px;"/><path class="xgrid crisp" transform="translate(554.88,0)" d="M0,46v274" style="stroke: rgb(47, 62, 78); stroke-opacity: 1; stroke-width: 1px;"/></g><g class="y"><path class="ygrid crisp" transform="translate(0,299.95)" d="M41,0h618" style="stroke: rgb(47, 62, 78); stroke-opacity: 1; stroke-width: 1px;"/><path class="ygrid crisp" transform="translate(0,246.65)" d="M41,0h618" style="stroke: rgb(47, 62, 78); stroke-opacity: 1; stroke-width: 1px;"/><path class="ygrid crisp" transform="translate(0,193.36)" d="M41,0h618" style="stroke: rgb(47, 62, 78); stroke-opacity: 1; stroke-width: 1px;"/><path class="ygrid crisp" transform="translate(0,140.07)" d="M41,0h618" style="stroke: rgb(47, 62, 78); stroke-opacity: 1; stroke-width: 1px;"/><path class="ygrid crisp" transform="translate(0,86.78)" d="M41,0h618" style="stroke: rgb(47, 62, 78); stroke-opacity: 1; stroke-width: 1px;"/></g></g><g class="zerolinelayer"/><path class="xlines-below"/><path class="ylines-below"/><g class="overlines-below"/><g class="xaxislayer-below"/><g class="yaxislayer-below"/><g class="overaxes-below"/><g class="plot" transform="translate(41,46)" clip-path="url(#clipc5683dxyplot)"><g class="scatterlayer mlayer"><g class="trace scatter trace4aa046a1-378b-467d-9dff-ea39f655cf56" style="stroke-miterlimit: 2; opacity: 1;"><g class="fills"/><g class="errorbars"/><g class="lines"><path class="js-line" d="M0,257.69L6.72,258.02L10.08,260.3L13.43,256.71L16.79,256.51L23.51,256.58L26.87,254.92L30.23,255.24L33.59,256.47L43.66,255.96L47.02,254.99L50.38,252.65L53.74,253.27L57.1,253.08L60.46,252.05L63.82,251.62L67.17,253.17L77.25,253.36L80.61,254.93L83.97,254.34L87.33,251.63L90.68,252.11L94.04,251.33L100.76,251.14L104.12,249.73L107.48,230.5L110.84,228.02L114.2,229.36L117.55,226.32L120.91,225.71L124.27,222L127.63,219.58L130.99,221.84L134.35,218.65L137.71,225.58L144.42,224.73L147.78,222.83L151.14,225.51L154.5,221.02L157.86,220.59L161.22,219.35L164.58,219.21L167.93,218.3L171.29,218.92L174.65,216.66L178.01,212.05L181.37,214.91L184.73,221.69L188.09,219.86L198.16,220.71L201.52,217.96L204.88,216.57L208.24,213.84L211.6,206.83L214.96,205.15L221.67,207.4L225.03,205.2L231.75,196L235.11,190.56L238.47,168.55L241.83,174.74L245.18,152.29L248.54,147.51L251.9,141.9L255.26,150.43L258.62,164.85L261.98,166.78L265.34,142.09L268.7,147.94L272.05,148.34L275.41,155.89L278.77,150.51L282.13,147.7L285.49,145.96L288.85,129.42L292.21,125.89L295.57,128.18L298.92,129.79L302.28,138.85L305.64,132.05L309,132.33L312.36,127.57L315.72,141.79L319.08,155.15L322.43,152.05L325.79,152.1L329.15,146.19L332.51,148.58L335.87,155.67L339.23,147.35L342.59,149.29L345.95,143.48L349.3,141.21L352.66,128.87L356.02,125.02L359.38,120.86L362.74,112.18L366.1,118.54L369.46,113.43L372.82,106.67L376.17,90.22L379.53,75.37L382.89,71.28L386.25,67.13L389.61,46.35L392.97,13.7L396.33,62.55L399.68,29.92L403.04,41.86L406.4,72.3L409.76,78.53L413.12,72.71L416.48,41.81L419.84,61.68L423.2,68L429.91,55.41L433.27,33.16L436.63,25.49L439.99,36.61L443.35,57.87L446.71,45.68L450.07,56.97L453.42,87.25L456.78,70.22L460.14,107.99L463.5,102.23L466.86,76.31L470.22,79.93L473.58,73.63L476.93,78.11L480.29,84.93L483.65,96.71L487.01,99.08L490.37,96.42L493.73,97.53L497.09,107.99L500.45,105.98L503.8,106.88L507.16,104.53L510.52,91.79L513.88,83.42L517.24,80.26L520.6,72.17L523.96,68.22L527.32,45.96L530.67,54.68L534.03,42.32L537.39,41.67L540.75,44.43L544.11,57.99L547.47,53.47L550.83,57.23L554.18,70.2L557.54,92.69L560.9,85.77L564.26,84.1L567.62,87.9L570.98,84.86L574.34,69.66L577.7,73.73L581.05,90.39L584.41,90.58L587.77,83.2L591.13,89.81L594.49,90.38L597.85,84.19L601.21,89.13L604.57,100.61L607.92,107.12L611.28,104.78L614.64,103.91L618,100.52" style="vector-effect: non-scaling-stroke; fill: none; stroke: rgb(31, 119, 180); stroke-opacity: 1; stroke-width: 2px; opacity: 1;"/></g><g class="points"/><g class="text"/></g><g class="trace scatter tracedc1f071d-3275-4c3a-a2b8-81a0cb245e2a" style="stroke-miterlimit: 2; opacity: 1;"><g class="fills"/><g class="errorbars"/><g class="lines"><path class="js-line" d="M30.23,256.98L50.38,255.59L53.74,255.29L80.61,253.04L83.97,253.21L104.12,252.27L107.48,250.02L124.27,236.52L127.63,233.35L137.71,224.76L141.07,224.2L164.58,222.24L167.93,222.2L174.65,220.71L178.01,219.44L184.73,218.27L188.09,218.15L208.24,217.74L211.6,217.22L218.32,214.69L221.67,213.44L228.39,210.09L231.75,207.62L235.11,204.88L238.47,200.08L241.83,196.17L245.18,190.71L255.26,172.83L258.62,168.8L261.98,165.36L265.34,159.97L268.7,155.71L272.05,153.69L275.41,151.8L278.77,151.62L285.49,152.05L288.85,149.95L295.57,142.19L298.92,140.96L305.64,138.42L309,136.07L312.36,133.77L315.72,133.18L319.08,134.1L322.43,136.37L329.15,140.79L332.51,142.67L345.95,149.17L349.3,149.11L359.38,140.65L362.74,137.25L366.1,134.25L369.46,130.02L372.82,125.96L376.17,120.05L389.61,92.2L392.97,81.49L396.33,76.52L399.68,67.66L403.04,60.51L406.4,57.07L409.76,55.9L413.12,55.63L416.48,52.69L419.84,52.14L423.2,54.31L426.55,59.12L429.91,58.41L433.27,58.73L436.63,57.1L439.99,53.53L446.71,48.76L450.07,50.27L453.42,52.83L456.78,53.05L473.58,75.81L476.93,77.83L483.65,85.73L487.01,86.91L490.37,89.53L493.73,88.49L497.09,89.06L500.45,92.03L507.16,97.82L510.52,99.18L513.88,99.03L517.24,97.39L523.96,91.88L527.32,86.72L534.03,75.02L537.39,68.5L540.75,62.49L544.11,59.11L550.83,53.82L554.18,53.62L557.54,56.07L560.9,60.05L564.26,62.99L567.62,67.55L570.98,71.86L574.34,74.39L577.7,75.96L581.05,79.65L584.41,82.99L587.77,84.29L594.49,84.46L597.85,84.47L601.21,84.59L604.57,86.17L611.28,93.02L614.64,94.37L618,95.36" style="vector-effect: non-scaling-stroke; fill: none; stroke: rgb(108, 166, 205); stroke-opacity: 1; stroke-width: 2px; opacity: 1;"/></g><g class="points"/><g class="text"/></g></g></g><g class="overplot"/><path class="xlines-above crisp" d="M0,0" style="fill: none;"/><path class="ylines-above crisp" d="M0,0" style="fill: none;"/><g class="overlines-above"/><g class="xaxislayer-above"><g class="xtick"><text text-anchor="middle" x="0" y="333" transform="translate(41,0)" style="font-family: 'Open Sans', verdana, arial, sans-serif; font-size: 12px; fill: rgb(214, 223, 239); fill-opacity: 1; white-space: pre; opacity: 1;">Mar 2019</text></g><g class="xtick"><text text-anchor="middle" x="0" y="333" style="font-family: 'Open Sans', verdana, arial, sans-serif; font-size: 12px; fill: rgb(214, 223, 239); fill-opacity: 1; white-space: pre; opacity: 1;" transform="translate(145.12,0)">Apr 2019</text></g><g class="xtick"><text text-anchor="middle" x="0" y="333" style="font-family: 'Open Sans', verdana, arial, sans-serif; font-size: 12px; fill: rgb(214, 223, 239); fill-opacity: 1; white-space: pre; opacity: 1;" transform="translate(245.88,0)">May 2019</text></g><g class="xtick"><text text-anchor="middle" x="0" y="333" style="font-family: 'Open Sans', verdana, arial, sans-serif; font-size: 12px; fill: rgb(214, 223, 239); fill-opacity: 1; white-space: pre; opacity: 1;" transform="translate(350,0)">Jun 2019</text></g><g class="xtick"><text text-anchor="middle" x="0" y="333" style="font-family: 'Open Sans', verdana, arial, sans-serif; font-size: 12px; fill: rgb(214, 223, 239); fill-opacity: 1; white-space: pre; opacity: 1;" transform="translate(450.76,0)">Jul 2019</text></g><g class="xtick"><text text-anchor="middle" x="0" y="333" style="font-family: 'Open Sans', verdana, arial, sans-serif; font-size: 12px; fill: rgb(214, 223, 239); fill-opacity: 1; white-space: pre; opacity: 1;" transform="translate(554.88,0)">Aug 2019</text></g><g class="xtick"><text text-anchor="middle" x="0" y="333" style="font-family: 'Open Sans', verdana, arial, sans-serif; font-size: 12px; fill: rgb(214, 223, 239); fill-opacity: 1; white-space: pre; opacity: 1;" transform="translate(659,0)">Sep 2019</text></g></g><g class="yaxislayer-above"><g class="ytick"><text text-anchor="end" x="40" y="4.199999999999999" transform="translate(0,299.95)" style="font-family: 'Open Sans', verdana, arial, sans-serif; font-size: 12px; fill: rgb(214, 223, 239); fill-opacity: 1; white-space: pre; opacity: 1;">4k</text></g><g class="ytick"><text text-anchor="end" x="40" y="4.199999999999999" style="font-family: 'Open Sans', verdana, arial, sans-serif; font-size: 12px; fill: rgb(214, 223, 239); fill-opacity: 1; white-space: pre; opacity: 1;" transform="translate(0,246.65)">6k</text></g><g class="ytick"><text text-anchor="end" x="40" y="4.199999999999999" style="font-family: 'Open Sans', verdana, arial, sans-serif; font-size: 12px; fill: rgb(214, 223, 239); fill-opacity: 1; white-space: pre; opacity: 1;" transform="translate(0,193.36)">8k</text></g><g class="ytick"><text text-anchor="end" x="40" y="4.199999999999999" style="font-family: 'Open Sans', verdana, arial, sans-serif; font-size: 12px; fill: rgb(214, 223, 239); fill-opacity: 1; white-space: pre; opacity: 1;" transform="translate(0,140.07)">10k</text></g><g class="ytick"><text text-anchor="end" x="40" y="4.199999999999999" style="font-family: 'Open Sans', verdana, arial, sans-serif; font-size: 12px; fill: rgb(214, 223, 239); fill-opacity: 1; white-space: pre; opacity: 1;" transform="translate(0,86.78)">12k</text></g></g><g class="overaxes-above"/></g></g><g class="polarlayer"/><g class="smithlayer"/><g class="ternarylayer"/><g class="geolayer"/><g class="funnelarealayer"/><g class="pielayer"/><g class="iciclelayer"/><g class="treemaplayer"/><g class="sunburstlayer"/><g class="glimages"/><defs id="topdefs-c5683d"><g class="clips"/><clipPath id="legendc5683d"><rect width="141" height="29" x="0" y="0"/></clipPath></defs><g class="layer-above"><g class="imagelayer"/><g class="shapelayer"/></g><g class="infolayer"><g class="legend" pointer-events="all" transform="translate(518,11.519999999999996)"><rect class="bg" shape-rendering="crispEdges" style="stroke: rgb(68, 68, 68); stroke-opacity: 1; fill: rgb(33, 34, 44); fill-opacity: 1; stroke-width: 0px;" width="141" height="29" x="0" y="0"/><g class="scrollbox" transform="" clip-path="url(#legendc5683d)"><g class="groups"><g class="traces" transform="translate(0,14.5)" style="opacity: 1;"><text class="legendtext" text-anchor="start" x="40" y="4.680000000000001" style="font-family: 'Open Sans', verdana, arial, sans-serif; font-size: 12px; fill: rgb(214, 223, 239); fill-opacity: 1; white-space: pre;">Close</text><g class="layers" style="opacity: 1;"><g class="legendfill"/><g class="legendlines"><path class="js-line" d="M5,0h30" style="fill: none; stroke: rgb(31, 119, 180); stroke-opacity: 1; stroke-width: 2px;"/></g><g class="legendsymbols"><g class="legendpoints"/></g></g><rect class="legendtoggle" x="0" y="-9.5" width="74.859375" height="19" style="fill: rgb(0, 0, 0); fill-opacity: 0;"/></g><g class="traces" transform="translate(77.359375,14.5)" style="opacity: 1;"><text class="legendtext" text-anchor="start" x="40" y="4.680000000000001" style="font-family: 'Open Sans', verdana, arial, sans-serif; font-size: 12px; fill: rgb(214, 223, 239); fill-opacity: 1; white-space: pre;">MA</text><g class="layers" style="opacity: 1;"><g class="legendfill"/><g class="legendlines"><path class="js-line" d="M5,0h30" style="fill: none; stroke: rgb(108, 166, 205); stroke-opacity: 1; stroke-width: 2px;"/></g><g class="legendsymbols"><g class="legendpoints"/></g></g><rect class="legendtoggle" x="0" y="-9.5" width="60.828125" height="19" style="fill: rgb(0, 0, 0); fill-opacity: 0;"/></g></g></g><rect class="scrollbar" rx="20" ry="3" width="0" height="0" style="fill: rgb(128, 139, 164); fill-opacity: 1;" x="0" y="0"/></g><g class="g-gtitle"/><g class="g-xtitle"/><g class="g-ytitle"/></g></svg>