<svg class="main-svg" xmlns="http://www.w3.org/2000/svg" xmlns:xlink="http://www.w3.org/1999/xlink" width="700" height="350" viewBox="0 0 700 350"><rect x="0" y="0" width="700" height="350" style="fill: rgb(33, 34, 44); fill-opacity: 1;"/><defs id="defs-313ba5"><g class="clips"><clipPath id="clip313ba5xyplot" class="plotclip"><rect width="624" height="274"/></clipPath><clipPath class="axesclip" id="clip313ba5x"><rect x="46" y="0" width="624" height="350"/></clipPath><clipPath class="axesclip" id="clip313ba5y"><rect x="0" y="46" width="700" height="274"/></clipPath><clipPath class="axesclip" id="clip313ba5xy"><rect x="46" y="46" width="624" height="274"/></clipPath></g><g class="gradients"/><g class="patterns"/></defs><g class="bglayer"/><g class="layer-below"><g class="imagelayer"/><g class="shapelayer"/></g><g class="cartesianlayer"><g class="subplot xy"><g class="layer-subplot"><g class="shapelayer"/><g class="imagelayer"/></g><g class="gridlayer"><g class="x"/><g class="y"><path class="ygrid crisp" transform="translate(0,280)" d="M46,0h624" style="stroke: rgb(47, 62, 78); stroke-opacity: 1; stroke-width: 1px;"/><path class="ygrid crisp" transform="translate(0,168.38)" d="M46,0h624" style="stroke: rgb(47, 62, 78); stroke-opacity: 1; stroke-width: 1px;"/><path class="ygrid crisp" transform="translate(0,112.57)" d="M46,0h624" style="stroke: rgb(47, 62, 78); stroke-opacity: 1; stroke-width: 1px;"/><path class="ygrid crisp" transform="translate(0,56.76)" d="M46,0h624" style="stroke: rgb(47, 62, 78); stroke-opacity: 1; stroke-width: 1px;"/></g></g><g class="zerolinelayer"><path class="yzl zl crisp" transform="translate(0,224.19)" d="M46,0h624" style="stroke: rgb(47, 62, 78); stroke-opacity: 1; stroke-width: 2px;"/></g><path class="xlines-below"/><path class="ylines-below"/><g class="overlines-below"/><g class="xaxislayer-below"/><g class="yaxislayer-below"/><g class="overaxes-below"/><g class="plot" transform="translate(46,46)" clip-path="url(#clip313ba5xyplot)"><g class="barlayer mlayer"><g class="trace bars" shape-rendering="crispEdges" style="opacity: 1;"><g class="points"><g class="point"><path d="M0,0Z" style="vector-effect: non-scaling-stroke; opacity: 1; stroke-width: 0px; fill: rgb(192, 192, 192); fill-opacity: 0.75;"/></g><g class="point"><path d="M0,0Z" style="vector-effect: non-scaling-stroke; opacity: 1; stroke-width: 0px; fill: rgb(192, 192, 192); fill-opacity: 0.75;"/></g><g class="point"><path d="M0,0Z" style="vector-effect: non-scaling-stroke; opacity: 1; stroke-width: 0px; fill: rgb(192, 192, 192); fill-opacity: 0.75;"/></g><g class="point"><path d="M0,0Z" style="vector-effect: non-scaling-stroke; opacity: 1; stroke-width: 0px; fill: rgb(192, 192, 192); fill-opacity: 0.75;"/></g><g class="point"><path d="M0,0Z" style="vector-effect: non-scaling-stroke; opacity: 1; stroke-width: 0px; fill: rgb(192, 192, 192); fill-opacity: 0.75;"/></g><g class="point"><path d="M0,0Z" style="vector-effect: non-scaling-stroke; opacity: 1; stroke-width: 0px; fill: rgb(192, 192, 192); fill-opacity: 0.75;"/></g><g class="point"><path d="M0,0Z" style="vector-effect: non-scaling-stroke; opacity: 1; stroke-width: 0px; fill: rgb(192, 192, 192); fill-opacity: 0.75;"/></g><g class="point"><path d="M0,0Z" style="vector-effect: non-scaling-stroke; opacity: 1; stroke-width: 0px; fill: rgb(192, 192, 192); fill-opacity: 0.75;"/></g><g class="point"><path d="M0,0Z" style="vector-effect: non-scaling-stroke; opacity: 1; stroke-width: 0px; fill: rgb(192, 192, 192); fill-opacity: 0.75;"/></g><g class="point"><path d="M0,0Z" style="vector-effect: non-scaling-stroke; opacity: 1; stroke-width: 0px; fill: rgb(192, 192, 192); fill-opacity: 0.75;"/></g><g class="point"><path d="M0,0Z" style="vector-effect: non-scaling-stroke; opacity: 1; stroke-width: 0px; fill: rgb(192, 192, 192); fill-opacity: 0.75;"/></g><g class="point"><path d="M0,0Z" style="vector-effect: non-scaling-stroke; opacity: 1; stroke-width: 0px; fill: rgb(192, 192, 192); fill-opacity: 0.75;"/></g><g class="point"><path d="M0,0Z" style="vector-effect: non-scaling-stroke; opacity: 1; stroke-width: 0px; fill: rgb(192, 192, 192); fill-opacity: 0.75;"/></g><g class="point"><path d="M0,0Z" style="vector-effect: non-scaling-stroke; opacity: 1; stroke-width: 0px; fill: rgb(192, 192, 192); fill-opacity: 0.75;"/></g><g class="point"><path d="M0,0Z" style="vector-effect: non-scaling-stroke; opacity: 1; stroke-width: 0px; fill: rgb(192, 192, 192); fill-opacity: 0.75;"/></g><g class="point"><path d="M0,0Z" style="vector-effect: non-scaling-stroke; opacity: 1; stroke-width: 0px; fill: rgb(192, 192, 192); fill-opacity: 0.75;"/></g><g class="point"><path d="M0,0Z" style="vector-effect: non-scaling-stroke; opacity: 1; stroke-width: 0px; fill: rgb(192, 192, 192); fill-opacity: 0.75;"/></g><g class="point"><path d="M0,0Z" style="vector-effect: non-scaling-stroke; opacity: 1; stroke-width: 0px; fill: rgb(192, 192, 192); fill-opacity: 0.75;"/></g><g class="point"><path d="M0,0Z" style="vector-effect: non-scaling-stroke; opacity: 1; stroke-width: 0px; fill: rgb(192, 192, 192); fill-opacity: 0.75;"/></g><g class="point"><path d="M0,0Z" style="vector-effect: non-scaling-stroke; opacity: 1; stroke-width: 0px; fill: rgb(192, 192, 192); fill-opacity: 0.75;"/></g><g class="point"><path d="M0,0Z" style="vector-effect: non-scaling-stroke; opacity: 1; stroke-width: 0px; fill: rgb(192, 192, 192); fill-opacity: 0.75;"/></g><g class="point"><path d="M0,0Z" style="vector-effect: non-scaling-stroke; opacity: 1; stroke-width: 0px; fill: rgb(192, 192, 192); fill-opacity: 0.75;"/></g><g class="point"><path d="M0,0Z" style="vector-effect: non-scaling-stroke; opacity: 1; stroke-width: 0px; fill: rgb(192, 192, 192); fill-opacity: 0.75;"/></g><g class="point"><path d="M0,0Z" style="vector-effect: non-scaling-stroke; opacity: 1; stroke-width: 0px; fill: rgb(192, 192, 192); fill-opacity: 0.75;"/></g><g class="point"><path d="M0,0Z" style="vector-effect: non-scaling-stroke; opacity: 1; stroke-width: 0px; fill: rgb(192, 192, 192); fill-opacity: 0.75;"/></g><g class="point"><path d="M0,0Z" style="vector-effect: non-scaling-stroke; opacity: 1; stroke-width: 0px; fill: rgb(192, 192, 192); fill-opacity: 0.75;"/></g><g class="point"><path d="M0,0Z" style="vector-effect: non-scaling-stroke; opacity: 1; stroke-width: 0px; fill: rgb(192, 192, 192); fill-opacity: 0.75;"/></g><g class="point"><path d="M0,0Z" style="vector-effect: non-scaling-stroke; opacity: 1; stroke-width: 0px; fill: rgb(192, 192, 192); fill-opacity: 0.75;"/></g><g class="point"><path d="M0,0Z" style="vector-effect: non-scaling-stroke; opacity: 1; stroke-width: 0px; fill: rgb(192, 192, 192); fill-opacity: 0.75;"/></g><g class="point"><path d="M0,0Z" style="vector-effect: non-scaling-stroke; opacity: 1; stroke-width: 0px; fill: rgb(192, 192, 192); fill-opacity: 0.75;"/></g><g class="point"><path d="M0,0Z" style="vector-effect: non-scaling-stroke; opacity: 1; stroke-width: 0px; fill: rgb(192, 192, 192); fill-opacity: 0.75;"/></g><g class="point"><path d="M0,0Z" style="vector-effect: non-scaling-stroke; opacity: 1; stroke-width: 0px; fill: rgb(192, 192, 192); fill-opacity: 0.75;"/></g><g class="point"><path d="M0,0Z" style="vector-effect: non-scaling-stroke; opacity: 1; stroke-width: 0px; fill: rgb(192, 192, 192); fill-opacity: 0.75;"/></g><g class="point"><path d="M111.91,178.19V172.74H115.3V178.19Z" style="vector-effect: non-scaling-stroke; opacity: 1; stroke-width: 0px; fill: rgb(192, 192, 192); fill-opacity: 0.75;"/></g><g class="point"><path d="M115.3,178.19V169.66H118.7V178.19Z" style="vector-effect: non-scaling-stroke; opacity: 1; stroke-width: 0px; fill: rgb(0, 128, 0); fill-opacity: 0.75;"/></g><g class="point"><path d="M118.7,178.19V166.43H122.09V178.19Z" style="vector-effect: non-scaling-stroke; opacity: 1; stroke-width: 0px; fill: rgb(0, 128, 0); fill-opacity: 0.75;"/></g><g class="point"><path d="M122.09,178.19V163.4H125.48V178.19Z" style="vector-effect: non-scaling-stroke; opacity: 1; stroke-width: 0px; fill: rgb(0, 128, 0); fill-opacity: 0.75;"/></g><g class="point"><path d="M125.48,178.19V160.55H128.87V178.19Z" style="vector-effect: non-scaling-stroke; opacity: 1; stroke-width: 0px; fill: rgb(0, 128, 0); fill-opacity: 0.75;"/></g><g class="point"><path d="M128.87,178.19V158.87H132.26V178.19Z" style="vector-effect: non-scaling-stroke; opacity: 1; stroke-width: 0px; fill: rgb(0, 128, 0); fill-opacity: 0.75;"/></g><g class="point"><path d="M132.26,178.19V158H135.65V178.19Z" style="vector-effect: non-scaling-stroke; opacity: 1; stroke-width: 0px; fill: rgb(0, 128, 0); fill-opacity: 0.75;"/></g><g class="point"><path d="M135.65,178.19V157.31H139.04V178.19Z" style="vector-effect: non-scaling-stroke; opacity: 1; stroke-width: 0px; fill: rgb(0, 128, 0); fill-opacity: 0.75;"/></g><g class="point"><path d="M139.04,178.19V157.71H142.43V178.19Z" style="vector-effect: non-scaling-stroke; opacity: 1; stroke-width: 0px; fill: rgb(144, 238, 144); fill-opacity: 0.75;"/></g><g class="point"><path d="M142.43,178.19V158.11H145.83V178.19Z" style="vector-effect: non-scaling-stroke; opacity: 1; stroke-width: 0px; fill: rgb(144, 238, 144); fill-opacity: 0.75;"/></g><g class="point"><path d="M145.83,178.19V158.95H149.22V178.19Z" style="vector-effect: non-scaling-stroke; opacity: 1; stroke-width: 0px; fill: rgb(144, 238, 144); fill-opacity: 0.75;"/></g><g class="point"><path d="M149.22,178.19V165.21H152.61V178.19Z" style="vector-effect: non-scaling-stroke; opacity: 1; stroke-width: 0px; fill: rgb(144, 238, 144); fill-opacity: 0.75;"/></g><g class="point"><path d="M152.61,178.19V171.83H156V178.19Z" style="vector-effect: non-scaling-stroke; opacity: 1; stroke-width: 0px; fill: rgb(144, 238, 144); fill-opacity: 0.75;"/></g><g class="point"><path d="M156,178.19V176.49H159.39V178.19Z" style="vector-effect: non-scaling-stroke; opacity: 1; stroke-width: 0px; fill: rgb(144, 238, 144); fill-opacity: 0.75;"/></g><g class="point"><path d="M159.39,178.19V181.21H162.78V178.19Z" style="vector-effect: non-scaling-stroke; opacity: 1; stroke-width: 0px; fill: rgb(255, 0, 0); fill-opacity: 0.75;"/></g><g class="point"><path d="M162.78,178.19V184.93H166.17V178.19Z" style="vector-effect: non-scaling-stroke; opacity: 1; stroke-width: 0px; fill: rgb(255, 0, 0); fill-opacity: 0.75;"/></g><g class="point"><path d="M166.17,178.19V188.87H169.57V178.19Z" style="vector-effect: non-scaling-stroke; opacity: 1; stroke-width: 0px; fill: rgb(255, 0, 0); fill-opacity: 0.75;"/></g><g class="point"><path d="M169.57,178.19V192.62H172.96V178.19Z" style="vector-effect: non-scaling-stroke; opacity: 1; stroke-width: 0px; fill: rgb(255, 0, 0); fill-opacity: 0.75;"/></g><g class="point"><path d="M172.96,178.19V194.57H176.35V178.19Z" style="vector-effect: non-scaling-stroke; opacity: 1; stroke-width: 0px; fill: rgb(255, 0, 0); fill-opacity: 0.75;"/></g><g class="point"><path d="M176.35,178.19V195.77H179.74V178.19Z" style="vector-effect: non-scaling-stroke; opacity: 1; stroke-width: 0px; fill: rgb(255, 0, 0); fill-opacity: 0.75;"/></g><g class="point"><path d="M179.74,178.19V193.78H183.13V178.19Z" style="vector-effect: non-scaling-stroke; opacity: 1; stroke-width: 0px; fill: rgb(240, 128, 128); fill-opacity: 0.75;"/></g><g class="point"><path d="M183.13,178.19V192.55H186.52V178.19Z" style="vector-effect: non-scaling-stroke; opacity: 1; stroke-width: 0px; fill: rgb(240, 128, 128); fill-opacity: 0.75;"/></g><g class="point"><path d="M186.52,178.19V192.47H189.91V178.19Z" style="vector-effect: non-scaling-stroke; opacity: 1; stroke-width: 0px; fill: rgb(240, 128, 128); fill-opacity: 0.75;"/></g><g class="point"><path d="M189.91,178.19V192.63H193.3V178.19Z" style="vector-effect: non-scaling-stroke; opacity: 1; stroke-width: 0px; fill: rgb(255, 0, 0); fill-opacity: 0.75;"/></g><g class="point"><path d="M193.3,178.19V191.71H196.7V178.19Z" style="vector-effect: non-scaling-stroke; opacity: 1; stroke-width: 0px; fill: rgb(240, 128, 128); fill-opacity: 0.75;"/></g><g class="point"><path d="M196.7,178.19V189.54H200.09V178.19Z" style="vector-effect: non-scaling-stroke; opacity: 1; stroke-width: 0px; fill: rgb(240, 128, 128); fill-opacity: 0.75;"/></g><g class="point"><path d="M200.09,178.19V187.78H203.48V178.19Z" style="vector-effect: non-scaling-stroke; opacity: 1; stroke-width: 0px; fill: rgb(240, 128, 128); fill-opacity: 0.75;"/></g><g class="point"><path d="M203.48,178.19V186.53H206.87V178.19Z" style="vector-effect: non-scaling-stroke; opacity: 1; stroke-width: 0px; fill: rgb(240, 128, 128); fill-opacity: 0.75;"/></g><g class="point"><path d="M206.87,178.19V185.05H210.26V178.19Z" style="vector-effect: non-scaling-stroke; opacity: 1; stroke-width: 0px; fill: rgb(240, 128, 128); fill-opacity: 0.75;"/></g><g class="point"><path d="M210.26,178.19V183.42H213.65V178.19Z" style="vector-effect: non-scaling-stroke; opacity: 1; stroke-width: 0px; fill: rgb(240, 128, 128); fill-opacity: 0.75;"/></g><g class="point"><path d="M213.65,178.19V180.13H217.04V178.19Z" style="vector-effect: non-scaling-stroke; opacity: 1; stroke-width: 0px; fill: rgb(240, 128, 128); fill-opacity: 0.75;"/></g><g class="point"><path d="M217.04,178.19V177.52H220.43V178.19Z" style="vector-effect: non-scaling-stroke; opacity: 1; stroke-width: 0px; fill: rgb(0, 128, 0); fill-opacity: 0.75;"/></g><g class="point"><path d="M220.43,178.19V177.45H223.83V178.19Z" style="vector-effect: non-scaling-stroke; opacity: 1; stroke-width: 0px; fill: rgb(0, 128, 0); fill-opacity: 0.75;"/></g><g class="point"><path d="M223.83,178.19V176.52H227.22V178.19Z" style="vector-effect: non-scaling-stroke; opacity: 1; stroke-width: 0px; fill: rgb(0, 128, 0); fill-opacity: 0.75;"/></g><g class="point"><path d="M227.22,178.19V174.35H230.61V178.19Z" style="vector-effect: non-scaling-stroke; opacity: 1; stroke-width: 0px; fill: rgb(0, 128, 0); fill-opacity: 0.75;"/></g><g class="point"><path d="M230.61,178.19V172.38H234V178.19Z" style="vector-effect: non-scaling-stroke; opacity: 1; stroke-width: 0px; fill: rgb(0, 128, 0); fill-opacity: 0.75;"/></g><g class="point"><path d="M234,178.19V169.89H237.39V178.19Z" style="vector-effect: non-scaling-stroke; opacity: 1; stroke-width: 0px; fill: rgb(0, 128, 0); fill-opacity: 0.75;"/></g><g class="point"><path d="M237.39,178.19V166.85H240.78V178.19Z" style="vector-effect: non-scaling-stroke; opacity: 1; stroke-width: 0px; fill: rgb(0, 128, 0); fill-opacity: 0.75;"/></g><g class="point"><path d="M240.78,178.19V160.8H244.17V178.19Z" style="vector-effect: non-scaling-stroke; opacity: 1; stroke-width: 0px; fill: rgb(0, 128, 0); fill-opacity: 0.75;"/></g><g class="point"><path d="M244.17,178.19V156.8H247.57V178.19Z" style="vector-effect: non-scaling-stroke; opacity: 1; stroke-width: 0px; fill: rgb(0, 128, 0); fill-opacity: 0.75;"/></g><g class="point"><path d="M247.57,178.19V150.08H250.96V178.19Z" style="vector-effect: non-scaling-stroke; opacity: 1; stroke-width: 0px; fill: rgb(0, 128, 0); fill-opacity: 0.75;"/></g><g class="point"><path d="M250.96,178.19V144.55H254.35V178.19Z" style="vector-effect: non-scaling-stroke; opacity: 1; stroke-width: 0px; fill: rgb(0, 128, 0); fill-opacity: 0.75;"/></g><g class="point"><path d="M254.35,178.19V141.43H257.74V178.19Z" style="vector-effect: non-scaling-stroke; opacity: 1; stroke-width: 0px; fill: rgb(0, 128, 0); fill-opacity: 0.75;"/></g><g class="point"><path d="M257.74,178.19V140.99H261.13V178.19Z" style="vector-effect: non-scaling-stroke; opacity: 1; stroke-width: 0px; fill: rgb(0, 128, 0); fill-opacity: 0.75;"/></g><g class="point"><path d="M261.13,178.19V143.36H264.52V178.19Z" style="vector-effect: non-scaling-stroke; opacity: 1; stroke-width: 0px; fill: rgb(144, 238, 144); fill-opacity: 0.75;"/></g><g class="point"><path d="M264.52,178.19V145.53H267.91V178.19Z" style="vector-effect: non-scaling-stroke; opacity: 1; stroke-width: 0px; fill: rgb(144, 238, 144); fill-opacity: 0.75;"/></g><g class="point"><path d="M267.91,178.19V143.73H271.3V178.19Z" style="vector-effect: non-scaling-stroke; opacity: 1; stroke-width: 0px; fill: rgb(0, 128, 0); fill-opacity: 0.75;"/></g><g class="point"><path d="M271.3,178.19V144.78H274.7V178.19Z" style="vector-effect: non-scaling-stroke; opacity: 1; stroke-width: 0px; fill: rgb(144, 238, 144); fill-opacity: 0.75;"/></g><g class="point"><path d="M274.7,178.19V148.47H278.09V178.19Z" style="vector-effect: non-scaling-stroke; opacity: 1; stroke-width: 0px; fill: rgb(144, 238, 144); fill-opacity: 0.75;"/></g><g class="point"><path d="M278.09,178.19V154.11H281.48V178.19Z" style="vector-effect: non-scaling-stroke; opacity: 1; stroke-width: 0px; fill: rgb(144, 238, 144); fill-opacity: 0.75;"/></g><g class="point"><path d="M281.48,178.19V164.64H284.87V178.19Z" style="vector-effect: non-scaling-stroke; opacity: 1; stroke-width: 0px; fill: rgb(144, 238, 144); fill-opacity: 0.75;"/></g><g class="point"><path d="M284.87,178.19V171.03H288.26V178.19Z" style="vector-effect: non-scaling-stroke; opacity: 1; stroke-width: 0px; fill: rgb(144, 238, 144); fill-opacity: 0.75;"/></g><g class="point"><path d="M288.26,178.19V183.09H291.65V178.19Z" style="vector-effect: non-scaling-stroke; opacity: 1; stroke-width: 0px; fill: rgb(255, 0, 0); fill-opacity: 0.75;"/></g><g class="point"><path d="M291.65,178.19V191.75H295.04V178.19Z" style="vector-effect: non-scaling-stroke; opacity: 1; stroke-width: 0px; fill: rgb(255, 0, 0); fill-opacity: 0.75;"/></g><g class="point"><path d="M295.04,178.19V199.8H298.43V178.19Z" style="vector-effect: non-scaling-stroke; opacity: 1; stroke-width: 0px; fill: rgb(255, 0, 0); fill-opacity: 0.75;"/></g><g class="point"><path d="M298.43,178.19V203H301.83V178.19Z" style="vector-effect: non-scaling-stroke; opacity: 1; stroke-width: 0px; fill: rgb(255, 0, 0); fill-opacity: 0.75;"/></g><g class="point"><path d="M301.83,178.19V199.46H305.22V178.19Z" style="vector-effect: non-scaling-stroke; opacity: 1; stroke-width: 0px; fill: rgb(240, 128, 128); fill-opacity: 0.75;"/></g><g class="point"><path d="M305.22,178.19V196.03H308.61V178.19Z" style="vector-effect: non-scaling-stroke; opacity: 1; stroke-width: 0px; fill: rgb(240, 128, 128); fill-opacity: 0.75;"/></g><g class="point"><path d="M308.61,178.19V198.96H312V178.19Z" style="vector-effect: non-scaling-stroke; opacity: 1; stroke-width: 0px; fill: rgb(255, 0, 0); fill-opacity: 0.75;"/></g><g class="point"><path d="M312,178.19V199.92H315.39V178.19Z" style="vector-effect: non-scaling-stroke; opacity: 1; stroke-width: 0px; fill: rgb(255, 0, 0); fill-opacity: 0.75;"/></g><g class="point"><path d="M315.39,178.19V199.15H318.78V178.19Z" style="vector-effect: non-scaling-stroke; opacity: 1; stroke-width: 0px; fill: rgb(240, 128, 128); fill-opacity: 0.75;"/></g><g class="point"><path d="M318.78,178.19V198.33H322.17V178.19Z" style="vector-effect: non-scaling-stroke; opacity: 1; stroke-width: 0px; fill: rgb(240, 128, 128); fill-opacity: 0.75;"/></g><g class="point"><path d="M322.17,178.19V201.05H325.57V178.19Z" style="vector-effect: non-scaling-stroke; opacity: 1; stroke-width: 0px; fill: rgb(255, 0, 0); fill-opacity: 0.75;"/></g><g class="point"><path d="M325.57,178.19V203.44H328.96V178.19Z" style="vector-effect: non-scaling-stroke; opacity: 1; stroke-width: 0px; fill: rgb(255, 0, 0); fill-opacity: 0.75;"/></g><g class="point"><path d="M328.96,178.19V203.03H332.35V178.19Z" style="vector-effect: non-scaling-stroke; opacity: 1; stroke-width: 0px; fill: rgb(240, 128, 128); fill-opacity: 0.75;"/></g><g class="point"><path d="M332.35,178.19V207.15H335.74V178.19Z" style="vector-effect: non-scaling-stroke; opacity: 1; stroke-width: 0px; fill: rgb(255, 0, 0); fill-opacity: 0.75;"/></g><g class="point"><path d="M335.74,178.19V208.48H339.13V178.19Z" style="vector-effect: non-scaling-stroke; opacity: 1; stroke-width: 0px; fill: rgb(255, 0, 0); fill-opacity: 0.75;"/></g><g class="point"><path d="M339.13,178.19V209.6H342.52V178.19Z" style="vector-effect: non-scaling-stroke; opacity: 1; stroke-width: 0px; fill: rgb(255, 0, 0); fill-opacity: 0.75;"/></g><g class="point"><path d="M342.52,178.19V207.83H345.91V178.19Z" style="vector-effect: non-scaling-stroke; opacity: 1; stroke-width: 0px; fill: rgb(240, 128, 128); fill-opacity: 0.75;"/></g><g class="point"><path d="M345.91,178.19V204.81H349.3V178.19Z" style="vector-effect: non-scaling-stroke; opacity: 1; stroke-width: 0px; fill: rgb(240, 128, 128); fill-opacity: 0.75;"/></g><g class="point"><path d="M349.3,178.19V205.07H352.7V178.19Z" style="vector-effect: non-scaling-stroke; opacity: 1; stroke-width: 0px; fill: rgb(255, 0, 0); fill-opacity: 0.75;"/></g><g class="point"><path d="M352.7,178.19V205.23H356.09V178.19Z" style="vector-effect: non-scaling-stroke; opacity: 1; stroke-width: 0px; fill: rgb(255, 0, 0); fill-opacity: 0.75;"/></g><g class="point"><path d="M356.09,178.19V201.34H359.48V178.19Z" style="vector-effect: non-scaling-stroke; opacity: 1; stroke-width: 0px; fill: rgb(240, 128, 128); fill-opacity: 0.75;"/></g><g class="point"><path d="M359.48,178.19V193.46H362.87V178.19Z" style="vector-effect: non-scaling-stroke; opacity: 1; stroke-width: 0px; fill: rgb(240, 128, 128); fill-opacity: 0.75;"/></g><g class="point"><path d="M362.87,178.19V182.21H366.26V178.19Z" style="vector-effect: non-scaling-stroke; opacity: 1; stroke-width: 0px; fill: rgb(240, 128, 128); fill-opacity: 0.75;"/></g><g class="point"><path d="M366.26,178.19V173.33H369.65V178.19Z" style="vector-effect: non-scaling-stroke; opacity: 1; stroke-width: 0px; fill: rgb(0, 128, 0); fill-opacity: 0.75;"/></g><g class="point"><path d="M369.65,178.19V166.41H373.04V178.19Z" style="vector-effect: non-scaling-stroke; opacity: 1; stroke-width: 0px; fill: rgb(0, 128, 0); fill-opacity: 0.75;"/></g><g class="point"><path d="M373.04,178.19V161.38H376.43V178.19Z" style="vector-effect: non-scaling-stroke; opacity: 1; stroke-width: 0px; fill: rgb(0, 128, 0); fill-opacity: 0.75;"/></g><g class="point"><path d="M376.43,178.19V155.32H379.83V178.19Z" style="vector-effect: non-scaling-stroke; opacity: 1; stroke-width: 0px; fill: rgb(0, 128, 0); fill-opacity: 0.75;"/></g><g class="point"><path d="M379.83,178.19V143.68H383.22V178.19Z" style="vector-effect: non-scaling-stroke; opacity: 1; stroke-width: 0px; fill: rgb(0, 128, 0); fill-opacity: 0.75;"/></g><g class="point"><path d="M383.22,178.19V134.28H386.61V178.19Z" style="vector-effect: non-scaling-stroke; opacity: 1; stroke-width: 0px; fill: rgb(0, 128, 0); fill-opacity: 0.75;"/></g><g class="point"><path d="M386.61,178.19V126.1H390V178.19Z" style="vector-effect: non-scaling-stroke; opacity: 1; stroke-width: 0px; fill: rgb(0, 128, 0); fill-opacity: 0.75;"/></g><g class="point"><path d="M390,178.19V121.03H393.39V178.19Z" style="vector-effect: non-scaling-stroke; opacity: 1; stroke-width: 0px; fill: rgb(0, 128, 0); fill-opacity: 0.75;"/></g><g class="point"><path d="M393.39,178.19V115.49H396.78V178.19Z" style="vector-effect: non-scaling-stroke; opacity: 1; stroke-width: 0px; fill: rgb(0, 128, 0); fill-opacity: 0.75;"/></g><g class="point"><path d="M396.78,178.19V108.6H400.17V178.19Z" style="vector-effect: non-scaling-stroke; opacity: 1; stroke-width: 0px; fill: rgb(0, 128, 0); fill-opacity: 0.75;"/></g><g class="point"><path d="M400.17,178.19V112.73H403.57V178.19Z" style="vector-effect: non-scaling-stroke; opacity: 1; stroke-width: 0px; fill: rgb(144, 238, 144); fill-opacity: 0.75;"/></g><g class="point"><path d="M403.57,178.19V112.54H406.96V178.19Z" style="vector-effect: non-scaling-stroke; opacity: 1; stroke-width: 0px; fill: rgb(0, 128, 0); fill-opacity: 0.75;"/></g><g class="point"><path d="M406.96,178.19V119.93H410.35V178.19Z" style="vector-effect: non-scaling-stroke; opacity: 1; stroke-width: 0px; fill: rgb(144, 238, 144); fill-opacity: 0.75;"/></g><g class="point"><path d="M410.35,178.19V131.44H413.74V178.19Z" style="vector-effect: non-scaling-stroke; opacity: 1; stroke-width: 0px; fill: rgb(144, 238, 144); fill-opacity: 0.75;"/></g><g class="point"><path d="M413.74,178.19V143.56H417.13V178.19Z" style="vector-effect: non-scaling-stroke; opacity: 1; stroke-width: 0px; fill: rgb(144, 238, 144); fill-opacity: 0.75;"/></g><g class="point"><path d="M417.13,178.19V154.85H420.52V178.19Z" style="vector-effect: non-scaling-stroke; opacity: 1; stroke-width: 0px; fill: rgb(144, 238, 144); fill-opacity: 0.75;"/></g><g class="point"><path d="M420.52,178.19V163.28H423.91V178.19Z" style="vector-effect: non-scaling-stroke; opacity: 1; stroke-width: 0px; fill: rgb(144, 238, 144); fill-opacity: 0.75;"/></g><g class="point"><path d="M423.91,178.19V177.97H427.3V178.19Z" style="vector-effect: non-scaling-stroke; opacity: 1; stroke-width: 0px; fill: rgb(144, 238, 144); fill-opacity: 0.75;"/></g><g class="point"><path d="M427.3,178.19V192.63H430.7V178.19Z" style="vector-effect: non-scaling-stroke; opacity: 1; stroke-width: 0px; fill: rgb(255, 0, 0); fill-opacity: 0.75;"/></g><g class="point"><path d="M430.7,178.19V203.75H434.09V178.19Z" style="vector-effect: non-scaling-stroke; opacity: 1; stroke-width: 0px; fill: rgb(255, 0, 0); fill-opacity: 0.75;"/></g><g class="point"><path d="M434.09,178.19V217.4H437.48V178.19Z" style="vector-effect: non-scaling-stroke; opacity: 1; stroke-width: 0px; fill: rgb(255, 0, 0); fill-opacity: 0.75;"/></g><g class="point"><path d="M437.48,178.19V233.67H440.87V178.19Z" style="vector-effect: non-scaling-stroke; opacity: 1; stroke-width: 0px; fill: rgb(255, 0, 0); fill-opacity: 0.75;"/></g><g class="point"><path d="M440.87,178.19V230.13H444.26V178.19Z" style="vector-effect: non-scaling-stroke; opacity: 1; stroke-width: 0px; fill: rgb(240, 128, 128); fill-opacity: 0.75;"/></g><g class="point"><path d="M444.26,178.19V236.13H447.65V178.19Z" style="vector-effect: non-scaling-stroke; opacity: 1; stroke-width: 0px; fill: rgb(255, 0, 0); fill-opacity: 0.75;"/></g><g class="point"><path d="M447.65,178.19V239.62H451.04V178.19Z" style="vector-effect: non-scaling-stroke; opacity: 1; stroke-width: 0px; fill: rgb(255, 0, 0); fill-opacity: 0.75;"/></g><g class="point"><path d="M451.04,178.19V229.21H454.43V178.19Z" style="vector-effect: non-scaling-stroke; opacity: 1; stroke-width: 0px; fill: rgb(240, 128, 128); fill-opacity: 0.75;"/></g><g class="point"><path d="M454.43,178.19V218.21H457.83V178.19Z" style="vector-effect: non-scaling-stroke; opacity: 1; stroke-width: 0px; fill: rgb(240, 128, 128); fill-opacity: 0.75;"/></g><g class="point"><path d="M457.83,178.19V216.28H461.22V178.19Z" style="vector-effect: non-scaling-stroke; opacity: 1; stroke-width: 0px; fill: rgb(240, 128, 128); fill-opacity: 0.75;"/></g><g class="point"><path d="M461.22,178.19V220.57H464.61V178.19Z" style="vector-effect: non-scaling-stroke; opacity: 1; stroke-width: 0px; fill: rgb(255, 0, 0); fill-opacity: 0.75;"/></g><g class="point"><path d="M464.61,178.19V224.18H468V178.19Z" style="vector-effect: non-scaling-stroke; opacity: 1; stroke-width: 0px; fill: rgb(255, 0, 0); fill-opacity: 0.75;"/></g><g class="point"><path d="M468,178.19V223.48H471.39V178.19Z" style="vector-effect: non-scaling-stroke; opacity: 1; stroke-width: 0px; fill: rgb(240, 128, 128); fill-opacity: 0.75;"/></g><g class="point"><path d="M471.39,178.19V217.74H474.78V178.19Z" style="vector-effect: non-scaling-stroke; opacity: 1; stroke-width: 0px; fill: rgb(240, 128, 128); fill-opacity: 0.75;"/></g><g class="point"><path d="M474.78,178.19V215.4H478.17V178.19Z" style="vector-effect: non-scaling-stroke; opacity: 1; stroke-width: 0px; fill: rgb(240, 128, 128); fill-opacity: 0.75;"/></g><g class="point"><path d="M478.17,178.19V219.33H481.57V178.19Z" style="vector-effect: non-scaling-stroke; opacity: 1; stroke-width: 0px; fill: rgb(255, 0, 0); fill-opacity: 0.75;"/></g><g class="point"><path d="M481.57,178.19V222.28H484.96V178.19Z" style="vector-effect: non-scaling-stroke; opacity: 1; stroke-width: 0px; fill: rgb(255, 0, 0); fill-opacity: 0.75;"/></g><g class="point"><path d="M484.96,178.19V216.93H488.35V178.19Z" style="vector-effect: non-scaling-stroke; opacity: 1; stroke-width: 0px; fill: rgb(240, 128, 128); fill-opacity: 0.75;"/></g><g class="point"><path d="M488.35,178.19V214.46H491.74V178.19Z" style="vector-effect: non-scaling-stroke; opacity: 1; stroke-width: 0px; fill: rgb(240, 128, 128); fill-opacity: 0.75;"/></g><g class="point"><path d="M491.74,178.19V212.48H495.13V178.19Z" style="vector-effect: non-scaling-stroke; opacity: 1; stroke-width: 0px; fill: rgb(240, 128, 128); fill-opacity: 0.75;"/></g><g class="point"><path d="M495.13,178.19V209.21H498.52V178.19Z" style="vector-effect: non-scaling-stroke; opacity: 1; stroke-width: 0px; fill: rgb(240, 128, 128); fill-opacity: 0.75;"/></g><g class="point"><path d="M498.52,178.19V201.63H501.91V178.19Z" style="vector-effect: non-scaling-stroke; opacity: 1; stroke-width: 0px; fill: rgb(240, 128, 128); fill-opacity: 0.75;"/></g><g class="point"><path d="M501.91,178.19V202.59H505.3V178.19Z" style="vector-effect: non-scaling-stroke; opacity: 1; stroke-width: 0px; fill: rgb(255, 0, 0); fill-opacity: 0.75;"/></g><g class="point"><path d="M505.3,178.19V190.51H508.7V178.19Z" style="vector-effect: non-scaling-stroke; opacity: 1; stroke-width: 0px; fill: rgb(240, 128, 128); fill-opacity: 0.75;"/></g><g class="point"><path d="M508.7,178.19V178.07H512.09V178.19Z" style="vector-effect: non-scaling-stroke; opacity: 1; stroke-width: 0px; fill: rgb(0, 128, 0); fill-opacity: 0.75;"/></g><g class="point"><path d="M512.09,178.19V178.58H515.48V178.19Z" style="vector-effect: non-scaling-stroke; opacity: 1; stroke-width: 0px; fill: rgb(255, 0, 0); fill-opacity: 0.75;"/></g><g class="point"><path d="M515.48,178.19V177.02H518.87V178.19Z" style="vector-effect: non-scaling-stroke; opacity: 1; stroke-width: 0px; fill: rgb(0, 128, 0); fill-opacity: 0.75;"/></g><g class="point"><path d="M518.87,178.19V175.99H522.26V178.19Z" style="vector-effect: non-scaling-stroke; opacity: 1; stroke-width: 0px; fill: rgb(0, 128, 0); fill-opacity: 0.75;"/></g><g class="point"><path d="M522.26,178.19V172.97H525.65V178.19Z" style="vector-effect: non-scaling-stroke; opacity: 1; stroke-width: 0px; fill: rgb(0, 128, 0); fill-opacity: 0.75;"/></g><g class="point"><path d="M525.65,178.19V164.2H529.04V178.19Z" style="vector-effect: non-scaling-stroke; opacity: 1; stroke-width: 0px; fill: rgb(0, 128, 0); fill-opacity: 0.75;"/></g><g class="point"><path d="M529.04,178.19V151.16H532.43V178.19Z" style="vector-effect: non-scaling-stroke; opacity: 1; stroke-width: 0px; fill: rgb(0, 128, 0); fill-opacity: 0.75;"/></g><g class="point"><path d="M532.43,178.19V138.06H535.83V178.19Z" style="vector-effect: non-scaling-stroke; opacity: 1; stroke-width: 0px; fill: rgb(0, 128, 0); fill-opacity: 0.75;"/></g><g class="point"><path d="M535.83,178.19V131.85H539.22V178.19Z" style="vector-effect: non-scaling-stroke; opacity: 1; stroke-width: 0px; fill: rgb(0, 128, 0); fill-opacity: 0.75;"/></g><g class="point"><path d="M539.22,178.19V122.06H542.61V178.19Z" style="vector-effect: non-scaling-stroke; opacity: 1; stroke-width: 0px; fill: rgb(0, 128, 0); fill-opacity: 0.75;"/></g><g class="point"><path d="M542.61,178.19V112.94H546V178.19Z" style="vector-effect: non-scaling-stroke; opacity: 1; stroke-width: 0px; fill: rgb(0, 128, 0); fill-opacity: 0.75;"/></g><g class="point"><path d="M546,178.19V111.57H549.39V178.19Z" style="vector-effect: non-scaling-stroke; opacity: 1; stroke-width: 0px; fill: rgb(0, 128, 0); fill-opacity: 0.75;"/></g><g class="point"><path d="M549.39,178.19V111.36H552.78V178.19Z" style="vector-effect: non-scaling-stroke; opacity: 1; stroke-width: 0px; fill: rgb(0, 128, 0); fill-opacity: 0.75;"/></g><g class="point"><path d="M552.78,178.19V117.86H556.17V178.19Z" style="vector-effect: non-scaling-stroke; opacity: 1; stroke-width: 0px; fill: rgb(144, 238, 144); fill-opacity: 0.75;"/></g><g class="point"><path d="M556.17,178.19V127.92H559.57V178.19Z" style="vector-effect: non-scaling-stroke; opacity: 1; stroke-width: 0px; fill: rgb(144, 238, 144); fill-opacity: 0.75;"/></g><g class="point"><path d="M559.57,178.19V137.7H562.96V178.19Z" style="vector-effect: non-scaling-stroke; opacity: 1; stroke-width: 0px; fill: rgb(144, 238, 144); fill-opacity: 0.75;"/></g><g class="point"><path d="M562.96,178.19V150.91H566.35V178.19Z" style="vector-effect: non-scaling-stroke; opacity: 1; stroke-width: 0px; fill: rgb(144, 238, 144); fill-opacity: 0.75;"/></g><g class="point"><path d="M566.35,178.19V162.76H569.74V178.19Z" style="vector-effect: non-scaling-stroke; opacity: 1; stroke-width: 0px; fill: rgb(144, 238, 144); fill-opacity: 0.75;"/></g><g class="point"><path d="M569.74,178.19V173.81H573.13V178.19Z" style="vector-effect: non-scaling-stroke; opacity: 1; stroke-width: 0px; fill: rgb(144, 238, 144); fill-opacity: 0.75;"/></g><g class="point"><path d="M573.13,178.19V190.56H576.52V178.19Z" style="vector-effect: non-scaling-stroke; opacity: 1; stroke-width: 0px; fill: rgb(255, 0, 0); fill-opacity: 0.75;"/></g><g class="point"><path d="M576.52,178.19V202.6H579.91V178.19Z" style="vector-effect: non-scaling-stroke; opacity: 1; stroke-width: 0px; fill: rgb(255, 0, 0); fill-opacity: 0.75;"/></g><g class="point"><path d="M579.91,178.19V213.21H583.3V178.19Z" style="vector-effect: non-scaling-stroke; opacity: 1; stroke-width: 0px; fill: rgb(255, 0, 0); fill-opacity: 0.75;"/></g><g class="point"><path d="M583.3,178.19V221.73H586.7V178.19Z" style="vector-effect: non-scaling-stroke; opacity: 1; stroke-width: 0px; fill: rgb(255, 0, 0); fill-opacity: 0.75;"/></g><g class="point"><path d="M586.7,178.19V230.15H590.09V178.19Z" style="vector-effect: non-scaling-stroke; opacity: 1; stroke-width: 0px; fill: rgb(255, 0, 0); fill-opacity: 0.75;"/></g><g class="point"><path d="M590.09,178.19V233.58H593.48V178.19Z" style="vector-effect: non-scaling-stroke; opacity: 1; stroke-width: 0px; fill: rgb(255, 0, 0); fill-opacity: 0.75;"/></g><g class="point"><path d="M593.48,178.19V235.57H596.87V178.19Z" style="vector-effect: non-scaling-stroke; opacity: 1; stroke-width: 0px; fill: rgb(255, 0, 0); fill-opacity: 0.75;"/></g><g class="point"><path d="M596.87,178.19V236.38H600.26V178.19Z" style="vector-effect: non-scaling-stroke; opacity: 1; stroke-width: 0px; fill: rgb(255, 0, 0); fill-opacity: 0.75;"/></g><g class="point"><path d="M600.26,178.19V231.86H603.65V178.19Z" style="vector-effect: non-scaling-stroke; opacity: 1; stroke-width: 0px; fill: rgb(240, 128, 128); fill-opacity: 0.75;"/></g><g class="point"><path d="M603.65,178.19V218.04H607.04V178.19Z" style="vector-effect: non-scaling-stroke; opacity: 1; stroke-width: 0px; fill: rgb(240, 128, 128); fill-opacity: 0.75;"/></g><g class="point"><path d="M607.04,178.19V207.56H610.43V178.19Z" style="vector-effect: non-scaling-stroke; opacity: 1; stroke-width: 0px; fill: rgb(240, 128, 128); fill-opacity: 0.75;"/></g><g class="point"><path d="M610.43,178.19V200.64H613.83V178.19Z" style="vector-effect: non-scaling-stroke; opacity: 1; stroke-width: 0px; fill: rgb(240, 128, 128); fill-opacity: 0.75;"/></g><g class="point"><path d="M613.83,178.19V193.84H617.22V178.19Z" style="vector-effect: non-scaling-stroke; opacity: 1; stroke-width: 0px; fill: rgb(240, 128, 128); fill-opacity: 0.75;"/></g><g class="point"><path d="M617.22,178.19V188.81H620.61V178.19Z" style="vector-effect: non-scaling-stroke; opacity: 1; stroke-width: 0px; fill: rgb(240, 128, 128); fill-opacity: 0.75;"/></g><g class="point"><path d="M620.61,178.19V186.62H624V178.19Z" style="vector-effect: non-scaling-stroke; opacity: 1; stroke-width: 0px; fill: rgb(240, 128, 128); fill-opacity: 0.75;"/></g></g></g></g><g class="scatterlayer mlayer"><g class="trace scatter trace8d2d0ab2-08b9-4186-811d-df7b37a16a4e" style="stroke-miterlimit: 2; opacity: 1;"><g class="fills"/><g class="errorbars"/><g class="lines"><path class="js-line" d="M86.48,170.35L89.87,170.15L93.26,170.84L106.83,173.04L110.22,169.29L120.39,156.15L123.78,150.91L137.35,129.29L140.74,124.74L147.52,115.99L150.91,118.02L154.3,121.35L157.7,123.62L164.48,130.09L167.87,134.62L178.04,149.7L181.43,151.43L184.83,153.8L188.22,157.48L195,164.38L198.39,165.66L208.57,168.88L211.96,169.24L218.74,165.77L222.13,166.23L225.52,165.42L228.91,162.94L232.3,160.24L235.7,156.43L239.09,151.46L242.48,142.43L245.87,134.8L249.26,123.37L256.04,101.58L259.43,93.41L266.22,81.57L269.61,70.82L273,63.04L276.39,58.22L279.78,56.42L283.17,61.35L286.57,63.51L289.96,73.34L300.13,96.35L303.52,96.52L306.91,97.45L310.3,105.88L317.09,117.78L320.48,122.42L327.26,138.34L330.65,143.14L337.43,162.11L340.83,170.4L344.22,175.65L347.61,179.48L354.39,194.12L357.78,196.71L361.17,194.55L364.57,187.01L378.13,159.35L381.52,142.82L395.09,72.99L398.48,51.86L401.87,41.29L405.26,25.28L408.65,16.83L412.04,14.04L415.43,13.7L418.83,14.64L422.22,14.56L425.61,23.78L432.39,48.7L435.78,66.99L439.17,91.55L442.57,97.26L449.35,130.87L452.74,133.69L456.13,135.06L459.52,145.17L466.3,178L469.7,188.02L473.09,192.91L476.48,200.08L483.26,226.41L486.65,231.8L493.43,247.36L496.83,252.34L500.22,251.86L503.61,260.3L507,254.24L510.39,245.38L513.78,248.33L517.17,248.63L520.57,248.58L523.96,245.33L527.35,234.59L530.74,217.76L534.13,197.71L537.52,183.65L547.7,129.64L551.09,114.55L554.48,105.51L557.87,100.69L561.26,97.06L564.65,99.34L568.04,102.13L571.43,106.71L585,162.45L588.39,179.64L598.57,222L601.96,231.32L605.35,229.58L608.74,229.83L612.13,232.32L615.52,233.4L618.91,234.46L622.3,237.08" style="vector-effect: non-scaling-stroke; fill: none; stroke: rgb(31, 119, 180); stroke-opacity: 1; stroke-width: 2px; opacity: 1;"/></g><g class="points"/><g class="text"/></g><g class="trace scatter trace8b07fea7-6d8a-4809-b182-50c526fe02a1" style="stroke-miterlimit: 2; opacity: 1;"><g class="fills"/><g class="errorbars"/><g class="lines"><path class="js-line" d="M113.61,170.51L120.39,167.91L123.78,165.7L130.57,159.23L133.96,155.03L150.91,131L154.3,127.71L157.7,125.32L161.09,123.88L164.48,123.35L167.87,123.94L171.26,125.65L174.65,128.38L201.78,157.29L205.17,159.89L215.35,165.52L218.74,166.44L225.52,167.08L228.91,166.78L235.7,164.73L239.09,162.8L245.87,156.19L249.26,151.48L256.04,138.34L259.43,130.61L269.61,105.28L273,96.45L279.78,80.51L283.17,74.9L286.57,70.67L289.96,68.44L293.35,67.73L296.74,68.7L303.52,75.26L306.91,79.62L334.04,124.64L337.43,131.82L357.78,173.57L361.17,179.28L364.57,182.99L367.96,184.99L371.35,185.35L374.74,184.46L378.13,182.22L381.52,177.32L384.91,169.73L388.3,159.85L395.09,135.7L398.48,121.45L415.43,48.33L418.83,37.98L422.22,29.46L425.61,24L429,22.32L432.39,23.14L435.78,27.78L439.17,36.08L445.96,56.52L449.35,69.43L462.91,119.68L466.3,132.01L476.48,162.87L479.87,172.02L493.43,213.07L496.83,221.32L507,241.92L510.39,245.5L517.17,249.81L520.57,250.78L523.96,250.55L527.35,248.58L530.74,244.79L534.13,237.84L540.91,221.05L544.3,209.49L551.09,181.37L554.48,165.84L561.26,137.55L564.65,126.62L568.04,117.56L571.43,111.1L574.83,108.5L578.22,108.91L581.61,112.58L585,118.91L591.78,138.43L595.17,150.49L605.35,189.73L608.74,200.46L615.52,217.75L618.91,223.84L622.3,228.65" style="vector-effect: non-scaling-stroke; fill: none; stroke: rgb(255, 127, 14); stroke-opacity: 1; stroke-width: 2px; opacity: 1;"/></g><g class="points"/><g class="text"/></g></g></g><g class="overplot"/><path class="xlines-above crisp" d="M0,0" style="fill: none;"/><path class="ylines-above crisp" d="M0,0" style="fill: none;"/><g class="overlines-above"/><g class="xaxislayer-above"><g class="xtick"><text text-anchor="middle" x="0" y="333" transform="translate(47.7,0)" style="font-family: 'Open Sans', verdana, arial, sans-serif; font-size: 12px; fill: rgb(214, 223, 239); fill-opacity: 1; white-space: pre; opacity: 1;">Mar 2019</text></g><g class="xtick"><text text-anchor="middle" x="0" y="333" style="font-family: 'Open Sans', verdana, arial, sans-serif; font-size: 12px; fill: rgb(214, 223, 239); fill-opacity: 1; white-space: pre; opacity: 1;" transform="translate(152.82999999999998,0)">Apr 2019</text></g><g class="xtick"><text text-anchor="middle" x="0" y="333" style="font-family: 'Open Sans', verdana, arial, sans-serif; font-size: 12px; fill: rgb(214, 223, 239); fill-opacity: 1; white-space: pre; opacity: 1;" transform="translate(254.57,0)">May 2019</text></g><g class="xtick"><text text-anchor="middle" x="0" y="333" style="font-family: 'Open Sans', verdana, arial, sans-serif; font-size: 12px; fill: rgb(214, 223, 239); fill-opacity: 1; white-space: pre; opacity: 1;" transform="translate(359.7,0)">Jun 2019</text></g><g class="xtick"><text text-anchor="middle" x="0" y="333" style="font-family: 'Open Sans', verdana, arial, sans-serif; font-size: 12px; fill: rgb(214, 223, 239); fill-opacity: 1; white-space: pre; opacity: 1;" transform="translate(461.43,0)">Jul 2019</text></g><g class="xtick"><text text-anchor="middle" x="0" y="333" style="font-family: 'Open Sans', verdana, arial, sans-serif; font-size: 12px; fill: rgb(214, 223, 239); fill-opacity: 1; white-space: pre; opacity: 1;" transform="translate(566.57,0)">Aug 2019</text></g></g><g class="yaxislayer-above"><g class="ytick"><text text-anchor="end" x="45" y="4.199999999999999" transform="translate(0,280)" style="font-family: 'Open Sans', verdana, arial, sans-serif; font-size: 12px; fill: rgb(214, 223, 239); fill-opacity: 1; white-space: pre; opacity: 1;">−500</text></g><g class="ytick"><text text-anchor="end" x="45" y="4.199999999999999" style="font-family: 'Open Sans', verdana, arial, sans-serif; font-size: 12px; fill: rgb(214, 223, 239); fill-opacity: 1; white-space: pre; opacity: 1;" transform="translate(0,224.19)">0</text></g><g class="ytick"><text text-anchor="end" x="45" y="4.199999999999999" style="font-family: 'Open Sans', verdana, arial, sans-serif; font-size: 12px; fill: rgb(214, 223, 239); fill-opacity: 1; white-space: pre; opacity: 1;" transform="translate(0,168.38)">500</text></g><g class="ytick"><text text-anchor="end" x="45" y="4.199999999999999" style="font-family: 'Open Sans', verdana, arial, sans-serif; font-size: 12px; fill: rgb(214, 223, 239); fill-opacity: 1; white-space: pre; opacity: 1;" transform="translate(0,112.57)">1000</text></g><g class="ytick"><text text-anchor="end" x="45" y="4.199999999999999" style="font-family: 'Open Sans', verdana, arial, sans-serif; font-size: 12px; fill: rgb(214, 223, 239); fill-opacity: 1; white-space: pre; opacity: 1;" transform="translate(0,56.76)">1500</text></g></g><g class="overaxes-above"/></g></g><g class="polarlayer"/><g class="ternarylayer"/><g class="geolayer"/><g class="funnelarealayer"/><g class="pielayer"/><g class="iciclelayer"/><g class="treemaplayer"/><g class="sunburstlayer"/><g class="glimages"/><defs id="topdefs-313ba5"><g class="clips"/><clipPath id="legend313ba5"><rect width="271" height="29" x="0" y="0"/></clipPath></defs><g class="layer-above"><g class="imagelayer"/><g class="shapelayer"/></g><g class="infolayer"><g class="legend" pointer-events="all" transform="translate(399,11.519999999999996)"><rect class="bg" shape-rendering="crispEdges" style="stroke: rgb(68, 68, 68); stroke-opacity: 1; fill: rgb(33, 34, 44); fill-opacity: 1; stroke-width: 0px;" width="271" height="29" x="0" y="0"/><g class="scrollbox" transform="" clip-path="url(#legend313ba5)"><g class="groups"><g class="traces" transform="translate(0,14.5)" style="opacity: 1;"><text class="legendtext" text-anchor="start" x="40" y="4.680000000000001" style="font-family: 'Open Sans', verdana, arial, sans-serif; font-size: 12px; fill: rgb(214, 223, 239); fill-opacity: 1; white-space: pre;">MACD</text><g class="layers" style="opacity: 1;"><g class="legendfill"/><g class="legendlines"><path class="js-line" d="M5,0h30" style="fill: none; stroke: rgb(31, 119, 180); stroke-opacity: 1; stroke-width: 2px;"/></g><g class="legendsymbols"><g class="legendpoints"/></g></g><rect class="legendtoggle" x="0" y="-9.5" width="78.4375" height="19" style="fill: rgb(0, 0, 0); fill-opacity: 0;"/></g><g class="traces" transform="translate(80.9375,14.5)" style="opacity: 1;"><text class="legendtext" text-anchor="start" x="40" y="4.680000000000001" style="font-family: 'Open Sans', verdana, arial, sans-serif; font-size: 12px; fill: rgb(214, 223, 239); fill-opacity: 1; white-space: pre;">Signal</text><g class="layers" style="opacity: 1;"><g class="legendfill"/><g class="legendlines"><path class="js-line" d="M5,0h30" style="fill: none; stroke: rgb(255, 127, 14); stroke-opacity: 1; stroke-width: 2px;"/></g><g class="legendsymbols"><g class="legendpoints"/></g></g><rect class="legendtoggle" x="0" y="-9.5" width="79.5625" height="19" style="fill: rgb(0, 0, 0); fill-opacity: 0;"/></g><g class="traces" transform="translate(163,14.5)" style="opacity: 1;"><text class="legendtext" text-anchor="start" x="40" y="4.680000000000001" style="font-family: 'Open Sans', verdana, arial, sans-serif; font-size: 12px; fill: rgb(214, 223, 239); fill-opacity: 1; white-space: pre;">Histogram</text><g class="layers" style="opacity: 1;"><g class="legendfill"/><g class="legendlines"/><g class="legendsymbols"><g class="legendpoints"><path class="legendundefined" d="M6,6H-6V-6H6Z" transform="translate(20,0)" style="stroke-width: 0px; fill: rgb(192, 192, 192); fill-opacity: 0.75;"/></g></g></g><rect class="legendtoggle" x="0" y="-9.5" width="104.546875" height="19" style="fill: rgb(0, 0, 0); fill-opacity: 0;"/></g></g></g><rect class="scrollbar" rx="20" ry="3" width="0" height="0" style="fill: rgb(128, 139, 164); fill-opacity: 1;" x="0" y="0"/></g><g class="g-gtitle"/><g class="g-xtitle"/><g class="g-ytitle"/></g></svg>