<svg class="main-svg" xmlns="http://www.w3.org/2000/svg" xmlns:xlink="http://www.w3.org/1999/xlink" width="700" height="350" style="" viewBox="0 0 700 350"><rect x="0" y="0" width="700" height="350" style="fill: rgb(33, 34, 44); fill-opacity: 1;"/><defs id="defs-63bc8e"><g class="clips"><clipPath id="clip63bc8exyplot" class="plotclip"><rect width="615" height="274"/></clipPath><clipPath class="axesclip" id="clip63bc8ex"><rect x="46" y="0" width="615" height="350"/></clipPath><clipPath class="axesclip" id="clip63bc8ey"><rect x="0" y="46" width="700" height="274"/></clipPath><clipPath class="axesclip" id="clip63bc8exy"><rect x="46" y="46" width="615" height="274"/></clipPath></g><g class="gradients"/><g class="patterns"/></defs><g class="bglayer"/><g class="layer-below"><g class="imagelayer"/><g class="shapelayer"/></g><g class="cartesianlayer"><g class="subplot xy"><g class="layer-subplot"><g class="shapelayer"/><g class="imagelayer"/></g><g class="gridlayer"><g class="x"/><g class="y"><path class="ygrid crisp" transform="translate(0,315.97)" d="M46,0h615" style="stroke: rgb(47, 62, 78); stroke-opacity: 1; stroke-width: 1px;"/><path class="ygrid crisp" transform="translate(0,281.05)" d="M46,0h615" style="stroke: rgb(47, 62, 78); stroke-opacity: 1; stroke-width: 1px;"/><path class="ygrid crisp" transform="translate(0,211.21)" d="M46,0h615" style="stroke: rgb(47, 62, 78); stroke-opacity: 1; stroke-width: 1px;"/><path class="ygrid crisp" transform="translate(0,176.29)" d="M46,0h615" style="stroke: rgb(47, 62, 78); stroke-opacity: 1; stroke-width: 1px;"/><path class="ygrid crisp" transform="translate(0,141.36)" d="M46,0h615" style="stroke: rgb(47, 62, 78); stroke-opacity: 1; stroke-width: 1px;"/><path class="ygrid crisp" transform="translate(0,106.44)" d="M46,0h615" style="stroke: rgb(47, 62, 78); stroke-opacity: 1; stroke-width: 1px;"/><path class="ygrid crisp" transform="translate(0,71.52)" d="M46,0h615" style="stroke: rgb(47, 62, 78); stroke-opacity: 1; stroke-width: 1px;"/></g></g><g class="zerolinelayer"><path class="yzl zl crisp" transform="translate(0,246.13)" d="M46,0h615" style="stroke: rgb(47, 62, 78); stroke-opacity: 1; stroke-width: 2px;"/></g><path class="xlines-below"/><path class="ylines-below"/><g class="overlines-below"/><g class="xaxislayer-below"/><g class="yaxislayer-below"/><g class="overaxes-below"/><g class="plot" transform="translate(46,46)" clip-path="url(#clip63bc8exyplot)"><g class="barlayer mlayer"><g class="trace bars" shape-rendering="crispEdges" style="opacity: 1;"><g class="points"><g class="point"><path d="M0,0Z" style="vector-effect: non-scaling-stroke; opacity: 1; stroke-width: 0px; fill: rgb(192, 192, 192); fill-opacity: 0.75;"/></g><g class="point"><path d="M0,0Z" style="vector-effect: non-scaling-stroke; opacity: 1; stroke-width: 0px; fill: rgb(192, 192, 192); fill-opacity: 0.75;"/></g><g class="point"><path d="M0,0Z" style="vector-effect: non-scaling-stroke; opacity: 1; stroke-width: 0px; fill: rgb(192, 192, 192); fill-opacity: 0.75;"/></g><g class="point"><path d="M0,0Z" style="vector-effect: non-scaling-stroke; opacity: 1; stroke-width: 0px; fill: rgb(192, 192, 192); fill-opacity: 0.75;"/></g><g class="point"><path d="M0,0Z" style="vector-effect: non-scaling-stroke; opacity: 1; stroke-width: 0px; fill: rgb(192, 192, 192); fill-opacity: 0.75;"/></g><g class="point"><path d="M0,0Z" style="vector-effect: non-scaling-stroke; opacity: 1; stroke-width: 0px; fill: rgb(192, 192, 192); fill-opacity: 0.75;"/></g><g class="point"><path d="M0,0Z" style="vector-effect: non-scaling-stroke; opacity: 1; stroke-width: 0px; fill: rgb(192, 192, 192); fill-opacity: 0.75;"/></g><g class="point"><path d="M0,0Z" style="vector-effect: non-scaling-stroke; opacity: 1; stroke-width: 0px; fill: rgb(192, 192, 192); fill-opacity: 0.75;"/></g><g class="point"><path d="M0,0Z" style="vector-effect: non-scaling-stroke; opacity: 1; stroke-width: 0px; fill: rgb(192, 192, 192); fill-opacity: 0.75;"/></g><g class="point"><path d="M0,0Z" style="vector-effect: non-scaling-stroke; opacity: 1; stroke-width: 0px; fill: rgb(192, 192, 192); fill-opacity: 0.75;"/></g><g class="point"><path d="M0,0Z" style="vector-effect: non-scaling-stroke; opacity: 1; stroke-width: 0px; fill: rgb(192, 192, 192); fill-opacity: 0.75;"/></g><g class="point"><path d="M0,0Z" style="vector-effect: non-scaling-stroke; opacity: 1; stroke-width: 0px; fill: rgb(192, 192, 192); fill-opacity: 0.75;"/></g><g class="point"><path d="M0,0Z" style="vector-effect: non-scaling-stroke; opacity: 1; stroke-width: 0px; fill: rgb(192, 192, 192); fill-opacity: 0.75;"/></g><g class="point"><path d="M0,0Z" style="vector-effect: non-scaling-stroke; opacity: 1; stroke-width: 0px; fill: rgb(192, 192, 192); fill-opacity: 0.75;"/></g><g class="point"><path d="M0,0Z" style="vector-effect: non-scaling-stroke; opacity: 1; stroke-width: 0px; fill: rgb(192, 192, 192); fill-opacity: 0.75;"/></g><g class="point"><path d="M0,0Z" style="vector-effect: non-scaling-stroke; opacity: 1; stroke-width: 0px; fill: rgb(192, 192, 192); fill-opacity: 0.75;"/></g><g class="point"><path d="M0,0Z" style="vector-effect: non-scaling-stroke; opacity: 1; stroke-width: 0px; fill: rgb(192, 192, 192); fill-opacity: 0.75;"/></g><g class="point"><path d="M0,0Z" style="vector-effect: non-scaling-stroke; opacity: 1; stroke-width: 0px; fill: rgb(192, 192, 192); fill-opacity: 0.75;"/></g><g class="point"><path d="M0,0Z" style="vector-effect: non-scaling-stroke; opacity: 1; stroke-width: 0px; fill: rgb(192, 192, 192); fill-opacity: 0.75;"/></g><g class="point"><path d="M0,0Z" style="vector-effect: non-scaling-stroke; opacity: 1; stroke-width: 0px; fill: rgb(192, 192, 192); fill-opacity: 0.75;"/></g><g class="point"><path d="M0,0Z" style="vector-effect: non-scaling-stroke; opacity: 1; stroke-width: 0px; fill: rgb(192, 192, 192); fill-opacity: 0.75;"/></g><g class="point"><path d="M0,0Z" style="vector-effect: non-scaling-stroke; opacity: 1; stroke-width: 0px; fill: rgb(192, 192, 192); fill-opacity: 0.75;"/></g><g class="point"><path d="M0,0Z" style="vector-effect: non-scaling-stroke; opacity: 1; stroke-width: 0px; fill: rgb(192, 192, 192); fill-opacity: 0.75;"/></g><g class="point"><path d="M0,0Z" style="vector-effect: non-scaling-stroke; opacity: 1; stroke-width: 0px; fill: rgb(192, 192, 192); fill-opacity: 0.75;"/></g><g class="point"><path d="M0,0Z" style="vector-effect: non-scaling-stroke; opacity: 1; stroke-width: 0px; fill: rgb(192, 192, 192); fill-opacity: 0.75;"/></g><g class="point"><path d="M0,0Z" style="vector-effect: non-scaling-stroke; opacity: 1; stroke-width: 0px; fill: rgb(192, 192, 192); fill-opacity: 0.75;"/></g><g class="point"><path d="M0,0Z" style="vector-effect: non-scaling-stroke; opacity: 1; stroke-width: 0px; fill: rgb(192, 192, 192); fill-opacity: 0.75;"/></g><g class="point"><path d="M0,0Z" style="vector-effect: non-scaling-stroke; opacity: 1; stroke-width: 0px; fill: rgb(192, 192, 192); fill-opacity: 0.75;"/></g><g class="point"><path d="M0,0Z" style="vector-effect: non-scaling-stroke; opacity: 1; stroke-width: 0px; fill: rgb(192, 192, 192); fill-opacity: 0.75;"/></g><g class="point"><path d="M0,0Z" style="vector-effect: non-scaling-stroke; opacity: 1; stroke-width: 0px; fill: rgb(192, 192, 192); fill-opacity: 0.75;"/></g><g class="point"><path d="M0,0Z" style="vector-effect: non-scaling-stroke; opacity: 1; stroke-width: 0px; fill: rgb(192, 192, 192); fill-opacity: 0.75;"/></g><g class="point"><path d="M0,0Z" style="vector-effect: non-scaling-stroke; opacity: 1; stroke-width: 0px; fill: rgb(192, 192, 192); fill-opacity: 0.75;"/></g><g class="point"><path d="M0,0Z" style="vector-effect: non-scaling-stroke; opacity: 1; stroke-width: 0px; fill: rgb(192, 192, 192); fill-opacity: 0.75;"/></g><g class="point"><path d="M109.7,200.13V184.8H113.03V200.13Z" style="vector-effect: non-scaling-stroke; opacity: 1; stroke-width: 0px; fill: rgb(192, 192, 192); fill-opacity: 0.75;"/></g><g class="point"><path d="M113.03,200.13V182.8H116.35V200.13Z" style="vector-effect: non-scaling-stroke; opacity: 1; stroke-width: 0px; fill: rgb(0, 128, 0); fill-opacity: 0.75;"/></g><g class="point"><path d="M116.35,200.13V181.35H119.68V200.13Z" style="vector-effect: non-scaling-stroke; opacity: 1; stroke-width: 0px; fill: rgb(0, 128, 0); fill-opacity: 0.75;"/></g><g class="point"><path d="M119.68,200.13V181.38H123V200.13Z" style="vector-effect: non-scaling-stroke; opacity: 1; stroke-width: 0px; fill: rgb(144, 238, 144); fill-opacity: 0.75;"/></g><g class="point"><path d="M123,200.13V181.08H126.32V200.13Z" style="vector-effect: non-scaling-stroke; opacity: 1; stroke-width: 0px; fill: rgb(0, 128, 0); fill-opacity: 0.75;"/></g><g class="point"><path d="M126.32,200.13V181.17H129.65V200.13Z" style="vector-effect: non-scaling-stroke; opacity: 1; stroke-width: 0px; fill: rgb(144, 238, 144); fill-opacity: 0.75;"/></g><g class="point"><path d="M129.65,200.13V183.5H132.97V200.13Z" style="vector-effect: non-scaling-stroke; opacity: 1; stroke-width: 0px; fill: rgb(144, 238, 144); fill-opacity: 0.75;"/></g><g class="point"><path d="M132.97,200.13V184.87H136.3V200.13Z" style="vector-effect: non-scaling-stroke; opacity: 1; stroke-width: 0px; fill: rgb(144, 238, 144); fill-opacity: 0.75;"/></g><g class="point"><path d="M136.3,200.13V189.84H139.62V200.13Z" style="vector-effect: non-scaling-stroke; opacity: 1; stroke-width: 0px; fill: rgb(144, 238, 144); fill-opacity: 0.75;"/></g><g class="point"><path d="M139.62,200.13V193.64H142.95V200.13Z" style="vector-effect: non-scaling-stroke; opacity: 1; stroke-width: 0px; fill: rgb(144, 238, 144); fill-opacity: 0.75;"/></g><g class="point"><path d="M142.95,200.13V196.74H146.27V200.13Z" style="vector-effect: non-scaling-stroke; opacity: 1; stroke-width: 0px; fill: rgb(144, 238, 144); fill-opacity: 0.75;"/></g><g class="point"><path d="M146.27,200.13V198.51H149.59V200.13Z" style="vector-effect: non-scaling-stroke; opacity: 1; stroke-width: 0px; fill: rgb(144, 238, 144); fill-opacity: 0.75;"/></g><g class="point"><path d="M149.59,200.13V201.29H152.92V200.13Z" style="vector-effect: non-scaling-stroke; opacity: 1; stroke-width: 0px; fill: rgb(255, 0, 0); fill-opacity: 0.75;"/></g><g class="point"><path d="M152.92,200.13V201.55H156.24V200.13Z" style="vector-effect: non-scaling-stroke; opacity: 1; stroke-width: 0px; fill: rgb(255, 0, 0); fill-opacity: 0.75;"/></g><g class="point"><path d="M156.24,200.13V201.91H159.57V200.13Z" style="vector-effect: non-scaling-stroke; opacity: 1; stroke-width: 0px; fill: rgb(255, 0, 0); fill-opacity: 0.75;"/></g><g class="point"><path d="M159.57,200.13V201.97H162.89V200.13Z" style="vector-effect: non-scaling-stroke; opacity: 1; stroke-width: 0px; fill: rgb(255, 0, 0); fill-opacity: 0.75;"/></g><g class="point"><path d="M162.89,200.13V202.29H166.22V200.13Z" style="vector-effect: non-scaling-stroke; opacity: 1; stroke-width: 0px; fill: rgb(255, 0, 0); fill-opacity: 0.75;"/></g><g class="point"><path d="M166.22,200.13V202.44H169.54V200.13Z" style="vector-effect: non-scaling-stroke; opacity: 1; stroke-width: 0px; fill: rgb(255, 0, 0); fill-opacity: 0.75;"/></g><g class="point"><path d="M169.54,200.13V203.11H172.86V200.13Z" style="vector-effect: non-scaling-stroke; opacity: 1; stroke-width: 0px; fill: rgb(255, 0, 0); fill-opacity: 0.75;"/></g><g class="point"><path d="M172.86,200.13V202.85H176.19V200.13Z" style="vector-effect: non-scaling-stroke; opacity: 1; stroke-width: 0px; fill: rgb(240, 128, 128); fill-opacity: 0.75;"/></g><g class="point"><path d="M176.19,200.13V201.04H179.51V200.13Z" style="vector-effect: non-scaling-stroke; opacity: 1; stroke-width: 0px; fill: rgb(240, 128, 128); fill-opacity: 0.75;"/></g><g class="point"><path d="M179.51,200.13V201.48H182.84V200.13Z" style="vector-effect: non-scaling-stroke; opacity: 1; stroke-width: 0px; fill: rgb(255, 0, 0); fill-opacity: 0.75;"/></g><g class="point"><path d="M182.84,200.13V204.93H186.16V200.13Z" style="vector-effect: non-scaling-stroke; opacity: 1; stroke-width: 0px; fill: rgb(255, 0, 0); fill-opacity: 0.75;"/></g><g class="point"><path d="M186.16,200.13V206.47H189.49V200.13Z" style="vector-effect: non-scaling-stroke; opacity: 1; stroke-width: 0px; fill: rgb(255, 0, 0); fill-opacity: 0.75;"/></g><g class="point"><path d="M189.49,200.13V207.63H192.81V200.13Z" style="vector-effect: non-scaling-stroke; opacity: 1; stroke-width: 0px; fill: rgb(255, 0, 0); fill-opacity: 0.75;"/></g><g class="point"><path d="M192.81,200.13V208.14H196.14V200.13Z" style="vector-effect: non-scaling-stroke; opacity: 1; stroke-width: 0px; fill: rgb(255, 0, 0); fill-opacity: 0.75;"/></g><g class="point"><path d="M196.14,200.13V208.82H199.46V200.13Z" style="vector-effect: non-scaling-stroke; opacity: 1; stroke-width: 0px; fill: rgb(255, 0, 0); fill-opacity: 0.75;"/></g><g class="point"><path d="M199.46,200.13V207.97H202.78V200.13Z" style="vector-effect: non-scaling-stroke; opacity: 1; stroke-width: 0px; fill: rgb(240, 128, 128); fill-opacity: 0.75;"/></g><g class="point"><path d="M202.78,200.13V206.77H206.11V200.13Z" style="vector-effect: non-scaling-stroke; opacity: 1; stroke-width: 0px; fill: rgb(240, 128, 128); fill-opacity: 0.75;"/></g><g class="point"><path d="M206.11,200.13V204.82H209.43V200.13Z" style="vector-effect: non-scaling-stroke; opacity: 1; stroke-width: 0px; fill: rgb(240, 128, 128); fill-opacity: 0.75;"/></g><g class="point"><path d="M209.43,200.13V200.72H212.76V200.13Z" style="vector-effect: non-scaling-stroke; opacity: 1; stroke-width: 0px; fill: rgb(240, 128, 128); fill-opacity: 0.75;"/></g><g class="point"><path d="M212.76,200.13V197.7H216.08V200.13Z" style="vector-effect: non-scaling-stroke; opacity: 1; stroke-width: 0px; fill: rgb(0, 128, 0); fill-opacity: 0.75;"/></g><g class="point"><path d="M216.08,200.13V196.63H219.41V200.13Z" style="vector-effect: non-scaling-stroke; opacity: 1; stroke-width: 0px; fill: rgb(0, 128, 0); fill-opacity: 0.75;"/></g><g class="point"><path d="M219.41,200.13V196.99H222.73V200.13Z" style="vector-effect: non-scaling-stroke; opacity: 1; stroke-width: 0px; fill: rgb(144, 238, 144); fill-opacity: 0.75;"/></g><g class="point"><path d="M222.73,200.13V196.77H226.05V200.13Z" style="vector-effect: non-scaling-stroke; opacity: 1; stroke-width: 0px; fill: rgb(0, 128, 0); fill-opacity: 0.75;"/></g><g class="point"><path d="M226.05,200.13V195.42H229.38V200.13Z" style="vector-effect: non-scaling-stroke; opacity: 1; stroke-width: 0px; fill: rgb(0, 128, 0); fill-opacity: 0.75;"/></g><g class="point"><path d="M229.38,200.13V193.01H232.7V200.13Z" style="vector-effect: non-scaling-stroke; opacity: 1; stroke-width: 0px; fill: rgb(0, 128, 0); fill-opacity: 0.75;"/></g><g class="point"><path d="M232.7,200.13V189.94H236.03V200.13Z" style="vector-effect: non-scaling-stroke; opacity: 1; stroke-width: 0px; fill: rgb(0, 128, 0); fill-opacity: 0.75;"/></g><g class="point"><path d="M236.03,200.13V179.72H239.35V200.13Z" style="vector-effect: non-scaling-stroke; opacity: 1; stroke-width: 0px; fill: rgb(0, 128, 0); fill-opacity: 0.75;"/></g><g class="point"><path d="M239.35,200.13V177.39H242.68V200.13Z" style="vector-effect: non-scaling-stroke; opacity: 1; stroke-width: 0px; fill: rgb(0, 128, 0); fill-opacity: 0.75;"/></g><g class="point"><path d="M242.68,200.13V168.19H246V200.13Z" style="vector-effect: non-scaling-stroke; opacity: 1; stroke-width: 0px; fill: rgb(0, 128, 0); fill-opacity: 0.75;"/></g><g class="point"><path d="M246,200.13V162.64H249.32V200.13Z" style="vector-effect: non-scaling-stroke; opacity: 1; stroke-width: 0px; fill: rgb(0, 128, 0); fill-opacity: 0.75;"/></g><g class="point"><path d="M249.32,200.13V159.41H252.65V200.13Z" style="vector-effect: non-scaling-stroke; opacity: 1; stroke-width: 0px; fill: rgb(0, 128, 0); fill-opacity: 0.75;"/></g><g class="point"><path d="M252.65,200.13V163.8H255.97V200.13Z" style="vector-effect: non-scaling-stroke; opacity: 1; stroke-width: 0px; fill: rgb(144, 238, 144); fill-opacity: 0.75;"/></g><g class="point"><path d="M255.97,200.13V175.29H259.3V200.13Z" style="vector-effect: non-scaling-stroke; opacity: 1; stroke-width: 0px; fill: rgb(144, 238, 144); fill-opacity: 0.75;"/></g><g class="point"><path d="M259.3,200.13V185.46H262.62V200.13Z" style="vector-effect: non-scaling-stroke; opacity: 1; stroke-width: 0px; fill: rgb(144, 238, 144); fill-opacity: 0.75;"/></g><g class="point"><path d="M262.62,200.13V183.17H265.95V200.13Z" style="vector-effect: non-scaling-stroke; opacity: 1; stroke-width: 0px; fill: rgb(0, 128, 0); fill-opacity: 0.75;"/></g><g class="point"><path d="M265.95,200.13V185.99H269.27V200.13Z" style="vector-effect: non-scaling-stroke; opacity: 1; stroke-width: 0px; fill: rgb(144, 238, 144); fill-opacity: 0.75;"/></g><g class="point"><path d="M269.27,200.13V189.64H272.59V200.13Z" style="vector-effect: non-scaling-stroke; opacity: 1; stroke-width: 0px; fill: rgb(144, 238, 144); fill-opacity: 0.75;"/></g><g class="point"><path d="M272.59,200.13V196.61H275.92V200.13Z" style="vector-effect: non-scaling-stroke; opacity: 1; stroke-width: 0px; fill: rgb(144, 238, 144); fill-opacity: 0.75;"/></g><g class="point"><path d="M275.92,200.13V199.91H279.24V200.13Z" style="vector-effect: non-scaling-stroke; opacity: 1; stroke-width: 0px; fill: rgb(144, 238, 144); fill-opacity: 0.75;"/></g><g class="point"><path d="M279.24,200.13V201.81H282.57V200.13Z" style="vector-effect: non-scaling-stroke; opacity: 1; stroke-width: 0px; fill: rgb(255, 0, 0); fill-opacity: 0.75;"/></g><g class="point"><path d="M282.57,200.13V203.17H285.89V200.13Z" style="vector-effect: non-scaling-stroke; opacity: 1; stroke-width: 0px; fill: rgb(255, 0, 0); fill-opacity: 0.75;"/></g><g class="point"><path d="M285.89,200.13V197.94H289.22V200.13Z" style="vector-effect: non-scaling-stroke; opacity: 1; stroke-width: 0px; fill: rgb(0, 128, 0); fill-opacity: 0.75;"/></g><g class="point"><path d="M289.22,200.13V194.28H292.54V200.13Z" style="vector-effect: non-scaling-stroke; opacity: 1; stroke-width: 0px; fill: rgb(0, 128, 0); fill-opacity: 0.75;"/></g><g class="point"><path d="M292.54,200.13V194.25H295.86V200.13Z" style="vector-effect: non-scaling-stroke; opacity: 1; stroke-width: 0px; fill: rgb(0, 128, 0); fill-opacity: 0.75;"/></g><g class="point"><path d="M295.86,200.13V196.23H299.19V200.13Z" style="vector-effect: non-scaling-stroke; opacity: 1; stroke-width: 0px; fill: rgb(144, 238, 144); fill-opacity: 0.75;"/></g><g class="point"><path d="M299.19,200.13V202.49H302.51V200.13Z" style="vector-effect: non-scaling-stroke; opacity: 1; stroke-width: 0px; fill: rgb(255, 0, 0); fill-opacity: 0.75;"/></g><g class="point"><path d="M302.51,200.13V204.47H305.84V200.13Z" style="vector-effect: non-scaling-stroke; opacity: 1; stroke-width: 0px; fill: rgb(255, 0, 0); fill-opacity: 0.75;"/></g><g class="point"><path d="M305.84,200.13V206.6H309.16V200.13Z" style="vector-effect: non-scaling-stroke; opacity: 1; stroke-width: 0px; fill: rgb(255, 0, 0); fill-opacity: 0.75;"/></g><g class="point"><path d="M309.16,200.13V206.6H312.49V200.13Z" style="vector-effect: non-scaling-stroke; opacity: 1; stroke-width: 0px; fill: rgb(240, 128, 128); fill-opacity: 0.75;"/></g><g class="point"><path d="M312.49,200.13V213.19H315.81V200.13Z" style="vector-effect: non-scaling-stroke; opacity: 1; stroke-width: 0px; fill: rgb(255, 0, 0); fill-opacity: 0.75;"/></g><g class="point"><path d="M315.81,200.13V223.17H319.14V200.13Z" style="vector-effect: non-scaling-stroke; opacity: 1; stroke-width: 0px; fill: rgb(255, 0, 0); fill-opacity: 0.75;"/></g><g class="point"><path d="M319.14,200.13V227.82H322.46V200.13Z" style="vector-effect: non-scaling-stroke; opacity: 1; stroke-width: 0px; fill: rgb(255, 0, 0); fill-opacity: 0.75;"/></g><g class="point"><path d="M322.46,200.13V230.13H325.78V200.13Z" style="vector-effect: non-scaling-stroke; opacity: 1; stroke-width: 0px; fill: rgb(255, 0, 0); fill-opacity: 0.75;"/></g><g class="point"><path d="M325.78,200.13V228.31H329.11V200.13Z" style="vector-effect: non-scaling-stroke; opacity: 1; stroke-width: 0px; fill: rgb(240, 128, 128); fill-opacity: 0.75;"/></g><g class="point"><path d="M329.11,200.13V227.39H332.43V200.13Z" style="vector-effect: non-scaling-stroke; opacity: 1; stroke-width: 0px; fill: rgb(240, 128, 128); fill-opacity: 0.75;"/></g><g class="point"><path d="M332.43,200.13V228.98H335.76V200.13Z" style="vector-effect: non-scaling-stroke; opacity: 1; stroke-width: 0px; fill: rgb(255, 0, 0); fill-opacity: 0.75;"/></g><g class="point"><path d="M335.76,200.13V225.57H339.08V200.13Z" style="vector-effect: non-scaling-stroke; opacity: 1; stroke-width: 0px; fill: rgb(240, 128, 128); fill-opacity: 0.75;"/></g><g class="point"><path d="M339.08,200.13V223.41H342.41V200.13Z" style="vector-effect: non-scaling-stroke; opacity: 1; stroke-width: 0px; fill: rgb(240, 128, 128); fill-opacity: 0.75;"/></g><g class="point"><path d="M342.41,200.13V218.88H345.73V200.13Z" style="vector-effect: non-scaling-stroke; opacity: 1; stroke-width: 0px; fill: rgb(240, 128, 128); fill-opacity: 0.75;"/></g><g class="point"><path d="M345.73,200.13V214.52H349.05V200.13Z" style="vector-effect: non-scaling-stroke; opacity: 1; stroke-width: 0px; fill: rgb(240, 128, 128); fill-opacity: 0.75;"/></g><g class="point"><path d="M349.05,200.13V206.27H352.38V200.13Z" style="vector-effect: non-scaling-stroke; opacity: 1; stroke-width: 0px; fill: rgb(240, 128, 128); fill-opacity: 0.75;"/></g><g class="point"><path d="M352.38,200.13V199.53H355.7V200.13Z" style="vector-effect: non-scaling-stroke; opacity: 1; stroke-width: 0px; fill: rgb(0, 128, 0); fill-opacity: 0.75;"/></g><g class="point"><path d="M355.7,200.13V193.98H359.03V200.13Z" style="vector-effect: non-scaling-stroke; opacity: 1; stroke-width: 0px; fill: rgb(0, 128, 0); fill-opacity: 0.75;"/></g><g class="point"><path d="M359.03,200.13V187.57H362.35V200.13Z" style="vector-effect: non-scaling-stroke; opacity: 1; stroke-width: 0px; fill: rgb(0, 128, 0); fill-opacity: 0.75;"/></g><g class="point"><path d="M362.35,200.13V187.29H365.68V200.13Z" style="vector-effect: non-scaling-stroke; opacity: 1; stroke-width: 0px; fill: rgb(0, 128, 0); fill-opacity: 0.75;"/></g><g class="point"><path d="M365.68,200.13V186.1H369V200.13Z" style="vector-effect: non-scaling-stroke; opacity: 1; stroke-width: 0px; fill: rgb(0, 128, 0); fill-opacity: 0.75;"/></g><g class="point"><path d="M369,200.13V183.74H372.32V200.13Z" style="vector-effect: non-scaling-stroke; opacity: 1; stroke-width: 0px; fill: rgb(0, 128, 0); fill-opacity: 0.75;"/></g><g class="point"><path d="M372.32,200.13V176.75H375.65V200.13Z" style="vector-effect: non-scaling-stroke; opacity: 1; stroke-width: 0px; fill: rgb(0, 128, 0); fill-opacity: 0.75;"/></g><g class="point"><path d="M375.65,200.13V167.96H378.97V200.13Z" style="vector-effect: non-scaling-stroke; opacity: 1; stroke-width: 0px; fill: rgb(0, 128, 0); fill-opacity: 0.75;"/></g><g class="point"><path d="M378.97,200.13V163.06H382.3V200.13Z" style="vector-effect: non-scaling-stroke; opacity: 1; stroke-width: 0px; fill: rgb(0, 128, 0); fill-opacity: 0.75;"/></g><g class="point"><path d="M382.3,200.13V160.93H385.62V200.13Z" style="vector-effect: non-scaling-stroke; opacity: 1; stroke-width: 0px; fill: rgb(0, 128, 0); fill-opacity: 0.75;"/></g><g class="point"><path d="M385.62,200.13V153.77H388.95V200.13Z" style="vector-effect: non-scaling-stroke; opacity: 1; stroke-width: 0px; fill: rgb(0, 128, 0); fill-opacity: 0.75;"/></g><g class="point"><path d="M388.95,200.13V138.98H392.27V200.13Z" style="vector-effect: non-scaling-stroke; opacity: 1; stroke-width: 0px; fill: rgb(0, 128, 0); fill-opacity: 0.75;"/></g><g class="point"><path d="M392.27,200.13V154.41H395.59V200.13Z" style="vector-effect: non-scaling-stroke; opacity: 1; stroke-width: 0px; fill: rgb(144, 238, 144); fill-opacity: 0.75;"/></g><g class="point"><path d="M395.59,200.13V154H398.92V200.13Z" style="vector-effect: non-scaling-stroke; opacity: 1; stroke-width: 0px; fill: rgb(0, 128, 0); fill-opacity: 0.75;"/></g><g class="point"><path d="M398.92,200.13V162.42H402.24V200.13Z" style="vector-effect: non-scaling-stroke; opacity: 1; stroke-width: 0px; fill: rgb(144, 238, 144); fill-opacity: 0.75;"/></g><g class="point"><path d="M402.24,200.13V183.76H405.57V200.13Z" style="vector-effect: non-scaling-stroke; opacity: 1; stroke-width: 0px; fill: rgb(144, 238, 144); fill-opacity: 0.75;"/></g><g class="point"><path d="M405.57,200.13V201.99H408.89V200.13Z" style="vector-effect: non-scaling-stroke; opacity: 1; stroke-width: 0px; fill: rgb(255, 0, 0); fill-opacity: 0.75;"/></g><g class="point"><path d="M408.89,200.13V212.27H412.22V200.13Z" style="vector-effect: non-scaling-stroke; opacity: 1; stroke-width: 0px; fill: rgb(255, 0, 0); fill-opacity: 0.75;"/></g><g class="point"><path d="M412.22,200.13V206.52H415.54V200.13Z" style="vector-effect: non-scaling-stroke; opacity: 1; stroke-width: 0px; fill: rgb(240, 128, 128); fill-opacity: 0.75;"/></g><g class="point"><path d="M415.54,200.13V212.24H418.86V200.13Z" style="vector-effect: non-scaling-stroke; opacity: 1; stroke-width: 0px; fill: rgb(255, 0, 0); fill-opacity: 0.75;"/></g><g class="point"><path d="M418.86,200.13V219.15H422.19V200.13Z" style="vector-effect: non-scaling-stroke; opacity: 1; stroke-width: 0px; fill: rgb(255, 0, 0); fill-opacity: 0.75;"/></g><g class="point"><path d="M422.19,200.13V221.19H425.51V200.13Z" style="vector-effect: non-scaling-stroke; opacity: 1; stroke-width: 0px; fill: rgb(255, 0, 0); fill-opacity: 0.75;"/></g><g class="point"><path d="M425.51,200.13V219.9H428.84V200.13Z" style="vector-effect: non-scaling-stroke; opacity: 1; stroke-width: 0px; fill: rgb(240, 128, 128); fill-opacity: 0.75;"/></g><g class="point"><path d="M428.84,200.13V209.93H432.16V200.13Z" style="vector-effect: non-scaling-stroke; opacity: 1; stroke-width: 0px; fill: rgb(240, 128, 128); fill-opacity: 0.75;"/></g><g class="point"><path d="M432.16,200.13V201.12H435.49V200.13Z" style="vector-effect: non-scaling-stroke; opacity: 1; stroke-width: 0px; fill: rgb(240, 128, 128); fill-opacity: 0.75;"/></g><g class="point"><path d="M435.49,200.13V201.35H438.81V200.13Z" style="vector-effect: non-scaling-stroke; opacity: 1; stroke-width: 0px; fill: rgb(255, 0, 0); fill-opacity: 0.75;"/></g><g class="point"><path d="M438.81,200.13V211.48H442.14V200.13Z" style="vector-effect: non-scaling-stroke; opacity: 1; stroke-width: 0px; fill: rgb(255, 0, 0); fill-opacity: 0.75;"/></g><g class="point"><path d="M442.14,200.13V213.27H445.46V200.13Z" style="vector-effect: non-scaling-stroke; opacity: 1; stroke-width: 0px; fill: rgb(255, 0, 0); fill-opacity: 0.75;"/></g><g class="point"><path d="M445.46,200.13V219.52H448.78V200.13Z" style="vector-effect: non-scaling-stroke; opacity: 1; stroke-width: 0px; fill: rgb(255, 0, 0); fill-opacity: 0.75;"/></g><g class="point"><path d="M448.78,200.13V236.14H452.11V200.13Z" style="vector-effect: non-scaling-stroke; opacity: 1; stroke-width: 0px; fill: rgb(255, 0, 0); fill-opacity: 0.75;"/></g><g class="point"><path d="M452.11,200.13V238.52H455.43V200.13Z" style="vector-effect: non-scaling-stroke; opacity: 1; stroke-width: 0px; fill: rgb(255, 0, 0); fill-opacity: 0.75;"/></g><g class="point"><path d="M455.43,200.13V254.68H458.76V200.13Z" style="vector-effect: non-scaling-stroke; opacity: 1; stroke-width: 0px; fill: rgb(255, 0, 0); fill-opacity: 0.75;"/></g><g class="point"><path d="M458.76,200.13V260.3H462.08V200.13Z" style="vector-effect: non-scaling-stroke; opacity: 1; stroke-width: 0px; fill: rgb(255, 0, 0); fill-opacity: 0.75;"/></g><g class="point"><path d="M462.08,200.13V250.46H465.41V200.13Z" style="vector-effect: non-scaling-stroke; opacity: 1; stroke-width: 0px; fill: rgb(240, 128, 128); fill-opacity: 0.75;"/></g><g class="point"><path d="M465.41,200.13V243.67H468.73V200.13Z" style="vector-effect: non-scaling-stroke; opacity: 1; stroke-width: 0px; fill: rgb(240, 128, 128); fill-opacity: 0.75;"/></g><g class="point"><path d="M468.73,200.13V234.91H472.05V200.13Z" style="vector-effect: non-scaling-stroke; opacity: 1; stroke-width: 0px; fill: rgb(240, 128, 128); fill-opacity: 0.75;"/></g><g class="point"><path d="M472.05,200.13V229.8H475.38V200.13Z" style="vector-effect: non-scaling-stroke; opacity: 1; stroke-width: 0px; fill: rgb(240, 128, 128); fill-opacity: 0.75;"/></g><g class="point"><path d="M475.38,200.13V228.16H478.7V200.13Z" style="vector-effect: non-scaling-stroke; opacity: 1; stroke-width: 0px; fill: rgb(240, 128, 128); fill-opacity: 0.75;"/></g><g class="point"><path d="M478.7,200.13V230.79H482.03V200.13Z" style="vector-effect: non-scaling-stroke; opacity: 1; stroke-width: 0px; fill: rgb(255, 0, 0); fill-opacity: 0.75;"/></g><g class="point"><path d="M482.03,200.13V231.95H485.35V200.13Z" style="vector-effect: non-scaling-stroke; opacity: 1; stroke-width: 0px; fill: rgb(255, 0, 0); fill-opacity: 0.75;"/></g><g class="point"><path d="M485.35,200.13V229.95H488.68V200.13Z" style="vector-effect: non-scaling-stroke; opacity: 1; stroke-width: 0px; fill: rgb(240, 128, 128); fill-opacity: 0.75;"/></g><g class="point"><path d="M488.68,200.13V227.59H492V200.13Z" style="vector-effect: non-scaling-stroke; opacity: 1; stroke-width: 0px; fill: rgb(240, 128, 128); fill-opacity: 0.75;"/></g><g class="point"><path d="M492,200.13V228.97H495.32V200.13Z" style="vector-effect: non-scaling-stroke; opacity: 1; stroke-width: 0px; fill: rgb(255, 0, 0); fill-opacity: 0.75;"/></g><g class="point"><path d="M495.32,200.13V227.35H498.65V200.13Z" style="vector-effect: non-scaling-stroke; opacity: 1; stroke-width: 0px; fill: rgb(240, 128, 128); fill-opacity: 0.75;"/></g><g class="point"><path d="M498.65,200.13V225.08H501.97V200.13Z" style="vector-effect: non-scaling-stroke; opacity: 1; stroke-width: 0px; fill: rgb(240, 128, 128); fill-opacity: 0.75;"/></g><g class="point"><path d="M501.97,200.13V221.1H505.3V200.13Z" style="vector-effect: non-scaling-stroke; opacity: 1; stroke-width: 0px; fill: rgb(240, 128, 128); fill-opacity: 0.75;"/></g><g class="point"><path d="M505.3,200.13V211.88H508.62V200.13Z" style="vector-effect: non-scaling-stroke; opacity: 1; stroke-width: 0px; fill: rgb(240, 128, 128); fill-opacity: 0.75;"/></g><g class="point"><path d="M508.62,200.13V201.65H511.95V200.13Z" style="vector-effect: non-scaling-stroke; opacity: 1; stroke-width: 0px; fill: rgb(240, 128, 128); fill-opacity: 0.75;"/></g><g class="point"><path d="M511.95,200.13V193.5H515.27V200.13Z" style="vector-effect: non-scaling-stroke; opacity: 1; stroke-width: 0px; fill: rgb(0, 128, 0); fill-opacity: 0.75;"/></g><g class="point"><path d="M515.27,200.13V185.04H518.59V200.13Z" style="vector-effect: non-scaling-stroke; opacity: 1; stroke-width: 0px; fill: rgb(0, 128, 0); fill-opacity: 0.75;"/></g><g class="point"><path d="M518.59,200.13V178.59H521.92V200.13Z" style="vector-effect: non-scaling-stroke; opacity: 1; stroke-width: 0px; fill: rgb(0, 128, 0); fill-opacity: 0.75;"/></g><g class="point"><path d="M521.92,200.13V166.12H525.24V200.13Z" style="vector-effect: non-scaling-stroke; opacity: 1; stroke-width: 0px; fill: rgb(0, 128, 0); fill-opacity: 0.75;"/></g><g class="point"><path d="M525.24,200.13V163.58H528.57V200.13Z" style="vector-effect: non-scaling-stroke; opacity: 1; stroke-width: 0px; fill: rgb(0, 128, 0); fill-opacity: 0.75;"/></g><g class="point"><path d="M528.57,200.13V158.66H531.89V200.13Z" style="vector-effect: non-scaling-stroke; opacity: 1; stroke-width: 0px; fill: rgb(0, 128, 0); fill-opacity: 0.75;"/></g><g class="point"><path d="M531.89,200.13V157.5H535.22V200.13Z" style="vector-effect: non-scaling-stroke; opacity: 1; stroke-width: 0px; fill: rgb(0, 128, 0); fill-opacity: 0.75;"/></g><g class="point"><path d="M535.22,200.13V160.27H538.54V200.13Z" style="vector-effect: non-scaling-stroke; opacity: 1; stroke-width: 0px; fill: rgb(144, 238, 144); fill-opacity: 0.75;"/></g><g class="point"><path d="M538.54,200.13V169.97H541.86V200.13Z" style="vector-effect: non-scaling-stroke; opacity: 1; stroke-width: 0px; fill: rgb(144, 238, 144); fill-opacity: 0.75;"/></g><g class="point"><path d="M541.86,200.13V176.02H545.19V200.13Z" style="vector-effect: non-scaling-stroke; opacity: 1; stroke-width: 0px; fill: rgb(144, 238, 144); fill-opacity: 0.75;"/></g><g class="point"><path d="M545.19,200.13V182.98H548.51V200.13Z" style="vector-effect: non-scaling-stroke; opacity: 1; stroke-width: 0px; fill: rgb(144, 238, 144); fill-opacity: 0.75;"/></g><g class="point"><path d="M548.51,200.13V194.03H551.84V200.13Z" style="vector-effect: non-scaling-stroke; opacity: 1; stroke-width: 0px; fill: rgb(144, 238, 144); fill-opacity: 0.75;"/></g><g class="point"><path d="M551.84,200.13V211.06H555.16V200.13Z" style="vector-effect: non-scaling-stroke; opacity: 1; stroke-width: 0px; fill: rgb(255, 0, 0); fill-opacity: 0.75;"/></g><g class="point"><path d="M555.16,200.13V218.63H558.49V200.13Z" style="vector-effect: non-scaling-stroke; opacity: 1; stroke-width: 0px; fill: rgb(255, 0, 0); fill-opacity: 0.75;"/></g><g class="point"><path d="M558.49,200.13V222.02H561.81V200.13Z" style="vector-effect: non-scaling-stroke; opacity: 1; stroke-width: 0px; fill: rgb(255, 0, 0); fill-opacity: 0.75;"/></g><g class="point"><path d="M561.81,200.13V224.85H565.14V200.13Z" style="vector-effect: non-scaling-stroke; opacity: 1; stroke-width: 0px; fill: rgb(255, 0, 0); fill-opacity: 0.75;"/></g><g class="point"><path d="M565.14,200.13V224.26H568.46V200.13Z" style="vector-effect: non-scaling-stroke; opacity: 1; stroke-width: 0px; fill: rgb(240, 128, 128); fill-opacity: 0.75;"/></g><g class="point"><path d="M568.46,200.13V216.43H571.78V200.13Z" style="vector-effect: non-scaling-stroke; opacity: 1; stroke-width: 0px; fill: rgb(240, 128, 128); fill-opacity: 0.75;"/></g><g class="point"><path d="M571.78,200.13V212.49H575.11V200.13Z" style="vector-effect: non-scaling-stroke; opacity: 1; stroke-width: 0px; fill: rgb(240, 128, 128); fill-opacity: 0.75;"/></g><g class="point"><path d="M575.11,200.13V216.43H578.43V200.13Z" style="vector-effect: non-scaling-stroke; opacity: 1; stroke-width: 0px; fill: rgb(255, 0, 0); fill-opacity: 0.75;"/></g><g class="point"><path d="M578.43,200.13V218.17H581.76V200.13Z" style="vector-effect: non-scaling-stroke; opacity: 1; stroke-width: 0px; fill: rgb(255, 0, 0); fill-opacity: 0.75;"/></g><g class="point"><path d="M581.76,200.13V215.24H585.08V200.13Z" style="vector-effect: non-scaling-stroke; opacity: 1; stroke-width: 0px; fill: rgb(240, 128, 128); fill-opacity: 0.75;"/></g><g class="point"><path d="M585.08,200.13V215.35H588.41V200.13Z" style="vector-effect: non-scaling-stroke; opacity: 1; stroke-width: 0px; fill: rgb(255, 0, 0); fill-opacity: 0.75;"/></g><g class="point"><path d="M588.41,200.13V214.8H591.73V200.13Z" style="vector-effect: non-scaling-stroke; opacity: 1; stroke-width: 0px; fill: rgb(240, 128, 128); fill-opacity: 0.75;"/></g><g class="point"><path d="M591.73,200.13V211.01H595.05V200.13Z" style="vector-effect: non-scaling-stroke; opacity: 1; stroke-width: 0px; fill: rgb(240, 128, 128); fill-opacity: 0.75;"/></g><g class="point"><path d="M595.05,200.13V210.01H598.38V200.13Z" style="vector-effect: non-scaling-stroke; opacity: 1; stroke-width: 0px; fill: rgb(240, 128, 128); fill-opacity: 0.75;"/></g><g class="point"><path d="M598.38,200.13V213.53H601.7V200.13Z" style="vector-effect: non-scaling-stroke; opacity: 1; stroke-width: 0px; fill: rgb(255, 0, 0); fill-opacity: 0.75;"/></g><g class="point"><path d="M601.7,200.13V217.59H605.03V200.13Z" style="vector-effect: non-scaling-stroke; opacity: 1; stroke-width: 0px; fill: rgb(255, 0, 0); fill-opacity: 0.75;"/></g><g class="point"><path d="M605.03,200.13V218.02H608.35V200.13Z" style="vector-effect: non-scaling-stroke; opacity: 1; stroke-width: 0px; fill: rgb(255, 0, 0); fill-opacity: 0.75;"/></g><g class="point"><path d="M608.35,200.13V216.75H611.68V200.13Z" style="vector-effect: non-scaling-stroke; opacity: 1; stroke-width: 0px; fill: rgb(240, 128, 128); fill-opacity: 0.75;"/></g><g class="point"><path d="M611.68,200.13V213.37H615V200.13Z" style="vector-effect: non-scaling-stroke; opacity: 1; stroke-width: 0px; fill: rgb(240, 128, 128); fill-opacity: 0.75;"/></g></g></g></g><g class="scatterlayer mlayer"><g class="trace scatter traceeb1294c3-b9c1-42a1-bffb-29134582c1ac" style="stroke-miterlimit: 2; opacity: 1;"><g class="fills"/><g class="errorbars"/><g class="lines"><path class="js-line" d="M84.77,194.39L94.74,192.77L98.07,192.31L104.72,191.2L108.04,180.59L111.36,171.2L114.69,164.87L121.34,154.07L124.66,149L127.99,144.35L131.31,142.52L134.64,140.08L137.96,142.48L151.26,151.35L154.58,151.96L174.53,156.72L177.85,155.13L181.18,155.9L184.5,160.55L194.47,169.23L197.8,172.08L204.45,173.65L207.77,172.88L214.42,165.3L217.74,163.36L224.39,161.87L227.72,159.35L231.04,155.16L234.36,149.54L237.69,134.22L241.01,126.2L247.66,94.1L250.99,80.68L254.31,75.99L257.64,81.27L260.96,87.77L264.28,81.24L267.61,80.53L270.93,81.55L274.26,87.65L277.58,90.89L284.23,95.34L287.55,89.55L290.88,84.44L294.2,82.94L297.53,83.94L300.85,90.79L307.5,97.6L310.82,99.22L314.15,109.08L317.47,124.82L324.12,146.2L327.45,151.42L330.77,157.31L334.09,166.13L340.74,172.74L344.07,172.89L347.39,172.13L350.72,165.41L357.36,151.43L360.69,141.89L364.01,138.4L367.34,133.7L370.66,127.24L373.99,114.41L380.64,83.41L383.96,71.48L387.28,52.73L390.61,22.66L393.93,26.66L397.26,14.71L400.58,13.7L403.91,30.94L407.23,49.64L410.55,62.96L413.88,58.81L417.2,67.56L420.53,79.22L423.85,86.53L427.18,90.18L430.5,82.66L433.82,74.1L437.15,74.64L440.47,87.6L443.8,92.67L447.12,103.77L450.45,129.39L453.77,141.37L457.09,171.17L460.42,191.83L463.74,194.57L467.07,198.67L470.39,198.6L473.72,200.91L477.04,206.27L483.69,225.68L487.01,231.14L490.34,235.64L493.66,244.23L500.31,253.38L503.64,254.65L506.96,248.37L510.28,238.52L513.61,228.71L516.93,216.48L520.26,204.64L523.58,183.67L526.91,172L530.23,156.71L533.55,144.89L536.88,137.69L540.2,139.86L543.53,139.88L546.85,142.55L550.18,152.07L553.5,171.84L556.82,184.03L563.47,201.9L566.8,207.35L570.12,203.6L573.45,202.75L580.09,217.01L583.42,217.86L590.07,224.9L593.39,223.82L596.72,225.29L600.04,232.16L603.36,240.58L606.69,245.49L610.01,248.37L613.34,248.3" style="vector-effect: non-scaling-stroke; fill: none; stroke: rgb(108, 166, 205); stroke-opacity: 1; stroke-width: 2px; opacity: 1;"/></g><g class="points"/><g class="text"/></g><g class="trace scatter trace44091628-0bce-4e9a-86da-9cce505fe8ea" style="stroke-miterlimit: 2; opacity: 1;"><g class="fills"/><g class="errorbars"/><g class="lines"><path class="js-line" d="M111.36,186.53L124.66,168.06L127.99,163.32L134.64,155.34L137.96,152.77L144.61,150.3L147.93,149.9L164.55,151.99L167.88,152.57L177.85,154.22L181.18,154.56L187.82,157.34L191.15,159.22L204.45,167.01L207.77,168.19L214.42,167.73L217.74,166.85L227.72,164.05L231.04,162.27L234.36,159.73L237.69,154.63L241.01,148.94L244.34,140.96L254.31,112.32L257.64,106.11L267.61,94.67L270.93,92.05L274.26,91.17L277.58,91.11L284.23,92.29L287.55,91.74L297.53,87.84L300.85,88.43L307.5,91.13L310.82,92.75L314.15,96.02L317.47,101.78L340.74,149.45L344.07,154.14L347.39,157.74L350.72,159.27L354.04,159.12L357.36,157.58L367.34,147.73L370.66,143.63L373.99,137.79L377.31,129.74L383.96,110.68L387.28,99.09L390.61,83.8L393.93,72.37L400.58,51.41L403.91,47.32L407.23,47.78L410.55,50.82L413.88,52.42L417.2,55.45L427.18,70.41L430.5,72.86L437.15,73.41L440.47,76.25L443.8,79.53L447.12,84.38L453.77,102.98L457.09,116.62L463.74,144.24L467.07,155.13L473.72,171.24L477.04,178.25L493.66,215.39L496.99,222.2L503.64,233.68L506.96,236.62L510.28,237L513.61,235.34L516.93,231.57L520.26,226.18L526.91,208.54L530.23,198.18L536.88,177.55L540.2,170.02L543.53,163.99L546.85,159.7L550.18,158.17L553.5,160.91L560.15,171L563.47,177.18L566.8,183.22L570.12,187.29L576.77,194.46L580.09,198.97L590.07,210.22L593.39,212.94L600.04,218.76L603.36,223.13L610.01,231.75L613.34,235.06" style="vector-effect: non-scaling-stroke; fill: none; stroke: rgb(108, 118, 205); stroke-opacity: 1; stroke-width: 2px; opacity: 1;"/></g><g class="points"/><g class="text"/></g></g></g><g class="overplot"/><path class="xlines-above crisp" d="M0,0" style="fill: none;"/><path class="ylines-above crisp" d="M0,0" style="fill: none;"/><g class="overlines-above"/><g class="xaxislayer-above"><g class="xtick"><text text-anchor="middle" x="0" y="333" transform="translate(47.66,0)" style="font-family: 'Open Sans', verdana, arial, sans-serif; font-size: 12px; fill: rgb(214, 223, 239); fill-opacity: 1; white-space: pre; opacity: 1;">Mar 2019</text></g><g class="xtick"><text text-anchor="middle" x="0" y="333" style="font-family: 'Open Sans', verdana, arial, sans-serif; font-size: 12px; fill: rgb(214, 223, 239); fill-opacity: 1; white-space: pre; opacity: 1;" transform="translate(150.72,0)">Apr 2019</text></g><g class="xtick"><text text-anchor="middle" x="0" y="333" style="font-family: 'Open Sans', verdana, arial, sans-serif; font-size: 12px; fill: rgb(214, 223, 239); fill-opacity: 1; white-space: pre; opacity: 1;" transform="translate(250.45,0)">May 2019</text></g><g class="xtick"><text text-anchor="middle" x="0" y="333" style="font-family: 'Open Sans', verdana, arial, sans-serif; font-size: 12px; fill: rgb(214, 223, 239); fill-opacity: 1; white-space: pre; opacity: 1;" transform="translate(353.5,0)">Jun 2019</text></g><g class="xtick"><text text-anchor="middle" x="0" y="333" style="font-family: 'Open Sans', verdana, arial, sans-serif; font-size: 12px; fill: rgb(214, 223, 239); fill-opacity: 1; white-space: pre; opacity: 1;" transform="translate(453.23,0)">Jul 2019</text></g><g class="xtick"><text text-anchor="middle" x="0" y="333" style="font-family: 'Open Sans', verdana, arial, sans-serif; font-size: 12px; fill: rgb(214, 223, 239); fill-opacity: 1; white-space: pre; opacity: 1;" transform="translate(556.28,0)">Aug 2019</text></g><g class="xtick"><text text-anchor="middle" x="0" y="333" style="font-family: 'Open Sans', verdana, arial, sans-serif; font-size: 12px; fill: rgb(214, 223, 239); fill-opacity: 1; white-space: pre; opacity: 1;" transform="translate(659.34,0)">Sep 2019</text></g></g><g class="yaxislayer-above"><g class="ytick"><text text-anchor="end" x="45" y="4.199999999999999" transform="translate(0,315.97)" style="font-family: 'Open Sans', verdana, arial, sans-serif; font-size: 12px; fill: rgb(214, 223, 239); fill-opacity: 1; white-space: pre; opacity: 1;">−400</text></g><g class="ytick"><text text-anchor="end" x="45" y="4.199999999999999" style="font-family: 'Open Sans', verdana, arial, sans-serif; font-size: 12px; fill: rgb(214, 223, 239); fill-opacity: 1; white-space: pre; opacity: 1;" transform="translate(0,281.05)">−200</text></g><g class="ytick"><text text-anchor="end" x="45" y="4.199999999999999" style="font-family: 'Open Sans', verdana, arial, sans-serif; font-size: 12px; fill: rgb(214, 223, 239); fill-opacity: 1; white-space: pre; opacity: 1;" transform="translate(0,246.13)">0</text></g><g class="ytick"><text text-anchor="end" x="45" y="4.199999999999999" style="font-family: 'Open Sans', verdana, arial, sans-serif; font-size: 12px; fill: rgb(214, 223, 239); fill-opacity: 1; white-space: pre; opacity: 1;" transform="translate(0,211.21)">200</text></g><g class="ytick"><text text-anchor="end" x="45" y="4.199999999999999" style="font-family: 'Open Sans', verdana, arial, sans-serif; font-size: 12px; fill: rgb(214, 223, 239); fill-opacity: 1; white-space: pre; opacity: 1;" transform="translate(0,176.29)">400</text></g><g class="ytick"><text text-anchor="end" x="45" y="4.199999999999999" style="font-family: 'Open Sans', verdana, arial, sans-serif; font-size: 12px; fill: rgb(214, 223, 239); fill-opacity: 1; white-space: pre; opacity: 1;" transform="translate(0,141.36)">600</text></g><g class="ytick"><text text-anchor="end" x="45" y="4.199999999999999" style="font-family: 'Open Sans', verdana, arial, sans-serif; font-size: 12px; fill: rgb(214, 223, 239); fill-opacity: 1; white-space: pre; opacity: 1;" transform="translate(0,106.44)">800</text></g><g class="ytick"><text text-anchor="end" x="45" y="4.199999999999999" style="font-family: 'Open Sans', verdana, arial, sans-serif; font-size: 12px; fill: rgb(214, 223, 239); fill-opacity: 1; white-space: pre; opacity: 1;" transform="translate(0,71.52)">1000</text></g></g><g class="overaxes-above"/></g></g><g class="polarlayer"/><g class="smithlayer"/><g class="ternarylayer"/><g class="geolayer"/><g class="funnelarealayer"/><g class="pielayer"/><g class="iciclelayer"/><g class="treemaplayer"/><g class="sunburstlayer"/><g class="glimages"/><defs id="topdefs-63bc8e"><g class="clips"/><clipPath id="legend63bc8e"><rect width="271" height="29" x="0" y="0"/></clipPath></defs><g class="layer-above"><g class="imagelayer"/><g class="shapelayer"/></g><g class="infolayer"><g class="legend" pointer-events="all" transform="translate(390,11.519999999999996)"><rect class="bg" shape-rendering="crispEdges" style="stroke: rgb(68, 68, 68); stroke-opacity: 1; fill: rgb(33, 34, 44); fill-opacity: 1; stroke-width: 0px;" width="271" height="29" x="0" y="0"/><g class="scrollbox" transform="" clip-path="url(#legend63bc8e)"><g class="groups"><g class="traces" transform="translate(0,14.5)" style="opacity: 1;"><text class="legendtext" text-anchor="start" x="40" y="4.680000000000001" style="font-family: 'Open Sans', verdana, arial, sans-serif; font-size: 12px; fill: rgb(214, 223, 239); fill-opacity: 1; white-space: pre;">MACD</text><g class="layers" style="opacity: 1;"><g class="legendfill"/><g class="legendlines"><path class="js-line" d="M5,0h30" style="fill: none; stroke: rgb(108, 166, 205); stroke-opacity: 1; stroke-width: 2px;"/></g><g class="legendsymbols"><g class="legendpoints"/></g></g><rect class="legendtoggle" x="0" y="-9.5" width="78.453125" height="19" style="fill: rgb(0, 0, 0); fill-opacity: 0;"/></g><g class="traces" transform="translate(80.953125,14.5)" style="opacity: 1;"><text class="legendtext" text-anchor="start" x="40" y="4.680000000000001" style="font-family: 'Open Sans', verdana, arial, sans-serif; font-size: 12px; fill: rgb(214, 223, 239); fill-opacity: 1; white-space: pre;">Signal</text><g class="layers" style="opacity: 1;"><g class="legendfill"/><g class="legendlines"><path class="js-line" d="M5,0h30" style="fill: none; stroke: rgb(108, 118, 205); stroke-opacity: 1; stroke-width: 2px;"/></g><g class="legendsymbols"><g class="legendpoints"/></g></g><rect class="legendtoggle" x="0" y="-9.5" width="79.578125" height="19" style="fill: rgb(0, 0, 0); fill-opacity: 0;"/></g><g class="traces" transform="translate(163.03125,14.5)" style="opacity: 1;"><text class="legendtext" text-anchor="start" x="40" y="4.680000000000001" style="font-family: 'Open Sans', verdana, arial, sans-serif; font-size: 12px; fill: rgb(214, 223, 239); fill-opacity: 1; white-space: pre;">Histogram</text><g class="layers" style="opacity: 1;"><g class="legendfill"/><g class="legendlines"/><g class="legendsymbols"><g class="legendpoints"><path class="legendundefined" d="M6,6H-6V-6H6Z" transform="translate(20,0)" style="stroke-width: 0px; fill: rgb(192, 192, 192); fill-opacity: 0.75;"/></g></g></g><rect class="legendtoggle" x="0" y="-9.5" width="104.5625" height="19" style="fill: rgb(0, 0, 0); fill-opacity: 0;"/></g></g></g><rect class="scrollbar" rx="20" ry="3" width="0" height="0" style="fill: rgb(128, 139, 164); fill-opacity: 1;" x="0" y="0"/></g><g class="g-gtitle"/><g class="g-xtitle"/><g class="g-ytitle"/></g></svg>