<svg class="main-svg" xmlns="http://www.w3.org/2000/svg" xmlns:xlink="http://www.w3.org/1999/xlink" width="700" height="350" style="" viewBox="0 0 700 350"><rect x="0" y="0" width="700" height="350" style="fill: rgb(33, 34, 44); fill-opacity: 1;"/><defs id="defs-f33430"><g class="clips"><clipPath id="clipf33430xyplot" class="plotclip"><rect width="615" height="274"/></clipPath><clipPath class="axesclip" id="clipf33430x"><rect x="44" y="0" width="615" height="350"/></clipPath><clipPath class="axesclip" id="clipf33430y"><rect x="0" y="46" width="700" height="274"/></clipPath><clipPath class="axesclip" id="clipf33430xy"><rect x="44" y="46" width="615" height="274"/></clipPath></g><g class="gradients"/><g class="patterns"/></defs><g class="bglayer"/><g class="layer-below"><g class="imagelayer"/><g class="shapelayer"/></g><g class="cartesianlayer"><g class="subplot xy"><g class="layer-subplot"><g class="shapelayer"/><g class="imagelayer"/></g><g class="gridlayer"><g class="x"><path class="xgrid crisp" transform="translate(147.61,0)" d="M0,46v274" style="stroke: rgb(47, 62, 78); stroke-opacity: 1; stroke-width: 1px;"/><path class="xgrid crisp" transform="translate(247.89,0)" d="M0,46v274" style="stroke: rgb(47, 62, 78); stroke-opacity: 1; stroke-width: 1px;"/><path class="xgrid crisp" transform="translate(351.5,0)" d="M0,46v274" style="stroke: rgb(47, 62, 78); stroke-opacity: 1; stroke-width: 1px;"/><path class="xgrid crisp" transform="translate(451.77,0)" d="M0,46v274" style="stroke: rgb(47, 62, 78); stroke-opacity: 1; stroke-width: 1px;"/><path class="xgrid crisp" transform="translate(555.39,0)" d="M0,46v274" style="stroke: rgb(47, 62, 78); stroke-opacity: 1; stroke-width: 1px;"/></g><g class="y"><path class="ygrid crisp" transform="translate(0,267.18)" d="M44,0h615" style="stroke: rgb(47, 62, 78); stroke-opacity: 1; stroke-width: 1px;"/><path class="ygrid crisp" transform="translate(0,228.46)" d="M44,0h615" style="stroke: rgb(47, 62, 78); stroke-opacity: 1; stroke-width: 1px;"/><path class="ygrid crisp" transform="translate(0,189.74)" d="M44,0h615" style="stroke: rgb(47, 62, 78); stroke-opacity: 1; stroke-width: 1px;"/><path class="ygrid crisp" transform="translate(0,151.01999999999998)" d="M44,0h615" style="stroke: rgb(47, 62, 78); stroke-opacity: 1; stroke-width: 1px;"/><path class="ygrid crisp" transform="translate(0,112.3)" d="M44,0h615" style="stroke: rgb(47, 62, 78); stroke-opacity: 1; stroke-width: 1px;"/><path class="ygrid crisp" transform="translate(0,73.58)" d="M44,0h615" style="stroke: rgb(47, 62, 78); stroke-opacity: 1; stroke-width: 1px;"/></g></g><g class="zerolinelayer"><path class="yzl zl crisp" transform="translate(0,305.9)" d="M44,0h615" style="stroke: rgb(47, 62, 78); stroke-opacity: 1; stroke-width: 2px;"/></g><path class="xlines-below"/><path class="ylines-below"/><g class="overlines-below"/><g class="xaxislayer-below"/><g class="yaxislayer-below"/><g class="overaxes-below"/><g class="plot" transform="translate(44,46)" clip-path="url(#clipf33430xyplot)"><g class="scatterlayer mlayer"><g class="trace scatter trace6c10571e-09ac-44db-8786-74074ca2c203" style="stroke-miterlimit: 2; opacity: 1;"><g class="fills"/><g class="errorbars"/><g class="lines"><path class="js-line" d="M0,256.93L3.34,254L6.68,256.8L10.03,260.3L13.37,256.36L20.05,249.1L23.4,253.22L26.74,249.04L30.08,252.8L33.42,256.72L36.77,252.92L40.11,256.59L43.45,252.53L50.14,245.07L53.48,248.26L63.51,236.96L66.85,241.16L70.19,244.74L73.53,241.03L80.22,248.58L83.56,244.44L86.9,240.22L90.24,243.84L96.93,235.84L100.27,239.35L103.61,235.41L106.96,227.16L110.3,218.29L113.64,225.36L127.01,199.2L130.35,204.9L133.7,198.89L137.04,205.3L143.72,195.82L147.07,191.79L150.41,196.55L153.75,192.05L167.12,171.67L170.46,176.99L177.15,165.19L180.49,171.79L183.83,177.73L187.17,171.22L190.52,176.29L193.86,171.33L197.2,176.65L200.54,171.27L207.23,160.31L210.57,153.06L213.91,146.26L217.26,151.99L220.6,158.08L223.94,151.1L230.63,138.67L233.97,131.15L237.31,119.98L240.65,130.73L250.68,96.25L254.02,109.09L257.36,120.73L260.71,129L264.05,118.97L267.39,128.21L274.08,147.51L277.42,138.04L290.79,98.23L294.13,107.61L297.47,116.7L300.82,128.02L304.16,118.2L307.5,126.91L310.84,119.06L314.18,127.58L317.53,137.11L320.87,128.69L324.21,136.23L327.55,128.82L334.24,141.64L337.58,134.41L340.92,141.03L344.27,133.66L354.29,111.64L357.64,102.6L360.98,96.58L364.32,102.71L371.01,89.78L374.35,81.8L377.69,70.18L381.03,62.05L384.38,54.59L387.72,44.96L391.06,27.49L394.4,42.97L397.74,29.39L401.09,40.97L407.77,62.9L411.11,50.89L414.46,38.97L417.8,49L421.14,58.23L424.48,50.07L431.17,33.48L434.51,22.57L441.2,46.66L444.54,37.55L451.22,54.4L454.57,44.58L457.91,53.93L461.25,44.41L464.59,34.66L467.93,42.69L471.28,34.86L474.62,41.5L484.65,61.47L487.99,55.34L494.67,67.47L498.02,62.15L501.36,67.49L504.7,62.13L521.41,29.93L524.76,20.69L528.1,29.84L531.44,21.24L534.78,13.7L538.13,20.8L541.47,27.82L544.81,21.71L551.49,33.45L554.84,41.19L561.52,24.5L564.86,29.83L571.55,18.59L574.89,24.42L581.58,38.58L584.92,32.52L591.6,43.99L594.95,36.85L601.63,49.38L604.97,55.98L611.66,46.28L615,41.85" style="vector-effect: non-scaling-stroke; fill: none; stroke: rgb(108, 166, 205); stroke-opacity: 1; stroke-width: 2px; opacity: 1;"/></g><g class="points"/><g class="text"/></g></g></g><g class="overplot"/><path class="xlines-above crisp" d="M0,0" style="fill: none;"/><path class="ylines-above crisp" d="M0,0" style="fill: none;"/><g class="overlines-above"/><g class="xaxislayer-above"><g class="xtick"><text text-anchor="middle" x="0" y="333" transform="translate(44,0)" style="font-family: 'Open Sans', verdana, arial, sans-serif; font-size: 12px; fill: rgb(214, 223, 239); fill-opacity: 1; white-space: pre; opacity: 1;">Mar 2019</text></g><g class="xtick"><text text-anchor="middle" x="0" y="333" style="font-family: 'Open Sans', verdana, arial, sans-serif; font-size: 12px; fill: rgb(214, 223, 239); fill-opacity: 1; white-space: pre; opacity: 1;" transform="translate(147.61,0)">Apr 2019</text></g><g class="xtick"><text text-anchor="middle" x="0" y="333" style="font-family: 'Open Sans', verdana, arial, sans-serif; font-size: 12px; fill: rgb(214, 223, 239); fill-opacity: 1; white-space: pre; opacity: 1;" transform="translate(247.89,0)">May 2019</text></g><g class="xtick"><text text-anchor="middle" x="0" y="333" style="font-family: 'Open Sans', verdana, arial, sans-serif; font-size: 12px; fill: rgb(214, 223, 239); fill-opacity: 1; white-space: pre; opacity: 1;" transform="translate(351.5,0)">Jun 2019</text></g><g class="xtick"><text text-anchor="middle" x="0" y="333" style="font-family: 'Open Sans', verdana, arial, sans-serif; font-size: 12px; fill: rgb(214, 223, 239); fill-opacity: 1; white-space: pre; opacity: 1;" transform="translate(451.77,0)">Jul 2019</text></g><g class="xtick"><text text-anchor="middle" x="0" y="333" style="font-family: 'Open Sans', verdana, arial, sans-serif; font-size: 12px; fill: rgb(214, 223, 239); fill-opacity: 1; white-space: pre; opacity: 1;" transform="translate(555.39,0)">Aug 2019</text></g><g class="xtick"><text text-anchor="middle" x="0" y="333" style="font-family: 'Open Sans', verdana, arial, sans-serif; font-size: 12px; fill: rgb(214, 223, 239); fill-opacity: 1; white-space: pre; opacity: 1;" transform="translate(659,0)">Sep 2019</text></g></g><g class="yaxislayer-above"><g class="ytick"><text text-anchor="end" x="43" y="4.199999999999999" transform="translate(0,305.9)" style="font-family: 'Open Sans', verdana, arial, sans-serif; font-size: 12px; fill: rgb(214, 223, 239); fill-opacity: 1; white-space: pre; opacity: 1;">0</text></g><g class="ytick"><text text-anchor="end" x="43" y="4.199999999999999" style="font-family: 'Open Sans', verdana, arial, sans-serif; font-size: 12px; fill: rgb(214, 223, 239); fill-opacity: 1; white-space: pre; opacity: 1;" transform="translate(0,267.18)">100B</text></g><g class="ytick"><text text-anchor="end" x="43" y="4.199999999999999" style="font-family: 'Open Sans', verdana, arial, sans-serif; font-size: 12px; fill: rgb(214, 223, 239); fill-opacity: 1; white-space: pre; opacity: 1;" transform="translate(0,228.46)">200B</text></g><g class="ytick"><text text-anchor="end" x="43" y="4.199999999999999" style="font-family: 'Open Sans', verdana, arial, sans-serif; font-size: 12px; fill: rgb(214, 223, 239); fill-opacity: 1; white-space: pre; opacity: 1;" transform="translate(0,189.74)">300B</text></g><g class="ytick"><text text-anchor="end" x="43" y="4.199999999999999" style="font-family: 'Open Sans', verdana, arial, sans-serif; font-size: 12px; fill: rgb(214, 223, 239); fill-opacity: 1; white-space: pre; opacity: 1;" transform="translate(0,151.01999999999998)">400B</text></g><g class="ytick"><text text-anchor="end" x="43" y="4.199999999999999" style="font-family: 'Open Sans', verdana, arial, sans-serif; font-size: 12px; fill: rgb(214, 223, 239); fill-opacity: 1; white-space: pre; opacity: 1;" transform="translate(0,112.3)">500B</text></g><g class="ytick"><text text-anchor="end" x="43" y="4.199999999999999" style="font-family: 'Open Sans', verdana, arial, sans-serif; font-size: 12px; fill: rgb(214, 223, 239); fill-opacity: 1; white-space: pre; opacity: 1;" transform="translate(0,73.58)">600B</text></g></g><g class="overaxes-above"/></g></g><g class="polarlayer"/><g class="smithlayer"/><g class="ternarylayer"/><g class="geolayer"/><g class="funnelarealayer"/><g class="pielayer"/><g class="iciclelayer"/><g class="treemaplayer"/><g class="sunburstlayer"/><g class="glimages"/><defs id="topdefs-f33430"><g class="clips"/><clipPath id="legendf33430"><rect width="71" height="29" x="0" y="0"/></clipPath></defs><g class="layer-above"><g class="imagelayer"/><g class="shapelayer"/></g><g class="infolayer"><g class="legend" pointer-events="all" transform="translate(588,11.519999999999996)"><rect class="bg" shape-rendering="crispEdges" style="stroke: rgb(68, 68, 68); stroke-opacity: 1; fill: rgb(33, 34, 44); fill-opacity: 1; stroke-width: 0px;" width="71" height="29" x="0" y="0"/><g class="scrollbox" transform="" clip-path="url(#legendf33430)"><g class="groups"><g class="traces" transform="translate(0,14.5)" style="opacity: 1;"><text class="legendtext" text-anchor="start" x="40" y="4.680000000000001" style="font-family: 'Open Sans', verdana, arial, sans-serif; font-size: 12px; fill: rgb(214, 223, 239); fill-opacity: 1; white-space: pre;">OBV</text><g class="layers" style="opacity: 1;"><g class="legendfill"/><g class="legendlines"><path class="js-line" d="M5,0h30" style="fill: none; stroke: rgb(108, 166, 205); stroke-opacity: 1; stroke-width: 2px;"/></g><g class="legendsymbols"><g class="legendpoints"/></g></g><rect class="legendtoggle" x="0" y="-9.5" width="68.375" height="19" style="fill: rgb(0, 0, 0); fill-opacity: 0;"/></g></g></g><rect class="scrollbar" rx="20" ry="3" width="0" height="0" style="fill: rgb(128, 139, 164); fill-opacity: 1;" x="0" y="0"/></g><g class="g-gtitle"/><g class="g-xtitle"/><g class="g-ytitle"/></g></svg>