<svg class="main-svg" xmlns="http://www.w3.org/2000/svg" xmlns:xlink="http://www.w3.org/1999/xlink" width="700" height="350" style="" viewBox="0 0 700 350"><rect x="0" y="0" width="700" height="350" style="fill: rgb(33, 34, 44); fill-opacity: 1;"/><defs id="defs-1bd240"><g class="clips"><clipPath id="clip1bd240xyplot" class="plotclip"><rect width="618" height="274"/></clipPath><clipPath class="axesclip" id="clip1bd240x"><rect x="41" y="0" width="618" height="350"/></clipPath><clipPath class="axesclip" id="clip1bd240y"><rect x="0" y="46" width="700" height="274"/></clipPath><clipPath class="axesclip" id="clip1bd240xy"><rect x="41" y="46" width="618" height="274"/></clipPath></g><g class="gradients"/><g class="patterns"/></defs><g class="bglayer"/><g class="layer-below"><g class="imagelayer"/><g class="shapelayer"/></g><g class="cartesianlayer"><g class="subplot xy"><g class="layer-subplot"><g class="shapelayer"><path data-index="0" fill-rule="evenodd" d="M41,118.77H659V275.63H41Z" clip-path="url(#clip1bd240xy)" style="opacity: 0.2; stroke: rgb(0, 0, 0); stroke-opacity: 0; fill: rgb(123, 104, 238); fill-opacity: 1; stroke-width: 0px;"/></g><g class="imagelayer"/></g><g class="gridlayer"><g class="x"><path class="xgrid crisp" transform="translate(145.12,0)" d="M0,46v274" style="stroke: rgb(47, 62, 78); stroke-opacity: 1; stroke-width: 1px;"/><path class="xgrid crisp" transform="translate(245.88,0)" d="M0,46v274" style="stroke: rgb(47, 62, 78); stroke-opacity: 1; stroke-width: 1px;"/><path class="xgrid crisp" transform="translate(350,0)" d="M0,46v274" style="stroke: rgb(47, 62, 78); stroke-opacity: 1; stroke-width: 1px;"/><path class="xgrid crisp" transform="translate(450.76,0)" d="M0,46v274" style="stroke: rgb(47, 62, 78); stroke-opacity: 1; stroke-width: 1px;"/><path class="xgrid crisp" transform="translate(554.88,0)" d="M0,46v274" style="stroke: rgb(47, 62, 78); stroke-opacity: 1; stroke-width: 1px;"/></g><g class="y"><path class="ygrid crisp" transform="translate(0,317.25)" d="M41,0h618" style="stroke: rgb(47, 62, 78); stroke-opacity: 1; stroke-width: 1px;"/><path class="ygrid crisp" transform="translate(0,277.24)" d="M41,0h618" style="stroke: rgb(47, 62, 78); stroke-opacity: 1; stroke-width: 1px;"/><path class="ygrid crisp" transform="translate(0,237.22)" d="M41,0h618" style="stroke: rgb(47, 62, 78); stroke-opacity: 1; stroke-width: 1px;"/><path class="ygrid crisp" transform="translate(0,157.18)" d="M41,0h618" style="stroke: rgb(47, 62, 78); stroke-opacity: 1; stroke-width: 1px;"/><path class="ygrid crisp" transform="translate(0,117.16)" d="M41,0h618" style="stroke: rgb(47, 62, 78); stroke-opacity: 1; stroke-width: 1px;"/><path class="ygrid crisp" transform="translate(0,77.15)" d="M41,0h618" style="stroke: rgb(47, 62, 78); stroke-opacity: 1; stroke-width: 1px;"/></g></g><g class="zerolinelayer"><path class="yzl zl crisp" transform="translate(0,197.2)" d="M41,0h618" style="stroke: rgb(47, 62, 78); stroke-opacity: 1; stroke-width: 2px;"/></g><path class="xlines-below"/><path class="ylines-below"/><g class="overlines-below"/><g class="xaxislayer-below"/><g class="yaxislayer-below"/><g class="overaxes-below"/><g class="plot" transform="translate(41,46)" clip-path="url(#clip1bd240xyplot)"><g class="scatterlayer mlayer"><g class="trace scatter tracef312f9e3-f51e-46f9-a1ed-e1271a942a2a" style="stroke-miterlimit: 2; opacity: 1;"><g class="fills"/><g class="errorbars"/><g class="lines"><path class="js-line" d="M87.33,102.56L90.68,121.17L94.04,106.35L97.4,111.79L100.76,124.69L104.12,104.3L107.48,13.7L114.2,121.78L117.55,137.2L120.91,166.31L124.27,171.5L127.63,183.73L130.99,214.9L134.35,202.18L137.71,230.45L147.78,171.96L151.14,167.64L154.5,135.22L157.86,123.78L161.22,109.63L164.58,107.91L167.93,105.98L171.29,118.64L174.65,114.2L178.01,101.44L181.37,143.69L184.73,202.56L188.09,186.87L191.45,189.13L194.8,177.66L198.16,175.6L201.52,134.34L204.88,119.19L208.24,98.65L211.6,65.17L214.96,88.37L218.32,122.32L221.67,152.11L225.03,154.86L228.39,147.11L231.75,131.43L235.11,120.17L238.47,34.61L241.83,137.63L245.18,61.03L248.54,105.28L251.9,135.9L255.26,222.75L258.62,257.38L261.98,235.63L265.34,164.17L268.7,185.19L272.05,182.43L275.41,191.4L278.77,164.45L282.13,147.11L285.49,136.71L288.85,94.22L292.21,97.52L298.92,139.8L302.28,176.06L305.64,156.29L309,160.18L312.36,150.34L315.72,206.23L319.08,227.09L322.43,190.36L325.79,168.02L329.15,130.47L332.51,125.96L335.87,135.93L339.23,91.85L342.59,102.2L345.95,91.68L349.3,98.01L352.66,84.08L356.02,103.07L359.38,122.05L362.74,125.02L366.1,178.07L369.46,186.81L372.82,186.29L376.17,132.26L379.53,107.8L382.89,148.31L386.25,183.25L389.61,112.31L392.97,48.11L396.33,260.3L399.68,172.59L403.04,217.94L406.4,251.64L409.76,228.15L413.12,194.73L416.48,134.21L419.84,159.49L423.2,156.09L426.55,133.95L429.91,116.85L433.27,88.48L436.63,94.03L443.35,163.58L446.71,148.72L450.07,172.63L453.42,213.37L456.78,171.11L460.14,216.93L463.5,180.18L466.86,119.93L470.22,120.79L473.58,108.08L476.93,114.92L480.29,124.34L483.65,143.02L487.01,145.51L490.37,138.85L493.73,145.27L497.09,167.61L500.45,160.92L503.8,162.42L507.16,149.07L510.52,100.62L513.88,92.6L517.24,104.92L520.6,103.96L523.96,120.23L527.32,90.99L530.67,156.29L534.03,148.76L544.11,241.58L547.47,216.96L550.83,211.67L554.18,214.72L557.54,222.63L560.9,182.15L564.26,155.62L567.62,140.95L570.98,113.87L574.34,73.69L577.7,90.29L581.05,126.18L584.41,124.94L587.77,114.99L591.13,134.67L594.49,141.73L597.85,136.73L601.21,157.6L604.57,195.88L607.92,208.64L611.28,180.66L614.64,159.83L618,133.31" style="vector-effect: non-scaling-stroke; fill: none; stroke: rgb(108, 166, 205); stroke-opacity: 1; stroke-width: 2px; opacity: 1;"/></g><g class="points"/><g class="text"/></g></g></g><g class="overplot"/><path class="xlines-above crisp" d="M0,0" style="fill: none;"/><path class="ylines-above crisp" d="M0,0" style="fill: none;"/><g class="overlines-above"/><g class="xaxislayer-above"><g class="xtick"><text text-anchor="middle" x="0" y="333" transform="translate(41,0)" style="font-family: 'Open Sans', verdana, arial, sans-serif; font-size: 12px; fill: rgb(214, 223, 239); fill-opacity: 1; white-space: pre; opacity: 1;">Mar 2019</text></g><g class="xtick"><text text-anchor="middle" x="0" y="333" style="font-family: 'Open Sans', verdana, arial, sans-serif; font-size: 12px; fill: rgb(214, 223, 239); fill-opacity: 1; white-space: pre; opacity: 1;" transform="translate(145.12,0)">Apr 2019</text></g><g class="xtick"><text text-anchor="middle" x="0" y="333" style="font-family: 'Open Sans', verdana, arial, sans-serif; font-size: 12px; fill: rgb(214, 223, 239); fill-opacity: 1; white-space: pre; opacity: 1;" transform="translate(245.88,0)">May 2019</text></g><g class="xtick"><text text-anchor="middle" x="0" y="333" style="font-family: 'Open Sans', verdana, arial, sans-serif; font-size: 12px; fill: rgb(214, 223, 239); fill-opacity: 1; white-space: pre; opacity: 1;" transform="translate(350,0)">Jun 2019</text></g><g class="xtick"><text text-anchor="middle" x="0" y="333" style="font-family: 'Open Sans', verdana, arial, sans-serif; font-size: 12px; fill: rgb(214, 223, 239); fill-opacity: 1; white-space: pre; opacity: 1;" transform="translate(450.76,0)">Jul 2019</text></g><g class="xtick"><text text-anchor="middle" x="0" y="333" style="font-family: 'Open Sans', verdana, arial, sans-serif; font-size: 12px; fill: rgb(214, 223, 239); fill-opacity: 1; white-space: pre; opacity: 1;" transform="translate(554.88,0)">Aug 2019</text></g><g class="xtick"><text text-anchor="middle" x="0" y="333" style="font-family: 'Open Sans', verdana, arial, sans-serif; font-size: 12px; fill: rgb(214, 223, 239); fill-opacity: 1; white-space: pre; opacity: 1;" transform="translate(659,0)">Sep 2019</text></g></g><g class="yaxislayer-above"><g class="ytick"><text text-anchor="end" x="40" y="4.199999999999999" transform="translate(0,317.25)" style="font-family: 'Open Sans', verdana, arial, sans-serif; font-size: 12px; fill: rgb(214, 223, 239); fill-opacity: 1; white-space: pre; opacity: 1;">−3</text></g><g class="ytick"><text text-anchor="end" x="40" y="4.199999999999999" style="font-family: 'Open Sans', verdana, arial, sans-serif; font-size: 12px; fill: rgb(214, 223, 239); fill-opacity: 1; white-space: pre; opacity: 1;" transform="translate(0,277.24)">−2</text></g><g class="ytick"><text text-anchor="end" x="40" y="4.199999999999999" style="font-family: 'Open Sans', verdana, arial, sans-serif; font-size: 12px; fill: rgb(214, 223, 239); fill-opacity: 1; white-space: pre; opacity: 1;" transform="translate(0,237.22)">−1</text></g><g class="ytick"><text text-anchor="end" x="40" y="4.199999999999999" style="font-family: 'Open Sans', verdana, arial, sans-serif; font-size: 12px; fill: rgb(214, 223, 239); fill-opacity: 1; white-space: pre; opacity: 1;" transform="translate(0,197.2)">0</text></g><g class="ytick"><text text-anchor="end" x="40" y="4.199999999999999" style="font-family: 'Open Sans', verdana, arial, sans-serif; font-size: 12px; fill: rgb(214, 223, 239); fill-opacity: 1; white-space: pre; opacity: 1;" transform="translate(0,157.18)">1</text></g><g class="ytick"><text text-anchor="end" x="40" y="4.199999999999999" style="font-family: 'Open Sans', verdana, arial, sans-serif; font-size: 12px; fill: rgb(214, 223, 239); fill-opacity: 1; white-space: pre; opacity: 1;" transform="translate(0,117.16)">2</text></g><g class="ytick"><text text-anchor="end" x="40" y="4.199999999999999" style="font-family: 'Open Sans', verdana, arial, sans-serif; font-size: 12px; fill: rgb(214, 223, 239); fill-opacity: 1; white-space: pre; opacity: 1;" transform="translate(0,77.15)">3</text></g></g><g class="overaxes-above"/></g></g><g class="polarlayer"/><g class="smithlayer"/><g class="ternarylayer"/><g class="geolayer"/><g class="funnelarealayer"/><g class="pielayer"/><g class="iciclelayer"/><g class="treemaplayer"/><g class="sunburstlayer"/><g class="glimages"/><defs id="topdefs-1bd240"><g class="clips"/><clipPath id="legend1bd240"><rect width="91" height="29" x="0" y="0"/></clipPath></defs><g class="layer-above"><g class="imagelayer"/><g class="shapelayer"/></g><g class="infolayer"><g class="legend" pointer-events="all" transform="translate(568,11.519999999999996)"><rect class="bg" shape-rendering="crispEdges" style="stroke: rgb(68, 68, 68); stroke-opacity: 1; fill: rgb(33, 34, 44); fill-opacity: 1; stroke-width: 0px;" width="91" height="29" x="0" y="0"/><g class="scrollbox" transform="" clip-path="url(#legend1bd240)"><g class="groups"><g class="traces" transform="translate(0,14.5)" style="opacity: 1;"><text class="legendtext" text-anchor="start" x="40" y="4.680000000000001" style="font-family: 'Open Sans', verdana, arial, sans-serif; font-size: 12px; fill: rgb(214, 223, 239); fill-opacity: 1; white-space: pre;">Z-score</text><g class="layers" style="opacity: 1;"><g class="legendfill"/><g class="legendlines"><path class="js-line" d="M5,0h30" style="fill: none; stroke: rgb(108, 166, 205); stroke-opacity: 1; stroke-width: 2px;"/></g><g class="legendsymbols"><g class="legendpoints"/></g></g><rect class="legendtoggle" x="0" y="-9.5" width="88.234375" height="19" style="fill: rgb(0, 0, 0); fill-opacity: 0;"/></g></g></g><rect class="scrollbar" rx="20" ry="3" width="0" height="0" style="fill: rgb(128, 139, 164); fill-opacity: 1;" x="0" y="0"/></g><g class="g-gtitle"/><g class="g-xtitle"/><g class="g-ytitle"/></g></svg>