<svg class="main-svg" xmlns="http://www.w3.org/2000/svg" xmlns:xlink="http://www.w3.org/1999/xlink" width="700" height="350" style="" viewBox="0 0 700 350"><rect x="0" y="0" width="700" height="350" style="fill: rgb(33, 34, 44); fill-opacity: 1;"/><defs id="defs-ea7fd2"><g class="clips"><clipPath id="clipea7fd2xyplot" class="plotclip"><rect width="620" height="274"/></clipPath><clipPath class="axesclip" id="clipea7fd2x"><rect x="40" y="0" width="620" height="350"/></clipPath><clipPath class="axesclip" id="clipea7fd2y"><rect x="0" y="46" width="700" height="274"/></clipPath><clipPath class="axesclip" id="clipea7fd2xy"><rect x="40" y="46" width="620" height="274"/></clipPath></g><g class="gradients"/><g class="patterns"/></defs><g class="bglayer"/><g class="layer-below"><g class="imagelayer"/><g class="shapelayer"/></g><g class="cartesianlayer"><g class="subplot xy"><g class="layer-subplot"><g class="shapelayer"/><g class="imagelayer"/></g><g class="gridlayer"><g class="x"><path class="xgrid crisp" transform="translate(141.64,0)" d="M0,46v274" style="stroke: rgb(47, 62, 78); stroke-opacity: 1; stroke-width: 1px;"/><path class="xgrid crisp" transform="translate(244.97,0)" d="M0,46v274" style="stroke: rgb(47, 62, 78); stroke-opacity: 1; stroke-width: 1px;"/><path class="xgrid crisp" transform="translate(348.31,0)" d="M0,46v274" style="stroke: rgb(47, 62, 78); stroke-opacity: 1; stroke-width: 1px;"/><path class="xgrid crisp" transform="translate(453.33,0)" d="M0,46v274" style="stroke: rgb(47, 62, 78); stroke-opacity: 1; stroke-width: 1px;"/><path class="xgrid crisp" transform="translate(556.67,0)" d="M0,46v274" style="stroke: rgb(47, 62, 78); stroke-opacity: 1; stroke-width: 1px;"/></g><g class="y"><path class="ygrid crisp" transform="translate(0,267.94)" d="M40,0h620" style="stroke: rgb(47, 62, 78); stroke-opacity: 1; stroke-width: 1px;"/><path class="ygrid crisp" transform="translate(0,215.88)" d="M40,0h620" style="stroke: rgb(47, 62, 78); stroke-opacity: 1; stroke-width: 1px;"/><path class="ygrid crisp" transform="translate(0,163.82)" d="M40,0h620" style="stroke: rgb(47, 62, 78); stroke-opacity: 1; stroke-width: 1px;"/><path class="ygrid crisp" transform="translate(0,111.76)" d="M40,0h620" style="stroke: rgb(47, 62, 78); stroke-opacity: 1; stroke-width: 1px;"/><path class="ygrid crisp" transform="translate(0,59.7)" d="M40,0h620" style="stroke: rgb(47, 62, 78); stroke-opacity: 1; stroke-width: 1px;"/></g></g><g class="zerolinelayer"><path class="yzl zl crisp" transform="translate(0,320)" d="M40,0h620" style="stroke: rgb(47, 62, 78); stroke-opacity: 1; stroke-width: 2px;"/></g><path class="xlines-below"/><path class="ylines-below"/><g class="overlines-below"/><g class="xaxislayer-below"/><g class="yaxislayer-below"/><g class="overaxes-below"/><g class="plot" transform="translate(40,46)" clip-path="url(#clipea7fd2xyplot)"><g class="scatterlayer mlayer"><g class="trace scatter tracebcacdca4-86f3-4e48-91ae-b74d79aa16c6" style="stroke-miterlimit: 2;"><g class="fills"><g><path class="js-fill" d="M620,274L0,274L0,189.21L50.82,189.21L52.51,202.2L152.46,202.89L154.15,195.24L203.28,195.24L204.97,137.32L255.79,137.32L257.49,114.21L306.61,114.21L308.31,94.57L359.13,94.57L360.82,217.69L411.64,217.69L413.33,163.98L462.46,163.98L464.15,167.69L514.97,167.69L516.67,110.46L565.79,110.46L567.49,133.64L618.31,133.64L620,148.16" style="fill: rgb(31, 119, 180); fill-opacity: 0.8; stroke-width: 0;"/></g><g><path class="js-fill" d="M0,177.7L50.82,177.7L52.51,89.65L99.95,89.65L101.64,118.63L152.46,118.63L154.15,82.66L203.28,82.66L204.97,18.32L255.79,18.32L257.49,34.71L306.61,34.71L308.31,51.12L359.13,51.12L360.82,133.72L411.64,133.72L413.33,96.88L462.46,96.88L464.15,110.75L514.97,110.75L516.67,17.44L565.79,17.44L567.49,51.25L618.31,51.25L620,105.17L620,148.16L618.31,133.64L567.49,133.64L565.79,110.46L516.67,110.46L514.97,167.69L464.15,167.69L462.46,163.98L413.33,163.98L411.64,217.69L360.82,217.69L359.13,94.57L308.31,94.57L306.61,114.21L257.49,114.21L255.79,137.32L204.97,137.32L203.28,195.24L154.15,195.24L152.46,202.89L52.51,202.2L50.82,189.21L0,189.21Z" style="fill: rgb(255, 127, 14); fill-opacity: 0.8; stroke-width: 0;"/></g></g><g class="errorbars"/><g class="lines"><path class="js-line" d="M0,189.21L50.82,189.21L52.51,202.2L152.46,202.89L154.15,195.24L203.28,195.24L204.97,137.32L255.79,137.32L257.49,114.21L306.61,114.21L308.31,94.57L359.13,94.57L360.82,217.69L411.64,217.69L413.33,163.98L462.46,163.98L464.15,167.69L514.97,167.69L516.67,110.46L565.79,110.46L567.49,133.64L618.31,133.64L620,148.16" style="vector-effect: non-scaling-stroke; fill: none; stroke: rgb(31, 119, 180); stroke-opacity: 1; stroke-width: 0px; opacity: 1;"/></g><g class="points"/><g class="text"/></g><g class="trace scatter trace6f728c3c-ae6f-4ccc-89a8-add645b099f0" style="stroke-miterlimit: 2;"><g class="fills"><g><path class="js-fill" d="M0,13.7L620,13.7L620,105.17L618.31,51.25L567.49,51.25L565.79,17.44L516.67,17.44L514.97,110.75L464.15,110.75L462.46,96.88L413.33,96.88L411.64,133.72L360.82,133.72L359.13,51.12L308.31,51.12L306.61,34.71L257.49,34.71L255.79,18.32L204.97,18.32L203.28,82.66L154.15,82.66L152.46,118.63L101.64,118.63L99.95,89.65L52.51,89.65L50.82,177.7L0,177.7Z" style="fill: rgb(44, 160, 44); fill-opacity: 0.8; stroke-width: 0;"/></g></g><g class="errorbars"/><g class="lines"><path class="js-line" d="M0,177.7L50.82,177.7L52.51,89.65L99.95,89.65L101.64,118.63L152.46,118.63L154.15,82.66L203.28,82.66L204.97,18.32L255.79,18.32L257.49,34.71L306.61,34.71L308.31,51.12L359.13,51.12L360.82,133.72L411.64,133.72L413.33,96.88L462.46,96.88L464.15,110.75L514.97,110.75L516.67,17.44L565.79,17.44L567.49,51.25L618.31,51.25L620,105.17" style="vector-effect: non-scaling-stroke; fill: none; stroke: rgb(255, 127, 14); stroke-opacity: 1; stroke-width: 0px; opacity: 1;"/></g><g class="points"/><g class="text"/></g><g class="trace scatter trace17d814c8-ec23-40fc-8adf-0de655e72f2d" style="stroke-miterlimit: 2;"><g class="fills"/><g class="errorbars"/><g class="lines"><path class="js-line" d="M0,13.7L620,13.7" style="vector-effect: non-scaling-stroke; fill: none; stroke: rgb(44, 160, 44); stroke-opacity: 1; stroke-width: 0px; opacity: 1;"/></g><g class="points"/><g class="text"/></g></g></g><g class="overplot"/><path class="xlines-above crisp" d="M0,0" style="fill: none;"/><path class="ylines-above crisp" d="M0,0" style="fill: none;"/><g class="overlines-above"/><g class="xaxislayer-above"><g class="xtick"><text text-anchor="middle" x="0" y="333" transform="translate(40,0)" style="font-family: 'Open Sans', verdana, arial, sans-serif; font-size: 12px; fill: rgb(214, 223, 239); fill-opacity: 1; white-space: pre; opacity: 1;">Jan 2020</text></g><g class="xtick"><text text-anchor="middle" x="0" y="333" style="font-family: 'Open Sans', verdana, arial, sans-serif; font-size: 12px; fill: rgb(214, 223, 239); fill-opacity: 1; white-space: pre; opacity: 1;" transform="translate(141.64,0)">Mar 2020</text></g><g class="xtick"><text text-anchor="middle" x="0" y="333" style="font-family: 'Open Sans', verdana, arial, sans-serif; font-size: 12px; fill: rgb(214, 223, 239); fill-opacity: 1; white-space: pre; opacity: 1;" transform="translate(244.97,0)">May 2020</text></g><g class="xtick"><text text-anchor="middle" x="0" y="333" style="font-family: 'Open Sans', verdana, arial, sans-serif; font-size: 12px; fill: rgb(214, 223, 239); fill-opacity: 1; white-space: pre; opacity: 1;" transform="translate(348.31,0)">Jul 2020</text></g><g class="xtick"><text text-anchor="middle" x="0" y="333" style="font-family: 'Open Sans', verdana, arial, sans-serif; font-size: 12px; fill: rgb(214, 223, 239); fill-opacity: 1; white-space: pre; opacity: 1;" transform="translate(453.33,0)">Sep 2020</text></g><g class="xtick"><text text-anchor="middle" x="0" y="333" style="font-family: 'Open Sans', verdana, arial, sans-serif; font-size: 12px; fill: rgb(214, 223, 239); fill-opacity: 1; white-space: pre; opacity: 1;" transform="translate(556.67,0)">Nov 2020</text></g><g class="xtick"><text text-anchor="middle" x="0" y="333" style="font-family: 'Open Sans', verdana, arial, sans-serif; font-size: 12px; fill: rgb(214, 223, 239); fill-opacity: 1; white-space: pre; opacity: 1;" transform="translate(660,0)">Jan 2021</text></g></g><g class="yaxislayer-above"><g class="ytick"><text text-anchor="end" x="39" y="4.199999999999999" transform="translate(0,320)" style="font-family: 'Open Sans', verdana, arial, sans-serif; font-size: 12px; fill: rgb(214, 223, 239); fill-opacity: 1; white-space: pre; opacity: 1;">0</text></g><g class="ytick"><text text-anchor="end" x="39" y="4.199999999999999" style="font-family: 'Open Sans', verdana, arial, sans-serif; font-size: 12px; fill: rgb(214, 223, 239); fill-opacity: 1; white-space: pre; opacity: 1;" transform="translate(0,267.94)">20</text></g><g class="ytick"><text text-anchor="end" x="39" y="4.199999999999999" style="font-family: 'Open Sans', verdana, arial, sans-serif; font-size: 12px; fill: rgb(214, 223, 239); fill-opacity: 1; white-space: pre; opacity: 1;" transform="translate(0,215.88)">40</text></g><g class="ytick"><text text-anchor="end" x="39" y="4.199999999999999" style="font-family: 'Open Sans', verdana, arial, sans-serif; font-size: 12px; fill: rgb(214, 223, 239); fill-opacity: 1; white-space: pre; opacity: 1;" transform="translate(0,163.82)">60</text></g><g class="ytick"><text text-anchor="end" x="39" y="4.199999999999999" style="font-family: 'Open Sans', verdana, arial, sans-serif; font-size: 12px; fill: rgb(214, 223, 239); fill-opacity: 1; white-space: pre; opacity: 1;" transform="translate(0,111.76)">80</text></g><g class="ytick"><text text-anchor="end" x="39" y="4.199999999999999" style="font-family: 'Open Sans', verdana, arial, sans-serif; font-size: 12px; fill: rgb(214, 223, 239); fill-opacity: 1; white-space: pre; opacity: 1;" transform="translate(0,59.7)">100</text></g></g><g class="overaxes-above"/></g></g><g class="polarlayer"/><g class="smithlayer"/><g class="ternarylayer"/><g class="geolayer"/><g class="funnelarealayer"/><g class="pielayer"/><g class="iciclelayer"/><g class="treemaplayer"/><g class="sunburstlayer"/><g class="glimages"/><defs id="topdefs-ea7fd2"><g class="clips"/><clipPath id="legendea7fd2"><rect width="234" height="29" x="0" y="0"/></clipPath></defs><g class="layer-above"><g class="imagelayer"/><g class="shapelayer"/></g><g class="infolayer"><g class="legend" pointer-events="all" transform="translate(426,11.519999999999996)"><rect class="bg" shape-rendering="crispEdges" width="234" height="29" x="0" y="0" style="stroke: rgb(68, 68, 68); stroke-opacity: 1; fill: rgb(33, 34, 44); fill-opacity: 1; stroke-width: 0px;"/><g class="scrollbox" transform="" clip-path="url(#legendea7fd2)"><g class="groups"><g class="traces" transform="translate(0,14.5)" style="opacity: 1;"><text class="legendtext" text-anchor="start" x="40" y="4.680000000000001" style="font-family: 'Open Sans', verdana, arial, sans-serif; font-size: 12px; fill: rgb(214, 223, 239); fill-opacity: 1; white-space: pre;">MSFT</text><g class="layers"><g class="legendfill"><path class="js-fill" d="M5,-2h30v6h-30z" style="stroke-width: 0; fill: rgb(31, 119, 180); fill-opacity: 0.8;"/></g><g class="legendlines"><path class="js-line" d="M5,-2h30" style="fill: none; stroke: rgb(31, 119, 180); stroke-opacity: 1; stroke-width: 0px;"/></g><g class="legendsymbols"><g class="legendpoints"/></g></g><rect class="legendtoggle" x="0" y="-9.5" width="75.109375" height="19" style="fill: rgb(0, 0, 0); fill-opacity: 0;"/></g><g class="traces" transform="translate(77.609375,14.5)" style="opacity: 1;"><text class="legendtext" text-anchor="start" x="40" y="4.680000000000001" style="font-family: 'Open Sans', verdana, arial, sans-serif; font-size: 12px; fill: rgb(214, 223, 239); fill-opacity: 1; white-space: pre;">AMZN</text><g class="layers"><g class="legendfill"><path class="js-fill" d="M5,-2h30v6h-30z" style="stroke-width: 0; fill: rgb(255, 127, 14); fill-opacity: 0.8;"/></g><g class="legendlines"><path class="js-line" d="M5,-2h30" style="fill: none; stroke: rgb(255, 127, 14); stroke-opacity: 1; stroke-width: 0px;"/></g><g class="legendsymbols"><g class="legendpoints"/></g></g><rect class="legendtoggle" x="0" y="-9.5" width="78.015625" height="19" style="fill: rgb(0, 0, 0); fill-opacity: 0;"/></g><g class="traces" transform="translate(158.125,14.5)" style="opacity: 1;"><text class="legendtext" text-anchor="start" x="40" y="4.680000000000001" style="font-family: 'Open Sans', verdana, arial, sans-serif; font-size: 12px; fill: rgb(214, 223, 239); fill-opacity: 1; white-space: pre;">AAPL</text><g class="layers"><g class="legendfill"><path class="js-fill" d="M5,-2h30v6h-30z" style="stroke-width: 0; fill: rgb(44, 160, 44); fill-opacity: 0.8;"/></g><g class="legendlines"><path class="js-line" d="M5,-2h30" style="fill: none; stroke: rgb(44, 160, 44); stroke-opacity: 1; stroke-width: 0px;"/></g><g class="legendsymbols"><g class="legendpoints"/></g></g><rect class="legendtoggle" x="0" y="-9.5" width="72.84375" height="19" style="fill: rgb(0, 0, 0); fill-opacity: 0;"/></g></g></g><rect class="scrollbar" rx="20" ry="3" width="0" height="0" x="0" y="0" style="fill: rgb(128, 139, 164); fill-opacity: 1;"/></g><g class="g-gtitle"/><g class="g-xtitle"/><g class="g-ytitle"/></g></svg>