<svg class="main-svg" xmlns="http://www.w3.org/2000/svg" xmlns:xlink="http://www.w3.org/1999/xlink" width="750" height="960" viewBox="0 0 750 960"><rect x="0" y="0" width="750" height="960" style="fill: rgb(33, 34, 44); fill-opacity: 1;"/><defs id="defs-689a95"><g class="clips"><clipPath id="clip689a95xyplot" class="plotclip"><rect width="625" height="248.72222222222223"/></clipPath><clipPath id="clip689a95x2y2plot" class="plotclip"><rect width="625" height="248.72222222222214"/></clipPath><clipPath id="clip689a95x3y3plot" class="plotclip"><rect width="625" height="248.7222222222222"/></clipPath><clipPath class="axesclip" id="clip689a95x"><rect x="95" y="0" width="625" height="960"/></clipPath><clipPath class="axesclip" id="clip689a95y"><rect x="0" y="94" width="750" height="248.72222222222223"/></clipPath><clipPath class="axesclip" id="clip689a95xy"><rect x="95" y="94" width="625" height="248.72222222222223"/></clipPath><clipPath class="axesclip" id="clip689a95y2"><rect x="0" y="376.63888888888897" width="750" height="248.72222222222214"/></clipPath><clipPath class="axesclip" id="clip689a95xy2"><rect x="95" y="376.63888888888897" width="625" height="248.72222222222214"/></clipPath><clipPath class="axesclip" id="clip689a95y3"><rect x="0" y="659.2777777777777" width="750" height="248.7222222222222"/></clipPath><clipPath class="axesclip" id="clip689a95xy3"><rect x="95" y="659.2777777777777" width="625" height="248.7222222222222"/></clipPath><clipPath class="axesclip" id="clip689a95x2"><rect x="95" y="0" width="625" height="960"/></clipPath><clipPath class="axesclip" id="clip689a95x2y"><rect x="95" y="94" width="625" height="248.72222222222223"/></clipPath><clipPath class="axesclip" id="clip689a95x2y2"><rect x="95" y="376.63888888888897" width="625" height="248.72222222222214"/></clipPath><clipPath class="axesclip" id="clip689a95x2y3"><rect x="95" y="659.2777777777777" width="625" height="248.7222222222222"/></clipPath><clipPath class="axesclip" id="clip689a95x3"><rect x="95" y="0" width="625" height="960"/></clipPath><clipPath class="axesclip" id="clip689a95x3y"><rect x="95" y="94" width="625" height="248.72222222222223"/></clipPath><clipPath class="axesclip" id="clip689a95x3y2"><rect x="95" y="376.63888888888897" width="625" height="248.72222222222214"/></clipPath><clipPath class="axesclip" id="clip689a95x3y3"><rect x="95" y="659.2777777777777" width="625" height="248.7222222222222"/></clipPath></g><g class="gradients"/><g class="patterns"/></defs><g class="bglayer"/><g class="layer-below"><g class="imagelayer"/><g class="shapelayer"/></g><g class="cartesianlayer"><g class="subplot xy"><g class="layer-subplot"><g class="shapelayer"/><g class="imagelayer"/></g><g class="gridlayer"><g class="x"><path class="xgrid crisp" transform="translate(174.95999999999998,0)" d="M0,94v248.72222222222223" style="stroke: rgb(47, 62, 78); stroke-opacity: 1; stroke-width: 1px;"/><path class="xgrid crisp" transform="translate(249.51,0)" d="M0,94v248.72222222222223" style="stroke: rgb(47, 62, 78); stroke-opacity: 1; stroke-width: 1px;"/><path class="xgrid crisp" transform="translate(329.21000000000004,0)" d="M0,94v248.72222222222223" style="stroke: rgb(47, 62, 78); stroke-opacity: 1; stroke-width: 1px;"/><path class="xgrid crisp" transform="translate(406.34,0)" d="M0,94v248.72222222222223" style="stroke: rgb(47, 62, 78); stroke-opacity: 1; stroke-width: 1px;"/><path class="xgrid crisp" transform="translate(486.04,0)" d="M0,94v248.72222222222223" style="stroke: rgb(47, 62, 78); stroke-opacity: 1; stroke-width: 1px;"/><path class="xgrid crisp" transform="translate(563.1700000000001,0)" d="M0,94v248.72222222222223" style="stroke: rgb(47, 62, 78); stroke-opacity: 1; stroke-width: 1px;"/><path class="xgrid crisp" transform="translate(642.87,0)" d="M0,94v248.72222222222223" style="stroke: rgb(47, 62, 78); stroke-opacity: 1; stroke-width: 1px;"/></g><g class="y"><path class="ygrid crisp" transform="translate(0,294.36)" d="M95,0h625" style="stroke: rgb(47, 62, 78); stroke-opacity: 1; stroke-width: 1px;"/><path class="ygrid crisp" transform="translate(0,234.27)" d="M95,0h625" style="stroke: rgb(47, 62, 78); stroke-opacity: 1; stroke-width: 1px;"/><path class="ygrid crisp" transform="translate(0,174.17000000000002)" d="M95,0h625" style="stroke: rgb(47, 62, 78); stroke-opacity: 1; stroke-width: 1px;"/><path class="ygrid crisp" transform="translate(0,114.08)" d="M95,0h625" style="stroke: rgb(47, 62, 78); stroke-opacity: 1; stroke-width: 1px;"/></g></g><g class="zerolinelayer"/><path class="xlines-below"/><path class="ylines-below"/><g class="overlines-below"/><g class="xaxislayer-below"/><g class="yaxislayer-below"/><g class="overaxes-below"/><g class="plot" transform="translate(95,94)" clip-path="url(#clip689a95xyplot)"><g class="scatterlayer mlayer"><g class="trace scatter traced419c76f-34c9-4f7b-a2e9-cdd84c146f81" style="stroke-miterlimit: 2; opacity: 1;"><g class="fills"/><g class="errorbars"/><g class="lines"><path class="js-line" d="M0.26,164.3L2.83,170.75L5.4,159.95L7.97,157.98L10.54,157.96L15.68,135.35L18.25,137.87L20.82,143.9L23.4,135.26L25.97,139.14L28.54,134.48L31.11,135.94L33.68,115.4L36.25,116.02L38.82,118.52L41.39,112.35L43.96,111.94L46.53,119.05L49.1,120.51L51.68,117.86L54.25,119.81L56.82,128.05L59.39,126.88L61.96,129.22L64.53,122.33L67.1,112.93L69.67,99.45L72.24,100.71L74.81,94.93L77.39,99.69L79.96,98.42L85.1,101.4L87.67,104.78L90.24,91.79L92.81,88.29L97.95,84.23L100.52,76.67L103.09,84.48L105.67,73.92L108.24,70.38L110.81,73.73L113.38,70.8L115.95,83.5L118.52,82.14L121.09,89.48L123.66,75.91L126.23,91.19L128.8,91.94L131.38,89.6L133.95,90.29L136.52,82.44L141.66,99.95L144.23,115.61L146.8,116.7L149.37,120.06L151.94,122.25L154.51,123.37L157.09,114.14L159.66,116.6L162.23,117.57L164.8,107.85L167.37,106.54L169.94,112.93L172.51,137.02L175.08,142.56L180.22,142.93L182.79,231.29L185.37,213.47L187.94,224.39L190.51,218.62L193.08,229.97L195.65,223.63L198.22,223.24L200.79,194.62L203.36,194.39L205.93,194.8L208.5,205.46L211.08,187.85L213.65,178.28L216.22,179.9L218.79,178.83L226.5,202.7L229.07,187.45L231.64,187.18L234.21,182.13L236.78,176.52L239.36,178.33L241.93,174.29L244.5,176.59L247.07,162.15L249.64,165.01L252.21,160.28L254.78,161.24L257.35,174.36L259.92,174.55L262.49,171.18L265.07,174.97L267.64,175.05L270.21,181.07L272.78,166.8L277.92,162.57L280.49,164.62L283.06,173.86L285.63,173.91L288.2,166.79L290.78,157.4L293.35,153.76L295.92,153.19L298.49,149.89L301.06,146.41L303.63,146.06L306.2,116.2L308.77,120.48L311.34,114.28L313.91,110.56L316.48,113.3L319.06,112.85L321.63,110.13L324.2,102.15L326.77,81.63L329.34,84.9L331.91,92.38L334.48,117.54L337.05,122.19L339.62,116.1L344.77,88.17L347.34,100.36L349.91,98.89L352.48,90.07L355.05,88.39L357.62,88.32L360.19,94.51L362.76,107.76L365.33,104.73L367.9,103.93L370.47,116.52L373.05,113.02L375.62,115.18L378.19,104.78L380.76,94.42L383.33,97.03L385.9,89.18L388.47,96.37L391.04,75.15L393.61,94.3L398.76,86.16L401.33,90.22L403.9,90.58L406.47,87.42L411.61,86.31L414.18,84.08L416.75,100.55L419.32,95.77L421.89,95.94L424.47,98.6L429.61,94.05L432.18,95.79L434.75,97.85L437.32,101.57L439.89,100.23L442.46,101.1L445.03,90.73L447.6,91.3L450.17,100.8L452.75,102.26L457.89,108.86L460.46,105.91L463.03,104.49L465.6,106.07L468.17,103.36L470.74,106.51L473.31,107.6L475.88,106.24L478.46,108L481.03,98.94L483.6,102.64L486.17,97.35L488.74,101.87L491.31,101.84L493.88,103L496.45,101.91L499.02,102.9L501.59,102.91L506.74,106.25L509.31,105.67L514.45,104.64L517.02,105.29L522.16,94.44L524.73,92.76L527.3,94.09L529.87,89.88L532.45,83.02L535.02,50.4L537.59,52.75L540.16,47.11L542.73,46.79L545.3,40.41L547.87,27.3L550.44,48.52L553.01,42.72L555.58,43.94L558.16,27.68L560.73,26.7L563.3,32.05L565.87,27.47L568.44,29.82L571.01,23.74L573.58,37.79L576.15,32.55L578.72,26.57L581.29,27.02L583.86,24.12L586.44,23.3L589.01,12.44L591.58,20.34L594.15,27.34L596.72,23.73L599.29,32.32L601.86,29.64L604.43,30.15L607,26.85L609.57,39.13L612.15,35.45L614.72,40.41L617.29,33.83L619.86,34.9L622.43,28.75L625,29.67" style="vector-effect: non-scaling-stroke; fill: none; stroke: rgb(31, 119, 180); stroke-opacity: 1; stroke-width: 2px; opacity: 1;"/></g><g class="points"/><g class="text"/></g><g class="trace scatter tracee4fd5377-1a33-47aa-b9fb-fb86f445a736" style="stroke-miterlimit: 2; opacity: 1;"><g class="fills"/><g class="errorbars"/><g class="lines"/><g class="points"><path class="point plotly-customdata" transform="translate(36.25,116.02)" d="M-4.62,2H4.62L0,-4Z" style="opacity: 1; stroke-width: 1px; fill: rgb(55, 177, 63); fill-opacity: 1; stroke: rgb(38, 123, 44); stroke-opacity: 1;"/><path class="point plotly-customdata" transform="translate(182.79,231.29)" d="M-4.62,2H4.62L0,-4Z" style="opacity: 1; stroke-width: 1px; fill: rgb(55, 177, 63); fill-opacity: 1; stroke: rgb(38, 123, 44); stroke-opacity: 1;"/><path class="point plotly-customdata" transform="translate(223.93,193.08)" d="M-4.62,2H4.62L0,-4Z" style="opacity: 1; stroke-width: 1px; fill: rgb(55, 177, 63); fill-opacity: 1; stroke: rgb(38, 123, 44); stroke-opacity: 1;"/><path class="point plotly-customdata" transform="translate(254.78,161.24)" d="M-4.62,2H4.62L0,-4Z" style="opacity: 1; stroke-width: 1px; fill: rgb(55, 177, 63); fill-opacity: 1; stroke: rgb(38, 123, 44); stroke-opacity: 1;"/><path class="point plotly-customdata" transform="translate(265.07,174.97)" d="M-4.62,2H4.62L0,-4Z" style="opacity: 1; stroke-width: 1px; fill: rgb(55, 177, 63); fill-opacity: 1; stroke: rgb(38, 123, 44); stroke-opacity: 1;"/><path class="point plotly-customdata" transform="translate(301.06,146.41)" d="M-4.62,2H4.62L0,-4Z" style="opacity: 1; stroke-width: 1px; fill: rgb(55, 177, 63); fill-opacity: 1; stroke: rgb(38, 123, 44); stroke-opacity: 1;"/><path class="point plotly-customdata" transform="translate(337.05,122.19)" d="M-4.62,2H4.62L0,-4Z" style="opacity: 1; stroke-width: 1px; fill: rgb(55, 177, 63); fill-opacity: 1; stroke: rgb(38, 123, 44); stroke-opacity: 1;"/><path class="point plotly-customdata" transform="translate(391.04,75.15)" d="M-4.62,2H4.62L0,-4Z" style="opacity: 1; stroke-width: 1px; fill: rgb(55, 177, 63); fill-opacity: 1; stroke: rgb(38, 123, 44); stroke-opacity: 1;"/><path class="point plotly-customdata" transform="translate(486.17,97.35)" d="M-4.62,2H4.62L0,-4Z" style="opacity: 1; stroke-width: 1px; fill: rgb(55, 177, 63); fill-opacity: 1; stroke: rgb(38, 123, 44); stroke-opacity: 1;"/><path class="point plotly-customdata" transform="translate(542.73,46.79)" d="M-4.62,2H4.62L0,-4Z" style="opacity: 1; stroke-width: 1px; fill: rgb(55, 177, 63); fill-opacity: 1; stroke: rgb(38, 123, 44); stroke-opacity: 1;"/></g><g class="text"/></g><g class="trace scatter traced954ea03-90ca-4c20-bc12-21b6a48caae1" style="stroke-miterlimit: 2; opacity: 1;"><g class="fills"/><g class="errorbars"/><g class="lines"/><g class="points"><path class="point plotly-customdata" transform="translate(51.68,117.86)" d="M-4.62,-2H4.62L0,4Z" style="opacity: 1; stroke-width: 1px; fill: rgb(234, 67, 53); fill-opacity: 1; stroke: rgb(181, 31, 18); stroke-opacity: 1;"/><path class="point plotly-customdata" transform="translate(190.51,218.62)" d="M-4.62,-2H4.62L0,4Z" style="opacity: 1; stroke-width: 1px; fill: rgb(234, 67, 53); fill-opacity: 1; stroke: rgb(181, 31, 18); stroke-opacity: 1;"/><path class="point plotly-customdata" transform="translate(236.78,176.52)" d="M-4.62,-2H4.62L0,4Z" style="opacity: 1; stroke-width: 1px; fill: rgb(234, 67, 53); fill-opacity: 1; stroke: rgb(181, 31, 18); stroke-opacity: 1;"/><path class="point plotly-customdata" transform="translate(262.49,171.18)" d="M-4.62,-2H4.62L0,4Z" style="opacity: 1; stroke-width: 1px; fill: rgb(234, 67, 53); fill-opacity: 1; stroke: rgb(181, 31, 18); stroke-opacity: 1;"/><path class="point plotly-customdata" transform="translate(272.78,166.8)" d="M-4.62,-2H4.62L0,4Z" style="opacity: 1; stroke-width: 1px; fill: rgb(234, 67, 53); fill-opacity: 1; stroke: rgb(181, 31, 18); stroke-opacity: 1;"/><path class="point plotly-customdata" transform="translate(313.91,110.56)" d="M-4.62,-2H4.62L0,4Z" style="opacity: 1; stroke-width: 1px; fill: rgb(234, 67, 53); fill-opacity: 1; stroke: rgb(181, 31, 18); stroke-opacity: 1;"/><path class="point plotly-customdata" transform="translate(385.9,89.18)" d="M-4.62,-2H4.62L0,4Z" style="opacity: 1; stroke-width: 1px; fill: rgb(234, 67, 53); fill-opacity: 1; stroke: rgb(181, 31, 18); stroke-opacity: 1;"/><path class="point plotly-customdata" transform="translate(463.03,104.49)" d="M-4.62,-2H4.62L0,4Z" style="opacity: 1; stroke-width: 1px; fill: rgb(234, 67, 53); fill-opacity: 1; stroke: rgb(181, 31, 18); stroke-opacity: 1;"/><path class="point plotly-customdata" transform="translate(522.16,94.44)" d="M-4.62,-2H4.62L0,4Z" style="opacity: 1; stroke-width: 1px; fill: rgb(234, 67, 53); fill-opacity: 1; stroke: rgb(181, 31, 18); stroke-opacity: 1;"/><path class="point plotly-customdata" transform="translate(553.01,42.72)" d="M-4.62,-2H4.62L0,4Z" style="opacity: 1; stroke-width: 1px; fill: rgb(234, 67, 53); fill-opacity: 1; stroke: rgb(181, 31, 18); stroke-opacity: 1;"/></g><g class="text"/></g></g></g><g class="overplot"/><path class="xlines-above crisp" d="M0,0" style="fill: none;"/><path class="ylines-above crisp" d="M0,0" style="fill: none;"/><g class="overlines-above"/><g class="xaxislayer-above"/><g class="yaxislayer-above"><g class="ytick"><text text-anchor="end" x="94" y="4.199999999999999" transform="translate(0,294.36)" style="font-family: 'Open Sans', verdana, arial, sans-serif; font-size: 12px; fill: rgb(214, 223, 239); fill-opacity: 1; white-space: pre; opacity: 1;">6k</text></g><g class="ytick"><text text-anchor="end" x="94" y="4.199999999999999" style="font-family: 'Open Sans', verdana, arial, sans-serif; font-size: 12px; fill: rgb(214, 223, 239); fill-opacity: 1; white-space: pre; opacity: 1;" transform="translate(0,234.27)">8k</text></g><g class="ytick"><text text-anchor="end" x="94" y="4.199999999999999" style="font-family: 'Open Sans', verdana, arial, sans-serif; font-size: 12px; fill: rgb(214, 223, 239); fill-opacity: 1; white-space: pre; opacity: 1;" transform="translate(0,174.17000000000002)">10k</text></g><g class="ytick"><text text-anchor="end" x="94" y="4.199999999999999" style="font-family: 'Open Sans', verdana, arial, sans-serif; font-size: 12px; fill: rgb(214, 223, 239); fill-opacity: 1; white-space: pre; opacity: 1;" transform="translate(0,114.08)">12k</text></g></g><g class="overaxes-above"/></g><g class="subplot x2y2"><g class="layer-subplot"><g class="shapelayer"/><g class="imagelayer"/></g><g class="gridlayer"><g class="x2"><path class="x2grid crisp" transform="translate(174.95999999999998,0)" d="M0,376.63888888888897v248.72222222222214" style="stroke: rgb(47, 62, 78); stroke-opacity: 1; stroke-width: 1px;"/><path class="x2grid crisp" transform="translate(249.51,0)" d="M0,376.63888888888897v248.72222222222214" style="stroke: rgb(47, 62, 78); stroke-opacity: 1; stroke-width: 1px;"/><path class="x2grid crisp" transform="translate(329.21000000000004,0)" d="M0,376.63888888888897v248.72222222222214" style="stroke: rgb(47, 62, 78); stroke-opacity: 1; stroke-width: 1px;"/><path class="x2grid crisp" transform="translate(406.34,0)" d="M0,376.63888888888897v248.72222222222214" style="stroke: rgb(47, 62, 78); stroke-opacity: 1; stroke-width: 1px;"/><path class="x2grid crisp" transform="translate(486.04,0)" d="M0,376.63888888888897v248.72222222222214" style="stroke: rgb(47, 62, 78); stroke-opacity: 1; stroke-width: 1px;"/><path class="x2grid crisp" transform="translate(563.1700000000001,0)" d="M0,376.63888888888897v248.72222222222214" style="stroke: rgb(47, 62, 78); stroke-opacity: 1; stroke-width: 1px;"/><path class="x2grid crisp" transform="translate(642.87,0)" d="M0,376.63888888888897v248.72222222222214" style="stroke: rgb(47, 62, 78); stroke-opacity: 1; stroke-width: 1px;"/></g><g class="y2"><path class="y2grid crisp" transform="translate(0,609.198888888889)" d="M95,0h625" style="stroke: rgb(47, 62, 78); stroke-opacity: 1; stroke-width: 1px;"/><path class="y2grid crisp" transform="translate(0,567.428888888889)" d="M95,0h625" style="stroke: rgb(47, 62, 78); stroke-opacity: 1; stroke-width: 1px;"/><path class="y2grid crisp" transform="translate(0,483.88888888888897)" d="M95,0h625" style="stroke: rgb(47, 62, 78); stroke-opacity: 1; stroke-width: 1px;"/><path class="y2grid crisp" transform="translate(0,442.128888888889)" d="M95,0h625" style="stroke: rgb(47, 62, 78); stroke-opacity: 1; stroke-width: 1px;"/><path class="y2grid crisp" transform="translate(0,400.35888888888894)" d="M95,0h625" style="stroke: rgb(47, 62, 78); stroke-opacity: 1; stroke-width: 1px;"/></g></g><g class="zerolinelayer"><path class="y2zl zl crisp" transform="translate(0,525.658888888889)" d="M95,0h625" style="stroke: rgb(47, 62, 78); stroke-opacity: 1; stroke-width: 2px;"/></g><path class="xlines-below"/><path class="ylines-below"/><g class="overlines-below"/><g class="xaxislayer-below"/><g class="yaxislayer-below"/><g class="overaxes-below"/><g class="plot" transform="translate(95,376.63888888888897)" clip-path="url(#clip689a95x2y2plot)"><g class="scatterlayer mlayer"><g class="trace scatter trace01c835b9-0861-4149-8053-59d8e08947a2" style="stroke-miterlimit: 2; opacity: 1;"><g class="fills"/><g class="errorbars"/><g class="lines"/><g class="points"><path class="point plotly-customdata" transform="translate(190.51,78.18)" d="M5.37,0A5.37,5.37 0 1,1 0,-5.37A5.37,5.37 0 0,1 5.37,0Z" style="opacity: 0.829943; stroke-width: 1px; fill: rgb(55, 177, 63); fill-opacity: 1; stroke: rgb(38, 123, 44); stroke-opacity: 1;"/><path class="point plotly-customdata" transform="translate(236.78,75.23)" d="M5.45,0A5.45,5.45 0 1,1 0,-5.45A5.45,5.45 0 0,1 5.45,0Z" style="opacity: 0.833576; stroke-width: 1px; fill: rgb(55, 177, 63); fill-opacity: 1; stroke: rgb(38, 123, 44); stroke-opacity: 1;"/><path class="point plotly-customdata" transform="translate(272.78,115.86)" d="M4.28,0A4.28,4.28 0 1,1 0,-4.28A4.28,4.28 0 0,1 4.28,0Z" style="opacity: 0.783639; stroke-width: 1px; fill: rgb(55, 177, 63); fill-opacity: 1; stroke: rgb(38, 123, 44); stroke-opacity: 1;"/><path class="point plotly-customdata" transform="translate(313.91,21.19)" d="M7,0A7,7 0 1,1 0,-7A7,7 0 0,1 7,0Z" style="opacity: 0.9; stroke-width: 1px; fill: rgb(55, 177, 63); fill-opacity: 1; stroke: rgb(38, 123, 44); stroke-opacity: 1;"/><path class="point plotly-customdata" transform="translate(385.9,42.33)" d="M6.39,0A6.39,6.39 0 1,1 0,-6.39A6.39,6.39 0 0,1 6.39,0Z" style="opacity: 0.874009; stroke-width: 1px; fill: rgb(55, 177, 63); fill-opacity: 1; stroke: rgb(38, 123, 44); stroke-opacity: 1;"/><path class="point plotly-customdata" transform="translate(522.16,140.42)" d="M3.58,0A3.58,3.58 0 1,1 0,-3.58A3.58,3.58 0 0,1 3.58,0Z" style="opacity: 0.753441; stroke-width: 1px; fill: rgb(55, 177, 63); fill-opacity: 1; stroke: rgb(38, 123, 44); stroke-opacity: 1;"/><path class="point plotly-customdata" transform="translate(553.01,138.86)" d="M3.63,0A3.63,3.63 0 1,1 0,-3.63A3.63,3.63 0 0,1 3.63,0Z" style="opacity: 0.755362; stroke-width: 1px; fill: rgb(55, 177, 63); fill-opacity: 1; stroke: rgb(38, 123, 44); stroke-opacity: 1;"/></g><g class="text"/></g><g class="trace scatter trace9053a2ea-d107-4308-9b4d-1d03178d4528" style="stroke-miterlimit: 2; opacity: 1;"><g class="fills"/><g class="errorbars"/><g class="lines"/><g class="points"><path class="point plotly-customdata" transform="translate(51.68,154.82)" d="M3.5,0A3.5,3.5 0 1,1 0,-3.5A3.5,3.5 0 0,1 3.5,0Z" style="opacity: 0.75; stroke-width: 1px; fill: rgb(234, 67, 53); fill-opacity: 1; stroke: rgb(181, 31, 18); stroke-opacity: 1;"/><path class="point plotly-customdata" transform="translate(262.49,186.89)" d="M4.42,0A4.42,4.42 0 1,1 0,-4.42A4.42,4.42 0 0,1 4.42,0Z" style="opacity: 0.789416; stroke-width: 1px; fill: rgb(234, 67, 53); fill-opacity: 1; stroke: rgb(181, 31, 18); stroke-opacity: 1;"/><path class="point plotly-customdata" transform="translate(463.03,229.24)" d="M5.63,0A5.63,5.63 0 1,1 0,-5.63A5.63,5.63 0 0,1 5.63,0Z" style="opacity: 0.841477; stroke-width: 1px; fill: rgb(234, 67, 53); fill-opacity: 1; stroke: rgb(181, 31, 18); stroke-opacity: 1;"/></g><g class="text"/></g></g></g><g class="overplot"/><path class="xlines-above crisp" d="M0,0" style="fill: none;"/><path class="ylines-above crisp" d="M0,0" style="fill: none;"/><g class="overlines-above"/><g class="xaxislayer-above"/><g class="yaxislayer-above"><g class="y2tick"><text text-anchor="end" x="94" y="4.199999999999999" transform="translate(0,609.198888888889)" style="font-family: 'Open Sans', verdana, arial, sans-serif; font-size: 12px; fill: rgb(214, 223, 239); fill-opacity: 1; white-space: pre; opacity: 1;">−10.00%</text></g><g class="y2tick"><text text-anchor="end" x="94" y="4.199999999999999" style="font-family: 'Open Sans', verdana, arial, sans-serif; font-size: 12px; fill: rgb(214, 223, 239); fill-opacity: 1; white-space: pre; opacity: 1;" transform="translate(0,567.428888888889)">−5.00%</text></g><g class="y2tick"><text text-anchor="end" x="94" y="4.199999999999999" style="font-family: 'Open Sans', verdana, arial, sans-serif; font-size: 12px; fill: rgb(214, 223, 239); fill-opacity: 1; white-space: pre; opacity: 1;" transform="translate(0,525.658888888889)">0.00%</text></g><g class="y2tick"><text text-anchor="end" x="94" y="4.199999999999999" style="font-family: 'Open Sans', verdana, arial, sans-serif; font-size: 12px; fill: rgb(214, 223, 239); fill-opacity: 1; white-space: pre; opacity: 1;" transform="translate(0,483.88888888888897)">5.00%</text></g><g class="y2tick"><text text-anchor="end" x="94" y="4.199999999999999" style="font-family: 'Open Sans', verdana, arial, sans-serif; font-size: 12px; fill: rgb(214, 223, 239); fill-opacity: 1; white-space: pre; opacity: 1;" transform="translate(0,442.128888888889)">10.00%</text></g><g class="y2tick"><text text-anchor="end" x="94" y="4.199999999999999" style="font-family: 'Open Sans', verdana, arial, sans-serif; font-size: 12px; fill: rgb(214, 223, 239); fill-opacity: 1; white-space: pre; opacity: 1;" transform="translate(0,400.35888888888894)">15.00%</text></g></g><g class="overaxes-above"/></g><g class="subplot x3y3"><g class="layer-subplot"><g class="shapelayer"/><g class="imagelayer"/></g><g class="gridlayer"><g class="x3"><path class="x3grid crisp" transform="translate(174.95999999999998,0)" d="M0,659.2777777777777v248.7222222222222" style="stroke: rgb(47, 62, 78); stroke-opacity: 1; stroke-width: 1px;"/><path class="x3grid crisp" transform="translate(249.51,0)" d="M0,659.2777777777777v248.7222222222222" style="stroke: rgb(47, 62, 78); stroke-opacity: 1; stroke-width: 1px;"/><path class="x3grid crisp" transform="translate(329.21000000000004,0)" d="M0,659.2777777777777v248.7222222222222" style="stroke: rgb(47, 62, 78); stroke-opacity: 1; stroke-width: 1px;"/><path class="x3grid crisp" transform="translate(406.34,0)" d="M0,659.2777777777777v248.7222222222222" style="stroke: rgb(47, 62, 78); stroke-opacity: 1; stroke-width: 1px;"/><path class="x3grid crisp" transform="translate(486.04,0)" d="M0,659.2777777777777v248.7222222222222" style="stroke: rgb(47, 62, 78); stroke-opacity: 1; stroke-width: 1px;"/><path class="x3grid crisp" transform="translate(563.1700000000001,0)" d="M0,659.2777777777777v248.7222222222222" style="stroke: rgb(47, 62, 78); stroke-opacity: 1; stroke-width: 1px;"/><path class="x3grid crisp" transform="translate(642.87,0)" d="M0,659.2777777777777v248.7222222222222" style="stroke: rgb(47, 62, 78); stroke-opacity: 1; stroke-width: 1px;"/></g><g class="y3"><path class="y3grid crisp" transform="translate(0,871.3077777777777)" d="M95,0h625" style="stroke: rgb(47, 62, 78); stroke-opacity: 1; stroke-width: 1px;"/><path class="y3grid crisp" transform="translate(0,827.0477777777777)" d="M95,0h625" style="stroke: rgb(47, 62, 78); stroke-opacity: 1; stroke-width: 1px;"/><path class="y3grid crisp" transform="translate(0,782.7877777777777)" d="M95,0h625" style="stroke: rgb(47, 62, 78); stroke-opacity: 1; stroke-width: 1px;"/><path class="y3grid crisp" transform="translate(0,738.5377777777777)" d="M95,0h625" style="stroke: rgb(47, 62, 78); stroke-opacity: 1; stroke-width: 1px;"/><path class="y3grid crisp" transform="translate(0,694.2777777777777)" d="M95,0h625" style="stroke: rgb(47, 62, 78); stroke-opacity: 1; stroke-width: 1px;"/></g></g><g class="zerolinelayer"/><path class="xlines-below"/><path class="ylines-below"/><g class="overlines-below"/><g class="xaxislayer-below"/><g class="yaxislayer-below"/><g class="overaxes-below"/><g class="plot" transform="translate(95,659.2777777777777)" clip-path="url(#clip689a95x3y3plot)"><g class="scatterlayer mlayer"><g class="trace scatter trace34324ead-3fe8-435a-b890-2939afb87fd3" style="stroke-miterlimit: 2; opacity: 1;"><g class="fills"/><g class="errorbars"/><g class="lines"><path class="js-line" d="M0.26,167.77L2.83,174.37L5.4,163.32L7.97,161.3L10.54,161.28L15.68,138.16L18.25,140.73L20.82,146.9L23.4,138.07L25.97,142.03L28.54,137.27L31.11,138.76L33.68,117.75L36.25,118.39L38.82,120.94L41.39,114.64L43.96,114.21L46.53,121.48L49.1,122.98L51.68,120.26L54.25,122.26L56.82,130.69L59.39,129.5L61.96,131.88L64.53,124.85L67.1,115.23L69.67,101.43L72.24,102.72L74.81,96.81L77.39,101.68L79.96,100.38L85.1,103.43L87.67,106.89L90.24,93.6L92.81,90.03L97.95,85.87L100.52,78.14L103.09,86.13L105.67,75.32L108.24,71.7L110.81,75.13L113.38,72.13L115.95,85.12L118.52,83.74L121.09,91.24L123.66,77.36L126.23,92.99L128.8,93.75L131.38,91.36L133.95,92.07L136.52,84.04L141.66,101.95L144.23,117.97L146.8,119.08L149.37,122.52L151.94,124.76L154.51,125.9L157.09,116.46L159.66,118.98L162.23,119.98L164.8,110.03L167.37,108.69L169.94,115.22L172.51,139.87L175.08,145.53L180.22,145.91L182.79,236.29L185.37,218.06L187.94,229.23L190.51,223.33L193.08,234.94L195.65,228.45L198.22,228.06L200.79,198.78L203.36,198.55L205.93,198.97L208.5,209.87L211.08,191.86L213.65,182.07L216.22,183.72L218.79,182.64L226.5,207.05L229.07,191.44L231.64,191.17L234.21,186.01L236.78,180.26L239.36,182.12L241.93,177.99L244.5,180.34L247.07,165.57L249.64,168.5L252.21,163.65L254.78,164.64L257.35,178.06L259.92,178.25L262.49,174.81L265.07,178.68L267.64,178.76L270.21,184.92L272.78,170.33L277.92,166L280.49,168.1L283.06,177.55L285.63,177.6L288.2,170.32L290.78,160.71L293.35,156.99L295.92,156.41L298.49,153.03L301.06,149.47L303.63,149.12L306.2,118.57L308.77,122.95L311.34,116.61L313.91,112.81L316.48,115.61L319.06,115.14L321.63,112.36L324.2,104.19L326.77,83.21L329.34,86.56L331.91,94.2L334.48,119.94L337.05,124.69L339.62,118.46L344.77,89.91L347.34,102.37L349.91,100.87L352.48,91.84L355.05,90.12L357.62,90.05L360.19,96.38L362.76,109.94L365.33,106.84L367.9,106.02L370.47,118.9L373.05,115.32L375.62,117.52L378.19,106.89L380.76,96.3L383.33,98.96L385.9,90.93L388.47,98.28L391.04,76.58L393.61,96.17L398.76,87.85L401.33,92L403.9,92.37L406.47,89.13L411.61,88L414.18,85.71L416.75,102.57L419.32,97.68L421.89,97.85L424.47,100.57L429.61,95.92L432.18,97.7L434.75,99.8L437.32,103.6L439.89,102.24L442.46,103.12L445.03,92.52L447.6,93.1L450.17,102.82L452.75,104.32L457.89,111.06L460.46,108.04L463.03,106.59L465.6,108.21L468.17,105.44L470.74,108.66L473.31,109.77L475.88,108.38L478.46,110.18L481.03,100.92L483.6,104.7L486.17,99.29L488.74,103.91L491.31,103.89L493.88,105.07L496.45,103.96L499.02,104.97L501.59,104.98L506.74,108.39L509.31,107.8L514.45,106.74L517.02,107.41L522.16,96.31L524.73,94.6L527.3,95.95L529.87,91.64L532.45,84.64L535.02,51.27L537.59,53.67L540.16,47.9L542.73,47.57L545.3,41.05L547.87,27.64L550.44,49.34L553.01,43.42L555.58,44.66L558.16,28.03L560.73,27.02L563.3,32.5L565.87,27.81L568.44,30.22L571.01,24L573.58,38.37L576.15,33.01L578.72,26.89L581.29,27.36L583.86,24.38L586.44,23.55L589.01,12.44L591.58,20.52L594.15,27.68L596.72,23.99L599.29,32.78L601.86,30.03L604.43,30.56L607,27.18L609.57,39.74L612.15,35.98L614.72,41.05L617.29,34.32L619.86,35.41L622.43,29.12L625,30.06" style="vector-effect: non-scaling-stroke; fill: none; stroke: rgb(127, 127, 127); stroke-opacity: 1; stroke-width: 2px; opacity: 1;"/></g><g class="points"/><g class="text"/></g><g class="trace scatter trace5a57c0ad-4f0a-452d-afc8-d2f5cecc9037" style="stroke-miterlimit: 2;"><g class="fills"><g><path class="js-fill" d="M0.26,167.77L38.82,167.77L41.39,164.7L43.96,164.36L46.53,167.77L182.79,167.77L185.37,143.09L187.94,159.16L190.51,150.67L223.93,150.67L226.5,162.9L229.07,143.5L231.64,143.17L236.78,129.61L239.36,129.61L254.78,129.61L257.35,145.12L259.92,145.35L262.49,141.37L267.64,141.47L270.21,148.71L272.78,131.54L277.92,131.54L303.63,131.16L306.2,98.32L308.77,103.03L311.34,96.22L313.91,92.13L316.48,92.13L337.05,92.13L339.62,85.13L344.77,53.06L347.34,67.05L349.91,65.37L352.48,55.23L355.05,53.3L357.62,53.22L360.19,60.33L362.76,75.56L365.33,72.08L367.9,71.16L370.47,85.62L373.05,81.6L375.62,84.08L378.19,72.13L380.76,60.24L383.33,63.23L385.9,54.21L388.47,54.21L391.04,54.21L393.61,75.2L398.76,66.28L401.33,70.73L403.9,71.12L406.47,67.66L411.61,66.44L414.18,63.99L416.75,82.05L419.32,76.81L421.89,77L424.47,79.91L429.61,74.93L432.18,76.83L434.75,79.09L437.32,83.16L439.89,81.7L442.46,82.65L445.03,71.28L447.6,71.91L450.17,82.32L452.75,83.93L457.89,91.15L460.46,87.92L463.03,86.36L465.6,86.36L486.17,86.36L488.74,91.19L491.31,91.16L493.88,92.4L496.45,91.24L499.02,92.29L501.59,92.31L504.16,93.92L506.74,95.87L509.31,95.25L514.45,94.15L517.02,94.84L522.16,83.25L524.73,83.25L542.73,83.25L545.3,77.41L547.87,65.4L550.44,84.83L553.01,79.53L555.58,79.53L625,79.53L625,167.77L0.26,167.77Z" style="fill: rgb(0, 128, 0); fill-opacity: 0.3; stroke-width: 0;"/></g></g><g class="errorbars"/><g class="lines"><path class="js-line" d="M0.26,167.77L625,167.77" style="vector-effect: non-scaling-stroke; fill: none; stroke: rgb(0, 0, 0); stroke-opacity: 0; stroke-width: 0px; opacity: 1;"/></g><g class="points"/><g class="text"/></g><g class="trace scatter trace0447389d-5ef7-486d-b06b-ab3811aebbc9" style="stroke-miterlimit: 2;"><g class="fills"/><g class="errorbars"/><g class="lines"><path class="js-line" d="M0.26,167.77L38.82,167.77L41.39,164.7L43.96,164.36L46.53,167.77L182.79,167.77L185.37,143.09L187.94,159.16L190.51,150.67L223.93,150.67L226.5,162.9L229.07,143.5L231.64,143.17L236.78,129.61L239.36,129.61L254.78,129.61L257.35,145.12L259.92,145.35L262.49,141.37L267.64,141.47L270.21,148.71L272.78,131.54L277.92,131.54L303.63,131.16L306.2,98.32L308.77,103.03L311.34,96.22L313.91,92.13L316.48,92.13L337.05,92.13L339.62,85.13L344.77,53.06L347.34,67.05L349.91,65.37L352.48,55.23L355.05,53.3L357.62,53.22L360.19,60.33L362.76,75.56L365.33,72.08L367.9,71.16L370.47,85.62L373.05,81.6L375.62,84.08L378.19,72.13L380.76,60.24L383.33,63.23L385.9,54.21L388.47,54.21L391.04,54.21L393.61,75.2L398.76,66.28L401.33,70.73L403.9,71.12L406.47,67.66L411.61,66.44L414.18,63.99L416.75,82.05L419.32,76.81L421.89,77L424.47,79.91L429.61,74.93L432.18,76.83L434.75,79.09L437.32,83.16L439.89,81.7L442.46,82.65L445.03,71.28L447.6,71.91L450.17,82.32L452.75,83.93L457.89,91.15L460.46,87.92L463.03,86.36L465.6,86.36L486.17,86.36L488.74,91.19L491.31,91.16L493.88,92.4L496.45,91.24L499.02,92.29L501.59,92.31L504.16,93.92L506.74,95.87L509.31,95.25L514.45,94.15L517.02,94.84L522.16,83.25L524.73,83.25L542.73,83.25L545.3,77.41L547.87,65.4L550.44,84.83L553.01,79.53L555.58,79.53L625,79.53" style="vector-effect: non-scaling-stroke; fill: none; stroke: rgb(0, 0, 0); stroke-opacity: 0; stroke-width: 0px; opacity: 1;"/></g><g class="points"/><g class="text"/></g><g class="trace scatter trace142299f8-41b8-4bc8-a47a-12c7b8d51eef" style="stroke-miterlimit: 2;"><g class="fills"><g><path class="js-fill" d="M0.26,167.77L36.25,167.77L38.82,169.86L41.39,167.77L43.96,167.77L46.53,170.3L49.1,171.52L51.68,169.31L54.25,169.31L182.79,169.31L185.37,167.77L625,167.77L625,167.77L0.26,167.77Z" style="fill: rgb(255, 0, 0); fill-opacity: 0.3; stroke-width: 0;"/></g></g><g class="errorbars"/><g class="lines"><path class="js-line" d="M0.26,167.77L625,167.77" style="vector-effect: non-scaling-stroke; fill: none; stroke: rgb(0, 0, 0); stroke-opacity: 0; stroke-width: 0px; opacity: 1;"/></g><g class="points"/><g class="text"/></g><g class="trace scatter tracecaa4acf0-d367-4b3e-adcc-09b0de37f595" style="stroke-miterlimit: 2;"><g class="fills"/><g class="errorbars"/><g class="lines"><path class="js-line" d="M0.26,167.77L36.25,167.77L38.82,169.86L41.39,167.77L43.96,167.77L46.53,170.3L49.1,171.52L51.68,169.31L54.25,169.31L182.79,169.31L185.37,167.77L625,167.77" style="vector-effect: non-scaling-stroke; fill: none; stroke: rgb(0, 0, 0); stroke-opacity: 0; stroke-width: 0px; opacity: 1;"/></g><g class="points"/><g class="text"/></g><g class="trace scatter tracee9bcd93d-6843-4dc8-8993-667ce8a4ff0d" style="stroke-miterlimit: 2; opacity: 1;"><g class="fills"/><g class="errorbars"/><g class="lines"><path class="js-line" d="M0.26,167.77L36.25,167.77L38.82,169.86L41.39,164.7L43.96,164.36L46.53,170.3L49.1,171.52L51.68,169.31L54.25,169.31L182.79,169.31L185.37,143.09L187.94,159.16L190.51,150.67L223.93,150.67L226.5,162.9L229.07,143.5L231.64,143.17L236.78,129.61L239.36,129.61L254.78,129.61L257.35,145.12L259.92,145.35L262.49,141.37L267.64,141.47L270.21,148.71L272.78,131.54L277.92,131.54L303.63,131.16L306.2,98.32L308.77,103.03L311.34,96.22L313.91,92.13L316.48,92.13L337.05,92.13L339.62,85.13L344.77,53.06L347.34,67.05L349.91,65.37L352.48,55.23L355.05,53.3L357.62,53.22L360.19,60.33L362.76,75.56L365.33,72.08L367.9,71.16L370.47,85.62L373.05,81.6L375.62,84.08L378.19,72.13L380.76,60.24L383.33,63.23L385.9,54.21L388.47,54.21L391.04,54.21L393.61,75.2L398.76,66.28L401.33,70.73L403.9,71.12L406.47,67.66L411.61,66.44L414.18,63.99L416.75,82.05L419.32,76.81L421.89,77L424.47,79.91L429.61,74.93L432.18,76.83L434.75,79.09L437.32,83.16L439.89,81.7L442.46,82.65L445.03,71.28L447.6,71.91L450.17,82.32L452.75,83.93L457.89,91.15L460.46,87.92L463.03,86.36L465.6,86.36L486.17,86.36L488.74,91.19L491.31,91.16L493.88,92.4L496.45,91.24L499.02,92.29L501.59,92.31L504.16,93.92L506.74,95.87L509.31,95.25L514.45,94.15L517.02,94.84L522.16,83.25L524.73,83.25L542.73,83.25L545.3,77.41L547.87,65.4L550.44,84.83L553.01,79.53L555.58,79.53L625,79.53" style="vector-effect: non-scaling-stroke; fill: none; stroke: rgb(148, 103, 189); stroke-opacity: 1; stroke-width: 2px; opacity: 1;"/></g><g class="points"/><g class="text"/></g><g class="trace scatter trace9c1475fb-227e-4bed-8737-a2c990ceacff" style="stroke-miterlimit: 2; opacity: 0;"><g class="fills"/><g class="errorbars"/><g class="lines"><path class="js-line" d="M0.26,167.77L625,167.77" style="vector-effect: non-scaling-stroke; fill: none; stroke: rgb(0, 0, 0); stroke-opacity: 0; stroke-width: 0px; opacity: 1;"/></g><g class="points"/><g class="text"/></g></g></g><g class="overplot"/><path class="xlines-above crisp" d="M0,0" style="fill: none;"/><path class="ylines-above crisp" d="M0,0" style="fill: none;"/><g class="overlines-above"/><g class="xaxislayer-above"><g class="x3tick"><text text-anchor="middle" x="0" y="920.9999999999999" transform="translate(95.26,0)" style="font-family: 'Open Sans', verdana, arial, sans-serif; font-size: 12px; fill: rgb(214, 223, 239); fill-opacity: 1; white-space: pre; opacity: 1;">Jan 2020</text></g><g class="x3tick"><text text-anchor="middle" x="0" y="920.9999999999999" style="font-family: 'Open Sans', verdana, arial, sans-serif; font-size: 12px; fill: rgb(214, 223, 239); fill-opacity: 1; white-space: pre; opacity: 1;" transform="translate(174.95999999999998,0)">Feb 2020</text></g><g class="x3tick"><text text-anchor="middle" x="0" y="920.9999999999999" style="font-family: 'Open Sans', verdana, arial, sans-serif; font-size: 12px; fill: rgb(214, 223, 239); fill-opacity: 1; white-space: pre; opacity: 1;" transform="translate(249.51,0)">Mar 2020</text></g><g class="x3tick"><text text-anchor="middle" x="0" y="920.9999999999999" style="font-family: 'Open Sans', verdana, arial, sans-serif; font-size: 12px; fill: rgb(214, 223, 239); fill-opacity: 1; white-space: pre; opacity: 1;" transform="translate(329.21000000000004,0)">Apr 2020</text></g><g class="x3tick"><text text-anchor="middle" x="0" y="920.9999999999999" style="font-family: 'Open Sans', verdana, arial, sans-serif; font-size: 12px; fill: rgb(214, 223, 239); fill-opacity: 1; white-space: pre; opacity: 1;" transform="translate(406.34,0)">May 2020</text></g><g class="x3tick"><text text-anchor="middle" x="0" y="920.9999999999999" style="font-family: 'Open Sans', verdana, arial, sans-serif; font-size: 12px; fill: rgb(214, 223, 239); fill-opacity: 1; white-space: pre; opacity: 1;" transform="translate(486.04,0)">Jun 2020</text></g><g class="x3tick"><text text-anchor="middle" x="0" y="920.9999999999999" style="font-family: 'Open Sans', verdana, arial, sans-serif; font-size: 12px; fill: rgb(214, 223, 239); fill-opacity: 1; white-space: pre; opacity: 1;" transform="translate(563.1700000000001,0)">Jul 2020</text></g><g class="x3tick"><text text-anchor="middle" x="0" y="920.9999999999999" style="font-family: 'Open Sans', verdana, arial, sans-serif; font-size: 12px; fill: rgb(214, 223, 239); fill-opacity: 1; white-space: pre; opacity: 1;" transform="translate(642.87,0)">Aug 2020</text></g></g><g class="yaxislayer-above"><g class="y3tick"><text text-anchor="end" x="94" y="4.199999999999999" transform="translate(0,871.3077777777777)" style="font-family: 'Open Sans', verdana, arial, sans-serif; font-size: 12px; fill: rgb(214, 223, 239); fill-opacity: 1; white-space: pre; opacity: 1;">0.8</text></g><g class="y3tick"><text text-anchor="end" x="94" y="4.199999999999999" style="font-family: 'Open Sans', verdana, arial, sans-serif; font-size: 12px; fill: rgb(214, 223, 239); fill-opacity: 1; white-space: pre; opacity: 1;" transform="translate(0,827.0477777777777)">1</text></g><g class="y3tick"><text text-anchor="end" x="94" y="4.199999999999999" style="font-family: 'Open Sans', verdana, arial, sans-serif; font-size: 12px; fill: rgb(214, 223, 239); fill-opacity: 1; white-space: pre; opacity: 1;" transform="translate(0,782.7877777777777)">1.2</text></g><g class="y3tick"><text text-anchor="end" x="94" y="4.199999999999999" style="font-family: 'Open Sans', verdana, arial, sans-serif; font-size: 12px; fill: rgb(214, 223, 239); fill-opacity: 1; white-space: pre; opacity: 1;" transform="translate(0,738.5377777777777)">1.4</text></g><g class="y3tick"><text text-anchor="end" x="94" y="4.199999999999999" style="font-family: 'Open Sans', verdana, arial, sans-serif; font-size: 12px; fill: rgb(214, 223, 239); fill-opacity: 1; white-space: pre; opacity: 1;" transform="translate(0,694.2777777777777)">1.6</text></g></g><g class="overaxes-above"/></g></g><g class="polarlayer"/><g class="ternarylayer"/><g class="geolayer"/><g class="funnelarealayer"/><g class="pielayer"/><g class="iciclelayer"/><g class="treemaplayer"/><g class="sunburstlayer"/><g class="glimages"/><defs id="topdefs-689a95"><g class="clips"/><clipPath id="legend689a95"><rect width="523" height="48" x="0" y="0"/></clipPath></defs><g class="layer-above"><g class="imagelayer"/><g class="shapelayer"><path data-index="0" fill-rule="evenodd" d="M95,525.658888888889L720,525.658888888889" clip-path="url(#clip689a95y2)" style="opacity: 1; stroke: rgb(128, 128, 128); stroke-opacity: 1; fill: rgb(0, 0, 0); fill-opacity: 0; stroke-dasharray: 9px, 9px; stroke-width: 2px;"/><path data-index="1" fill-rule="evenodd" d="M95,827.0477777777777L720,827.0477777777777" clip-path="url(#clip689a95y3)" style="opacity: 1; stroke: rgb(128, 128, 128); stroke-opacity: 1; fill: rgb(0, 0, 0); fill-opacity: 0; stroke-dasharray: 9px, 9px; stroke-width: 2px;"/></g></g><g class="infolayer"><g class="legend" pointer-events="all" transform="translate(197,12.083333333333272)"><rect class="bg" shape-rendering="crispEdges" style="stroke: rgb(68, 68, 68); stroke-opacity: 1; fill: rgb(33, 34, 44); fill-opacity: 1; stroke-width: 0px;" width="523" height="48" x="0" y="0"/><g class="scrollbox" transform="" clip-path="url(#legend689a95)"><g class="groups"><g class="traces" transform="translate(0,14.5)" style="opacity: 1;"><text class="legendtext" text-anchor="start" x="40" y="4.680000000000001" style="font-family: 'Open Sans', verdana, arial, sans-serif; font-size: 12px; fill: rgb(214, 223, 239); fill-opacity: 1; white-space: pre;">Close</text><g class="layers" style="opacity: 1;"><g class="legendfill"/><g class="legendlines"><path class="js-line" d="M5,0h30" style="fill: none; stroke: rgb(31, 119, 180); stroke-opacity: 1; stroke-width: 2px;"/></g><g class="legendsymbols"><g class="legendpoints"/></g></g><rect class="legendtoggle" x="0" y="-9.5" width="74.84375" height="19" style="fill: rgb(0, 0, 0); fill-opacity: 0;"/></g><g class="traces" transform="translate(130.59375,14.5)" style="opacity: 1;"><text class="legendtext" text-anchor="start" x="40" y="4.680000000000001" style="font-family: 'Open Sans', verdana, arial, sans-serif; font-size: 12px; fill: rgb(214, 223, 239); fill-opacity: 1; white-space: pre;">Buy</text><g class="layers" style="opacity: 1;"><g class="legendfill"/><g class="legendlines"/><g class="legendsymbols"><g class="legendpoints"><path class="scatterpts" transform="translate(20,0)" d="M-4.62,2H4.62L0,-4Z" style="opacity: 1; stroke-width: 1px; fill: rgb(55, 177, 63); fill-opacity: 1; stroke: rgb(38, 123, 44); stroke-opacity: 1;"/></g></g></g><rect class="legendtoggle" x="0" y="-9.5" width="65.421875" height="19" style="fill: rgb(0, 0, 0); fill-opacity: 0;"/></g><g class="traces" transform="translate(261.1875,14.5)" style="opacity: 1;"><text class="legendtext" text-anchor="start" x="40" y="4.680000000000001" style="font-family: 'Open Sans', verdana, arial, sans-serif; font-size: 12px; fill: rgb(214, 223, 239); fill-opacity: 1; white-space: pre;">Sell</text><g class="layers" style="opacity: 1;"><g class="legendfill"/><g class="legendlines"/><g class="legendsymbols"><g class="legendpoints"><path class="scatterpts" transform="translate(20,0)" d="M-4.62,-2H4.62L0,4Z" style="opacity: 1; stroke-width: 1px; fill: rgb(234, 67, 53); fill-opacity: 1; stroke: rgb(181, 31, 18); stroke-opacity: 1;"/></g></g></g><rect class="legendtoggle" x="0" y="-9.5" width="64.4375" height="19" style="fill: rgb(0, 0, 0); fill-opacity: 0;"/></g><g class="traces" transform="translate(391.78125,14.5)" style="opacity: 1;"><text class="legendtext" text-anchor="start" x="40" y="4.680000000000001" style="font-family: 'Open Sans', verdana, arial, sans-serif; font-size: 12px; fill: rgb(214, 223, 239); fill-opacity: 1; white-space: pre;">Closed - Profit</text><g class="layers" style="opacity: 1;"><g class="legendfill"/><g class="legendlines"/><g class="legendsymbols"><g class="legendpoints"><path class="scatterpts" transform="translate(20,0)" d="M5.1,0A5.1,5.1 0 1,1 0,-5.1A5.1,5.1 0 0,1 5.1,0Z" style="opacity: 0.818567; stroke-width: 1px; fill: rgb(55, 177, 63); fill-opacity: 1; stroke: rgb(38, 123, 44); stroke-opacity: 1;"/></g></g></g><rect class="legendtoggle" x="0" y="-9.5" width="128.09375" height="19" style="fill: rgb(0, 0, 0); fill-opacity: 0;"/></g><g class="traces" transform="translate(0,33.5)" style="opacity: 1;"><text class="legendtext" text-anchor="start" x="40" y="4.680000000000001" style="font-family: 'Open Sans', verdana, arial, sans-serif; font-size: 12px; fill: rgb(214, 223, 239); fill-opacity: 1; white-space: pre;">Closed - Loss</text><g class="layers" style="opacity: 1;"><g class="legendfill"/><g class="legendlines"/><g class="legendsymbols"><g class="legendpoints"><path class="scatterpts" transform="translate(20,0)" d="M4.52,0A4.52,4.52 0 1,1 0,-4.52A4.52,4.52 0 0,1 4.52,0Z" style="opacity: 0.793631; stroke-width: 1px; fill: rgb(234, 67, 53); fill-opacity: 1; stroke: rgb(181, 31, 18); stroke-opacity: 1;"/></g></g></g><rect class="legendtoggle" x="0" y="-9.5" width="122.671875" height="19" style="fill: rgb(0, 0, 0); fill-opacity: 0;"/></g><g class="traces" transform="translate(130.59375,33.5)" style="opacity: 1;"><text class="legendtext" text-anchor="start" x="40" y="4.680000000000001" style="font-family: 'Open Sans', verdana, arial, sans-serif; font-size: 12px; fill: rgb(214, 223, 239); fill-opacity: 1; white-space: pre;">Benchmark</text><g class="layers" style="opacity: 1;"><g class="legendfill"/><g class="legendlines"><path class="js-line" d="M5,0h30" style="fill: none; stroke: rgb(127, 127, 127); stroke-opacity: 1; stroke-width: 2px;"/></g><g class="legendsymbols"><g class="legendpoints"/></g></g><rect class="legendtoggle" x="0" y="-9.5" width="110.40625" height="19" style="fill: rgb(0, 0, 0); fill-opacity: 0;"/></g><g class="traces" transform="translate(261.1875,33.5)" style="opacity: 1;"><text class="legendtext" text-anchor="start" x="40" y="4.680000000000001" style="font-family: 'Open Sans', verdana, arial, sans-serif; font-size: 12px; fill: rgb(214, 223, 239); fill-opacity: 1; white-space: pre;">Value</text><g class="layers" style="opacity: 1;"><g class="legendfill"/><g class="legendlines"><path class="js-line" d="M5,0h30" style="fill: none; stroke: rgb(148, 103, 189); stroke-opacity: 1; stroke-width: 2px;"/></g><g class="legendsymbols"><g class="legendpoints"/></g></g><rect class="legendtoggle" x="0" y="-9.5" width="75.9375" height="19" style="fill: rgb(0, 0, 0); fill-opacity: 0;"/></g></g></g><rect class="scrollbar" rx="20" ry="3" width="0" height="0" style="fill: rgb(128, 139, 164); fill-opacity: 1;" x="0" y="0"/></g><g class="g-gtitle"/><g class="g-xtitle"/><g class="g-x2title"/><g class="g-x3title"><text class="x3title" x="407.5" y="948.3" text-anchor="middle" style="font-family: 'Open Sans', verdana, arial, sans-serif; font-size: 14px; fill: rgb(214, 223, 239); opacity: 1; font-weight: normal; white-space: pre;">Index</text></g><g class="g-ytitle"><text class="ytitle" transform="rotate(-90,46.840625,218.36111111111111)" x="46.840625" y="218.36111111111111" text-anchor="middle" style="font-family: 'Open Sans', verdana, arial, sans-serif; font-size: 14px; fill: rgb(214, 223, 239); opacity: 1; font-weight: normal; white-space: pre;">Price</text></g><g class="g-y2title" transform="translate(2.4248046875,0)"><text class="y2title" transform="rotate(-90,11.575000000000003,501.00000000000006)" x="11.575000000000003" y="501.00000000000006" text-anchor="middle" style="font-family: 'Open Sans', verdana, arial, sans-serif; font-size: 14px; fill: rgb(214, 223, 239); opacity: 1; font-weight: normal; white-space: pre;">Trade PnL</text></g><g class="g-y3title"><text class="y3title" transform="rotate(-90,49.575,783.6388888888888)" x="49.575" y="783.6388888888888" text-anchor="middle" style="font-family: 'Open Sans', verdana, arial, sans-serif; font-size: 14px; fill: rgb(214, 223, 239); opacity: 1; font-weight: normal; white-space: pre;">Cumulative returns</text></g><g class="annotation" data-index="0" style="opacity: 1;"><g class="annotation-text-g" transform="rotate(0,407.5,82)"><g class="cursor-pointer" transform="translate(379,70)"><rect class="bg" x="0.5" y="0.5" width="57" height="23" style="stroke-width: 1px; stroke: rgb(0, 0, 0); stroke-opacity: 0; fill: rgb(0, 0, 0); fill-opacity: 0;"/><text class="annotation-text" text-anchor="middle" x="29.03125" y="18" style="font-family: 'Open Sans', verdana, arial, sans-serif; font-size: 16px; fill: rgb(214, 223, 239); fill-opacity: 1; white-space: pre;">Orders</text></g></g></g><g class="annotation" data-index="1" style="opacity: 1;"><g class="annotation-text-g" transform="rotate(0,407.5,364.63888888888897)"><g class="cursor-pointer" transform="translate(366,353)"><rect class="bg" x="0.5" y="0.5" width="83" height="23" style="stroke-width: 1px; stroke: rgb(0, 0, 0); stroke-opacity: 0; fill: rgb(0, 0, 0); fill-opacity: 0;"/><text class="annotation-text" text-anchor="middle" x="42.046875" y="18" style="font-family: 'Open Sans', verdana, arial, sans-serif; font-size: 16px; fill: rgb(214, 223, 239); fill-opacity: 1; white-space: pre;">Trade PnL</text></g></g></g><g class="annotation" data-index="2" style="opacity: 1;"><g class="annotation-text-g" transform="rotate(0,407.5,647.2777777777777)"><g class="cursor-pointer" transform="translate(326,635)"><rect class="bg" x="0.5" y="0.5" width="162" height="23" style="stroke-width: 1px; stroke: rgb(0, 0, 0); stroke-opacity: 0; fill: rgb(0, 0, 0); fill-opacity: 0;"/><text class="annotation-text" text-anchor="middle" x="81.328125" y="18" style="font-family: 'Open Sans', verdana, arial, sans-serif; font-size: 16px; fill: rgb(214, 223, 239); fill-opacity: 1; white-space: pre;">Cumulative Returns</text></g></g></g></g></svg>