<svg class="main-svg" xmlns="http://www.w3.org/2000/svg" xmlns:xlink="http://www.w3.org/1999/xlink" width="750" height="380" viewBox="0 0 750 380"><rect x="0" y="0" width="750" height="380" style="fill: rgb(33, 34, 44); fill-opacity: 1;"/><defs id="defs-67cbbb"><g class="clips"><clipPath id="clip67cbbbxyplot" class="plotclip"><rect width="663" height="260"/></clipPath><clipPath class="axesclip" id="clip67cbbbx"><rect x="57" y="0" width="663" height="380"/></clipPath><clipPath class="axesclip" id="clip67cbbby"><rect x="0" y="68" width="750" height="260"/></clipPath><clipPath class="axesclip" id="clip67cbbbxy"><rect x="57" y="68" width="663" height="260"/></clipPath></g><g class="gradients"/><g class="patterns"/></defs><g class="bglayer"/><g class="layer-below"><g class="imagelayer"/><g class="shapelayer"/></g><g class="cartesianlayer"><g class="subplot xy"><g class="layer-subplot"><g class="shapelayer"/><g class="imagelayer"/></g><g class="gridlayer"><g class="x"><path class="xgrid crisp" transform="translate(141.57999999999998,0)" d="M0,68v260" style="stroke: rgb(47, 62, 78); stroke-opacity: 1; stroke-width: 1px;"/><path class="xgrid crisp" transform="translate(220.7,0)" d="M0,68v260" style="stroke: rgb(47, 62, 78); stroke-opacity: 1; stroke-width: 1px;"/><path class="xgrid crisp" transform="translate(305.28,0)" d="M0,68v260" style="stroke: rgb(47, 62, 78); stroke-opacity: 1; stroke-width: 1px;"/><path class="xgrid crisp" transform="translate(387.14,0)" d="M0,68v260" style="stroke: rgb(47, 62, 78); stroke-opacity: 1; stroke-width: 1px;"/><path class="xgrid crisp" transform="translate(471.72,0)" d="M0,68v260" style="stroke: rgb(47, 62, 78); stroke-opacity: 1; stroke-width: 1px;"/><path class="xgrid crisp" transform="translate(553.5699999999999,0)" d="M0,68v260" style="stroke: rgb(47, 62, 78); stroke-opacity: 1; stroke-width: 1px;"/><path class="xgrid crisp" transform="translate(638.15,0)" d="M0,68v260" style="stroke: rgb(47, 62, 78); stroke-opacity: 1; stroke-width: 1px;"/></g><g class="y"><path class="ygrid crisp" transform="translate(0,289.64)" d="M57,0h663" style="stroke: rgb(47, 62, 78); stroke-opacity: 1; stroke-width: 1px;"/><path class="ygrid crisp" transform="translate(0,243.38)" d="M57,0h663" style="stroke: rgb(47, 62, 78); stroke-opacity: 1; stroke-width: 1px;"/><path class="ygrid crisp" transform="translate(0,197.11)" d="M57,0h663" style="stroke: rgb(47, 62, 78); stroke-opacity: 1; stroke-width: 1px;"/><path class="ygrid crisp" transform="translate(0,150.85)" d="M57,0h663" style="stroke: rgb(47, 62, 78); stroke-opacity: 1; stroke-width: 1px;"/><path class="ygrid crisp" transform="translate(0,104.59)" d="M57,0h663" style="stroke: rgb(47, 62, 78); stroke-opacity: 1; stroke-width: 1px;"/></g></g><g class="zerolinelayer"/><path class="xlines-below"/><path class="ylines-below"/><g class="overlines-below"/><g class="xaxislayer-below"/><g class="yaxislayer-below"/><g class="overaxes-below"/><g class="plot" transform="translate(57,68)" clip-path="url(#clip67cbbbxyplot)"><g class="scatterlayer mlayer"><g class="trace scatter trace87bb1491-b659-47ef-9cfb-080c0194913d" style="stroke-miterlimit: 2; opacity: 1;"><g class="fills"/><g class="errorbars"/><g class="lines"><path class="js-line" d="M0,175.38L2.73,182.27L5.46,170.73L8.19,168.61L10.91,168.59L16.37,144.42L19.1,147.12L21.83,153.57L24.56,144.33L27.28,148.47L30.01,143.5L32.74,145.05L35.47,123.09L38.2,123.75L40.93,126.43L43.65,119.83L46.38,119.39L49.11,126.99L51.84,128.55L54.57,125.72L57.3,127.81L60.02,136.62L62.75,135.37L65.48,137.86L68.21,130.51L70.94,120.45L73.67,106.03L76.4,107.38L79.12,101.2L81.85,106.29L84.58,104.93L90.04,108.12L92.77,111.74L95.49,97.85L98.22,94.11L103.68,89.76L106.41,81.68L109.14,90.03L111.86,78.74L114.59,74.95L117.32,78.54L120.05,75.4L122.78,88.98L125.51,87.53L128.23,95.38L130.96,80.87L133.69,97.21L136.42,98.01L139.15,95.5L141.88,96.25L144.6,87.85L150.06,106.58L152.79,123.32L155.52,124.48L158.25,128.08L160.98,130.42L163.7,131.61L166.43,121.74L169.16,124.37L171.89,125.42L174.62,115.02L177.35,113.62L180.07,120.45L182.8,146.21L185.53,152.13L190.99,152.53L193.72,247L196.44,227.95L199.17,239.62L201.9,233.46L204.63,245.6L207.36,238.81L210.09,238.4L212.81,207.79L215.54,207.55L218.27,207.99L221,219.39L223.73,200.56L226.46,190.33L229.19,192.05L231.91,190.92L237.37,206.15L240.1,216.44L242.83,200.13L245.56,199.84L251.01,188.44L253.74,190.37L256.47,186.06L259.2,188.52L261.93,173.08L264.65,176.14L267.38,171.07L270.11,172.1L272.84,186.13L275.57,186.33L278.3,182.74L281.02,186.79L283.75,186.87L286.48,193.31L289.21,178.06L291.94,178.72L294.67,173.53L297.4,175.72L300.12,185.6L302.85,185.65L305.58,178.04L308.31,168L311.04,164.11L313.77,163.5L319.22,156.25L321.95,155.88L324.68,123.95L327.41,128.52L330.14,121.9L332.86,117.92L335.59,120.85L338.32,120.36L341.05,117.46L343.78,108.92L346.51,86.98L349.23,90.48L351.96,98.47L354.69,125.38L357.42,130.35L360.15,123.84L365.6,93.98L368.33,107.01L371.06,105.44L373.79,96.01L376.52,94.21L379.25,94.13L381.98,100.75L384.7,114.93L387.43,111.69L390.16,110.83L392.89,124.29L395.62,120.54L398.35,122.85L401.07,111.74L403.8,100.66L406.53,103.45L409.26,95.05L411.99,102.74L414.72,80.05L417.44,100.53L422.9,91.83L425.63,96.17L428.36,96.55L431.09,93.17L436.54,91.99L439.27,89.6L442,107.22L444.73,102.11L447.46,102.28L450.19,105.13L455.64,100.27L458.37,102.12L461.1,104.32L463.83,108.3L466.56,106.88L469.28,107.8L472.01,96.71L474.74,97.32L477.47,107.48L480.2,109.05L485.65,116.1L488.38,112.94L491.11,111.42L493.84,113.12L496.57,110.22L499.3,113.59L502.02,114.75L504.75,113.3L507.48,115.18L510.21,105.49L512.94,109.45L515.67,103.79L518.4,108.62L521.12,108.6L523.85,109.83L526.58,108.67L529.31,109.73L532.04,109.74L537.49,113.31L540.22,112.69L545.68,111.58L548.41,112.28L553.86,100.68L556.59,98.89L559.32,100.31L562.05,95.8L564.78,88.47L567.51,53.59L570.23,56.1L572.96,50.07L575.69,49.73L578.42,42.91L581.15,28.9L583.88,51.58L586.6,45.39L589.33,46.69L592.06,29.3L594.79,28.25L597.52,33.98L600.25,29.07L602.98,31.59L605.7,25.09L608.43,40.11L611.16,34.51L613.89,28.11L616.62,28.6L619.35,25.49L622.07,24.62L624.8,13L627.53,21.45L630.26,28.94L632.99,25.08L635.72,34.27L638.44,31.4L641.17,31.94L643.9,28.41L646.63,41.54L649.36,37.61L652.09,42.91L654.81,35.87L657.54,37.02L660.27,30.44L663,31.43" style="vector-effect: non-scaling-stroke; fill: none; stroke: rgb(127, 127, 127); stroke-opacity: 1; stroke-width: 2px; opacity: 1;"/></g><g class="points"/><g class="text"/></g><g class="trace scatter tracedba7d93c-9393-4c95-90d3-5079ff3173b0" style="stroke-miterlimit: 2;"><g class="fills"><g><path class="js-fill" d="M0,175.38L2.73,175.38L5.46,169.43L8.19,168.34L10.91,168.33L16.37,155.87L19.1,157.26L21.83,160.58L24.56,160.58L38.2,160.89L40.93,161.98L43.65,159.29L46.38,159.1L49.11,165.65L51.84,167L54.57,164.56L57.3,164.56L60.02,168.58L62.75,168.01L65.48,169.15L68.21,165.79L70.94,161.2L73.67,154.62L76.4,155.23L79.12,152.41L81.85,154.74L84.58,154.12L90.04,155.57L92.77,157.22L95.49,150.88L98.22,149.18L100.95,148.21L103.68,148.21L130.96,148.21L133.69,155.41L141.88,155.76L144.6,152.08L147.33,155.95L150.06,155.95L155.52,155.95L158.25,157.68L163.7,158.26L166.43,153.46L171.89,155.25L174.62,155.25L193.72,155.25L196.44,141.55L199.17,158.86L201.9,149.72L204.63,158.99L207.36,153.81L210.09,153.49L212.81,130.1L218.27,130.25L221,138.97L223.73,124.58L226.46,116.76L229.19,118.08L231.91,117.21L240.1,135.24L242.83,111.97L245.56,111.56L248.28,103.86L251.01,95.29L253.74,96.85L256.47,93.38L259.2,95.36L261.93,82.92L264.65,85.39L267.38,81.31L270.11,82.13L272.84,101.54L275.57,101.82L278.3,96.85L281.02,100.11L283.75,100.22L286.48,109.2L289.21,87.94L291.94,88.47L316.49,88.47L319.22,86.44L321.95,86.24L324.68,68.82L327.41,71.32L330.14,67.7L351.96,67.7L354.69,83.73L357.42,86.48L360.15,78.93L365.6,44.34L368.33,51.53L371.06,50.67L373.79,45.45L376.52,44.46L379.25,44.42L381.98,48.08L384.7,55.9L387.43,54.12L390.16,53.64L392.89,61.07L395.62,59.01L398.35,60.28L401.07,54.14L403.8,48.03L406.53,49.56L411.99,49.56L414.72,37.06L417.44,48.35L420.17,46.1L422.9,43.55L425.63,45.94L428.36,46.15L431.09,42.23L436.54,40.85L439.27,39.53L442,49.24L444.73,46.42L447.46,46.52L450.19,48.09L452.91,46.96L455.64,43.63L463.83,50.63L466.56,49.84L469.28,50.35L472.01,44.24L474.74,44.58L477.47,56.47L480.2,58.3L482.93,62.13L485.65,66.55L488.38,62.86L491.11,61.92L493.84,62.97L496.57,61.17L499.3,63.26L502.02,63.98L504.75,63.08L507.48,64.25L510.21,58.24L512.94,58.24L515.67,55.16L518.4,60.77L521.12,60.74L523.85,61.41L526.58,60.78L534.77,62.24L537.49,63.3L545.68,62.37L548.41,62.74L551.14,59.06L553.86,59.06L556.59,57.98L559.32,58.84L562.05,56.13L564.78,51.74L575.69,51.58L578.42,48.44L581.15,42L583.88,52.43L594.79,52.43L597.52,55.32L622.07,55.32L624.8,49.6L630.26,57.45L632.99,55.55L635.72,60.07L638.44,58.66L646.63,58.92L649.36,58.92L657.54,58.92L660.27,55.64L663,56.13L663,175.38L0,175.38Z" style="fill: rgb(0, 128, 0); fill-opacity: 0.3; stroke-width: 0;"/></g></g><g class="errorbars"/><g class="lines"><path class="js-line" d="M0,175.38L663,175.38" style="vector-effect: non-scaling-stroke; fill: none; stroke: rgb(0, 0, 0); stroke-opacity: 0; stroke-width: 0px; opacity: 1;"/></g><g class="points"/><g class="text"/></g><g class="trace scatter trace6dd3d49f-3a3f-4136-be49-18a7530d97b3" style="stroke-miterlimit: 2;"><g class="fills"/><g class="errorbars"/><g class="lines"><path class="js-line" d="M0,175.38L2.73,175.38L5.46,169.43L8.19,168.34L10.91,168.33L16.37,155.87L19.1,157.26L21.83,160.58L24.56,160.58L38.2,160.89L40.93,161.98L43.65,159.29L46.38,159.1L49.11,165.65L51.84,167L54.57,164.56L57.3,164.56L60.02,168.58L62.75,168.01L65.48,169.15L68.21,165.79L70.94,161.2L73.67,154.62L76.4,155.23L79.12,152.41L81.85,154.74L84.58,154.12L90.04,155.57L92.77,157.22L95.49,150.88L98.22,149.18L100.95,148.21L103.68,148.21L130.96,148.21L133.69,155.41L141.88,155.76L144.6,152.08L147.33,155.95L150.06,155.95L155.52,155.95L158.25,157.68L163.7,158.26L166.43,153.46L171.89,155.25L174.62,155.25L193.72,155.25L196.44,141.55L199.17,158.86L201.9,149.72L204.63,158.99L207.36,153.81L210.09,153.49L212.81,130.1L218.27,130.25L221,138.97L223.73,124.58L226.46,116.76L229.19,118.08L231.91,117.21L240.1,135.24L242.83,111.97L245.56,111.56L248.28,103.86L251.01,95.29L253.74,96.85L256.47,93.38L259.2,95.36L261.93,82.92L264.65,85.39L267.38,81.31L270.11,82.13L272.84,101.54L275.57,101.82L278.3,96.85L281.02,100.11L283.75,100.22L286.48,109.2L289.21,87.94L291.94,88.47L316.49,88.47L319.22,86.44L321.95,86.24L324.68,68.82L327.41,71.32L330.14,67.7L351.96,67.7L354.69,83.73L357.42,86.48L360.15,78.93L365.6,44.34L368.33,51.53L371.06,50.67L373.79,45.45L376.52,44.46L379.25,44.42L381.98,48.08L384.7,55.9L387.43,54.12L390.16,53.64L392.89,61.07L395.62,59.01L398.35,60.28L401.07,54.14L403.8,48.03L406.53,49.56L411.99,49.56L414.72,37.06L417.44,48.35L420.17,46.1L422.9,43.55L425.63,45.94L428.36,46.15L431.09,42.23L436.54,40.85L439.27,39.53L442,49.24L444.73,46.42L447.46,46.52L450.19,48.09L452.91,46.96L455.64,43.63L463.83,50.63L466.56,49.84L469.28,50.35L472.01,44.24L474.74,44.58L477.47,56.47L480.2,58.3L482.93,62.13L485.65,66.55L488.38,62.86L491.11,61.92L493.84,62.97L496.57,61.17L499.3,63.26L502.02,63.98L504.75,63.08L507.48,64.25L510.21,58.24L512.94,58.24L515.67,55.16L518.4,60.77L521.12,60.74L523.85,61.41L526.58,60.78L534.77,62.24L537.49,63.3L545.68,62.37L548.41,62.74L551.14,59.06L553.86,59.06L556.59,57.98L559.32,58.84L562.05,56.13L564.78,51.74L575.69,51.58L578.42,48.44L581.15,42L583.88,52.43L594.79,52.43L597.52,55.32L622.07,55.32L624.8,49.6L630.26,57.45L632.99,55.55L635.72,60.07L638.44,58.66L646.63,58.92L649.36,58.92L657.54,58.92L660.27,55.64L663,56.13" style="vector-effect: non-scaling-stroke; fill: none; stroke: rgb(0, 0, 0); stroke-opacity: 0; stroke-width: 0px; opacity: 1;"/></g><g class="points"/><g class="text"/></g><g class="trace scatter trace9c1b927a-19b7-4d3c-a2d8-4617b8ab520f" style="stroke-miterlimit: 2; opacity: 1;"><g class="fills"/><g class="errorbars"/><g class="lines"><path class="js-line" d="M0,175.38L2.73,175.38L5.46,169.43L8.19,168.34L10.91,168.33L16.37,155.87L19.1,157.26L21.83,160.58L24.56,160.58L38.2,160.89L40.93,161.98L43.65,159.29L46.38,159.1L49.11,165.65L51.84,167L54.57,164.56L57.3,164.56L60.02,168.58L62.75,168.01L65.48,169.15L68.21,165.79L70.94,161.2L73.67,154.62L76.4,155.23L79.12,152.41L81.85,154.74L84.58,154.12L90.04,155.57L92.77,157.22L95.49,150.88L98.22,149.18L100.95,148.21L103.68,148.21L130.96,148.21L133.69,155.41L141.88,155.76L144.6,152.08L147.33,155.95L150.06,155.95L155.52,155.95L158.25,157.68L163.7,158.26L166.43,153.46L171.89,155.25L174.62,155.25L193.72,155.25L196.44,141.55L199.17,158.86L201.9,149.72L204.63,158.99L207.36,153.81L210.09,153.49L212.81,130.1L218.27,130.25L221,138.97L223.73,124.58L226.46,116.76L229.19,118.08L231.91,117.21L240.1,135.24L242.83,111.97L245.56,111.56L248.28,103.86L251.01,95.29L253.74,96.85L256.47,93.38L259.2,95.36L261.93,82.92L264.65,85.39L267.38,81.31L270.11,82.13L272.84,101.54L275.57,101.82L278.3,96.85L281.02,100.11L283.75,100.22L286.48,109.2L289.21,87.94L291.94,88.47L316.49,88.47L319.22,86.44L321.95,86.24L324.68,68.82L327.41,71.32L330.14,67.7L351.96,67.7L354.69,83.73L357.42,86.48L360.15,78.93L365.6,44.34L368.33,51.53L371.06,50.67L373.79,45.45L376.52,44.46L379.25,44.42L381.98,48.08L384.7,55.9L387.43,54.12L390.16,53.64L392.89,61.07L395.62,59.01L398.35,60.28L401.07,54.14L403.8,48.03L406.53,49.56L411.99,49.56L414.72,37.06L417.44,48.35L420.17,46.1L422.9,43.55L425.63,45.94L428.36,46.15L431.09,42.23L436.54,40.85L439.27,39.53L442,49.24L444.73,46.42L447.46,46.52L450.19,48.09L452.91,46.96L455.64,43.63L463.83,50.63L466.56,49.84L469.28,50.35L472.01,44.24L474.74,44.58L477.47,56.47L480.2,58.3L482.93,62.13L485.65,66.55L488.38,62.86L491.11,61.92L493.84,62.97L496.57,61.17L499.3,63.26L502.02,63.98L504.75,63.08L507.48,64.25L510.21,58.24L512.94,58.24L515.67,55.16L518.4,60.77L521.12,60.74L523.85,61.41L526.58,60.78L534.77,62.24L537.49,63.3L545.68,62.37L548.41,62.74L551.14,59.06L553.86,59.06L556.59,57.98L559.32,58.84L562.05,56.13L564.78,51.74L575.69,51.58L578.42,48.44L581.15,42L583.88,52.43L594.79,52.43L597.52,55.32L622.07,55.32L624.8,49.6L630.26,57.45L632.99,55.55L635.72,60.07L638.44,58.66L646.63,58.92L649.36,58.92L657.54,58.92L660.27,55.64L663,56.13" style="vector-effect: non-scaling-stroke; fill: none; stroke: rgb(148, 103, 189); stroke-opacity: 1; stroke-width: 2px; opacity: 1;"/></g><g class="points"/><g class="text"/></g><g class="trace scatter trace83bc69b7-a048-40c6-a30f-6e6b16d0c7ac" style="stroke-miterlimit: 2; opacity: 0;"><g class="fills"/><g class="errorbars"/><g class="lines"><path class="js-line" d="M0,175.38L663,175.38" style="vector-effect: non-scaling-stroke; fill: none; stroke: rgb(0, 0, 0); stroke-opacity: 0; stroke-width: 0px; opacity: 1;"/></g><g class="points"/><g class="text"/></g></g></g><g class="overplot"/><path class="xlines-above crisp" d="M0,0" style="fill: none;"/><path class="ylines-above crisp" d="M0,0" style="fill: none;"/><g class="overlines-above"/><g class="xaxislayer-above"><g class="xtick"><text text-anchor="middle" x="0" y="341" transform="translate(57,0)" style="font-family: 'Open Sans', verdana, arial, sans-serif; font-size: 12px; fill: rgb(214, 223, 239); fill-opacity: 1; white-space: pre; opacity: 1;">Jan 2020</text></g><g class="xtick"><text text-anchor="middle" x="0" y="341" style="font-family: 'Open Sans', verdana, arial, sans-serif; font-size: 12px; fill: rgb(214, 223, 239); fill-opacity: 1; white-space: pre; opacity: 1;" transform="translate(141.57999999999998,0)">Feb 2020</text></g><g class="xtick"><text text-anchor="middle" x="0" y="341" style="font-family: 'Open Sans', verdana, arial, sans-serif; font-size: 12px; fill: rgb(214, 223, 239); fill-opacity: 1; white-space: pre; opacity: 1;" transform="translate(220.7,0)">Mar 2020</text></g><g class="xtick"><text text-anchor="middle" x="0" y="341" style="font-family: 'Open Sans', verdana, arial, sans-serif; font-size: 12px; fill: rgb(214, 223, 239); fill-opacity: 1; white-space: pre; opacity: 1;" transform="translate(305.28,0)">Apr 2020</text></g><g class="xtick"><text text-anchor="middle" x="0" y="341" style="font-family: 'Open Sans', verdana, arial, sans-serif; font-size: 12px; fill: rgb(214, 223, 239); fill-opacity: 1; white-space: pre; opacity: 1;" transform="translate(387.14,0)">May 2020</text></g><g class="xtick"><text text-anchor="middle" x="0" y="341" style="font-family: 'Open Sans', verdana, arial, sans-serif; font-size: 12px; fill: rgb(214, 223, 239); fill-opacity: 1; white-space: pre; opacity: 1;" transform="translate(471.72,0)">Jun 2020</text></g><g class="xtick"><text text-anchor="middle" x="0" y="341" style="font-family: 'Open Sans', verdana, arial, sans-serif; font-size: 12px; fill: rgb(214, 223, 239); fill-opacity: 1; white-space: pre; opacity: 1;" transform="translate(553.5699999999999,0)">Jul 2020</text></g><g class="xtick"><text text-anchor="middle" x="0" y="341" style="font-family: 'Open Sans', verdana, arial, sans-serif; font-size: 12px; fill: rgb(214, 223, 239); fill-opacity: 1; white-space: pre; opacity: 1;" transform="translate(638.15,0)">Aug 2020</text></g></g><g class="yaxislayer-above"><g class="ytick"><text text-anchor="end" x="56" y="4.199999999999999" transform="translate(0,289.64)" style="font-family: 'Open Sans', verdana, arial, sans-serif; font-size: 12px; fill: rgb(214, 223, 239); fill-opacity: 1; white-space: pre; opacity: 1;">0.8</text></g><g class="ytick"><text text-anchor="end" x="56" y="4.199999999999999" style="font-family: 'Open Sans', verdana, arial, sans-serif; font-size: 12px; fill: rgb(214, 223, 239); fill-opacity: 1; white-space: pre; opacity: 1;" transform="translate(0,243.38)">1</text></g><g class="ytick"><text text-anchor="end" x="56" y="4.199999999999999" style="font-family: 'Open Sans', verdana, arial, sans-serif; font-size: 12px; fill: rgb(214, 223, 239); fill-opacity: 1; white-space: pre; opacity: 1;" transform="translate(0,197.11)">1.2</text></g><g class="ytick"><text text-anchor="end" x="56" y="4.199999999999999" style="font-family: 'Open Sans', verdana, arial, sans-serif; font-size: 12px; fill: rgb(214, 223, 239); fill-opacity: 1; white-space: pre; opacity: 1;" transform="translate(0,150.85)">1.4</text></g><g class="ytick"><text text-anchor="end" x="56" y="4.199999999999999" style="font-family: 'Open Sans', verdana, arial, sans-serif; font-size: 12px; fill: rgb(214, 223, 239); fill-opacity: 1; white-space: pre; opacity: 1;" transform="translate(0,104.59)">1.6</text></g></g><g class="overaxes-above"/></g></g><g class="polarlayer"/><g class="ternarylayer"/><g class="geolayer"/><g class="funnelarealayer"/><g class="pielayer"/><g class="iciclelayer"/><g class="treemaplayer"/><g class="sunburstlayer"/><g class="glimages"/><defs id="topdefs-67cbbb"><g class="clips"/><clipPath id="legend67cbbb"><rect width="192" height="29" x="0" y="0"/></clipPath></defs><g class="layer-above"><g class="imagelayer"/><g class="shapelayer"><path data-index="0" fill-rule="evenodd" d="M57,243.38L720,243.38" clip-path="url(#clip67cbbby)" style="opacity: 1; stroke: rgb(128, 128, 128); stroke-opacity: 1; fill: rgb(0, 0, 0); fill-opacity: 0; stroke-dasharray: 9px, 9px; stroke-width: 2px;"/></g></g><g class="infolayer"><g class="legend" pointer-events="all" transform="translate(528,11.631578947368453)"><rect class="bg" shape-rendering="crispEdges" style="stroke: rgb(68, 68, 68); stroke-opacity: 1; fill: rgb(33, 34, 44); fill-opacity: 1; stroke-width: 0px;" width="192" height="29" x="0" y="0"/><g class="scrollbox" transform="" clip-path="url(#legend67cbbb)"><g class="groups"><g class="traces" transform="translate(0,14.5)" style="opacity: 1;"><text class="legendtext" text-anchor="start" x="40" y="4.680000000000001" style="font-family: 'Open Sans', verdana, arial, sans-serif; font-size: 12px; fill: rgb(214, 223, 239); fill-opacity: 1; white-space: pre;">Benchmark</text><g class="layers" style="opacity: 1;"><g class="legendfill"/><g class="legendlines"><path class="js-line" d="M5,0h30" style="fill: none; stroke: rgb(127, 127, 127); stroke-opacity: 1; stroke-width: 2px;"/></g><g class="legendsymbols"><g class="legendpoints"/></g></g><rect class="legendtoggle" x="0" y="-9.5" width="110.40625" height="19" style="fill: rgb(0, 0, 0); fill-opacity: 0;"/></g><g class="traces" transform="translate(112.90625,14.5)" style="opacity: 1;"><text class="legendtext" text-anchor="start" x="40" y="4.680000000000001" style="font-family: 'Open Sans', verdana, arial, sans-serif; font-size: 12px; fill: rgb(214, 223, 239); fill-opacity: 1; white-space: pre;">Value</text><g class="layers" style="opacity: 1;"><g class="legendfill"/><g class="legendlines"><path class="js-line" d="M5,0h30" style="fill: none; stroke: rgb(148, 103, 189); stroke-opacity: 1; stroke-width: 2px;"/></g><g class="legendsymbols"><g class="legendpoints"/></g></g><rect class="legendtoggle" x="0" y="-9.5" width="75.9375" height="19" style="fill: rgb(0, 0, 0); fill-opacity: 0;"/></g></g></g><rect class="scrollbar" rx="20" ry="3" width="0" height="0" style="fill: rgb(128, 139, 164); fill-opacity: 1;" x="0" y="0"/></g><g class="g-gtitle"/><g class="g-xtitle"><text class="xtitle" x="388.5" y="368.3" text-anchor="middle" style="font-family: 'Open Sans', verdana, arial, sans-serif; font-size: 14px; fill: rgb(214, 223, 239); opacity: 1; font-weight: normal; white-space: pre;">Index</text></g><g class="g-ytitle" transform="translate(2.4248046875,0)"><text class="ytitle" transform="rotate(-90,11.575000000000003,198)" x="11.575000000000003" y="198" text-anchor="middle" style="font-family: 'Open Sans', verdana, arial, sans-serif; font-size: 14px; fill: rgb(214, 223, 239); opacity: 1; font-weight: normal; white-space: pre;">Cumulative returns</text></g><g class="annotation" data-index="0" style="opacity: 1;"><g class="annotation-text-g" transform="rotate(0,388.5,55.99999999999999)"><g class="cursor-pointer" transform="translate(307,44)"><rect class="bg" x="0.5" y="0.5" width="162" height="23" style="stroke-width: 1px; stroke: rgb(0, 0, 0); stroke-opacity: 0; fill: rgb(0, 0, 0); fill-opacity: 0;"/><text class="annotation-text" text-anchor="middle" x="81.328125" y="18" style="font-family: 'Open Sans', verdana, arial, sans-serif; font-size: 16px; fill: rgb(214, 223, 239); fill-opacity: 1; white-space: pre;">Cumulative Returns</text></g></g></g></g></svg>