<svg class="main-svg" xmlns="http://www.w3.org/2000/svg" xmlns:xlink="http://www.w3.org/1999/xlink" width="700" height="350" viewBox="0 0 700 350"><rect x="0" y="0" width="700" height="350" style="fill: rgb(33, 34, 44); fill-opacity: 1;"/><defs id="defs-2e405e"><g class="clips"><clipPath id="clip2e405exyplot" class="plotclip"><rect width="631" height="274"/></clipPath><clipPath class="axesclip" id="clip2e405ex"><rect x="39" y="0" width="631" height="350"/></clipPath><clipPath class="axesclip" id="clip2e405ey"><rect x="0" y="46" width="700" height="274"/></clipPath><clipPath class="axesclip" id="clip2e405exy"><rect x="39" y="46" width="631" height="274"/></clipPath></g><g class="gradients"/><g class="patterns"/></defs><g class="bglayer"/><g class="layer-below"><g class="imagelayer"/><g class="shapelayer"/></g><g class="cartesianlayer"><g class="subplot xy"><g class="layer-subplot"><g class="shapelayer"/><g class="imagelayer"/></g><g class="gridlayer"><g class="x"><path class="xgrid crisp" transform="translate(119.5,0)" d="M0,46v274" style="stroke: rgb(47, 62, 78); stroke-opacity: 1; stroke-width: 1px;"/><path class="xgrid crisp" transform="translate(194.8,0)" d="M0,46v274" style="stroke: rgb(47, 62, 78); stroke-opacity: 1; stroke-width: 1px;"/><path class="xgrid crisp" transform="translate(275.3,0)" d="M0,46v274" style="stroke: rgb(47, 62, 78); stroke-opacity: 1; stroke-width: 1px;"/><path class="xgrid crisp" transform="translate(353.2,0)" d="M0,46v274" style="stroke: rgb(47, 62, 78); stroke-opacity: 1; stroke-width: 1px;"/><path class="xgrid crisp" transform="translate(433.7,0)" d="M0,46v274" style="stroke: rgb(47, 62, 78); stroke-opacity: 1; stroke-width: 1px;"/><path class="xgrid crisp" transform="translate(511.6,0)" d="M0,46v274" style="stroke: rgb(47, 62, 78); stroke-opacity: 1; stroke-width: 1px;"/><path class="xgrid crisp" transform="translate(592.1,0)" d="M0,46v274" style="stroke: rgb(47, 62, 78); stroke-opacity: 1; stroke-width: 1px;"/></g><g class="y"><path class="ygrid crisp" transform="translate(0,317.53)" d="M39,0h631" style="stroke: rgb(47, 62, 78); stroke-opacity: 1; stroke-width: 1px;"/><path class="ygrid crisp" transform="translate(0,238.37)" d="M39,0h631" style="stroke: rgb(47, 62, 78); stroke-opacity: 1; stroke-width: 1px;"/><path class="ygrid crisp" transform="translate(0,159.20999999999998)" d="M39,0h631" style="stroke: rgb(47, 62, 78); stroke-opacity: 1; stroke-width: 1px;"/><path class="ygrid crisp" transform="translate(0,80.05)" d="M39,0h631" style="stroke: rgb(47, 62, 78); stroke-opacity: 1; stroke-width: 1px;"/></g></g><g class="zerolinelayer"/><path class="xlines-below"/><path class="ylines-below"/><g class="overlines-below"/><g class="xaxislayer-below"/><g class="yaxislayer-below"/><g class="overaxes-below"/><g class="plot" transform="translate(39,46)" clip-path="url(#clip2e405exyplot)"><g class="scatterlayer mlayer"><g class="trace scatter tracec43abbb8-980f-483f-8f5e-cf7da4e785df" style="stroke-miterlimit: 2; opacity: 1;"><g class="fills"/><g class="errorbars"/><g class="lines"><path class="js-line" d="M0,233.81L31.16,233.52L33.76,232.97L54.53,233.38L57.13,233.8L67.51,233.05L70.11,232.14L88.29,232.62L90.88,231.66L101.27,230.47L103.87,231.26L109.06,229.82L111.66,230.21L114.26,229.87L116.85,231.33L119.45,231.23L122.05,231.97L124.64,230.77L127.24,232.29L135.03,232.2L137.63,231.18L145.42,235.61L148.01,235.74L155.8,236.43L158.4,235.49L163.59,235.93L166.19,234.72L168.79,234.55L171.38,235.47L173.98,238.63L176.58,239.15L181.77,239.19L184.37,251.45L186.96,249.51L189.56,250.68L192.16,250.12L194.75,251.11L199.95,250.6L202.54,246.43L207.74,246.48L210.33,248.32L215.53,243.46L218.12,243.82L220.72,243.59L223.32,245.53L228.51,249.38L231.11,246.48L233.7,246.43L236.3,245.19L238.9,243.8L241.49,244.25L244.09,243.25L246.69,243.84L249.28,240.26L251.88,241.1L254.48,239.75L257.07,240.03L259.67,243.76L262.27,243.82L264.86,242.87L267.46,243.97L270.06,244L272.65,245.9L275.25,241.41L280.44,239.98L283.04,240.76L285.64,244.15L288.23,244.17L290.83,241.31L293.43,237.25L296.02,235.67L298.62,235.42L301.22,233.91L303.81,232.28L306.41,232.12L309.01,217.33L311.6,219.45L314.2,216.42L316.8,214.6L319.4,215.95L321.99,215.73L324.59,214.34L327.19,210.15L329.78,199.38L332.38,201.1L334.98,204.95L337.57,217.76L340.17,220.1L342.77,217.07L347.96,203.15L350.56,209.47L353.15,208.74L355.75,203.93L358.35,203.01L360.94,202.99L363.54,206.72L366.14,214.61L368.73,212.83L371.33,212.36L373.93,220.15L376.52,218.11L379.12,219.38L381.72,213.4L384.31,207.21L386.91,208.8L389.51,204.06L392.1,208.49L394.7,195.92L397.3,207.38L402.49,202.54L405.09,204.95L407.68,205.16L410.28,203.24L415.47,202.56L418.07,201.09L420.67,212.02L423.26,208.85L425.86,208.96L428.46,210.8L433.65,207.68L436.25,208.91L438.84,210.35L441.44,212.96L444.04,212.04L446.63,212.66L449.23,205.27L451.83,205.71L454.42,212.85L457.02,213.95L462.21,218.86L464.81,216.66L467.41,215.6L470,216.8L472.6,214.75L475.2,217.12L477.79,217.93L480.39,216.93L482.99,218.27L485.58,211.41L488.18,214.35L490.78,210.2L493.37,213.78L495.97,213.76L498.57,214.72L501.16,213.85L508.95,215.96L511.55,217.49L519.34,216.13L521.94,216.69L527.13,207.33L529.73,205.86L532.33,207.02L534.92,203.35L537.52,197.32L540.12,168.55L542.71,170.64L545.31,165.67L547.91,165.39L550.5,159.66L553.1,147.93L555.7,167.13L558.29,161.92L560.89,163.01L563.49,148.3L566.08,147.41L568.68,152.49L571.28,148.14L573.87,150.39L576.47,144.62L579.07,158.02L581.66,153.05L584.26,147.37L586.86,147.81L589.45,145.04L592.05,144.27L594.65,133.59L597.24,141.49L599.84,148.42L602.44,144.87L605.03,153.41L607.63,150.79L610.23,151.29L612.82,148.02L615.42,160.33L618.02,156.67L620.61,161.64L623.21,155.04L625.81,156.15L628.4,150L631,150.95" style="vector-effect: non-scaling-stroke; fill: none; stroke: rgb(31, 119, 180); stroke-opacity: 1; stroke-width: 2px; opacity: 1;"/></g><g class="points"/><g class="text"/></g><g class="trace scatter trace393cc8d7-678c-4ca1-b2db-bdea5662fd39" style="stroke-miterlimit: 2; opacity: 1;"><g class="fills"/><g class="errorbars"/><g class="lines"><path class="js-line" d="M0,233.81L38.95,233.5L41.55,233.05L44.14,232.74L46.74,233.32L59.72,233.74L62.32,233.98L70.11,231.97L72.71,232.23L75.3,230.49L77.9,231.35L85.69,229.47L88.29,229.58L90.88,226.61L93.48,224.94L96.08,222.8L98.67,222.7L101.27,221.28L103.87,222.65L106.47,219.23L109.06,210.65L111.66,209.84L114.26,204.96L116.85,210.97L119.45,212.38L122.05,210.59L124.64,206.16L127.24,212.59L129.84,213.08L132.43,211.09L135.03,211.99L137.63,208.96L140.22,211.43L145.42,221.63L148.01,221.38L150.61,221.41L153.21,223.44L155.8,223.7L158.4,220.05L161,222.06L163.59,222.05L166.19,220.52L168.79,216.14L171.38,218.05L173.98,230.46L176.58,230.08L179.17,230.57L181.77,232.45L184.37,258.67L186.96,253.21L189.56,255.79L192.16,255.32L194.75,259.7L199.95,258.43L202.54,250.14L205.14,251.61L207.74,251.58L210.33,255.22L212.93,250.94L215.53,249.36L218.12,250.47L220.72,249.57L223.32,251.46L225.91,252.66L228.51,254.84L231.11,251.98L233.7,251.68L236.3,250.68L238.9,247.64L241.49,247.62L244.09,246.1L246.69,246.91L249.28,235.05L251.88,237.08L254.48,233.3L257.07,234.31L259.67,240.97L262.27,241.08L264.86,239.45L267.46,242.13L270.06,241.4L272.65,243.8L275.25,233.67L280.44,225.46L283.04,228.55L285.64,233.81L288.23,233.56L290.83,227.56L293.43,226.06L296.02,223.46L298.62,219.53L301.22,218.38L303.81,218.44L306.41,217.68L309.01,205.75L311.6,211.85L314.2,207.54L316.8,206.82L319.4,209.74L321.99,211.56L324.59,212.47L327.19,214.21L329.78,208.92L332.38,208.47L334.98,209.46L337.57,224.93L340.17,226.71L342.77,224.49L345.36,217.86L347.96,215.19L350.56,220.46L355.75,212.41L358.35,207.23L360.94,208.01L363.54,210.42L366.14,217.74L368.73,212.52L371.33,211.42L373.93,215.96L376.52,213.93L379.12,216.3L381.72,211.53L384.31,203.6L386.91,202.99L389.51,186.68L392.1,195.24L394.7,183.29L397.3,190.78L399.89,185.45L402.49,185.26L405.09,187.83L407.68,187.27L410.28,184.59L412.88,183.64L415.47,184.84L418.07,182.67L420.67,196.36L423.26,191.42L425.86,190.2L431.05,197.87L433.65,194.16L438.84,196.12L441.44,200.36L444.04,198.61L446.63,198.85L449.23,187.47L451.83,186.09L454.42,193.29L457.02,195.7L459.62,198.45L462.21,204.05L467.41,199.67L470,201.25L472.6,197.25L475.2,198.7L477.79,202.07L480.39,199.06L482.99,200.23L485.58,188.79L488.18,190.89L490.78,184.37L493.37,187.54L495.97,189.3L498.57,190.64L501.16,188.32L503.76,190.52L506.36,189.99L508.95,191.62L511.55,195.92L514.15,196.7L516.74,194.3L519.34,191.65L521.94,193.71L524.53,185.93L527.13,170.75L529.73,159.69L532.33,155.72L534.92,133.89L537.52,128.95L540.12,118.46L542.71,122.78L545.31,121.42L547.91,106.69L550.5,96.89L553.1,61.45L555.7,74.5L558.29,60.47L560.89,57.24L563.49,46.72L566.08,52.7L568.68,66.58L571.28,53.53L573.87,56.19L576.47,51.88L579.07,66.06L581.66,56.33L584.26,21.71L586.86,13.7L589.45,17.43L592.05,17.04L594.65,21.04L597.24,26.49L599.84,42.36L602.44,33.16L605.03,58.55L607.63,52.34L610.23,56.46L612.82,40.96L615.42,63.49L618.02,61.2L620.61,64.8L623.21,52.51L625.81,48.68L628.4,21.55L631,15.1" style="vector-effect: non-scaling-stroke; fill: none; stroke: rgb(255, 127, 14); stroke-opacity: 1; stroke-width: 2px; opacity: 1;"/></g><g class="points"/><g class="text"/></g><g class="trace scatter trace8810f919-c027-4022-a438-a7108606479e" style="stroke-miterlimit: 2; opacity: 1;"><g class="fills"/><g class="errorbars"/><g class="lines"><path class="js-line" d="M0,233.81L31.16,233.52L33.76,232.66L41.55,232.4L44.14,232.13L49.34,232.91L51.93,232.68L59.72,233.58L62.32,233.75L70.11,232.22L72.71,232.62L75.3,231.57L77.9,232.19L80.5,231.9L83.09,230.6L85.69,230.06L88.29,228.29L93.48,226.11L96.08,226.54L98.67,226.83L101.27,226.08L103.87,227.35L106.47,226.51L111.66,219.52L114.26,218.22L116.85,222.67L119.45,224.36L122.05,225.59L124.64,223.95L127.24,226.79L129.84,227.5L135.03,227.05L137.63,225.89L145.42,232.72L148.01,232.21L155.8,233L158.4,232.06L163.59,232.5L166.19,231.96L168.79,231.42L171.38,232.32L173.98,235.38L176.58,235.24L181.77,235.34L184.37,239.63L197.35,239.51L199.95,239.44L210.33,240.57L212.93,240.04L218.12,239.71L220.72,238.46L225.91,238.39L228.51,240.37L233.7,238.98L236.3,238.87L244.09,237.69L246.69,238.22L249.28,234.74L251.88,235.67L254.48,233.35L257.07,234.14L259.67,237.25L262.27,237.11L264.86,236.5L267.46,237.19L272.65,238.93L275.25,236.68L280.44,235.41L283.04,236.67L285.64,238.84L288.23,238.6L296.02,235.76L298.62,235.36L303.81,234.49L306.41,229.19L309.01,225.56L311.6,230.01L316.8,226.52L319.4,227.92L324.59,228.86L327.19,229.27L329.78,227.97L332.38,227.65L334.98,228.82L337.57,236.28L340.17,237.89L342.77,236.49L345.36,234.96L347.96,234.31L350.56,236.02L353.15,235.58L355.75,235.09L358.35,233.38L363.54,234.93L366.14,237.64L368.73,235.53L371.33,236.18L373.93,237.63L376.52,236.85L379.12,238.26L381.72,236.77L384.31,235.67L386.91,236.6L389.51,233.35L392.1,234.75L394.7,231.66L397.3,234.98L402.49,233.99L405.09,234.4L410.28,234.69L412.88,234.55L415.47,235.52L418.07,235.04L420.67,241.79L423.26,239.83L428.46,241.04L431.05,240.3L433.65,241.2L436.25,240.13L441.44,243.37L444.04,242.67L446.63,243.91L449.23,242.38L451.83,242.64L454.42,244.53L459.62,245.24L462.21,247.78L467.41,247.3L470,248.34L475.2,247.66L477.79,248.17L480.39,247.33L482.99,247.86L485.58,241.7L488.18,243.75L490.78,233.13L493.37,234.08L495.97,236.27L498.57,234.95L506.36,236.21L508.95,237.21L511.55,238.94L514.15,238.81L516.74,235.72L519.34,235.85L521.94,238.42L524.53,235.95L529.73,230.38L532.33,232.74L534.92,226.18L537.52,225.6L542.71,215.26L545.31,206.59L547.91,205.62L550.5,195.62L553.1,174.13L555.7,175.86L558.29,160.06L560.89,166.59L563.49,164.66L566.08,164.47L568.68,170.93L571.28,171.39L573.87,175.3L576.47,170.93L579.07,178.48L581.66,178.13L584.26,168.35L586.86,166.39L589.45,166.94L592.05,163.99L594.65,155.24L597.24,164.25L599.84,174.52L602.44,172.68L605.03,182.23L607.63,177.59L610.23,178.51L612.82,175.43L615.42,184.67L618.02,185.03L620.61,195.74L623.21,189.53L625.81,187.5L628.4,180.41L631,181.5" style="vector-effect: non-scaling-stroke; fill: none; stroke: rgb(44, 160, 44); stroke-opacity: 1; stroke-width: 2px; opacity: 1;"/></g><g class="points"/><g class="text"/></g><g class="trace scatter trace7bd888e0-fbb9-486f-a3a3-7d6d542d6cc3" style="stroke-miterlimit: 2; opacity: 1;"><g class="fills"/><g class="errorbars"/><g class="lines"><path class="js-line" d="M0,233.81L38.95,234.45L41.55,234.59L72.71,233.95L75.3,233.35L80.5,233.72L83.09,233.43L88.29,233.95L90.88,232.05L96.08,226.27L98.67,226.85L101.27,221.8L103.87,219.77L106.47,218.8L109.06,216.93L111.66,219.19L114.26,217.26L116.85,222.25L119.45,223.79L122.05,223.62L124.64,222.41L127.24,226.54L129.84,226.77L135.03,227.38L137.63,225.38L140.22,227.43L142.82,231.85L145.42,235.39L148.01,234.65L150.61,235.29L153.21,233.67L155.8,235.04L158.4,233.16L161,233.57L163.59,232.86L168.79,229.83L171.38,232.36L173.98,239.43L176.58,240.11L179.17,239.64L181.77,240.18L184.37,250.91L186.96,250.1L194.75,251.14L197.35,250.41L199.95,250.36L202.54,245.73L205.14,246.76L207.74,246.35L210.33,248.89L212.93,246.48L215.53,245.7L218.12,245.93L220.72,243.34L223.32,245.7L225.91,246.62L228.51,248.78L231.11,246.84L233.7,245.98L238.9,244.57L241.49,243.7L244.09,242.41L246.69,242.67L249.28,238.98L251.88,240.26L254.48,239.12L257.07,239.1L259.67,243.28L262.27,243.08L270.06,237.04L272.65,240.29L275.25,236.67L280.44,233.58L283.04,235.3L285.64,239.17L288.23,238.73L290.83,236.9L293.43,235.69L296.02,235.65L298.62,234.37L301.22,234.02L306.41,233.77L309.01,227.97L311.6,230.55L314.2,227.57L316.8,227.46L319.4,230.38L321.99,230.54L324.59,231.71L327.19,233.38L329.78,231.06L332.38,229.59L334.98,231.59L337.57,242.45L340.17,243.74L342.77,239.55L345.36,236.95L347.96,235.51L350.56,239.56L358.35,233.65L360.94,230.12L363.54,231.96L366.14,237.18L368.73,233.71L371.33,234.06L373.93,237.4L376.52,235.33L379.12,236.58L381.72,234.73L384.31,230.94L386.91,231.08L389.51,226.05L392.1,231.29L394.7,224.79L397.3,229.94L399.89,227.61L402.49,227.45L405.09,226.48L407.68,227.72L412.88,228.87L415.47,228.53L418.07,228.78L420.67,238.56L423.26,235.4L425.86,234.03L428.46,235.54L431.05,237.93L436.25,237.82L438.84,239.66L441.44,242.51L444.04,241.22L446.63,241.65L449.23,237.09L451.83,237.63L454.42,241.57L459.62,244.33L462.21,249.88L464.81,247.55L467.41,246.7L470,247.61L472.6,243.57L477.79,248.86L480.39,246.42L482.99,247.13L485.58,239.27L490.78,229.95L493.37,233.36L498.57,225.98L501.16,219.72L503.76,217.94L506.36,221.36L511.55,231.15L514.15,231.76L516.74,231.32L519.34,222.05L521.94,227.47L524.53,224.82L527.13,220.5L529.73,213.79L534.92,200.69L537.52,203.74L540.12,202.57L542.71,195.92L545.31,199.27L547.91,197.87L550.5,189.92L553.1,179.21L555.7,186.59L558.29,172.62L560.89,169.74L563.49,156.33L566.08,164.38L568.68,169.4L571.28,162.19L573.87,167.31L576.47,165.57L579.07,182.94L581.66,176.61L584.26,172.44L586.86,159.65L589.45,160.27L592.05,154.13L594.65,153.96L597.24,159.88L599.84,169.98L602.44,159.59L605.03,172.38L607.63,170.94L610.23,175.78L612.82,166.19L615.42,181.11L620.61,160.36L623.21,159.67L625.81,161.29L628.4,153.04L631,159" style="vector-effect: non-scaling-stroke; fill: none; stroke: rgb(220, 57, 18); stroke-opacity: 1; stroke-width: 2px; opacity: 1;"/></g><g class="points"/><g class="text"/></g><g class="trace scatter trace9480df26-c07c-46da-8c97-db20630081f6" style="stroke-miterlimit: 2; opacity: 1;"><g class="fills"/><g class="errorbars"/><g class="lines"><path class="js-line" d="M0,233.81L31.16,233.82L33.76,232.85L38.95,233.23L41.55,232.56L46.74,233.29L49.34,233.08L54.53,232.9L57.13,234.08L64.92,233.87L67.51,233.38L75.3,232.05L77.9,232.91L85.69,232.51L88.29,232.69L90.88,229.68L93.48,229.65L98.67,229.62L101.27,229.11L106.47,228.12L109.06,226.92L111.66,227.03L114.26,225.55L116.85,230.44L119.45,232.26L122.05,232.81L124.64,232.01L127.24,234.96L129.84,235.64L132.43,235.2L135.03,235.59L137.63,233.82L140.22,235.64L145.42,239.25L148.01,238.93L153.21,239.84L155.8,239.52L158.4,238.04L161,238.67L163.59,239.49L166.19,237.93L168.79,236.81L171.38,238.82L173.98,243.27L176.58,243.46L181.77,243.79L184.37,251.2L189.56,250.86L192.16,250.72L199.95,250.72L202.54,248.66L210.33,249.87L212.93,249.01L215.53,248.37L218.12,248.99L220.72,248.46L223.32,249.3L228.51,250.24L231.11,249.1L236.3,248.99L238.9,248.28L244.09,247.69L246.69,248.35L249.28,246.22L251.88,246.71L254.48,245L257.07,246.11L259.67,249.19L262.27,249.33L264.86,248.79L267.46,250.54L272.65,251.6L275.25,249.09L280.44,248.03L283.04,249.41L285.64,251.08L288.23,251.06L290.83,248.97L293.43,248.36L301.22,246.44L303.81,247.09L306.41,247L309.01,243.52L311.6,245.46L314.2,243.59L316.8,242.36L319.4,244.76L321.99,246.55L324.59,246.76L327.19,246.46L329.78,244.77L332.38,242.55L334.98,241.36L337.57,249.61L340.17,249.09L342.77,249.55L345.36,248.15L347.96,247.48L350.56,249.14L353.15,248.86L355.75,247.54L358.35,245.63L360.94,246.18L363.54,247.98L366.14,251.1L368.73,249.39L371.33,249.25L373.93,252.38L376.52,250.94L379.12,251.86L381.72,250.19L384.31,248.52L386.91,248.9L389.51,245.15L392.1,248.48L394.7,244.18L397.3,246.1L402.49,243.84L405.09,243.82L407.68,244.96L410.28,244.61L418.07,243.49L420.67,252.25L423.26,249.98L425.86,250.41L431.05,252.37L433.65,251.86L436.25,250.66L438.84,252.1L441.44,254.02L444.04,254.19L446.63,254.43L449.23,250.87L451.83,250.44L454.42,253.87L459.62,255.22L462.21,260.3L467.41,257.3L470,258.72L472.6,257.97L475.2,258.58L477.79,258.9L480.39,257.3L482.99,258.83L485.58,250.26L488.18,252.25L490.78,249.57L493.37,251.5L495.97,251.91L501.16,252.41L503.76,254.45L514.15,258.81L516.74,258.16L519.34,256.9L521.94,258.87L527.13,251.93L529.73,252.46L532.33,253.37L534.92,247.14L537.52,248.38L540.12,238.94L542.71,229.03L545.31,229.12L547.91,227.29L550.5,223.25L553.1,214.75L555.7,231.73L558.29,225.41L560.89,229.5L563.49,226.47L566.08,219.32L568.68,221.95L571.28,221.47L573.87,223.6L576.47,222.5L579.07,232.76L581.66,230.33L584.26,223.99L586.86,227.29L589.45,222.23L592.05,219.59L594.65,214.38L597.24,221.64L599.84,227.88L602.44,226.75L605.03,232.5L607.63,230.84L610.23,232.16L612.82,228.71L615.42,236.6L618.02,237.25L620.61,243.03L623.21,240.73L625.81,240.72L628.4,235.22L631,237.86" style="vector-effect: non-scaling-stroke; fill: none; stroke: rgb(148, 103, 189); stroke-opacity: 1; stroke-width: 2px; opacity: 1;"/></g><g class="points"/><g class="text"/></g><g class="trace scatter tracec5ac64af-8388-4523-8545-c7411ef7d475" style="stroke-miterlimit: 2; opacity: 1;"><g class="fills"/><g class="errorbars"/><g class="lines"><path class="js-line" d="M0,233.81L72.71,233.86L75.3,233.01L88.29,232.93L90.88,232.37L101.27,231.24L103.87,232.08L106.47,231.45L109.06,230.03L111.66,230.34L114.26,229.62L116.85,231.7L119.45,232.02L122.05,232.37L124.64,231.71L127.24,232.86L129.84,233.1L137.63,231.28L140.22,232.55L142.82,233.83L145.42,236.35L148.01,236.23L150.61,236.99L155.8,237.73L158.4,236.27L163.59,236.73L166.19,235.58L168.79,234.88L171.38,236.72L173.98,243.03L176.58,243.98L179.17,243.93L181.77,245.11L184.37,257.76L186.96,254.4L189.56,255.97L192.16,255.01L194.75,256.53L197.35,256.34L199.95,256.3L202.54,251.53L205.14,252.55L207.74,252.35L210.33,255.69L212.93,252.15L215.53,249.86L218.12,251.76L220.72,250.37L223.32,252.13L225.91,252.21L228.51,254.39L231.11,252.09L233.7,251.87L238.9,250.92L241.49,250.1L246.69,249.58L249.28,243.01L251.88,242.48L254.48,239.1L257.07,238.97L259.67,248.13L264.86,247.75L267.46,250.81L270.06,251.17L272.65,254.53L275.25,247.42L280.44,243.47L285.64,252.15L288.23,251.65L293.43,246.7L296.02,241.78L303.81,242.06L306.41,238.15L309.01,228.75L311.6,236.19L314.2,232.98L316.8,227.96L321.99,234.07L324.59,236.21L327.19,238.81L329.78,234.46L332.38,232.75L334.98,234.66L337.57,250.1L340.17,252.18L342.77,250.9L345.36,247.68L347.96,245.13L350.56,248.67L355.75,246.15L358.35,241.3L360.94,240.73L363.54,244.68L366.14,249.18L368.73,244.64L371.33,245.2L373.93,250.29L376.52,248.71L379.12,250.33L381.72,245.9L384.31,243.07L386.91,243.41L389.51,234.05L392.1,240.5L394.7,232.3L397.3,239.58L399.89,235.45L402.49,233.91L405.09,235.84L407.68,236.89L410.28,237.09L415.47,239.12L418.07,237.06L420.67,247.96L423.26,243.49L425.86,242.58L428.46,246.09L433.65,246.81L436.25,246.28L438.84,247.98L441.44,251.14L444.04,248.86L446.63,249.75L449.23,245.97L451.83,246.01L454.42,250.69L457.02,251.66L459.62,249.06L462.21,255.12L464.81,255.63L467.41,254.15L470,255.43L472.6,254.66L477.79,256.28L480.39,253.49L482.99,255.09L485.58,247.15L488.18,249.37L490.78,242.99L493.37,245.27L495.97,246.26L498.57,244.8L501.16,244.94L503.76,247.39L506.36,247.79L508.95,249.59L511.55,253.81L514.15,254.22L516.74,252.47L519.34,252.03L521.94,254.06L527.13,243.67L529.73,244L532.33,246.48L534.92,229.66L537.52,232.73L540.12,214.3L542.71,204.5L545.31,206.02L550.5,195.34L553.1,182.75L555.7,200.65L558.29,193.62L560.89,197.22L563.49,191.58L566.08,190.99L568.68,198.59L571.28,195.1L573.87,199.05L576.47,194.54L579.07,209.96L581.66,207.66L584.26,196.71L586.86,200.64L589.45,188.19L594.65,159.63L597.24,165.71L599.84,179.99L602.44,176.07L605.03,190.88L607.63,187.09L610.23,185.81L612.82,179.16L615.42,194.57L618.02,195.52L620.61,205.38L623.21,199.79L625.81,200.07L628.4,176.49L631,183.72" style="vector-effect: non-scaling-stroke; fill: none; stroke: rgb(140, 86, 75); stroke-opacity: 1; stroke-width: 2px; opacity: 1;"/></g><g class="points"/><g class="text"/></g></g></g><g class="overplot"/><path class="xlines-above crisp" d="M0,0" style="fill: none;"/><path class="ylines-above crisp" d="M0,0" style="fill: none;"/><g class="overlines-above"/><g class="xaxislayer-above"><g class="xtick"><text text-anchor="middle" x="0" y="333" transform="translate(39,0)" style="font-family: 'Open Sans', verdana, arial, sans-serif; font-size: 12px; fill: rgb(214, 223, 239); fill-opacity: 1; white-space: pre; opacity: 1;">Jan 2020</text></g><g class="xtick"><text text-anchor="middle" x="0" y="333" style="font-family: 'Open Sans', verdana, arial, sans-serif; font-size: 12px; fill: rgb(214, 223, 239); fill-opacity: 1; white-space: pre; opacity: 1;" transform="translate(119.5,0)">Feb 2020</text></g><g class="xtick"><text text-anchor="middle" x="0" y="333" style="font-family: 'Open Sans', verdana, arial, sans-serif; font-size: 12px; fill: rgb(214, 223, 239); fill-opacity: 1; white-space: pre; opacity: 1;" transform="translate(194.8,0)">Mar 2020</text></g><g class="xtick"><text text-anchor="middle" x="0" y="333" style="font-family: 'Open Sans', verdana, arial, sans-serif; font-size: 12px; fill: rgb(214, 223, 239); fill-opacity: 1; white-space: pre; opacity: 1;" transform="translate(275.3,0)">Apr 2020</text></g><g class="xtick"><text text-anchor="middle" x="0" y="333" style="font-family: 'Open Sans', verdana, arial, sans-serif; font-size: 12px; fill: rgb(214, 223, 239); fill-opacity: 1; white-space: pre; opacity: 1;" transform="translate(353.2,0)">May 2020</text></g><g class="xtick"><text text-anchor="middle" x="0" y="333" style="font-family: 'Open Sans', verdana, arial, sans-serif; font-size: 12px; fill: rgb(214, 223, 239); fill-opacity: 1; white-space: pre; opacity: 1;" transform="translate(433.7,0)">Jun 2020</text></g><g class="xtick"><text text-anchor="middle" x="0" y="333" style="font-family: 'Open Sans', verdana, arial, sans-serif; font-size: 12px; fill: rgb(214, 223, 239); fill-opacity: 1; white-space: pre; opacity: 1;" transform="translate(511.6,0)">Jul 2020</text></g><g class="xtick"><text text-anchor="middle" x="0" y="333" style="font-family: 'Open Sans', verdana, arial, sans-serif; font-size: 12px; fill: rgb(214, 223, 239); fill-opacity: 1; white-space: pre; opacity: 1;" transform="translate(592.1,0)">Aug 2020</text></g></g><g class="yaxislayer-above"><g class="ytick"><text text-anchor="end" x="38" y="4.199999999999999" transform="translate(0,317.53)" style="font-family: 'Open Sans', verdana, arial, sans-serif; font-size: 12px; fill: rgb(214, 223, 239); fill-opacity: 1; white-space: pre; opacity: 1;">15k</text></g><g class="ytick"><text text-anchor="end" x="38" y="4.199999999999999" style="font-family: 'Open Sans', verdana, arial, sans-serif; font-size: 12px; fill: rgb(214, 223, 239); fill-opacity: 1; white-space: pre; opacity: 1;" transform="translate(0,238.37)">20k</text></g><g class="ytick"><text text-anchor="end" x="38" y="4.199999999999999" style="font-family: 'Open Sans', verdana, arial, sans-serif; font-size: 12px; fill: rgb(214, 223, 239); fill-opacity: 1; white-space: pre; opacity: 1;" transform="translate(0,159.20999999999998)">25k</text></g><g class="ytick"><text text-anchor="end" x="38" y="4.199999999999999" style="font-family: 'Open Sans', verdana, arial, sans-serif; font-size: 12px; fill: rgb(214, 223, 239); fill-opacity: 1; white-space: pre; opacity: 1;" transform="translate(0,80.05)">30k</text></g></g><g class="overaxes-above"/></g></g><g class="polarlayer"/><g class="ternarylayer"/><g class="geolayer"/><g class="funnelarealayer"/><g class="pielayer"/><g class="iciclelayer"/><g class="treemaplayer"/><g class="sunburstlayer"/><g class="glimages"/><defs id="topdefs-2e405e"><g class="clips"/><clipPath id="legend2e405e"><rect width="606" height="29" x="0" y="0"/></clipPath></defs><g class="layer-above"><g class="imagelayer"/><g class="shapelayer"/></g><g class="infolayer"><g class="legend" pointer-events="all" transform="translate(64,11.519999999999996)"><rect class="bg" shape-rendering="crispEdges" style="stroke: rgb(68, 68, 68); stroke-opacity: 1; fill: rgb(33, 34, 44); fill-opacity: 1; stroke-width: 0px;" width="606" height="29" x="0" y="0"/><g class="scrollbox" transform="" clip-path="url(#legend2e405e)"><g class="groups"><g class="traces" transform="translate(0,14.5)" style="opacity: 1;"><text class="legendtext" text-anchor="start" x="40" y="4.680000000000001" style="font-family: 'Open Sans', verdana, arial, sans-serif; font-size: 12px; fill: rgb(214, 223, 239); fill-opacity: 1; white-space: pre;">BTC-USD</text><g class="layers" style="opacity: 1;"><g class="legendfill"/><g class="legendlines"><path class="js-line" d="M5,0h30" style="fill: none; stroke: rgb(31, 119, 180); stroke-opacity: 1; stroke-width: 2px;"/></g><g class="legendsymbols"><g class="legendpoints"/></g></g><rect class="legendtoggle" x="0" y="-9.5" width="98.171875" height="19" style="fill: rgb(0, 0, 0); fill-opacity: 0;"/></g><g class="traces" transform="translate(100.671875,14.5)" style="opacity: 1;"><text class="legendtext" text-anchor="start" x="40" y="4.680000000000001" style="font-family: 'Open Sans', verdana, arial, sans-serif; font-size: 12px; fill: rgb(214, 223, 239); fill-opacity: 1; white-space: pre;">ETH-USD</text><g class="layers" style="opacity: 1;"><g class="legendfill"/><g class="legendlines"><path class="js-line" d="M5,0h30" style="fill: none; stroke: rgb(255, 127, 14); stroke-opacity: 1; stroke-width: 2px;"/></g><g class="legendsymbols"><g class="legendpoints"/></g></g><rect class="legendtoggle" x="0" y="-9.5" width="98.171875" height="19" style="fill: rgb(0, 0, 0); fill-opacity: 0;"/></g><g class="traces" transform="translate(201.34375,14.5)" style="opacity: 1;"><text class="legendtext" text-anchor="start" x="40" y="4.680000000000001" style="font-family: 'Open Sans', verdana, arial, sans-serif; font-size: 12px; fill: rgb(214, 223, 239); fill-opacity: 1; white-space: pre;">XRP-USD</text><g class="layers" style="opacity: 1;"><g class="legendfill"/><g class="legendlines"><path class="js-line" d="M5,0h30" style="fill: none; stroke: rgb(44, 160, 44); stroke-opacity: 1; stroke-width: 2px;"/></g><g class="legendsymbols"><g class="legendpoints"/></g></g><rect class="legendtoggle" x="0" y="-9.5" width="97.96875" height="19" style="fill: rgb(0, 0, 0); fill-opacity: 0;"/></g><g class="traces" transform="translate(301.8125,14.5)" style="opacity: 1;"><text class="legendtext" text-anchor="start" x="40" y="4.680000000000001" style="font-family: 'Open Sans', verdana, arial, sans-serif; font-size: 12px; fill: rgb(214, 223, 239); fill-opacity: 1; white-space: pre;">BNB-USD</text><g class="layers" style="opacity: 1;"><g class="legendfill"/><g class="legendlines"><path class="js-line" d="M5,0h30" style="fill: none; stroke: rgb(220, 57, 18); stroke-opacity: 1; stroke-width: 2px;"/></g><g class="legendsymbols"><g class="legendpoints"/></g></g><rect class="legendtoggle" x="0" y="-9.5" width="99.609375" height="19" style="fill: rgb(0, 0, 0); fill-opacity: 0;"/></g><g class="traces" transform="translate(403.921875,14.5)" style="opacity: 1;"><text class="legendtext" text-anchor="start" x="40" y="4.680000000000001" style="font-family: 'Open Sans', verdana, arial, sans-serif; font-size: 12px; fill: rgb(214, 223, 239); fill-opacity: 1; white-space: pre;">BCH-USD</text><g class="layers" style="opacity: 1;"><g class="legendfill"/><g class="legendlines"><path class="js-line" d="M5,0h30" style="fill: none; stroke: rgb(148, 103, 189); stroke-opacity: 1; stroke-width: 2px;"/></g><g class="legendsymbols"><g class="legendpoints"/></g></g><rect class="legendtoggle" x="0" y="-9.5" width="99.796875" height="19" style="fill: rgb(0, 0, 0); fill-opacity: 0;"/></g><g class="traces" transform="translate(506.21875,14.5)" style="opacity: 1;"><text class="legendtext" text-anchor="start" x="40" y="4.680000000000001" style="font-family: 'Open Sans', verdana, arial, sans-serif; font-size: 12px; fill: rgb(214, 223, 239); fill-opacity: 1; white-space: pre;">LTC-USD</text><g class="layers" style="opacity: 1;"><g class="legendfill"/><g class="legendlines"><path class="js-line" d="M5,0h30" style="fill: none; stroke: rgb(140, 86, 75); stroke-opacity: 1; stroke-width: 2px;"/></g><g class="legendsymbols"><g class="legendpoints"/></g></g><rect class="legendtoggle" x="0" y="-9.5" width="96.625" height="19" style="fill: rgb(0, 0, 0); fill-opacity: 0;"/></g></g></g><rect class="scrollbar" rx="20" ry="3" width="0" height="0" style="fill: rgb(128, 139, 164); fill-opacity: 1;" x="0" y="0"/></g><g class="g-gtitle"/><g class="g-xtitle"/><g class="g-ytitle"/></g></svg>