<svg class="main-svg" xmlns="http://www.w3.org/2000/svg" xmlns:xlink="http://www.w3.org/1999/xlink" width="750" height="670" viewBox="0 0 750 670"><rect x="0" y="0" width="750" height="670" style="fill: rgb(33, 34, 44); fill-opacity: 1;"/><defs id="defs-6bf290"><g class="clips"><clipPath id="clip6bf290xyplot" class="plotclip"><rect width="594" height="256.2313432835821"/></clipPath><clipPath id="clip6bf290x2y2plot" class="plotclip"><rect width="594" height="256.2313432835821"/></clipPath><clipPath class="axesclip" id="clip6bf290x"><rect x="126" y="0" width="594" height="670"/></clipPath><clipPath class="axesclip" id="clip6bf290y"><rect x="0" y="73" width="750" height="256.2313432835821"/></clipPath><clipPath class="axesclip" id="clip6bf290xy"><rect x="126" y="73" width="594" height="256.2313432835821"/></clipPath><clipPath class="axesclip" id="clip6bf290y2"><rect x="0" y="361.7686567164179" width="750" height="256.2313432835821"/></clipPath><clipPath class="axesclip" id="clip6bf290xy2"><rect x="126" y="361.7686567164179" width="594" height="256.2313432835821"/></clipPath><clipPath class="axesclip" id="clip6bf290x2"><rect x="126" y="0" width="594" height="670"/></clipPath><clipPath class="axesclip" id="clip6bf290x2y"><rect x="126" y="73" width="594" height="256.2313432835821"/></clipPath><clipPath class="axesclip" id="clip6bf290x2y2"><rect x="126" y="361.7686567164179" width="594" height="256.2313432835821"/></clipPath></g><g class="gradients"/><g class="patterns"/></defs><g class="bglayer"/><g class="layer-below"><g class="imagelayer"/><g class="shapelayer"><path data-index="0" fill-rule="evenodd" d="M291.9,329.2313432835821H328.77V73H291.9Z" clip-path="url(#clip6bf290x)" style="opacity: 0.2; stroke: rgb(0, 0, 0); stroke-opacity: 0; fill: rgb(255, 0, 0); fill-opacity: 1; stroke-width: 0px;"/><path data-index="1" fill-rule="evenodd" d="M354.12,329.2313432835821H367.94V73H354.12Z" clip-path="url(#clip6bf290x)" style="opacity: 0.2; stroke: rgb(0, 0, 0); stroke-opacity: 0; fill: rgb(255, 0, 0); fill-opacity: 1; stroke-width: 0px;"/><path data-index="2" fill-rule="evenodd" d="M328.77,329.2313432835821H335.68V73H328.77Z" clip-path="url(#clip6bf290x)" style="opacity: 0.2; stroke: rgb(0, 0, 0); stroke-opacity: 0; fill: rgb(0, 128, 0); fill-opacity: 1; stroke-width: 0px;"/><path data-index="3" fill-rule="evenodd" d="M367.94,329.2313432835821H400.2V73H367.94Z" clip-path="url(#clip6bf290x)" style="opacity: 0.2; stroke: rgb(0, 0, 0); stroke-opacity: 0; fill: rgb(0, 128, 0); fill-opacity: 1; stroke-width: 0px;"/><path data-index="4" fill-rule="evenodd" d="M434.77,329.2313432835821H685.92V73H434.77Z" clip-path="url(#clip6bf290x)" style="opacity: 0.2; stroke: rgb(0, 0, 0); stroke-opacity: 0; fill: rgb(255, 165, 0); fill-opacity: 1; stroke-width: 0px;"/></g></g><g class="cartesianlayer"><g class="subplot xy"><g class="layer-subplot"><g class="shapelayer"/><g class="imagelayer"/></g><g class="gridlayer"><g class="x"><path class="xgrid crisp" transform="translate(264.25,0)" d="M0,73v256.2313432835821" style="stroke: rgb(47, 62, 78); stroke-opacity: 1; stroke-width: 1px;"/><path class="xgrid crisp" transform="translate(404.81,0)" d="M0,73v256.2313432835821" style="stroke: rgb(47, 62, 78); stroke-opacity: 1; stroke-width: 1px;"/><path class="xgrid crisp" transform="translate(545.37,0)" d="M0,73v256.2313432835821" style="stroke: rgb(47, 62, 78); stroke-opacity: 1; stroke-width: 1px;"/><path class="xgrid crisp" transform="translate(688.23,0)" d="M0,73v256.2313432835821" style="stroke: rgb(47, 62, 78); stroke-opacity: 1; stroke-width: 1px;"/></g><g class="y"><path class="ygrid crisp" transform="translate(0,309.25)" d="M126,0h594" style="stroke: rgb(47, 62, 78); stroke-opacity: 1; stroke-width: 1px;"/><path class="ygrid crisp" transform="translate(0,266.99)" d="M126,0h594" style="stroke: rgb(47, 62, 78); stroke-opacity: 1; stroke-width: 1px;"/><path class="ygrid crisp" transform="translate(0,224.74)" d="M126,0h594" style="stroke: rgb(47, 62, 78); stroke-opacity: 1; stroke-width: 1px;"/><path class="ygrid crisp" transform="translate(0,182.48000000000002)" d="M126,0h594" style="stroke: rgb(47, 62, 78); stroke-opacity: 1; stroke-width: 1px;"/><path class="ygrid crisp" transform="translate(0,140.22)" d="M126,0h594" style="stroke: rgb(47, 62, 78); stroke-opacity: 1; stroke-width: 1px;"/><path class="ygrid crisp" transform="translate(0,97.96000000000001)" d="M126,0h594" style="stroke: rgb(47, 62, 78); stroke-opacity: 1; stroke-width: 1px;"/></g></g><g class="zerolinelayer"/><path class="xlines-below"/><path class="ylines-below"/><g class="overlines-below"/><g class="xaxislayer-below"/><g class="yaxislayer-below"/><g class="overaxes-below"/><g class="plot" transform="translate(126,73)" clip-path="url(#clip6bf290xyplot)"><g class="scatterlayer mlayer"><g class="trace scatter trace6b244593-be07-4b86-b56d-647af37975d4" style="stroke-miterlimit: 2; opacity: 1;"><g class="fills"/><g class="errorbars"/><g class="lines"><path class="js-line" d="M0,236.25L32.26,236.25L34.56,240.25L36.87,230.4L39.17,229.74L41.48,241.09L43.78,243.42L46.08,239.19L48.39,239.19L163.6,239.19L165.9,189.13L168.21,219.8L170.51,203.6L200.47,203.6L202.77,226.95L205.08,189.91L207.38,189.27L211.99,163.38L214.29,163.38L228.12,163.38L230.42,193.01L232.73,193.44L235.03,185.84L239.64,186.02L241.94,199.86L244.25,167.06L248.86,167.06L271.9,166.34L274.2,103.64L276.51,112.62L278.81,99.62L281.11,91.8L283.42,91.8L301.85,91.8L304.16,78.44L308.77,17.19L311.07,43.92L313.37,40.7L315.68,21.34L317.98,17.66L320.29,17.5L322.59,31.08L324.89,60.16L327.2,53.52L329.5,51.76L331.81,79.37L334.11,71.69L336.42,76.43L338.72,53.62L341.02,30.9L343.33,36.61L345.63,19.38L347.94,19.38L350.24,19.38L352.55,59.47L357.15,42.44L359.46,50.94L361.76,51.68L364.07,45.07L368.67,42.75L370.98,38.07L373.28,72.56L375.59,62.55L377.89,62.9L380.2,68.47L384.8,58.96L387.11,62.59L389.41,66.89L391.72,74.68L394.02,71.89L396.33,73.7L398.63,52L400.93,53.19L403.24,73.07L405.54,76.14L410.15,89.94L412.46,83.77L414.76,80.79L417.06,80.79L435.5,80.79L437.8,90.01L440.11,89.96L442.41,92.32L444.71,90.1L447.02,92.12L449.32,92.14L451.63,95.23L453.93,98.95L456.24,97.77L458.54,97.3L460.84,95.66L463.15,96.98L465.45,84.07L467.76,74.84L470.06,74.84L486.19,74.84L488.49,63.69L490.8,40.77L493.1,77.87L495.41,67.74L497.71,67.74L559.92,67.74" style="vector-effect: non-scaling-stroke; fill: none; stroke: rgb(148, 103, 189); stroke-opacity: 1; stroke-width: 2px; opacity: 1;"/></g><g class="points"/><g class="text"/></g><g class="trace scatter trace69526a54-931f-408a-84a3-2b43a2e1f3e5" style="stroke-miterlimit: 2; opacity: 1;"><g class="fills"/><g class="errorbars"/><g class="lines"/><g class="points"><path class="point plotly-customdata" transform="translate(165.9,189.13)" d="M4.55,0L0,4.55L-4.55,0L0,-4.55Z" style="opacity: 1; stroke-width: 1px; fill: rgb(66, 133, 244); fill-opacity: 1; stroke: rgb(11, 84, 205); stroke-opacity: 1;"/><path class="point plotly-customdata" transform="translate(228.12,163.38)" d="M4.55,0L0,4.55L-4.55,0L0,-4.55Z" style="opacity: 1; stroke-width: 1px; fill: rgb(66, 133, 244); fill-opacity: 1; stroke: rgb(11, 84, 205); stroke-opacity: 1;"/><path class="point plotly-customdata" transform="translate(308.77,17.19)" d="M4.55,0L0,4.55L-4.55,0L0,-4.55Z" style="opacity: 1; stroke-width: 1px; fill: rgb(66, 133, 244); fill-opacity: 1; stroke: rgb(11, 84, 205); stroke-opacity: 1;"/></g><g class="text"/></g><g class="trace scatter trace2b85cf29-ef5e-497a-8ac5-f04392a0be26" style="stroke-miterlimit: 2; opacity: 1;"><g class="fills"/><g class="errorbars"/><g class="lines"/><g class="points"><path class="point plotly-customdata" transform="translate(202.77,226.95)" d="M4.55,0L0,4.55L-4.55,0L0,-4.55Z" style="opacity: 1; stroke-width: 1px; fill: rgb(234, 67, 53); fill-opacity: 1; stroke: rgb(181, 31, 18); stroke-opacity: 1;"/><path class="point plotly-customdata" transform="translate(241.94,199.86)" d="M4.55,0L0,4.55L-4.55,0L0,-4.55Z" style="opacity: 1; stroke-width: 1px; fill: rgb(234, 67, 53); fill-opacity: 1; stroke: rgb(181, 31, 18); stroke-opacity: 1;"/></g><g class="text"/></g><g class="trace scatter trace64a0a460-b7f6-49f2-9ffc-6d7518e38a19" style="stroke-miterlimit: 2; opacity: 1;"><g class="fills"/><g class="errorbars"/><g class="lines"/><g class="points"><path class="point plotly-customdata" transform="translate(209.68,177.01)" d="M4.55,0L0,4.55L-4.55,0L0,-4.55Z" style="opacity: 1; stroke-width: 1px; fill: rgb(55, 177, 63); fill-opacity: 1; stroke: rgb(38, 123, 44); stroke-opacity: 1;"/><path class="point plotly-customdata" transform="translate(274.2,103.64)" d="M4.55,0L0,4.55L-4.55,0L0,-4.55Z" style="opacity: 1; stroke-width: 1px; fill: rgb(55, 177, 63); fill-opacity: 1; stroke: rgb(38, 123, 44); stroke-opacity: 1;"/></g><g class="text"/></g><g class="trace scatter traceb3bfa088-4270-410f-bb0f-79b14386bb5e" style="stroke-miterlimit: 2; opacity: 1;"><g class="fills"/><g class="errorbars"/><g class="lines"/><g class="points"><path class="point plotly-customdata" transform="translate(559.92,67.74)" d="M4.55,0L0,4.55L-4.55,0L0,-4.55Z" style="opacity: 1; stroke-width: 1px; fill: rgb(255, 170, 0); fill-opacity: 1; stroke: rgb(178, 118, 0); stroke-opacity: 1;"/></g><g class="text"/></g></g></g><g class="overplot"/><path class="xlines-above crisp" d="M0,0" style="fill: none;"/><path class="ylines-above crisp" d="M0,0" style="fill: none;"/><g class="overlines-above"/><g class="xaxislayer-above"/><g class="yaxislayer-above"><g class="ytick"><text text-anchor="end" x="125" y="4.199999999999999" transform="translate(0,309.25)" style="font-family: 'Open Sans', verdana, arial, sans-serif; font-size: 12px; fill: rgb(214, 223, 239); fill-opacity: 1; white-space: pre; opacity: 1;">100</text></g><g class="ytick"><text text-anchor="end" x="125" y="4.199999999999999" style="font-family: 'Open Sans', verdana, arial, sans-serif; font-size: 12px; fill: rgb(214, 223, 239); fill-opacity: 1; white-space: pre; opacity: 1;" transform="translate(0,266.99)">110</text></g><g class="ytick"><text text-anchor="end" x="125" y="4.199999999999999" style="font-family: 'Open Sans', verdana, arial, sans-serif; font-size: 12px; fill: rgb(214, 223, 239); fill-opacity: 1; white-space: pre; opacity: 1;" transform="translate(0,224.74)">120</text></g><g class="ytick"><text text-anchor="end" x="125" y="4.199999999999999" style="font-family: 'Open Sans', verdana, arial, sans-serif; font-size: 12px; fill: rgb(214, 223, 239); fill-opacity: 1; white-space: pre; opacity: 1;" transform="translate(0,182.48000000000002)">130</text></g><g class="ytick"><text text-anchor="end" x="125" y="4.199999999999999" style="font-family: 'Open Sans', verdana, arial, sans-serif; font-size: 12px; fill: rgb(214, 223, 239); fill-opacity: 1; white-space: pre; opacity: 1;" transform="translate(0,140.22)">140</text></g><g class="ytick"><text text-anchor="end" x="125" y="4.199999999999999" style="font-family: 'Open Sans', verdana, arial, sans-serif; font-size: 12px; fill: rgb(214, 223, 239); fill-opacity: 1; white-space: pre; opacity: 1;" transform="translate(0,97.96000000000001)">150</text></g></g><g class="overaxes-above"/></g><g class="subplot x2y2"><g class="layer-subplot"><g class="shapelayer"/><g class="imagelayer"/></g><g class="gridlayer"><g class="x2"><path class="x2grid crisp" transform="translate(264.25,0)" d="M0,361.7686567164179v256.2313432835821" style="stroke: rgb(47, 62, 78); stroke-opacity: 1; stroke-width: 1px;"/><path class="x2grid crisp" transform="translate(404.81,0)" d="M0,361.7686567164179v256.2313432835821" style="stroke: rgb(47, 62, 78); stroke-opacity: 1; stroke-width: 1px;"/><path class="x2grid crisp" transform="translate(545.37,0)" d="M0,361.7686567164179v256.2313432835821" style="stroke: rgb(47, 62, 78); stroke-opacity: 1; stroke-width: 1px;"/><path class="x2grid crisp" transform="translate(688.23,0)" d="M0,361.7686567164179v256.2313432835821" style="stroke: rgb(47, 62, 78); stroke-opacity: 1; stroke-width: 1px;"/></g><g class="y2"><path class="y2grid crisp" transform="translate(0,591.068656716418)" d="M126,0h594" style="stroke: rgb(47, 62, 78); stroke-opacity: 1; stroke-width: 1px;"/><path class="y2grid crisp" transform="translate(0,553.0186567164179)" d="M126,0h594" style="stroke: rgb(47, 62, 78); stroke-opacity: 1; stroke-width: 1px;"/><path class="y2grid crisp" transform="translate(0,514.9686567164179)" d="M126,0h594" style="stroke: rgb(47, 62, 78); stroke-opacity: 1; stroke-width: 1px;"/><path class="y2grid crisp" transform="translate(0,476.9186567164179)" d="M126,0h594" style="stroke: rgb(47, 62, 78); stroke-opacity: 1; stroke-width: 1px;"/><path class="y2grid crisp" transform="translate(0,438.86865671641795)" d="M126,0h594" style="stroke: rgb(47, 62, 78); stroke-opacity: 1; stroke-width: 1px;"/><path class="y2grid crisp" transform="translate(0,400.81865671641793)" d="M126,0h594" style="stroke: rgb(47, 62, 78); stroke-opacity: 1; stroke-width: 1px;"/></g></g><g class="zerolinelayer"><path class="y2zl zl crisp" transform="translate(0,362.7686567164179)" d="M126,0h594" style="stroke: rgb(47, 62, 78); stroke-opacity: 1; stroke-width: 2px;"/></g><path class="xlines-below"/><path class="ylines-below"/><g class="overlines-below"/><g class="xaxislayer-below"/><g class="yaxislayer-below"/><g class="overaxes-below"/><g class="plot" transform="translate(126,361.7686567164179)" clip-path="url(#clip6bf290x2y2plot)"><g class="scatterlayer mlayer"><g class="trace scatter trace7abd907c-64bd-4c43-87d7-f6e85fab0ad2" style="stroke-miterlimit: 2;"><g class="fills"><g><path class="js-fill" d="M559.92,1L0,1L0,1L32.26,1L34.56,18.98L36.87,1L39.17,1L41.48,51.33L43.78,61.67L46.08,42.89L48.39,42.89L163.6,42.89L165.9,1L168.21,125.24L170.51,59.61L200.47,59.61L202.77,154.18L205.08,4.18L207.38,1.58L211.99,1L214.29,1L228.12,1L230.42,114.75L232.73,116.42L235.03,87.24L239.64,87.93L241.94,141.08L244.25,15.13L248.86,15.13L269.59,15.13L271.9,12.35L274.2,1L276.51,31.8L278.81,1L281.11,1L308.77,1L311.07,80.26L313.37,70.72L315.68,13.31L317.98,2.4L320.29,1.92L322.59,42.19L324.89,128.43L327.2,108.72L329.5,103.5L331.81,185.38L334.11,162.6L336.42,176.65L338.72,109.03L341.02,41.65L343.33,58.58L345.63,7.51L347.94,7.51L350.24,7.51L352.55,126.39L357.15,75.88L359.46,101.07L361.76,103.28L364.07,83.67L366.37,81.32L368.67,76.8L370.98,62.93L373.28,165.18L375.59,135.52L377.89,136.55L380.2,153.05L382.5,141.14L384.8,124.85L387.11,135.63L389.41,148.38L391.72,171.47L394.02,163.21L396.33,168.56L398.63,104.21L400.93,107.76L403.24,166.7L405.54,175.8L410.15,216.72L412.46,198.41L414.76,189.59L417.06,189.59L435.5,189.59L437.8,216.93L440.11,216.77L442.41,223.77L444.71,217.19L447.02,223.17L449.32,223.24L451.63,232.4L453.93,243.42L456.24,239.94L458.54,238.55L460.84,233.68L463.15,237.6L465.45,199.31L467.76,171.95L470.06,171.95L486.19,171.95L488.49,138.88L490.8,70.91L493.1,180.93L495.41,150.89L497.71,150.89L559.92,150.89" style="fill: rgb(255, 111, 0); fill-opacity: 0.3; stroke-width: 0;"/></g></g><g class="errorbars"/><g class="lines"><path class="js-line" d="M0,1L32.26,1L34.56,18.98L36.87,1L39.17,1L41.48,51.33L43.78,61.67L46.08,42.89L48.39,42.89L163.6,42.89L165.9,1L168.21,125.24L170.51,59.61L200.47,59.61L202.77,154.18L205.08,4.18L207.38,1.58L211.99,1L214.29,1L228.12,1L230.42,114.75L232.73,116.42L235.03,87.24L239.64,87.93L241.94,141.08L244.25,15.13L248.86,15.13L269.59,15.13L271.9,12.35L274.2,1L276.51,31.8L278.81,1L281.11,1L308.77,1L311.07,80.26L313.37,70.72L315.68,13.31L317.98,2.4L320.29,1.92L322.59,42.19L324.89,128.43L327.2,108.72L329.5,103.5L331.81,185.38L334.11,162.6L336.42,176.65L338.72,109.03L341.02,41.65L343.33,58.58L345.63,7.51L347.94,7.51L350.24,7.51L352.55,126.39L357.15,75.88L359.46,101.07L361.76,103.28L364.07,83.67L366.37,81.32L368.67,76.8L370.98,62.93L373.28,165.18L375.59,135.52L377.89,136.55L380.2,153.05L382.5,141.14L384.8,124.85L387.11,135.63L389.41,148.38L391.72,171.47L394.02,163.21L396.33,168.56L398.63,104.21L400.93,107.76L403.24,166.7L405.54,175.8L410.15,216.72L412.46,198.41L414.76,189.59L417.06,189.59L435.5,189.59L437.8,216.93L440.11,216.77L442.41,223.77L444.71,217.19L447.02,223.17L449.32,223.24L451.63,232.4L453.93,243.42L456.24,239.94L458.54,238.55L460.84,233.68L463.15,237.6L465.45,199.31L467.76,171.95L470.06,171.95L486.19,171.95L488.49,138.88L490.8,70.91L493.1,180.93L495.41,150.89L497.71,150.89L559.92,150.89" style="vector-effect: non-scaling-stroke; fill: none; stroke: rgb(255, 111, 0); stroke-opacity: 1; stroke-width: 2px; opacity: 1;"/></g><g class="points"/><g class="text"/></g></g></g><g class="overplot"/><path class="xlines-above crisp" d="M0,0" style="fill: none;"/><path class="ylines-above crisp" d="M0,0" style="fill: none;"/><g class="overlines-above"/><g class="xaxislayer-above"><g class="x2tick"><text text-anchor="middle" x="0" y="631" transform="translate(126,0)" style="font-family: 'Open Sans', verdana, arial, sans-serif; font-size: 12px; fill: rgb(214, 223, 239); fill-opacity: 1; white-space: pre; opacity: 1;">Jan 2020</text></g><g class="x2tick"><text text-anchor="middle" x="0" y="631" style="font-family: 'Open Sans', verdana, arial, sans-serif; font-size: 12px; fill: rgb(214, 223, 239); fill-opacity: 1; white-space: pre; opacity: 1;" transform="translate(264.25,0)">Mar 2020</text></g><g class="x2tick"><text text-anchor="middle" x="0" y="631" style="font-family: 'Open Sans', verdana, arial, sans-serif; font-size: 12px; fill: rgb(214, 223, 239); fill-opacity: 1; white-space: pre; opacity: 1;" transform="translate(404.81,0)">May 2020</text></g><g class="x2tick"><text text-anchor="middle" x="0" y="631" style="font-family: 'Open Sans', verdana, arial, sans-serif; font-size: 12px; fill: rgb(214, 223, 239); fill-opacity: 1; white-space: pre; opacity: 1;" transform="translate(545.37,0)">Jul 2020</text></g><g class="x2tick"><text text-anchor="middle" x="0" y="631" style="font-family: 'Open Sans', verdana, arial, sans-serif; font-size: 12px; fill: rgb(214, 223, 239); fill-opacity: 1; white-space: pre; opacity: 1;" transform="translate(688.23,0)">Sep 2020</text></g></g><g class="yaxislayer-above"><g class="y2tick"><text text-anchor="end" x="125" y="4.199999999999999" transform="translate(0,591.068656716418)" style="font-family: 'Open Sans', verdana, arial, sans-serif; font-size: 12px; fill: rgb(214, 223, 239); fill-opacity: 1; white-space: pre; opacity: 1;">−12.000000%</text></g><g class="y2tick"><text text-anchor="end" x="125" y="4.199999999999999" style="font-family: 'Open Sans', verdana, arial, sans-serif; font-size: 12px; fill: rgb(214, 223, 239); fill-opacity: 1; white-space: pre; opacity: 1;" transform="translate(0,553.0186567164179)">−10.000000%</text></g><g class="y2tick"><text text-anchor="end" x="125" y="4.199999999999999" style="font-family: 'Open Sans', verdana, arial, sans-serif; font-size: 12px; fill: rgb(214, 223, 239); fill-opacity: 1; white-space: pre; opacity: 1;" transform="translate(0,514.9686567164179)">−8.000000%</text></g><g class="y2tick"><text text-anchor="end" x="125" y="4.199999999999999" style="font-family: 'Open Sans', verdana, arial, sans-serif; font-size: 12px; fill: rgb(214, 223, 239); fill-opacity: 1; white-space: pre; opacity: 1;" transform="translate(0,476.9186567164179)">−6.000000%</text></g><g class="y2tick"><text text-anchor="end" x="125" y="4.199999999999999" style="font-family: 'Open Sans', verdana, arial, sans-serif; font-size: 12px; fill: rgb(214, 223, 239); fill-opacity: 1; white-space: pre; opacity: 1;" transform="translate(0,438.86865671641795)">−4.000000%</text></g><g class="y2tick"><text text-anchor="end" x="125" y="4.199999999999999" style="font-family: 'Open Sans', verdana, arial, sans-serif; font-size: 12px; fill: rgb(214, 223, 239); fill-opacity: 1; white-space: pre; opacity: 1;" transform="translate(0,400.81865671641793)">−2.000000%</text></g><g class="y2tick"><text text-anchor="end" x="125" y="4.199999999999999" style="font-family: 'Open Sans', verdana, arial, sans-serif; font-size: 12px; fill: rgb(214, 223, 239); fill-opacity: 1; white-space: pre; opacity: 1;" transform="translate(0,362.7686567164179)">0.000000%</text></g></g><g class="overaxes-above"/></g></g><g class="polarlayer"/><g class="ternarylayer"/><g class="geolayer"/><g class="funnelarealayer"/><g class="pielayer"/><g class="iciclelayer"/><g class="treemaplayer"/><g class="sunburstlayer"/><g class="glimages"/><defs id="topdefs-6bf290"><g class="clips"/><clipPath id="legend6bf290"><rect width="559" height="29" x="0" y="0"/></clipPath></defs><g class="layer-above"><g class="imagelayer"/><g class="shapelayer"><path data-index="5" fill-rule="evenodd" d="M126,362.7686567164179L720,362.7686567164179" clip-path="url(#clip6bf290y2)" style="opacity: 1; stroke: rgb(128, 128, 128); stroke-opacity: 1; fill: rgb(0, 0, 0); fill-opacity: 0; stroke-dasharray: 9px, 9px; stroke-width: 2px;"/></g></g><g class="infolayer"><g class="legend" pointer-events="all" transform="translate(161,11.462686567164205)"><rect class="bg" shape-rendering="crispEdges" style="stroke: rgb(68, 68, 68); stroke-opacity: 1; fill: rgb(33, 34, 44); fill-opacity: 1; stroke-width: 0px;" width="559" height="29" x="0" y="0"/><g class="scrollbox" transform="" clip-path="url(#legend6bf290)"><g class="groups"><g class="traces" transform="translate(0,14.5)" style="opacity: 1;"><text class="legendtext" text-anchor="start" x="40" y="4.680000000000001" style="font-family: 'Open Sans', verdana, arial, sans-serif; font-size: 12px; fill: rgb(214, 223, 239); fill-opacity: 1; white-space: pre;">Value</text><g class="layers" style="opacity: 1;"><g class="legendfill"/><g class="legendlines"><path class="js-line" d="M5,0h30" style="fill: none; stroke: rgb(148, 103, 189); stroke-opacity: 1; stroke-width: 2px;"/></g><g class="legendsymbols"><g class="legendpoints"/></g></g><rect class="legendtoggle" x="0" y="-9.5" width="75.9375" height="19" style="fill: rgb(0, 0, 0); fill-opacity: 0;"/></g><g class="traces" transform="translate(78.4375,14.5)" style="opacity: 1;"><text class="legendtext" text-anchor="start" x="40" y="4.680000000000001" style="font-family: 'Open Sans', verdana, arial, sans-serif; font-size: 12px; fill: rgb(214, 223, 239); fill-opacity: 1; white-space: pre;">Peak</text><g class="layers" style="opacity: 1;"><g class="legendfill"/><g class="legendlines"/><g class="legendsymbols"><g class="legendpoints"><path class="scatterpts" transform="translate(20,0)" d="M4.55,0L0,4.55L-4.55,0L0,-4.55Z" style="opacity: 1; stroke-width: 1px; fill: rgb(66, 133, 244); fill-opacity: 1; stroke: rgb(11, 84, 205); stroke-opacity: 1;"/></g></g></g><rect class="legendtoggle" x="0" y="-9.5" width="71.1875" height="19" style="fill: rgb(0, 0, 0); fill-opacity: 0;"/></g><g class="traces" transform="translate(152.125,14.5)" style="opacity: 1;"><text class="legendtext" text-anchor="start" x="40" y="4.680000000000001" style="font-family: 'Open Sans', verdana, arial, sans-serif; font-size: 12px; fill: rgb(214, 223, 239); fill-opacity: 1; white-space: pre;">Valley</text><g class="layers" style="opacity: 1;"><g class="legendfill"/><g class="legendlines"/><g class="legendsymbols"><g class="legendpoints"><path class="scatterpts" transform="translate(20,0)" d="M4.55,0L0,4.55L-4.55,0L0,-4.55Z" style="opacity: 1; stroke-width: 1px; fill: rgb(234, 67, 53); fill-opacity: 1; stroke: rgb(181, 31, 18); stroke-opacity: 1;"/></g></g></g><rect class="legendtoggle" x="0" y="-9.5" width="78.734375" height="19" style="fill: rgb(0, 0, 0); fill-opacity: 0;"/></g><g class="traces" transform="translate(233.359375,14.5)" style="opacity: 1;"><text class="legendtext" text-anchor="start" x="40" y="4.680000000000001" style="font-family: 'Open Sans', verdana, arial, sans-serif; font-size: 12px; fill: rgb(214, 223, 239); fill-opacity: 1; white-space: pre;">Recovery/Peak</text><g class="layers" style="opacity: 1;"><g class="legendfill"/><g class="legendlines"/><g class="legendsymbols"><g class="legendpoints"><path class="scatterpts" transform="translate(20,0)" d="M4.55,0L0,4.55L-4.55,0L0,-4.55Z" style="opacity: 1; stroke-width: 1px; fill: rgb(55, 177, 63); fill-opacity: 1; stroke: rgb(38, 123, 44); stroke-opacity: 1;"/></g></g></g><rect class="legendtoggle" x="0" y="-9.5" width="132.140625" height="19" style="fill: rgb(0, 0, 0); fill-opacity: 0;"/></g><g class="traces" transform="translate(368,14.5)" style="opacity: 1;"><text class="legendtext" text-anchor="start" x="40" y="4.680000000000001" style="font-family: 'Open Sans', verdana, arial, sans-serif; font-size: 12px; fill: rgb(214, 223, 239); fill-opacity: 1; white-space: pre;">Active</text><g class="layers" style="opacity: 1;"><g class="legendfill"/><g class="legendlines"/><g class="legendsymbols"><g class="legendpoints"><path class="scatterpts" transform="translate(20,0)" d="M4.55,0L0,4.55L-4.55,0L0,-4.55Z" style="opacity: 1; stroke-width: 1px; fill: rgb(255, 170, 0); fill-opacity: 1; stroke: rgb(178, 118, 0); stroke-opacity: 1;"/></g></g></g><rect class="legendtoggle" x="0" y="-9.5" width="79.21875" height="19" style="fill: rgb(0, 0, 0); fill-opacity: 0;"/></g><g class="traces" transform="translate(449.71875,14.5)" style="opacity: 1;"><text class="legendtext" text-anchor="start" x="40" y="4.680000000000001" style="font-family: 'Open Sans', verdana, arial, sans-serif; font-size: 12px; fill: rgb(214, 223, 239); fill-opacity: 1; white-space: pre;">Drawdown</text><g class="layers"><g class="legendfill"><path class="js-fill" d="M5,-2h30v6h-30z" style="stroke-width: 0; fill: rgb(255, 111, 0); fill-opacity: 0.3;"/></g><g class="legendlines"><path class="js-line" d="M5,-2h30" style="fill: none; stroke: rgb(255, 111, 0); stroke-opacity: 1; stroke-width: 2px;"/></g><g class="legendsymbols"><g class="legendpoints"/></g></g><rect class="legendtoggle" x="0" y="-9.5" width="106.0625" height="19" style="fill: rgb(0, 0, 0); fill-opacity: 0;"/></g></g></g><rect class="scrollbar" rx="20" ry="3" width="0" height="0" style="fill: rgb(128, 139, 164); fill-opacity: 1;" x="0" y="0"/></g><g class="g-gtitle"/><g class="g-xtitle"/><g class="g-x2title"><text class="x2title" x="423" y="658.3" text-anchor="middle" style="font-family: 'Open Sans', verdana, arial, sans-serif; font-size: 14px; fill: rgb(214, 223, 239); opacity: 1; font-weight: normal; white-space: pre;">Index</text></g><g class="g-ytitle"><text class="ytitle" transform="rotate(-90,77.309375,201.11567164179104)" x="77.309375" y="201.11567164179104" text-anchor="middle" style="font-family: 'Open Sans', verdana, arial, sans-serif; font-size: 14px; fill: rgb(214, 223, 239); opacity: 1; font-weight: normal; white-space: pre;">Value</text></g><g class="g-y2title" transform="translate(1.9501953125,0)"><text class="y2title" transform="rotate(-90,12.059375000000003,489.88432835820896)" x="12.059375000000003" y="489.88432835820896" text-anchor="middle" style="font-family: 'Open Sans', verdana, arial, sans-serif; font-size: 14px; fill: rgb(214, 223, 239); opacity: 1; font-weight: normal; white-space: pre;">Drawdown</text></g><g class="annotation" data-index="0" style="opacity: 1;"><g class="annotation-text-g" transform="rotate(0,423,61)"><g class="cursor-pointer" transform="translate(375,49)"><rect class="bg" x="0.5" y="0.5" width="96" height="23" style="stroke-width: 1px; stroke: rgb(0, 0, 0); stroke-opacity: 0; fill: rgb(0, 0, 0); fill-opacity: 0;"/><text class="annotation-text" text-anchor="middle" x="48.546875" y="18" style="font-family: 'Open Sans', verdana, arial, sans-serif; font-size: 16px; fill: rgb(214, 223, 239); fill-opacity: 1; white-space: pre;">Drawdowns</text></g></g></g><g class="annotation" data-index="1" style="opacity: 1;"><g class="annotation-text-g" transform="rotate(0,423,349.7686567164179)"><g class="cursor-pointer" transform="translate(374,338)"><rect class="bg" x="0.5" y="0.5" width="97" height="23" style="stroke-width: 1px; stroke: rgb(0, 0, 0); stroke-opacity: 0; fill: rgb(0, 0, 0); fill-opacity: 0;"/><text class="annotation-text" text-anchor="middle" x="48.765625" y="18" style="font-family: 'Open Sans', verdana, arial, sans-serif; font-size: 16px; fill: rgb(214, 223, 239); fill-opacity: 1; white-space: pre;">Underwater</text></g></g></g></g></svg>