<svg class="main-svg" xmlns="http://www.w3.org/2000/svg" xmlns:xlink="http://www.w3.org/1999/xlink" width="750" height="670" viewBox="0 0 750 670"><rect x="0" y="0" width="750" height="670" style="fill: rgb(33, 34, 44); fill-opacity: 1;"/><defs id="defs-fe663f"><g class="clips"><clipPath id="clipfe663fxyplot" class="plotclip"><rect width="645" height="256.2313432835821"/></clipPath><clipPath id="clipfe663fx2y2plot" class="plotclip"><rect width="645" height="256.2313432835821"/></clipPath><clipPath class="axesclip" id="clipfe663fx"><rect x="75" y="0" width="645" height="670"/></clipPath><clipPath class="axesclip" id="clipfe663fy"><rect x="0" y="73" width="750" height="256.2313432835821"/></clipPath><clipPath class="axesclip" id="clipfe663fxy"><rect x="75" y="73" width="645" height="256.2313432835821"/></clipPath><clipPath class="axesclip" id="clipfe663fy2"><rect x="0" y="361.7686567164179" width="750" height="256.2313432835821"/></clipPath><clipPath class="axesclip" id="clipfe663fxy2"><rect x="75" y="361.7686567164179" width="645" height="256.2313432835821"/></clipPath><clipPath class="axesclip" id="clipfe663fx2"><rect x="75" y="0" width="645" height="670"/></clipPath><clipPath class="axesclip" id="clipfe663fx2y"><rect x="75" y="73" width="645" height="256.2313432835821"/></clipPath><clipPath class="axesclip" id="clipfe663fx2y2"><rect x="75" y="361.7686567164179" width="645" height="256.2313432835821"/></clipPath></g><g class="gradients"/><g class="patterns"/></defs><g class="bglayer"/><g class="layer-below"><g class="imagelayer"/><g class="shapelayer"/></g><g class="cartesianlayer"><g class="subplot xy"><g class="layer-subplot"><g class="shapelayer"/><g class="imagelayer"/></g><g class="gridlayer"><g class="x"><path class="xgrid crisp" transform="translate(157.28,0)" d="M0,73v256.2313432835821" style="stroke: rgb(47, 62, 78); stroke-opacity: 1; stroke-width: 1px;"/><path class="xgrid crisp" transform="translate(234.26,0)" d="M0,73v256.2313432835821" style="stroke: rgb(47, 62, 78); stroke-opacity: 1; stroke-width: 1px;"/><path class="xgrid crisp" transform="translate(316.53999999999996,0)" d="M0,73v256.2313432835821" style="stroke: rgb(47, 62, 78); stroke-opacity: 1; stroke-width: 1px;"/><path class="xgrid crisp" transform="translate(396.17,0)" d="M0,73v256.2313432835821" style="stroke: rgb(47, 62, 78); stroke-opacity: 1; stroke-width: 1px;"/><path class="xgrid crisp" transform="translate(478.46,0)" d="M0,73v256.2313432835821" style="stroke: rgb(47, 62, 78); stroke-opacity: 1; stroke-width: 1px;"/><path class="xgrid crisp" transform="translate(558.0899999999999,0)" d="M0,73v256.2313432835821" style="stroke: rgb(47, 62, 78); stroke-opacity: 1; stroke-width: 1px;"/><path class="xgrid crisp" transform="translate(640.37,0)" d="M0,73v256.2313432835821" style="stroke: rgb(47, 62, 78); stroke-opacity: 1; stroke-width: 1px;"/></g><g class="y"><path class="ygrid crisp" transform="translate(0,266.03999999999996)" d="M75,0h645" style="stroke: rgb(47, 62, 78); stroke-opacity: 1; stroke-width: 1px;"/><path class="ygrid crisp" transform="translate(0,222.96)" d="M75,0h645" style="stroke: rgb(47, 62, 78); stroke-opacity: 1; stroke-width: 1px;"/><path class="ygrid crisp" transform="translate(0,179.89)" d="M75,0h645" style="stroke: rgb(47, 62, 78); stroke-opacity: 1; stroke-width: 1px;"/><path class="ygrid crisp" transform="translate(0,136.81)" d="M75,0h645" style="stroke: rgb(47, 62, 78); stroke-opacity: 1; stroke-width: 1px;"/><path class="ygrid crisp" transform="translate(0,93.74)" d="M75,0h645" style="stroke: rgb(47, 62, 78); stroke-opacity: 1; stroke-width: 1px;"/></g></g><g class="zerolinelayer"><path class="yzl zl crisp" transform="translate(0,309.11)" d="M75,0h645" style="stroke: rgb(47, 62, 78); stroke-opacity: 1; stroke-width: 2px;"/></g><path class="xlines-below"/><path class="ylines-below"/><g class="overlines-below"/><g class="xaxislayer-below"/><g class="yaxislayer-below"/><g class="overaxes-below"/><g class="plot" transform="translate(75,73)" clip-path="url(#clipfe663fxyplot)"><g class="scatterlayer mlayer"><g class="trace scatter tracecaf73090-761b-42e7-b213-ac549c7d2d60" style="stroke-miterlimit: 2; opacity: 1;"><g class="fills"/><g class="errorbars"/><g class="lines"><path class="js-line" d="M0,236.11L37.16,236.11L39.81,240.18L42.47,230.15L45.12,229.47L47.78,241.04L50.43,243.42L53.09,239.1L55.74,239.1L188.46,239.1L191.11,188.08L193.77,219.35L196.42,202.83L230.93,202.83L233.58,226.63L236.23,188.88L238.89,188.22L244.2,161.84L246.85,161.84L262.78,161.84L265.43,192.03L268.09,192.47L270.74,184.73L276.05,184.91L278.7,199.02L281.36,165.59L286.67,165.59L313.21,164.85L315.86,100.93L318.52,110.09L321.17,96.83L323.83,88.87L326.48,88.87L347.72,88.87L350.37,75.25L355.68,12.81L358.33,40.06L360.99,36.78L363.64,17.04L366.3,13.29L368.95,13.13L371.6,26.97L374.26,56.62L376.91,49.85L379.57,48.05L382.22,76.2L384.88,68.37L387.53,73.2L390.19,49.95L392.84,26.79L395.49,32.61L398.15,15.05L400.8,15.05L403.46,15.05L406.11,55.92L411.42,38.55L414.07,47.22L416.73,47.98L419.38,41.23L424.69,38.87L427.35,34.1L430,69.25L432.65,59.06L435.31,59.41L437.96,65.09L440.62,60.99L443.27,55.39L448.58,63.48L451.23,71.42L453.89,68.58L456.54,70.42L459.2,48.29L461.85,49.52L464.51,69.78L467.16,72.91L472.47,86.97L475.12,80.68L477.78,77.65L480.43,77.65L501.67,77.65L504.32,87.04L506.98,86.99L509.63,89.4L512.28,87.14L514.94,89.19L517.59,89.22L520.25,92.36L522.9,96.15L525.56,94.95L528.21,94.48L530.86,92.8L533.52,94.15L536.17,80.99L538.83,71.58L541.48,71.58L560.06,71.58L562.72,60.21L565.37,36.85L568.02,74.67L570.68,64.34L573.33,64.34L645,64.34" style="vector-effect: non-scaling-stroke; fill: none; stroke: rgb(31, 119, 180); stroke-opacity: 1; stroke-width: 2px; opacity: 1;"/></g><g class="points"/><g class="text"/></g></g></g><g class="overplot"/><path class="xlines-above crisp" d="M0,0" style="fill: none;"/><path class="ylines-above crisp" d="M0,0" style="fill: none;"/><g class="overlines-above"/><g class="xaxislayer-above"/><g class="yaxislayer-above"><g class="ytick"><text text-anchor="end" x="74" y="4.199999999999999" transform="translate(0,309.11)" style="font-family: 'Open Sans', verdana, arial, sans-serif; font-size: 12px; fill: rgb(214, 223, 239); fill-opacity: 1; white-space: pre; opacity: 1;">0</text></g><g class="ytick"><text text-anchor="end" x="74" y="4.199999999999999" style="font-family: 'Open Sans', verdana, arial, sans-serif; font-size: 12px; fill: rgb(214, 223, 239); fill-opacity: 1; white-space: pre; opacity: 1;" transform="translate(0,266.03999999999996)">0.1</text></g><g class="ytick"><text text-anchor="end" x="74" y="4.199999999999999" style="font-family: 'Open Sans', verdana, arial, sans-serif; font-size: 12px; fill: rgb(214, 223, 239); fill-opacity: 1; white-space: pre; opacity: 1;" transform="translate(0,222.96)">0.2</text></g><g class="ytick"><text text-anchor="end" x="74" y="4.199999999999999" style="font-family: 'Open Sans', verdana, arial, sans-serif; font-size: 12px; fill: rgb(214, 223, 239); fill-opacity: 1; white-space: pre; opacity: 1;" transform="translate(0,179.89)">0.3</text></g><g class="ytick"><text text-anchor="end" x="74" y="4.199999999999999" style="font-family: 'Open Sans', verdana, arial, sans-serif; font-size: 12px; fill: rgb(214, 223, 239); fill-opacity: 1; white-space: pre; opacity: 1;" transform="translate(0,136.81)">0.4</text></g><g class="ytick"><text text-anchor="end" x="74" y="4.199999999999999" style="font-family: 'Open Sans', verdana, arial, sans-serif; font-size: 12px; fill: rgb(214, 223, 239); fill-opacity: 1; white-space: pre; opacity: 1;" transform="translate(0,93.74)">0.5</text></g></g><g class="overaxes-above"/></g><g class="subplot x2y2"><g class="layer-subplot"><g class="shapelayer"/><g class="imagelayer"/></g><g class="gridlayer"><g class="x2"><path class="x2grid crisp" transform="translate(157.28,0)" d="M0,361.7686567164179v256.2313432835821" style="stroke: rgb(47, 62, 78); stroke-opacity: 1; stroke-width: 1px;"/><path class="x2grid crisp" transform="translate(234.26,0)" d="M0,361.7686567164179v256.2313432835821" style="stroke: rgb(47, 62, 78); stroke-opacity: 1; stroke-width: 1px;"/><path class="x2grid crisp" transform="translate(316.53999999999996,0)" d="M0,361.7686567164179v256.2313432835821" style="stroke: rgb(47, 62, 78); stroke-opacity: 1; stroke-width: 1px;"/><path class="x2grid crisp" transform="translate(396.17,0)" d="M0,361.7686567164179v256.2313432835821" style="stroke: rgb(47, 62, 78); stroke-opacity: 1; stroke-width: 1px;"/><path class="x2grid crisp" transform="translate(478.46,0)" d="M0,361.7686567164179v256.2313432835821" style="stroke: rgb(47, 62, 78); stroke-opacity: 1; stroke-width: 1px;"/><path class="x2grid crisp" transform="translate(558.0899999999999,0)" d="M0,361.7686567164179v256.2313432835821" style="stroke: rgb(47, 62, 78); stroke-opacity: 1; stroke-width: 1px;"/><path class="x2grid crisp" transform="translate(640.37,0)" d="M0,361.7686567164179v256.2313432835821" style="stroke: rgb(47, 62, 78); stroke-opacity: 1; stroke-width: 1px;"/></g><g class="y2"><path class="y2grid crisp" transform="translate(0,612.5286567164179)" d="M75,0h645" style="stroke: rgb(47, 62, 78); stroke-opacity: 1; stroke-width: 1px;"/><path class="y2grid crisp" transform="translate(0,564.9386567164179)" d="M75,0h645" style="stroke: rgb(47, 62, 78); stroke-opacity: 1; stroke-width: 1px;"/><path class="y2grid crisp" transform="translate(0,517.348656716418)" d="M75,0h645" style="stroke: rgb(47, 62, 78); stroke-opacity: 1; stroke-width: 1px;"/><path class="y2grid crisp" transform="translate(0,469.75865671641793)" d="M75,0h645" style="stroke: rgb(47, 62, 78); stroke-opacity: 1; stroke-width: 1px;"/><path class="y2grid crisp" transform="translate(0,422.1686567164179)" d="M75,0h645" style="stroke: rgb(47, 62, 78); stroke-opacity: 1; stroke-width: 1px;"/></g></g><g class="zerolinelayer"><path class="y2zl zl crisp" transform="translate(0,374.5786567164179)" d="M75,0h645" style="stroke: rgb(47, 62, 78); stroke-opacity: 1; stroke-width: 2px;"/></g><path class="xlines-below"/><path class="ylines-below"/><g class="overlines-below"/><g class="xaxislayer-below"/><g class="yaxislayer-below"/><g class="overaxes-below"/><g class="plot" transform="translate(75,361.7686567164179)" clip-path="url(#clipfe663fx2y2plot)"><g class="scatterlayer mlayer"><g class="trace scatter tracea6d97f3c-659a-4e42-b128-11568071bb8f" style="stroke-miterlimit: 2; opacity: 1;"><g class="fills"/><g class="errorbars"/><g class="lines"><path class="js-line" d="M23.89,12.81L37.16,12.81L39.81,35.3L45.12,35.3L47.78,75.76L50.43,88.69L53.09,88.69L71.67,88.69L74.32,26.09L76.98,12.81L79.63,12.81L191.11,12.81L193.77,168.2L217.65,168.2L220.31,12.81L230.93,12.81L233.58,134.85L257.47,134.85L260.12,12.81L262.78,12.81L265.43,155.08L268.09,157.17L270.74,157.17L276.05,157.17L278.7,188.01L291.98,188.01L294.63,83.35L302.59,83.35L305.25,82.47L307.9,12.81L310.56,12.81L315.86,12.81L318.52,51.33L342.41,51.33L345.06,12.81L355.68,12.81L358.33,111.94L371.6,111.94L374.26,172.19L379.57,172.19L382.22,243.42L384.88,242.39L387.53,242.39L395.49,242.39L398.15,195.87L400.8,121.05L403.46,121.05L406.11,162L408.77,162L427.35,162L430,210.68L432.65,145L435.31,145L448.58,145L451.23,153.14L453.89,153.14L456.54,75.18L461.85,75.18L464.51,95.45L467.16,107.49L469.81,132.61L472.47,161.6L475.12,161.6L485.74,161.6L488.4,157.18L491.05,81.34L493.7,69.17L499.01,12.81L501.67,12.81L504.32,50.76L506.98,50.76L509.63,60.25L512.28,60.25L517.59,60.25L520.25,72.24L522.9,87.54L525.56,87.54L528.21,87.54L530.86,50.4L538.83,49.82L541.48,41.48L544.14,41.38L546.79,28.5L549.44,18.4L552.1,18.4L557.41,18.4L560.06,12.81L565.37,12.81L568.02,155.66L591.91,155.66L594.57,12.81L645,12.81" style="vector-effect: non-scaling-stroke; fill: none; stroke: rgb(255, 127, 14); stroke-opacity: 1; stroke-width: 2px; opacity: 1;"/></g><g class="points"/><g class="text"/></g></g></g><g class="overplot"/><path class="xlines-above crisp" d="M0,0" style="fill: none;"/><path class="ylines-above crisp" d="M0,0" style="fill: none;"/><g class="overlines-above"/><g class="xaxislayer-above"><g class="x2tick"><text text-anchor="middle" x="0" y="631" transform="translate(75,0)" style="font-family: 'Open Sans', verdana, arial, sans-serif; font-size: 12px; fill: rgb(214, 223, 239); fill-opacity: 1; white-space: pre; opacity: 1;">Jan 2020</text></g><g class="x2tick"><text text-anchor="middle" x="0" y="631" style="font-family: 'Open Sans', verdana, arial, sans-serif; font-size: 12px; fill: rgb(214, 223, 239); fill-opacity: 1; white-space: pre; opacity: 1;" transform="translate(157.28,0)">Feb 2020</text></g><g class="x2tick"><text text-anchor="middle" x="0" y="631" style="font-family: 'Open Sans', verdana, arial, sans-serif; font-size: 12px; fill: rgb(214, 223, 239); fill-opacity: 1; white-space: pre; opacity: 1;" transform="translate(234.26,0)">Mar 2020</text></g><g class="x2tick"><text text-anchor="middle" x="0" y="631" style="font-family: 'Open Sans', verdana, arial, sans-serif; font-size: 12px; fill: rgb(214, 223, 239); fill-opacity: 1; white-space: pre; opacity: 1;" transform="translate(316.53999999999996,0)">Apr 2020</text></g><g class="x2tick"><text text-anchor="middle" x="0" y="631" style="font-family: 'Open Sans', verdana, arial, sans-serif; font-size: 12px; fill: rgb(214, 223, 239); fill-opacity: 1; white-space: pre; opacity: 1;" transform="translate(396.17,0)">May 2020</text></g><g class="x2tick"><text text-anchor="middle" x="0" y="631" style="font-family: 'Open Sans', verdana, arial, sans-serif; font-size: 12px; fill: rgb(214, 223, 239); fill-opacity: 1; white-space: pre; opacity: 1;" transform="translate(478.46,0)">Jun 2020</text></g><g class="x2tick"><text text-anchor="middle" x="0" y="631" style="font-family: 'Open Sans', verdana, arial, sans-serif; font-size: 12px; fill: rgb(214, 223, 239); fill-opacity: 1; white-space: pre; opacity: 1;" transform="translate(558.0899999999999,0)">Jul 2020</text></g><g class="x2tick"><text text-anchor="middle" x="0" y="631" style="font-family: 'Open Sans', verdana, arial, sans-serif; font-size: 12px; fill: rgb(214, 223, 239); fill-opacity: 1; white-space: pre; opacity: 1;" transform="translate(640.37,0)">Aug 2020</text></g></g><g class="yaxislayer-above"><g class="y2tick"><text text-anchor="end" x="74" y="4.199999999999999" transform="translate(0,612.5286567164179)" style="font-family: 'Open Sans', verdana, arial, sans-serif; font-size: 12px; fill: rgb(214, 223, 239); fill-opacity: 1; white-space: pre; opacity: 1;">−0.1</text></g><g class="y2tick"><text text-anchor="end" x="74" y="4.199999999999999" style="font-family: 'Open Sans', verdana, arial, sans-serif; font-size: 12px; fill: rgb(214, 223, 239); fill-opacity: 1; white-space: pre; opacity: 1;" transform="translate(0,564.9386567164179)">−0.08</text></g><g class="y2tick"><text text-anchor="end" x="74" y="4.199999999999999" style="font-family: 'Open Sans', verdana, arial, sans-serif; font-size: 12px; fill: rgb(214, 223, 239); fill-opacity: 1; white-space: pre; opacity: 1;" transform="translate(0,517.348656716418)">−0.06</text></g><g class="y2tick"><text text-anchor="end" x="74" y="4.199999999999999" style="font-family: 'Open Sans', verdana, arial, sans-serif; font-size: 12px; fill: rgb(214, 223, 239); fill-opacity: 1; white-space: pre; opacity: 1;" transform="translate(0,469.75865671641793)">−0.04</text></g><g class="y2tick"><text text-anchor="end" x="74" y="4.199999999999999" style="font-family: 'Open Sans', verdana, arial, sans-serif; font-size: 12px; fill: rgb(214, 223, 239); fill-opacity: 1; white-space: pre; opacity: 1;" transform="translate(0,422.1686567164179)">−0.02</text></g><g class="y2tick"><text text-anchor="end" x="74" y="4.199999999999999" style="font-family: 'Open Sans', verdana, arial, sans-serif; font-size: 12px; fill: rgb(214, 223, 239); fill-opacity: 1; white-space: pre; opacity: 1;" transform="translate(0,374.5786567164179)">0</text></g></g><g class="overaxes-above"/></g></g><g class="polarlayer"/><g class="ternarylayer"/><g class="geolayer"/><g class="funnelarealayer"/><g class="pielayer"/><g class="iciclelayer"/><g class="treemaplayer"/><g class="sunburstlayer"/><g class="glimages"/><defs id="topdefs-fe663f"><g class="clips"/><clipPath id="legendfe663f"><rect width="340" height="29" x="0" y="0"/></clipPath></defs><g class="layer-above"><g class="imagelayer"/><g class="shapelayer"/></g><g class="infolayer"><g class="legend" pointer-events="all" transform="translate(380,11.462686567164205)"><rect class="bg" shape-rendering="crispEdges" style="stroke: rgb(68, 68, 68); stroke-opacity: 1; fill: rgb(33, 34, 44); fill-opacity: 1; stroke-width: 0px;" width="340" height="29" x="0" y="0"/><g class="scrollbox" transform="" clip-path="url(#legendfe663f)"><g class="groups"><g class="traces" transform="translate(0,14.5)" style="opacity: 1;"><text class="legendtext" text-anchor="start" x="40" y="4.680000000000001" style="font-family: 'Open Sans', verdana, arial, sans-serif; font-size: 12px; fill: rgb(214, 223, 239); fill-opacity: 1; white-space: pre;">cumulative_returns</text><g class="layers" style="opacity: 1;"><g class="legendfill"/><g class="legendlines"><path class="js-line" d="M5,0h30" style="fill: none; stroke: rgb(31, 119, 180); stroke-opacity: 1; stroke-width: 2px;"/></g><g class="legendsymbols"><g class="legendpoints"/></g></g><rect class="legendtoggle" x="0" y="-9.5" width="159.5625" height="19" style="fill: rgb(0, 0, 0); fill-opacity: 0;"/></g><g class="traces" transform="translate(162.0625,14.5)" style="opacity: 1;"><text class="legendtext" text-anchor="start" x="40" y="4.680000000000001" style="font-family: 'Open Sans', verdana, arial, sans-serif; font-size: 12px; fill: rgb(214, 223, 239); fill-opacity: 1; white-space: pre;">rolling_drawdown(10)</text><g class="layers" style="opacity: 1;"><g class="legendfill"/><g class="legendlines"><path class="js-line" d="M5,0h30" style="fill: none; stroke: rgb(255, 127, 14); stroke-opacity: 1; stroke-width: 2px;"/></g><g class="legendsymbols"><g class="legendpoints"/></g></g><rect class="legendtoggle" x="0" y="-9.5" width="175.4375" height="19" style="fill: rgb(0, 0, 0); fill-opacity: 0;"/></g></g></g><rect class="scrollbar" rx="20" ry="3" width="0" height="0" style="fill: rgb(128, 139, 164); fill-opacity: 1;" x="0" y="0"/></g><g class="g-gtitle"/><g class="g-xtitle"/><g class="g-x2title"><text class="x2title" x="397.5" y="658.3" text-anchor="middle" style="font-family: 'Open Sans', verdana, arial, sans-serif; font-size: 14px; fill: rgb(214, 223, 239); opacity: 1; font-weight: normal; white-space: pre;">Index</text></g><g class="g-ytitle"><text class="ytitle" transform="rotate(-90,29.575000000000003,201.11567164179104)" x="29.575000000000003" y="201.11567164179104" text-anchor="middle" style="font-family: 'Open Sans', verdana, arial, sans-serif; font-size: 14px; fill: rgb(214, 223, 239); opacity: 1; font-weight: normal; white-space: pre;">Cumulative returns</text></g><g class="g-y2title" transform="translate(1.8876953125,0)"><text class="y2title" transform="rotate(-90,12.121875000000003,489.88432835820896)" x="12.121875000000003" y="489.88432835820896" text-anchor="middle" style="font-family: 'Open Sans', verdana, arial, sans-serif; font-size: 14px; fill: rgb(214, 223, 239); opacity: 1; font-weight: normal; white-space: pre;">Rolling drawdown</text></g><g class="annotation" data-index="0" style="opacity: 1;"><g class="annotation-text-g" transform="rotate(0,397.5,60.99999999999999)"><g class="cursor-pointer" transform="translate(316,49)"><rect class="bg" x="0.5" y="0.5" width="162" height="23" style="stroke-width: 1px; stroke: rgb(0, 0, 0); stroke-opacity: 0; fill: rgb(0, 0, 0); fill-opacity: 0;"/><text class="annotation-text" text-anchor="middle" x="81.328125" y="18" style="font-family: 'Open Sans', verdana, arial, sans-serif; font-size: 16px; fill: rgb(214, 223, 239); fill-opacity: 1; white-space: pre;">Cumulative Returns</text></g></g></g><g class="annotation" data-index="1" style="opacity: 1;"><g class="annotation-text-g" transform="rotate(0,397.5,349.7686567164179)"><g class="cursor-pointer" transform="translate(324,338)"><rect class="bg" x="0.5" y="0.5" width="147" height="23" style="stroke-width: 1px; stroke: rgb(0, 0, 0); stroke-opacity: 0; fill: rgb(0, 0, 0); fill-opacity: 0;"/><text class="annotation-text" text-anchor="middle" x="74.234375" y="18" style="font-family: 'Open Sans', verdana, arial, sans-serif; font-size: 16px; fill: rgb(214, 223, 239); fill-opacity: 1; white-space: pre;">Rolling Drawdown</text></g></g></g></g></svg>