<svg class="main-svg" xmlns="http://www.w3.org/2000/svg" xmlns:xlink="http://www.w3.org/1999/xlink" width="700" height="350" style="" viewBox="0 0 700 350"><rect x="0" y="0" width="700" height="350" style="fill: rgb(33, 34, 44); fill-opacity: 1;"/><defs id="defs-5fd438"><g class="clips"><clipPath id="clip5fd438xyplot" class="plotclip"><rect width="621" height="290"/></clipPath><clipPath class="axesclip" id="clip5fd438x"><rect x="39" y="0" width="621" height="350"/></clipPath><clipPath class="axesclip" id="clip5fd438y"><rect x="0" y="30" width="700" height="290"/></clipPath><clipPath class="axesclip" id="clip5fd438xy"><rect x="39" y="30" width="621" height="290"/></clipPath></g><g class="gradients"/><g class="patterns"/></defs><g class="bglayer"/><g class="layer-below"><g class="imagelayer"/><g class="shapelayer"/></g><g class="cartesianlayer"><g class="subplot xy"><g class="layer-subplot"><g class="shapelayer"/><g class="imagelayer"/></g><g class="gridlayer"><g class="x"><path class="xgrid crisp" transform="translate(116.34,0)" d="M0,30v290" style="stroke: rgb(47, 62, 78); stroke-opacity: 1; stroke-width: 1px;"/><path class="xgrid crisp" transform="translate(193.65,0)" d="M0,30v290" style="stroke: rgb(47, 62, 78); stroke-opacity: 1; stroke-width: 1px;"/><path class="xgrid crisp" transform="translate(271.8,0)" d="M0,30v290" style="stroke: rgb(47, 62, 78); stroke-opacity: 1; stroke-width: 1px;"/><path class="xgrid crisp" transform="translate(349.96,0)" d="M0,30v290" style="stroke: rgb(47, 62, 78); stroke-opacity: 1; stroke-width: 1px;"/><path class="xgrid crisp" transform="translate(426.42,0)" d="M0,30v290" style="stroke: rgb(47, 62, 78); stroke-opacity: 1; stroke-width: 1px;"/><path class="xgrid crisp" transform="translate(503.72,0)" d="M0,30v290" style="stroke: rgb(47, 62, 78); stroke-opacity: 1; stroke-width: 1px;"/><path class="xgrid crisp" transform="translate(581.88,0)" d="M0,30v290" style="stroke: rgb(47, 62, 78); stroke-opacity: 1; stroke-width: 1px;"/></g><g class="y"><path class="ygrid crisp" transform="translate(0,314.09)" d="M39,0h621" style="stroke: rgb(47, 62, 78); stroke-opacity: 1; stroke-width: 1px;"/><path class="ygrid crisp" transform="translate(0,254.59)" d="M39,0h621" style="stroke: rgb(47, 62, 78); stroke-opacity: 1; stroke-width: 1px;"/><path class="ygrid crisp" transform="translate(0,195.09)" d="M39,0h621" style="stroke: rgb(47, 62, 78); stroke-opacity: 1; stroke-width: 1px;"/><path class="ygrid crisp" transform="translate(0,135.59)" d="M39,0h621" style="stroke: rgb(47, 62, 78); stroke-opacity: 1; stroke-width: 1px;"/><path class="ygrid crisp" transform="translate(0,76.09)" d="M39,0h621" style="stroke: rgb(47, 62, 78); stroke-opacity: 1; stroke-width: 1px;"/></g></g><g class="zerolinelayer"/><path class="xlines-below"/><path class="ylines-below"/><g class="overlines-below"/><g class="xaxislayer-below"/><g class="yaxislayer-below"/><g class="overaxes-below"/><g class="plot" transform="translate(39,30)" clip-path="url(#clip5fd438xyplot)"><g class="scatterlayer mlayer"><g class="trace scatter trace7ef66475-56e8-4d63-b6c5-de838fab0519" style="stroke-miterlimit: 2; opacity: 1;"><g class="fills"/><g class="errorbars"/><g class="lines"><path class="js-line" d="M0,164.93L0.85,168.31L1.7,167.38L3.4,171.31L4.25,169.6L5.1,168.33L5.95,165.7L6.8,166.11L7.65,169.62L8.5,169.27L9.34,164.69L11.04,158.79L11.89,159.82L12.74,158.01L13.59,149.42L14.44,143.91L15.29,144.6L16.14,138.76L16.99,139.24L17.84,133.75L18.69,141.02L19.54,140.87L20.39,137.3L21.24,138.26L22.09,137.09L26.34,153.22L27.18,152.14L28.03,150.14L28.88,151.98L29.73,152.15L30.58,149.31L31.43,150.58L32.28,148.85L33.98,150.47L34.83,152.63L36.53,147.76L37.38,153.14L38.23,157.52L39.08,155.49L40.78,160.41L41.63,158.34L43.33,164.82L44.18,163.5L45.02,166.9L45.87,164.17L47.57,169.02L48.42,163.97L49.27,165.04L50.12,162.27L50.97,163.1L51.82,171.52L52.67,172.87L53.52,176.75L54.37,177.74L55.22,180.85L56.07,179.47L56.92,180.56L59.47,175.9L60.32,177.84L61.17,175.01L62.02,175.98L64.56,167.13L65.41,172.2L67.11,170.68L67.96,166.57L70.51,161.71L71.36,163.61L72.21,167.26L73.06,163.53L74.76,160.06L75.61,158.25L77.31,151.64L78.16,156.43L79.01,157.09L79.85,154.41L80.7,153.41L81.55,153.9L82.4,152.56L83.25,158.06L84.1,160.91L84.95,159.99L85.8,163.02L86.65,160.03L87.5,158.41L88.35,159.9L90.05,171.13L90.9,169.3L91.75,169.43L92.6,172.45L93.45,171.29L94.3,171.52L95.15,170.47L96,173.92L96.85,173.31L97.69,176.61L98.54,179.41L99.39,177.77L100.24,180.1L101.09,175.32L101.94,170.45L102.79,172.61L103.64,167.7L104.49,170.52L105.34,165.87L106.19,165.41L107.89,163.46L108.74,169.4L109.59,172.2L110.44,169.48L111.29,171.29L112.14,168.56L112.99,170.85L113.84,170.89L115.53,171.43L116.38,173.59L117.23,173.98L118.08,181.42L118.93,181.95L119.78,181.35L120.63,179.59L121.48,183.98L122.33,186.99L123.18,186.6L125.73,180.44L126.58,181.64L127.43,181.07L128.28,184.41L129.13,186.42L129.98,184.2L130.83,183.26L131.68,178.71L132.53,174.65L133.37,174.73L134.22,172.01L135.07,173.98L135.92,178.52L136.77,177.52L138.47,183.07L139.32,180.72L140.17,183.14L141.02,179.35L142.72,180.19L143.57,180.47L146.97,163.63L147.82,164.44L149.52,160.13L150.37,157.63L151.21,162.88L152.06,158.41L152.91,159.97L153.76,155.98L154.61,157.29L155.46,155.6L156.31,155.64L157.16,153.98L158.01,154.92L158.86,154.12L160.56,144.82L161.41,142.9L162.26,142.19L163.11,144.52L163.96,144.08L164.81,145.96L165.66,144.2L166.51,147.4L168.21,153L169.05,152.61L169.9,153.64L170.75,153.34L172.45,153.32L173.3,151.99L174.15,152.44L175,151.82L175.85,152.72L176.7,150.82L177.55,147.87L178.4,153.59L179.25,158.59L180.1,156.06L182.65,168.48L183.5,165.37L184.35,168.54L185.2,167.03L186.05,166.17L186.89,168.39L187.74,167.29L188.59,168.79L189.44,168.14L190.29,162.98L191.14,159.26L191.99,159.99L193.69,163.39L194.54,162.66L195.39,161.03L196.24,156.56L197.94,164.84L198.79,160.78L199.64,162.78L200.49,162.41L201.34,169.24L202.19,166.46L203.04,170.32L203.89,169.98L204.73,170.37L205.58,174.84L206.43,173.81L207.28,175.11L208.13,172.39L208.98,173.27L210.68,173.83L211.53,178.86L212.38,178.42L213.23,179.74L214.93,176.5L215.78,177.21L217.48,174.39L218.33,174.8L220.03,173.83L220.88,176.44L221.73,175.77L222.57,170.6L223.42,168.36L224.27,174.89L225.97,172.03L226.82,167.12L227.67,163.5L228.52,165.62L229.37,171.67L230.22,172.22L231.07,170.9L231.92,167.25L232.77,167.02L233.62,168.81L237.02,165.61L237.87,160.71L238.72,161.11L239.56,166.08L240.41,166.84L241.26,169.07L242.11,169.79L242.96,172.89L243.81,172.34L244.66,175.02L246.36,181.43L247.21,179.85L248.06,178.03L248.91,179.94L249.76,175.91L250.61,175.92L251.46,182.37L252.31,180.91L253.16,178.12L254.01,183L254.86,185.97L255.71,185.68L256.56,188.23L257.4,185.85L259.95,188.63L260.8,189.56L262.5,181.87L263.35,181.44L264.2,180.41L265.05,184.9L265.9,184.01L266.75,187.6L268.45,196.64L269.3,195.07L271,191.15L271.85,194.54L272.7,193.2L273.55,193.73L275.24,192.99L276.09,188.59L276.94,189.12L277.79,187.39L278.64,190.2L279.49,187.79L282.04,198.56L282.89,194.33L284.59,197.98L285.44,201.89L286.29,199.22L287.14,201.84L288.84,199.22L289.69,203.21L291.39,207.32L292.24,207.76L293.93,205.07L294.78,207.01L295.63,206.63L296.48,208.62L297.33,207.48L298.18,211.92L299.03,214.69L299.88,213.51L301.58,211.18L302.43,209.48L304.98,217.89L305.83,218.54L306.68,220.77L307.53,219.13L308.38,217.3L309.23,219.05L310.08,219.44L310.92,222.81L311.77,221.73L312.62,224.4L315.17,230.68L316.02,229.22L316.87,233.22L317.72,232.01L318.57,231.32L319.42,233.57L321.97,239.36L322.82,237.05L323.67,237.18L324.52,238.27L325.37,232.24L326.22,234.95L327.07,235.05L327.92,236.42L329.61,233.38L330.46,229.96L332.16,224.93L333.01,224.2L335.56,219.24L336.41,219.07L338.11,223.15L338.96,224.56L339.81,225.06L340.66,229.29L342.36,225.52L343.21,227.36L344.91,232.78L345.76,232.95L346.6,232.99L347.45,235.39L348.3,234.61L349.15,237.77L350,237.62L350.85,240.74L353.4,231.65L354.25,231.93L355.95,235.35L356.8,234.5L359.35,234.38L360.2,234.29L361.9,235.16L362.75,240.07L363.6,241.32L364.44,238.29L365.29,237.42L366.14,235.35L366.99,228.94L367.84,230.45L371.24,243.92L372.09,242.68L373.79,247.93L374.64,247.9L375.49,244.83L376.34,245.13L377.19,244.72L378.04,249.42L379.74,247.39L380.59,246.55L381.44,247.19L382.28,246.62L383.98,241.9L384.83,242.7L385.68,242.65L386.53,244.09L387.38,243.18L388.23,240.59L389.08,240.18L389.93,241.04L391.63,245.49L392.48,244.27L394.18,242.62L395.03,242.86L395.88,242.84L396.73,244.05L397.58,242.06L398.43,244.69L400.12,241.08L400.97,244.3L401.82,248.42L402.67,248.72L403.52,248.04L404.37,245.48L405.22,247.08L406.07,242.5L406.92,246.08L407.77,245.18L409.47,235.81L410.32,239.2L411.17,238.51L412.02,240.11L412.87,240.23L413.72,243.03L414.57,244.24L415.42,247.69L416.27,246.62L417.11,247.96L417.96,249.28L418.81,246.7L421.36,248.93L422.21,247.09L423.91,247.98L424.76,250.54L425.61,253.89L426.46,252.61L427.31,253.22L428.16,250.85L429.01,253.03L429.86,249.61L431.56,245.18L432.41,247.86L433.26,248.85L434.11,247.93L434.95,248.42L435.8,245.59L437.5,251.97L438.35,247.53L439.2,245.98L440.05,248.59L440.9,248.31L441.75,246.67L442.6,244.79L443.45,245.43L446,253.8L446.85,252.94L447.7,250.86L448.55,254.19L449.4,260.41L450.25,258.23L451.1,258.93L451.95,258.55L452.79,258.3L453.64,262.55L454.49,260.5L455.34,260.7L459.59,243.39L460.44,241.98L462.14,244.69L462.99,239.78L463.84,237.94L464.69,238L465.54,237.92L466.39,239.57L469.79,236.11L470.63,238.57L471.48,240.44L472.33,238.92L475.73,253.68L476.58,254.58L477.43,254.77L478.28,256.16L479.13,254.02L479.98,255.28L480.83,256.11L481.68,258.27L482.53,258.55L483.38,254.94L484.23,253.68L485.08,254.73L485.93,252.86L486.78,253.11L487.63,254.42L488.47,252.55L489.32,251.37L490.17,251.6L491.02,253.07L491.87,252.03L493.57,257.2L494.42,255.41L496.12,257.53L496.97,258.04L499.52,255.79L500.37,254.1L501.22,254.97L502.07,253.88L502.92,257.14L503.77,255.08L505.47,256.14L506.31,252.76L508.01,255.84L508.86,254.94L511.41,251.02L512.26,251.24L513.11,252.7L513.96,249.31L515.66,251.55L516.51,252.21L517.36,254.55L518.21,250.04L519.06,248.43L519.91,254.18L520.76,255.44L521.61,255.12L525,262.94L525.85,262.75L527.55,263.1L528.4,260.86L529.25,262.43L530.1,259.88L531.8,262.2L532.65,261.45L534.35,264.63L535.2,261.85L536.05,261.53L536.9,265.49L537.75,264.63L538.6,262.33L539.45,265.03L540.3,263.17L541.15,264.78L541.99,260.46L543.69,265.32L544.54,265.82L545.39,265.6L546.24,269.01L547.09,269.69L547.94,265.33L548.79,266.11L549.64,264.8L550.49,266.48L551.34,266.45L552.19,266.78L553.04,269.2L554.74,264.75L555.59,267.29L556.44,263.82L557.29,265.07L558.14,262.76L558.98,262.91L559.83,260.42L560.68,262.3L561.53,262.19L562.38,262.93L563.23,261.2L564.08,261.8L564.93,262.85L565.78,260.68L566.63,261.33L567.48,265.6L568.33,265.14L569.18,262.16L570.03,262.96L570.88,261.76L571.73,260.68L572.58,260.85L573.43,259.5L574.28,260.38L575.13,261.24L575.98,263.21L576.82,265.5L577.67,263.01L578.52,265.82L579.37,263.99L581.07,265.66L581.92,269.79L582.77,268.99L583.62,270.8L584.47,271.88L585.32,270.09L586.17,271.41L587.02,268.71L590.42,265.2L591.27,265.42L592.12,265.09L592.97,262.73L593.82,264.65L594.66,262.04L595.51,259.97L596.36,260.26L597.21,261.23L598.06,259.38L598.91,256.25L599.76,259.69L600.61,259.09L601.46,257.34L602.31,256.7L603.16,260.87L604.01,262.31L604.86,260.18L606.56,259.72L607.41,260.55L608.26,262.34L609.11,261.01L610.81,266.88L611.66,268.16L613.35,267.87L614.2,269.5L615.9,273.12L616.75,272.31L617.6,275.5L618.45,274.36L619.3,270.12L620.15,270.78L621,269.7" style="vector-effect: non-scaling-stroke; fill: none; stroke: rgb(31, 119, 180); stroke-opacity: 1; stroke-width: 2px; opacity: 1;"/></g><g class="points"/><g class="text"/></g><g class="trace scatter trace974ed59a-e13b-4202-ac3f-9d5e1278856c" style="stroke-miterlimit: 2; opacity: 1;"><g class="fills"/><g class="errorbars"/><g class="lines"><path class="js-line" d="M0,166.36L0.85,166.61L1.7,165.41L3.4,167.2L4.25,167.44L6.8,168.37L7.65,171.36L8.5,177.67L9.34,175.9L10.19,180.09L11.04,179.01L11.89,172.49L12.74,172.92L13.59,174.28L14.44,172.34L15.29,178.97L16.14,176.17L16.99,175.45L17.84,177.21L18.69,179.47L19.54,178.41L20.39,176.19L21.24,178.99L22.94,168.7L23.79,169.65L25.49,177.06L26.34,182.97L28.03,188.86L28.88,186.54L29.73,186.9L30.58,193.34L32.28,189.17L33.13,191.53L34.83,188.06L35.68,192.59L37.38,195.74L38.23,197.7L39.08,192.51L39.93,193.82L40.78,192.54L41.63,196.07L42.48,196.41L43.33,194.4L44.18,194.5L45.02,191.96L47.57,188.15L48.42,189.34L49.27,189.54L50.12,190.7L51.82,183.87L52.67,184.97L53.52,185.68L54.37,185.18L56.07,188.29L56.92,185.45L57.77,187.68L58.62,185.19L59.47,185.23L60.32,188.25L62.02,190.18L62.86,187.33L64.56,181.07L65.41,183.76L67.11,193.89L67.96,191.1L68.81,190.32L69.66,186.25L70.51,190.54L71.36,187.69L72.21,188.03L73.06,189.94L74.76,184.25L75.61,182.49L76.46,184.37L77.31,182.48L79.01,183.45L79.85,181.85L80.7,182.37L81.55,184.69L82.4,188.3L83.25,186.5L84.95,194.02L85.8,192.43L87.5,195.86L88.35,192.99L89.2,191.33L90.05,191.63L90.9,190.82L91.75,192.08L92.6,195.62L93.45,191.88L95.15,188.52L96,188.27L97.69,189.24L98.54,193.42L100.24,198.81L101.09,197.45L101.94,199.36L102.79,195.75L104.49,196.41L105.34,198.46L107.89,205.17L108.74,204.86L109.59,210.16L110.44,203.98L113.84,209.79L114.69,209.15L115.53,208.53L116.38,209.91L117.23,206.73L118.08,207.97L120.63,201.69L121.48,197.08L123.18,194.06L124.03,197.72L124.88,197.14L125.73,200.02L126.58,201.47L127.43,199.67L129.13,202.1L129.98,199.59L130.83,205.24L131.68,203.84L132.53,198.6L133.37,201.31L134.22,206.39L135.07,204.82L135.92,207.26L136.77,203.19L137.62,203.22L138.47,201.43L139.32,202.04L140.17,204.28L141.02,207.82L141.87,207.42L143.57,203.22L144.42,207.46L145.27,205.23L146.12,209.43L147.82,214.92L148.67,215.45L149.52,217.04L150.37,216.47L151.21,214.7L152.06,217.94L152.91,220.42L153.76,217.98L155.46,216.76L156.31,213.47L158.01,208.75L158.86,208.25L162.26,194.73L163.11,198.15L165.66,201.08L166.51,199.29L167.36,198.75L168.21,201.92L169.05,202.76L169.9,200.65L170.75,197.87L171.6,201.13L173.3,205.31L174.15,202.25L177.55,193.07L178.4,196.73L179.25,196.83L180.1,195.48L180.95,198.16L181.8,197.78L182.65,198.41L183.5,197.24L184.35,196.52L185.2,198.67L186.05,199.48L186.89,201.33L189.44,206.56L190.29,201.95L191.14,202.55L191.99,204.08L192.84,200.86L193.69,201.95L195.39,205.59L196.24,211.34L197.09,210L197.94,205.5L198.79,202.7L199.64,203.19L200.49,205.86L201.34,204.33L202.19,205.12L203.04,203.95L203.89,202.4L204.73,196.49L205.58,195.12L206.43,196.88L208.13,195.78L208.98,197.03L209.83,196.88L210.68,198.34L211.53,196.24L212.38,199.85L213.23,204.58L214.08,201.11L214.93,201.13L215.78,202.07L216.63,201L217.48,202.65L218.33,204.93L219.18,204.75L221.73,201.65L222.57,206L223.42,207.63L224.27,207.55L225.97,207.99L226.82,205.99L229.37,214.68L230.22,215.01L231.07,216.05L231.92,213.52L232.77,212.95L233.62,209.21L235.32,211.87L236.17,211.05L237.02,211.94L237.87,215.21L238.72,211.66L239.56,213L241.26,212.6L242.11,217.27L242.96,216.28L243.81,216.71L246.36,211.45L247.21,211.58L248.91,215.64L249.76,215.35L251.46,211.07L252.31,212.05L254.86,216.08L255.71,216.42L256.56,213.06L257.4,218.77L259.1,216.8L259.95,210.68L261.65,214.7L262.5,211.92L263.35,214.16L264.2,214.27L265.9,210.45L266.75,212.12L267.6,215.08L268.45,214.62L269.3,209.47L270.15,211.05L271,212.35L271.85,211.84L273.55,214.51L274.4,214.17L276.09,218.45L276.94,218.19L278.64,222.22L279.49,221.21L280.34,223.02L281.19,221.8L282.04,221.97L282.89,221.33L283.74,219.81L284.59,215.07L285.44,211.55L286.29,214.35L287.99,214.15L288.84,214.24L289.69,214.16L290.54,210.44L292.24,215.17L293.08,214.53L293.93,212.76L294.78,213.41L295.63,215.56L296.48,215.17L298.18,215.96L299.03,214.82L300.73,213.79L301.58,218.76L302.43,218.51L303.28,220.49L304.13,220.18L304.98,222.3L305.83,220.42L306.68,222.01L308.38,219.43L309.23,215.31L310.08,218.17L310.92,214.31L312.62,216.2L313.47,212.63L314.32,212.3L315.17,210.68L316.02,209.82L316.87,207.35L318.57,206.22L319.42,206.99L320.27,205.23L321.12,207.93L322.82,205.01L323.67,203.43L326.22,213.92L327.07,216.78L328.76,214.38L329.61,213.26L331.31,206.26L332.16,208.69L333.01,209.93L333.86,213.55L334.71,216.58L335.56,212.52L337.26,216.76L338.11,213.87L338.96,216.72L339.81,215.39L340.66,215.47L341.51,216.81L342.36,216.78L343.21,219.51L344.91,214.48L345.76,216.27L346.6,218.35L347.45,215.96L348.3,215.14L349.15,211.39L350,211.71L350.85,210.1L351.7,211.22L352.55,214.88L353.4,217.74L354.25,215.72L355.1,218.64L355.95,218.75L357.65,224L358.5,223.85L359.35,220.53L360.2,222.91L361.9,221.8L362.75,220.59L363.6,219.78L364.44,220.25L366.14,225.43L366.99,225.69L367.84,223.03L368.69,225.16L369.54,224.16L370.39,227.61L372.09,226.42L372.94,224.54L373.79,221.58L374.64,223.12L375.49,226.29L376.34,224.81L377.19,224.49L378.04,222.89L378.89,222.59L379.74,227.02L380.59,230.75L381.44,228.75L383.13,224.91L383.98,226.31L384.83,226.18L385.68,222.3L389.08,229.6L389.93,227.26L391.63,221.25L392.48,226.99L393.33,226.73L394.18,230.55L395.03,228.5L395.88,230.31L396.73,230.02L397.58,231.25L398.43,228.44L399.27,228.34L400.97,225.37L401.82,225.93L402.67,224.43L403.52,220.89L405.22,214.1L406.07,213.8L407.77,219.52L408.62,218.72L409.47,220.02L410.32,215.66L411.17,215.04L412.02,212.96L412.87,214.76L413.72,212.91L415.42,200.44L416.27,196.32L417.11,198.26L417.96,195.27L418.81,193.65L419.66,193.91L421.36,196.99L422.21,192.73L423.06,192.61L423.91,193.38L425.61,188.16L426.46,179.23L427.31,178.68L428.16,176.23L429.01,176.43L429.86,175.81L431.56,174.83L432.41,175.29L433.26,180.16L434.11,179.04L434.95,173.75L435.8,173.93L439.2,182.39L440.05,180.41L440.9,180.67L441.75,173.99L442.6,173.39L443.45,174.49L444.3,178.41L445.15,171.41L446,174.53L446.85,174.18L448.55,178.27L449.4,174.48L450.25,178.54L451.1,176.49L451.95,177.2L452.79,176.39L453.64,178.32L454.49,174.25L456.19,173.21L457.04,176.48L457.89,177.04L458.74,174.02L459.59,181.37L460.44,181.56L461.29,188.27L462.14,185.06L464.69,184.33L465.54,184.58L466.39,185.15L467.24,191.27L468.09,195.6L468.94,192.63L470.63,185.31L471.48,182.95L473.18,190.99L474.03,188.09L476.58,181.84L477.43,183.72L479.13,177.16L479.98,179.11L481.68,175.81L482.53,176.27L483.38,175.71L484.23,173.43L485.08,169.98L485.93,175.28L487.63,179.16L488.47,180.02L490.17,189.46L491.02,183.35L491.87,183.7L492.72,182.96L493.57,182.3L494.42,180.04L495.27,180.7L496.12,182.97L496.97,180.59L497.82,181.42L498.67,181.79L499.52,180.1L500.37,179.79L501.22,177.37L502.07,179.8L502.92,184.57L505.47,191.01L506.31,192.29L507.16,191.95L508.01,187.51L508.86,184.83L509.71,185.58L512.26,182.89L513.11,187.29L513.96,187.4L514.81,183.57L515.66,180.97L516.51,182.12L517.36,179.55L518.21,181.61L519.06,181.79L519.91,179.97L521.61,177.15L522.46,178.55L523.31,177.21L524.15,180.55L525,179.38L525.85,180.79L528.4,178.66L529.25,179.74L530.1,177.57L530.95,180.09L531.8,173.21L532.65,175.66L533.5,176.47L534.35,168.37L536.05,170.72L536.9,170.92L539.45,162.12L540.3,155L541.15,150.86L541.99,153.21L542.84,154.04L543.69,150.3L544.54,149.37L545.39,151.71L546.24,147.29L547.09,150.3L548.79,149.22L549.64,149.66L550.49,154.93L551.34,149.89L553.04,154.95L553.89,152.76L556.44,164.52L557.29,161.93L558.14,161.08L558.98,165.36L559.83,165.73L560.68,168.53L562.38,163.25L563.23,165.16L564.08,162.2L564.93,166.16L565.78,167.95L566.63,164.63L567.48,164.14L568.33,165.42L569.18,164.88L570.03,167.69L571.73,165.17L572.58,161.73L573.43,166.27L574.28,160.57L575.98,171.73L576.82,167.56L578.52,164.26L579.37,165.41L580.22,168.7L581.07,164.05L583.62,165.78L584.47,159.18L585.32,155.42L586.17,157.99L587.02,155.25L587.87,155.23L590.42,147.77L591.27,147.7L592.97,144.48L593.82,142.07L594.66,144.01L595.51,143.89L596.36,145.04L597.21,151.67L598.06,150.54L598.91,151.53L600.61,148.45L601.46,149.99L604.01,156.63L604.86,154.76L606.56,156.84L607.41,156.09L608.26,155.49L609.11,159.29L610.81,156.81L611.66,160.28L614.2,150.8L615.05,150L616.75,146.07L617.6,139.85L618.45,138.65L619.3,141.34L620.15,144.84L621,142" style="vector-effect: non-scaling-stroke; fill: none; stroke: rgb(255, 127, 14); stroke-opacity: 1; stroke-width: 2px; opacity: 1;"/></g><g class="points"/><g class="text"/></g><g class="trace scatter tracecda2407e-edb8-486c-a8bb-54d9661590da" style="stroke-miterlimit: 2; opacity: 1;"><g class="fills"/><g class="errorbars"/><g class="lines"><path class="js-line" d="M0,164.84L1.7,173.79L2.55,172.26L3.4,179.86L4.25,177.52L5.95,172.57L6.8,170.2L7.65,172.71L8.5,171.93L10.19,170.05L11.04,175.22L12.74,163.69L13.59,163.03L14.44,163.89L15.29,161.12L18.69,150.19L19.54,158.49L20.39,160.11L21.24,157.45L22.09,160.48L22.94,153.89L24.64,163.05L25.49,163.68L27.18,166.7L28.03,161.89L28.88,158.95L29.73,160.67L30.58,162.39L31.43,159.05L32.28,160.19L33.13,159.72L33.98,158.69L34.83,155.5L35.68,159.32L36.53,153.93L37.38,157.17L38.23,154.2L40.78,149.33L41.63,148.45L42.48,147.98L43.33,142.32L45.02,144.91L45.87,143.79L46.72,144.86L47.57,144.71L48.42,145.59L49.27,148.45L50.12,148.09L50.97,145.21L51.82,145.77L52.67,143.99L53.52,147.32L54.37,146.89L56.07,153.71L56.92,153.89L59.47,145.19L60.32,149.52L61.17,151.63L62.02,150.31L62.86,155.92L63.71,156.1L64.56,156.41L65.41,160.71L66.26,161.89L67.11,157.32L67.96,164.26L68.81,159.5L69.66,160.68L70.51,165.25L71.36,167.82L72.21,166.69L73.91,172.75L74.76,175.96L76.46,175.7L77.31,173.06L78.16,174.16L79.01,172.86L79.85,171.08L80.7,174.51L82.4,177.25L83.25,182.26L84.1,183.01L84.95,185.46L85.8,185.41L86.65,184.59L87.5,184.15L88.35,180.27L89.2,177.65L90.05,182.35L90.9,184.19L91.75,181.61L92.6,183.29L93.45,183.26L94.3,185.48L95.15,181.74L96,176.15L96.85,177.54L97.69,177.48L98.54,180.84L99.39,179.75L100.24,182.79L101.09,180.49L101.94,182.58L102.79,180.53L103.64,180.71L107.04,172.78L107.89,172L108.74,170.79L109.59,165.07L111.29,168.55L112.14,169.38L112.99,171.33L113.84,169.83L115.53,176.33L116.38,175.55L118.08,179.23L118.93,183.91L122.33,180.88L123.18,178.14L124.03,178.46L124.88,179.97L127.43,183.27L128.28,181.92L129.98,185.63L130.83,185.64L131.68,187.35L132.53,185.29L133.37,179.26L134.22,179.47L135.07,183.16L135.92,181.57L136.77,183.69L137.62,180.54L138.47,175.69L139.32,177.85L140.17,181.91L141.02,179.89L143.57,175.9L144.42,171.06L145.27,169.99L146.12,171.19L146.97,170.95L147.82,172.97L149.52,164.84L150.37,161.53L152.06,158.1L152.91,162.23L154.61,162.55L155.46,160.8L156.31,162.83L157.16,159.7L158.01,159.3L158.86,156.62L160.56,157.25L161.41,158.25L163.11,159.74L163.96,161.06L165.66,157.32L166.51,157.6L167.36,158.58L168.21,165.32L169.05,168.93L169.9,168.46L170.75,171.58L171.6,170.42L172.45,169.4L173.3,165.31L174.15,164.79L175,158.88L176.7,153.76L177.55,149.91L178.4,155L179.25,151.94L180.1,156.2L180.95,152.58L182.65,142.98L183.5,145.42L184.35,147.8L185.2,147.92L186.89,150.17L187.74,149.57L189.44,139.95L190.29,140.62L192.84,133.54L193.69,133.87L194.54,133.82L195.39,131.08L197.09,131.82L197.94,133.75L198.79,141.06L199.64,141.42L200.49,141.22L201.34,139.38L203.89,128.99L204.73,123.43L205.58,121.51L206.43,114.76L207.28,119.66L208.13,118.17L208.98,117.39L209.83,121.63L210.68,117.46L211.53,124.72L213.23,127.6L214.08,124.23L214.93,123.01L215.78,126.65L216.63,125.76L217.48,131.17L218.33,129.07L219.18,124.61L221.73,130.6L222.57,128.72L223.42,124.42L224.27,127.93L225.12,128.02L225.97,127.02L227.67,128.7L228.52,126.48L229.37,124.57L230.22,126.11L231.07,125.04L231.92,126.46L236.17,134.08L237.02,130.79L238.72,127.04L239.56,129.97L242.11,124.81L242.96,126.85L244.66,119.81L245.51,114.94L246.36,116.48L247.21,120.85L248.06,115.44L248.91,115.36L249.76,119.83L250.61,120.02L251.46,119.48L252.31,120.67L253.16,117.67L254.01,119.12L254.86,117.89L255.71,112.79L256.56,112.46L257.4,104.74L258.25,104.12L259.1,105.64L260.8,106.82L261.65,100.89L262.5,104.1L263.35,101.53L264.2,97.96L265.05,99.67L266.75,100.54L267.6,98.44L268.45,96.82L269.3,104.71L270.15,101.35L271,103.39L271.85,101.51L272.7,104.12L273.55,102.16L274.4,107.63L275.24,109.82L276.09,107.6L276.94,111.52L277.79,110.57L278.64,110.57L279.49,109.25L283.74,115.38L284.59,115.8L285.44,120.15L286.29,116.41L287.14,115.15L287.99,111.74L289.69,105.94L290.54,108.71L292.24,107.45L293.08,105.79L294.78,112.16L295.63,119.71L298.18,114.24L299.03,108.48L299.88,109.41L300.73,112.17L302.43,106.18L303.28,107.49L304.13,109.33L304.98,107.73L305.83,108.4L306.68,116.31L307.53,113.42L308.38,118.36L310.08,123.45L310.92,120.53L313.47,123.6L314.32,121.44L316.87,108.65L317.72,110.63L318.57,115.81L319.42,109.9L320.27,108.82L321.12,102.39L321.97,108.22L322.82,107.51L323.67,113.17L324.52,105.34L325.37,106.36L326.22,101.92L327.07,106.09L327.92,104.49L329.61,114.64L330.46,109.79L331.31,108.55L332.16,108.68L333.86,106.33L334.71,109.01L335.56,109.15L336.41,101.87L337.26,99.72L338.11,101.7L339.81,100.74L340.66,95.83L341.51,89.62L342.36,89.12L343.21,94.37L344.06,94.45L344.91,87.25L345.76,88.23L346.6,88.78L347.45,87.6L348.3,85.18L349.15,86.45L350,93.41L350.85,91.7L352.55,92.9L353.4,90.21L354.25,89.59L355.1,87.11L355.95,91.3L356.8,83.9L357.65,87.83L358.5,85.2L359.35,83.39L360.2,87.3L361.05,79.41L361.9,79.79L362.75,80.15L363.6,83.14L364.44,88.86L365.29,87.34L366.14,85.73L366.99,82.19L367.84,85.1L368.69,83.35L369.54,74.68L370.39,76.16L371.24,66.71L372.09,67.14L373.79,65.42L374.64,63.15L375.49,63.37L376.34,65.98L377.19,66.01L378.04,70.14L379.74,73.94L380.59,68.72L381.44,63.33L382.28,62.92L383.13,63.22L383.98,60.32L384.83,63.2L385.68,59.17L386.53,57.32L387.38,52L388.23,49.07L389.08,49.62L390.78,57.66L391.63,62.32L393.33,66.59L394.18,66.69L395.03,62.57L395.88,70.97L396.73,66.21L397.58,69.59L398.43,70.06L399.27,69.09L400.97,73.71L401.82,68.79L402.67,68.21L403.52,68.99L404.37,73.83L405.22,69.27L406.07,66.6L406.92,70.14L407.77,74.82L408.62,72.07L409.47,71.5L410.32,68.02L412.02,69.46L412.87,74.64L413.72,80.76L414.57,79.63L416.27,82.9L417.11,79.75L418.81,71.28L419.66,74.09L421.36,86.55L422.21,87.54L424.76,103.34L425.61,98.17L426.46,94.42L427.31,96.01L428.16,100.77L429.01,99.85L429.86,98L430.71,104.36L431.56,104.21L432.41,106.29L433.26,104.88L434.11,99.14L434.95,99.59L435.8,95.02L437.5,102.02L438.35,94.37L440.05,104.62L440.9,99.91L441.75,101.65L442.6,97.37L443.45,95.44L444.3,104.14L445.15,103.69L446,104.12L446.85,110.75L447.7,110.6L448.55,112.05L449.4,111.91L450.25,111.66L451.1,109.34L451.95,116.84L452.79,114.37L453.64,110.59L454.49,111.13L455.34,112.39L456.19,110.87L457.04,113.69L457.89,113.53L458.74,115.58L459.59,114.35L460.44,113.95L461.29,114.96L462.99,117.54L463.84,125.32L464.69,126.34L465.54,125.16L467.24,127.38L468.09,130.04L468.94,132.58L469.79,131.86L470.63,129.78L471.48,134.81L472.33,136.1L473.18,135.76L474.03,136.83L474.88,140.42L475.73,141.03L476.58,144.39L477.43,147.22L478.28,145.97L481.68,156.94L482.53,153.72L483.38,154.65L484.23,149.73L485.93,144.59L486.78,144.12L489.32,135.08L490.17,140.19L491.02,144.22L491.87,144.02L492.72,140.93L493.57,144.29L495.27,149.54L496.12,147.61L497.82,149.17L498.67,147.85L499.52,144.63L500.37,145.72L501.22,144.7L502.07,148.02L503.77,155.29L504.62,155.7L505.47,151.24L506.31,152.05L507.16,151.28L508.01,154.28L509.71,156.23L510.56,154.12L512.26,142.99L513.11,147.34L513.96,153.93L514.81,151.88L515.66,152.32L516.51,149.32L517.36,150.51L518.21,143.82L519.91,139.42L520.76,143.48L521.61,141.83L522.46,143.84L523.31,148.37L524.15,148.47L525.85,150.91L526.7,147.87L529.25,134L530.1,134.2L530.95,128.43L531.8,130.67L533.5,136.75L534.35,131.31L537.75,121.89L538.6,122.05L541.15,113.67L541.99,105.45L542.84,107.23L543.69,106.36L544.54,107.29L545.39,105.92L546.24,105.15L547.09,99.37L549.64,104.53L550.49,109.91L551.34,109.87L552.19,111.94L554.74,117.24L555.59,111.79L556.44,116.85L557.29,114.9L558.14,116.93L558.98,113.08L560.68,101.83L561.53,107.93L562.38,114.76L563.23,114.76L564.08,114.74L564.93,112.06L565.78,111.61L566.63,116.17L567.48,118.18L568.33,122.48L569.18,125.68L570.03,122.46L570.88,118.77L571.73,123.93L572.58,126.19L573.43,121.18L574.28,125.18L575.13,124.92L578.52,137.41L579.37,137.99L580.22,141.71L581.07,141.98L581.92,144L582.77,138.21L583.62,136.93L584.47,138.17L585.32,137.25L586.17,139.31L587.02,141.87L587.87,140.34L589.57,127.29L590.42,132.83L592.12,119.41L592.97,123.96L593.82,120.17L594.66,112.14L595.51,108.96L596.36,113.03L597.21,110.09L598.06,110.9L598.91,110.37L599.76,113.53L601.46,108.37L602.31,106.78L603.16,108.13L604.01,115.35L605.71,123.28L606.56,125.61L609.96,112.25L610.81,116.83L612.5,123.23L613.35,123.18L614.2,117.65L615.05,117.97L615.9,119.52L616.75,125.37L617.6,123.97L618.45,124.64L619.3,121.75L620.15,121.59L621,118.68" style="vector-effect: non-scaling-stroke; fill: none; stroke: rgb(44, 160, 44); stroke-opacity: 1; stroke-width: 2px; opacity: 1;"/></g><g class="points"/><g class="text"/></g><g class="trace scatter trace0f57003b-4e99-4720-902a-6d849278c822" style="stroke-miterlimit: 2; opacity: 1;"><g class="fills"/><g class="errorbars"/><g class="lines"><path class="js-line" d="M0,161.4L0.85,159.85L1.7,155.8L2.55,159.17L3.4,157.98L4.25,157.9L5.1,160.3L6.8,156.02L7.65,158.7L8.5,161.42L9.34,158.7L10.19,157.99L11.04,156.26L11.89,151.2L12.74,151.73L13.59,154.99L14.44,151.34L15.29,149.39L16.14,156.43L17.84,153.26L18.69,148.59L19.54,144.48L20.39,145.07L21.24,149.02L22.09,148.84L22.94,148.24L23.79,151.1L25.49,147.84L26.34,152.98L28.88,148.88L29.73,150.3L30.58,146.79L31.43,148.23L32.28,151.67L33.13,149.13L33.98,150.27L34.83,143.72L35.68,140.92L36.53,144.12L37.38,143.27L38.23,140.99L39.08,141.28L39.93,147.43L40.78,149.86L41.63,149.59L42.48,150.61L43.33,149.81L45.02,151.67L45.87,148.35L46.72,145.76L47.57,146.08L48.42,147.91L49.27,155.5L50.12,148.29L50.97,151.16L52.67,140.95L53.52,142.84L54.37,145.47L55.22,142.54L56.92,147.89L57.77,148.3L58.62,152.54L59.47,152.11L61.17,152.28L62.02,149.24L63.71,148.2L64.56,149.57L66.26,150.25L67.11,153.24L67.96,150.17L68.81,153.71L69.66,154.09L70.51,156.46L72.21,153.55L73.06,151.52L73.91,153.42L74.76,162.35L75.61,162.29L76.46,160.37L79.01,158.88L79.85,155.15L80.7,155.91L81.55,153.7L82.4,154.95L83.25,154.28L84.95,157.24L85.8,155.75L86.65,153.76L87.5,154.8L88.35,154.39L89.2,148.01L90.05,153.42L90.9,151.07L92.6,142.69L93.45,142.86L94.3,137.84L95.15,138.06L96,134.2L96.85,134.55L98.54,131.16L99.39,130.59L100.24,134.53L101.09,132.06L101.94,128.05L102.79,129.98L104.49,137.81L105.34,136.12L106.19,139.87L107.04,139.85L108.74,150.01L109.59,145.84L111.29,140.89L112.14,137.93L112.99,136.18L113.84,139.7L117.23,139.18L118.08,139.67L118.93,139.63L119.78,142.41L121.48,145.44L122.33,142.38L123.18,142.31L124.03,148.34L125.73,140.66L126.58,146.09L127.43,145.35L128.28,147.12L129.98,150.31L130.83,149.95L131.68,147.82L132.53,142L134.22,142.64L135.07,145.28L135.92,140.2L136.77,143.93L137.62,147.48L138.47,145.34L139.32,141.98L140.17,144.74L141.02,145.58L141.87,150.64L143.57,141.4L144.42,140.26L145.27,141.71L146.12,138.98L146.97,139.83L147.82,139.16L148.67,135.81L149.52,136.33L151.21,140.21L152.06,140.6L154.61,145.21L155.46,143.08L156.31,141.46L157.16,144.1L159.71,137.64L160.56,139.99L161.41,139.79L162.26,140.39L163.96,145.84L164.81,143.13L166.51,147.32L167.36,142.62L168.21,142.25L169.05,143.71L169.9,144.53L170.75,151.52L171.6,151.4L172.45,156.94L175,148.96L175.85,150.97L177.55,154.66L178.4,149.09L179.25,154.79L180.1,147.52L180.95,141.03L181.8,143.91L183.5,138.38L184.35,131.18L186.05,136.92L186.89,130.69L187.74,131L188.59,134.48L189.44,137.09L190.29,132.99L191.14,132.46L191.99,135.71L193.69,138.15L194.54,134.72L195.39,137.28L196.24,135.55L197.94,145.93L198.79,142.3L199.64,142.84L200.49,137.28L202.19,141.63L203.04,146.94L203.89,147.74L204.73,144.92L205.58,148.4L206.43,145.36L208.13,135.22L208.98,139.71L210.68,137.2L211.53,139.72L212.38,140.48L213.23,138.94L214.93,144.54L215.78,139.66L216.63,142.44L217.48,138.27L218.33,134.14L219.18,137.69L221.73,144.8L222.57,137.24L223.42,137.48L224.27,139.09L225.12,140.39L225.97,143.62L226.82,146.93L227.67,147.21L228.52,146.31L229.37,142.29L231.07,145.39L231.92,143.55L232.77,141.82L233.62,146.87L234.47,152.4L235.32,151.44L237.02,156.49L237.87,155.31L238.72,154.87L239.56,148.8L240.41,150.43L241.26,148.47L244.66,163.29L245.51,166.81L246.36,163.01L247.21,168.51L248.06,168.22L248.91,170.38L250.61,161.42L251.46,165.87L253.16,166.16L254.01,165.58L254.86,165.58L255.71,167.88L258.25,173.91L259.1,177.34L259.95,176L260.8,166.91L261.65,165.17L262.5,170.67L264.2,175.59L265.05,174.93L266.75,164.08L267.6,164.19L270.15,164.79L271,166.21L271.85,168.51L272.7,165.88L273.55,165.55L274.4,169.37L275.24,172.14L276.09,170.93L276.94,168.32L277.79,168.84L281.19,172.56L282.04,178.44L282.89,184.38L283.74,184.39L285.44,181.14L286.29,182.61L287.14,179.97L287.99,182.6L288.84,183.16L289.69,188.12L290.54,188.97L291.39,188.01L293.93,193.18L294.78,197.99L295.63,205.31L296.48,205.74L297.33,207.01L298.18,205.42L299.03,204.22L299.88,204.5L300.73,207.92L301.58,207.04L303.28,205.09L304.13,208.76L305.83,207.52L306.68,207.97L307.53,204.68L308.38,207L310.08,202.74L310.92,204.5L311.77,203.99L312.62,207.61L313.47,209.25L314.32,207.73L315.17,208.89L316.02,213.04L316.87,218.49L317.72,216.93L318.57,216.79L319.42,212.12L320.27,211.62L321.12,213.56L321.97,212.87L322.82,217.96L324.52,218.1L325.37,216.56L327.07,210.55L327.92,215.28L328.76,213.57L329.61,214.02L331.31,208.53L332.16,211.58L334.71,201.52L335.56,195.57L336.41,192.37L337.26,193.61L338.11,193.98L338.96,195.17L339.81,198.75L340.66,195.16L341.51,196.13L342.36,194.52L343.21,193.52L344.06,191.01L345.76,185.57L346.6,181.81L347.45,181.8L348.3,189.54L349.15,188.31L350,189.75L350.85,189.04L351.7,192.51L352.55,191.93L353.4,194.51L354.25,194.66L355.1,197.55L356.8,197.91L357.65,197.29L358.5,195.53L359.35,196.49L360.2,201.3L361.05,200.33L361.9,200.56L362.75,199.31L364.44,203.59L365.29,201.21L366.99,199.19L367.84,198.34L370.39,200.38L371.24,196.97L372.09,196.64L372.94,199.8L373.79,199.11L374.64,195.7L376.34,194.61L377.19,192.45L378.04,190.61L378.89,192.93L379.74,193.07L380.59,198.31L382.28,199.91L383.13,203.5L384.83,210.09L385.68,209.25L386.53,209.33L387.38,207.27L390.78,212.45L391.63,210.49L392.48,209.14L393.33,209.42L394.18,207.54L395.03,211.18L395.88,211.89L396.73,209.39L397.58,205.94L398.43,208.69L399.27,210.46L400.12,220.2L401.82,215.16L402.67,214.42L403.52,212.31L404.37,206.33L406.07,200.46L406.92,198.44L408.62,203.73L409.47,203.35L410.32,201.59L411.17,202.65L413.72,198.22L414.57,201.09L415.42,201.52L416.27,204.95L417.11,208.62L417.96,207.57L419.66,204.13L420.51,206.61L421.36,206.18L422.21,203.68L423.06,207.23L423.91,207.06L425.61,206.45L426.46,207.59L427.31,206.49L428.16,202.52L429.01,201.88L429.86,206.71L431.56,209.11L432.41,206.58L433.26,205.25L434.11,201.19L434.95,200.47L435.8,202.83L437.5,206.06L438.35,206.3L440.05,205.01L440.9,202.18L441.75,203.26L442.6,203.02L443.45,202.49L444.3,200.37L445.15,199.78L446,201.6L447.7,195.87L448.55,196.8L449.4,195.03L450.25,195.51L452.79,197.99L453.64,201.09L456.19,206.62L457.04,204.35L458.74,207.19L459.59,208.73L460.44,201.12L461.29,200.44L462.14,200.01L462.99,203.53L463.84,200.88L464.69,203.4L465.54,202.9L466.39,200.92L467.24,198.6L468.09,201.42L468.94,198.56L469.79,202.23L470.63,201.49L471.48,199.28L473.18,202.4L474.03,199.26L475.73,189.84L476.58,191.14L477.43,183.19L478.28,183.65L479.13,183.2L479.98,185.07L481.68,181.96L482.53,184.78L483.38,183.84L484.23,189.77L485.08,189.43L485.93,186.26L486.78,185.83L487.63,187.03L489.32,188.7L490.17,192.43L491.02,188.36L491.87,180.13L492.72,180.35L493.57,179.37L494.42,179.86L495.27,178.59L496.97,187.29L497.82,184.36L499.52,179.46L500.37,177.08L501.22,177.08L502.07,180.11L502.92,181.43L503.77,179.02L504.62,182.58L505.47,182.07L506.31,183.94L507.16,179.1L509.71,171.9L510.56,173.07L512.26,174.03L513.11,180.41L513.96,176.72L514.81,178.19L516.51,175.86L517.36,178.84L518.21,179.69L519.06,182.44L519.91,175.77L520.76,180.58L522.46,179.31L523.31,176.42L525,188.97L525.85,187.7L526.7,188.88L527.55,191.59L530.1,188.05L530.95,184.05L531.8,184.79L532.65,186.62L533.5,187.19L534.35,192.07L536.05,184.55L536.9,184.74L537.75,183.26L538.6,185.87L539.45,191.69L540.3,191.64L541.99,196.24L542.84,201.17L544.54,197.42L545.39,198.61L546.24,202.03L547.09,200.76L547.94,202.66L548.79,199.34L549.64,197.55L550.49,197.67L551.34,197.13L552.19,197.54L553.89,200.13L554.74,200.5L555.59,200.82L556.44,199.22L558.14,205.56L558.98,206.29L559.83,202.64L560.68,205.14L562.38,212L563.23,209.86L564.93,211.9L565.78,207.08L567.48,216.04L568.33,219.23L569.18,216.88L570.03,217.04L570.88,216.97L571.73,218.59L573.43,221.99L574.28,220.97L575.98,224.12L576.82,221.4L577.67,221.55L578.52,222.61L579.37,221.07L580.22,223.35L581.07,222.52L581.92,223.49L582.77,223.46L583.62,219.87L585.32,223.74L586.17,222.8L587.02,222.19L587.87,223.94L588.72,223.42L589.57,221.51L590.42,222.03L591.27,220.92L592.12,224.97L592.97,225.18L593.82,226.07L594.66,224.16L596.36,225.7L597.21,219.99L598.06,218.58L598.91,220.62L600.61,217.26L601.46,220.39L602.31,220.62L603.16,219.52L604.01,221.48L604.86,217.63L605.71,216.92L606.56,217.27L607.41,216.08L608.26,207.55L609.11,207.64L609.96,210L610.81,209.66L611.66,211.08L613.35,213.02L614.2,213.46L615.05,213.88L615.9,218.14L616.75,214.45L617.6,214.86L618.45,210.46L619.3,210.66L620.15,213.62L621,211.87" style="vector-effect: non-scaling-stroke; fill: none; stroke: rgb(220, 57, 18); stroke-opacity: 1; stroke-width: 2px; opacity: 1;"/></g><g class="points"/><g class="text"/></g><g class="trace scatter tracec173f625-ce1a-42af-a941-d0325af1607d" style="stroke-miterlimit: 2; opacity: 1;"><g class="fills"/><g class="errorbars"/><g class="lines"><path class="js-line" d="M0,166.21L0.85,167.07L1.7,165.4L2.55,165.03L3.4,162.25L4.25,163.47L5.1,156.6L9.34,145.22L10.19,150.73L13.59,149.87L14.44,151.66L16.14,152.99L16.99,148.57L18.69,152.69L19.54,156.1L22.09,153.14L22.94,154.65L23.79,152.88L24.64,158.34L25.49,154.83L26.34,155.58L27.18,163.05L28.03,162.71L28.88,166.51L29.73,164.09L31.43,168.42L32.28,167.37L33.13,166.01L33.98,169.5L36.53,173.87L37.38,176.52L38.23,176.61L39.08,175.41L39.93,175.19L40.78,170.7L42.48,178.38L43.33,178.14L44.18,180.61L45.02,180.04L45.87,179.43L46.72,180.68L47.57,175.48L48.42,175.55L50.97,180.43L51.82,183.11L52.67,182.74L53.52,186.28L55.22,183.21L56.07,182.14L57.77,175.9L58.62,175.18L60.32,172.83L61.17,172.08L62.86,175.33L63.71,176.31L65.41,172.15L66.26,177.38L67.11,180.14L67.96,180.2L71.36,187.83L72.21,183.36L73.06,180.54L73.91,180.57L74.76,184.12L75.61,183.87L78.16,195.44L79.01,195.43L79.85,196.01L80.7,191.88L81.55,193.07L82.4,200.39L84.1,195.12L84.95,195.21L86.65,186.82L87.5,187.45L90.05,200.23L90.9,199.95L93.45,193.12L94.3,196.74L95.15,197.5L96,195.61L97.69,201.05L98.54,202.85L99.39,200.11L100.24,204.47L101.09,202.37L101.94,205.59L102.79,203.81L103.64,206.52L104.49,200.49L105.34,200.09L107.89,206.72L108.74,204.35L109.59,203.9L110.44,204.58L111.29,204.35L112.14,205.47L112.99,202.73L113.84,205.44L114.69,207.64L115.53,214.12L117.23,207.68L118.08,208.84L119.78,200.53L120.63,201.4L121.48,195.19L122.33,202.43L124.03,194.7L124.88,196.53L125.73,193.51L126.58,195.47L127.43,194.86L128.28,192.98L129.13,191.23L129.98,194.67L130.83,196.73L131.68,196.22L132.53,198.09L133.37,196.87L134.22,190.25L135.07,191.31L135.92,193.88L136.77,191.84L137.62,190.03L138.47,192.3L139.32,193.79L140.17,189.9L141.02,190.11L141.87,186.34L143.57,185.92L144.42,184.05L145.27,178.37L146.12,180.9L146.97,181.65L147.82,176.99L148.67,175.62L149.52,181.86L151.21,179.11L152.06,180.82L154.61,179.33L155.46,179.17L157.16,182.6L158.01,181.76L159.71,178.25L160.56,179.35L161.41,184.87L162.26,181.64L164.81,191.18L165.66,189.18L166.51,191.2L167.36,187.06L168.21,188.23L169.05,185.84L169.9,184.74L170.75,180.5L171.6,178.26L172.45,173.33L173.3,175.37L174.15,174.08L175,171.04L175.85,176.1L177.55,181.8L178.4,179.82L179.25,179.5L180.1,176.1L180.95,181.18L181.8,179.7L182.65,182.13L183.5,179.14L184.35,182.85L185.2,178.29L186.89,173.11L187.74,174.36L188.59,175.79L189.44,171.81L190.29,171.78L191.14,173.95L191.99,173.74L192.84,170.97L193.69,172.42L194.54,168.92L195.39,165.12L196.24,165.19L198.79,172.32L199.64,176.41L200.49,176.35L201.34,177.31L202.19,176.15L203.04,176.29L204.73,177.63L205.58,180.73L207.28,182.43L208.13,187.07L208.98,188.18L209.83,187.12L212.38,179.23L213.23,180.72L215.78,184.05L216.63,182.23L218.33,182.07L219.18,181.36L220.03,179.98L220.88,184.01L222.57,180.31L223.42,182.87L224.27,179.17L225.12,180.64L226.82,176.98L227.67,176.25L228.52,181.08L229.37,175.91L231.07,176.68L231.92,175.23L232.77,173.97L233.62,166.27L234.47,165.74L235.32,162.21L236.17,162.3L237.02,165.76L237.87,166.57L238.72,163.75L239.56,159.9L240.41,160.32L241.26,160L242.11,157.28L242.96,156.3L243.81,153.25L246.36,136.76L247.21,137.28L248.06,135.79L248.91,127.09L249.76,123.41L250.61,127.22L251.46,124.11L252.31,126.24L253.16,126.34L254.01,132.93L254.86,131.79L255.71,132.35L256.56,133.57L257.4,130.97L259.1,123.55L259.95,118.17L261.65,117.06L262.5,118.58L263.35,119.4L264.2,117.33L265.05,115.73L265.9,117.36L267.6,112.33L268.45,115.63L269.3,111.48L270.15,113.17L271,114.88L271.85,112.22L273.55,113.14L274.4,116.51L276.09,111.61L276.94,105.06L278.64,106.83L279.49,109.82L280.34,112.21L281.19,110.13L282.89,102.78L283.74,107.2L285.44,104.93L286.29,105.52L287.14,105.36L287.99,104.11L291.39,113.69L292.24,112.37L293.08,112.58L293.93,114.78L295.63,126.19L296.48,127.08L299.03,121.42L299.88,122.22L301.58,118.8L302.43,121.01L303.28,119.96L304.13,121.07L304.98,126.32L305.83,126.2L306.68,129.26L307.53,125.52L308.38,125.78L309.23,124.35L310.92,114.84L311.77,117.15L313.47,113L314.32,117.71L316.02,112.38L316.87,113.62L317.72,116.41L318.57,115.9L319.42,119.66L320.27,118.35L321.12,119.07L321.97,118.23L323.67,130.46L324.52,129.91L327.07,123.13L327.92,120.94L328.76,122.67L329.61,119.81L331.31,122.67L332.16,127.11L333.01,127.2L333.86,129.11L334.71,127.89L335.56,119.78L337.26,116.22L338.11,115.52L338.96,109.84L339.81,115.56L340.66,112.2L341.51,113.85L342.36,115.64L343.21,112.15L344.06,112.96L344.91,106.63L346.6,114.98L347.45,115.05L348.3,116.98L349.15,116.56L350.85,119.24L351.7,114.14L352.55,114.45L353.4,111.1L354.25,116.7L355.1,115.43L357.65,114.2L358.5,112.54L360.2,120.09L361.05,114.97L361.9,114.41L362.75,115.69L364.44,123.59L365.29,125.15L367.84,119.06L368.69,117.97L369.54,114.57L370.39,119.78L372.94,108.33L373.79,109.3L375.49,104.61L376.34,105.52L377.19,98.64L378.04,99.93L378.89,101.92L379.74,107.09L380.59,105.06L381.44,100.27L382.28,110.29L383.13,109.77L383.98,113.47L384.83,112.22L385.68,115.92L386.53,113.65L387.38,116.75L388.23,110.67L389.93,104.26L390.78,112.93L391.63,102.29L392.48,103.51L393.33,106.98L394.18,105.5L395.03,104.92L395.88,110.25L396.73,112.54L397.58,111.4L398.43,113.2L399.27,117.26L400.12,123.68L400.97,123.4L401.82,124.12L402.67,119.82L403.52,116L404.37,119.94L406.07,111.75L406.92,118.26L407.77,115.01L408.62,116.31L411.17,105.07L412.02,109.99L413.72,106.42L414.57,111.32L415.42,112.17L416.27,116.76L417.11,118.21L417.96,118.05L419.66,125.88L420.51,122.57L421.36,123.33L422.21,127.41L423.06,126.29L423.91,130.69L424.76,132.45L425.61,131.63L426.46,132.13L427.31,126.98L428.16,130.99L429.01,129.23L431.56,118.29L432.41,122.55L433.26,120.92L434.11,122.96L434.95,123.89L435.8,123.52L437.5,109.75L438.35,111.34L439.2,116.93L440.05,112.38L440.9,107.46L441.75,108.45L442.6,103.42L443.45,109.97L445.15,104.99L446,108.82L447.7,111.35L448.55,106.18L449.4,103.86L450.25,107.65L451.1,108.87L451.95,107.78L452.79,100.51L453.64,102.34L454.49,104.15L455.34,104.16L456.19,100.96L457.04,105.95L457.89,101.41L458.74,108.81L460.44,99.61L461.29,101.84L462.14,95.48L462.99,95.29L464.69,102.8L465.54,100.45L466.39,99.94L467.24,101.11L468.94,104.69L469.79,96.46L472.33,107.56L473.18,105.65L474.03,104.08L474.88,96.29L476.58,99.44L477.43,100.7L478.28,104.62L479.13,103.96L480.83,102.55L481.68,99.44L482.53,99.08L483.38,101.15L485.08,105.23L485.93,104.39L487.63,100.45L488.47,101.13L490.17,92.71L491.02,93.27L492.72,99.9L493.57,94.44L495.27,92.23L496.12,86.82L496.97,89.46L497.82,85.68L499.52,84.37L500.37,80.86L503.77,68.76L504.62,68.36L508.01,45.38L508.86,48.85L509.71,46.52L510.56,46.51L511.41,49.13L512.26,40L513.11,45.09L513.96,39.83L514.81,41.24L515.66,44.34L516.51,48.15L517.36,46.58L518.21,52.17L519.06,52.22L520.76,46.85L521.61,48.34L522.46,40.85L523.31,42.93L524.15,40.48L525,40.63L525.85,38.71L526.7,34L527.55,35.45L528.4,26.67L529.25,18.22L530.1,19.26L530.95,19.25L531.8,21.52L532.65,21.04L533.5,24.6L534.35,18.12L535.2,27.05L536.05,37.84L536.9,35.38L537.75,46.06L538.6,42.2L539.45,41.41L540.3,39.23L541.99,47.9L542.84,46.58L543.69,45.22L544.54,49.68L545.39,54.52L546.24,53.25L547.09,56.47L547.94,54.8L548.79,46.81L549.64,49.34L550.49,49.75L551.34,53.37L553.04,50.19L553.89,52.55L554.74,44.7L555.59,46.54L557.29,38.66L558.14,33.24L559.83,23.46L560.68,24.79L562.38,18.07L563.23,19.28L564.93,15.4L565.78,14.5L567.48,18.5L568.33,15.24L569.18,14.56L570.03,16.56L571.73,28.73L572.58,31.98L573.43,25.13L574.28,26.61L575.98,30.45L576.82,31.19L577.67,31.19L578.52,34.56L580.22,42.21L581.07,38.89L581.92,33.38L582.77,33.79L583.62,27.77L584.47,33.61L586.17,41.96L587.02,37.65L587.87,37.92L588.72,40.26L591.27,48.56L592.12,48.08L593.82,45.49L594.66,46.19L597.21,27.75L598.06,35.35L598.91,34.47L599.76,38.3L600.61,43.7L601.46,42.99L602.31,48.02L603.16,46.5L604.86,59.24L605.71,58.14L606.56,58.66L607.41,57.79L608.26,59.11L609.11,54.39L610.81,48.28L611.66,52.68L612.5,54.26L613.35,52.9L614.2,51.5L615.05,55.59L615.9,54.91L616.75,55.29L617.6,55.45L618.45,54.77L619.3,57L620.15,51.12L621,54.95" style="vector-effect: non-scaling-stroke; fill: none; stroke: rgb(148, 103, 189); stroke-opacity: 1; stroke-width: 2px; opacity: 1;"/></g><g class="points"/><g class="text"/></g></g></g><g class="overplot"/><path class="xlines-above crisp" d="M0,0" style="fill: none;"/><path class="ylines-above crisp" d="M0,0" style="fill: none;"/><g class="overlines-above"/><g class="xaxislayer-above"><g class="xtick"><text text-anchor="middle" x="0" y="333" transform="translate(39.04,0)" style="font-family: 'Open Sans', verdana, arial, sans-serif; font-size: 12px; fill: rgb(214, 223, 239); fill-opacity: 1; white-space: pre; opacity: 1;">Jan 2020</text></g><g class="xtick"><text text-anchor="middle" x="0" y="333" style="font-family: 'Open Sans', verdana, arial, sans-serif; font-size: 12px; fill: rgb(214, 223, 239); fill-opacity: 1; white-space: pre; opacity: 1;" transform="translate(116.34,0)">Apr 2020</text></g><g class="xtick"><text text-anchor="middle" x="0" y="333" style="font-family: 'Open Sans', verdana, arial, sans-serif; font-size: 12px; fill: rgb(214, 223, 239); fill-opacity: 1; white-space: pre; opacity: 1;" transform="translate(193.65,0)">Jul 2020</text></g><g class="xtick"><text text-anchor="middle" x="0" y="333" style="font-family: 'Open Sans', verdana, arial, sans-serif; font-size: 12px; fill: rgb(214, 223, 239); fill-opacity: 1; white-space: pre; opacity: 1;" transform="translate(271.8,0)">Oct 2020</text></g><g class="xtick"><text text-anchor="middle" x="0" y="333" style="font-family: 'Open Sans', verdana, arial, sans-serif; font-size: 12px; fill: rgb(214, 223, 239); fill-opacity: 1; white-space: pre; opacity: 1;" transform="translate(349.96,0)">Jan 2021</text></g><g class="xtick"><text text-anchor="middle" x="0" y="333" style="font-family: 'Open Sans', verdana, arial, sans-serif; font-size: 12px; fill: rgb(214, 223, 239); fill-opacity: 1; white-space: pre; opacity: 1;" transform="translate(426.42,0)">Apr 2021</text></g><g class="xtick"><text text-anchor="middle" x="0" y="333" style="font-family: 'Open Sans', verdana, arial, sans-serif; font-size: 12px; fill: rgb(214, 223, 239); fill-opacity: 1; white-space: pre; opacity: 1;" transform="translate(503.72,0)">Jul 2021</text></g><g class="xtick"><text text-anchor="middle" x="0" y="333" style="font-family: 'Open Sans', verdana, arial, sans-serif; font-size: 12px; fill: rgb(214, 223, 239); fill-opacity: 1; white-space: pre; opacity: 1;" transform="translate(581.88,0)">Oct 2021</text></g><g class="xtick"><text text-anchor="middle" x="0" y="333" style="font-family: 'Open Sans', verdana, arial, sans-serif; font-size: 12px; fill: rgb(214, 223, 239); fill-opacity: 1; white-space: pre; opacity: 1;" transform="translate(660.04,0)">Jan 2022</text></g></g><g class="yaxislayer-above"><g class="ytick"><text text-anchor="end" x="38" y="4.199999999999999" transform="translate(0,314.09)" style="font-family: 'Open Sans', verdana, arial, sans-serif; font-size: 12px; fill: rgb(214, 223, 239); fill-opacity: 1; white-space: pre; opacity: 1;">60</text></g><g class="ytick"><text text-anchor="end" x="38" y="4.199999999999999" style="font-family: 'Open Sans', verdana, arial, sans-serif; font-size: 12px; fill: rgb(214, 223, 239); fill-opacity: 1; white-space: pre; opacity: 1;" transform="translate(0,254.59)">80</text></g><g class="ytick"><text text-anchor="end" x="38" y="4.199999999999999" style="font-family: 'Open Sans', verdana, arial, sans-serif; font-size: 12px; fill: rgb(214, 223, 239); fill-opacity: 1; white-space: pre; opacity: 1;" transform="translate(0,195.09)">100</text></g><g class="ytick"><text text-anchor="end" x="38" y="4.199999999999999" style="font-family: 'Open Sans', verdana, arial, sans-serif; font-size: 12px; fill: rgb(214, 223, 239); fill-opacity: 1; white-space: pre; opacity: 1;" transform="translate(0,135.59)">120</text></g><g class="ytick"><text text-anchor="end" x="38" y="4.199999999999999" style="font-family: 'Open Sans', verdana, arial, sans-serif; font-size: 12px; fill: rgb(214, 223, 239); fill-opacity: 1; white-space: pre; opacity: 1;" transform="translate(0,76.09)">140</text></g></g><g class="overaxes-above"/></g></g><g class="polarlayer"/><g class="ternarylayer"/><g class="geolayer"/><g class="funnelarealayer"/><g class="pielayer"/><g class="iciclelayer"/><g class="treemaplayer"/><g class="sunburstlayer"/><g class="glimages"/><defs id="topdefs-5fd438"><g class="clips"/></defs><g class="layer-above"><g class="imagelayer"/><g class="shapelayer"/></g><g class="infolayer"><g class="g-gtitle"/><g class="g-xtitle"/><g class="g-ytitle"/></g></svg>