<svg class="main-svg" xmlns="http://www.w3.org/2000/svg" xmlns:xlink="http://www.w3.org/1999/xlink" width="700" height="350" viewBox="0 0 700 350"><rect x="0" y="0" width="700" height="350" style="fill: rgb(33, 34, 44); fill-opacity: 1;"/><defs id="defs-de7bb5"><g class="clips"><clipPath id="clipde7bb5xyplot" class="plotclip"><rect width="629" height="274"/></clipPath><clipPath class="axesclip" id="clipde7bb5x"><rect x="41" y="0" width="629" height="350"/></clipPath><clipPath class="axesclip" id="clipde7bb5y"><rect x="0" y="46" width="700" height="274"/></clipPath><clipPath class="axesclip" id="clipde7bb5xy"><rect x="41" y="46" width="629" height="274"/></clipPath></g><g class="gradients"/><g class="patterns"/></defs><g class="bglayer"/><g class="layer-below"><g class="imagelayer"/><g class="shapelayer"/></g><g class="cartesianlayer"><g class="subplot xy"><g class="layer-subplot"><g class="shapelayer"><path data-index="0" fill-rule="evenodd" d="M41,232.82H670V133.18H41Z" clip-path="url(#clipde7bb5xy)" style="opacity: 0.2; stroke: rgb(0, 0, 0); stroke-opacity: 0; fill: rgb(128, 0, 128); fill-opacity: 1; stroke-width: 0px;"/></g><g class="imagelayer"/></g><g class="gridlayer"><g class="x"><path class="xgrid crisp" transform="translate(147.55,0)" d="M0,46v274" style="stroke: rgb(47, 62, 78); stroke-opacity: 1; stroke-width: 1px;"/><path class="xgrid crisp" transform="translate(250.67,0)" d="M0,46v274" style="stroke: rgb(47, 62, 78); stroke-opacity: 1; stroke-width: 1px;"/><path class="xgrid crisp" transform="translate(357.22,0)" d="M0,46v274" style="stroke: rgb(47, 62, 78); stroke-opacity: 1; stroke-width: 1px;"/><path class="xgrid crisp" transform="translate(460.33,0)" d="M0,46v274" style="stroke: rgb(47, 62, 78); stroke-opacity: 1; stroke-width: 1px;"/><path class="xgrid crisp" transform="translate(566.89,0)" d="M0,46v274" style="stroke: rgb(47, 62, 78); stroke-opacity: 1; stroke-width: 1px;"/></g><g class="y"><path class="ygrid crisp" transform="translate(0,257.73)" d="M41,0h629" style="stroke: rgb(47, 62, 78); stroke-opacity: 1; stroke-width: 1px;"/><path class="ygrid crisp" transform="translate(0,207.91)" d="M41,0h629" style="stroke: rgb(47, 62, 78); stroke-opacity: 1; stroke-width: 1px;"/><path class="ygrid crisp" transform="translate(0,158.09)" d="M41,0h629" style="stroke: rgb(47, 62, 78); stroke-opacity: 1; stroke-width: 1px;"/><path class="ygrid crisp" transform="translate(0,108.27000000000001)" d="M41,0h629" style="stroke: rgb(47, 62, 78); stroke-opacity: 1; stroke-width: 1px;"/><path class="ygrid crisp" transform="translate(0,58.45)" d="M41,0h629" style="stroke: rgb(47, 62, 78); stroke-opacity: 1; stroke-width: 1px;"/></g></g><g class="zerolinelayer"><path class="yzl zl crisp" transform="translate(0,307.55)" d="M41,0h629" style="stroke: rgb(47, 62, 78); stroke-opacity: 1; stroke-width: 2px;"/></g><path class="xlines-below"/><path class="ylines-below"/><g class="overlines-below"/><g class="xaxislayer-below"/><g class="yaxislayer-below"/><g class="overaxes-below"/><g class="plot" transform="translate(41,46)" clip-path="url(#clipde7bb5xyplot)"><g class="scatterlayer mlayer"><g class="trace scatter tracedef8e777-3ca8-43ca-bd67-de5441ab682f" style="stroke-miterlimit: 2; opacity: 1;"><g class="fills"/><g class="errorbars"/><g class="lines"><path class="js-line" d="M48.12,108.88L51.56,93.83L54.99,95.78L58.43,63.59L61.87,77.11L65.31,75.6L68.74,102.29L72.18,100.39L75.62,112.43L79.05,113.22L82.49,118.15L85.93,113.38L89.37,92.07L92.8,100.96L96.24,102.27L99.68,119.54L103.11,111.47L106.55,101.15L109.99,47.04L116.86,43.38L120.3,39.76L123.74,39.53L127.17,34.78L130.61,24.26L134.05,37.59L137.49,37.31L140.92,67.67L147.8,67.84L151.23,65.58L154.67,77.43L158.11,104.12L161.55,109.65L164.98,100.07L168.42,108.27L171.86,107.38L175.3,123.33L178.73,123.97L182.17,96.7L185.61,121.44L189.04,120.73L192.48,116.65L195.92,118.65L199.36,123.84L202.79,115.59L206.23,122.41L209.67,118.57L213.1,113.03L216.54,93.59L219.98,91.87L223.42,93.37L226.85,104.65L230.29,111.32L233.73,87.13L237.16,39.42L240.6,36.75L244.04,26.41L247.48,49.31L250.91,37.1L254.35,36.53L257.79,35.42L261.22,55.88L264.66,87.09L268.1,91.5L271.54,75.1L274.97,81.45L278.41,83.15L281.85,95.26L285.28,95.1L288.72,96.74L292.16,111.95L295.6,90.99L299.03,105.31L302.47,113.22L305.91,121.5L309.34,122.25L312.78,91.71L316.22,88.53L319.66,110.62L323.09,127.05L326.53,146.43L329.97,131.4L333.4,139.48L336.84,134.75L340.28,140.89L343.72,180.9L347.15,170.72L350.59,170.32L354.03,157.51L357.46,140.85L360.9,132.16L364.34,126.34L367.78,127.16L371.21,90.48L374.65,73.91L378.09,72.25L384.96,60.83L388.4,49.3L391.84,32.91L395.27,33.79L398.71,26.15L402.15,23.57L405.58,85.19L409.02,78.14L412.46,89.37L415.9,112.18L419.33,119.63L422.77,113.29L426.21,103.54L429.64,116.97L433.08,126.73L436.52,130.55L439.96,129.49L443.39,121.96L446.83,127.31L450.27,148.57L453.7,134.34L457.14,146.88L464.02,146.41L467.45,132.04L470.89,155.27L474.33,171.94L477.77,145.23L481.2,143.79L484.64,143.69L488.08,150.03L491.51,169L494.95,180.14L498.39,176.53L501.83,163.94L505.26,175.62L508.7,175.2L512.14,153.9L515.57,174.44L519.01,132.02L522.45,123.09L525.89,148.66L529.32,137.55L532.76,134.66L536.2,120.96L539.63,84.36L543.07,78.28L546.51,65.7L549.95,66.8L553.38,70.06L556.82,75.88L560.26,74.35L563.69,79.34L567.13,100.73L570.57,137.88L577.44,140.83L580.88,153.26L584.32,154.34L587.75,163.26L591.19,159.02L594.63,190.42L598.07,191.58L601.5,178.54L604.94,173.26L608.38,180.64L611.81,168.16L615.25,160.64L618.69,148.12L622.13,167.12L625.56,165.95L629,160.18" style="vector-effect: non-scaling-stroke; fill: none; stroke: rgb(31, 119, 180); stroke-opacity: 1; stroke-width: 2px; opacity: 1;"/></g><g class="points"/><g class="text"/></g></g></g><g class="overplot"/><path class="xlines-above crisp" d="M0,0" style="fill: none;"/><path class="ylines-above crisp" d="M0,0" style="fill: none;"/><g class="overlines-above"/><g class="xaxislayer-above"><g class="xtick"><text text-anchor="middle" x="0" y="333" transform="translate(41,0)" style="font-family: 'Open Sans', verdana, arial, sans-serif; font-size: 12px; fill: rgb(214, 223, 239); fill-opacity: 1; white-space: pre; opacity: 1;">Mar 2019</text></g><g class="xtick"><text text-anchor="middle" x="0" y="333" style="font-family: 'Open Sans', verdana, arial, sans-serif; font-size: 12px; fill: rgb(214, 223, 239); fill-opacity: 1; white-space: pre; opacity: 1;" transform="translate(147.55,0)">Apr 2019</text></g><g class="xtick"><text text-anchor="middle" x="0" y="333" style="font-family: 'Open Sans', verdana, arial, sans-serif; font-size: 12px; fill: rgb(214, 223, 239); fill-opacity: 1; white-space: pre; opacity: 1;" transform="translate(250.67,0)">May 2019</text></g><g class="xtick"><text text-anchor="middle" x="0" y="333" style="font-family: 'Open Sans', verdana, arial, sans-serif; font-size: 12px; fill: rgb(214, 223, 239); fill-opacity: 1; white-space: pre; opacity: 1;" transform="translate(357.22,0)">Jun 2019</text></g><g class="xtick"><text text-anchor="middle" x="0" y="333" style="font-family: 'Open Sans', verdana, arial, sans-serif; font-size: 12px; fill: rgb(214, 223, 239); fill-opacity: 1; white-space: pre; opacity: 1;" transform="translate(460.33,0)">Jul 2019</text></g><g class="xtick"><text text-anchor="middle" x="0" y="333" style="font-family: 'Open Sans', verdana, arial, sans-serif; font-size: 12px; fill: rgb(214, 223, 239); fill-opacity: 1; white-space: pre; opacity: 1;" transform="translate(566.89,0)">Aug 2019</text></g></g><g class="yaxislayer-above"><g class="ytick"><text text-anchor="end" x="40" y="4.199999999999999" transform="translate(0,307.55)" style="font-family: 'Open Sans', verdana, arial, sans-serif; font-size: 12px; fill: rgb(214, 223, 239); fill-opacity: 1; white-space: pre; opacity: 1;">0</text></g><g class="ytick"><text text-anchor="end" x="40" y="4.199999999999999" style="font-family: 'Open Sans', verdana, arial, sans-serif; font-size: 12px; fill: rgb(214, 223, 239); fill-opacity: 1; white-space: pre; opacity: 1;" transform="translate(0,257.73)">20</text></g><g class="ytick"><text text-anchor="end" x="40" y="4.199999999999999" style="font-family: 'Open Sans', verdana, arial, sans-serif; font-size: 12px; fill: rgb(214, 223, 239); fill-opacity: 1; white-space: pre; opacity: 1;" transform="translate(0,207.91)">40</text></g><g class="ytick"><text text-anchor="end" x="40" y="4.199999999999999" style="font-family: 'Open Sans', verdana, arial, sans-serif; font-size: 12px; fill: rgb(214, 223, 239); fill-opacity: 1; white-space: pre; opacity: 1;" transform="translate(0,158.09)">60</text></g><g class="ytick"><text text-anchor="end" x="40" y="4.199999999999999" style="font-family: 'Open Sans', verdana, arial, sans-serif; font-size: 12px; fill: rgb(214, 223, 239); fill-opacity: 1; white-space: pre; opacity: 1;" transform="translate(0,108.27000000000001)">80</text></g><g class="ytick"><text text-anchor="end" x="40" y="4.199999999999999" style="font-family: 'Open Sans', verdana, arial, sans-serif; font-size: 12px; fill: rgb(214, 223, 239); fill-opacity: 1; white-space: pre; opacity: 1;" transform="translate(0,58.45)">100</text></g></g><g class="overaxes-above"/></g></g><g class="polarlayer"/><g class="ternarylayer"/><g class="geolayer"/><g class="funnelarealayer"/><g class="pielayer"/><g class="iciclelayer"/><g class="treemaplayer"/><g class="sunburstlayer"/><g class="glimages"/><defs id="topdefs-de7bb5"><g class="clips"/><clipPath id="legendde7bb5"><rect width="67" height="29" x="0" y="0"/></clipPath></defs><g class="layer-above"><g class="imagelayer"/><g class="shapelayer"/></g><g class="infolayer"><g class="legend" pointer-events="all" transform="translate(603,11.519999999999996)"><rect class="bg" shape-rendering="crispEdges" style="stroke: rgb(68, 68, 68); stroke-opacity: 1; fill: rgb(33, 34, 44); fill-opacity: 1; stroke-width: 0px;" width="67" height="29" x="0" y="0"/><g class="scrollbox" transform="" clip-path="url(#legendde7bb5)"><g class="groups"><g class="traces" transform="translate(0,14.5)" style="opacity: 1;"><text class="legendtext" text-anchor="start" x="40" y="4.680000000000001" style="font-family: 'Open Sans', verdana, arial, sans-serif; font-size: 12px; fill: rgb(214, 223, 239); fill-opacity: 1; white-space: pre;">RSI</text><g class="layers" style="opacity: 1;"><g class="legendfill"/><g class="legendlines"><path class="js-line" d="M5,0h30" style="fill: none; stroke: rgb(31, 119, 180); stroke-opacity: 1; stroke-width: 2px;"/></g><g class="legendsymbols"><g class="legendpoints"/></g></g><rect class="legendtoggle" x="0" y="-9.5" width="64.09375" height="19" style="fill: rgb(0, 0, 0); fill-opacity: 0;"/></g></g></g><rect class="scrollbar" rx="20" ry="3" width="0" height="0" style="fill: rgb(128, 139, 164); fill-opacity: 1;" x="0" y="0"/></g><g class="g-gtitle"/><g class="g-xtitle"/><g class="g-ytitle"/></g></svg>