<svg class="main-svg" xmlns="http://www.w3.org/2000/svg" xmlns:xlink="http://www.w3.org/1999/xlink" width="700" height="350" style="" viewBox="0 0 700 350"><rect x="0" y="0" width="700" height="350" style="fill: rgb(33, 34, 44); fill-opacity: 1;"/><defs id="defs-0c21fc"><g class="clips"><clipPath id="clip0c21fcxyplot" class="plotclip"><rect width="618" height="274"/></clipPath><clipPath class="axesclip" id="clip0c21fcx"><rect x="41" y="0" width="618" height="350"/></clipPath><clipPath class="axesclip" id="clip0c21fcy"><rect x="0" y="46" width="700" height="274"/></clipPath><clipPath class="axesclip" id="clip0c21fcxy"><rect x="41" y="46" width="618" height="274"/></clipPath></g><g class="gradients"/><g class="patterns"/></defs><g class="bglayer"/><g class="layer-below"><g class="imagelayer"/><g class="shapelayer"/></g><g class="cartesianlayer"><g class="subplot xy"><g class="layer-subplot"><g class="shapelayer"><path data-index="0" fill-rule="evenodd" d="M41,232.82H659V133.18H41Z" clip-path="url(#clip0c21fcxy)" style="opacity: 0.2; stroke: rgb(0, 0, 0); stroke-opacity: 0; fill: rgb(123, 104, 238); fill-opacity: 1; stroke-width: 0px;"/></g><g class="imagelayer"/></g><g class="gridlayer"><g class="x"><path class="xgrid crisp" transform="translate(145.12,0)" d="M0,46v274" style="stroke: rgb(47, 62, 78); stroke-opacity: 1; stroke-width: 1px;"/><path class="xgrid crisp" transform="translate(245.88,0)" d="M0,46v274" style="stroke: rgb(47, 62, 78); stroke-opacity: 1; stroke-width: 1px;"/><path class="xgrid crisp" transform="translate(350,0)" d="M0,46v274" style="stroke: rgb(47, 62, 78); stroke-opacity: 1; stroke-width: 1px;"/><path class="xgrid crisp" transform="translate(450.76,0)" d="M0,46v274" style="stroke: rgb(47, 62, 78); stroke-opacity: 1; stroke-width: 1px;"/><path class="xgrid crisp" transform="translate(554.88,0)" d="M0,46v274" style="stroke: rgb(47, 62, 78); stroke-opacity: 1; stroke-width: 1px;"/></g><g class="y"><path class="ygrid crisp" transform="translate(0,257.73)" d="M41,0h618" style="stroke: rgb(47, 62, 78); stroke-opacity: 1; stroke-width: 1px;"/><path class="ygrid crisp" transform="translate(0,207.91)" d="M41,0h618" style="stroke: rgb(47, 62, 78); stroke-opacity: 1; stroke-width: 1px;"/><path class="ygrid crisp" transform="translate(0,158.09)" d="M41,0h618" style="stroke: rgb(47, 62, 78); stroke-opacity: 1; stroke-width: 1px;"/><path class="ygrid crisp" transform="translate(0,108.27000000000001)" d="M41,0h618" style="stroke: rgb(47, 62, 78); stroke-opacity: 1; stroke-width: 1px;"/><path class="ygrid crisp" transform="translate(0,58.45)" d="M41,0h618" style="stroke: rgb(47, 62, 78); stroke-opacity: 1; stroke-width: 1px;"/></g></g><g class="zerolinelayer"><path class="yzl zl crisp" transform="translate(0,307.55)" d="M41,0h618" style="stroke: rgb(47, 62, 78); stroke-opacity: 1; stroke-width: 2px;"/></g><path class="xlines-below"/><path class="ylines-below"/><g class="overlines-below"/><g class="xaxislayer-below"/><g class="yaxislayer-below"/><g class="overaxes-below"/><g class="plot" transform="translate(41,46)" clip-path="url(#clip0c21fcxyplot)"><g class="scatterlayer mlayer"><g class="trace scatter trace14465576-43fe-4269-a454-58beeacb853f" style="stroke-miterlimit: 2; opacity: 1;"><g class="fills"/><g class="errorbars"/><g class="lines"><path class="js-line" d="M47.02,94.78L50.38,74.53L53.74,86.91L57.1,85.3L60.46,77.28L63.82,74.2L67.17,103.15L70.53,105.54L73.89,102.31L77.25,108.89L80.61,133.53L83.97,126.17L87.33,99.69L90.68,106.54L94.04,100.04L97.4,98.23L100.76,98.78L104.12,87.4L107.48,37.93L110.84,35.79L114.2,46.3L117.55,42.84L120.91,42.18L124.27,38.5L127.63,36.41L130.99,53.2L134.35,49.05L137.71,89.93L141.07,88.41L144.42,87.96L147.78,83.42L151.14,98.38L154.5,87.08L157.86,86.07L161.22,83.13L164.58,82.78L167.93,80.49L171.29,84.74L174.65,78.65L178.01,68.32L181.37,86.6L184.73,120.57L188.09,114.78L191.45,116.13L194.8,114.59L198.16,119.67L201.52,109.75L204.88,105.11L208.24,96.58L211.6,79.53L214.96,76.2L218.32,81.62L221.67,89.11L225.03,83.71L228.39,74.94L235.11,58.5L238.47,41.02L241.83,63.77L245.18,49.04L251.9,44.29L255.26,67.32L258.62,98.73L261.98,102.45L265.34,80.96L268.7,91.32L272.05,92.04L275.41,105.41L278.77,100.1L282.13,97.38L285.49,95.65L288.85,81.33L292.21,78.7L295.57,83.43L298.92,86.86L302.28,105.1L305.64,97.9L309,98.46L312.36,93.36L315.72,120.29L319.08,139.97L322.43,135.68L325.79,135.76L329.15,127.22L332.51,131.16L335.87,142.31L339.23,129.64L342.59,132.79L345.95,124.17L349.3,120.91L352.66,105.07L356.02,100.73L359.38,96.17L362.74,87.47L366.1,100.66L369.46,95.23L372.82,88.56L376.17,75.28L379.53,66.17L382.89,63.95L386.25,61.73L389.61,52.43L392.97,42.76L396.33,104.14L399.68,88.74L403.04,99.46L406.4,123.06L409.76,127.37L413.12,123.88L416.48,107.41L419.84,121.73L423.2,126.03L429.91,118.73L433.27,106.77L436.63,102.99L439.99,112.33L443.35,128.47L446.71,121.21L450.07,129.46L453.42,148.63L456.78,137.63L460.14,157.68L463.5,153.92L466.86,138.15L470.22,140.18L473.58,136.36L476.93,139.16L480.29,143.51L483.65,150.82L487.01,152.28L490.37,150.08L493.73,150.86L497.09,158.23L500.45,156.26L503.8,156.94L507.16,154.34L510.52,140.86L513.88,132.78L517.24,129.77L520.6,122.22L523.96,118.62L527.32,101.02L530.67,111.52L534.03,102.53L537.39,102.07L540.75,105.71L544.11,122.51L547.47,118.41L550.83,123.03L554.18,137.88L557.54,158.5L560.9,150.85L564.26,148.99L567.62,152.57L570.98,148.83L574.34,131.69L577.7,136.24L581.05,152.98L584.41,153.15L587.77,144.13L591.13,150.97L594.49,151.57L597.85,143.33L601.21,149.05L604.57,161.22L607.92,167.43L611.28,163.79L614.64,162.4L618,156.77" style="vector-effect: non-scaling-stroke; fill: none; stroke: rgb(108, 166, 205); stroke-opacity: 1; stroke-width: 2px; opacity: 1;"/></g><g class="points"/><g class="text"/></g></g></g><g class="overplot"/><path class="xlines-above crisp" d="M0,0" style="fill: none;"/><path class="ylines-above crisp" d="M0,0" style="fill: none;"/><g class="overlines-above"/><g class="xaxislayer-above"><g class="xtick"><text text-anchor="middle" x="0" y="333" transform="translate(41,0)" style="font-family: 'Open Sans', verdana, arial, sans-serif; font-size: 12px; fill: rgb(214, 223, 239); fill-opacity: 1; white-space: pre; opacity: 1;">Mar 2019</text></g><g class="xtick"><text text-anchor="middle" x="0" y="333" style="font-family: 'Open Sans', verdana, arial, sans-serif; font-size: 12px; fill: rgb(214, 223, 239); fill-opacity: 1; white-space: pre; opacity: 1;" transform="translate(145.12,0)">Apr 2019</text></g><g class="xtick"><text text-anchor="middle" x="0" y="333" style="font-family: 'Open Sans', verdana, arial, sans-serif; font-size: 12px; fill: rgb(214, 223, 239); fill-opacity: 1; white-space: pre; opacity: 1;" transform="translate(245.88,0)">May 2019</text></g><g class="xtick"><text text-anchor="middle" x="0" y="333" style="font-family: 'Open Sans', verdana, arial, sans-serif; font-size: 12px; fill: rgb(214, 223, 239); fill-opacity: 1; white-space: pre; opacity: 1;" transform="translate(350,0)">Jun 2019</text></g><g class="xtick"><text text-anchor="middle" x="0" y="333" style="font-family: 'Open Sans', verdana, arial, sans-serif; font-size: 12px; fill: rgb(214, 223, 239); fill-opacity: 1; white-space: pre; opacity: 1;" transform="translate(450.76,0)">Jul 2019</text></g><g class="xtick"><text text-anchor="middle" x="0" y="333" style="font-family: 'Open Sans', verdana, arial, sans-serif; font-size: 12px; fill: rgb(214, 223, 239); fill-opacity: 1; white-space: pre; opacity: 1;" transform="translate(554.88,0)">Aug 2019</text></g><g class="xtick"><text text-anchor="middle" x="0" y="333" style="font-family: 'Open Sans', verdana, arial, sans-serif; font-size: 12px; fill: rgb(214, 223, 239); fill-opacity: 1; white-space: pre; opacity: 1;" transform="translate(659,0)">Sep 2019</text></g></g><g class="yaxislayer-above"><g class="ytick"><text text-anchor="end" x="40" y="4.199999999999999" transform="translate(0,307.55)" style="font-family: 'Open Sans', verdana, arial, sans-serif; font-size: 12px; fill: rgb(214, 223, 239); fill-opacity: 1; white-space: pre; opacity: 1;">0</text></g><g class="ytick"><text text-anchor="end" x="40" y="4.199999999999999" style="font-family: 'Open Sans', verdana, arial, sans-serif; font-size: 12px; fill: rgb(214, 223, 239); fill-opacity: 1; white-space: pre; opacity: 1;" transform="translate(0,257.73)">20</text></g><g class="ytick"><text text-anchor="end" x="40" y="4.199999999999999" style="font-family: 'Open Sans', verdana, arial, sans-serif; font-size: 12px; fill: rgb(214, 223, 239); fill-opacity: 1; white-space: pre; opacity: 1;" transform="translate(0,207.91)">40</text></g><g class="ytick"><text text-anchor="end" x="40" y="4.199999999999999" style="font-family: 'Open Sans', verdana, arial, sans-serif; font-size: 12px; fill: rgb(214, 223, 239); fill-opacity: 1; white-space: pre; opacity: 1;" transform="translate(0,158.09)">60</text></g><g class="ytick"><text text-anchor="end" x="40" y="4.199999999999999" style="font-family: 'Open Sans', verdana, arial, sans-serif; font-size: 12px; fill: rgb(214, 223, 239); fill-opacity: 1; white-space: pre; opacity: 1;" transform="translate(0,108.27000000000001)">80</text></g><g class="ytick"><text text-anchor="end" x="40" y="4.199999999999999" style="font-family: 'Open Sans', verdana, arial, sans-serif; font-size: 12px; fill: rgb(214, 223, 239); fill-opacity: 1; white-space: pre; opacity: 1;" transform="translate(0,58.45)">100</text></g></g><g class="overaxes-above"/></g></g><g class="polarlayer"/><g class="smithlayer"/><g class="ternarylayer"/><g class="geolayer"/><g class="funnelarealayer"/><g class="pielayer"/><g class="iciclelayer"/><g class="treemaplayer"/><g class="sunburstlayer"/><g class="glimages"/><defs id="topdefs-0c21fc"><g class="clips"/><clipPath id="legend0c21fc"><rect width="67" height="29" x="0" y="0"/></clipPath></defs><g class="layer-above"><g class="imagelayer"/><g class="shapelayer"/></g><g class="infolayer"><g class="legend" pointer-events="all" transform="translate(592,11.519999999999996)"><rect class="bg" shape-rendering="crispEdges" style="stroke: rgb(68, 68, 68); stroke-opacity: 1; fill: rgb(33, 34, 44); fill-opacity: 1; stroke-width: 0px;" width="67" height="29" x="0" y="0"/><g class="scrollbox" transform="" clip-path="url(#legend0c21fc)"><g class="groups"><g class="traces" transform="translate(0,14.5)" style="opacity: 1;"><text class="legendtext" text-anchor="start" x="40" y="4.680000000000001" style="font-family: 'Open Sans', verdana, arial, sans-serif; font-size: 12px; fill: rgb(214, 223, 239); fill-opacity: 1; white-space: pre;">RSI</text><g class="layers" style="opacity: 1;"><g class="legendfill"/><g class="legendlines"><path class="js-line" d="M5,0h30" style="fill: none; stroke: rgb(108, 166, 205); stroke-opacity: 1; stroke-width: 2px;"/></g><g class="legendsymbols"><g class="legendpoints"/></g></g><rect class="legendtoggle" x="0" y="-9.5" width="64.109375" height="19" style="fill: rgb(0, 0, 0); fill-opacity: 0;"/></g></g></g><rect class="scrollbar" rx="20" ry="3" width="0" height="0" style="fill: rgb(128, 139, 164); fill-opacity: 1;" x="0" y="0"/></g><g class="g-gtitle"/><g class="g-xtitle"/><g class="g-ytitle"/></g></svg>