<svg class="main-svg" xmlns="http://www.w3.org/2000/svg" xmlns:xlink="http://www.w3.org/1999/xlink" width="750" height="960" style="" viewBox="0 0 750 960"><rect x="0" y="0" width="750" height="960" style="fill: rgb(33, 34, 44); fill-opacity: 1;"/><defs id="defs-c8b973"><g class="clips"><clipPath id="clipc8b973xyplot" class="plotclip"><rect width="625" height="249.6388888888889"/></clipPath><clipPath id="clipc8b973x2y2plot" class="plotclip"><rect width="625" height="249.63888888888883"/></clipPath><clipPath id="clipc8b973x3y3plot" class="plotclip"><rect width="625" height="249.63888888888886"/></clipPath><clipPath class="axesclip" id="clipc8b973x"><rect x="95" y="0" width="625" height="960"/></clipPath><clipPath class="axesclip" id="clipc8b973y"><rect x="0" y="75" width="750" height="249.6388888888889"/></clipPath><clipPath class="axesclip" id="clipc8b973xy"><rect x="95" y="75" width="625" height="249.6388888888889"/></clipPath><clipPath class="axesclip" id="clipc8b973y2"><rect x="0" y="358.68055555555566" width="750" height="249.63888888888883"/></clipPath><clipPath class="axesclip" id="clipc8b973xy2"><rect x="95" y="358.68055555555566" width="625" height="249.63888888888883"/></clipPath><clipPath class="axesclip" id="clipc8b973y3"><rect x="0" y="642.3611111111111" width="750" height="249.63888888888886"/></clipPath><clipPath class="axesclip" id="clipc8b973xy3"><rect x="95" y="642.3611111111111" width="625" height="249.63888888888886"/></clipPath><clipPath class="axesclip" id="clipc8b973x2"><rect x="95" y="0" width="625" height="960"/></clipPath><clipPath class="axesclip" id="clipc8b973x2y"><rect x="95" y="75" width="625" height="249.6388888888889"/></clipPath><clipPath class="axesclip" id="clipc8b973x2y2"><rect x="95" y="358.68055555555566" width="625" height="249.63888888888883"/></clipPath><clipPath class="axesclip" id="clipc8b973x2y3"><rect x="95" y="642.3611111111111" width="625" height="249.63888888888886"/></clipPath><clipPath class="axesclip" id="clipc8b973x3"><rect x="95" y="0" width="625" height="960"/></clipPath><clipPath class="axesclip" id="clipc8b973x3y"><rect x="95" y="75" width="625" height="249.6388888888889"/></clipPath><clipPath class="axesclip" id="clipc8b973x3y2"><rect x="95" y="358.68055555555566" width="625" height="249.63888888888883"/></clipPath><clipPath class="axesclip" id="clipc8b973x3y3"><rect x="95" y="642.3611111111111" width="625" height="249.63888888888886"/></clipPath></g><g class="gradients"/><g class="patterns"/></defs><g class="bglayer"/><g class="layer-below"><g class="imagelayer"/><g class="shapelayer"/></g><g class="cartesianlayer"><g class="subplot xy"><g class="layer-subplot"><g class="shapelayer"/><g class="imagelayer"/></g><g class="gridlayer"><g class="x"><path class="xgrid crisp" transform="translate(128.54,0)" d="M0,75v249.6388888888889" style="stroke: rgb(47, 62, 78); stroke-opacity: 1; stroke-width: 1px;"/><path class="xgrid crisp" transform="translate(201.70999999999998,0)" d="M0,75v249.6388888888889" style="stroke: rgb(47, 62, 78); stroke-opacity: 1; stroke-width: 1px;"/><path class="xgrid crisp" transform="translate(274.88,0)" d="M0,75v249.6388888888889" style="stroke: rgb(47, 62, 78); stroke-opacity: 1; stroke-width: 1px;"/><path class="xgrid crisp" transform="translate(348.05,0)" d="M0,75v249.6388888888889" style="stroke: rgb(47, 62, 78); stroke-opacity: 1; stroke-width: 1px;"/><path class="xgrid crisp" transform="translate(421.22,0)" d="M0,75v249.6388888888889" style="stroke: rgb(47, 62, 78); stroke-opacity: 1; stroke-width: 1px;"/><path class="xgrid crisp" transform="translate(494.39,0)" d="M0,75v249.6388888888889" style="stroke: rgb(47, 62, 78); stroke-opacity: 1; stroke-width: 1px;"/><path class="xgrid crisp" transform="translate(567.56,0)" d="M0,75v249.6388888888889" style="stroke: rgb(47, 62, 78); stroke-opacity: 1; stroke-width: 1px;"/><path class="xgrid crisp" transform="translate(640.73,0)" d="M0,75v249.6388888888889" style="stroke: rgb(47, 62, 78); stroke-opacity: 1; stroke-width: 1px;"/><path class="xgrid crisp" transform="translate(713.9,0)" d="M0,75v249.6388888888889" style="stroke: rgb(47, 62, 78); stroke-opacity: 1; stroke-width: 1px;"/></g><g class="y"><path class="ygrid crisp" transform="translate(0,312.45)" d="M95,0h625" style="stroke: rgb(47, 62, 78); stroke-opacity: 1; stroke-width: 1px;"/><path class="ygrid crisp" transform="translate(0,258.3)" d="M95,0h625" style="stroke: rgb(47, 62, 78); stroke-opacity: 1; stroke-width: 1px;"/><path class="ygrid crisp" transform="translate(0,204.15)" d="M95,0h625" style="stroke: rgb(47, 62, 78); stroke-opacity: 1; stroke-width: 1px;"/><path class="ygrid crisp" transform="translate(0,150)" d="M95,0h625" style="stroke: rgb(47, 62, 78); stroke-opacity: 1; stroke-width: 1px;"/><path class="ygrid crisp" transform="translate(0,95.85)" d="M95,0h625" style="stroke: rgb(47, 62, 78); stroke-opacity: 1; stroke-width: 1px;"/></g></g><g class="zerolinelayer"/><path class="xlines-below"/><path class="ylines-below"/><g class="overlines-below"/><g class="xaxislayer-below"/><g class="yaxislayer-below"/><g class="overaxes-below"/><g class="plot" transform="translate(95,75)" clip-path="url(#clipc8b973xyplot)"><g class="scatterlayer mlayer"><g class="trace scatter trace35f1315b-d16a-4fc7-b54b-b00afe3ea8c6" style="stroke-miterlimit: 2; opacity: 1;"><g class="fills"/><g class="errorbars"/><g class="lines"><path class="js-line" d="M0,49.58L3.05,50.28L6.1,38.12L9.15,18.82L12.2,16.19L15.24,12.48L18.29,30.03L27.44,61.46L30.49,53.26L33.54,60.38L36.59,50.23L42.68,70.02L45.73,66.85L48.78,96.82L51.83,111.09L54.88,119.27L57.93,119.27L60.98,131.62L64.02,130.13L67.07,131.99L70.12,113.29L76.22,144.5L79.27,164.24L82.32,151.62L85.37,165.81L88.41,178.92L91.46,176.24L94.51,153.98L97.56,153.71L100.61,163.92L103.66,157.07L106.71,134.86L109.76,137.68L112.8,160.29L115.85,158.37L118.9,154.01L121.95,144.07L125,141.5L128.05,116.94L131.1,119.68L134.15,99.48L137.2,108.66L140.24,114.4L143.29,122.08L146.34,114.42L149.39,134.97L152.44,129.23L155.49,135.95L158.54,132.27L161.59,145.21L164.63,149.35L167.68,150.32L170.73,155.2L173.78,154.6L176.83,142.18L179.88,185.79L182.93,181.33L189.02,181.46L192.07,192.4L195.12,204.88L198.17,204.72L201.22,214.12L204.27,210.49L207.32,221.4L210.37,220.05L213.41,212.76L216.46,217.88L219.51,222.56L222.56,207.24L225.61,195.35L228.66,213.28L231.71,206.67L234.76,212.95L237.8,213.57L240.85,195.51L243.9,201.58L246.95,200.63L253.05,216.77L256.1,225.95L259.15,214.14L262.2,217.58L265.24,227.92L268.29,217.45L271.34,218.72L274.39,211.38L280.49,199.9L283.54,197.68L286.59,206.53L289.63,203.29L292.68,208.75L295.73,202.04L298.78,198.44L301.83,198.33L304.88,185.74L307.93,163.56L310.98,184.85L314.02,195.46L317.07,200.25L320.12,198.76L323.17,193.7L326.22,201.66L329.27,205.02L332.32,205.51L338.41,197.3L341.46,199.09L344.51,203.69L347.56,202.69L350.61,195.54L353.66,198.11L359.76,189.61L362.8,196.65L365.85,180.24L368.9,175.53L371.95,182.68L375,182.33L378.05,187.18L381.1,188.75L384.15,179.86L387.2,199.79L390.24,216.04L393.29,206.99L396.34,209.57L399.39,207.24L402.44,220.23L405.49,225.46L408.54,229.82L411.59,226L414.63,221.94L417.68,220.97L420.73,223.05L423.78,218.29L426.83,217.47L429.88,217.5L435.98,211.06L439.02,203.58L442.07,200.28L445.12,204.83L448.17,201.71L451.22,212.71L454.27,207.05L457.32,215.12L460.37,223.59L463.41,236.45L469.51,234.56L472.56,222.45L475.61,226.3L478.66,217.55L484.76,216.96L487.8,210.7L490.85,222.29L493.9,227.55L496.95,221.53L500,222.48L503.05,228.71L506.1,228.74L509.15,232.66L512.2,228.79L515.24,233.15L518.29,223.78L521.34,220.45L524.39,221.53L527.44,214.66L530.49,220.8L533.54,226L536.59,226.79L539.63,237.16L542.68,231.44L545.73,222.32L548.78,228.82L551.83,228.17L554.88,226.3L560.98,202.01L564.02,203.2L567.07,191.78L570.12,196.6L573.17,187.47L576.22,192.16L579.27,196.46L582.32,195.76L585.37,190.67L588.41,202.26L594.51,202.34L597.56,210.84L603.66,205.88L606.71,211.11L609.76,209.32L612.8,210.03L615.85,205.26L618.9,217.45L621.95,211.25L625,211.87" style="vector-effect: non-scaling-stroke; fill: none; stroke: rgb(31, 119, 180); stroke-opacity: 1; stroke-width: 2px; opacity: 1;"/></g><g class="points"/><g class="text"/></g><g class="trace scatter traced7c761d0-c6ab-4c71-98c4-594230bce454" style="stroke-miterlimit: 2; opacity: 1;"><g class="fills"/><g class="errorbars"/><g class="lines"/><g class="points"><path class="point plotly-customdata" transform="translate(70.12,137.22)" d="M-4.62,2H4.62L0,-4Z" style="opacity: 1; stroke-width: 1px; fill: rgb(55, 177, 63); fill-opacity: 1; stroke: rgb(38, 123, 44); stroke-opacity: 1;"/></g><g class="text"/></g><g class="trace scatter trace17295be9-9a1f-428d-ae6d-a4274bfa7b21" style="stroke-miterlimit: 2; opacity: 1;"><g class="fills"/><g class="errorbars"/><g class="lines"/><g class="points"><path class="point plotly-customdata" transform="translate(551.83,229.35)" d="M-4.62,-2H4.62L0,4Z" style="opacity: 1; stroke-width: 1px; fill: rgb(234, 67, 53); fill-opacity: 1; stroke: rgb(181, 31, 18); stroke-opacity: 1;"/></g><g class="text"/></g></g></g><g class="overplot"/><path class="xlines-above crisp" d="M0,0" style="fill: none;"/><path class="ylines-above crisp" d="M0,0" style="fill: none;"/><g class="overlines-above"/><g class="xaxislayer-above"/><g class="yaxislayer-above"><g class="ytick"><text text-anchor="end" x="94" y="4.199999999999999" transform="translate(0,312.45)" style="font-family: 'Open Sans', verdana, arial, sans-serif; font-size: 12px; fill: rgb(214, 223, 239); fill-opacity: 1; white-space: pre; opacity: 1;">0.0024</text></g><g class="ytick"><text text-anchor="end" x="94" y="4.199999999999999" style="font-family: 'Open Sans', verdana, arial, sans-serif; font-size: 12px; fill: rgb(214, 223, 239); fill-opacity: 1; white-space: pre; opacity: 1;" transform="translate(0,258.3)">0.0026</text></g><g class="ytick"><text text-anchor="end" x="94" y="4.199999999999999" style="font-family: 'Open Sans', verdana, arial, sans-serif; font-size: 12px; fill: rgb(214, 223, 239); fill-opacity: 1; white-space: pre; opacity: 1;" transform="translate(0,204.15)">0.0028</text></g><g class="ytick"><text text-anchor="end" x="94" y="4.199999999999999" style="font-family: 'Open Sans', verdana, arial, sans-serif; font-size: 12px; fill: rgb(214, 223, 239); fill-opacity: 1; white-space: pre; opacity: 1;" transform="translate(0,150)">0.003</text></g><g class="ytick"><text text-anchor="end" x="94" y="4.199999999999999" style="font-family: 'Open Sans', verdana, arial, sans-serif; font-size: 12px; fill: rgb(214, 223, 239); fill-opacity: 1; white-space: pre; opacity: 1;" transform="translate(0,95.85)">0.0032</text></g></g><g class="overaxes-above"/></g><g class="subplot x2y2"><g class="layer-subplot"><g class="shapelayer"/><g class="imagelayer"/></g><g class="gridlayer"><g class="x2"><path class="x2grid crisp" transform="translate(128.54,0)" d="M0,358.68055555555566v249.63888888888883" style="stroke: rgb(47, 62, 78); stroke-opacity: 1; stroke-width: 1px;"/><path class="x2grid crisp" transform="translate(201.70999999999998,0)" d="M0,358.68055555555566v249.63888888888883" style="stroke: rgb(47, 62, 78); stroke-opacity: 1; stroke-width: 1px;"/><path class="x2grid crisp" transform="translate(274.88,0)" d="M0,358.68055555555566v249.63888888888883" style="stroke: rgb(47, 62, 78); stroke-opacity: 1; stroke-width: 1px;"/><path class="x2grid crisp" transform="translate(348.05,0)" d="M0,358.68055555555566v249.63888888888883" style="stroke: rgb(47, 62, 78); stroke-opacity: 1; stroke-width: 1px;"/><path class="x2grid crisp" transform="translate(421.22,0)" d="M0,358.68055555555566v249.63888888888883" style="stroke: rgb(47, 62, 78); stroke-opacity: 1; stroke-width: 1px;"/><path class="x2grid crisp" transform="translate(494.39,0)" d="M0,358.68055555555566v249.63888888888883" style="stroke: rgb(47, 62, 78); stroke-opacity: 1; stroke-width: 1px;"/><path class="x2grid crisp" transform="translate(567.56,0)" d="M0,358.68055555555566v249.63888888888883" style="stroke: rgb(47, 62, 78); stroke-opacity: 1; stroke-width: 1px;"/><path class="x2grid crisp" transform="translate(640.73,0)" d="M0,358.68055555555566v249.63888888888883" style="stroke: rgb(47, 62, 78); stroke-opacity: 1; stroke-width: 1px;"/><path class="x2grid crisp" transform="translate(713.9,0)" d="M0,358.68055555555566v249.63888888888883" style="stroke: rgb(47, 62, 78); stroke-opacity: 1; stroke-width: 1px;"/></g><g class="y2"><path class="y2grid crisp" transform="translate(0,583.6205555555557)" d="M95,0h625" style="stroke: rgb(47, 62, 78); stroke-opacity: 1; stroke-width: 1px;"/><path class="y2grid crisp" transform="translate(0,546.3005555555557)" d="M95,0h625" style="stroke: rgb(47, 62, 78); stroke-opacity: 1; stroke-width: 1px;"/><path class="y2grid crisp" transform="translate(0,508.9705555555556)" d="M95,0h625" style="stroke: rgb(47, 62, 78); stroke-opacity: 1; stroke-width: 1px;"/><path class="y2grid crisp" transform="translate(0,471.6505555555557)" d="M95,0h625" style="stroke: rgb(47, 62, 78); stroke-opacity: 1; stroke-width: 1px;"/><path class="y2grid crisp" transform="translate(0,434.33055555555563)" d="M95,0h625" style="stroke: rgb(47, 62, 78); stroke-opacity: 1; stroke-width: 1px;"/><path class="y2grid crisp" transform="translate(0,397.00055555555565)" d="M95,0h625" style="stroke: rgb(47, 62, 78); stroke-opacity: 1; stroke-width: 1px;"/></g></g><g class="zerolinelayer"><path class="y2zl zl crisp" transform="translate(0,359.68055555555566)" d="M95,0h625" style="stroke: rgb(47, 62, 78); stroke-opacity: 1; stroke-width: 2px;"/></g><path class="xlines-below"/><path class="ylines-below"/><g class="overlines-below"/><g class="xaxislayer-below"/><g class="yaxislayer-below"/><g class="overaxes-below"/><g class="plot" transform="translate(95,358.68055555555566)" clip-path="url(#clipc8b973x2y2plot)"><g class="scatterlayer mlayer"><g class="trace scatter trace5c86baaf-15f0-4693-a1b6-28fea6f560a9" style="stroke-miterlimit: 2; opacity: 1;"><g class="fills"/><g class="errorbars"/><g class="lines"/><g class="points"><path class="point plotly-customdata" transform="translate(551.83,232.78)" d="M3.5,0A3.5,3.5 0 1,1 0,-3.5A3.5,3.5 0 0,1 3.5,0Z" style="opacity: 0.9; stroke-width: 1px; fill: rgb(234, 67, 53); fill-opacity: 1; stroke: rgb(181, 31, 18); stroke-opacity: 1;"/></g><g class="text"/></g></g></g><g class="overplot"/><path class="xlines-above crisp" d="M0,0" style="fill: none;"/><path class="ylines-above crisp" d="M0,0" style="fill: none;"/><g class="overlines-above"/><g class="xaxislayer-above"/><g class="yaxislayer-above"><g class="y2tick"><text text-anchor="end" x="94" y="4.199999999999999" transform="translate(0,583.6205555555557)" style="font-family: 'Open Sans', verdana, arial, sans-serif; font-size: 12px; fill: rgb(214, 223, 239); fill-opacity: 1; white-space: pre; opacity: 1;">−12.00%</text></g><g class="y2tick"><text text-anchor="end" x="94" y="4.199999999999999" style="font-family: 'Open Sans', verdana, arial, sans-serif; font-size: 12px; fill: rgb(214, 223, 239); fill-opacity: 1; white-space: pre; opacity: 1;" transform="translate(0,546.3005555555557)">−10.00%</text></g><g class="y2tick"><text text-anchor="end" x="94" y="4.199999999999999" style="font-family: 'Open Sans', verdana, arial, sans-serif; font-size: 12px; fill: rgb(214, 223, 239); fill-opacity: 1; white-space: pre; opacity: 1;" transform="translate(0,508.9705555555556)">−8.00%</text></g><g class="y2tick"><text text-anchor="end" x="94" y="4.199999999999999" style="font-family: 'Open Sans', verdana, arial, sans-serif; font-size: 12px; fill: rgb(214, 223, 239); fill-opacity: 1; white-space: pre; opacity: 1;" transform="translate(0,471.6505555555557)">−6.00%</text></g><g class="y2tick"><text text-anchor="end" x="94" y="4.199999999999999" style="font-family: 'Open Sans', verdana, arial, sans-serif; font-size: 12px; fill: rgb(214, 223, 239); fill-opacity: 1; white-space: pre; opacity: 1;" transform="translate(0,434.33055555555563)">−4.00%</text></g><g class="y2tick"><text text-anchor="end" x="94" y="4.199999999999999" style="font-family: 'Open Sans', verdana, arial, sans-serif; font-size: 12px; fill: rgb(214, 223, 239); fill-opacity: 1; white-space: pre; opacity: 1;" transform="translate(0,397.00055555555565)">−2.00%</text></g><g class="y2tick"><text text-anchor="end" x="94" y="4.199999999999999" style="font-family: 'Open Sans', verdana, arial, sans-serif; font-size: 12px; fill: rgb(214, 223, 239); fill-opacity: 1; white-space: pre; opacity: 1;" transform="translate(0,359.68055555555566)">0.00%</text></g></g><g class="overaxes-above"/></g><g class="subplot x3y3"><g class="layer-subplot"><g class="shapelayer"/><g class="imagelayer"/></g><g class="gridlayer"><g class="x3"><path class="x3grid crisp" transform="translate(128.54,0)" d="M0,642.3611111111111v249.63888888888886" style="stroke: rgb(47, 62, 78); stroke-opacity: 1; stroke-width: 1px;"/><path class="x3grid crisp" transform="translate(201.70999999999998,0)" d="M0,642.3611111111111v249.63888888888886" style="stroke: rgb(47, 62, 78); stroke-opacity: 1; stroke-width: 1px;"/><path class="x3grid crisp" transform="translate(274.88,0)" d="M0,642.3611111111111v249.63888888888886" style="stroke: rgb(47, 62, 78); stroke-opacity: 1; stroke-width: 1px;"/><path class="x3grid crisp" transform="translate(348.05,0)" d="M0,642.3611111111111v249.63888888888886" style="stroke: rgb(47, 62, 78); stroke-opacity: 1; stroke-width: 1px;"/><path class="x3grid crisp" transform="translate(421.22,0)" d="M0,642.3611111111111v249.63888888888886" style="stroke: rgb(47, 62, 78); stroke-opacity: 1; stroke-width: 1px;"/><path class="x3grid crisp" transform="translate(494.39,0)" d="M0,642.3611111111111v249.63888888888886" style="stroke: rgb(47, 62, 78); stroke-opacity: 1; stroke-width: 1px;"/><path class="x3grid crisp" transform="translate(567.56,0)" d="M0,642.3611111111111v249.63888888888886" style="stroke: rgb(47, 62, 78); stroke-opacity: 1; stroke-width: 1px;"/><path class="x3grid crisp" transform="translate(640.73,0)" d="M0,642.3611111111111v249.63888888888886" style="stroke: rgb(47, 62, 78); stroke-opacity: 1; stroke-width: 1px;"/><path class="x3grid crisp" transform="translate(713.9,0)" d="M0,642.3611111111111v249.63888888888886" style="stroke: rgb(47, 62, 78); stroke-opacity: 1; stroke-width: 1px;"/></g><g class="y3"><path class="y3grid crisp" transform="translate(0,859.4811111111111)" d="M95,0h625" style="stroke: rgb(47, 62, 78); stroke-opacity: 1; stroke-width: 1px;"/><path class="y3grid crisp" transform="translate(0,817.5911111111111)" d="M95,0h625" style="stroke: rgb(47, 62, 78); stroke-opacity: 1; stroke-width: 1px;"/><path class="y3grid crisp" transform="translate(0,775.7111111111111)" d="M95,0h625" style="stroke: rgb(47, 62, 78); stroke-opacity: 1; stroke-width: 1px;"/><path class="y3grid crisp" transform="translate(0,733.8211111111111)" d="M95,0h625" style="stroke: rgb(47, 62, 78); stroke-opacity: 1; stroke-width: 1px;"/><path class="y3grid crisp" transform="translate(0,691.9411111111111)" d="M95,0h625" style="stroke: rgb(47, 62, 78); stroke-opacity: 1; stroke-width: 1px;"/><path class="y3grid crisp" transform="translate(0,650.0511111111111)" d="M95,0h625" style="stroke: rgb(47, 62, 78); stroke-opacity: 1; stroke-width: 1px;"/></g></g><g class="zerolinelayer"/><path class="xlines-below"/><path class="ylines-below"/><g class="overlines-below"/><g class="xaxislayer-below"/><g class="yaxislayer-below"/><g class="overaxes-below"/><g class="plot" transform="translate(95,642.3611111111111)" clip-path="url(#clipc8b973x3y3plot)"><g class="scatterlayer mlayer"><g class="trace scatter tracec8375f2b-c63a-48ea-bec3-12b15d7f52c0" style="stroke-miterlimit: 2; opacity: 1;"><g class="fills"/><g class="errorbars"/><g class="lines"><path class="js-line" d="M0,49.58L3.05,50.28L6.1,38.12L9.15,18.82L12.2,16.19L15.24,12.48L18.29,30.03L27.44,61.46L30.49,53.26L33.54,60.38L36.59,50.23L42.68,70.02L45.73,66.85L48.78,96.82L51.83,111.09L54.88,119.27L57.93,119.27L60.98,131.62L64.02,130.13L67.07,131.99L70.12,113.29L76.22,144.5L79.27,164.24L82.32,151.62L85.37,165.81L88.41,178.92L91.46,176.24L94.51,153.98L97.56,153.71L100.61,163.92L103.66,157.07L106.71,134.86L109.76,137.68L112.8,160.29L115.85,158.37L118.9,154.01L121.95,144.07L125,141.5L128.05,116.94L131.1,119.68L134.15,99.48L137.2,108.66L140.24,114.4L143.29,122.08L146.34,114.42L149.39,134.97L152.44,129.23L155.49,135.95L158.54,132.27L161.59,145.21L164.63,149.35L167.68,150.32L170.73,155.2L173.78,154.6L176.83,142.18L179.88,185.79L182.93,181.33L189.02,181.46L192.07,192.4L195.12,204.88L198.17,204.72L201.22,214.12L204.27,210.49L207.32,221.4L210.37,220.05L213.41,212.76L216.46,217.88L219.51,222.56L222.56,207.24L225.61,195.35L228.66,213.28L231.71,206.67L234.76,212.95L237.8,213.57L240.85,195.51L243.9,201.58L246.95,200.63L253.05,216.77L256.1,225.95L259.15,214.14L262.2,217.58L265.24,227.92L268.29,217.45L271.34,218.72L274.39,211.38L280.49,199.9L283.54,197.68L286.59,206.53L289.63,203.29L292.68,208.75L295.73,202.04L298.78,198.44L301.83,198.33L304.88,185.74L307.93,163.56L310.98,184.85L314.02,195.46L317.07,200.25L320.12,198.76L323.17,193.7L326.22,201.66L329.27,205.02L332.32,205.51L338.41,197.3L341.46,199.09L344.51,203.69L347.56,202.69L350.61,195.54L353.66,198.11L359.76,189.61L362.8,196.65L365.85,180.24L368.9,175.53L371.95,182.68L375,182.33L378.05,187.18L381.1,188.75L384.15,179.86L387.2,199.79L390.24,216.04L393.29,206.99L396.34,209.57L399.39,207.24L402.44,220.23L405.49,225.46L408.54,229.82L411.59,226L414.63,221.94L417.68,220.97L420.73,223.05L423.78,218.29L426.83,217.47L429.88,217.5L435.98,211.06L439.02,203.58L442.07,200.28L445.12,204.83L448.17,201.71L451.22,212.71L454.27,207.05L457.32,215.12L460.37,223.59L463.41,236.45L469.51,234.56L472.56,222.45L475.61,226.3L478.66,217.55L484.76,216.96L487.8,210.7L490.85,222.29L493.9,227.55L496.95,221.53L500,222.48L503.05,228.71L506.1,228.74L509.15,232.66L512.2,228.79L515.24,233.15L518.29,223.78L521.34,220.45L524.39,221.53L527.44,214.66L530.49,220.8L533.54,226L536.59,226.79L539.63,237.16L542.68,231.44L545.73,222.32L548.78,228.82L551.83,228.17L554.88,226.3L560.98,202.01L564.02,203.2L567.07,191.78L570.12,196.6L573.17,187.47L576.22,192.16L579.27,196.46L582.32,195.76L585.37,190.67L588.41,202.26L594.51,202.34L597.56,210.84L603.66,205.88L606.71,211.11L609.76,209.32L612.8,210.03L615.85,205.26L618.9,217.45L621.95,211.25L625,211.87" style="vector-effect: non-scaling-stroke; fill: none; stroke: rgb(127, 127, 127); stroke-opacity: 1; stroke-width: 2px; opacity: 1;"/></g><g class="points"/><g class="text"/></g><g class="trace scatter trace91d3acdc-c2af-40fe-afb5-9f877c7564d9" style="stroke-miterlimit: 2;"><g class="fills"><g><path class="js-fill" d="M0,49.58L67.07,49.58L70.12,45.97L73.17,48.25L76.22,49.58L125,49.58L128.05,46.53L131.1,46.95L134.15,43.83L143.29,47.32L146.34,46.14L149.39,49.31L152.44,48.43L155.49,49.46L158.54,48.9L164.63,49.58L167.68,49.58L625,49.58L625,49.58L0,49.58Z" style="fill: rgb(0, 128, 0); fill-opacity: 0.3; stroke-width: 0;"/></g></g><g class="errorbars"/><g class="lines"><path class="js-line" d="M0,49.58L625,49.58" style="vector-effect: non-scaling-stroke; fill: none; stroke: rgb(0, 0, 0); stroke-opacity: 0; stroke-width: 0px; opacity: 1;"/></g><g class="points"/><g class="text"/></g><g class="trace scatter traceac6d4b58-a16c-451d-b602-5b785f84b1a0" style="stroke-miterlimit: 2;"><g class="fills"/><g class="errorbars"/><g class="lines"><path class="js-line" d="M0,49.58L67.07,49.58L70.12,45.97L73.17,48.25L76.22,49.58L125,49.58L128.05,46.53L131.1,46.95L134.15,43.83L143.29,47.32L146.34,46.14L149.39,49.31L152.44,48.43L155.49,49.46L158.54,48.9L164.63,49.58L167.68,49.58L625,49.58" style="vector-effect: non-scaling-stroke; fill: none; stroke: rgb(0, 0, 0); stroke-opacity: 0; stroke-width: 0px; opacity: 1;"/></g><g class="points"/><g class="text"/></g><g class="trace scatter traceee56ab4c-3ea8-4672-89a7-c57058741def" style="stroke-miterlimit: 2;"><g class="fills"><g><path class="js-fill" d="M0,49.58L73.17,49.58L76.22,50.79L79.27,53.83L82.32,51.88L88.41,56.1L91.46,55.68L94.51,52.25L97.56,52.21L100.61,53.78L103.66,52.72L106.71,49.58L109.76,49.73L112.8,53.22L115.85,52.93L118.9,52.25L121.95,50.72L131.1,49.58L134.15,49.58L158.54,49.58L161.59,50.89L170.73,52.44L173.78,52.34L176.83,50.43L179.88,57.16L185.98,56.49L189.02,56.49L195.12,60.11L198.17,60.08L201.22,61.53L204.27,60.97L207.32,62.66L210.37,62.45L213.41,61.32L216.46,62.11L219.51,62.84L222.56,60.47L225.61,58.64L228.66,61.4L231.71,60.38L234.76,61.35L237.8,61.45L240.85,58.66L243.9,59.6L246.95,59.45L256.1,63.36L259.15,61.54L262.2,62.07L265.24,63.66L268.29,62.05L271.34,62.24L280.49,59.34L283.54,59L286.59,60.36L289.63,59.86L292.68,60.7L295.73,59.67L301.83,59.1L304.88,57.15L307.93,53.73L310.98,57.01L314.02,58.65L317.07,59.39L323.17,58.38L326.22,59.61L332.32,60.2L335.37,59.56L338.41,58.94L341.46,59.21L344.51,59.92L347.56,59.77L350.61,58.66L353.66,59.06L359.76,57.75L362.8,58.84L365.85,56.3L368.9,55.58L371.95,56.68L375,56.62L381.1,57.62L384.15,56.24L390.24,61.83L393.29,60.43L396.34,60.83L399.39,60.47L402.44,62.48L405.49,63.28L408.54,63.96L411.59,63.37L417.68,62.59L420.73,62.91L426.83,62.05L429.88,62.05L442.07,59.4L445.12,60.1L448.17,59.62L451.22,61.32L454.27,60.44L457.32,61.69L463.41,64.98L466.46,64.8L469.51,64.69L472.56,62.82L475.61,63.41L478.66,62.06L484.76,61.97L487.8,61.01L490.85,62.79L493.9,63.61L496.95,62.68L500,62.82L503.05,63.79L506.1,63.79L509.15,64.4L512.2,63.8L515.24,64.47L518.29,63.02L527.44,61.62L530.49,62.56L536.59,63.49L539.63,65.09L545.73,62.8L548.78,63.8L564.02,63.96L567.07,63.96L625,63.96L625,49.58L0,49.58Z" style="fill: rgb(255, 0, 0); fill-opacity: 0.3; stroke-width: 0;"/></g></g><g class="errorbars"/><g class="lines"><path class="js-line" d="M0,49.58L625,49.58" style="vector-effect: non-scaling-stroke; fill: none; stroke: rgb(0, 0, 0); stroke-opacity: 0; stroke-width: 0px; opacity: 1;"/></g><g class="points"/><g class="text"/></g><g class="trace scatter trace295431bf-eb54-43f3-bd8a-76a50062ee15" style="stroke-miterlimit: 2;"><g class="fills"/><g class="errorbars"/><g class="lines"><path class="js-line" d="M0,49.58L73.17,49.58L76.22,50.79L79.27,53.83L82.32,51.88L88.41,56.1L91.46,55.68L94.51,52.25L97.56,52.21L100.61,53.78L103.66,52.72L106.71,49.58L109.76,49.73L112.8,53.22L115.85,52.93L118.9,52.25L121.95,50.72L131.1,49.58L134.15,49.58L158.54,49.58L161.59,50.89L170.73,52.44L173.78,52.34L176.83,50.43L179.88,57.16L185.98,56.49L189.02,56.49L195.12,60.11L198.17,60.08L201.22,61.53L204.27,60.97L207.32,62.66L210.37,62.45L213.41,61.32L216.46,62.11L219.51,62.84L222.56,60.47L225.61,58.64L228.66,61.4L231.71,60.38L234.76,61.35L237.8,61.45L240.85,58.66L243.9,59.6L246.95,59.45L256.1,63.36L259.15,61.54L262.2,62.07L265.24,63.66L268.29,62.05L271.34,62.24L280.49,59.34L283.54,59L286.59,60.36L289.63,59.86L292.68,60.7L295.73,59.67L301.83,59.1L304.88,57.15L307.93,53.73L310.98,57.01L314.02,58.65L317.07,59.39L323.17,58.38L326.22,59.61L332.32,60.2L335.37,59.56L338.41,58.94L341.46,59.21L344.51,59.92L347.56,59.77L350.61,58.66L353.66,59.06L359.76,57.75L362.8,58.84L365.85,56.3L368.9,55.58L371.95,56.68L375,56.62L381.1,57.62L384.15,56.24L390.24,61.83L393.29,60.43L396.34,60.83L399.39,60.47L402.44,62.48L405.49,63.28L408.54,63.96L411.59,63.37L417.68,62.59L420.73,62.91L426.83,62.05L429.88,62.05L442.07,59.4L445.12,60.1L448.17,59.62L451.22,61.32L454.27,60.44L457.32,61.69L463.41,64.98L466.46,64.8L469.51,64.69L472.56,62.82L475.61,63.41L478.66,62.06L484.76,61.97L487.8,61.01L490.85,62.79L493.9,63.61L496.95,62.68L500,62.82L503.05,63.79L506.1,63.79L509.15,64.4L512.2,63.8L515.24,64.47L518.29,63.02L527.44,61.62L530.49,62.56L536.59,63.49L539.63,65.09L545.73,62.8L548.78,63.8L564.02,63.96L567.07,63.96L625,63.96" style="vector-effect: non-scaling-stroke; fill: none; stroke: rgb(0, 0, 0); stroke-opacity: 0; stroke-width: 0px; opacity: 1;"/></g><g class="points"/><g class="text"/></g><g class="trace scatter traced8980ca0-ebe4-4a2b-9f8b-9911ea1601dc" style="stroke-miterlimit: 2; opacity: 1;"><g class="fills"/><g class="errorbars"/><g class="lines"><path class="js-line" d="M0,49.58L67.07,49.58L70.12,45.97L76.22,50.79L79.27,53.83L82.32,51.88L85.37,54.08L88.41,56.1L91.46,55.68L94.51,52.25L97.56,52.21L100.61,53.78L103.66,52.72L106.71,49.3L109.76,49.73L112.8,53.22L115.85,52.93L118.9,52.25L121.95,50.72L125,50.32L128.05,46.53L131.1,46.95L134.15,43.83L143.29,47.32L146.34,46.14L149.39,49.31L152.44,48.43L155.49,49.46L158.54,48.9L161.59,50.89L164.63,51.53L173.78,52.34L176.83,50.43L179.88,57.16L182.93,56.47L189.02,56.49L192.07,58.18L195.12,60.11L198.17,60.08L201.22,61.53L204.27,60.97L207.32,62.66L210.37,62.45L213.41,61.32L216.46,62.11L219.51,62.84L222.56,60.47L225.61,58.64L228.66,61.4L231.71,60.38L234.76,61.35L237.8,61.45L240.85,58.66L243.9,59.6L246.95,59.45L256.1,63.36L259.15,61.54L262.2,62.07L265.24,63.66L268.29,62.05L271.34,62.24L280.49,59.34L283.54,59L286.59,60.36L289.63,59.86L292.68,60.7L295.73,59.67L301.83,59.1L304.88,57.15L307.93,53.73L310.98,57.01L314.02,58.65L317.07,59.39L323.17,58.38L326.22,59.61L332.32,60.2L335.37,59.56L338.41,58.94L341.46,59.21L344.51,59.92L347.56,59.77L350.61,58.66L353.66,59.06L359.76,57.75L362.8,58.84L365.85,56.3L368.9,55.58L371.95,56.68L375,56.62L381.1,57.62L384.15,56.24L390.24,61.83L393.29,60.43L396.34,60.83L399.39,60.47L402.44,62.48L405.49,63.28L408.54,63.96L411.59,63.37L417.68,62.59L420.73,62.91L426.83,62.05L429.88,62.05L442.07,59.4L445.12,60.1L448.17,59.62L451.22,61.32L454.27,60.44L457.32,61.69L463.41,64.98L466.46,64.8L469.51,64.69L472.56,62.82L475.61,63.41L478.66,62.06L484.76,61.97L487.8,61.01L490.85,62.79L493.9,63.61L496.95,62.68L500,62.82L503.05,63.79L506.1,63.79L509.15,64.4L512.2,63.8L515.24,64.47L518.29,63.02L527.44,61.62L530.49,62.56L536.59,63.49L539.63,65.09L545.73,62.8L548.78,63.8L564.02,63.96L567.07,63.96L625,63.96" style="vector-effect: non-scaling-stroke; fill: none; stroke: rgb(148, 103, 189); stroke-opacity: 1; stroke-width: 2px; opacity: 1;"/></g><g class="points"/><g class="text"/></g><g class="trace scatter trace0ad2e960-b5b8-4ef0-a02f-46cab3357344" style="stroke-miterlimit: 2; opacity: 0;"><g class="fills"/><g class="errorbars"/><g class="lines"><path class="js-line" d="M0,49.58L625,49.58" style="vector-effect: non-scaling-stroke; fill: none; stroke: rgb(0, 0, 0); stroke-opacity: 0; stroke-width: 0px; opacity: 1;"/></g><g class="points"/><g class="text"/></g></g></g><g class="overplot"/><path class="xlines-above crisp" d="M0,0" style="fill: none;"/><path class="ylines-above crisp" d="M0,0" style="fill: none;"/><g class="overlines-above"/><g class="xaxislayer-above"><g class="x3tick"><text text-anchor="middle" x="0" y="905" transform="translate(128.54,0)" style="font-family: 'Open Sans', verdana, arial, sans-serif; font-size: 12px; fill: rgb(214, 223, 239); fill-opacity: 1; white-space: pre; opacity: 1;"><tspan class="line" dy="0em" x="0" y="905">Jan 22</tspan><tspan class="line" dy="1.3em" x="0" y="905">2022</tspan></text></g><g class="x3tick"><text text-anchor="middle" x="0" y="905" style="font-family: 'Open Sans', verdana, arial, sans-serif; font-size: 12px; fill: rgb(214, 223, 239); fill-opacity: 1; white-space: pre; opacity: 1;" transform="translate(201.70999999999998,0)">Jan 23</text></g><g class="x3tick"><text text-anchor="middle" x="0" y="905" style="font-family: 'Open Sans', verdana, arial, sans-serif; font-size: 12px; fill: rgb(214, 223, 239); fill-opacity: 1; white-space: pre; opacity: 1;" transform="translate(274.88,0)">Jan 24</text></g><g class="x3tick"><text text-anchor="middle" x="0" y="905" style="font-family: 'Open Sans', verdana, arial, sans-serif; font-size: 12px; fill: rgb(214, 223, 239); fill-opacity: 1; white-space: pre; opacity: 1;" transform="translate(348.05,0)">Jan 25</text></g><g class="x3tick"><text text-anchor="middle" x="0" y="905" style="font-family: 'Open Sans', verdana, arial, sans-serif; font-size: 12px; fill: rgb(214, 223, 239); fill-opacity: 1; white-space: pre; opacity: 1;" transform="translate(421.22,0)">Jan 26</text></g><g class="x3tick"><text text-anchor="middle" x="0" y="905" style="font-family: 'Open Sans', verdana, arial, sans-serif; font-size: 12px; fill: rgb(214, 223, 239); fill-opacity: 1; white-space: pre; opacity: 1;" transform="translate(494.39,0)">Jan 27</text></g><g class="x3tick"><text text-anchor="middle" x="0" y="905" style="font-family: 'Open Sans', verdana, arial, sans-serif; font-size: 12px; fill: rgb(214, 223, 239); fill-opacity: 1; white-space: pre; opacity: 1;" transform="translate(567.56,0)">Jan 28</text></g><g class="x3tick"><text text-anchor="middle" x="0" y="905" style="font-family: 'Open Sans', verdana, arial, sans-serif; font-size: 12px; fill: rgb(214, 223, 239); fill-opacity: 1; white-space: pre; opacity: 1;" transform="translate(640.73,0)">Jan 29</text></g><g class="x3tick"><text text-anchor="middle" x="0" y="905" style="font-family: 'Open Sans', verdana, arial, sans-serif; font-size: 12px; fill: rgb(214, 223, 239); fill-opacity: 1; white-space: pre; opacity: 1;" transform="translate(713.9,0)">Jan 30</text></g></g><g class="yaxislayer-above"><g class="y3tick"><text text-anchor="end" x="94" y="4.199999999999999" transform="translate(0,859.4811111111111)" style="font-family: 'Open Sans', verdana, arial, sans-serif; font-size: 12px; fill: rgb(214, 223, 239); fill-opacity: 1; white-space: pre; opacity: 1;">0.8</text></g><g class="y3tick"><text text-anchor="end" x="94" y="4.199999999999999" style="font-family: 'Open Sans', verdana, arial, sans-serif; font-size: 12px; fill: rgb(214, 223, 239); fill-opacity: 1; white-space: pre; opacity: 1;" transform="translate(0,817.5911111111111)">0.85</text></g><g class="y3tick"><text text-anchor="end" x="94" y="4.199999999999999" style="font-family: 'Open Sans', verdana, arial, sans-serif; font-size: 12px; fill: rgb(214, 223, 239); fill-opacity: 1; white-space: pre; opacity: 1;" transform="translate(0,775.7111111111111)">0.9</text></g><g class="y3tick"><text text-anchor="end" x="94" y="4.199999999999999" style="font-family: 'Open Sans', verdana, arial, sans-serif; font-size: 12px; fill: rgb(214, 223, 239); fill-opacity: 1; white-space: pre; opacity: 1;" transform="translate(0,733.8211111111111)">0.95</text></g><g class="y3tick"><text text-anchor="end" x="94" y="4.199999999999999" style="font-family: 'Open Sans', verdana, arial, sans-serif; font-size: 12px; fill: rgb(214, 223, 239); fill-opacity: 1; white-space: pre; opacity: 1;" transform="translate(0,691.9411111111111)">1</text></g><g class="y3tick"><text text-anchor="end" x="94" y="4.199999999999999" style="font-family: 'Open Sans', verdana, arial, sans-serif; font-size: 12px; fill: rgb(214, 223, 239); fill-opacity: 1; white-space: pre; opacity: 1;" transform="translate(0,650.0511111111111)">1.05</text></g></g><g class="overaxes-above"/></g></g><g class="polarlayer"/><g class="smithlayer"/><g class="ternarylayer"/><g class="geolayer"/><g class="funnelarealayer"/><g class="pielayer"/><g class="iciclelayer"/><g class="treemaplayer"/><g class="sunburstlayer"/><g class="glimages"/><defs id="topdefs-c8b973"><g class="clips"/><clipPath id="legendc8b973"><rect width="529" height="29" x="0" y="0"/></clipPath></defs><g class="layer-above"><g class="imagelayer"/><g class="shapelayer"><path data-index="0" fill-rule="evenodd" d="M95,359.68055555555566L720,359.68055555555566" clip-path="url(#clipc8b973y2)" style="opacity: 1; stroke: rgb(128, 128, 128); stroke-opacity: 1; fill: rgb(0, 0, 0); fill-opacity: 0; stroke-dasharray: 9px, 9px; stroke-width: 2px;"/><path data-index="1" fill-rule="evenodd" d="M95,691.9411111111111L720,691.9411111111111" clip-path="url(#clipc8b973y3)" style="opacity: 1; stroke: rgb(128, 128, 128); stroke-opacity: 1; fill: rgb(0, 0, 0); fill-opacity: 0; stroke-dasharray: 9px, 9px; stroke-width: 2px;"/></g></g><g class="infolayer"><g class="legend" pointer-events="all" transform="translate(191,11.958333333333272)"><rect class="bg" shape-rendering="crispEdges" style="stroke: rgb(68, 68, 68); stroke-opacity: 1; fill: rgb(33, 34, 44); fill-opacity: 1; stroke-width: 0px;" width="529" height="29" x="0" y="0"/><g class="scrollbox" transform="" clip-path="url(#legendc8b973)"><g class="groups"><g class="traces" transform="translate(0,14.5)" style="opacity: 1;"><text class="legendtext" text-anchor="start" x="40" y="4.680000000000001" style="font-family: 'Open Sans', verdana, arial, sans-serif; font-size: 12px; fill: rgb(214, 223, 239); fill-opacity: 1; white-space: pre;">Close</text><g class="layers" style="opacity: 1;"><g class="legendfill"/><g class="legendlines"><path class="js-line" d="M5,0h30" style="fill: none; stroke: rgb(31, 119, 180); stroke-opacity: 1; stroke-width: 2px;"/></g><g class="legendsymbols"><g class="legendpoints"/></g></g><rect class="legendtoggle" x="0" y="-9.5" width="74.859375" height="19" style="fill: rgb(0, 0, 0); fill-opacity: 0;"/></g><g class="traces" transform="translate(77.359375,14.5)" style="opacity: 1;"><text class="legendtext" text-anchor="start" x="40" y="4.680000000000001" style="font-family: 'Open Sans', verdana, arial, sans-serif; font-size: 12px; fill: rgb(214, 223, 239); fill-opacity: 1; white-space: pre;">Buy</text><g class="layers" style="opacity: 1;"><g class="legendfill"/><g class="legendlines"/><g class="legendsymbols"><g class="legendpoints"><path class="scatterpts" transform="translate(20,0)" d="M-4.62,2H4.62L0,-4Z" style="opacity: 1; stroke-width: 1px; fill: rgb(55, 177, 63); fill-opacity: 1; stroke: rgb(38, 123, 44); stroke-opacity: 1;"/></g></g></g><rect class="legendtoggle" x="0" y="-9.5" width="65.421875" height="19" style="fill: rgb(0, 0, 0); fill-opacity: 0;"/></g><g class="traces" transform="translate(145.28125,14.5)" style="opacity: 1;"><text class="legendtext" text-anchor="start" x="40" y="4.680000000000001" style="font-family: 'Open Sans', verdana, arial, sans-serif; font-size: 12px; fill: rgb(214, 223, 239); fill-opacity: 1; white-space: pre;">Sell</text><g class="layers" style="opacity: 1;"><g class="legendfill"/><g class="legendlines"/><g class="legendsymbols"><g class="legendpoints"><path class="scatterpts" transform="translate(20,0)" d="M-4.62,-2H4.62L0,4Z" style="opacity: 1; stroke-width: 1px; fill: rgb(234, 67, 53); fill-opacity: 1; stroke: rgb(181, 31, 18); stroke-opacity: 1;"/></g></g></g><rect class="legendtoggle" x="0" y="-9.5" width="64.4375" height="19" style="fill: rgb(0, 0, 0); fill-opacity: 0;"/></g><g class="traces" transform="translate(212.21875,14.5)" style="opacity: 1;"><text class="legendtext" text-anchor="start" x="40" y="4.680000000000001" style="font-family: 'Open Sans', verdana, arial, sans-serif; font-size: 12px; fill: rgb(214, 223, 239); fill-opacity: 1; white-space: pre;">Closed - Loss</text><g class="layers" style="opacity: 1;"><g class="legendfill"/><g class="legendlines"/><g class="legendsymbols"><g class="legendpoints"><path class="scatterpts" transform="translate(20,0)" d="M3.5,0A3.5,3.5 0 1,1 0,-3.5A3.5,3.5 0 0,1 3.5,0Z" style="opacity: 0.9; stroke-width: 1px; fill: rgb(234, 67, 53); fill-opacity: 1; stroke: rgb(181, 31, 18); stroke-opacity: 1;"/></g></g></g><rect class="legendtoggle" x="0" y="-9.5" width="122.6875" height="19" style="fill: rgb(0, 0, 0); fill-opacity: 0;"/></g><g class="traces" transform="translate(337.40625,14.5)" style="opacity: 1;"><text class="legendtext" text-anchor="start" x="40" y="4.680000000000001" style="font-family: 'Open Sans', verdana, arial, sans-serif; font-size: 12px; fill: rgb(214, 223, 239); fill-opacity: 1; white-space: pre;">Benchmark</text><g class="layers" style="opacity: 1;"><g class="legendfill"/><g class="legendlines"><path class="js-line" d="M5,0h30" style="fill: none; stroke: rgb(127, 127, 127); stroke-opacity: 1; stroke-width: 2px;"/></g><g class="legendsymbols"><g class="legendpoints"/></g></g><rect class="legendtoggle" x="0" y="-9.5" width="110.421875" height="19" style="fill: rgb(0, 0, 0); fill-opacity: 0;"/></g><g class="traces" transform="translate(450.328125,14.5)" style="opacity: 1;"><text class="legendtext" text-anchor="start" x="40" y="4.680000000000001" style="font-family: 'Open Sans', verdana, arial, sans-serif; font-size: 12px; fill: rgb(214, 223, 239); fill-opacity: 1; white-space: pre;">Value</text><g class="layers" style="opacity: 1;"><g class="legendfill"/><g class="legendlines"><path class="js-line" d="M5,0h30" style="fill: none; stroke: rgb(148, 103, 189); stroke-opacity: 1; stroke-width: 2px;"/></g><g class="legendsymbols"><g class="legendpoints"/></g></g><rect class="legendtoggle" x="0" y="-9.5" width="75.953125" height="19" style="fill: rgb(0, 0, 0); fill-opacity: 0;"/></g></g></g><rect class="scrollbar" rx="20" ry="3" width="0" height="0" style="fill: rgb(128, 139, 164); fill-opacity: 1;" x="0" y="0"/></g><g class="g-gtitle"/><g class="g-xtitle"/><g class="g-x2title"/><g class="g-x3title"><text class="x3title" x="407.5" y="947.909375" text-anchor="middle" style="font-family: 'Open Sans', verdana, arial, sans-serif; font-size: 14px; fill: rgb(214, 223, 239); opacity: 1; font-weight: normal; white-space: pre;">Index</text></g><g class="g-ytitle"><text class="ytitle" transform="rotate(-90,26.684375000000003,199.81944444444446)" x="26.684375000000003" y="199.81944444444446" text-anchor="middle" style="font-family: 'Open Sans', verdana, arial, sans-serif; font-size: 14px; fill: rgb(214, 223, 239); opacity: 1; font-weight: normal; white-space: pre;">Price</text></g><g class="g-y2title" transform="translate(2.4248046875,0)"><text class="y2title" transform="rotate(-90,11.575000000000003,483.50000000000006)" x="11.575000000000003" y="483.50000000000006" text-anchor="middle" style="font-family: 'Open Sans', verdana, arial, sans-serif; font-size: 14px; fill: rgb(214, 223, 239); opacity: 1; font-weight: normal; white-space: pre;">Trade PnL</text></g><g class="g-y3title"><text class="y3title" transform="rotate(-90,41.934375,767.1805555555555)" x="41.934375" y="767.1805555555555" text-anchor="middle" style="font-family: 'Open Sans', verdana, arial, sans-serif; font-size: 14px; fill: rgb(214, 223, 239); opacity: 1; font-weight: normal; white-space: pre;">Cumulative returns</text></g><g class="annotation" data-index="0" style="opacity: 1;"><g class="annotation-text-g" transform="rotate(0,407.5,63)"><g class="cursor-pointer" transform="translate(379,51)"><rect class="bg" x="0.5" y="0.5" width="57" height="23" style="stroke-width: 1px; stroke: rgb(0, 0, 0); stroke-opacity: 0; fill: rgb(0, 0, 0); fill-opacity: 0;"/><text class="annotation-text" text-anchor="middle" x="29.046875" y="18" style="font-family: 'Open Sans', verdana, arial, sans-serif; font-size: 16px; fill: rgb(214, 223, 239); fill-opacity: 1; white-space: pre;">Orders</text></g></g></g><g class="annotation" data-index="1" style="opacity: 1;"><g class="annotation-text-g" transform="rotate(0,407.5,346.68055555555566)"><g class="cursor-pointer" transform="translate(366,335)"><rect class="bg" x="0.5" y="0.5" width="83" height="23" style="stroke-width: 1px; stroke: rgb(0, 0, 0); stroke-opacity: 0; fill: rgb(0, 0, 0); fill-opacity: 0;"/><text class="annotation-text" text-anchor="middle" x="42.0625" y="18" style="font-family: 'Open Sans', verdana, arial, sans-serif; font-size: 16px; fill: rgb(214, 223, 239); fill-opacity: 1; white-space: pre;">Trade PnL</text></g></g></g><g class="annotation" data-index="2" style="opacity: 1;"><g class="annotation-text-g" transform="rotate(0,407.5,630.3611111111111)"><g class="cursor-pointer" transform="translate(326,618)"><rect class="bg" x="0.5" y="0.5" width="162" height="23" style="stroke-width: 1px; stroke: rgb(0, 0, 0); stroke-opacity: 0; fill: rgb(0, 0, 0); fill-opacity: 0;"/><text class="annotation-text" text-anchor="middle" x="81.34375" y="18" style="font-family: 'Open Sans', verdana, arial, sans-serif; font-size: 16px; fill: rgb(214, 223, 239); fill-opacity: 1; white-space: pre;">Cumulative Returns</text></g></g></g></g></svg>