<svg class="main-svg" xmlns="http://www.w3.org/2000/svg" xmlns:xlink="http://www.w3.org/1999/xlink" width="700" height="350" style="" viewBox="0 0 700 350"><rect x="0" y="0" width="700" height="350" style="fill: rgb(33, 34, 44); fill-opacity: 1;"/><defs id="defs-3add64"><g class="clips"><clipPath id="clip3add64xyplot" class="plotclip"><rect width="618" height="274"/></clipPath><clipPath class="axesclip" id="clip3add64x"><rect x="41" y="0" width="618" height="350"/></clipPath><clipPath class="axesclip" id="clip3add64y"><rect x="0" y="46" width="700" height="274"/></clipPath><clipPath class="axesclip" id="clip3add64xy"><rect x="41" y="46" width="618" height="274"/></clipPath></g><g class="gradients"/><g class="patterns"/></defs><g class="bglayer"/><g class="layer-below"><g class="imagelayer"/><g class="shapelayer"/></g><g class="cartesianlayer"><g class="subplot xy"><g class="layer-subplot"><g class="shapelayer"><path data-index="0" fill-rule="evenodd" d="M41,257.73H659V108.27000000000001H41Z" clip-path="url(#clip3add64xy)" style="opacity: 0.2; stroke: rgb(0, 0, 0); stroke-opacity: 0; fill: rgb(123, 104, 238); fill-opacity: 1; stroke-width: 0px;"/></g><g class="imagelayer"/></g><g class="gridlayer"><g class="x"><path class="xgrid crisp" transform="translate(145.12,0)" d="M0,46v274" style="stroke: rgb(47, 62, 78); stroke-opacity: 1; stroke-width: 1px;"/><path class="xgrid crisp" transform="translate(245.88,0)" d="M0,46v274" style="stroke: rgb(47, 62, 78); stroke-opacity: 1; stroke-width: 1px;"/><path class="xgrid crisp" transform="translate(350,0)" d="M0,46v274" style="stroke: rgb(47, 62, 78); stroke-opacity: 1; stroke-width: 1px;"/><path class="xgrid crisp" transform="translate(450.76,0)" d="M0,46v274" style="stroke: rgb(47, 62, 78); stroke-opacity: 1; stroke-width: 1px;"/><path class="xgrid crisp" transform="translate(554.88,0)" d="M0,46v274" style="stroke: rgb(47, 62, 78); stroke-opacity: 1; stroke-width: 1px;"/></g><g class="y"><path class="ygrid crisp" transform="translate(0,257.73)" d="M41,0h618" style="stroke: rgb(47, 62, 78); stroke-opacity: 1; stroke-width: 1px;"/><path class="ygrid crisp" transform="translate(0,207.91)" d="M41,0h618" style="stroke: rgb(47, 62, 78); stroke-opacity: 1; stroke-width: 1px;"/><path class="ygrid crisp" transform="translate(0,158.09)" d="M41,0h618" style="stroke: rgb(47, 62, 78); stroke-opacity: 1; stroke-width: 1px;"/><path class="ygrid crisp" transform="translate(0,108.27000000000001)" d="M41,0h618" style="stroke: rgb(47, 62, 78); stroke-opacity: 1; stroke-width: 1px;"/><path class="ygrid crisp" transform="translate(0,58.45)" d="M41,0h618" style="stroke: rgb(47, 62, 78); stroke-opacity: 1; stroke-width: 1px;"/></g></g><g class="zerolinelayer"><path class="yzl zl crisp" transform="translate(0,307.55)" d="M41,0h618" style="stroke: rgb(47, 62, 78); stroke-opacity: 1; stroke-width: 2px;"/></g><path class="xlines-below"/><path class="ylines-below"/><g class="overlines-below"/><g class="xaxislayer-below"/><g class="yaxislayer-below"/><g class="overaxes-below"/><g class="plot" transform="translate(41,46)" clip-path="url(#clip3add64xyplot)"><g class="scatterlayer mlayer"><g class="trace scatter trace92d20e37-44f3-4d44-83d5-61bbeeedb112" style="stroke-miterlimit: 2; opacity: 1;"><g class="fills"/><g class="errorbars"/><g class="lines"><path class="js-line" d="M43.66,74.23L47.02,38.32L50.38,33L53.74,50.05L57.1,45.88L60.46,25.02L63.82,14.64L67.17,84.94L70.53,90.65L73.89,78.01L77.25,92.56L80.61,155.53L83.97,148.58L87.33,25.53L90.68,50.84L94.04,33.45L97.4,143.01L100.76,143.88L104.12,107.64L107.48,19.14L110.84,73.05L114.2,82.16L117.55,61.5L120.91,57.3L124.27,32.07L127.63,17.72L130.99,33.61L134.35,29.89L137.71,76.57L141.07,72.94L144.42,73.45L147.78,60.2L151.14,82.19L154.5,91.71L157.86,84.74L161.22,73.6L164.58,75.47L167.93,57.25L171.29,69.74L174.65,24.9L178.01,35.03L181.37,76.77L184.73,169.1L188.09,158.65L191.45,163.11L194.8,156.31L198.16,179.98L201.52,168.62L204.88,140.76L208.24,85.77L211.6,47.76L214.96,32.02L218.32,44.47L221.67,61.63L225.03,61.2L228.39,14.76L231.75,14.56L235.11,23.86L238.47,27.55L241.83,70.33L245.18,32.97L248.54,35.84L251.9,17.96L255.26,50.81L258.62,103.41L261.98,110.48L265.34,23.95L268.7,45.53L272.05,47.71L275.41,80.71L278.77,63.09L282.13,55.16L285.49,56.86L288.85,14.45L292.21,25.97L295.57,37.4L298.92,45.46L302.28,99.54L305.64,73.96L309,76.05L312.36,57.26L319.08,232.07L322.43,212.4L325.79,217.12L329.15,178.83L332.51,194.32L335.87,240.22L339.23,186.35L342.59,198.88L349.3,128.19L352.66,35.56L356.02,16.45L359.38,60.46L362.74,25.37L366.1,57.64L369.46,31.75L372.82,20.78L376.17,12.45L379.53,44.21L382.89,39.05L386.25,29.31L389.61,12.45L392.97,46.5L396.33,128.44L399.68,79.28L403.04,104.31L406.4,166.82L409.76,179.5L413.12,170.3L416.48,112.62L419.84,162.97L423.2,185.41L426.55,171.29L429.91,156.41L433.27,105.16L436.63,87.49L439.99,92.94L443.35,142.51L446.71,108.92L450.07,140.04L453.42,223.49L456.78,176.56L460.14,259.55L463.5,228.22L466.86,167.13L470.22,175.66L473.58,160.81L476.93,171.37L480.29,187.44L483.65,215.22L487.01,207.34L490.37,193.54L493.73,195.79L497.09,227.3L500.45,210.17L503.8,214.51L507.16,202.85L510.52,145.99L513.88,102.45L517.24,86.01L520.6,30.84L523.96,17.99L527.32,20.88L530.67,78.05L534.03,39.81L537.39,37.8L540.75,46.33L544.11,88.28L547.47,78.34L550.83,90.72L554.18,140.74L557.54,247.81L560.9,200.56L564.26,194.54L567.62,208.21L570.98,197.27L574.34,142.61L577.7,146.8L581.05,211.52L584.41,212.08L587.77,180.09L591.13,196.39L594.49,199.28L597.85,162.25L601.21,161.62L604.57,246.05L607.92,247.08L611.28,232.72L614.64,227.41L618,206.62" style="vector-effect: non-scaling-stroke; fill: none; stroke: rgb(108, 166, 205); stroke-opacity: 1; stroke-width: 2px; opacity: 1;"/></g><g class="points"/><g class="text"/></g><g class="trace scatter tracea980d6b4-c9df-4a70-b8ad-ae10c597ff3c" style="stroke-miterlimit: 2; opacity: 1;"><g class="fills"/><g class="errorbars"/><g class="lines"><path class="js-line" d="M50.38,48.52L53.74,40.46L57.1,42.97L60.46,40.31L63.82,28.51L67.17,41.53L70.53,63.41L73.89,84.53L77.25,87.07L83.97,132.22L87.33,109.88L94.04,36.61L97.4,75.77L104.12,131.51L107.48,90.22L110.84,66.61L114.2,58.11L117.55,72.23L120.91,66.99L127.63,35.7L130.99,27.8L134.35,27.07L137.71,46.69L144.42,74.32L147.78,68.86L151.14,71.95L154.5,78.04L157.86,86.21L161.22,83.35L164.58,77.93L167.93,68.77L171.29,67.49L174.65,50.63L178.01,43.22L181.37,45.57L188.09,134.84L191.45,163.62L194.8,159.36L198.16,166.47L201.52,168.3L204.88,163.12L208.24,131.71L211.6,91.43L214.96,55.18L218.32,41.42L221.67,46.04L225.03,55.77L228.39,45.87L231.75,30.18L235.11,17.73L238.47,21.99L241.83,40.58L245.18,43.62L248.54,46.38L251.9,28.92L255.26,34.87L258.62,57.4L261.98,88.24L265.34,79.28L272.05,39.06L275.41,57.98L278.77,63.84L282.13,66.32L285.49,58.37L288.85,42.15L292.21,32.42L295.57,25.94L298.92,36.28L302.28,60.8L309,83.18L312.36,69.09L315.72,93.58L319.08,145.59L322.43,197.3L325.79,220.53L329.15,202.78L332.51,196.76L335.87,204.46L339.23,206.97L342.59,208.49L345.95,182.16L349.3,162.77L352.66,108.33L356.02,60.07L359.38,37.49L362.74,34.09L366.1,47.82L369.46,38.25L372.82,36.72L376.17,21.66L379.53,25.82L386.25,37.52L389.61,26.94L392.97,29.42L396.33,62.46L403.04,104.01L406.4,116.8L409.76,150.21L413.12,172.21L416.48,154.14L419.84,148.63L423.2,153.66L426.55,173.22L429.91,171.04L433.27,144.29L436.63,116.36L439.99,95.2L443.35,107.65L446.71,114.79L450.07,130.49L453.42,157.48L456.78,180.03L460.14,219.86L463.5,221.44L466.86,218.3L473.58,167.87L476.93,169.28L480.29,173.21L483.65,191.34L487.01,203.34L490.37,205.37L493.73,198.89L497.09,205.54L503.8,217.33L507.16,209.18L510.52,187.79L513.88,150.43L520.6,73.1L523.96,44.95L527.32,23.24L530.67,38.97L537.39,51.89L540.75,41.31L547.47,70.98L550.83,85.78L554.18,103.26L557.54,159.75L560.9,196.37L564.26,214.3L567.62,201.1L570.98,200.01L577.7,162.23L581.05,166.98L584.41,190.14L587.77,201.23L597.85,185.97L601.21,174.38L604.57,189.97L607.92,218.25L611.28,241.95L614.64,235.74L618,222.25" style="vector-effect: non-scaling-stroke; fill: none; stroke: rgb(108, 118, 205); stroke-opacity: 1; stroke-width: 2px; opacity: 1;"/></g><g class="points"/><g class="text"/></g><g class="trace scatter trace9d864f75-5102-48ec-8697-91808e0628e9" style="stroke-miterlimit: 2; opacity: 1;"><g class="fills"/><g class="errorbars"/><g class="lines"><path class="js-line" d="M57.1,43.98L60.46,41.25L63.82,37.27L67.17,36.79L70.53,44.48L77.25,78.34L80.61,93.44L83.97,109.33L87.33,116.93L90.68,105.7L94.04,73.82L97.4,62.45L100.76,73.05L104.12,104.69L107.48,109.5L110.84,96.11L114.2,71.65L117.55,65.65L120.91,65.78L124.27,63.17L127.63,50.99L130.99,37.93L134.35,30.19L137.71,33.85L141.07,44.52L144.42,60.27L147.78,67.66L151.14,71.71L154.5,72.95L157.86,78.73L161.22,82.53L164.58,82.5L167.93,76.69L171.29,71.4L174.65,62.3L181.37,46.47L184.73,60.81L188.09,91.35L191.45,130.7L194.8,152.61L198.16,163.15L204.88,165.96L208.24,154.38L211.6,128.75L214.96,92.77L218.32,62.68L221.67,47.55L225.03,47.74L228.39,49.22L231.75,43.94L235.11,31.26L238.47,23.3L241.83,26.77L248.54,43.53L251.9,39.64L255.26,36.73L258.62,40.4L261.98,60.17L265.34,74.97L268.7,75.84L272.05,59.44L275.41,52.34L278.77,53.63L282.13,62.71L285.49,62.84L288.85,55.61L292.21,44.31L295.57,33.51L298.92,31.55L302.28,41.01L305.64,56.69L309,72.33L312.36,75.09L315.72,81.95L319.08,102.75L325.79,187.8L329.15,206.87L332.51,206.69L335.87,201.33L339.23,202.73L342.59,206.64L345.95,199.2L349.3,184.47L356.02,110.39L359.38,68.63L362.74,43.88L366.1,39.8L372.82,40.93L376.17,32.21L379.53,28.07L382.89,26.46L386.25,31.75L389.61,32.12L392.97,31.29L396.33,39.61L399.68,58.87L403.04,83.74L409.76,123.67L413.12,146.41L416.48,158.85L419.84,158.32L423.2,152.14L426.55,158.5L429.91,165.97L433.27,162.85L436.63,143.89L439.99,118.61L443.35,106.4L446.71,105.88L450.07,117.64L453.42,134.26L456.78,156L460.14,185.79L463.5,207.11L466.86,219.87L470.22,210.03L473.58,192.17L476.93,175.83L480.29,170.12L483.65,177.94L487.01,189.3L490.37,200.02L493.73,202.53L497.09,203.27L500.45,205.17L503.8,211.32L507.16,212.53L510.52,204.76L513.88,182.47L520.6,111.67L523.96,76.51L527.32,47.09L530.67,35.72L534.03,36.15L537.39,45.7L540.75,46.48L544.11,50.22L547.47,56.59L550.83,71.41L554.18,86.68L557.54,116.27L564.26,190.14L567.62,203.92L570.98,205.14L574.34,194.6L581.05,170.63L584.41,173.11L587.77,186.11L591.13,195.85L594.49,196.45L597.85,191.36L601.21,184.09L604.57,183.44L607.92,194.2L611.28,216.72L614.64,231.98L618,233.31" style="vector-effect: non-scaling-stroke; fill: none; stroke: rgb(205, 108, 166); stroke-opacity: 1; stroke-width: 2px; opacity: 1;"/></g><g class="points"/><g class="text"/></g></g></g><g class="overplot"/><path class="xlines-above crisp" d="M0,0" style="fill: none;"/><path class="ylines-above crisp" d="M0,0" style="fill: none;"/><g class="overlines-above"/><g class="xaxislayer-above"><g class="xtick"><text text-anchor="middle" x="0" y="333" transform="translate(41,0)" style="font-family: 'Open Sans', verdana, arial, sans-serif; font-size: 12px; fill: rgb(214, 223, 239); fill-opacity: 1; white-space: pre; opacity: 1;">Mar 2019</text></g><g class="xtick"><text text-anchor="middle" x="0" y="333" style="font-family: 'Open Sans', verdana, arial, sans-serif; font-size: 12px; fill: rgb(214, 223, 239); fill-opacity: 1; white-space: pre; opacity: 1;" transform="translate(145.12,0)">Apr 2019</text></g><g class="xtick"><text text-anchor="middle" x="0" y="333" style="font-family: 'Open Sans', verdana, arial, sans-serif; font-size: 12px; fill: rgb(214, 223, 239); fill-opacity: 1; white-space: pre; opacity: 1;" transform="translate(245.88,0)">May 2019</text></g><g class="xtick"><text text-anchor="middle" x="0" y="333" style="font-family: 'Open Sans', verdana, arial, sans-serif; font-size: 12px; fill: rgb(214, 223, 239); fill-opacity: 1; white-space: pre; opacity: 1;" transform="translate(350,0)">Jun 2019</text></g><g class="xtick"><text text-anchor="middle" x="0" y="333" style="font-family: 'Open Sans', verdana, arial, sans-serif; font-size: 12px; fill: rgb(214, 223, 239); fill-opacity: 1; white-space: pre; opacity: 1;" transform="translate(450.76,0)">Jul 2019</text></g><g class="xtick"><text text-anchor="middle" x="0" y="333" style="font-family: 'Open Sans', verdana, arial, sans-serif; font-size: 12px; fill: rgb(214, 223, 239); fill-opacity: 1; white-space: pre; opacity: 1;" transform="translate(554.88,0)">Aug 2019</text></g><g class="xtick"><text text-anchor="middle" x="0" y="333" style="font-family: 'Open Sans', verdana, arial, sans-serif; font-size: 12px; fill: rgb(214, 223, 239); fill-opacity: 1; white-space: pre; opacity: 1;" transform="translate(659,0)">Sep 2019</text></g></g><g class="yaxislayer-above"><g class="ytick"><text text-anchor="end" x="40" y="4.199999999999999" transform="translate(0,307.55)" style="font-family: 'Open Sans', verdana, arial, sans-serif; font-size: 12px; fill: rgb(214, 223, 239); fill-opacity: 1; white-space: pre; opacity: 1;">0</text></g><g class="ytick"><text text-anchor="end" x="40" y="4.199999999999999" style="font-family: 'Open Sans', verdana, arial, sans-serif; font-size: 12px; fill: rgb(214, 223, 239); fill-opacity: 1; white-space: pre; opacity: 1;" transform="translate(0,257.73)">20</text></g><g class="ytick"><text text-anchor="end" x="40" y="4.199999999999999" style="font-family: 'Open Sans', verdana, arial, sans-serif; font-size: 12px; fill: rgb(214, 223, 239); fill-opacity: 1; white-space: pre; opacity: 1;" transform="translate(0,207.91)">40</text></g><g class="ytick"><text text-anchor="end" x="40" y="4.199999999999999" style="font-family: 'Open Sans', verdana, arial, sans-serif; font-size: 12px; fill: rgb(214, 223, 239); fill-opacity: 1; white-space: pre; opacity: 1;" transform="translate(0,158.09)">60</text></g><g class="ytick"><text text-anchor="end" x="40" y="4.199999999999999" style="font-family: 'Open Sans', verdana, arial, sans-serif; font-size: 12px; fill: rgb(214, 223, 239); fill-opacity: 1; white-space: pre; opacity: 1;" transform="translate(0,108.27000000000001)">80</text></g><g class="ytick"><text text-anchor="end" x="40" y="4.199999999999999" style="font-family: 'Open Sans', verdana, arial, sans-serif; font-size: 12px; fill: rgb(214, 223, 239); fill-opacity: 1; white-space: pre; opacity: 1;" transform="translate(0,58.45)">100</text></g></g><g class="overaxes-above"/></g></g><g class="polarlayer"/><g class="smithlayer"/><g class="ternarylayer"/><g class="geolayer"/><g class="funnelarealayer"/><g class="pielayer"/><g class="iciclelayer"/><g class="treemaplayer"/><g class="sunburstlayer"/><g class="glimages"/><defs id="topdefs-3add64"><g class="clips"/><clipPath id="legend3add64"><rect width="295" height="29" x="0" y="0"/></clipPath></defs><g class="layer-above"><g class="imagelayer"/><g class="shapelayer"/></g><g class="infolayer"><g class="legend" pointer-events="all" transform="translate(364,11.519999999999996)"><rect class="bg" shape-rendering="crispEdges" style="stroke: rgb(68, 68, 68); stroke-opacity: 1; fill: rgb(33, 34, 44); fill-opacity: 1; stroke-width: 0px;" width="295" height="29" x="0" y="0"/><g class="scrollbox" transform="" clip-path="url(#legend3add64)"><g class="groups"><g class="traces" transform="translate(0,14.5)" style="opacity: 1;"><text class="legendtext" text-anchor="start" x="40" y="4.680000000000001" style="font-family: 'Open Sans', verdana, arial, sans-serif; font-size: 12px; fill: rgb(214, 223, 239); fill-opacity: 1; white-space: pre;">Fast %K</text><g class="layers" style="opacity: 1;"><g class="legendfill"/><g class="legendlines"><path class="js-line" d="M5,0h30" style="fill: none; stroke: rgb(108, 166, 205); stroke-opacity: 1; stroke-width: 2px;"/></g><g class="legendsymbols"><g class="legendpoints"/></g></g><rect class="legendtoggle" x="0" y="-9.5" width="93.03125" height="19" style="fill: rgb(0, 0, 0); fill-opacity: 0;"/></g><g class="traces" transform="translate(95.53125,14.5)" style="opacity: 1;"><text class="legendtext" text-anchor="start" x="40" y="4.680000000000001" style="font-family: 'Open Sans', verdana, arial, sans-serif; font-size: 12px; fill: rgb(214, 223, 239); fill-opacity: 1; white-space: pre;">Slow %K</text><g class="layers" style="opacity: 1;"><g class="legendfill"/><g class="legendlines"><path class="js-line" d="M5,0h30" style="fill: none; stroke: rgb(108, 118, 205); stroke-opacity: 1; stroke-width: 2px;"/></g><g class="legendsymbols"><g class="legendpoints"/></g></g><rect class="legendtoggle" x="0" y="-9.5" width="96.546875" height="19" style="fill: rgb(0, 0, 0); fill-opacity: 0;"/></g><g class="traces" transform="translate(194.578125,14.5)" style="opacity: 1;"><text class="legendtext" text-anchor="start" x="40" y="4.680000000000001" style="font-family: 'Open Sans', verdana, arial, sans-serif; font-size: 12px; fill: rgb(214, 223, 239); fill-opacity: 1; white-space: pre;">Slow %D</text><g class="layers" style="opacity: 1;"><g class="legendfill"/><g class="legendlines"><path class="js-line" d="M5,0h30" style="fill: none; stroke: rgb(205, 108, 166); stroke-opacity: 1; stroke-width: 2px;"/></g><g class="legendsymbols"><g class="legendpoints"/></g></g><rect class="legendtoggle" x="0" y="-9.5" width="97.484375" height="19" style="fill: rgb(0, 0, 0); fill-opacity: 0;"/></g></g></g><rect class="scrollbar" rx="20" ry="3" width="0" height="0" style="fill: rgb(128, 139, 164); fill-opacity: 1;" x="0" y="0"/></g><g class="g-gtitle"/><g class="g-xtitle"/><g class="g-ytitle"/></g></svg>