<svg class="main-svg" xmlns="http://www.w3.org/2000/svg" xmlns:xlink="http://www.w3.org/1999/xlink" width="700" height="350" style="" viewBox="0 0 700 350"><rect x="0" y="0" width="700" height="350" style="fill: rgb(33, 34, 44); fill-opacity: 1;"/><defs id="defs-ce967d"><g class="clips"><clipPath id="clipce967dxyplot" class="plotclip"><rect width="631" height="274"/></clipPath><clipPath class="axesclip" id="clipce967dx"><rect x="39" y="0" width="631" height="350"/></clipPath><clipPath class="axesclip" id="clipce967dy"><rect x="0" y="46" width="700" height="274"/></clipPath><clipPath class="axesclip" id="clipce967dxy"><rect x="39" y="46" width="631" height="274"/></clipPath></g><g class="gradients"/><g class="patterns"/></defs><g class="bglayer"/><g class="layer-below"><g class="imagelayer"/><g class="shapelayer"/></g><g class="cartesianlayer"><g class="subplot xy"><g class="layer-subplot"><g class="shapelayer"/><g class="imagelayer"/></g><g class="gridlayer"><g class="x"><path class="xgrid crisp" transform="translate(142.51,0)" d="M0,46v274" style="stroke: rgb(47, 62, 78); stroke-opacity: 1; stroke-width: 1px;"/><path class="xgrid crisp" transform="translate(247.68,0)" d="M0,46v274" style="stroke: rgb(47, 62, 78); stroke-opacity: 1; stroke-width: 1px;"/><path class="xgrid crisp" transform="translate(352.85,0)" d="M0,46v274" style="stroke: rgb(47, 62, 78); stroke-opacity: 1; stroke-width: 1px;"/><path class="xgrid crisp" transform="translate(459.74,0)" d="M0,46v274" style="stroke: rgb(47, 62, 78); stroke-opacity: 1; stroke-width: 1px;"/><path class="xgrid crisp" transform="translate(564.91,0)" d="M0,46v274" style="stroke: rgb(47, 62, 78); stroke-opacity: 1; stroke-width: 1px;"/></g><g class="y"><path class="ygrid crisp" transform="translate(0,304.42)" d="M39,0h631" style="stroke: rgb(47, 62, 78); stroke-opacity: 1; stroke-width: 1px;"/><path class="ygrid crisp" transform="translate(0,238.53)" d="M39,0h631" style="stroke: rgb(47, 62, 78); stroke-opacity: 1; stroke-width: 1px;"/><path class="ygrid crisp" transform="translate(0,172.64)" d="M39,0h631" style="stroke: rgb(47, 62, 78); stroke-opacity: 1; stroke-width: 1px;"/><path class="ygrid crisp" transform="translate(0,106.75)" d="M39,0h631" style="stroke: rgb(47, 62, 78); stroke-opacity: 1; stroke-width: 1px;"/></g></g><g class="zerolinelayer"/><path class="xlines-below"/><path class="ylines-below"/><g class="overlines-below"/><g class="xaxislayer-below"/><g class="yaxislayer-below"/><g class="overaxes-below"/><g class="plot" transform="translate(39,46)" clip-path="url(#clipce967dxyplot)"><g class="scatterlayer mlayer"><g class="trace scatter trace2c9fb9e7-5785-4ede-a6f9-e4d01ca00796" style="stroke-miterlimit: 2; opacity: 1;"><g class="fills"/><g class="errorbars"/><g class="lines"><path class="js-line" d="M0,193.97L1.72,192.65L3.45,196.35L6.9,192.72L8.62,193.52L10.34,193.74L12.07,196.8L15.52,197.01L17.24,196.4L18.96,192.82L20.69,193.95L22.41,194.48L24.14,198.08L31.03,193.72L32.76,196.36L36.2,197.16L37.93,199.13L39.65,193.1L41.38,199.02L43.1,197.29L44.83,198.14L46.55,197.33L48.27,199.19L50,198.6L51.72,200.86L55.17,200.51L56.89,203.32L60.34,205.71L62.07,208.98L63.79,209.95L65.51,209.5L67.24,211.33L68.96,210.49L70.69,212.24L72.41,211.11L75.86,211.56L77.58,212.92L79.31,213.34L81.03,214.97L82.75,216.16L84.48,216.14L86.2,214.2L87.93,214.27L94.82,210.58L96.55,212.65L98.27,218.08L99.99,217.75L103.44,219L105.17,217.62L106.89,216.41L108.61,217.47L110.34,215.11L112.06,215.55L113.79,213.21L115.51,213.94L120.68,212.08L122.41,213.34L124.13,214.46L125.86,213.3L129.3,215.36L131.03,213.47L132.75,213.47L134.48,215.18L136.2,216.52L137.92,214.31L141.37,215.46L143.1,212.88L144.82,210.7L146.54,210.23L148.27,209.83L149.99,203.4L156.89,199.11L158.61,197.46L160.34,196.52L162.06,197.03L163.78,201.41L165.51,202.5L172.4,210.22L174.13,209.37L175.85,209.26L177.58,210L179.3,211.25L181.02,210.94L182.75,213.81L184.47,213.48L186.2,208.42L187.92,207.74L191.37,209.54L193.09,207.32L194.82,211.25L196.54,212.73L198.27,212.01L199.99,212.79L201.71,210.12L203.44,213.97L205.16,213.7L206.89,214.36L208.61,213.78L210.33,211.28L213.78,215.45L215.51,216.69L220.68,213.39L222.4,214.72L224.13,210.07L225.85,208.52L229.3,205.46L231.02,205.44L234.47,200.19L236.19,194.91L237.92,194.78L239.64,195.47L241.37,192.62L243.09,192.66L244.81,192.93L246.54,194.62L249.99,193.43L251.71,192.2L253.43,186.24L255.16,184.41L256.88,183.9L258.61,182L260.33,180.27L262.05,185.83L263.78,187.72L265.5,186.64L268.95,189.12L270.67,184.12L274.12,183.67L275.85,182.95L277.57,181.24L279.3,184.19L281.02,181.19L282.74,181.86L284.47,182.55L286.19,175.55L287.92,175.4L289.64,174.15L294.81,169.87L296.54,170.9L298.26,173.1L299.98,165.11L301.71,165.26L303.43,168.46L305.16,81.4L306.88,79.47L308.6,85.36L310.33,76.9L312.05,76.06L313.78,82.06L317.22,80.72L318.95,81.86L320.67,79.32L322.4,84.4L324.12,86.82L325.84,87.16L327.57,86.94L329.29,85.14L332.74,90.38L334.46,90.51L337.91,99.88L339.64,98.64L341.36,97.07L343.08,103.01L348.26,111.38L349.98,110.37L353.43,107.67L355.15,105.71L356.88,107.81L358.6,107.37L362.05,101.62L363.77,101.45L365.5,101.25L367.22,103.05L368.95,103.57L370.67,102.68L372.39,101.2L374.12,101.13L377.57,102.78L379.29,104.92L382.74,108.65L384.46,110.59L386.19,117.93L387.91,108.66L389.63,99.62L391.36,101.88L393.08,94.61L394.81,95.48L396.53,97.82L398.25,98.64L403.43,101.12L405.15,88.1L406.87,89.27L408.6,88.54L410.32,91.59L412.05,84.49L415.49,78.91L417.22,86.1L418.94,92.94L420.67,90.69L422.39,88.7L424.11,89.14L427.56,92.93L429.29,92.21L431.01,97.69L432.73,100.5L434.46,99.35L436.18,95.49L437.91,98.13L439.63,97.9L441.36,99.96L443.08,96.57L448.25,88.66L449.98,89.59L451.7,88.98L453.42,86.54L455.15,86.5L456.87,82.1L458.6,79.19L460.32,84.06L462.04,84.59L463.77,80.81L465.49,65.77L467.22,61.06L468.94,59.87L470.66,62.29L472.39,63.91L474.11,58.35L475.84,57.28L477.56,57.91L479.28,57.96L481.01,59.6L482.73,68.18L484.46,59.15L486.18,61.86L487.9,61.36L491.35,69.64L493.08,68.62L496.52,70.71L498.25,73.5L499.97,75.6L501.7,76.39L503.42,74.22L505.14,76.06L506.87,84.07L508.59,88.32L510.32,93.65L512.04,89.62L515.49,86L517.21,88.09L518.94,87.45L520.66,82.99L522.39,83.38L524.11,82.66L525.83,83.25L527.56,79.91L532.73,80.46L534.45,84.51L536.18,84.2L537.9,88.79L541.35,86.79L543.07,90.95L546.52,88.32L548.25,89.38L551.69,100.05L553.42,100.45L555.14,98.91L556.87,99.25L558.59,95.64L560.31,97.27L562.04,97.34L563.76,94.77L565.49,92.48L567.21,93.48L568.93,87.79L570.66,87.08L572.38,81.81L574.11,82.82L577.55,75.27L579.28,80.81L581,74.42L582.73,73.15L584.45,72.82L586.17,70.61L587.9,55.35L589.62,52.9L591.35,50.69L593.07,53.98L594.8,52.99L596.52,61.3L598.24,57.1L599.97,50.52L601.69,58.65L603.42,56.08L606.86,51.88L608.59,50.04L612.04,41.88L613.76,43.34L615.48,45.28L617.21,27.15L620.66,21.78L622.38,15.82L624.1,13.7L625.83,16.28L627.55,14.69L629.28,18.77L631,15.57" style="vector-effect: non-scaling-stroke; fill: none; stroke: rgb(31, 119, 180); stroke-opacity: 1; stroke-width: 2px; opacity: 1;"/></g><g class="points"/><g class="text"/></g><g class="trace scatter traceccbad2ab-7fab-4e4a-82bd-e4174e3aab63" style="stroke-miterlimit: 2; opacity: 1;"><g class="fills"/><g class="errorbars"/><g class="lines"><path class="js-line" d="M0,187.7L1.72,188.89L3.45,186.2L6.9,191.04L8.62,192.85L12.07,196.46L13.79,195.76L15.52,195.38L17.24,196.16L18.96,194.75L20.69,196.98L22.41,198.69L24.14,197.01L27.58,200.42L29.31,197.18L31.03,195.78L32.76,196.62L36.2,199.4L37.93,199.16L41.38,194.1L43.1,193.36L44.83,197.41L46.55,199.06L48.27,200.26L50,197.59L51.72,196.62L53.45,194.27L60.34,196.2L62.07,198.44L63.79,194.88L65.51,193.98L68.96,190.2L70.69,192.04L72.41,187.74L74.13,188.09L75.86,189.26L77.58,189.15L79.31,183.04L81.03,183.07L82.75,184.94L84.48,188.44L86.2,189.21L87.93,184.23L89.65,183.61L91.37,184.79L93.1,184.75L94.82,185.83L98.27,185.11L99.99,186.45L101.72,183.56L103.44,186.07L105.17,187.56L106.89,187.46L108.61,188.76L110.34,187.62L113.79,186.5L115.51,188.58L118.96,208.62L120.68,207.58L124.13,205.75L125.86,205.28L127.58,206.67L129.3,201.81L136.2,199.05L137.92,194.44L139.65,198.83L141.37,191.56L144.82,193.93L146.54,191.45L149.99,197.63L151.72,195.92L153.44,196.48L155.16,193.87L158.61,193.05L160.34,191.08L162.06,193.91L163.78,194.02L165.51,193.66L167.23,191.79L168.96,191.68L170.68,190.76L172.4,190.7L174.13,189.41L175.85,190.58L177.58,190.77L179.3,187.2L181.02,187.49L182.75,188.66L184.47,188.12L186.2,187.93L187.92,188.7L189.64,187.2L191.37,188.09L194.82,187.34L196.54,187.99L203.44,183.84L205.16,180.23L208.61,178.73L210.33,174.61L212.06,178.01L213.78,177.06L215.51,174.1L217.23,176.17L218.95,176.05L220.68,174.34L222.4,172.79L224.13,173.2L227.57,174.91L229.3,177.43L231.02,175.65L232.75,176.43L234.47,180.23L236.19,179.47L237.92,179.88L239.64,177.97L241.37,176.45L243.09,178.68L244.81,175.16L246.54,177.74L249.99,183.47L251.71,186.8L253.43,187.36L255.16,182.98L256.88,183.89L258.61,183.37L260.33,184.91L262.05,185.21L263.78,186.78L265.5,186.04L267.23,186.64L268.95,182.69L270.67,187.77L272.4,185.76L274.12,181.66L275.85,180.29L277.57,180L279.3,181.27L281.02,181.91L282.74,184.35L284.47,184.13L286.19,180.59L289.64,182.41L291.36,179.01L293.09,179.57L294.81,183.62L296.54,181.6L298.26,181.37L299.98,180.11L301.71,180.7L303.43,177.66L305.16,158.8L306.88,155.58L308.6,156.24L312.05,154.23L313.78,152.45L317.22,152.12L318.95,154.21L320.67,153.18L322.4,155.83L324.12,155.4L325.84,150.99L329.29,145.54L331.02,143.44L334.46,144.85L336.19,148.25L339.64,151.12L341.36,151.17L344.81,154.88L346.53,156.21L351.7,160.1L353.43,164.33L355.15,163.38L356.88,163.83L358.6,164.78L360.33,169.34L362.05,166.54L363.77,170.79L365.5,172.25L367.22,178.66L368.95,179.67L370.67,179.24L374.12,178.87L375.84,183.16L377.57,182.19L379.29,179.49L384.46,185.97L386.19,185.77L387.91,187.92L389.63,187.25L391.36,189.49L393.08,189.1L394.81,187.47L396.53,187.95L398.25,188.94L399.98,188.74L401.7,188.49L403.43,190.24L405.15,190.89L406.87,189.6L408.6,189.64L410.32,187.59L413.77,191.58L415.49,191.12L417.22,188.72L418.94,190.9L422.39,191.24L424.11,191.87L427.56,189.04L429.29,186.13L431.01,181.59L432.73,183.14L434.46,182.83L436.18,185.33L437.91,182.24L439.63,181.3L441.36,178.43L443.08,181.88L444.8,184.23L446.53,182.77L448.25,182.46L449.98,184.3L451.7,185.12L453.42,186.94L455.15,186.21L456.87,184.48L458.6,181.58L460.32,181.43L462.04,178.67L463.77,178.86L467.22,170.73L468.94,171.34L470.66,171.12L472.39,172.11L475.84,173.5L477.56,176.1L481.01,176.27L482.73,174.79L484.46,177.07L486.18,166.08L487.9,168.18L489.63,161.31L491.35,165.04L493.08,166.66L498.25,165.6L499.97,166.77L501.7,174.84L503.42,173.19L506.87,177.03L508.59,176.03L510.32,178.25L512.04,177.15L515.49,184.87L517.21,191.41L520.66,192.42L522.39,192.21L524.11,192.78L525.83,194.71L527.56,198.44L529.28,197.66L531.01,202.72L532.73,201.86L534.45,200.16L536.18,201.6L537.9,200.06L539.63,201.38L541.35,198.7L543.07,201.16L544.8,200.64L546.52,203.69L548.25,204.3L549.97,206.1L551.69,205.33L553.42,206.86L555.14,207.47L556.87,206.6L558.59,208.86L560.31,208.4L562.04,208.26L563.76,211.52L565.49,211.53L567.21,212.6L568.93,211.99L570.66,212.97L574.11,216.91L575.83,215.38L577.55,213.85L579.28,213.88L582.73,207.85L584.45,204.35L586.17,206.39L587.9,203.26L589.62,200.4L591.35,201.02L593.07,203.58L594.8,204.7L598.24,206.86L599.97,206.28L601.69,203.49L603.42,203.3L605.14,193.4L606.86,193.95L608.59,191.51L610.31,192L613.76,194.29L615.48,198.95L617.21,199.26L618.93,200.8L620.66,201.46L622.38,196.66L624.1,199.17L625.83,194.65L627.55,194.62L629.28,197.01L631,198.7" style="vector-effect: non-scaling-stroke; fill: none; stroke: rgb(255, 127, 14); stroke-opacity: 1; stroke-width: 2px; opacity: 1;"/></g><g class="points"/><g class="text"/></g><g class="trace scatter trace58cd97f7-b633-4d82-9321-ca5bc2833dcd" style="stroke-miterlimit: 2; opacity: 1;"><g class="fills"/><g class="errorbars"/><g class="lines"><path class="js-line" d="M0,190.22L1.72,191.96L3.45,191.62L5.17,189.14L6.9,191.15L8.62,191.05L10.34,189.82L13.79,192.32L15.52,196.19L17.24,197.91L18.96,195.37L20.69,194.19L22.41,194.24L24.14,196.38L25.86,196.21L27.58,190.86L29.31,188.19L31.03,192.08L32.76,193.57L34.48,191.12L36.2,190.75L39.65,194.66L41.38,193.42L43.1,196.81L44.83,195.18L46.55,196.43L48.27,195.92L50,195.98L51.72,194.31L53.45,194.39L55.17,196.4L56.89,196.2L58.62,193.01L60.34,191.94L62.07,193.1L65.51,188.77L67.24,188.34L68.96,190.29L70.69,190.69L72.41,197.34L74.13,198.33L77.58,193.79L79.31,189.19L81.03,190.78L82.75,190.59L86.2,193.44L87.93,194.37L89.65,195.99L91.37,195.4L93.1,196.35L94.82,198.27L96.55,196.75L98.27,198.23L99.99,195.98L101.72,198.25L106.89,197.34L108.61,194.93L110.34,195.51L112.06,192.87L113.79,191.41L115.51,188.43L117.23,191.74L118.96,192.56L120.68,191.27L122.41,192.84L125.86,191.88L127.58,192.98L129.3,193.74L131.03,191.61L132.75,191.71L134.48,193.27L136.2,194.55L137.92,191.39L141.37,188.1L143.1,188.76L144.82,191.72L146.54,190.88L149.99,190.29L151.72,188.36L153.44,190.75L155.16,188.63L156.89,188.63L158.61,187.29L160.34,189.19L162.06,188.81L163.78,188.32L165.51,189.84L167.23,190.52L168.96,189.43L170.68,190.88L172.4,190.57L174.13,184.3L175.85,181.53L177.58,183.5L179.3,179.91L181.02,181.81L182.75,181.5L184.47,184.37L186.2,183.76L187.92,185.22L189.64,191.6L191.37,194.08L193.09,194.28L196.54,194.83L198.27,200.13L201.71,200.63L203.44,204.95L206.89,204.88L208.61,206.1L210.33,208.21L212.06,214.37L213.78,216.97L215.51,221.53L217.23,222.39L218.95,221.06L220.68,222.29L222.4,221.36L224.13,221.61L225.85,219.22L227.57,217.44L229.3,216.94L231.02,217.7L232.75,222.98L234.47,224.02L236.19,223.82L237.92,225.3L239.64,224.89L241.37,225.73L243.09,225.57L244.81,226.26L246.54,224.83L248.26,225.77L249.99,224.95L253.43,226.91L255.16,222.71L256.88,226.11L258.61,226.65L260.33,226.69L262.05,230.06L263.78,229.2L265.5,226.98L267.23,225.18L268.95,227.61L270.67,226.52L272.4,228.74L275.85,228.88L277.57,226.75L279.3,223.88L281.02,223.6L284.47,224.63L286.19,223.94L287.92,223.39L289.64,220.75L293.09,217.42L294.81,224.23L296.54,218.66L298.26,219.27L299.98,217.37L301.71,217.86L305.16,216.22L306.88,215.31L310.33,218.56L312.05,218.91L313.78,218.8L315.5,217.64L317.22,214.55L318.95,217.24L320.67,216.26L322.4,225.09L327.57,227.15L329.29,226.21L331.02,226.26L332.74,222.33L334.46,221.4L336.19,223.24L339.64,225.39L341.36,225L343.08,229.49L344.81,230.81L348.26,231L349.98,229.33L351.7,225.77L353.43,227.75L356.88,228.5L358.6,228.89L360.33,229.69L362.05,229.65L365.5,230.72L367.22,231.72L368.95,233.21L370.67,232.23L372.39,233.34L374.12,231.4L375.84,232.27L377.57,232L379.29,231.56L381.01,233.35L382.74,234.42L384.46,231.87L387.91,232.47L389.63,230.41L393.08,229.22L394.81,229.93L399.98,229.58L401.7,231.31L403.43,233.89L405.15,233.17L406.87,231.78L408.6,231.94L410.32,230.15L412.05,229.54L413.77,232.13L415.49,231.69L417.22,232.58L418.94,231.21L420.67,231.92L422.39,229.73L429.29,229.8L431.01,228.99L434.46,225.18L436.18,225.67L437.91,230.14L439.63,229.33L444.8,232.04L446.53,231.32L448.25,232.67L449.98,232.38L451.7,232.73L453.42,232.23L455.15,236.31L456.87,236.09L460.32,235.43L462.04,233.87L465.49,236.26L467.22,236.14L468.94,237.85L470.66,244.63L474.11,245.21L475.84,246.22L477.56,247.54L479.28,245.42L481.01,245.25L482.73,246.62L486.18,246.9L487.9,245.95L489.63,247.67L491.35,247.78L493.08,246.96L494.8,247.19L496.52,248.15L498.25,247.71L499.97,247.21L501.7,248.02L503.42,251.23L505.14,250.7L506.87,250.29L508.59,251.07L510.32,250.66L512.04,251.12L515.49,252.35L517.21,253.04L518.94,251.87L520.66,252.62L522.39,253.82L524.11,253.67L525.83,253.28L527.56,252.06L529.28,251.21L531.01,252.7L532.73,253.18L534.45,247.76L539.63,248.83L541.35,250.05L543.07,248.66L544.8,248.32L546.52,246.16L548.25,246.11L549.97,245.8L551.69,246.62L555.14,246.76L556.87,245.72L560.31,252.38L562.04,252.58L563.76,254.03L565.49,253.33L567.21,251.99L568.93,252.73L570.66,254.14L572.38,252.72L575.83,251.9L577.55,251.1L579.28,251.66L581,253.76L582.73,254.86L584.45,257.39L586.17,256.2L587.9,256.3L589.62,256.8L591.35,256.49L593.07,258.55L594.8,258.15L598.24,257.67L599.97,258.31L601.69,260.01L603.42,258.01L606.86,258.34L608.59,256.26L610.31,256.75L612.04,258.13L613.76,258.37L615.48,259.9L617.21,260.3L618.93,259.17L622.38,259.51L624.1,255.44L625.83,254.89L627.55,255.65L631,257.32" style="vector-effect: non-scaling-stroke; fill: none; stroke: rgb(44, 160, 44); stroke-opacity: 1; stroke-width: 2px; opacity: 1;"/></g><g class="points"/><g class="text"/></g></g></g><g class="overplot"/><path class="xlines-above crisp" d="M0,0" style="fill: none;"/><path class="ylines-above crisp" d="M0,0" style="fill: none;"/><g class="overlines-above"/><g class="xaxislayer-above"><g class="xtick"><text text-anchor="middle" x="0" y="333" transform="translate(39.07,0)" style="font-family: 'Open Sans', verdana, arial, sans-serif; font-size: 12px; fill: rgb(214, 223, 239); fill-opacity: 1; white-space: pre; opacity: 1;">Jan 2020</text></g><g class="xtick"><text text-anchor="middle" x="0" y="333" style="font-family: 'Open Sans', verdana, arial, sans-serif; font-size: 12px; fill: rgb(214, 223, 239); fill-opacity: 1; white-space: pre; opacity: 1;" transform="translate(142.51,0)">Mar 2020</text></g><g class="xtick"><text text-anchor="middle" x="0" y="333" style="font-family: 'Open Sans', verdana, arial, sans-serif; font-size: 12px; fill: rgb(214, 223, 239); fill-opacity: 1; white-space: pre; opacity: 1;" transform="translate(247.68,0)">May 2020</text></g><g class="xtick"><text text-anchor="middle" x="0" y="333" style="font-family: 'Open Sans', verdana, arial, sans-serif; font-size: 12px; fill: rgb(214, 223, 239); fill-opacity: 1; white-space: pre; opacity: 1;" transform="translate(352.85,0)">Jul 2020</text></g><g class="xtick"><text text-anchor="middle" x="0" y="333" style="font-family: 'Open Sans', verdana, arial, sans-serif; font-size: 12px; fill: rgb(214, 223, 239); fill-opacity: 1; white-space: pre; opacity: 1;" transform="translate(459.74,0)">Sep 2020</text></g><g class="xtick"><text text-anchor="middle" x="0" y="333" style="font-family: 'Open Sans', verdana, arial, sans-serif; font-size: 12px; fill: rgb(214, 223, 239); fill-opacity: 1; white-space: pre; opacity: 1;" transform="translate(564.91,0)">Nov 2020</text></g></g><g class="yaxislayer-above"><g class="ytick"><text text-anchor="end" x="38" y="4.199999999999999" transform="translate(0,304.42)" style="font-family: 'Open Sans', verdana, arial, sans-serif; font-size: 12px; fill: rgb(214, 223, 239); fill-opacity: 1; white-space: pre; opacity: 1;">50</text></g><g class="ytick"><text text-anchor="end" x="38" y="4.199999999999999" style="font-family: 'Open Sans', verdana, arial, sans-serif; font-size: 12px; fill: rgb(214, 223, 239); fill-opacity: 1; white-space: pre; opacity: 1;" transform="translate(0,238.53)">100</text></g><g class="ytick"><text text-anchor="end" x="38" y="4.199999999999999" style="font-family: 'Open Sans', verdana, arial, sans-serif; font-size: 12px; fill: rgb(214, 223, 239); fill-opacity: 1; white-space: pre; opacity: 1;" transform="translate(0,172.64)">150</text></g><g class="ytick"><text text-anchor="end" x="38" y="4.199999999999999" style="font-family: 'Open Sans', verdana, arial, sans-serif; font-size: 12px; fill: rgb(214, 223, 239); fill-opacity: 1; white-space: pre; opacity: 1;" transform="translate(0,106.75)">200</text></g></g><g class="overaxes-above"/></g></g><g class="polarlayer"/><g class="ternarylayer"/><g class="geolayer"/><g class="funnelarealayer"/><g class="pielayer"/><g class="iciclelayer"/><g class="treemaplayer"/><g class="sunburstlayer"/><g class="glimages"/><defs id="topdefs-ce967d"><g class="clips"/><clipPath id="legendce967d"><rect width="158" height="29" x="0" y="0"/></clipPath></defs><g class="layer-above"><g class="imagelayer"/><g class="shapelayer"/></g><g class="infolayer"><g class="legend" pointer-events="all" transform="translate(512,11.519999999999996)"><rect class="bg" shape-rendering="crispEdges" style="stroke: rgb(68, 68, 68); stroke-opacity: 1; fill: rgb(33, 34, 44); fill-opacity: 1; stroke-width: 0px;" width="158" height="29" x="0" y="0"/><g class="scrollbox" transform="" clip-path="url(#legendce967d)"><g class="groups"><g class="traces" transform="translate(0,14.5)" style="opacity: 1;"><text class="legendtext" text-anchor="start" x="40" y="4.680000000000001" style="font-family: 'Open Sans', verdana, arial, sans-serif; font-size: 12px; fill: rgb(214, 223, 239); fill-opacity: 1; white-space: pre;">0</text><g class="layers" style="opacity: 1;"><g class="legendfill"/><g class="legendlines"><path class="js-line" d="M5,0h30" style="fill: none; stroke: rgb(31, 119, 180); stroke-opacity: 1; stroke-width: 2px;"/></g><g class="legendsymbols"><g class="legendpoints"/></g></g><rect class="legendtoggle" x="0" y="-9.5" width="50.140625" height="19" style="fill: rgb(0, 0, 0); fill-opacity: 0;"/></g><g class="traces" transform="translate(52.640625,14.5)" style="opacity: 1;"><text class="legendtext" text-anchor="start" x="40" y="4.680000000000001" style="font-family: 'Open Sans', verdana, arial, sans-serif; font-size: 12px; fill: rgb(214, 223, 239); fill-opacity: 1; white-space: pre;">1</text><g class="layers" style="opacity: 1;"><g class="legendfill"/><g class="legendlines"><path class="js-line" d="M5,0h30" style="fill: none; stroke: rgb(255, 127, 14); stroke-opacity: 1; stroke-width: 2px;"/></g><g class="legendsymbols"><g class="legendpoints"/></g></g><rect class="legendtoggle" x="0" y="-9.5" width="50.140625" height="19" style="fill: rgb(0, 0, 0); fill-opacity: 0;"/></g><g class="traces" transform="translate(105.28125,14.5)" style="opacity: 1;"><text class="legendtext" text-anchor="start" x="40" y="4.680000000000001" style="font-family: 'Open Sans', verdana, arial, sans-serif; font-size: 12px; fill: rgb(214, 223, 239); fill-opacity: 1; white-space: pre;">2</text><g class="layers" style="opacity: 1;"><g class="legendfill"/><g class="legendlines"><path class="js-line" d="M5,0h30" style="fill: none; stroke: rgb(44, 160, 44); stroke-opacity: 1; stroke-width: 2px;"/></g><g class="legendsymbols"><g class="legendpoints"/></g></g><rect class="legendtoggle" x="0" y="-9.5" width="50.140625" height="19" style="fill: rgb(0, 0, 0); fill-opacity: 0;"/></g></g></g><rect class="scrollbar" rx="20" ry="3" width="0" height="0" style="fill: rgb(128, 139, 164); fill-opacity: 1;" x="0" y="0"/></g><g class="g-gtitle"/><g class="g-xtitle"/><g class="g-ytitle"/></g></svg>