<svg class="main-svg" xmlns="http://www.w3.org/2000/svg" xmlns:xlink="http://www.w3.org/1999/xlink" width="700" height="350" style="" viewBox="0 0 700 350"><rect x="0" y="0" width="700" height="350" style="fill: rgb(33, 34, 44); fill-opacity: 1;"/><defs id="defs-8b25b8"><g class="clips"><clipPath id="clip8b25b8xyplot" class="plotclip"><rect width="637" height="261"/></clipPath><clipPath class="axesclip" id="clip8b25b8x"><rect x="33" y="0" width="637" height="350"/></clipPath><clipPath class="axesclip" id="clip8b25b8y"><rect x="0" y="46" width="700" height="261"/></clipPath><clipPath class="axesclip" id="clip8b25b8xy"><rect x="33" y="46" width="637" height="261"/></clipPath></g><g class="gradients"/><g class="patterns"/></defs><g class="bglayer"/><g class="layer-below"><g class="imagelayer"/><g class="shapelayer"/></g><g class="cartesianlayer"><g class="subplot xy"><g class="layer-subplot"><g class="shapelayer"/><g class="imagelayer"/></g><g class="gridlayer"><g class="x"><path class="xgrid crisp" transform="translate(139.17000000000002,0)" d="M0,46v261" style="stroke: rgb(47, 62, 78); stroke-opacity: 1; stroke-width: 1px;"/><path class="xgrid crisp" transform="translate(287.8,0)" d="M0,46v261" style="stroke: rgb(47, 62, 78); stroke-opacity: 1; stroke-width: 1px;"/><path class="xgrid crisp" transform="translate(436.43,0)" d="M0,46v261" style="stroke: rgb(47, 62, 78); stroke-opacity: 1; stroke-width: 1px;"/><path class="xgrid crisp" transform="translate(585.07,0)" d="M0,46v261" style="stroke: rgb(47, 62, 78); stroke-opacity: 1; stroke-width: 1px;"/></g><g class="y"><path class="ygrid crisp" transform="translate(0,266.82)" d="M33,0h637" style="stroke: rgb(47, 62, 78); stroke-opacity: 1; stroke-width: 1px;"/><path class="ygrid crisp" transform="translate(0,224.41)" d="M33,0h637" style="stroke: rgb(47, 62, 78); stroke-opacity: 1; stroke-width: 1px;"/><path class="ygrid crisp" transform="translate(0,182)" d="M33,0h637" style="stroke: rgb(47, 62, 78); stroke-opacity: 1; stroke-width: 1px;"/><path class="ygrid crisp" transform="translate(0,139.6)" d="M33,0h637" style="stroke: rgb(47, 62, 78); stroke-opacity: 1; stroke-width: 1px;"/><path class="ygrid crisp" transform="translate(0,97.19)" d="M33,0h637" style="stroke: rgb(47, 62, 78); stroke-opacity: 1; stroke-width: 1px;"/><path class="ygrid crisp" transform="translate(0,54.78)" d="M33,0h637" style="stroke: rgb(47, 62, 78); stroke-opacity: 1; stroke-width: 1px;"/></g></g><g class="zerolinelayer"/><path class="xlines-below"/><path class="ylines-below"/><g class="overlines-below"/><g class="xaxislayer-below"/><g class="yaxislayer-below"/><g class="overaxes-below"/><g class="plot" transform="translate(33,46)" clip-path="url(#clip8b25b8xyplot)"><g class="scatterlayer mlayer"><g class="trace scatter trace85f53807-70ab-4428-ae54-6611cfb1691f" style="stroke-miterlimit: 2; opacity: 0.1;"><g class="fills"/><g class="errorbars"/><g class="lines"><path class="js-line" d="M0,178.41L21.23,179.53L42.47,175.02L63.7,176.16L84.93,171.14L106.17,180.96L127.4,203.91L148.63,198.29L169.87,203.43L212.33,199.63L233.57,204.17L276.03,200.3L297.27,199.36L318.5,198.39L339.73,200.38L360.97,194.14L382.2,192.05L403.43,188.95L424.67,189.21L445.9,189.33L467.13,186.62L488.37,189.57L509.6,198.82L530.83,196.76L552.07,202.06L573.3,192.95L594.53,193.87L637,192.26" style="vector-effect: non-scaling-stroke; fill: none; stroke: rgb(197, 150, 29); stroke-opacity: 1; stroke-width: 2px; opacity: 1;"/></g><g class="points"/><g class="text"/></g><g class="trace scatter tracef68f7205-886e-4c2a-852a-cc260bfaa5ca" style="stroke-miterlimit: 2; opacity: 0.1;"><g class="fills"/><g class="errorbars"/><g class="lines"><path class="js-line" d="M0,178.41L21.23,185.36L42.47,201.33L63.7,200.13L84.93,204.85L106.17,206.94L127.4,203.35L148.63,187.84L169.87,200.01L191.1,203.35L212.33,202.98L233.57,207.95L254.8,198.8L276.03,200.69L297.27,191.84L318.5,192.78L339.73,188.73L360.97,186.58L382.2,191.12L403.43,192.38L424.67,185.8L445.9,183.29L467.13,177.94L509.6,175.42L530.83,164.23L573.3,161.3L594.53,163.07L615.77,170.6L637,166.86" style="vector-effect: non-scaling-stroke; fill: none; stroke: rgb(194, 162, 30); stroke-opacity: 1; stroke-width: 2px; opacity: 1;"/></g><g class="points"/><g class="text"/></g><g class="trace scatter trace9da6fe54-d66b-4c49-8bff-fff06ecb80de" style="stroke-miterlimit: 2; opacity: 0.1;"><g class="fills"/><g class="errorbars"/><g class="lines"><path class="js-line" d="M0,178.41L21.23,179.9L42.47,173.18L63.7,192.47L84.93,188.8L106.17,179.39L127.4,177.55L148.63,180.59L169.87,179.73L191.1,182.32L212.33,192.93L233.57,209.32L254.8,208.42L276.03,204.57L297.27,204.03L318.5,204.46L339.73,215.24L360.97,216.74L382.2,208.45L403.43,206L424.67,218.35L445.9,212.3L467.13,210.38L488.37,214.92L509.6,220.46L530.83,217.86L552.07,218.43L573.3,217.57L594.53,210.29L615.77,211.4L637,203.11" style="vector-effect: non-scaling-stroke; fill: none; stroke: rgb(204, 119, 25); stroke-opacity: 1; stroke-width: 2px; opacity: 1;"/></g><g class="points"/><g class="text"/></g><g class="trace scatter trace44c850ef-3986-4cca-aa9e-8e6a8d985edd" style="stroke-miterlimit: 2; opacity: 0.1;"><g class="fills"/><g class="errorbars"/><g class="lines"><path class="js-line" d="M0,178.41L21.23,179.53L42.47,175.02L63.7,176.16L84.93,171.14L106.17,180.96L127.4,203.91L148.63,198.29L169.87,203.43L212.33,199.63L233.57,204.17L276.03,200.3L297.27,199.36L318.5,198.39L339.73,200.38L360.97,194.14L382.2,192.05L403.43,188.95L424.67,189.21L445.9,189.33L467.13,186.62L488.37,189.57L509.6,198.82L530.83,196.76L552.07,202.06L573.3,192.95L594.53,193.87L637,192.26" style="vector-effect: non-scaling-stroke; fill: none; stroke: rgb(197, 150, 29); stroke-opacity: 1; stroke-width: 2px; opacity: 1;"/></g><g class="points"/><g class="text"/></g><g class="trace scatter tracee7230f99-8888-43a2-8cf0-3d1f3a353b28" style="stroke-miterlimit: 2; opacity: 0.1;"><g class="fills"/><g class="errorbars"/><g class="lines"><path class="js-line" d="M0,178.41L21.23,171.35L42.47,167.12L84.93,167.22L106.17,166.35L127.4,173.57L148.63,169.19L169.87,165.67L191.1,170L212.33,177.74L233.57,169.67L254.8,169.42L276.03,163.24L297.27,162.35L318.5,162.89L339.73,148.77L360.97,151.11L382.2,150.35L403.43,157.29L424.67,162.33L445.9,177L467.13,178.96L488.37,175.95L509.6,185.98L530.83,193.95L552.07,196.1L573.3,200.19L594.53,203.92L615.77,185.16L637,181.32" style="vector-effect: non-scaling-stroke; fill: none; stroke: rgb(173, 186, 34); stroke-opacity: 1; stroke-width: 2px; opacity: 1;"/></g><g class="points"/><g class="text"/></g><g class="trace scatter traceb86648e0-dbd7-4f33-ba97-7aa01ac88d22" style="stroke-miterlimit: 2; opacity: 0.1;"><g class="fills"/><g class="errorbars"/><g class="lines"><path class="js-line" d="M0,178.41L21.23,182.57L42.47,161.66L63.7,157.38L84.93,158.08L106.17,163.55L127.4,146.02L148.63,145.57L169.87,150.74L191.1,148.24L212.33,165.06L233.57,147.11L254.8,151.53L276.03,147.62L297.27,141.07L318.5,143.7L339.73,153.97L360.97,150.36L382.2,180.18L424.67,179.29L445.9,192.33L467.13,193.73L488.37,205.99L509.6,208.91L530.83,235L552.07,218.75L573.3,232.62L594.53,231.78L615.77,243.62L637,226.08" style="vector-effect: non-scaling-stroke; fill: none; stroke: rgb(167, 184, 35); stroke-opacity: 1; stroke-width: 2px; opacity: 1;"/></g><g class="points"/><g class="text"/></g><g class="trace scatter traceb94838bc-c274-4a63-b26d-2dd32282c236" style="stroke-miterlimit: 2; opacity: 0.1;"><g class="fills"/><g class="errorbars"/><g class="lines"><path class="js-line" d="M0,178.41L21.23,185.87L42.47,185.31L63.7,184.4L84.93,184.61L106.17,180.15L127.4,174.37L148.63,180.98L169.87,178.52L212.33,178.46L233.57,182.75L254.8,182L276.03,185.41L297.27,190.23L318.5,211.08L339.73,217.84L360.97,212.06L403.43,208.55L424.67,209.28L445.9,207.56L467.13,204.82L488.37,202.6L509.6,204.01L530.83,201.13L552.07,200.01L573.3,208.86L594.53,206.81L615.77,185.83L637,186.78" style="vector-effect: non-scaling-stroke; fill: none; stroke: rgb(193, 167, 31); stroke-opacity: 1; stroke-width: 2px; opacity: 1;"/></g><g class="points"/><g class="text"/></g><g class="trace scatter traceb5a36564-cc42-4cc0-b753-38f6d3f7d061" style="stroke-miterlimit: 2; opacity: 0.1;"><g class="fills"/><g class="errorbars"/><g class="lines"><path class="js-line" d="M0,178.41L21.23,173.72L42.47,157.49L63.7,158.87L84.93,149.36L106.17,155.18L127.4,165.52L148.63,163.63L169.87,157.7L191.1,153.56L212.33,164.27L233.57,160.72L254.8,163.12L276.03,169.74L297.27,163.43L318.5,165.53L339.73,160.46L360.97,168.33L382.2,170.72L403.43,170.12L424.67,176.43L445.9,179.76L467.13,178.84L488.37,177.11L509.6,183.41L530.83,190.46L552.07,174.65L573.3,173.69L594.53,164.65L615.77,160.46L637,152.92" style="vector-effect: non-scaling-stroke; fill: none; stroke: rgb(168, 185, 35); stroke-opacity: 1; stroke-width: 2px; opacity: 1;"/></g><g class="points"/><g class="text"/></g><g class="trace scatter trace54824239-389a-4801-ab88-88ad23fb9eb1" style="stroke-miterlimit: 2; opacity: 0.1;"><g class="fills"/><g class="errorbars"/><g class="lines"><path class="js-line" d="M0,178.41L21.23,187L42.47,182.32L63.7,183.78L84.93,177.19L106.17,196.12L127.4,192.52L148.63,183.28L169.87,181.47L191.1,184.46L212.33,183.61L233.57,186.16L254.8,196.57L276.03,212.66L297.27,211.78L318.5,208L339.73,207.47L360.97,207.89L382.2,218.47L403.43,219.94L424.67,211.8L445.9,209.4L467.13,221.52L488.37,215.59L509.6,213.7L530.83,218.16L552.07,223.59L573.3,221.05L594.53,221.6L615.77,220.76L637,213.61" style="vector-effect: non-scaling-stroke; fill: none; stroke: rgb(205, 114, 25); stroke-opacity: 1; stroke-width: 2px; opacity: 1;"/></g><g class="points"/><g class="text"/></g><g class="trace scatter tracedaa5c562-4fc2-48a3-872b-df661f6f7234" style="stroke-miterlimit: 2; opacity: 0.1;"><g class="fills"/><g class="errorbars"/><g class="lines"><path class="js-line" d="M0,178.41L21.23,177.84L42.47,168.76L63.7,162.65L84.93,151.74L106.17,147.53L127.4,139.17L148.63,141.57L169.87,124.32L191.1,133.98L212.33,148.6L233.57,142.97L254.8,134.22L276.03,139.72L297.27,138.06L318.5,137.74L339.73,141.01L360.97,155.22L382.2,154.1L403.43,162.96L424.67,167.35L445.9,151.12L467.13,147.68L488.37,147.85L509.6,139.77L530.83,134.94L552.07,134.97L573.3,135.05L594.53,134.06L615.77,142.31L637,137.31" style="vector-effect: non-scaling-stroke; fill: none; stroke: rgb(132, 177, 37); stroke-opacity: 1; stroke-width: 2px; opacity: 1;"/></g><g class="points"/><g class="text"/></g><g class="trace scatter traceea3a8d23-7096-4714-a4f4-ce9262906922" style="stroke-miterlimit: 2; opacity: 0.1;"><g class="fills"/><g class="errorbars"/><g class="lines"><path class="js-line" d="M0,178.41L21.23,172.37L42.47,176.33L63.7,185L84.93,180.28L106.17,181.75L127.4,175.09L148.63,194.21L169.87,190.58L191.1,181.25L212.33,179.42L233.57,182.43L254.8,181.58L276.03,184.15L297.27,194.67L318.5,210.92L339.73,210.03L360.97,206.21L382.2,205.67L403.43,206.1L424.67,216.79L445.9,218.27L467.13,210.05L488.37,207.62L509.6,219.86L530.83,213.87L552.07,211.97L573.3,216.47L594.53,221.95L615.77,219.38L637,219.94" style="vector-effect: non-scaling-stroke; fill: none; stroke: rgb(204, 120, 25); stroke-opacity: 1; stroke-width: 2px; opacity: 1;"/></g><g class="points"/><g class="text"/></g><g class="trace scatter trace8e07d617-8eed-460f-849e-904dedd0c41a" style="stroke-miterlimit: 2; opacity: 0.1;"><g class="fills"/><g class="errorbars"/><g class="lines"><path class="js-line" d="M0,178.41L21.23,179.53L42.47,174.59L63.7,184.25L84.93,206.84L106.17,201.31L127.4,206.37L169.87,202.63L191.1,207.1L233.57,203.29L254.8,202.37L276.03,201.41L297.27,203.37L318.5,197.23L339.73,195.17L360.97,192.12L382.2,192.37L403.43,192.49L424.67,189.83L445.9,192.73L467.13,201.84L488.37,199.8L509.6,205.02L530.83,196.06L552.07,196.96L594.53,195.37L615.77,196.79L637,194.17" style="vector-effect: non-scaling-stroke; fill: none; stroke: rgb(199, 141, 28); stroke-opacity: 1; stroke-width: 2px; opacity: 1;"/></g><g class="points"/><g class="text"/></g><g class="trace scatter trace76979dbc-5d7a-4e1b-b575-3005fe75437f" style="stroke-miterlimit: 2; opacity: 0.1;"><g class="fills"/><g class="errorbars"/><g class="lines"><path class="js-line" d="M0,178.41L21.23,171.65L42.47,191.07L63.7,187.38L84.93,177.9L106.17,176.04L127.4,179.11L148.63,178.24L169.87,180.85L191.1,191.54L212.33,208.05L233.57,207.14L254.8,203.26L276.03,202.71L297.27,203.15L318.5,214.01L339.73,215.51L360.97,207.16L382.2,204.7L403.43,217.14L424.67,211.05L445.9,209.11L467.13,213.69L488.37,219.26L509.6,216.65L530.83,217.22L552.07,216.35L573.3,209.02L594.53,210.14L615.77,201.79L637,201.86" style="vector-effect: non-scaling-stroke; fill: none; stroke: rgb(203, 123, 26); stroke-opacity: 1; stroke-width: 2px; opacity: 1;"/></g><g class="points"/><g class="text"/></g><g class="trace scatter trace824fffb0-fcc5-44ae-989f-7137690ad434" style="stroke-miterlimit: 2; opacity: 0.1;"><g class="fills"/><g class="errorbars"/><g class="lines"><path class="js-line" d="M0,178.41L21.23,179.1L42.47,176.68L84.93,187.25L106.17,184.78L127.4,173.39L148.63,152.01L169.87,154.52L191.1,151.72L212.33,146.64L233.57,135.51L254.8,116.48L276.03,124.06L297.27,123.23L318.5,118.29L339.73,119.73L360.97,105.8L382.2,113.1L403.43,106.32L424.67,106.41L445.9,84.99L467.13,88.94L488.37,85.7L509.6,83.32L530.83,72.07L552.07,63.55L573.3,82.41L594.53,89.87L615.77,86.9L637,89.05" style="vector-effect: non-scaling-stroke; fill: none; stroke: rgb(94, 170, 40); stroke-opacity: 1; stroke-width: 2px; opacity: 1;"/></g><g class="points"/><g class="text"/></g><g class="trace scatter tracec28fad1d-34e1-44b7-9cd8-eedf043ce209" style="stroke-miterlimit: 2; opacity: 0.1;"><g class="fills"/><g class="errorbars"/><g class="lines"><path class="js-line" d="M0,178.41L21.23,174.66L42.47,180.96L63.7,192.64L84.93,191.7L106.17,203.07L127.4,199.25L148.63,193.8L169.87,197.37L191.1,205.2L212.33,200.93L233.57,202.26L254.8,196.26L276.03,213.5L297.27,210.22L318.5,201.81L339.73,200.16L360.97,202.88L382.2,202.11L403.43,204.43L424.67,213.91L445.9,228.56L467.13,227.76L488.37,224.32L509.6,223.83L530.83,224.22L552.07,233.85L573.3,235.19L594.53,227.78L615.77,225.59L637,236.63" style="vector-effect: non-scaling-stroke; fill: none; stroke: rgb(202, 127, 26); stroke-opacity: 1; stroke-width: 2px; opacity: 1;"/></g><g class="points"/><g class="text"/></g><g class="trace scatter tracefe87fc82-7dcc-4850-a1ff-407289edec70" style="stroke-miterlimit: 2; opacity: 0.1;"><g class="fills"/><g class="errorbars"/><g class="lines"><path class="js-line" d="M0,178.41L21.23,172.19L42.47,157.52L63.7,159.52L84.93,166.64L106.17,167.02L127.4,169.26L148.63,168.38L169.87,164.45L191.1,171.04L212.33,183.28L233.57,182.29L254.8,194.21L276.03,190.2L297.27,184.49L318.5,188.24L339.73,196.43L360.97,191.96L382.2,193.35L403.43,187.07L424.67,205.12L445.9,201.69L467.13,192.88L488.37,191.15L509.6,194L530.83,193.2L552.07,195.62L573.3,205.56L594.53,220.9L615.77,220.06L637,216.45" style="vector-effect: non-scaling-stroke; fill: none; stroke: rgb(195, 159, 30); stroke-opacity: 1; stroke-width: 2px; opacity: 1;"/></g><g class="points"/><g class="text"/></g><g class="trace scatter trace027afe75-767e-4419-ab8b-25fb24d31934" style="stroke-miterlimit: 2; opacity: 0.1;"><g class="fills"/><g class="errorbars"/><g class="lines"><path class="js-line" d="M0,178.41L21.23,177.99L42.47,183.62L63.7,173.25L84.93,175.4L106.17,165.36L127.4,166.43L148.63,161.83L169.87,159.41L191.1,164.55L212.33,165.97L233.57,158.51L254.8,155.67L276.03,149.6L297.27,147.84L318.5,146.76L339.73,134.08L382.2,130.75L403.43,132.76L424.67,141.29L445.9,137.06L467.13,139.64L488.37,136.38L509.6,135.43L530.83,141.36L552.07,154.1L573.3,152.6L594.53,159.13L615.77,156.38L637,159.64" style="vector-effect: non-scaling-stroke; fill: none; stroke: rgb(152, 181, 36); stroke-opacity: 1; stroke-width: 2px; opacity: 1;"/></g><g class="points"/><g class="text"/></g><g class="trace scatter trace128d1d67-e3a7-44c5-8a73-8f915bb727e0" style="stroke-miterlimit: 2; opacity: 0.1;"><g class="fills"/><g class="errorbars"/><g class="lines"><path class="js-line" d="M0,178.41L21.23,183.41L42.47,173.41L63.7,168.75L84.93,170.52L106.17,172.54L127.4,167.96L148.63,172.81L169.87,192.28L191.1,202.79L212.33,189.84L233.57,183.75L254.8,193.22L276.03,193.87L297.27,191.61L339.73,201.44L360.97,199.15L382.2,188.55L403.43,168.66L424.67,171L445.9,168.39L467.13,163.67L488.37,153.32L509.6,135.61L530.83,142.66L552.07,141.9L573.3,137.3L594.53,138.64L615.77,125.68L637,132.47" style="vector-effect: non-scaling-stroke; fill: none; stroke: rgb(178, 187, 34); stroke-opacity: 1; stroke-width: 2px; opacity: 1;"/></g><g class="points"/><g class="text"/></g><g class="trace scatter tracea8f5c186-b81e-4e9d-a4a8-6f26110aee3f" style="stroke-miterlimit: 2; opacity: 0.1;"><g class="fills"/><g class="errorbars"/><g class="lines"><path class="js-line" d="M0,178.41L21.23,163.71L42.47,171.94L63.7,184.4L84.93,179.6L106.17,172.14L127.4,176.83L148.63,175.42L169.87,175.15L191.1,177.93L212.33,190.04L233.57,189.09L254.8,196.63L276.03,200.38L297.27,186.55L318.5,183.62L339.73,183.76L360.97,176.88L382.2,172.76L424.67,172.86L445.9,172.01L467.13,179.04L488.37,174.78L509.6,171.34L530.83,175.56L552.07,183.11L573.3,175.24L594.53,175L615.77,168.97L637,168.11" style="vector-effect: non-scaling-stroke; fill: none; stroke: rgb(184, 188, 34); stroke-opacity: 1; stroke-width: 2px; opacity: 1;"/></g><g class="points"/><g class="text"/></g><g class="trace scatter tracef210242c-8d29-408f-b62b-be472a2ce691" style="stroke-miterlimit: 2; opacity: 0.1;"><g class="fills"/><g class="errorbars"/><g class="lines"><path class="js-line" d="M0,178.41L21.23,171.41L42.47,177.03L63.7,170.85L84.93,165.74L106.17,166.33L127.4,174.45L148.63,143.16L169.87,135.94L191.1,138.97L212.33,147.21L233.57,166.15L254.8,164.72L276.03,170.32L297.27,172.8L318.5,168.54L339.73,150.14L360.97,164.58L382.2,168.55L403.43,168.1L424.67,174L445.9,163.15L467.13,165.39L488.37,154.89L509.6,156.01L530.83,151.2L552.07,148.66L573.3,154.04L594.53,155.53L615.77,147.72L637,144.75" style="vector-effect: non-scaling-stroke; fill: none; stroke: rgb(167, 184, 35); stroke-opacity: 1; stroke-width: 2px; opacity: 1;"/></g><g class="points"/><g class="text"/></g><g class="trace scatter trace0a0246c7-4217-450e-8158-493f242c5aba" style="stroke-miterlimit: 2; opacity: 0.1;"><g class="fills"/><g class="errorbars"/><g class="lines"><path class="js-line" d="M0,178.41L21.23,182.57L42.47,161.66L63.7,157.38L84.93,158.08L106.17,163.55L127.4,146.02L148.63,145.57L169.87,150.74L191.1,148.24L212.33,165.06L233.57,147.11L254.8,151.53L276.03,147.62L297.27,141.07L318.5,143.7L339.73,153.97L360.97,150.36L382.2,180.18L424.67,179.29L445.9,192.33L467.13,193.73L488.37,205.99L509.6,208.91L530.83,235L552.07,218.75L573.3,232.62L594.53,231.78L615.77,243.62L637,226.08" style="vector-effect: non-scaling-stroke; fill: none; stroke: rgb(167, 184, 35); stroke-opacity: 1; stroke-width: 2px; opacity: 1;"/></g><g class="points"/><g class="text"/></g><g class="trace scatter tracee2ddb747-9716-4343-bb19-c71709866671" style="stroke-miterlimit: 2; opacity: 0.1;"><g class="fills"/><g class="errorbars"/><g class="lines"><path class="js-line" d="M0,178.41L21.23,173.76L42.47,172.3L63.7,169.25L84.93,171.31L106.17,171.36L127.4,169.69L148.63,173.26L169.87,172.47L191.1,169.73L212.33,164.96L233.57,161.92L254.8,145.21L276.03,141.61L297.27,142.48L318.5,138.86L339.73,140.45L360.97,140.01L382.2,128.8L403.43,135.9L424.67,132.26L445.9,130.26L467.13,125.83L488.37,126.4L509.6,130.47L530.83,121.37L552.07,119.06L573.3,91.31L594.53,91.51L615.77,106.12L637,93.52" style="vector-effect: non-scaling-stroke; fill: none; stroke: rgb(128, 177, 38); stroke-opacity: 1; stroke-width: 2px; opacity: 1;"/></g><g class="points"/><g class="text"/></g><g class="trace scatter trace24f57db1-2259-401b-a05d-a5709d5c102e" style="stroke-miterlimit: 2; opacity: 0.1;"><g class="fills"/><g class="errorbars"/><g class="lines"><path class="js-line" d="M0,178.41L21.23,182.57L42.47,161.66L63.7,157.38L84.93,158.08L106.17,163.55L127.4,146.02L148.63,145.57L169.87,150.74L191.1,148.24L212.33,165.06L233.57,147.11L254.8,151.53L276.03,147.62L297.27,141.07L318.5,143.7L339.73,153.97L360.97,150.36L382.2,180.18L424.67,179.29L445.9,192.33L467.13,193.73L488.37,205.99L509.6,208.91L530.83,235L552.07,218.75L573.3,232.62L594.53,231.78L615.77,243.62L637,226.08" style="vector-effect: non-scaling-stroke; fill: none; stroke: rgb(167, 184, 35); stroke-opacity: 1; stroke-width: 2px; opacity: 1;"/></g><g class="points"/><g class="text"/></g><g class="trace scatter trace39b61746-7149-47af-ac48-2d5f70640ace" style="stroke-miterlimit: 2; opacity: 0.1;"><g class="fills"/><g class="errorbars"/><g class="lines"><path class="js-line" d="M0,178.41L21.23,183.41L42.47,173.41L63.7,168.75L84.93,170.52L106.17,172.54L127.4,167.96L148.63,172.81L169.87,192.28L191.1,202.79L212.33,189.84L233.57,183.75L254.8,193.22L276.03,193.87L297.27,191.61L339.73,201.44L360.97,199.15L382.2,188.55L403.43,168.66L424.67,171L445.9,168.39L467.13,163.67L488.37,153.32L509.6,135.61L530.83,142.66L552.07,141.9L573.3,137.3L594.53,138.64L615.77,125.68L637,132.47" style="vector-effect: non-scaling-stroke; fill: none; stroke: rgb(178, 187, 34); stroke-opacity: 1; stroke-width: 2px; opacity: 1;"/></g><g class="points"/><g class="text"/></g><g class="trace scatter trace2948f1f2-f1c7-40e0-9939-785ff3828497" style="stroke-miterlimit: 2; opacity: 0.1;"><g class="fills"/><g class="errorbars"/><g class="lines"><path class="js-line" d="M0,178.41L21.23,187.73L42.47,186.03L63.7,180.69L84.93,176.95L106.17,186.61L127.4,183.4L148.63,185.57L169.87,191.54L191.1,185.85L212.33,187.74L233.57,183.17L254.8,190.26L276.03,192.42L297.27,191.87L318.5,197.56L339.73,200.56L382.2,198.17L403.43,203.85L424.67,210.2L445.9,195.96L467.13,195.09L488.37,186.95L509.6,183.17L530.83,176.38L552.07,165.15L573.3,151.71L594.53,148.31L615.77,148.33L637,135.08" style="vector-effect: non-scaling-stroke; fill: none; stroke: rgb(192, 168, 31); stroke-opacity: 1; stroke-width: 2px; opacity: 1;"/></g><g class="points"/><g class="text"/></g><g class="trace scatter trace1c4fa259-c966-4993-b8a0-702d2ecd648f" style="stroke-miterlimit: 2; opacity: 0.1;"><g class="fills"/><g class="errorbars"/><g class="lines"><path class="js-line" d="M0,178.41L21.23,177.68L42.47,190.82L63.7,192.24L84.93,204.59L106.17,207.53L127.4,233.82L148.63,217.45L169.87,231.42L191.1,230.58L212.33,242.51L233.57,224.83L254.8,226.85L276.03,222.93L297.27,225.97L318.5,238.21L339.73,242.72L360.97,238.3L382.2,231.42L403.43,233.81L424.67,230.07L445.9,222.91L467.13,233.23L488.37,238.85L509.6,237.64L530.83,247.22L552.07,247.95L573.3,230.84L594.53,233.88L615.77,231.08L637,238.71" style="vector-effect: non-scaling-stroke; fill: none; stroke: rgb(220, 57, 18); stroke-opacity: 1; stroke-width: 2px; opacity: 1;"/></g><g class="points"/><g class="text"/></g><g class="trace scatter trace3873c4d6-3b2f-45df-8b48-3e5449f17da7" style="stroke-miterlimit: 2; opacity: 0.1;"><g class="fills"/><g class="errorbars"/><g class="lines"><path class="js-line" d="M0,178.41L42.47,182.03L63.7,177.66L84.93,182.29L106.17,200.91L127.4,210.96L148.63,198.58L169.87,192.76L191.1,201.81L212.33,202.43L233.57,200.27L276.03,209.67L297.27,207.48L318.5,197.35L339.73,178.32L360.97,180.55L382.2,178.06L403.43,173.55L424.67,163.65L445.9,146.71L467.13,153.45L488.37,152.72L509.6,148.32L530.83,149.6L552.07,137.21L573.3,143.71L594.53,137.67L615.77,137.76L637,118.7" style="vector-effect: non-scaling-stroke; fill: none; stroke: rgb(187, 188, 34); stroke-opacity: 1; stroke-width: 2px; opacity: 1;"/></g><g class="points"/><g class="text"/></g><g class="trace scatter trace1aa811cb-15f7-46f4-a303-ccc41a9949bf" style="stroke-miterlimit: 2; opacity: 0.1;"><g class="fills"/><g class="errorbars"/><g class="lines"><path class="js-line" d="M0,178.41L21.23,178.48L42.47,177.65L63.7,184.51L84.93,180.35L106.17,177.01L127.4,181.12L148.63,188.47L169.87,180.8L191.1,180.57L212.33,174.7L233.57,173.86L254.8,174.37L276.03,160.96L297.27,163.18L318.5,162.46L339.73,169.05L360.97,173.84L382.2,187.76L403.43,189.63L424.67,186.77L445.9,196.29L467.13,203.86L488.37,205.9L509.6,209.79L530.83,213.33L552.07,195.52L573.3,191.87L594.53,192.47L615.77,197.13L637,182.19" style="vector-effect: non-scaling-stroke; fill: none; stroke: rgb(189, 182, 33); stroke-opacity: 1; stroke-width: 2px; opacity: 1;"/></g><g class="points"/><g class="text"/></g><g class="trace scatter tracee27af3c5-1625-430a-9c23-5b9bb8f91970" style="stroke-miterlimit: 2; opacity: 0.1;"><g class="fills"/><g class="errorbars"/><g class="lines"><path class="js-line" d="M0,178.41L21.23,173.11L42.47,170.14L63.7,168.17L84.93,169.68L106.17,165.92L127.4,160.57L148.63,135.15L169.87,138.01L191.1,133.51L212.33,133.54L233.57,128.08L254.8,117.3L276.03,134.19L297.27,130.75L318.5,131.4L339.73,118.6L360.97,118.19L382.2,122.09L403.43,118.22L424.67,120.06L445.9,115.17L467.13,126.77L488.37,122.78L509.6,117.79L530.83,118.24L552.07,116.11L573.3,114.75L594.53,106.19L615.77,113.97L637,118.38" style="vector-effect: non-scaling-stroke; fill: none; stroke: rgb(107, 172, 39); stroke-opacity: 1; stroke-width: 2px; opacity: 1;"/></g><g class="points"/><g class="text"/></g><g class="trace scatter trace62d1c3e5-b2da-46a5-b78e-7049055b6e5f" style="stroke-miterlimit: 2; opacity: 0.1;"><g class="fills"/><g class="errorbars"/><g class="lines"><path class="js-line" d="M0,178.41L21.23,187L42.47,182.32L63.7,183.78L84.93,177.19L106.17,196.12L127.4,192.52L148.63,183.28L169.87,181.47L191.1,184.46L212.33,183.61L233.57,186.16L254.8,196.57L276.03,212.66L297.27,211.78L318.5,208L339.73,207.47L360.97,207.89L382.2,218.47L403.43,219.94L424.67,211.8L445.9,209.4L467.13,221.52L488.37,215.59L509.6,213.7L530.83,218.16L552.07,223.59L573.3,221.05L594.53,221.6L615.77,220.76L637,213.61" style="vector-effect: non-scaling-stroke; fill: none; stroke: rgb(205, 114, 25); stroke-opacity: 1; stroke-width: 2px; opacity: 1;"/></g><g class="points"/><g class="text"/></g><g class="trace scatter tracece5a688b-5946-4857-9a5a-d904afe42c2e" style="stroke-miterlimit: 2; opacity: 0.1;"><g class="fills"/><g class="errorbars"/><g class="lines"><path class="js-line" d="M0,178.41L21.23,185.36L42.47,201.33L63.7,200.13L84.93,204.85L106.17,206.94L127.4,203.35L148.63,187.84L169.87,200.01L191.1,203.35L212.33,202.98L233.57,207.95L254.8,198.8L276.03,200.69L297.27,191.84L318.5,192.78L339.73,188.73L360.97,186.58L382.2,191.12L403.43,192.38L424.67,185.8L445.9,183.29L467.13,177.94L509.6,175.42L530.83,164.23L573.3,161.3L594.53,163.07L615.77,170.6L637,166.86" style="vector-effect: non-scaling-stroke; fill: none; stroke: rgb(194, 162, 30); stroke-opacity: 1; stroke-width: 2px; opacity: 1;"/></g><g class="points"/><g class="text"/></g><g class="trace scatter trace525f4c72-4ae1-4b0d-9b88-259f28748b70" style="stroke-miterlimit: 2; opacity: 0.1;"><g class="fills"/><g class="errorbars"/><g class="lines"><path class="js-line" d="M0,178.41L21.23,182.5L42.47,167.38L63.7,164.17L84.93,164.33L106.17,156.8L127.4,152.29L169.87,152.4L191.1,151.47L212.33,159.16L233.57,154.5L254.8,150.74L276.03,155.35L297.27,163.62L318.5,155L339.73,154.74L360.97,148.15L382.2,147.2L403.43,147.78L424.67,132.72L445.9,135.21L467.13,134.4L488.37,141.8L509.6,147.18L530.83,162.82L552.07,164.91L573.3,161.7L594.53,172.4L615.77,180.89L637,183.19" style="vector-effect: non-scaling-stroke; fill: none; stroke: rgb(151, 181, 36); stroke-opacity: 1; stroke-width: 2px; opacity: 1;"/></g><g class="points"/><g class="text"/></g><g class="trace scatter traced7d2f136-1412-4d40-ab12-ed84935109c3" style="stroke-miterlimit: 2; opacity: 0.1;"><g class="fills"/><g class="errorbars"/><g class="lines"><path class="js-line" d="M0,178.41L21.23,181.76L42.47,211.76L63.7,193.08L84.93,209.02L106.17,208.06L127.4,221.67L148.63,201.5L169.87,203.8L191.1,199.33L212.33,202.8L233.57,216.76L254.8,221.91L276.03,216.87L297.27,209.02L318.5,211.75L339.73,207.48L360.97,199.31L382.2,211.08L403.43,217.49L424.67,216.11L445.9,227.04L467.13,227.88L488.37,208.36L509.6,211.83L530.83,208.64L552.07,217.33L573.3,200.41L594.53,193.13L615.77,194.94L637,203.68" style="vector-effect: non-scaling-stroke; fill: none; stroke: rgb(206, 112, 24); stroke-opacity: 1; stroke-width: 2px; opacity: 1;"/></g><g class="points"/><g class="text"/></g><g class="trace scatter trace766a13c3-f87e-4f77-b1c0-9680f95e1f3c" style="stroke-miterlimit: 2; opacity: 0.1;"><g class="fills"/><g class="errorbars"/><g class="lines"><path class="js-line" d="M0,178.41L21.23,169.7L42.47,175.03L63.7,184.5L84.93,182.77L106.17,177.34L127.4,173.55L148.63,183.36L169.87,180.1L191.1,182.3L212.33,188.36L233.57,182.59L254.8,184.51L276.03,179.86L297.27,187.07L318.5,189.26L339.73,188.71L360.97,194.48L382.2,197.53L403.43,196.7L424.67,195.11L467.13,207.33L488.37,192.86L509.6,191.98L530.83,183.7L552.07,179.87L573.3,172.96L594.53,161.55L615.77,147.9L637,144.45" style="vector-effect: non-scaling-stroke; fill: none; stroke: rgb(191, 176, 32); stroke-opacity: 1; stroke-width: 2px; opacity: 1;"/></g><g class="points"/><g class="text"/></g><g class="trace scatter trace206e5402-c194-4200-a12a-0b5b974104ee" style="stroke-miterlimit: 2; opacity: 0.1;"><g class="fills"/><g class="errorbars"/><g class="lines"><path class="js-line" d="M0,178.41L21.23,171.35L42.47,167.12L84.93,167.22L106.17,166.35L127.4,173.57L148.63,169.19L169.87,165.67L191.1,170L212.33,177.74L233.57,169.67L254.8,169.42L276.03,163.24L297.27,162.35L318.5,162.89L339.73,148.77L360.97,151.11L382.2,150.35L403.43,157.29L424.67,162.33L445.9,177L467.13,178.96L488.37,175.95L509.6,185.98L530.83,193.95L552.07,196.1L573.3,200.19L594.53,203.92L615.77,185.16L637,181.32" style="vector-effect: non-scaling-stroke; fill: none; stroke: rgb(173, 186, 34); stroke-opacity: 1; stroke-width: 2px; opacity: 1;"/></g><g class="points"/><g class="text"/></g><g class="trace scatter trace50489bc7-c56a-4398-9db4-6ba8bc76dc16" style="stroke-miterlimit: 2; opacity: 0.1;"><g class="fills"/><g class="errorbars"/><g class="lines"><path class="js-line" d="M0,178.41L21.23,179.91L42.47,193.03L63.7,196.15L84.93,224.08L106.17,206.69L127.4,221.54L148.63,220.64L169.87,233.31L191.1,214.53L212.33,216.67L233.57,212.51L254.8,215.74L276.03,228.74L297.27,233.54L318.5,228.84L339.73,221.53L360.97,224.07L382.2,220.1L403.43,212.49L424.67,223.45L445.9,229.42L467.13,228.14L488.37,238.31L509.6,239.09L530.83,220.92L552.07,224.15L573.3,221.17L594.53,229.27L615.77,213.52L637,206.73" style="vector-effect: non-scaling-stroke; fill: none; stroke: rgb(213, 81, 21); stroke-opacity: 1; stroke-width: 2px; opacity: 1;"/></g><g class="points"/><g class="text"/></g><g class="trace scatter tracef1ceb963-5ace-43c3-9ff3-6f3a479056a2" style="stroke-miterlimit: 2; opacity: 0.1;"><g class="fills"/><g class="errorbars"/><g class="lines"><path class="js-line" d="M0,178.41L21.23,201.64L42.47,195.95L63.7,201.16L84.93,199.49L106.17,197.31L127.4,201.91L169.87,197.99L191.1,197.04L212.33,196.05L233.57,198.07L254.8,191.76L276.03,189.64L297.27,186.5L318.5,186.76L339.73,186.89L360.97,184.14L382.2,187.13L403.43,196.5L424.67,194.4L445.9,199.77L467.13,190.55L488.37,191.48L530.83,189.85L552.07,191.3L573.3,188.61L594.53,189.8L615.77,192.74L637,193.64" style="vector-effect: non-scaling-stroke; fill: none; stroke: rgb(196, 153, 29); stroke-opacity: 1; stroke-width: 2px; opacity: 1;"/></g><g class="points"/><g class="text"/></g><g class="trace scatter trace8be45e16-2290-44b4-b8e4-63670d0b0559" style="stroke-miterlimit: 2; opacity: 0.1;"><g class="fills"/><g class="errorbars"/><g class="lines"><path class="js-line" d="M0,178.41L21.23,176.89L42.47,172.86L63.7,177.99L84.93,167.72L106.17,162.95L127.4,164.76L148.63,166.83L169.87,162.14L191.1,167.11L212.33,187.09L233.57,197.87L254.8,184.59L276.03,178.34L297.27,188.06L318.5,188.72L339.73,186.4L382.2,196.49L403.43,194.14L424.67,183.27L445.9,162.85L467.13,165.25L488.37,162.58L509.6,157.73L530.83,147.11L552.07,128.94L573.3,136.17L594.53,135.39L615.77,130.67L637,132.04" style="vector-effect: non-scaling-stroke; fill: none; stroke: rgb(171, 185, 35); stroke-opacity: 1; stroke-width: 2px; opacity: 1;"/></g><g class="points"/><g class="text"/></g><g class="trace scatter trace912cd659-3752-4556-88bb-ef523051eee3" style="stroke-miterlimit: 2; opacity: 0.1;"><g class="fills"/><g class="errorbars"/><g class="lines"><path class="js-line" d="M0,178.41L21.23,174.49L42.47,164.41L63.7,162.43L84.93,165.69L106.17,164.77L127.4,167.54L148.63,178.91L169.87,196.46L191.1,195.5L212.33,191.37L233.57,190.79L254.8,191.26L276.03,202.8L297.27,204.4L318.5,195.53L339.73,192.91L360.97,206.13L382.2,199.66L403.43,197.6L424.67,202.46L445.9,208.39L467.13,205.61L488.37,206.22L509.6,205.3L530.83,197.5L552.07,198.69L573.3,189.81L594.53,189.88L615.77,191.54L637,190.06" style="vector-effect: non-scaling-stroke; fill: none; stroke: rgb(196, 152, 29); stroke-opacity: 1; stroke-width: 2px; opacity: 1;"/></g><g class="points"/><g class="text"/></g><g class="trace scatter tracee5d6837b-4e8a-4854-9594-ea7bdc3d0d00" style="stroke-miterlimit: 2; opacity: 0.1;"><g class="fills"/><g class="errorbars"/><g class="lines"><path class="js-line" d="M0,178.41L21.23,172.21L42.47,191.59L63.7,187.19L84.93,171.97L106.17,173.27L127.4,164.35L148.63,169.8L169.87,179.5L191.1,177.73L212.33,172.17L233.57,168.28L254.8,178.33L276.03,175L297.27,177.25L318.5,183.46L339.73,177.54L360.97,179.51L382.2,174.75L403.43,182.13L424.67,184.38L445.9,183.81L467.13,189.73L488.37,192.86L509.6,192L530.83,190.37L552.07,196.28L573.3,202.89L594.53,188.07L615.77,187.16L637,178.69" style="vector-effect: non-scaling-stroke; fill: none; stroke: rgb(188, 186, 33); stroke-opacity: 1; stroke-width: 2px; opacity: 1;"/></g><g class="points"/><g class="text"/></g><g class="trace scatter trace0b95bc6c-b774-4035-b0d3-f947195f8d83" style="stroke-miterlimit: 2; opacity: 0.1;"><g class="fills"/><g class="errorbars"/><g class="lines"><path class="js-line" d="M0,178.41L42.47,186.95L63.7,166.48L84.93,162.29L106.17,162.98L127.4,168.33L148.63,151.17L169.87,150.73L191.1,155.8L212.33,153.34L233.57,169.81L254.8,152.24L276.03,156.56L297.27,152.74L318.5,146.32L339.73,148.9L360.97,158.96L382.2,155.41L403.43,184.61L445.9,183.73L467.13,196.5L488.37,197.88L509.6,209.88L530.83,212.73L552.07,238.28L573.3,222.37L594.53,235.95L615.77,235.13L637,246.72" style="vector-effect: non-scaling-stroke; fill: none; stroke: rgb(175, 186, 34); stroke-opacity: 1; stroke-width: 2px; opacity: 1;"/></g><g class="points"/><g class="text"/></g><g class="trace scatter trace6df42ef2-b200-403e-b81a-9f3ab8384be3" style="stroke-miterlimit: 2; opacity: 0.1;"><g class="fills"/><g class="errorbars"/><g class="lines"><path class="js-line" d="M0,178.41L21.23,175.98L42.47,171.28L63.7,169.8L84.93,166.71L106.17,168.8L127.4,168.86L148.63,167.16L169.87,170.77L191.1,169.98L212.33,167.2L233.57,162.38L254.8,159.31L276.03,142.4L297.27,138.76L318.5,139.65L339.73,135.98L360.97,137.59L382.2,137.14L403.43,125.81L424.67,132.98L445.9,129.31L467.13,127.28L488.37,122.8L509.6,123.37L530.83,127.49L552.07,118.29L573.3,115.95L594.53,87.89L615.77,88.08L637,102.86" style="vector-effect: non-scaling-stroke; fill: none; stroke: rgb(126, 176, 38); stroke-opacity: 1; stroke-width: 2px; opacity: 1;"/></g><g class="points"/><g class="text"/></g><g class="trace scatter trace1f434d59-5e77-4337-8f83-b306d05a4c8c" style="stroke-miterlimit: 2; opacity: 0.1;"><g class="fills"/><g class="errorbars"/><g class="lines"><path class="js-line" d="M0,178.41L21.23,170.36L42.47,170.12L63.7,163.95L84.93,163.07L106.17,163.61L127.4,149.53L148.63,151.86L169.87,151.1L191.1,158.02L212.33,163.05L233.57,177.67L254.8,179.62L276.03,176.62L297.27,186.62L318.5,194.56L339.73,196.71L382.2,204.51L403.43,185.81L424.67,181.98L445.9,182.61L467.13,187.5L488.37,171.81L509.6,171.41L530.83,176.04L552.07,173.8L573.3,188.85L594.53,172.79L615.77,176.74L637,173.25" style="vector-effect: non-scaling-stroke; fill: none; stroke: rgb(184, 188, 34); stroke-opacity: 1; stroke-width: 2px; opacity: 1;"/></g><g class="points"/><g class="text"/></g><g class="trace scatter trace451be5ab-7ec8-42bd-9bc9-6f4514d2dc59" style="stroke-miterlimit: 2; opacity: 0.1;"><g class="fills"/><g class="errorbars"/><g class="lines"><path class="js-line" d="M0,178.41L21.23,172.28L42.47,167.2L63.7,167.79L84.93,175.85L106.17,144.77L127.4,137.59L148.63,140.6L169.87,148.79L191.1,167.6L212.33,166.18L233.57,171.75L254.8,174.21L276.03,169.98L297.27,151.7L318.5,166.05L339.73,169.99L360.97,169.55L382.2,175.41L403.43,164.63L424.67,166.85L445.9,156.42L467.13,157.53L488.37,152.75L509.6,150.23L530.83,155.57L552.07,157.05L573.3,149.3L594.53,146.35L615.77,140.04L637,138.21" style="vector-effect: non-scaling-stroke; fill: none; stroke: rgb(165, 184, 35); stroke-opacity: 1; stroke-width: 2px; opacity: 1;"/></g><g class="points"/><g class="text"/></g><g class="trace scatter traceb9acff72-b90b-47f2-9acc-a06ab02c9199" style="stroke-miterlimit: 2; opacity: 0.1;"><g class="fills"/><g class="errorbars"/><g class="lines"><path class="js-line" d="M0,178.41L21.23,178.96L42.47,186.63L63.7,157.11L84.93,150.29L106.17,153.14L127.4,160.92L148.63,178.79L169.87,177.44L191.1,182.73L212.33,185.07L233.57,181.05L254.8,163.69L276.03,177.31L297.27,181.06L318.5,180.64L339.73,186.21L360.97,175.97L382.2,178.08L403.43,168.17L424.67,169.23L445.9,164.69L467.13,162.29L488.37,167.37L509.6,168.77L530.83,161.41L552.07,158.6L573.3,152.61L594.53,150.87L615.77,149.8L637,137.28" style="vector-effect: non-scaling-stroke; fill: none; stroke: rgb(172, 185, 35); stroke-opacity: 1; stroke-width: 2px; opacity: 1;"/></g><g class="points"/><g class="text"/></g><g class="trace scatter trace95938253-9acc-4a9f-8ccc-ff8020c7802e" style="stroke-miterlimit: 2; opacity: 0.1;"><g class="fills"/><g class="errorbars"/><g class="lines"><path class="js-line" d="M0,178.41L21.23,186.03L42.47,179.28L63.7,184.69L84.93,178.74L106.17,173.81L127.4,174.38L148.63,182.21L169.87,152.05L191.1,145.08L212.33,148L233.57,155.95L254.8,174.2L276.03,172.83L297.27,178.22L318.5,180.61L339.73,176.51L360.97,158.78L382.2,172.69L403.43,176.52L424.67,176.09L445.9,181.78L467.13,171.32L488.37,173.48L509.6,163.35L530.83,164.43L552.07,159.79L573.3,157.34L594.53,162.53L615.77,163.96L637,156.44" style="vector-effect: non-scaling-stroke; fill: none; stroke: rgb(180, 187, 34); stroke-opacity: 1; stroke-width: 2px; opacity: 1;"/></g><g class="points"/><g class="text"/></g><g class="trace scatter trace1f12774c-ed09-4f77-bb2c-dbad748de27f" style="stroke-miterlimit: 2; opacity: 0.1;"><g class="fills"/><g class="errorbars"/><g class="lines"><path class="js-line" d="M0,178.41L21.23,181.21L42.47,192.08L63.7,193.77L84.93,200.69L148.63,199.52L169.87,195.38L191.1,190.02L212.33,196.15L233.57,193.87L254.8,193.76L276.03,193.82L297.27,197.79L318.5,197.1L339.73,200.26L360.97,204.73L382.2,224.07L403.43,230.34L424.67,224.98L467.13,221.72L488.37,222.4L509.6,220.8L530.83,218.26L552.07,216.21L573.3,217.51L594.53,214.84L615.77,213.8L637,222.01" style="vector-effect: non-scaling-stroke; fill: none; stroke: rgb(201, 133, 27); stroke-opacity: 1; stroke-width: 2px; opacity: 1;"/></g><g class="points"/><g class="text"/></g><g class="trace scatter traceaa21544a-f8f6-4717-9da5-8a29ffb4ab5a" style="stroke-miterlimit: 2; opacity: 0.1;"><g class="fills"/><g class="errorbars"/><g class="lines"><path class="js-line" d="M0,178.41L21.23,181.51L42.47,182.47L63.7,183.03L84.93,180.57L106.17,178.1L127.4,181.89L148.63,180.58L169.87,175.48L191.1,173.02L212.33,168.25L233.57,166.75L254.8,163.62L276.03,165.74L297.27,165.79L318.5,164.08L339.73,167.73L360.97,166.93L382.2,164.12L403.43,159.23L424.67,156.11L445.9,138.97L467.13,135.28L488.37,136.18L509.6,132.47L530.83,134.1L552.07,133.64L573.3,122.15L594.53,129.42L615.77,125.7L637,123.64" style="vector-effect: non-scaling-stroke; fill: none; stroke: rgb(168, 185, 35); stroke-opacity: 1; stroke-width: 2px; opacity: 1;"/></g><g class="points"/><g class="text"/></g><g class="trace scatter tracede5d928a-5b8f-4caf-9ac7-cc5d92eed6dc" style="stroke-miterlimit: 2; opacity: 0.1;"><g class="fills"/><g class="errorbars"/><g class="lines"><path class="js-line" d="M0,178.41L21.23,183.41L42.47,173.41L63.7,168.75L84.93,170.52L106.17,172.54L127.4,167.96L148.63,172.81L169.87,192.28L191.1,202.79L212.33,189.84L233.57,183.75L254.8,193.22L276.03,193.87L297.27,191.61L339.73,201.44L360.97,199.15L382.2,188.55L403.43,168.66L424.67,171L445.9,168.39L467.13,163.67L488.37,153.32L509.6,135.61L530.83,142.66L552.07,141.9L573.3,137.3L594.53,138.64L615.77,125.68L637,132.47" style="vector-effect: non-scaling-stroke; fill: none; stroke: rgb(178, 187, 34); stroke-opacity: 1; stroke-width: 2px; opacity: 1;"/></g><g class="points"/><g class="text"/></g><g class="trace scatter traced12bc2f1-4ef3-488f-af3a-6ed60c16ee8f" style="stroke-miterlimit: 2; opacity: 0.1;"><g class="fills"/><g class="errorbars"/><g class="lines"><path class="js-line" d="M0,178.41L21.23,180.84L42.47,177.2L63.7,178.33L84.93,173.79L106.17,174.93L127.4,169.89L148.63,179.76L169.87,202.84L191.1,197.19L212.33,202.36L254.8,198.54L276.03,203.1L318.5,199.22L339.73,198.27L360.97,197.29L382.2,199.29L403.43,193.02L424.67,190.92L445.9,187.8L467.13,188.06L488.37,188.18L509.6,185.46L530.83,188.42L552.07,197.73L573.3,195.65L594.53,200.98L615.77,191.83L637,192.74" style="vector-effect: non-scaling-stroke; fill: none; stroke: rgb(196, 153, 29); stroke-opacity: 1; stroke-width: 2px; opacity: 1;"/></g><g class="points"/><g class="text"/></g><g class="trace scatter trace608a04b4-da35-43db-976f-ecf2ba2f144f" style="stroke-miterlimit: 2; opacity: 0.1;"><g class="fills"/><g class="errorbars"/><g class="lines"><path class="js-line" d="M0,178.41L21.23,188L42.47,184.82L63.7,186.97L84.93,192.9L106.17,187.25L127.4,189.13L148.63,184.59L169.87,191.63L191.1,193.77L212.33,193.23L233.57,198.88L254.8,201.86L297.27,199.49L318.5,205.13L339.73,211.44L360.97,197.29L382.2,196.43L403.43,188.34L424.67,184.59L445.9,177.84L467.13,166.69L488.37,153.35L509.6,149.97L530.83,149.99L552.07,136.83L573.3,141.3L594.53,151.02L615.77,155.21L637,160.86" style="vector-effect: non-scaling-stroke; fill: none; stroke: rgb(193, 166, 31); stroke-opacity: 1; stroke-width: 2px; opacity: 1;"/></g><g class="points"/><g class="text"/></g><g class="trace scatter trace96887e6c-3548-4993-b512-b77fdbfa63b2" style="stroke-miterlimit: 2; opacity: 0.1;"><g class="fills"/><g class="errorbars"/><g class="lines"><path class="js-line" d="M0,178.41L21.23,176.55L42.47,170.28L63.7,155.49L84.93,157.5L106.17,164.68L127.4,165.06L148.63,167.33L169.87,166.43L191.1,162.47L212.33,169.12L233.57,181.47L254.8,180.47L276.03,192.49L297.27,188.45L318.5,182.69L339.73,186.47L360.97,194.73L382.2,190.23L403.43,191.63L424.67,185.29L445.9,203.5L467.13,200.04L488.37,191.15L509.6,189.41L530.83,192.28L552.07,191.47L573.3,193.92L594.53,203.94L615.77,219.42L637,218.57" style="vector-effect: non-scaling-stroke; fill: none; stroke: rgb(192, 168, 31); stroke-opacity: 1; stroke-width: 2px; opacity: 1;"/></g><g class="points"/><g class="text"/></g><g class="trace scatter tracec364b11f-ec35-4018-a6e4-2d88673b7eb1" style="stroke-miterlimit: 2; opacity: 0.1;"><g class="fills"/><g class="errorbars"/><g class="lines"><path class="js-line" d="M0,178.41L21.23,175.82L42.47,170.27L84.93,167.66L106.17,156.07L148.63,153.03L169.87,154.87L191.1,162.66L212.33,158.79L233.57,161.16L254.8,158.17L276.03,157.31L297.27,162.73L318.5,174.38L339.73,173.01L360.97,178.97L382.2,176.46L403.43,179.44L424.67,192.59L445.9,189.87L467.13,184.5L488.37,190.53L509.6,187.48L530.83,188.35L552.07,191.85L573.3,186.23L594.53,182.77L615.77,183.45L637,187.84" style="vector-effect: non-scaling-stroke; fill: none; stroke: rgb(184, 188, 34); stroke-opacity: 1; stroke-width: 2px; opacity: 1;"/></g><g class="points"/><g class="text"/></g><g class="trace scatter trace25c528e5-a9c6-442e-9261-c4a0ab68b3a1" style="stroke-miterlimit: 2; opacity: 0.1;"><g class="fills"/><g class="errorbars"/><g class="lines"><path class="js-line" d="M0,178.41L21.23,179.9L42.47,173.18L63.7,192.47L84.93,188.8L106.17,179.39L127.4,177.55L148.63,180.59L169.87,179.73L191.1,182.32L212.33,192.93L233.57,209.32L254.8,208.42L276.03,204.57L297.27,204.03L318.5,204.46L339.73,215.24L360.97,216.74L382.2,208.45L403.43,206L424.67,218.35L445.9,212.3L467.13,210.38L488.37,214.92L509.6,220.46L530.83,217.86L552.07,218.43L573.3,217.57L594.53,210.29L615.77,211.4L637,203.11" style="vector-effect: non-scaling-stroke; fill: none; stroke: rgb(204, 119, 25); stroke-opacity: 1; stroke-width: 2px; opacity: 1;"/></g><g class="points"/><g class="text"/></g><g class="trace scatter trace44fdbcf8-a88a-4b70-a349-c4716bbeca19" style="stroke-miterlimit: 2; opacity: 0.1;"><g class="fills"/><g class="errorbars"/><g class="lines"><path class="js-line" d="M0,178.41L21.23,177.58L42.47,184.44L63.7,180.28L84.93,176.93L106.17,181.04L127.4,188.4L148.63,180.73L169.87,180.5L191.1,174.62L212.33,173.78L233.57,174.3L254.8,160.88L276.03,163.1L297.27,162.38L318.5,168.97L339.73,173.77L360.97,187.69L382.2,189.56L403.43,186.7L424.67,196.22L445.9,203.79L467.13,205.84L509.6,213.27L530.83,195.45L552.07,191.8L573.3,192.4L594.53,197.06L615.77,182.12L637,181.73" style="vector-effect: non-scaling-stroke; fill: none; stroke: rgb(190, 180, 32); stroke-opacity: 1; stroke-width: 2px; opacity: 1;"/></g><g class="points"/><g class="text"/></g><g class="trace scatter trace7b0f72ac-21f4-4c50-a758-40c0e59d4f84" style="stroke-miterlimit: 2; opacity: 0.1;"><g class="fills"/><g class="errorbars"/><g class="lines"><path class="js-line" d="M0,178.41L21.23,206.02L42.47,193.49L63.7,198.68L84.93,197.59L106.17,197.62L127.4,196.35L148.63,208.91L169.87,190.99L191.1,185.68L212.33,185.62L233.57,192.61L254.8,190.02L276.03,178.42L297.27,165.55L318.5,169.63L339.73,161.54L360.97,156.18L382.2,158.52L403.43,113.21L424.67,112.94L445.9,122.58L467.13,103.68L488.37,107.75L509.6,108.55L530.83,100.04L552.07,104.03L573.3,96.72L594.53,78.87L615.77,82.26L637,56.23" style="vector-effect: non-scaling-stroke; fill: none; stroke: rgb(168, 185, 35); stroke-opacity: 1; stroke-width: 2px; opacity: 1;"/></g><g class="points"/><g class="text"/></g><g class="trace scatter tracee0da6de3-8c66-4889-a411-dd877616e0cb" style="stroke-miterlimit: 2; opacity: 0.1;"><g class="fills"/><g class="errorbars"/><g class="lines"><path class="js-line" d="M0,178.41L21.23,180.7L42.47,180.12L63.7,186.14L84.93,189.32L106.17,188.45L127.4,186.79L169.87,199.54L191.1,184.45L212.33,183.53L233.57,174.9L254.8,170.9L276.03,163.71L297.27,151.81L318.5,137.58L339.73,133.98L360.97,134L382.2,119.97L403.43,124.74L424.67,135.1L445.9,139.57L467.13,145.6L488.37,135.88L509.6,128.58L530.83,115.93L552.07,104.8L573.3,109.79L594.53,94.03L615.77,98.32L637,98.79" style="vector-effect: non-scaling-stroke; fill: none; stroke: rgb(136, 178, 37); stroke-opacity: 1; stroke-width: 2px; opacity: 1;"/></g><g class="points"/><g class="text"/></g><g class="trace scatter tracecdb9ea3c-7e9f-4e5c-8853-e16404d42c64" style="stroke-miterlimit: 2; opacity: 0.1;"><g class="fills"/><g class="errorbars"/><g class="lines"><path class="js-line" d="M0,178.41L21.23,175.55L42.47,176.82L63.7,179.94L84.93,180.9L106.17,181.46L127.4,179L148.63,176.51L169.87,180.32L191.1,179L212.33,173.86L233.57,171.38L254.8,166.57L276.03,165.07L297.27,161.92L318.5,164.05L339.73,164.1L360.97,162.37L382.2,166.06L403.43,165.25L424.67,162.41L445.9,157.49L467.13,154.35L488.37,137.08L509.6,133.36L530.83,134.27L552.07,130.53L573.3,132.17L594.53,131.71L615.77,120.13L637,127.46" style="vector-effect: non-scaling-stroke; fill: none; stroke: rgb(167, 184, 35); stroke-opacity: 1; stroke-width: 2px; opacity: 1;"/></g><g class="points"/><g class="text"/></g><g class="trace scatter trace9a4ce86f-92a2-43aa-a031-d2398e86ab94" style="stroke-miterlimit: 2; opacity: 0.1;"><g class="fills"/><g class="errorbars"/><g class="lines"><path class="js-line" d="M0,178.41L21.23,173.87L42.47,175.01L63.7,169.98L84.93,179.84L106.17,202.91L127.4,197.27L148.63,202.44L169.87,200.78L191.1,198.61L212.33,203.18L254.8,199.29L276.03,198.35L297.27,197.36L318.5,199.36L339.73,193.1L360.97,191L382.2,187.88L403.43,188.14L424.67,188.26L445.9,185.53L467.13,188.5L488.37,197.8L509.6,195.72L530.83,201.05L552.07,191.9L573.3,192.82L615.77,191.2L637,192.65" style="vector-effect: non-scaling-stroke; fill: none; stroke: rgb(196, 152, 29); stroke-opacity: 1; stroke-width: 2px; opacity: 1;"/></g><g class="points"/><g class="text"/></g><g class="trace scatter trace0de49f34-504c-4f21-af89-9987f6319b1c" style="stroke-miterlimit: 2; opacity: 0.1;"><g class="fills"/><g class="errorbars"/><g class="lines"><path class="js-line" d="M0,178.41L21.23,179.76L42.47,171.77L63.7,172.89L84.93,178.08L106.17,179.67L127.4,177.82L148.63,171.58L169.87,156.88L191.1,158.88L212.33,166.02L233.57,166.39L254.8,168.65L276.03,167.76L297.27,163.82L318.5,170.43L339.73,182.7L360.97,181.71L382.2,193.66L403.43,189.64L424.67,183.92L445.9,187.67L467.13,195.89L488.37,191.41L509.6,192.81L530.83,186.5L552.07,204.61L573.3,201.17L594.53,192.33L615.77,190.6L637,193.45" style="vector-effect: non-scaling-stroke; fill: none; stroke: rgb(188, 185, 33); stroke-opacity: 1; stroke-width: 2px; opacity: 1;"/></g><g class="points"/><g class="text"/></g><g class="trace scatter traceb1e1abcb-657b-4e71-8810-4b9e816af092" style="stroke-miterlimit: 2; opacity: 0.1;"><g class="fills"/><g class="errorbars"/><g class="lines"><path class="js-line" d="M0,178.41L21.23,177.01L42.47,190.82L63.7,171.11L84.93,165.28L106.17,165.21L127.4,172.9L148.63,170.05L169.87,157.3L191.1,143.14L212.33,147.63L233.57,138.73L254.8,132.84L276.03,135.41L297.27,85.58L318.5,85.28L339.73,95.89L360.97,75.1L382.2,79.58L403.43,80.46L424.67,71.1L445.9,75.48L467.13,67.45L488.37,47.82L509.6,51.55L530.83,22.93L552.07,23.35L573.3,13.05L594.53,34.88L615.77,69.04L637,63.88" style="vector-effect: non-scaling-stroke; fill: none; stroke: rgb(44, 160, 44); stroke-opacity: 1; stroke-width: 2px; opacity: 1;"/></g><g class="points"/><g class="text"/></g><g class="trace scatter traceaf3ff1dd-b179-4998-86ca-01a263a50b27" style="stroke-miterlimit: 2; opacity: 0.1;"><g class="fills"/><g class="errorbars"/><g class="lines"><path class="js-line" d="M0,178.41L21.23,180.86L42.47,184.96L84.93,178.94L106.17,162.68L127.4,162.2" style="vector-effect: non-scaling-stroke; fill: none; stroke: rgb(188, 187, 33); stroke-opacity: 1; stroke-width: 2px; opacity: 1;"/></g><g class="points"/><g class="text"/></g><g class="trace scatter trace0eace0ca-0e73-47d1-993d-10846400bbce" style="stroke-miterlimit: 2; opacity: 0.1;"><g class="fills"/><g class="errorbars"/><g class="lines"><path class="js-line" d="M0,178.41L21.23,167.78L42.47,169.98L63.7,159.68L84.93,160.78L106.17,156.07L127.4,153.58L148.63,158.85L169.87,160.31L191.1,152.67L212.33,149.76L233.57,143.53L254.8,141.73L276.03,140.62L297.27,127.61L339.73,124.21L360.97,126.27L382.2,135.01L403.43,130.67L424.67,133.32L445.9,129.97L467.13,129L488.37,135.08L509.6,148.14L530.83,146.6L552.07,153.3L573.3,150.48L594.53,153.82L615.77,168.57L637,165.52" style="vector-effect: non-scaling-stroke; fill: none; stroke: rgb(143, 180, 37); stroke-opacity: 1; stroke-width: 2px; opacity: 1;"/></g><g class="points"/><g class="text"/></g><g class="trace scatter trace2eb5910e-8294-4dd7-8d7d-4309716037ae" style="stroke-miterlimit: 2; opacity: 0.1;"><g class="fills"/><g class="errorbars"/><g class="lines"><path class="js-line" d="M0,178.41L21.23,179.76L42.47,171.77L63.7,172.89L84.93,178.08L106.17,179.67L127.4,177.82L148.63,171.58L169.87,156.88L191.1,158.88L212.33,166.02L233.57,166.39L254.8,168.65L276.03,167.76L297.27,163.82L318.5,170.43L339.73,182.7L360.97,181.71L382.2,193.66L403.43,189.64L424.67,183.92L445.9,187.67L467.13,195.89L488.37,191.41L509.6,192.81L530.83,186.5L552.07,204.61L573.3,201.17L594.53,192.33L615.77,190.6L637,193.45" style="vector-effect: non-scaling-stroke; fill: none; stroke: rgb(188, 185, 33); stroke-opacity: 1; stroke-width: 2px; opacity: 1;"/></g><g class="points"/><g class="text"/></g><g class="trace scatter trace25529198-6ae7-4211-acfa-51ece904168a" style="stroke-miterlimit: 2; opacity: 0.1;"><g class="fills"/><g class="errorbars"/><g class="lines"><path class="js-line" d="M0,178.41L21.23,173.45L42.47,183.16L63.7,205.87L84.93,200.31L106.17,205.4L127.4,203.77L148.63,201.64L169.87,206.13L212.33,202.3L233.57,201.37L254.8,200.41L276.03,202.38L297.27,196.21L318.5,194.14L339.73,191.07L360.97,191.33L382.2,191.45L403.43,188.76L424.67,191.68L445.9,200.84L467.13,198.79L488.37,204.04L509.6,195.03L530.83,195.94L573.3,194.34L594.53,195.76L615.77,193.14L637,194.3" style="vector-effect: non-scaling-stroke; fill: none; stroke: rgb(198, 145, 28); stroke-opacity: 1; stroke-width: 2px; opacity: 1;"/></g><g class="points"/><g class="text"/></g><g class="trace scatter trace69dab0c2-f695-4c3b-986f-f8ea640ee06f" style="stroke-miterlimit: 2; opacity: 0.1;"><g class="fills"/><g class="errorbars"/><g class="lines"><path class="js-line" d="M0,178.41L21.23,180.5L42.47,170.7L63.7,171.75L84.93,167.26L106.17,164.89L127.4,169.91L148.63,171.3L169.87,164.02L191.1,161.25L212.33,155.32L254.8,152.54L276.03,140.16L318.5,136.92L339.73,138.88L360.97,147.2L382.2,143.07L403.43,145.6L424.67,142.41L445.9,141.48L467.13,147.27L488.37,159.71L509.6,158.25L530.83,164.62L552.07,161.94L573.3,165.12L594.53,179.16L615.77,176.25L637,170.52" style="vector-effect: non-scaling-stroke; fill: none; stroke: rgb(161, 183, 35); stroke-opacity: 1; stroke-width: 2px; opacity: 1;"/></g><g class="points"/><g class="text"/></g><g class="trace scatter tracef5faae1c-544e-492a-8581-b5f5c21d0be9" style="stroke-miterlimit: 2; opacity: 0.1;"><g class="fills"/><g class="errorbars"/><g class="lines"><path class="js-line" d="M0,178.41L21.23,197.24L42.47,192.97L63.7,178.18L84.93,179.44L106.17,170.77L127.4,176.07L148.63,185.5L169.87,183.77L191.1,178.37L212.33,174.6L233.57,184.36L254.8,181.12L276.03,183.31L297.27,189.34L318.5,183.59L339.73,185.51L360.97,180.88L382.2,188.05L403.43,190.24L424.67,189.69L445.9,195.44L467.13,198.47L509.6,196.06L530.83,201.8L552.07,208.22L573.3,193.82L594.53,192.94L615.77,184.71L637,180.89" style="vector-effect: non-scaling-stroke; fill: none; stroke: rgb(192, 170, 31); stroke-opacity: 1; stroke-width: 2px; opacity: 1;"/></g><g class="points"/><g class="text"/></g><g class="trace scatter tracec01ba58e-a372-42ba-93dc-92e9868bd829" style="stroke-miterlimit: 2; opacity: 0.1;"><g class="fills"/><g class="errorbars"/><g class="lines"><path class="js-line" d="M0,178.41L21.23,178.48L42.47,177.65L63.7,184.51L84.93,180.35L106.17,177.01L127.4,181.12L148.63,188.47L169.87,180.8L191.1,180.57L212.33,174.7L233.57,173.86L254.8,174.37L276.03,160.96L297.27,163.18L318.5,162.46L339.73,169.05L360.97,173.84L382.2,187.76L403.43,189.63L424.67,186.77L445.9,196.29L467.13,203.86L488.37,205.9L509.6,209.79L530.83,213.33L552.07,195.52L573.3,191.87L594.53,192.47L615.77,197.13L637,182.19" style="vector-effect: non-scaling-stroke; fill: none; stroke: rgb(189, 182, 33); stroke-opacity: 1; stroke-width: 2px; opacity: 1;"/></g><g class="points"/><g class="text"/></g><g class="trace scatter trace60a94743-cf64-44d9-bc33-25e9c3897348" style="stroke-miterlimit: 2; opacity: 0.1;"><g class="fills"/><g class="errorbars"/><g class="lines"><path class="js-line" d="M0,178.41L21.23,208.89L42.47,189.91L63.7,206.11L84.93,205.13L106.17,218.96L127.4,198.47L148.63,200.8L169.87,196.26L191.1,199.79L212.33,213.97L233.57,219.21L254.8,214.08L276.03,206.1L297.27,208.88L318.5,204.54L339.73,196.24L360.97,208.2L382.2,214.71L403.43,213.31L424.67,224.42L445.9,225.27L467.13,205.44L488.37,208.96L509.6,205.71L530.83,214.55L552.07,197.36L573.3,189.96L594.53,191.8L615.77,200.68L637,201.95" style="vector-effect: non-scaling-stroke; fill: none; stroke: rgb(204, 120, 25); stroke-opacity: 1; stroke-width: 2px; opacity: 1;"/></g><g class="points"/><g class="text"/></g><g class="trace scatter trace68002b2c-f780-47f1-81ac-a7e6c7b7d6b6" style="stroke-miterlimit: 2; opacity: 0.1;"><g class="fills"/><g class="errorbars"/><g class="lines"><path class="js-line" d="M0,178.41L21.23,167.78L42.47,169.98L63.7,159.68L84.93,160.78L106.17,156.07L127.4,153.58L148.63,158.85L169.87,160.31L191.1,152.67L212.33,149.76L233.57,143.53L254.8,141.73L276.03,140.62L297.27,127.61L339.73,124.21L360.97,126.27L382.2,135.01L403.43,130.67L424.67,133.32L445.9,129.97L467.13,129L488.37,135.08L509.6,148.14L530.83,146.6L552.07,153.3L573.3,150.48L594.53,153.82L615.77,168.57L637,165.52" style="vector-effect: non-scaling-stroke; fill: none; stroke: rgb(143, 180, 37); stroke-opacity: 1; stroke-width: 2px; opacity: 1;"/></g><g class="points"/><g class="text"/></g><g class="trace scatter trace3e6a4df0-ada0-489c-8940-87e655dc33a7" style="stroke-miterlimit: 2; opacity: 0.1;"><g class="fills"/><g class="errorbars"/><g class="lines"><path class="js-line" d="M0,178.41L21.23,178.76L42.47,180.9L63.7,180.05L84.93,176.33L106.17,182.58L127.4,194.17L148.63,193.24L169.87,204.52L191.1,200.73L212.33,195.32L233.57,198.87L254.8,206.63L276.03,202.4L297.27,203.72L318.5,197.76L339.73,214.87L360.97,211.62L382.2,203.27L403.43,201.63L424.67,204.33L445.9,203.57L467.13,205.87L488.37,215.28L509.6,229.82L530.83,229.02L552.07,225.6L573.3,225.12L594.53,225.51L615.77,235.07L637,236.39" style="vector-effect: non-scaling-stroke; fill: none; stroke: rgb(203, 125, 26); stroke-opacity: 1; stroke-width: 2px; opacity: 1;"/></g><g class="points"/><g class="text"/></g><g class="trace scatter tracef35f5074-7b61-45e4-8b9c-5184ad2ad3ff" style="stroke-miterlimit: 2; opacity: 0.1;"><g class="fills"/><g class="errorbars"/><g class="lines"><path class="js-line" d="M0,178.41L21.23,173.45L42.47,183.16L63.7,205.87L84.93,200.31L106.17,205.4L127.4,203.77L148.63,201.64L169.87,206.13L212.33,202.3L233.57,201.37L254.8,200.41L276.03,202.38L297.27,196.21L318.5,194.14L339.73,191.07L360.97,191.33L382.2,191.45L403.43,188.76L424.67,191.68L445.9,200.84L467.13,198.79L488.37,204.04L509.6,195.03L530.83,195.94L573.3,194.34L594.53,195.76L615.77,193.14L637,194.3" style="vector-effect: non-scaling-stroke; fill: none; stroke: rgb(198, 145, 28); stroke-opacity: 1; stroke-width: 2px; opacity: 1;"/></g><g class="points"/><g class="text"/></g><g class="trace scatter tracef5501b73-0937-4e0f-baaa-1555659cf406" style="stroke-miterlimit: 2; opacity: 0.1;"><g class="fills"/><g class="errorbars"/><g class="lines"><path class="js-line" d="M0,178.41L21.23,163.71L42.47,171.94L63.7,184.4L84.93,179.6L106.17,172.14L127.4,176.83L148.63,175.42L169.87,175.15L191.1,177.93L212.33,190.04L233.57,189.09L254.8,196.63L276.03,200.38L297.27,186.55L318.5,183.62L339.73,183.76L360.97,176.88L382.2,172.76L424.67,172.86L445.9,172.01L467.13,179.04L488.37,174.78L509.6,171.34L530.83,175.56L552.07,183.11L573.3,175.24L594.53,175L615.77,168.97L637,168.11" style="vector-effect: non-scaling-stroke; fill: none; stroke: rgb(184, 188, 34); stroke-opacity: 1; stroke-width: 2px; opacity: 1;"/></g><g class="points"/><g class="text"/></g><g class="trace scatter trace1179dafc-0959-4c72-9e3e-0b95e605365f" style="stroke-miterlimit: 2; opacity: 0.1;"><g class="fills"/><g class="errorbars"/><g class="lines"><path class="js-line" d="M0,178.41L21.23,177.01L42.47,190.82L63.7,171.11L84.93,165.28L106.17,165.21L127.4,172.9L148.63,170.05L169.87,157.3L191.1,143.14L212.33,147.63L233.57,138.73L254.8,132.84L276.03,135.41L297.27,85.58L318.5,85.28L339.73,95.89L360.97,75.1L382.2,79.58L403.43,80.46L424.67,71.1L445.9,75.48L467.13,67.45L488.37,47.82L509.6,51.55L530.83,22.93L552.07,23.35L573.3,13.05L594.53,34.88L615.77,69.04L637,63.88" style="vector-effect: non-scaling-stroke; fill: none; stroke: rgb(44, 160, 44); stroke-opacity: 1; stroke-width: 2px; opacity: 1;"/></g><g class="points"/><g class="text"/></g><g class="trace scatter trace68abd772-d4f0-4691-94f9-2d3f37c3d6ca" style="stroke-miterlimit: 2; opacity: 0.1;"><g class="fills"/><g class="errorbars"/><g class="lines"><path class="js-line" d="M0,178.41L21.23,177.47L42.47,177.68L63.7,173.07L84.93,167.1L106.17,173.93L127.4,171.39L169.87,171.33L191.1,175.76L212.33,174.99L233.57,178.51L254.8,183.49L276.03,205.04L297.27,212.03L318.5,206.06L360.97,202.43L382.2,203.19L403.43,201.4L424.67,198.57L445.9,196.28L467.13,197.73L488.37,194.76L509.6,193.6L530.83,202.75L552.07,200.63L573.3,178.95L594.53,179.92L615.77,174.84L637,167.42" style="vector-effect: non-scaling-stroke; fill: none; stroke: rgb(188, 185, 33); stroke-opacity: 1; stroke-width: 2px; opacity: 1;"/></g><g class="points"/><g class="text"/></g><g class="trace scatter trace5b71264f-c631-4158-b2e4-25fc8b6e24b3" style="stroke-miterlimit: 2; opacity: 0.1;"><g class="fills"/><g class="errorbars"/><g class="lines"><path class="js-line" d="M0,178.41L21.23,179.52L42.47,174.24L63.7,171.29L84.93,169.33L106.17,170.84L127.4,167.1L148.63,161.77L169.87,136.48L191.1,139.33L212.33,134.86L233.57,134.88L254.8,129.45L276.03,118.73L297.27,135.53L318.5,132.11L339.73,132.75L360.97,120.02L382.2,119.62L403.43,123.49L424.67,119.64L445.9,121.48L467.13,116.61L488.37,128.15L509.6,124.18L530.83,119.21L552.07,119.66L573.3,117.55L594.53,116.2L615.77,107.68L637,115.41" style="vector-effect: non-scaling-stroke; fill: none; stroke: rgb(111, 173, 39); stroke-opacity: 1; stroke-width: 2px; opacity: 1;"/></g><g class="points"/><g class="text"/></g><g class="trace scatter trace7985ee43-a878-401c-b32a-efe8c32bef2f" style="stroke-miterlimit: 2; opacity: 0.1;"><g class="fills"/><g class="errorbars"/><g class="lines"><path class="js-line" d="M0,178.41L21.23,201.64L42.47,195.95L63.7,201.16L84.93,199.49L106.17,197.31L127.4,201.91L169.87,197.99L191.1,197.04L212.33,196.05L233.57,198.07L254.8,191.76L276.03,189.64L297.27,186.5L318.5,186.76L339.73,186.89L360.97,184.14L382.2,187.13L403.43,196.5L424.67,194.4L445.9,199.77L467.13,190.55L488.37,191.48L530.83,189.85L552.07,191.3L573.3,188.61L594.53,189.8L615.77,192.74L637,193.64" style="vector-effect: non-scaling-stroke; fill: none; stroke: rgb(196, 153, 29); stroke-opacity: 1; stroke-width: 2px; opacity: 1;"/></g><g class="points"/><g class="text"/></g><g class="trace scatter tracec13f5ce9-ac0f-4cd3-a8cf-fc0214112950" style="stroke-miterlimit: 2; opacity: 0.1;"><g class="fills"/><g class="errorbars"/><g class="lines"><path class="js-line" d="M0,178.41L21.23,173.87L42.47,175.01L63.7,169.98L84.93,179.84L106.17,202.91L127.4,197.27L148.63,202.44L169.87,200.78L191.1,198.61L212.33,203.18L254.8,199.29L276.03,198.35L297.27,197.36L318.5,199.36L339.73,193.1L360.97,191L382.2,187.88L403.43,188.14L424.67,188.26L445.9,185.53L467.13,188.5L488.37,197.8L509.6,195.72L530.83,201.05L552.07,191.9L573.3,192.82L615.77,191.2L637,192.65" style="vector-effect: non-scaling-stroke; fill: none; stroke: rgb(196, 152, 29); stroke-opacity: 1; stroke-width: 2px; opacity: 1;"/></g><g class="points"/><g class="text"/></g><g class="trace scatter traceebdcc0d6-bfa4-41a6-a519-ecf3d7ae6ab9" style="stroke-miterlimit: 2; opacity: 0.1;"><g class="fills"/><g class="errorbars"/><g class="lines"><path class="js-line" d="M0,178.41L21.23,191.06L42.47,192.93L63.7,192.29L84.93,214.5L106.17,209.49L127.4,202.99L148.63,197.5L169.87,214.64L191.1,210.75L212.33,197.3L233.57,198.44L254.8,190.55L276.03,195.38L297.27,203.95L318.5,202.38L339.73,197.47L360.97,194.03L382.2,202.92L403.43,199.97L424.67,201.96L445.9,207.45L467.13,202.22L488.37,203.96L509.6,199.75L530.83,206.28L552.07,208.26L573.3,207.76L594.53,212.99L615.77,215.76L637,215" style="vector-effect: non-scaling-stroke; fill: none; stroke: rgb(202, 128, 26); stroke-opacity: 1; stroke-width: 2px; opacity: 1;"/></g><g class="points"/><g class="text"/></g><g class="trace scatter tracecce2720c-372e-4d7a-bbe6-f0610da47dd5" style="stroke-miterlimit: 2; opacity: 0.1;"><g class="fills"/><g class="errorbars"/><g class="lines"><path class="js-line" d="M0,178.41L21.23,175.03L42.47,179.18L63.7,186.6L84.93,178.86L106.17,178.63L127.4,172.7L148.63,171.85L169.87,172.37L191.1,158.84L212.33,161.08L233.57,160.35L254.8,167L276.03,171.84L297.27,185.89L318.5,187.77L339.73,184.88L360.97,194.49L382.2,202.13L403.43,204.19L424.67,208.12L445.9,211.69L467.13,193.71L488.37,190.03L509.6,190.64L530.83,195.34L552.07,180.26L573.3,179.87L594.53,184.33L615.77,182.17L637,196.63" style="vector-effect: non-scaling-stroke; fill: none; stroke: rgb(190, 179, 32); stroke-opacity: 1; stroke-width: 2px; opacity: 1;"/></g><g class="points"/><g class="text"/></g><g class="trace scatter trace135dc8be-9740-4b11-af8c-aad966be0e76" style="stroke-miterlimit: 2; opacity: 0.1;"><g class="fills"/><g class="errorbars"/><g class="lines"><path class="js-line" d="M0,178.41L42.47,176.89L63.7,177.11L84.93,172.48L106.17,166.49L127.4,173.34L148.63,170.79L191.1,170.73L212.33,175.17L233.57,174.4L254.8,177.93L276.03,182.93L297.27,204.53L318.5,211.54L339.73,205.56L382.2,201.92L403.43,202.68L424.67,200.89L445.9,198.05L467.13,195.75L488.37,197.21L509.6,194.22L530.83,193.06L552.07,202.23L573.3,200.12L594.53,178.37L615.77,179.35L637,174.26" style="vector-effect: non-scaling-stroke; fill: none; stroke: rgb(188, 186, 33); stroke-opacity: 1; stroke-width: 2px; opacity: 1;"/></g><g class="points"/><g class="text"/></g><g class="trace scatter traceea5724d6-4f0a-4373-9c20-56cb7750c14e" style="stroke-miterlimit: 2; opacity: 0.1;"><g class="fills"/><g class="errorbars"/><g class="lines"><path class="js-line" d="M0,178.41L21.23,185.87L42.47,185.31L63.7,184.4L84.93,184.61L106.17,180.15L127.4,174.37L148.63,180.98L169.87,178.52L212.33,178.46L233.57,182.75L254.8,182L276.03,185.41L297.27,190.23L318.5,211.08L339.73,217.84L360.97,212.06L403.43,208.55L424.67,209.28L445.9,207.56L467.13,204.82L488.37,202.6L509.6,204.01L530.83,201.13L552.07,200.01L573.3,208.86L594.53,206.81L615.77,185.83L637,186.78" style="vector-effect: non-scaling-stroke; fill: none; stroke: rgb(193, 167, 31); stroke-opacity: 1; stroke-width: 2px; opacity: 1;"/></g><g class="points"/><g class="text"/></g><g class="trace scatter trace3484b38e-1dd4-4e92-9912-5209af083faa" style="stroke-miterlimit: 2; opacity: 0.1;"><g class="fills"/><g class="errorbars"/><g class="lines"><path class="js-line" d="M0,178.41L21.23,173.11L42.47,170.14L63.7,168.17L84.93,169.68L106.17,165.92L127.4,160.57L148.63,135.15L169.87,138.01L191.1,133.51L212.33,133.54L233.57,128.08L254.8,117.3L276.03,134.19L297.27,130.75L318.5,131.4L339.73,118.6L360.97,118.19L382.2,122.09L403.43,118.22L424.67,120.06L445.9,115.17L467.13,126.77L488.37,122.78L509.6,117.79L530.83,118.24L552.07,116.11L573.3,114.75L594.53,106.19L615.77,113.97L637,118.38" style="vector-effect: non-scaling-stroke; fill: none; stroke: rgb(107, 172, 39); stroke-opacity: 1; stroke-width: 2px; opacity: 1;"/></g><g class="points"/><g class="text"/></g><g class="trace scatter trace7e978b0b-c0aa-4e59-affc-62354672753c" style="stroke-miterlimit: 2; opacity: 0.1;"><g class="fills"/><g class="errorbars"/><g class="lines"><path class="js-line" d="M0,178.41L21.23,186.73L42.47,185.14L63.7,184.59L84.93,175.79L106.17,169.88L127.4,159.31L148.63,155.24L169.87,147.15L191.1,149.47L212.33,132.77L233.57,142.11L254.8,156.28L276.03,150.82L297.27,142.35L318.5,147.67L339.73,146.07L360.97,145.76L382.2,148.92L403.43,162.69L424.67,161.6L445.9,170.18L467.13,174.43L488.37,158.72L509.6,155.38L530.83,155.55L552.07,147.73L573.3,143.05L594.53,143.07L615.77,143.16L637,142.19" style="vector-effect: non-scaling-stroke; fill: none; stroke: rgb(152, 181, 36); stroke-opacity: 1; stroke-width: 2px; opacity: 1;"/></g><g class="points"/><g class="text"/></g><g class="trace scatter trace9f86efa4-df77-4812-bf40-e5e97bf328c9" style="stroke-miterlimit: 2; opacity: 0.1;"><g class="fills"/><g class="errorbars"/><g class="lines"><path class="js-line" d="M0,178.41L21.23,174.49L42.47,164.41L63.7,162.43L84.93,165.69L106.17,164.77L127.4,167.54L148.63,178.91L169.87,196.46L191.1,195.5L212.33,191.37L233.57,190.79L254.8,191.26L276.03,202.8L297.27,204.4L318.5,195.53L339.73,192.91L360.97,206.13L382.2,199.66L403.43,197.6L424.67,202.46L445.9,208.39L467.13,205.61L488.37,206.22L509.6,205.3L530.83,197.5L552.07,198.69L573.3,189.81L594.53,189.88L615.77,191.54L637,190.06" style="vector-effect: non-scaling-stroke; fill: none; stroke: rgb(196, 152, 29); stroke-opacity: 1; stroke-width: 2px; opacity: 1;"/></g><g class="points"/><g class="text"/></g><g class="trace scatter trace8596792b-95a2-41af-a9e1-2cca4798d0cf" style="stroke-miterlimit: 2; opacity: 0.1;"><g class="fills"/><g class="errorbars"/><g class="lines"><path class="js-line" d="M0,178.41L21.23,179.53L42.47,175.02L63.7,176.16L84.93,171.14L106.17,180.96L127.4,203.91L148.63,198.29L169.87,203.43L212.33,199.63L233.57,204.17L276.03,200.3L297.27,199.36L318.5,198.39L339.73,200.38L360.97,194.14L382.2,192.05L403.43,188.95L424.67,189.21L445.9,189.33L467.13,186.62L488.37,189.57L509.6,198.82L530.83,196.76L552.07,202.06L573.3,192.95L594.53,193.87L637,192.26" style="vector-effect: non-scaling-stroke; fill: none; stroke: rgb(197, 150, 29); stroke-opacity: 1; stroke-width: 2px; opacity: 1;"/></g><g class="points"/><g class="text"/></g><g class="trace scatter trace8736e0e3-a970-4903-927b-f14276e1808c" style="stroke-miterlimit: 2; opacity: 0.1;"><g class="fills"/><g class="errorbars"/><g class="lines"><path class="js-line" d="M0,178.41L21.23,170.59L42.47,166.74L63.7,191.38L84.93,194.84L106.17,193.37L127.4,199.93L148.63,198.55L169.87,194.94L191.1,199.54L212.33,190.32L233.57,186.03L254.8,187.66L276.03,189.52L297.27,185.3L318.5,189.77L339.73,207.72L360.97,217.41L382.2,205.48L403.43,199.86L424.67,208.59L445.9,209.19L467.13,207.1L509.6,216.17L530.83,214.06L552.07,204.29L573.3,185.95L594.53,188.1L615.77,185.7L637,181.34" style="vector-effect: non-scaling-stroke; fill: none; stroke: rgb(197, 148, 29); stroke-opacity: 1; stroke-width: 2px; opacity: 1;"/></g><g class="points"/><g class="text"/></g><g class="trace scatter tracee92fb771-a546-4b76-a560-6c46328c4fc6" style="stroke-miterlimit: 2; opacity: 0.1;"><g class="fills"/><g class="errorbars"/><g class="lines"><path class="js-line" d="M0,178.41L21.23,172.28L42.47,167.2L63.7,167.79L84.93,175.85L106.17,144.77L127.4,137.59L148.63,140.6L169.87,148.79L191.1,167.6L212.33,166.18L233.57,171.75L254.8,174.21L276.03,169.98L297.27,151.7L318.5,166.05L339.73,169.99L360.97,169.55L382.2,175.41L403.43,164.63L424.67,166.85L445.9,156.42L467.13,157.53L488.37,152.75L509.6,150.23L530.83,155.57L552.07,157.05L573.3,149.3L594.53,146.35L615.77,140.04L637,138.21" style="vector-effect: non-scaling-stroke; fill: none; stroke: rgb(165, 184, 35); stroke-opacity: 1; stroke-width: 2px; opacity: 1;"/></g><g class="points"/><g class="text"/></g><g class="trace scatter trace6e5c81b1-7bf3-4df6-afe7-8fc56d88935a" style="stroke-miterlimit: 2; opacity: 0.1;"><g class="fills"/><g class="errorbars"/><g class="lines"><path class="js-line" d="M0,178.41L21.23,172.37L42.47,164.53L63.7,157.92L84.93,178.58L106.17,173.88L127.4,157.67L148.63,159.05L169.87,149.55L191.1,155.36L212.33,165.69L233.57,163.8L254.8,157.88L276.03,153.74L297.27,164.45L318.5,160.9L339.73,163.3L360.97,169.91L382.2,163.61L403.43,165.71L424.67,160.63L445.9,168.5L467.13,170.89L488.37,170.29L509.6,176.59L530.83,179.92L552.07,179.01L573.3,177.27L594.53,183.57L615.77,190.61L637,174.82" style="vector-effect: non-scaling-stroke; fill: none; stroke: rgb(168, 185, 35); stroke-opacity: 1; stroke-width: 2px; opacity: 1;"/></g><g class="points"/><g class="text"/></g><g class="trace scatter trace38f8a99c-5975-4db4-b5b0-3a6fcdc3a6be" style="stroke-miterlimit: 2; opacity: 0.1;"><g class="fills"/><g class="errorbars"/><g class="lines"><path class="js-line" d="M0,178.41L21.23,179.66L42.47,182.74L84.93,184.25L106.17,181.81L127.4,179.36L148.63,183.12L169.87,181.82L191.1,176.75L212.33,174.3L233.57,169.56L254.8,168.07L276.03,164.96L297.27,167.06L318.5,167.12L339.73,165.41L360.97,169.05L382.2,168.25L403.43,165.45L424.67,160.59L445.9,157.49L467.13,140.46L488.37,136.79L509.6,137.68L530.83,133.99L552.07,135.61L573.3,135.15L594.53,123.73L615.77,130.96L637,127.26" style="vector-effect: non-scaling-stroke; fill: none; stroke: rgb(170, 185, 35); stroke-opacity: 1; stroke-width: 2px; opacity: 1;"/></g><g class="points"/><g class="text"/></g><g class="trace scatter trace23297e93-1583-42e3-95aa-9890541751a3" style="stroke-miterlimit: 2; opacity: 0.1;"><g class="fills"/><g class="errorbars"/><g class="lines"><path class="js-line" d="M0,178.41L21.23,171.65L42.47,191.07L63.7,187.38L84.93,177.9L106.17,176.04L127.4,179.11L148.63,178.24L169.87,180.85L191.1,191.54L212.33,208.05L233.57,207.14L254.8,203.26L276.03,202.71L297.27,203.15L318.5,214.01L339.73,215.51L360.97,207.16L382.2,204.7L403.43,217.14L424.67,211.05L445.9,209.11L467.13,213.69L488.37,219.26L509.6,216.65L530.83,217.22L552.07,216.35L573.3,209.02L594.53,210.14L615.77,201.79L637,201.86" style="vector-effect: non-scaling-stroke; fill: none; stroke: rgb(203, 123, 26); stroke-opacity: 1; stroke-width: 2px; opacity: 1;"/></g><g class="points"/><g class="text"/></g><g class="trace scatter traced9edf8fe-0d3c-4fbd-bc56-376124361767" style="stroke-miterlimit: 2; opacity: 0.1;"><g class="fills"/><g class="errorbars"/><g class="lines"><path class="js-line" d="M0,178.41L21.23,177.29L42.47,193.19L63.7,169.62L84.93,172.31L106.17,167.08L127.4,171.14L148.63,187.45L169.87,193.48L191.1,187.58L212.33,178.4L233.57,181.59L254.8,176.61L276.03,167.06L297.27,180.82L318.5,188.31L339.73,186.7L360.97,199.47L382.2,200.45L403.43,177.64L424.67,181.69L445.9,177.96L467.13,188.12L488.37,168.34L509.6,159.83L530.83,161.95L552.07,172.17L573.3,173.62L594.53,186.56L615.77,188.48L637,187.81" style="vector-effect: non-scaling-stroke; fill: none; stroke: rgb(187, 188, 34); stroke-opacity: 1; stroke-width: 2px; opacity: 1;"/></g><g class="points"/><g class="text"/></g><g class="trace scatter tracea0bdb498-cff4-48ff-af3b-5c8caf952548" style="stroke-miterlimit: 2; opacity: 0.1;"><g class="fills"/><g class="errorbars"/><g class="lines"><path class="js-line" d="M0,178.41L21.23,184.48L42.47,187.69L63.7,186.81L84.93,185.14L127.4,197.98L148.63,182.78L169.87,181.85L191.1,173.15L212.33,169.12L233.57,161.87L254.8,149.87L276.03,135.53L297.27,131.9L318.5,131.92L339.73,117.77L360.97,122.58L382.2,133.02L403.43,137.53L424.67,143.61L445.9,133.81L467.13,126.45L488.37,113.7L509.6,102.48L530.83,107.51L552.07,91.62L573.3,95.94L594.53,96.42L615.77,103.6L637,81.63" style="vector-effect: non-scaling-stroke; fill: none; stroke: rgb(120, 175, 38); stroke-opacity: 1; stroke-width: 2px; opacity: 1;"/></g><g class="points"/><g class="text"/></g><g class="trace scatter trace7fdb3aaa-0e02-45db-9d6a-11d36a030170" style="stroke-miterlimit: 2; opacity: 0.1;"><g class="fills"/><g class="errorbars"/><g class="lines"><path class="js-line" d="M0,178.41L21.23,171.65L42.47,191.07L63.7,187.38L84.93,177.9L106.17,176.04L127.4,179.11L148.63,178.24L169.87,180.85L191.1,191.54L212.33,208.05L233.57,207.14L254.8,203.26L276.03,202.71L297.27,203.15L318.5,214.01L339.73,215.51L360.97,207.16L382.2,204.7L403.43,217.14L424.67,211.05L445.9,209.11L467.13,213.69L488.37,219.26L509.6,216.65L530.83,217.22L552.07,216.35L573.3,209.02L594.53,210.14L615.77,201.79L637,201.86" style="vector-effect: non-scaling-stroke; fill: none; stroke: rgb(203, 123, 26); stroke-opacity: 1; stroke-width: 2px; opacity: 1;"/></g><g class="points"/><g class="text"/></g><g class="trace scatter tracebc7eaf5e-47f2-426a-b9a8-5bd63f1b1e22" style="stroke-miterlimit: 2; opacity: 0.1;"><g class="fills"/><g class="errorbars"/><g class="lines"><path class="js-line" d="M0,178.41L21.23,172.57L42.47,162.13L63.7,158.11L84.93,150.12L106.17,152.41L127.4,135.91L148.63,145.15L169.87,159.14L191.1,153.75L212.33,145.38L233.57,150.64L254.8,149.05L276.03,148.75L297.27,151.87L318.5,165.47L339.73,164.4L360.97,172.87L382.2,177.07L403.43,161.55L424.67,158.25L445.9,158.42L467.13,150.69L488.37,146.07L509.6,146.09L530.83,146.18L552.07,145.22L573.3,153.12L594.53,148.33L615.77,144.47L637,149.21" style="vector-effect: non-scaling-stroke; fill: none; stroke: rgb(146, 180, 36); stroke-opacity: 1; stroke-width: 2px; opacity: 1;"/></g><g class="points"/><g class="text"/></g><g class="trace scatter tracea22c0208-f835-4cbc-84b2-4edd4d3290c7" style="stroke-miterlimit: 2; opacity: 0.1;"><g class="fills"/><g class="errorbars"/><g class="lines"><path class="js-line" d="M0,178.41L21.23,177.47L42.47,177.68L63.7,173.07L84.93,167.1L106.17,173.93L127.4,171.39L169.87,171.33L191.1,175.76L212.33,174.99L233.57,178.51L254.8,183.49L276.03,205.04L297.27,212.03L318.5,206.06L360.97,202.43L382.2,203.19L403.43,201.4L424.67,198.57L445.9,196.28L467.13,197.73L488.37,194.76L509.6,193.6L530.83,202.75L552.07,200.63L573.3,178.95L594.53,179.92L615.77,174.84L637,167.42" style="vector-effect: non-scaling-stroke; fill: none; stroke: rgb(188, 185, 33); stroke-opacity: 1; stroke-width: 2px; opacity: 1;"/></g><g class="points"/><g class="text"/></g><g class="trace scatter tracefa30999d-12c8-49cf-a732-d18327ab4b79" style="stroke-miterlimit: 2; opacity: 0.1;"><g class="fills"/><g class="errorbars"/><g class="lines"><path class="js-line" d="M0,178.41L21.23,190.5L42.47,185.85L63.7,178.61L84.93,183.16L106.17,181.78L127.4,181.52L148.63,184.22L169.87,195.98L191.1,195.05L212.33,202.38L233.57,206.01L254.8,192.59L276.03,189.74L297.27,189.88L318.5,183.2L339.73,179.21L382.2,179.3L403.43,178.48L424.67,185.3L445.9,181.17L467.13,177.83L488.37,181.92L509.6,189.25L530.83,181.61L552.07,181.38L573.3,175.53L594.53,174.69L615.77,175.2L637,161.85" style="vector-effect: non-scaling-stroke; fill: none; stroke: rgb(190, 180, 32); stroke-opacity: 1; stroke-width: 2px; opacity: 1;"/></g><g class="points"/><g class="text"/></g><g class="trace scatter trace4182b14c-72c8-47d4-bfab-e1d0bf76f852" style="stroke-miterlimit: 2; opacity: 0.1;"><g class="fills"/><g class="errorbars"/><g class="lines"><path class="js-line" d="M0,178.41L21.23,177.72L42.47,201.56L63.7,196.18L84.93,189.2L106.17,183.31L127.4,201.71L148.63,197.53L169.87,183.09L191.1,184.32L212.33,175.85L233.57,181.03L254.8,190.24L276.03,188.55L297.27,183.28L318.5,179.59L339.73,189.13L360.97,185.96L382.2,188.1L403.43,194L424.67,188.38L445.9,190.25L467.13,185.73L488.37,192.73L509.6,194.87L530.83,194.33L552.07,199.95L573.3,202.91L594.53,202.1L615.77,200.55L637,206.16" style="vector-effect: non-scaling-stroke; fill: none; stroke: rgb(194, 161, 30); stroke-opacity: 1; stroke-width: 2px; opacity: 1;"/></g><g class="points"/><g class="text"/></g><g class="trace scatter tracef19c7d88-b24f-486c-bd70-996884117475" style="stroke-miterlimit: 2; opacity: 0.1;"><g class="fills"/><g class="errorbars"/><g class="lines"><path class="js-line" d="M0,178.41L21.23,172.03L42.47,177.87L84.93,173.55L106.17,178.71L148.63,174.31L169.87,173.25L191.1,172.14L212.33,174.4L233.57,167.31L254.8,164.94L276.03,161.41L297.27,161.7L318.5,161.84L339.73,158.76L360.97,162.11L382.2,172.63L403.43,170.28L424.67,176.31L445.9,165.96L467.13,167L509.6,165.17L530.83,166.8L552.07,163.78L573.3,165.12L594.53,168.41L615.77,169.43L637,170.02" style="vector-effect: non-scaling-stroke; fill: none; stroke: rgb(173, 186, 34); stroke-opacity: 1; stroke-width: 2px; opacity: 1;"/></g><g class="points"/><g class="text"/></g><g class="trace scatter trace66e9533c-c3c0-4531-b80f-4a4629ab5448" style="stroke-miterlimit: 2; opacity: 0.1;"><g class="fills"/><g class="errorbars"/><g class="lines"><path class="js-line" d="M0,178.41L21.23,176.89L42.47,172.86L63.7,177.99L84.93,167.72L106.17,162.95L127.4,164.76L148.63,166.83L169.87,162.14L191.1,167.11L212.33,187.09L233.57,197.87L254.8,184.59L276.03,178.34L297.27,188.06L318.5,188.72L339.73,186.4L382.2,196.49L403.43,194.14L424.67,183.27L445.9,162.85L467.13,165.25L488.37,162.58L509.6,157.73L530.83,147.11L552.07,128.94L573.3,136.17L594.53,135.39L615.77,130.67L637,132.04" style="vector-effect: non-scaling-stroke; fill: none; stroke: rgb(171, 185, 35); stroke-opacity: 1; stroke-width: 2px; opacity: 1;"/></g><g class="points"/><g class="text"/></g><g class="trace scatter tracea8aada57-2f08-40b7-a45e-3ca1a6f1c579" style="stroke-miterlimit: 2;"><g class="fills"><g><path class="js-fill" d="M0,178.41L21.23,178.23L42.47,177.11L63.7,178.08L84.93,177.07L127.4,174.42L148.63,178.24L169.87,179.73L191.1,178.4L212.33,178.46L233.57,181.59L276.03,182.93L297.27,186.5L339.73,186.4L360.97,185.96L382.2,188.1L403.43,188.14L424.67,184.59L445.9,185.53L488.37,189.57L509.6,189.41L530.83,189.85L552.07,191.47L573.3,186.23L594.53,184.33L615.77,183.45L637,181.32L637,201.89L615.77,201.12L594.53,206.81L552.07,206.05L530.83,212.97L509.6,208.91L488.37,205.99L467.13,205.07L445.9,207.49L403.43,201.5L382.2,203.03L318.5,200.34L297.27,203.15L276.03,202.38L254.8,199L233.57,201.37L212.33,199.63L191.1,198.9L169.87,196.83L148.63,195.53L127.4,198.08L106.17,193.92L84.93,188.8L63.7,187.38L42.47,188.13L0,178.41Z" style="fill: rgb(127, 127, 127); fill-opacity: 0.25; stroke-width: 0;"/></g></g><g class="errorbars"/><g class="lines"><path class="js-line" d="M0,178.41L42.47,188.13L63.7,187.38L84.93,188.8L106.17,193.92L127.4,198.08L148.63,195.53L169.87,196.83L191.1,198.9L212.33,199.63L233.57,201.37L254.8,199L276.03,202.38L297.27,203.15L318.5,200.34L382.2,203.03L403.43,201.5L445.9,207.49L467.13,205.07L488.37,205.99L509.6,208.91L530.83,212.97L552.07,206.05L594.53,206.81L615.77,201.12L637,201.89" style="vector-effect: non-scaling-stroke; fill: none; stroke: rgb(201, 131, 27); stroke-opacity: 0.75; stroke-width: 2px; opacity: 1;"/></g><g class="points"/><g class="text"/></g><g class="trace scatter trace35be4dd8-8a78-4491-94cb-52c33abdcf17" style="stroke-miterlimit: 2;"><g class="fills"><g><path class="js-fill" d="M0,178.41L21.23,172.53L42.47,170.14L63.7,167.79L84.93,167.02L106.17,164.77L127.4,164.76L148.63,161.81L169.87,157.13L191.1,157.13L212.33,164.69L254.8,157.24L276.03,154.71L297.27,151.77L318.5,152.07L339.73,152.44L360.97,151.11L382.2,157.28L403.43,162.23L424.67,161.21L445.9,156.42L467.13,152.35L488.37,150.77L509.6,146.75L530.83,146.43L552.07,141.9L573.3,139.7L594.53,138.64L615.77,139.13L637,134.04L637,181.32L615.77,183.45L594.53,184.33L573.3,186.23L552.07,191.47L530.83,189.85L509.6,189.41L488.37,189.57L445.9,185.53L424.67,184.59L403.43,188.14L382.2,188.1L360.97,185.96L339.73,186.4L297.27,186.5L276.03,182.93L233.57,181.59L212.33,178.46L191.1,178.4L169.87,179.73L148.63,178.24L127.4,174.42L84.93,177.07L63.7,178.08L42.47,177.11L21.23,178.23L0,178.41Z" style="fill: rgb(127, 127, 127); fill-opacity: 0.25; stroke-width: 0;"/></g></g><g class="errorbars"/><g class="lines"><path class="js-line" d="M0,178.41L21.23,178.23L42.47,177.11L63.7,178.08L84.93,177.07L127.4,174.42L148.63,178.24L169.87,179.73L191.1,178.4L212.33,178.46L233.57,181.59L276.03,182.93L297.27,186.5L339.73,186.4L360.97,185.96L382.2,188.1L403.43,188.14L424.67,184.59L445.9,185.53L488.37,189.57L509.6,189.41L530.83,189.85L552.07,191.47L573.3,186.23L594.53,184.33L615.77,183.45L637,181.32" style="vector-effect: non-scaling-stroke; fill: none; stroke: rgb(191, 176, 32); stroke-opacity: 1; stroke-width: 2px; opacity: 1;"/></g><g class="points"/><g class="text"/></g><g class="trace scatter traced2b8f5ec-0792-4c29-a6ff-6710a9493674" style="stroke-miterlimit: 2;"><g class="fills"/><g class="errorbars"/><g class="lines"><path class="js-line" d="M0,178.41L21.23,172.53L42.47,170.14L63.7,167.79L84.93,167.02L106.17,164.77L127.4,164.76L148.63,161.81L169.87,157.13L191.1,157.13L212.33,164.69L254.8,157.24L276.03,154.71L297.27,151.77L318.5,152.07L339.73,152.44L360.97,151.11L382.2,157.28L403.43,162.23L424.67,161.21L445.9,156.42L467.13,152.35L488.37,150.77L509.6,146.75L530.83,146.43L552.07,141.9L573.3,139.7L594.53,138.64L615.77,139.13L637,134.04" style="vector-effect: non-scaling-stroke; fill: none; stroke: rgb(154, 182, 36); stroke-opacity: 0.75; stroke-width: 2px; opacity: 1;"/></g><g class="points"/><g class="text"/></g><g class="trace scatter traceae2a9eae-1741-4d90-9fa4-da49d3fc6f32" style="stroke-miterlimit: 2; opacity: 1;"><g class="fills"/><g class="errorbars"/><g class="lines"><path class="js-line" d="M0,178.41L21.23,179.06L42.47,178.78L106.17,177.65L127.4,177.79L148.63,176.89L169.87,177.41L191.1,177.55L212.33,179.2L233.57,179.12L254.8,178.06L276.03,178.42L297.27,176.91L318.5,177.97L339.73,178.14L360.97,177.75L382.2,179.6L403.43,178.37L424.67,178.74L467.13,178.03L488.37,176.83L530.83,176.51L552.07,175.32L573.3,173L594.53,172.91L615.77,172.61L637,170.45" style="vector-effect: non-scaling-stroke; fill: none; stroke: rgb(187, 188, 34); stroke-opacity: 1; stroke-width: 2px; opacity: 1; stroke-dasharray: 3px, 3px;"/></g><g class="points"/><g class="text"/></g></g></g><g class="overplot"/><path class="xlines-above crisp" d="M0,0" style="fill: none;"/><path class="ylines-above crisp" d="M0,0" style="fill: none;"/><g class="overlines-above"/><g class="xaxislayer-above"><g class="xtick"><text text-anchor="middle" x="0" y="320" transform="translate(139.17000000000002,0)" style="font-family: 'Open Sans', verdana, arial, sans-serif; font-size: 12px; fill: rgb(214, 223, 239); fill-opacity: 1; white-space: pre; opacity: 1;"><tspan class="line" dy="0em" x="0" y="320">Jun 5</tspan><tspan class="line" dy="1.3em" x="0" y="320">2022</tspan></text></g><g class="xtick"><text text-anchor="middle" x="0" y="320" style="font-family: 'Open Sans', verdana, arial, sans-serif; font-size: 12px; fill: rgb(214, 223, 239); fill-opacity: 1; white-space: pre; opacity: 1;" transform="translate(287.8,0)">Jun 12</text></g><g class="xtick"><text text-anchor="middle" x="0" y="320" style="font-family: 'Open Sans', verdana, arial, sans-serif; font-size: 12px; fill: rgb(214, 223, 239); fill-opacity: 1; white-space: pre; opacity: 1;" transform="translate(436.43,0)">Jun 19</text></g><g class="xtick"><text text-anchor="middle" x="0" y="320" style="font-family: 'Open Sans', verdana, arial, sans-serif; font-size: 12px; fill: rgb(214, 223, 239); fill-opacity: 1; white-space: pre; opacity: 1;" transform="translate(585.07,0)">Jun 26</text></g></g><g class="yaxislayer-above"><g class="ytick"><text text-anchor="end" x="32" y="4.199999999999999" transform="translate(0,266.82)" style="font-family: 'Open Sans', verdana, arial, sans-serif; font-size: 12px; fill: rgb(214, 223, 239); fill-opacity: 1; white-space: pre; opacity: 1;">0.8</text></g><g class="ytick"><text text-anchor="end" x="32" y="4.199999999999999" style="font-family: 'Open Sans', verdana, arial, sans-serif; font-size: 12px; fill: rgb(214, 223, 239); fill-opacity: 1; white-space: pre; opacity: 1;" transform="translate(0,224.41)">1</text></g><g class="ytick"><text text-anchor="end" x="32" y="4.199999999999999" style="font-family: 'Open Sans', verdana, arial, sans-serif; font-size: 12px; fill: rgb(214, 223, 239); fill-opacity: 1; white-space: pre; opacity: 1;" transform="translate(0,182)">1.2</text></g><g class="ytick"><text text-anchor="end" x="32" y="4.199999999999999" style="font-family: 'Open Sans', verdana, arial, sans-serif; font-size: 12px; fill: rgb(214, 223, 239); fill-opacity: 1; white-space: pre; opacity: 1;" transform="translate(0,139.6)">1.4</text></g><g class="ytick"><text text-anchor="end" x="32" y="4.199999999999999" style="font-family: 'Open Sans', verdana, arial, sans-serif; font-size: 12px; fill: rgb(214, 223, 239); fill-opacity: 1; white-space: pre; opacity: 1;" transform="translate(0,97.19)">1.6</text></g><g class="ytick"><text text-anchor="end" x="32" y="4.199999999999999" style="font-family: 'Open Sans', verdana, arial, sans-serif; font-size: 12px; fill: rgb(214, 223, 239); fill-opacity: 1; white-space: pre; opacity: 1;" transform="translate(0,54.78)">1.8</text></g></g><g class="overaxes-above"/></g></g><g class="polarlayer"/><g class="smithlayer"/><g class="ternarylayer"/><g class="geolayer"/><g class="funnelarealayer"/><g class="pielayer"/><g class="iciclelayer"/><g class="treemaplayer"/><g class="sunburstlayer"/><g class="glimages"/><defs id="topdefs-8b25b8"><g class="clips"/><clipPath id="legend8b25b8"><rect width="618" height="29" x="0" y="0"/></clipPath></defs><g class="layer-above"><g class="imagelayer"/><g class="shapelayer"/></g><g class="infolayer"><g class="legend" pointer-events="all" transform="translate(52,11.779999999999994)"><rect class="bg" shape-rendering="crispEdges" width="618" height="29" x="0" y="0" style="stroke: rgb(68, 68, 68); stroke-opacity: 1; fill: rgb(33, 34, 44); fill-opacity: 1; stroke-width: 0px;"/><g class="scrollbox" transform="" clip-path="url(#legend8b25b8)"><g class="groups"><g class="traces" transform="translate(0,14.5)" style="opacity: 1;"><text class="legendtext" text-anchor="start" x="40" y="4.680000000000001" style="font-family: 'Open Sans', verdana, arial, sans-serif; font-size: 12px; fill: rgb(214, 223, 239); fill-opacity: 1; white-space: pre;">proj (100)</text><g class="layers" style="opacity: 0.1;"><g class="legendfill"/><g class="legendlines"><path class="js-line" d="M5,0h30" style="fill: none; stroke: rgb(197, 150, 29); stroke-opacity: 1; stroke-width: 2px;"/></g><g class="legendsymbols"><g class="legendpoints"/></g></g><rect class="legendtoggle" x="0" y="-9.5" width="104.515625" height="19" style="fill: rgb(0, 0, 0); fill-opacity: 0;"/></g><g class="traces" transform="translate(107.015625,14.5)" style="opacity: 1;"><text class="legendtext" text-anchor="start" x="40" y="4.680000000000001" style="font-family: 'Open Sans', verdana, arial, sans-serif; font-size: 12px; fill: rgb(214, 223, 239); fill-opacity: 1; white-space: pre;">Q=20% (proj)</text><g class="layers"><g class="legendfill"/><g class="legendlines"><path class="js-line" d="M5,0h30" style="fill: none; stroke: rgb(201, 131, 27); stroke-opacity: 0.75; stroke-width: 2px;"/></g><g class="legendsymbols"><g class="legendpoints"/></g></g><rect class="legendtoggle" x="0" y="-9.5" width="129.078125" height="19" style="fill: rgb(0, 0, 0); fill-opacity: 0;"/></g><g class="traces" transform="translate(238.59375,14.5)" style="opacity: 1;"><text class="legendtext" text-anchor="start" x="40" y="4.680000000000001" style="font-family: 'Open Sans', verdana, arial, sans-serif; font-size: 12px; fill: rgb(214, 223, 239); fill-opacity: 1; white-space: pre;">Q=50% (proj)</text><g class="layers"><g class="legendfill"><path class="js-fill" d="M5,-2h30v6h-30z" style="stroke-width: 0; fill: rgb(127, 127, 127); fill-opacity: 0.25;"/></g><g class="legendlines"><path class="js-line" d="M5,-2h30" style="fill: none; stroke: rgb(191, 176, 32); stroke-opacity: 1; stroke-width: 2px;"/></g><g class="legendsymbols"><g class="legendpoints"/></g></g><rect class="legendtoggle" x="0" y="-9.5" width="129.078125" height="19" style="fill: rgb(0, 0, 0); fill-opacity: 0;"/></g><g class="traces" transform="translate(370.171875,14.5)" style="opacity: 1;"><text class="legendtext" text-anchor="start" x="40" y="4.680000000000001" style="font-family: 'Open Sans', verdana, arial, sans-serif; font-size: 12px; fill: rgb(214, 223, 239); fill-opacity: 1; white-space: pre;">Q=80% (proj)</text><g class="layers"><g class="legendfill"><path class="js-fill" d="M5,-2h30v6h-30z" style="stroke-width: 0; fill: rgb(127, 127, 127); fill-opacity: 0.25;"/></g><g class="legendlines"><path class="js-line" d="M5,-2h30" style="fill: none; stroke: rgb(154, 182, 36); stroke-opacity: 0.75; stroke-width: 2px;"/></g><g class="legendsymbols"><g class="legendpoints"/></g></g><rect class="legendtoggle" x="0" y="-9.5" width="129.078125" height="19" style="fill: rgb(0, 0, 0); fill-opacity: 0;"/></g><g class="traces" transform="translate(501.75,14.5)" style="opacity: 1;"><text class="legendtext" text-anchor="start" x="40" y="4.680000000000001" style="font-family: 'Open Sans', verdana, arial, sans-serif; font-size: 12px; fill: rgb(214, 223, 239); fill-opacity: 1; white-space: pre;">Mean (proj)</text><g class="layers" style="opacity: 1;"><g class="legendfill"/><g class="legendlines"><path class="js-line" d="M5,0h30" style="fill: none; stroke: rgb(187, 188, 34); stroke-opacity: 1; stroke-dasharray: 3px, 3px; stroke-width: 2px;"/></g><g class="legendsymbols"><g class="legendpoints"/></g></g><rect class="legendtoggle" x="0" y="-9.5" width="113.703125" height="19" style="fill: rgb(0, 0, 0); fill-opacity: 0;"/></g></g></g><rect class="scrollbar" rx="20" ry="3" width="0" height="0" x="0" y="0" style="fill: rgb(128, 139, 164); fill-opacity: 1;"/></g><g class="g-gtitle"/><g class="g-xtitle"/><g class="g-ytitle"/></g></svg>