<svg class="main-svg" xmlns="http://www.w3.org/2000/svg" xmlns:xlink="http://www.w3.org/1999/xlink" width="700" height="500" style="" viewBox="0 0 700 500"><rect x="0" y="0" width="700" height="500" style="fill: rgb(33, 34, 44); fill-opacity: 1;"/><defs id="defs-771bed"><g class="clips"><clipPath id="clip771bedxyplot" class="plotclip"><rect width="617" height="134.71999999999997"/></clipPath><clipPath id="clip771bedx2y2plot" class="plotclip"><rect width="617" height="134.72"/></clipPath><clipPath id="clip771bedx3y3plot" class="plotclip"><rect width="617" height="134.72"/></clipPath><clipPath class="axesclip" id="clip771bedx"><rect x="53" y="0" width="617" height="500"/></clipPath><clipPath class="axesclip" id="clip771bedy"><rect x="0" y="49" width="700" height="134.71999999999997"/></clipPath><clipPath class="axesclip" id="clip771bedxy"><rect x="53" y="49" width="617" height="134.71999999999997"/></clipPath><clipPath class="axesclip" id="clip771bedy2"><rect x="0" y="192.14" width="700" height="134.72"/></clipPath><clipPath class="axesclip" id="clip771bedxy2"><rect x="53" y="192.14" width="617" height="134.72"/></clipPath><clipPath class="axesclip" id="clip771bedy3"><rect x="0" y="335.28" width="700" height="134.72"/></clipPath><clipPath class="axesclip" id="clip771bedxy3"><rect x="53" y="335.28" width="617" height="134.72"/></clipPath><clipPath class="axesclip" id="clip771bedx2"><rect x="53" y="0" width="617" height="500"/></clipPath><clipPath class="axesclip" id="clip771bedx2y"><rect x="53" y="49" width="617" height="134.71999999999997"/></clipPath><clipPath class="axesclip" id="clip771bedx2y2"><rect x="53" y="192.14" width="617" height="134.72"/></clipPath><clipPath class="axesclip" id="clip771bedx2y3"><rect x="53" y="335.28" width="617" height="134.72"/></clipPath><clipPath class="axesclip" id="clip771bedx3"><rect x="53" y="0" width="617" height="500"/></clipPath><clipPath class="axesclip" id="clip771bedx3y"><rect x="53" y="49" width="617" height="134.71999999999997"/></clipPath><clipPath class="axesclip" id="clip771bedx3y2"><rect x="53" y="192.14" width="617" height="134.72"/></clipPath><clipPath class="axesclip" id="clip771bedx3y3"><rect x="53" y="335.28" width="617" height="134.72"/></clipPath></g><g class="gradients"/><g class="patterns"/></defs><g class="bglayer"/><g class="layer-below"><g class="imagelayer"/><g class="shapelayer"/></g><g class="cartesianlayer"><g class="subplot xy"><g class="layer-subplot"><g class="shapelayer"/><g class="imagelayer"/></g><g class="gridlayer"><g class="x"><path class="xgrid crisp" transform="translate(78.39,0)" d="M0,49v134.71999999999997" style="stroke: rgb(47, 62, 78); stroke-opacity: 1; stroke-width: 1px;"/><path class="xgrid crisp" transform="translate(156.26,0)" d="M0,49v134.71999999999997" style="stroke: rgb(47, 62, 78); stroke-opacity: 1; stroke-width: 1px;"/><path class="xgrid crisp" transform="translate(234.12,0)" d="M0,49v134.71999999999997" style="stroke: rgb(47, 62, 78); stroke-opacity: 1; stroke-width: 1px;"/><path class="xgrid crisp" transform="translate(310.29,0)" d="M0,49v134.71999999999997" style="stroke: rgb(47, 62, 78); stroke-opacity: 1; stroke-width: 1px;"/><path class="xgrid crisp" transform="translate(387.31,0)" d="M0,49v134.71999999999997" style="stroke: rgb(47, 62, 78); stroke-opacity: 1; stroke-width: 1px;"/><path class="xgrid crisp" transform="translate(465.18,0)" d="M0,49v134.71999999999997" style="stroke: rgb(47, 62, 78); stroke-opacity: 1; stroke-width: 1px;"/><path class="xgrid crisp" transform="translate(543.05,0)" d="M0,49v134.71999999999997" style="stroke: rgb(47, 62, 78); stroke-opacity: 1; stroke-width: 1px;"/><path class="xgrid crisp" transform="translate(619.22,0)" d="M0,49v134.71999999999997" style="stroke: rgb(47, 62, 78); stroke-opacity: 1; stroke-width: 1px;"/></g><g class="y"><path class="ygrid crisp" transform="translate(0,154.95999999999998)" d="M53,0h617" style="stroke: rgb(47, 62, 78); stroke-opacity: 1; stroke-width: 1px;"/><path class="ygrid crisp" transform="translate(0,114.46)" d="M53,0h617" style="stroke: rgb(47, 62, 78); stroke-opacity: 1; stroke-width: 1px;"/><path class="ygrid crisp" transform="translate(0,73.96000000000001)" d="M53,0h617" style="stroke: rgb(47, 62, 78); stroke-opacity: 1; stroke-width: 1px;"/></g></g><g class="zerolinelayer"/><path class="xlines-below"/><path class="ylines-below"/><g class="overlines-below"/><g class="xaxislayer-below"/><g class="yaxislayer-below"/><g class="overaxes-below"/><g class="plot" transform="translate(53,49)" clip-path="url(#clip771bedxyplot)"><g class="scatterlayer mlayer"><g class="trace scatter trace70ec910c-f591-41e5-a97a-12a48e4ede1b" style="stroke-miterlimit: 2; opacity: 1;"><g class="fills"/><g class="errorbars"/><g class="lines"><path class="js-line" d="M0,125.44L2.54,126.45L3.39,126.51L5.92,126.62L6.77,126.46L8.46,126.29L9.31,127.11L16.08,127.44L16.93,127.38L18.62,126.78L19.47,126.88L21.16,127.63L22.01,127.84L41.47,127.79L42.32,127.35L46.55,125.99L47.4,123.39L49.94,123.84L50.78,123.29L52.47,121.91L53.32,123.23L54.17,123.35L55.01,122.61L57.55,122.55L58.4,122.57L60.09,122.29L60.94,122.94L66.02,121.38L66.86,122.12L70.25,122.73L71.09,122.52L75.33,123.01L76.17,122.73L78.71,122.25L79.56,123.25L81.25,125.07L82.1,125.51L93.95,124.02L94.79,124.21L96.49,125.12L97.33,124.6L105.8,124.8L106.64,124.6L109.18,124.29L110.03,123.98L111.72,123.29L112.57,122.73L115.11,122.94L115.95,123.09L117.64,123.16L118.49,122.52L119.34,122.08L120.18,119.7L122.72,119.8L123.57,119.43L124.42,119.65L125.26,118.54L129.49,118.32L130.34,118.46L132.03,117.59L132.88,114.57L133.73,114.14L134.57,114.56L137.11,115.16L137.96,114.13L139.65,113.09L140.5,113.4L141.34,113.7L142.19,112.28L143.88,109.05L144.73,109.65L146.42,108.06L147.27,108.49L148.11,108.46L148.96,107.14L149.81,107.01L150.65,108.16L151.5,111.11L152.35,110.25L153.19,109.28L154.04,106.24L154.88,106.19L155.73,107.29L157.42,106.92L158.27,107.63L159.96,107.13L160.81,107.39L162.5,108.88L163.35,109.42L165.04,107.15L165.89,107.28L166.73,106.83L167.58,102.8L168.43,98.27L169.27,99.31L170.97,97.26L171.81,97.65L172.66,98.19L173.5,97.66L174.35,98.28L175.2,96.26L176.89,88.91L177.74,90.77L178.58,90.96L179.43,87.74L181.12,86.52L181.97,79.03L182.81,76.04L183.66,78.42L184.51,76.88L185.35,71.66L187.05,61.51L187.89,62.67L188.74,62.73L189.59,68.98L190.43,72.29L191.28,69.82L192.12,65.26L192.97,65.97L194.66,71.84L195.51,70.59L196.36,69.82L197.2,72.72L198.05,74.37L198.9,77.96L200.59,79.49L201.43,75.84L203.13,80.53L203.97,78.05L204.82,68.43L205.67,75.72L206.51,76.92L207.36,76.16L209.9,68.08L210.74,68.88L211.59,63.53L212.44,66.07L214.13,48.97L214.98,50.66L216.67,47.27L217.52,48.96L218.36,45.8L219.21,47.21L220.9,39.91L221.75,40.09L223.44,29.62L224.29,28.3L225.13,30.01L225.98,36.74L226.83,42.43L227.67,41.08L228.52,48.4L229.36,48.46L230.21,52.02L231.06,45.64L231.9,44.81L232.75,39.87L233.6,41.62L234.44,46.33L235.29,46.83L236.14,42.28L236.98,40.35L237.83,35.3L239.52,28.71L240.37,28.85L241.21,21.23L242.06,21.47L242.91,23.68L243.75,31.16L245.45,24.7L246.29,26.04L247.14,25.2L247.98,27.82L248.83,28.14L249.68,33.4L250.52,30.63L251.37,38.56L253.06,31.64L253.91,31.93L255.6,26.24L256.45,25.37L257.29,25.99L258.14,24.56L258.99,25.38L259.83,28.01L261.53,25.98L262.37,27.68L263.22,28.7L264.07,27.2L264.91,21.92L265.76,23.55L266.6,22.33L267.45,17.31L268.3,15.13L269.14,17.27L269.99,17.83L270.84,19.89L273.38,30.88L274.22,31.53L275.07,34.03L275.91,40.89L277.61,44.06L278.45,36.39L280.15,32.19L280.99,34.69L282.69,28.08L283.53,29.19L284.38,27.02L285.22,30.63L286.92,28.28L287.76,27.69L288.61,25.97L289.46,26.38L290.3,25.97L291.15,31.31L292,29.01L292.84,42.44L293.69,42.21L294.53,43.79L295.38,45.62L296.23,51.92L297.07,53.72L297.92,58.2L299.61,61.01L300.46,67.83L301.31,68.96L302.15,65.62L303,65.88L303.84,63.76L304.69,64.63L305.54,67.73L307.23,72.57L308.08,70.53L309.77,69.06L310.62,66.52L311.46,66.9L312.31,69.66L313.16,72.59L314,71.74L314.85,77.47L315.69,70.45L316.54,68.52L317.39,70.16L318.23,70.6L319.08,66.72L320.77,62.77L321.62,64.39L323.31,69.1L324.16,72.64L325.85,74.07L326.7,79.03L328.39,74.98L329.24,74.57L330.08,80.18L330.93,76.09L331.78,74.98L332.62,72.35L334.31,75.47L335.16,77.66L336.85,73.63L337.7,74.99L339.39,75.47L340.24,77.75L343.62,76.24L344.47,78.95L346.16,79.26L347.01,81.16L347.86,81.75L348.7,80.78L350.4,83.56L351.24,79.92L352.09,80.46L352.93,78.32L354.63,74.78L355.47,64.35L356.32,66.39L357.17,63.64L358.01,64.17L358.86,60.77L360.55,60.2L361.4,64.49L362.24,65.91L363.09,65.52L367.32,52.39L368.17,51.89L369.02,51.81L369.86,52.87L371.55,48.97L372.4,50.53L373.25,49.15L374.09,50.96L374.94,53.31L375.79,51.22L377.48,45.7L378.33,46.22L379.17,44.2L380.02,45.49L380.86,46.7L381.71,46.52L383.4,46.63L384.25,45.96L385.94,48.76L386.79,46.92L388.48,43.19L389.33,44.13L391.02,39.58L391.87,39.3L392.71,50.6L393.56,50.48L394.41,51.22L395.25,53.34L397.79,50.78L398.64,48.25L399.48,48.13L400.33,48.96L401.18,47.55L402.02,48.51L402.87,50.58L403.72,58.09L404.56,57.36L405.41,55.38L406.26,54.93L407.1,59.45L408.79,56.65L409.64,59.82L410.49,60.22L411.33,57.08L412.18,48.26L413.03,48.58L414.72,46.15L415.57,41.39L416.41,33.57L417.26,34.41L418.1,32.86L418.95,34.1L420.64,29.34L421.49,29.66L422.34,29.46L423.18,27.93L424.03,19.02L424.88,20.14L425.72,21.48L426.57,19.5L428.26,10.79L429.11,11.52L430.8,21.42L431.65,21.92L432.49,17.45L433.34,18.29L434.19,21.93L435.03,19.9L435.88,18.93L436.72,20.18L438.42,20.02L439.26,16.31L442.65,21.8L443.5,18.31L445.19,7.7L446.03,6.74L446.88,13.62L447.73,13.92L448.57,14.84L449.42,13.72L450.27,12L451.11,17.64L451.96,23.26L452.81,22.98L453.65,28.36L454.5,25.28L455.34,24.9L456.19,26.09L457.88,29.55L458.73,26.18L459.58,26.68L460.42,34.52L462.12,27.26L462.96,26.63L463.81,26.88L464.65,30.28L465.5,29.82L466.35,37.4L467.19,45.82L468.04,43.41L468.89,41.29L469.73,42.78L472.27,46.25L473.12,43.64L473.96,44.83L474.81,47.84L475.66,46.22L476.5,46.35L478.2,50.49L479.04,48.65L479.89,50.2L480.74,46.57L481.58,46.07L482.43,42.43L483.27,41.55L484.12,42.87L484.97,42.62L485.81,40.98L488.35,49.46L489.2,48.15L490.89,49.28L491.74,50.13L492.58,50.16L493.43,51.14L495.12,59.09L495.97,60.8L496.82,59.82L497.66,60.91L500.2,56.35L501.05,58.48L501.89,57.77L502.74,58.42L505.28,60.28L506.13,58.36L508.67,72.55L509.51,70.42L510.36,70.43L511.2,67.65L512.05,71.06L512.9,69.51L513.74,68.05L514.59,68.78L516.28,66.95L517.13,67.78L517.98,70.75L518.82,61.87L519.67,61.59L520.51,60.08L522.21,54.34L523.05,55.74L523.9,53.67L524.75,57.52L526.44,59.87L527.29,59.71L528.13,55.84L528.98,56.25L529.82,57.03L530.67,63.52L533.21,66.49L534.06,68.64L535.75,65.78L536.6,66.1L537.44,64.76L538.29,65.75L539.98,55.44L540.83,54.53L542.52,60.34L543.37,66.24L545.06,66.38L545.91,66.75L546.75,60.21L547.6,61.33L549.29,66.5L550.14,66.86L550.98,65.57L551.83,65.69L552.68,61.98L553.52,62.47L555.22,60.6L556.06,60.81L556.91,62.33L557.75,58.66L558.6,59.33L559.45,56.91L560.29,55.15L561.14,55.76L562.83,48.88L563.68,49.07L566.22,51.85L567.06,50.86L567.91,50.39L568.76,51.51L569.6,50.88L570.45,54.31L571.3,57.56L572.14,57.42L572.99,59.79L573.84,58.56L575.53,64.05L576.37,62.3L577.22,62.42L578.07,63.7L579.76,64.26L580.61,63.2L583.15,59.44L583.99,63.85L585.68,65.58L586.53,64.21L587.38,63.85L588.22,66.53L589.07,64.71L589.92,65.61L591.61,68.14L592.46,67.15L593.3,68.19L594.15,65.41L594.99,65.77L595.84,72.19L597.53,74.55L598.38,77.12L600.92,85.22L601.77,83.52L602.61,85.02L603.46,82.76L604.3,83.02L605.15,84.12L607.69,84.14L608.54,86.41L610.23,84.35L611.08,86.02L611.92,85.26L612.77,85.94L614.46,87.2L615.31,86.55L616.15,81.21L617,80.85" style="vector-effect: non-scaling-stroke; fill: none; stroke: rgb(31, 119, 180); stroke-opacity: 1; stroke-width: 2px; opacity: 1;"/></g><g class="points"/><g class="text"/></g></g></g><g class="overplot"/><path class="xlines-above crisp" d="M0,0" style="fill: none;"/><path class="ylines-above crisp" d="M0,0" style="fill: none;"/><g class="overlines-above"/><g class="xaxislayer-above"/><g class="yaxislayer-above"><g class="ytick"><text text-anchor="end" x="52" y="4.199999999999999" transform="translate(0,154.95999999999998)" style="font-family: 'Open Sans', verdana, arial, sans-serif; font-size: 12px; fill: rgb(214, 223, 239); fill-opacity: 1; white-space: pre; opacity: 1;">20k</text></g><g class="ytick"><text text-anchor="end" x="52" y="4.199999999999999" style="font-family: 'Open Sans', verdana, arial, sans-serif; font-size: 12px; fill: rgb(214, 223, 239); fill-opacity: 1; white-space: pre; opacity: 1;" transform="translate(0,114.46)">40k</text></g><g class="ytick"><text text-anchor="end" x="52" y="4.199999999999999" style="font-family: 'Open Sans', verdana, arial, sans-serif; font-size: 12px; fill: rgb(214, 223, 239); fill-opacity: 1; white-space: pre; opacity: 1;" transform="translate(0,73.96000000000001)">60k</text></g></g><g class="overaxes-above"/></g><g class="subplot x2y2"><g class="layer-subplot"><g class="shapelayer"/><g class="imagelayer"/></g><g class="gridlayer"><g class="x2"><path class="x2grid crisp" transform="translate(78.39,0)" d="M0,192.14v134.72" style="stroke: rgb(47, 62, 78); stroke-opacity: 1; stroke-width: 1px;"/><path class="x2grid crisp" transform="translate(156.26,0)" d="M0,192.14v134.72" style="stroke: rgb(47, 62, 78); stroke-opacity: 1; stroke-width: 1px;"/><path class="x2grid crisp" transform="translate(234.12,0)" d="M0,192.14v134.72" style="stroke: rgb(47, 62, 78); stroke-opacity: 1; stroke-width: 1px;"/><path class="x2grid crisp" transform="translate(310.29,0)" d="M0,192.14v134.72" style="stroke: rgb(47, 62, 78); stroke-opacity: 1; stroke-width: 1px;"/><path class="x2grid crisp" transform="translate(387.31,0)" d="M0,192.14v134.72" style="stroke: rgb(47, 62, 78); stroke-opacity: 1; stroke-width: 1px;"/><path class="x2grid crisp" transform="translate(465.18,0)" d="M0,192.14v134.72" style="stroke: rgb(47, 62, 78); stroke-opacity: 1; stroke-width: 1px;"/><path class="x2grid crisp" transform="translate(543.05,0)" d="M0,192.14v134.72" style="stroke: rgb(47, 62, 78); stroke-opacity: 1; stroke-width: 1px;"/><path class="x2grid crisp" transform="translate(619.22,0)" d="M0,192.14v134.72" style="stroke: rgb(47, 62, 78); stroke-opacity: 1; stroke-width: 1px;"/></g><g class="y2"><path class="y2grid crisp" transform="translate(0,319.26)" d="M53,0h617" style="stroke: rgb(47, 62, 78); stroke-opacity: 1; stroke-width: 1px;"/><path class="y2grid crisp" transform="translate(0,201.79)" d="M53,0h617" style="stroke: rgb(47, 62, 78); stroke-opacity: 1; stroke-width: 1px;"/></g></g><g class="zerolinelayer"><path class="y2zl zl crisp" transform="translate(0,260.53)" d="M53,0h617" style="stroke: rgb(47, 62, 78); stroke-opacity: 1; stroke-width: 2px;"/></g><path class="xlines-below"/><path class="ylines-below"/><g class="overlines-below"/><g class="xaxislayer-below"/><g class="yaxislayer-below"/><g class="overaxes-below"/><g class="plot" transform="translate(53,192.14)" clip-path="url(#clip771bedx2y2plot)"><g class="scatterlayer mlayer"><g class="trace scatter traceb2269318-88ce-46ad-8827-4a008653de30" style="stroke-miterlimit: 2; opacity: 1;"><g class="fills"/><g class="errorbars"/><g class="lines"><path class="js-line" d="M27.93,70.17L31.32,69.4L32.16,69.33L39.78,69.06L40.63,69.01L43.16,68.49L44.01,68.18L46.55,67.26L47.4,65.91L51.63,61.95L52.47,62.01L60.09,62.1L60.94,62.42L67.71,63.65L68.56,64.23L76.17,66.98L77.02,67.02L78.71,67.16L79.56,68.62L82.94,71.36L83.79,71.82L86.33,72.03L87.18,71.89L89.71,71L90.56,70.45L93.95,69.04L94.79,69.35L98.18,69.51L99.02,69.36L104.1,68.97L104.95,69.06L110.03,68.24L110.87,67.76L115.11,66.18L115.95,66.22L118.49,65.86L119.34,65.52L122.72,62.25L123.57,61.91L129.49,60.42L130.34,60.66L132.03,60.34L132.88,58.95L134.57,58.06L135.42,57.62L138.8,56.87L139.65,56.52L142.19,56.6L143.04,55.59L147.27,52.64L148.11,52.81L149.81,52.64L150.65,54.49L152.35,56.98L153.19,57.35L154.04,56.35L154.88,56.58L156.58,56.33L157.42,57.08L159.96,57.85L160.81,59.07L164.19,62.29L165.04,62.18L166.73,61.92L167.58,60.08L170.97,51.48L171.81,51.35L173.5,50.44L174.35,50.19L175.2,49.28L176.04,47.12L181.12,38.79L181.97,35.6L183.66,31.8L184.51,29.66L187.89,13.8L188.74,14.31L191.28,23.62L192.12,23.29L197.2,39.7L198.05,46.61L201.43,59.81L202.28,61.69L203.13,65.2L203.97,65.19L205.67,63.78L206.51,64.46L207.36,64.63L208.21,62.99L211.59,52.69L212.44,51.12L214.13,36.86L214.98,33.93L216.67,26.34L217.52,24.81L219.21,22.32L220.05,21.35L224.29,6.74L225.13,8.19L230.21,45.31L231.06,45.94L231.9,47.76L232.75,47.63L235.29,52.23L236.14,51.38L237.83,46.06L238.67,42.64L242.06,29.18L242.91,31.53L243.75,32.57L244.6,31.91L247.98,36.8L248.83,41.7L252.22,56.82L253.06,56.8L253.91,56.95L254.76,55.46L257.29,51.04L258.14,50.3L259.83,51.92L260.68,51.4L261.53,52.26L262.37,55.02L264.07,55.7L264.91,54.59L266.6,53.23L267.45,49.59L269.14,45.95L269.99,46.69L270.84,48.76L271.68,54.22L277.61,88.01L278.45,86.77L280.15,82.93L280.99,82.65L283.53,73.11L284.38,71.16L285.22,73.32L286.07,70.98L287.76,68.53L288.61,65.84L289.46,64.35L290.3,65.5L291.15,65.63L292,72.37L297.07,102.72L297.92,112.05L300.46,123.5L301.31,127.98L303,125.89L303.84,123.56L304.69,121.77L305.54,122.44L306.38,123.35L307.23,122.46L311.46,107.86L312.31,107.24L313.16,106.05L314,106.79L314.85,107.1L315.69,103.14L319.08,91.48L319.93,86.31L321.62,80.86L322.47,79.75L325,82.51L325.85,86.53L327.54,88.96L328.39,88.05L330.08,90.63L330.93,88.6L333.47,82.59L334.31,82.64L335.16,82.25L336.01,80.96L336.85,79.23L337.7,79.25L339.39,78.38L340.24,78.99L343.62,77.44L344.47,77.84L346.16,78.82L347.01,79.85L349.55,81.22L350.4,82.66L352.93,77.8L353.78,75.25L355.47,67.89L356.32,62.49L359.71,46.84L360.55,46.45L361.4,47.05L362.24,48.64L363.09,48.69L363.94,47.89L368.17,36.52L369.02,35.8L369.86,36.66L370.71,34.5L372.4,33.88L373.25,35.28L374.94,40.25L375.79,40.51L377.48,37.96L378.33,37.4L379.17,37.07L380.02,38.88L380.86,39.41L381.71,42.15L383.4,43.25L384.25,44.24L385.94,49.23L386.79,49.62L389.33,49.3L390.17,47.78L391.02,45.97L391.87,50.24L395.25,64.84L396.1,66.41L396.95,68.68L397.79,68.42L399.48,66.75L400.33,66.76L401.18,65.86L402.02,66.17L404.56,77.36L405.41,77.22L407.95,80.76L408.79,81.93L410.49,84.53L411.33,82.8L413.87,69.55L414.72,65.67L418.95,42.22L419.8,40.25L421.49,35.11L422.34,33.2L423.18,32.12L424.03,27.64L428.26,16.05L429.11,17.71L431.65,26.48L432.49,27.16L435.03,38.06L435.88,38.62L437.57,41.52L438.42,43.57L440.11,43.65L440.96,45.63L442.65,49.36L443.5,49.05L445.19,42.72L446.03,43.12L447.73,45.27L448.57,46.42L449.42,46.5L450.27,48.61L453.65,68.29L454.5,69.89L457.88,79.58L458.73,79.06L460.42,85.75L461.27,84.98L462.96,83.33L463.81,82.63L464.65,82.59L465.5,85.09L467.19,95.19L468.04,97.17L469.73,98.87L470.58,101.75L471.43,104L472.27,103.26L473.12,101.65L473.96,103.16L476.5,100.57L477.35,101.32L479.89,99.27L480.74,96.26L482.43,89.59L483.27,86.01L485.81,78.76L486.66,79.97L489.2,83.66L490.05,83.02L491.74,83.18L492.58,83.92L496.82,94.61L497.66,95.16L498.51,94.44L499.36,92.48L501.05,90.75L501.89,89.56L503.59,88.07L504.43,87.45L506.13,88.05L506.97,92.31L508.67,98.65L509.51,99.48L511.2,99.28L512.05,98.44L515.44,91.37L516.28,89.28L517.98,88.33L518.82,83.5L523.9,62.28L524.75,62.06L527.29,62.19L528.13,60.24L528.98,59.43L529.82,62.05L534.9,77.57L535.75,78.19L537.44,77.34L538.29,78.27L540.83,65.76L541.67,64.59L545.06,72.5L545.91,73.35L546.75,70.96L547.6,71.41L550.14,74.44L550.98,73.7L551.83,73.43L552.68,71.45L556.06,65.63L556.91,65.44L560.29,58.45L561.14,56.88L563.68,48.76L564.53,47.62L567.06,49.32L567.91,49.58L568.76,49.84L569.6,51.27L572.99,62.92L573.84,65.27L575.53,72.48L576.37,73.69L578.07,76.62L578.91,77.41L579.76,78.58L580.61,78.33L582.3,76.65L583.15,76.81L585.68,78.75L586.53,78.07L588.22,79.62L589.07,79.03L591.61,80.67L592.46,80.46L593.3,80.91L594.15,79.28L597.53,86.37L598.38,91.76L601.77,103.07L602.61,103.15L604.3,101.46L605.15,100.4L606,100.82L606.84,99.28L608.54,97.8L609.38,95.9L611.08,93.86L611.92,92.61L615.31,88.78L616.15,85.29L617,82.31" style="vector-effect: non-scaling-stroke; fill: none; stroke: rgb(255, 127, 14); stroke-opacity: 1; stroke-width: 2px; opacity: 1;"/></g><g class="points"/><g class="text"/></g></g></g><g class="overplot"/><path class="xlines-above crisp" d="M0,0" style="fill: none;"/><path class="ylines-above crisp" d="M0,0" style="fill: none;"/><g class="overlines-above"/><g class="xaxislayer-above"/><g class="yaxislayer-above"><g class="y2tick"><text text-anchor="end" x="52" y="4.199999999999999" transform="translate(0,319.26)" style="font-family: 'Open Sans', verdana, arial, sans-serif; font-size: 12px; fill: rgb(214, 223, 239); fill-opacity: 1; white-space: pre; opacity: 1;">−5000</text></g><g class="y2tick"><text text-anchor="end" x="52" y="4.199999999999999" style="font-family: 'Open Sans', verdana, arial, sans-serif; font-size: 12px; fill: rgb(214, 223, 239); fill-opacity: 1; white-space: pre; opacity: 1;" transform="translate(0,260.53)">0</text></g><g class="y2tick"><text text-anchor="end" x="52" y="4.199999999999999" style="font-family: 'Open Sans', verdana, arial, sans-serif; font-size: 12px; fill: rgb(214, 223, 239); fill-opacity: 1; white-space: pre; opacity: 1;" transform="translate(0,201.79)">5000</text></g></g><g class="overaxes-above"/></g><g class="subplot x3y3"><g class="layer-subplot"><g class="shapelayer"/><g class="imagelayer"/></g><g class="gridlayer"><g class="x3"><path class="x3grid crisp" transform="translate(78.39,0)" d="M0,335.28v134.72" style="stroke: rgb(47, 62, 78); stroke-opacity: 1; stroke-width: 1px;"/><path class="x3grid crisp" transform="translate(156.26,0)" d="M0,335.28v134.72" style="stroke: rgb(47, 62, 78); stroke-opacity: 1; stroke-width: 1px;"/><path class="x3grid crisp" transform="translate(234.12,0)" d="M0,335.28v134.72" style="stroke: rgb(47, 62, 78); stroke-opacity: 1; stroke-width: 1px;"/><path class="x3grid crisp" transform="translate(310.29,0)" d="M0,335.28v134.72" style="stroke: rgb(47, 62, 78); stroke-opacity: 1; stroke-width: 1px;"/><path class="x3grid crisp" transform="translate(387.31,0)" d="M0,335.28v134.72" style="stroke: rgb(47, 62, 78); stroke-opacity: 1; stroke-width: 1px;"/><path class="x3grid crisp" transform="translate(465.18,0)" d="M0,335.28v134.72" style="stroke: rgb(47, 62, 78); stroke-opacity: 1; stroke-width: 1px;"/><path class="x3grid crisp" transform="translate(543.05,0)" d="M0,335.28v134.72" style="stroke: rgb(47, 62, 78); stroke-opacity: 1; stroke-width: 1px;"/><path class="x3grid crisp" transform="translate(619.22,0)" d="M0,335.28v134.72" style="stroke: rgb(47, 62, 78); stroke-opacity: 1; stroke-width: 1px;"/></g><g class="y3"><path class="y3grid crisp" transform="translate(0,461.60999999999996)" d="M53,0h617" style="stroke: rgb(47, 62, 78); stroke-opacity: 1; stroke-width: 1px;"/><path class="y3grid crisp" transform="translate(0,427.92999999999995)" d="M53,0h617" style="stroke: rgb(47, 62, 78); stroke-opacity: 1; stroke-width: 1px;"/><path class="y3grid crisp" transform="translate(0,394.23999999999995)" d="M53,0h617" style="stroke: rgb(47, 62, 78); stroke-opacity: 1; stroke-width: 1px;"/><path class="y3grid crisp" transform="translate(0,360.55999999999995)" d="M53,0h617" style="stroke: rgb(47, 62, 78); stroke-opacity: 1; stroke-width: 1px;"/></g></g><g class="zerolinelayer"/><path class="xlines-below"/><path class="ylines-below"/><g class="overlines-below"/><g class="xaxislayer-below"/><g class="yaxislayer-below"/><g class="overaxes-below"/><g class="plot" transform="translate(53,335.28)" clip-path="url(#clip771bedx3y3plot)"><g class="scatterlayer mlayer"><g class="trace scatter tracebdcfeade-4174-42e6-ae14-1e3fb9906a01" style="stroke-miterlimit: 2; opacity: 1;"><g class="fills"/><g class="errorbars"/><g class="lines"><path class="js-line" d="M33.01,87.05L34.7,87.22L35.55,86.94L37.24,82.97L38.09,82.86L38.93,82.91L39.78,82.18L41.47,81.1L42.32,81.17L44.01,78.02L44.86,75L46.55,69.49L47.4,85.38L50.78,71.86L51.63,71.49L55.01,61.61L55.86,60.31L56.71,59.33L57.55,59.72L62.63,66.66L63.48,66.38L64.32,66.1L65.17,57.42L66.86,54.07L67.71,53.36L71.94,45.56L72.79,44.89L74.48,45.01L75.33,45.68L77.02,45.78L77.87,44.86L79.56,44.2L80.4,45.38L82.1,50.98L82.94,55.5L85.48,66.83L86.33,71.35L88.87,81.35L89.71,82.22L92.25,84.57L93.1,82.78L94.79,79.81L95.64,80.29L96.49,81.46L97.33,81.33L99.02,81.35L99.87,82.23L101.56,82.88L102.41,82.84L104.1,84.64L104.95,85.91L107.49,91.57L108.33,89.77L110.03,80.64L110.87,73.2L114.26,29.42L115.11,23.67L115.95,21.88L116.8,22.6L117.64,23.02L118.49,24.36L119.34,27.52L120.18,54.36L122.72,45.39L123.57,45.08L124.42,43.7L125.26,46.38L127.8,42.73L128.65,43.68L131.19,48.3L132.03,48.13L132.88,48.58L133.73,46.06L136.26,39.06L137.11,37.69L137.96,37.29L138.8,35.2L139.65,34.17L140.5,34.67L141.34,34.7L142.19,32.26L143.04,29.81L143.88,29.84L146.42,30.37L147.27,31.63L148.11,32.96L148.96,30.43L149.81,29.54L150.65,30.79L152.35,34.95L153.19,35.9L154.88,33.83L155.73,34.27L157.42,34.47L158.27,35.82L160.81,40.17L161.66,44.91L164.19,46.55L165.04,45.39L166.73,42.83L167.58,28.26L169.27,25.58L170.12,24L173.5,17.43L174.35,17.2L175.2,17.38L176.04,25.48L176.89,31.35L177.74,29.86L178.58,28.7L179.43,32.94L181.12,33.79L181.97,41.89L182.81,43.65L183.66,40.41L184.51,36.23L185.35,38.47L186.2,44.44L187.05,44.96L188.74,40.72L189.59,40.99L192.12,44.34L192.97,44.4L194.66,44.43L195.51,44.86L196.36,44.39L197.2,45.35L198.9,46.88L199.74,48.24L201.43,49.5L202.28,50.02L203.97,49.9L204.82,48.33L209.05,36.71L209.9,35.21L211.59,30.66L212.44,28.12L214.13,12.26L214.98,9.88L216.67,6.74L217.52,12.64L218.36,16.23L219.21,16.53L220.05,18.06L220.9,24.83L221.75,27.02L222.59,32.47L223.44,44.48L224.29,44.54L225.13,45.27L225.98,47.35L229.36,59.03L230.21,59.14L233.6,49.88L234.44,47.33L239.52,27.91L240.37,27.12L242.06,14.69L242.91,13.85L249.68,25.08L250.52,26.71L253.91,44.72L254.76,50.35L257.29,55.8L258.14,53.78L259.83,41.24L260.68,38.4L261.53,37.32L262.37,38.04L263.22,38.51L264.07,36.64L265.76,36.89L266.6,36.88L268.3,20.21L269.14,20.12L270.84,20.86L271.68,22.56L273.38,30.52L274.22,35.98L278.45,65.58L279.3,64.5L280.15,62.86L280.99,62.96L283.53,59.88L284.38,58.32L286.07,55.84L286.92,53.81L291.15,43.89L292,42.8L292.84,44.93L293.69,49.75L299.61,83.65L300.46,86.75L301.31,84.91L302.15,85.61L307.23,88.66L308.08,88.93L309.77,88.78L310.62,90.4L311.46,89.7L312.31,92.01L314,101.03L314.85,94.44L317.39,94.69L318.23,95.77L321.62,99.26L322.47,97.53L325,92.62L325.85,88.02L328.39,73.48L329.24,70.84L330.08,71.12L330.93,73.4L332.62,75.39L333.47,75.62L335.16,75.76L336.01,75.55L336.85,74.72L337.7,71.65L339.39,65.74L340.24,66.34L344.47,68.92L345.32,70.51L346.16,72.12L347.01,70.14L347.86,69.28L348.7,71.26L349.55,74.13L350.4,71.61L352.09,75.93L352.93,76.05L353.78,73.44L354.63,66.92L357.17,49.28L358.01,46L358.86,46.52L359.71,44.3L360.55,42.84L361.4,43.4L363.09,45.22L363.94,45.21L365.63,44.74L366.48,44.38L368.17,44.37L369.02,45.93L369.86,47.46L370.71,46.51L371.55,46.28L372.4,47.2L373.25,47.57L374.09,49.01L374.94,49.48L375.79,48.86L377.48,39.32L378.33,38.05L379.17,34.79L380.02,34.79L382.56,36.65L383.4,37.95L387.64,42.55L388.48,39.42L389.33,38.39L390.17,33.16L391.87,25.72L392.71,28.14L396.1,40.02L396.95,41.19L400.33,43.33L401.18,42.89L402.87,42.78L403.72,44.02L405.41,45.37L406.26,45.55L412.18,64.64L413.03,65.58L414.72,64.8L415.57,62.45L417.26,49.53L418.1,46.92L420.64,44.83L421.49,45.03L424.03,47.22L424.88,43.49L425.72,41.91L426.57,42.89L429.11,42.33L429.95,44.11L432.49,49.66L433.34,50.52L434.19,51.4L435.03,50.52L437.57,45.36L438.42,44.09L441.8,36.46L442.65,37.47L443.5,37.84L444.34,34.72L446.03,25.34L446.88,25.62L447.73,26.69L448.57,24.04L450.27,19.93L451.11,21.05L454.5,32.76L455.34,35.7L459.58,50.63L460.42,55.96L462.96,65.94L463.81,67.61L464.65,67.96L465.5,67.4L466.35,65.85L467.19,67.21L471.43,72.59L472.27,73.67L473.96,75.7L474.81,77.34L479.04,82.87L479.89,83.91L481.58,84.94L482.43,84.03L483.27,83.36L484.12,83.87L486.66,85L487.51,86.4L491.74,92.09L492.58,96.68L493.43,100.92L494.28,76.4L496.82,72.23L497.66,71.93L498.51,70.6L499.36,71.09L504.43,73.26L505.28,73.69L506.13,73.91L506.97,70.24L508.67,74.67L509.51,75.56L515.44,83.79L516.28,84.06L517.98,85.56L518.82,84.22L520.51,80.05L521.36,73.79L523.9,61.79L524.75,58.99L526.44,56.4L527.29,57.27L528.98,57.65L529.82,58.62L532.36,66.58L533.21,69.8L534.9,77.23L535.75,89.52L536.6,88.68L537.44,84.52L538.29,79.72L539.13,70.61L541.67,43.09L542.52,41.19L545.06,40.39L545.91,40.84L547.6,38.4L548.44,38.86L550.14,41.23L550.98,48.19L553.52,53.87L554.37,57.9L558.6,67.8L559.45,68.39L561.99,45.11L562.83,42.61L564.53,34.73L565.37,33.84L567.06,35.25L567.91,36.37L569.6,38.82L570.45,41.56L575.53,63.42L576.37,71.63L578.07,73.68L578.91,73.56L579.76,73.02L580.61,69.6L583.15,58.59L583.99,58.65L585.68,58.86L586.53,58.17L588.22,57.54L589.07,57.67L589.92,57.93L590.76,56.36L594.99,73.95L595.84,69.86L597.53,71.92L598.38,71.57L599.23,71.88L600.07,71.04L600.92,70.94L601.77,71.99L602.61,72.57L603.46,74.36L607.69,79.08L608.54,79.32L611.08,80.42L611.92,88.06L612.77,96.14L613.61,95.33L616.15,96.71L617,96.44" style="vector-effect: non-scaling-stroke; fill: none; stroke: rgb(44, 160, 44); stroke-opacity: 1; stroke-width: 2px; opacity: 1;"/></g><g class="points"/><g class="text"/></g><g class="trace scatter trace638ea527-6151-480c-a630-86fbc5f56ec6" style="stroke-miterlimit: 2; opacity: 1;"><g class="fills"/><g class="errorbars"/><g class="lines"><path class="js-line" d="M33.01,92.3L33.85,99.45L34.7,99.5L38.09,121.64L38.93,125.34L39.78,127.98L40.63,127.51L41.47,125.45L42.32,105.46L44.01,77.47L44.86,75.14L45.7,73.28L46.55,75.6L50.78,93.15L51.63,95.81L54.17,104.98L55.01,106.3L56.71,108.05L57.55,109.29L59.25,110.42L60.09,109.93L65.17,103.5L66.02,103.31L69.4,103.1L70.25,101.88L71.09,102.67L71.94,102.16L72.79,102.46L73.63,98.1L76.17,80.03L77.02,71.97L78.71,64.23L79.56,57.85L81.25,51.57L82.1,49.52L84.64,42.29L85.48,42.01L92.25,45.88L93.1,47L95.64,48.74L96.49,48.51L98.18,47.88L99.02,46.36L100.72,44.54L101.56,44.46L105.8,42.86L106.64,42.47L110.03,41.73L110.87,42.51L113.41,47.31L114.26,50.06L117.64,65.78L118.49,70.5L119.34,75.13L120.18,75.36L121.88,77.69L122.72,79.2L129.49,89.03L130.34,92.89L132.03,103.46L132.88,100.47L136.26,91.77L137.11,91L137.96,90.36L138.8,87.23L139.65,86.09L140.5,87.16L142.19,90.36L143.04,85.7L146.42,78.06L147.27,78.86L148.11,78.94L148.96,78.08L151.5,77.14L152.35,76.49L154.04,76.52L154.88,76.79L156.58,77.39L157.42,75.26L160.81,66.15L161.66,63.81L166.73,44.99L167.58,47.43L171.81,70.8L172.66,71.44L174.35,75.01L175.2,71.95L176.04,70.75L176.89,73.52L180.28,84.42L181.12,86.21L186.2,98.35L187.05,99.91L188.74,102.63L189.59,103.04L191.28,101.3L192.12,99.92L194.66,91.28L195.51,86.89L203.13,52.52L203.97,51.28L206.51,54.41L207.36,56.34L213.28,71.74L214.13,72.78L216.67,74.85L217.52,74.72L218.36,73.95L219.21,72.13L220.9,68.74L221.75,69.76L222.59,69.5L223.44,68.39L225.13,68.92L225.98,69.17L226.83,69.16L227.67,68.24L229.36,68.79L230.21,68.24L236.98,63.29L237.83,63.57L239.52,67.84L240.37,71.87L242.91,81.99L243.75,83.15L244.6,83.97L245.45,83.45L249.68,59.9L250.52,52.59L252.22,34.61L253.06,29.62L253.91,26.57L254.76,27.38L258.14,34.03L258.99,35.04L263.22,40.18L264.07,42.97L268.3,67.61L269.14,74.84L269.99,75.52L270.84,71.33L271.68,65.12L272.53,52.08L275.07,18.69L275.91,19.96L276.76,22.17L277.61,22.22L279.3,17.05L280.15,16.56L281.84,15.91L282.69,16.99L283.53,18.94L284.38,24.86L287.76,39.53L288.61,44.36L290.3,57.97L291.15,65.18L292.84,61.87L293.69,58.95L295.38,46.65L296.23,38.04L298.77,20.33L299.61,20.51L302.15,14.41L303,15.47L308.08,30.91L308.92,33.14L310.62,38.65L311.46,43.18L315.69,66.06L316.54,64.55L320.77,56.46L321.62,57.2L324.16,60.48L325,61.07L327.54,60.43L328.39,59.99L330.08,59.47L330.93,60.14L333.47,66.55L334.31,71.91L337.7,91.67L338.55,94.93L341.09,102.99L341.93,104.2L342.78,102.78L343.62,104.05L345.32,105.04L346.16,103.62L347.86,98.54L348.7,93.72L351.24,74.03L352.09,74.61L352.93,76.13L353.78,66.3L355.47,50.08L356.32,47.96L357.17,48.87L358.01,57.18L360.55,92.03L361.4,95.8L364.78,99.05L365.63,99.02L369.86,98.67L370.71,98.15L371.55,97.7L372.4,100.3L374.09,102.64L374.94,102.84L378.33,104.83L379.17,105.51L381.71,107.19L382.56,108.01L383.4,109.01L384.25,107.05L385.94,100.43L386.79,96.03L391.87,64L392.71,59.81L393.56,57.29L394.41,57.12L395.25,56.36L396.1,53.8L400.33,40.95L401.18,40.6L402.02,41.01L402.87,39.68L405.41,37.34L406.26,37.51L407.1,37.65L407.95,38.77L410.49,39.5L411.33,39.53L412.18,39.72L413.03,41.86L415.57,47.18L416.41,49.64L420.64,60.01L421.49,61.63L424.03,67.8L424.88,71.88L428.26,85.59L429.11,87.71L431.65,91.18L432.49,91.87L433.34,92.15L434.19,91.55L438.42,88.39L439.26,87.98L442.65,88.19L443.5,84.78L447.73,63.61L448.57,64.29L450.27,64.06L451.11,60.32L453.65,40.31L454.5,35.44L457.04,23.39L457.88,20.86L458.73,20.73L459.58,18.79L461.27,19.86L462.12,22.39L465.5,29.52L466.35,28.89L468.04,29.11L468.89,29.91L471.43,33.21L472.27,35.78L475.66,45.04L476.5,43.8L479.89,38.17L480.74,38.23L486.66,47.69L487.51,48.24L490.05,53.14L490.89,56.07L491.74,58.02L492.58,57.89L493.43,57.71L494.28,55.95L496.82,53.49L497.66,54.01L499.36,55.65L500.2,54.97L502.74,57.12L503.59,59.03L505.28,65.43L506.13,70.16L508.67,81.09L509.51,78.95L512.9,56.07L513.74,50.7L516.28,39.69L517.13,37.57L517.98,35.47L518.82,37.63L520.51,47.74L521.36,57.06L523.9,77.32L524.75,80.82L529.82,99.78L530.67,101.32L531.52,102.08L532.36,101.71L535.75,91.77L536.6,90.06L539.13,86.05L539.98,85.94L543.37,88.11L544.21,89.01L545.91,91.31L546.75,93.59L547.6,93.63L548.44,90.74L549.29,87.24L550.14,80.5L553.52,52.15L554.37,47.96L556.06,45.06L556.91,47.12L563.68,70.77L564.53,74.5L569.6,92.22L570.45,90.68L574.68,75.69L575.53,72.39L580.61,53.45L581.45,53.85L583.15,58.4L583.99,61.47L586.53,72.16L587.38,72.07L589.07,73.87L589.92,73.92L591.61,68.89L592.46,67.9L594.99,61.66L595.84,54.05L600.92,10.46L601.77,6.95L602.61,7.67L603.46,9.71L607.69,19.38L608.54,21.02L610.23,26.09L611.08,29.23L612.77,33.76L613.61,37.21L616.15,53.67L617,61.68" style="vector-effect: non-scaling-stroke; fill: none; stroke: rgb(220, 57, 18); stroke-opacity: 1; stroke-width: 2px; opacity: 1;"/></g><g class="points"/><g class="text"/></g></g></g><g class="overplot"/><path class="xlines-above crisp" d="M0,0" style="fill: none;"/><path class="ylines-above crisp" d="M0,0" style="fill: none;"/><g class="overlines-above"/><g class="xaxislayer-above"><g class="x3tick"><text text-anchor="middle" x="0" y="483" transform="translate(78.39,0)" style="font-family: 'Open Sans', verdana, arial, sans-serif; font-size: 12px; fill: rgb(214, 223, 239); fill-opacity: 1; white-space: pre; opacity: 1;">Jul 2020</text></g><g class="x3tick"><text text-anchor="middle" x="0" y="483" style="font-family: 'Open Sans', verdana, arial, sans-serif; font-size: 12px; fill: rgb(214, 223, 239); fill-opacity: 1; white-space: pre; opacity: 1;" transform="translate(156.26,0)">Oct 2020</text></g><g class="x3tick"><text text-anchor="middle" x="0" y="483" style="font-family: 'Open Sans', verdana, arial, sans-serif; font-size: 12px; fill: rgb(214, 223, 239); fill-opacity: 1; white-space: pre; opacity: 1;" transform="translate(234.12,0)">Jan 2021</text></g><g class="x3tick"><text text-anchor="middle" x="0" y="483" style="font-family: 'Open Sans', verdana, arial, sans-serif; font-size: 12px; fill: rgb(214, 223, 239); fill-opacity: 1; white-space: pre; opacity: 1;" transform="translate(310.29,0)">Apr 2021</text></g><g class="x3tick"><text text-anchor="middle" x="0" y="483" style="font-family: 'Open Sans', verdana, arial, sans-serif; font-size: 12px; fill: rgb(214, 223, 239); fill-opacity: 1; white-space: pre; opacity: 1;" transform="translate(387.31,0)">Jul 2021</text></g><g class="x3tick"><text text-anchor="middle" x="0" y="483" style="font-family: 'Open Sans', verdana, arial, sans-serif; font-size: 12px; fill: rgb(214, 223, 239); fill-opacity: 1; white-space: pre; opacity: 1;" transform="translate(465.18,0)">Oct 2021</text></g><g class="x3tick"><text text-anchor="middle" x="0" y="483" style="font-family: 'Open Sans', verdana, arial, sans-serif; font-size: 12px; fill: rgb(214, 223, 239); fill-opacity: 1; white-space: pre; opacity: 1;" transform="translate(543.05,0)">Jan 2022</text></g><g class="x3tick"><text text-anchor="middle" x="0" y="483" style="font-family: 'Open Sans', verdana, arial, sans-serif; font-size: 12px; fill: rgb(214, 223, 239); fill-opacity: 1; white-space: pre; opacity: 1;" transform="translate(619.22,0)">Apr 2022</text></g></g><g class="yaxislayer-above"><g class="y3tick"><text text-anchor="end" x="52" y="4.199999999999999" transform="translate(0,461.60999999999996)" style="font-family: 'Open Sans', verdana, arial, sans-serif; font-size: 12px; fill: rgb(214, 223, 239); fill-opacity: 1; white-space: pre; opacity: 1;">0.2</text></g><g class="y3tick"><text text-anchor="end" x="52" y="4.199999999999999" style="font-family: 'Open Sans', verdana, arial, sans-serif; font-size: 12px; fill: rgb(214, 223, 239); fill-opacity: 1; white-space: pre; opacity: 1;" transform="translate(0,427.92999999999995)">0.4</text></g><g class="y3tick"><text text-anchor="end" x="52" y="4.199999999999999" style="font-family: 'Open Sans', verdana, arial, sans-serif; font-size: 12px; fill: rgb(214, 223, 239); fill-opacity: 1; white-space: pre; opacity: 1;" transform="translate(0,394.23999999999995)">0.6</text></g><g class="y3tick"><text text-anchor="end" x="52" y="4.199999999999999" style="font-family: 'Open Sans', verdana, arial, sans-serif; font-size: 12px; fill: rgb(214, 223, 239); fill-opacity: 1; white-space: pre; opacity: 1;" transform="translate(0,360.55999999999995)">0.8</text></g></g><g class="overaxes-above"/></g></g><g class="polarlayer"/><g class="smithlayer"/><g class="ternarylayer"/><g class="geolayer"/><g class="funnelarealayer"/><g class="pielayer"/><g class="iciclelayer"/><g class="treemaplayer"/><g class="sunburstlayer"/><g class="glimages"/><defs id="topdefs-771bed"><g class="clips"/><clipPath id="legend771bed"><rect width="365" height="29" x="0" y="0"/></clipPath></defs><g class="layer-above"><g class="imagelayer"/><g class="shapelayer"/></g><g class="infolayer"><g class="legend" pointer-events="all" transform="translate(305,11.579999999999991)"><rect class="bg" shape-rendering="crispEdges" width="365" height="29" x="0" y="0" style="stroke: rgb(68, 68, 68); stroke-opacity: 1; fill: rgb(33, 34, 44); fill-opacity: 1; stroke-width: 0px;"/><g class="scrollbox" transform="" clip-path="url(#legend771bed)"><g class="groups"><g class="traces" transform="translate(0,14.5)" style="opacity: 1;"><text class="legendtext" text-anchor="start" x="40" y="4.680000000000001" style="font-family: 'Open Sans', verdana, arial, sans-serif; font-size: 12px; fill: rgb(214, 223, 239); fill-opacity: 1; white-space: pre;">Price</text><g class="layers" style="opacity: 1;"><g class="legendfill"/><g class="legendlines"><path class="js-line" d="M5,0h30" style="fill: none; stroke: rgb(31, 119, 180); stroke-opacity: 1; stroke-width: 2px;"/></g><g class="legendsymbols"><g class="legendpoints"/></g></g><rect class="legendtoggle" x="0" y="-9.5" width="71.5625" height="19" style="fill: rgb(0, 0, 0); fill-opacity: 0;"/></g><g class="traces" transform="translate(74.0625,14.5)" style="opacity: 1;"><text class="legendtext" text-anchor="start" x="40" y="4.680000000000001" style="font-family: 'Open Sans', verdana, arial, sans-serif; font-size: 12px; fill: rgb(214, 223, 239); fill-opacity: 1; white-space: pre;">MACD</text><g class="layers" style="opacity: 1;"><g class="legendfill"/><g class="legendlines"><path class="js-line" d="M5,0h30" style="fill: none; stroke: rgb(255, 127, 14); stroke-opacity: 1; stroke-width: 2px;"/></g><g class="legendsymbols"><g class="legendpoints"/></g></g><rect class="legendtoggle" x="0" y="-9.5" width="78.453125" height="19" style="fill: rgb(0, 0, 0); fill-opacity: 0;"/></g><g class="traces" transform="translate(155.015625,14.5)" style="opacity: 1;"><text class="legendtext" text-anchor="start" x="40" y="4.680000000000001" style="font-family: 'Open Sans', verdana, arial, sans-serif; font-size: 12px; fill: rgb(214, 223, 239); fill-opacity: 1; white-space: pre;">Price Sim</text><g class="layers" style="opacity: 1;"><g class="legendfill"/><g class="legendlines"><path class="js-line" d="M5,0h30" style="fill: none; stroke: rgb(44, 160, 44); stroke-opacity: 1; stroke-width: 2px;"/></g><g class="legendsymbols"><g class="legendpoints"/></g></g><rect class="legendtoggle" x="0" y="-9.5" width="98.9375" height="19" style="fill: rgb(0, 0, 0); fill-opacity: 0;"/></g><g class="traces" transform="translate(256.453125,14.5)" style="opacity: 1;"><text class="legendtext" text-anchor="start" x="40" y="4.680000000000001" style="font-family: 'Open Sans', verdana, arial, sans-serif; font-size: 12px; fill: rgb(214, 223, 239); fill-opacity: 1; white-space: pre;">MACD Sim</text><g class="layers" style="opacity: 1;"><g class="legendfill"/><g class="legendlines"><path class="js-line" d="M5,0h30" style="fill: none; stroke: rgb(220, 57, 18); stroke-opacity: 1; stroke-width: 2px;"/></g><g class="legendsymbols"><g class="legendpoints"/></g></g><rect class="legendtoggle" x="0" y="-9.5" width="105.828125" height="19" style="fill: rgb(0, 0, 0); fill-opacity: 0;"/></g></g></g><rect class="scrollbar" rx="20" ry="3" width="0" height="0" x="0" y="0" style="fill: rgb(128, 139, 164); fill-opacity: 1;"/></g><g class="g-gtitle"/><g class="g-xtitle"/><g class="g-x2title"/><g class="g-x3title"/><g class="g-ytitle"/><g class="g-y2title"/><g class="g-y3title"/></g></svg>