<svg class="main-svg" xmlns="http://www.w3.org/2000/svg" xmlns:xlink="http://www.w3.org/1999/xlink" width="700" height="350" style="" viewBox="0 0 700 350"><rect x="0" y="0" width="700" height="350" style="fill: rgb(33, 34, 44); fill-opacity: 1;"/><defs id="defs-071526"><g class="clips"><clipPath id="clip071526xyplot" class="plotclip"><rect width="637" height="261"/></clipPath><clipPath class="axesclip" id="clip071526x"><rect x="33" y="0" width="637" height="350"/></clipPath><clipPath class="axesclip" id="clip071526y"><rect x="0" y="46" width="700" height="261"/></clipPath><clipPath class="axesclip" id="clip071526xy"><rect x="33" y="46" width="637" height="261"/></clipPath></g><g class="gradients"/><g class="patterns"/></defs><g class="bglayer"/><g class="layer-below"><g class="imagelayer"/><g class="shapelayer"/></g><g class="cartesianlayer"><g class="subplot xy"><g class="layer-subplot"><g class="shapelayer"/><g class="imagelayer"/></g><g class="gridlayer"><g class="x"><path class="xgrid crisp" transform="translate(58.89,0)" d="M0,46v261" style="stroke: rgb(47, 62, 78); stroke-opacity: 1; stroke-width: 1px;"/><path class="xgrid crisp" transform="translate(131.4,0)" d="M0,46v261" style="stroke: rgb(47, 62, 78); stroke-opacity: 1; stroke-width: 1px;"/><path class="xgrid crisp" transform="translate(203.9,0)" d="M0,46v261" style="stroke: rgb(47, 62, 78); stroke-opacity: 1; stroke-width: 1px;"/><path class="xgrid crisp" transform="translate(276.40999999999997,0)" d="M0,46v261" style="stroke: rgb(47, 62, 78); stroke-opacity: 1; stroke-width: 1px;"/><path class="xgrid crisp" transform="translate(348.91,0)" d="M0,46v261" style="stroke: rgb(47, 62, 78); stroke-opacity: 1; stroke-width: 1px;"/><path class="xgrid crisp" transform="translate(421.41,0)" d="M0,46v261" style="stroke: rgb(47, 62, 78); stroke-opacity: 1; stroke-width: 1px;"/><path class="xgrid crisp" transform="translate(493.92,0)" d="M0,46v261" style="stroke: rgb(47, 62, 78); stroke-opacity: 1; stroke-width: 1px;"/><path class="xgrid crisp" transform="translate(566.42,0)" d="M0,46v261" style="stroke: rgb(47, 62, 78); stroke-opacity: 1; stroke-width: 1px;"/><path class="xgrid crisp" transform="translate(638.93,0)" d="M0,46v261" style="stroke: rgb(47, 62, 78); stroke-opacity: 1; stroke-width: 1px;"/></g><g class="y"><path class="ygrid crisp" transform="translate(0,276.65)" d="M33,0h637" style="stroke: rgb(47, 62, 78); stroke-opacity: 1; stroke-width: 1px;"/><path class="ygrid crisp" transform="translate(0,237.32)" d="M33,0h637" style="stroke: rgb(47, 62, 78); stroke-opacity: 1; stroke-width: 1px;"/><path class="ygrid crisp" transform="translate(0,198)" d="M33,0h637" style="stroke: rgb(47, 62, 78); stroke-opacity: 1; stroke-width: 1px;"/><path class="ygrid crisp" transform="translate(0,158.67000000000002)" d="M33,0h637" style="stroke: rgb(47, 62, 78); stroke-opacity: 1; stroke-width: 1px;"/><path class="ygrid crisp" transform="translate(0,119.35)" d="M33,0h637" style="stroke: rgb(47, 62, 78); stroke-opacity: 1; stroke-width: 1px;"/><path class="ygrid crisp" transform="translate(0,80.02000000000001)" d="M33,0h637" style="stroke: rgb(47, 62, 78); stroke-opacity: 1; stroke-width: 1px;"/></g></g><g class="zerolinelayer"/><path class="xlines-below"/><path class="ylines-below"/><g class="overlines-below"/><g class="xaxislayer-below"/><g class="yaxislayer-below"/><g class="overaxes-below"/><g class="plot" transform="translate(33,46)" clip-path="url(#clip071526xyplot)"><g class="scatterlayer mlayer"><g class="trace scatter traceab219516-88ba-4dfb-8af3-00a1ed3a40cc" style="stroke-miterlimit: 2; opacity: 0.5;"><g class="fills"/><g class="errorbars"/><g class="lines"><path class="js-line" d="M0,230.65L5.18,229.69L10.36,227.63L20.72,226.66L25.89,222.36L36.25,221.23L41.43,221.92L46.61,224.81L51.79,223.37L56.97,224.25L62.15,223.14L67.33,222.82L72.5,224.83L77.68,229.15L82.86,228.64L88.04,230.86L93.22,229.93L98.4,231.03L103.58,235.91" style="vector-effect: non-scaling-stroke; fill: none; stroke: rgb(177, 186, 34); stroke-opacity: 1; stroke-width: 2px; opacity: 1;"/></g><g class="points"/><g class="text"/></g><g class="trace scatter trace478a9415-f068-4ada-a0fb-7b1c78b45e1a" style="stroke-miterlimit: 2; opacity: 0.5;"><g class="fills"/><g class="errorbars"/><g class="lines"><path class="js-line" d="M0,230.65L10.36,235.57L15.54,229.74" style="vector-effect: non-scaling-stroke; fill: none; stroke: rgb(191, 176, 32); stroke-opacity: 1; stroke-width: 2px; opacity: 1;"/></g><g class="points"/><g class="text"/></g><g class="trace scatter trace5bbf0348-a45d-48b6-bc79-24e0fdd2a27c" style="stroke-miterlimit: 2; opacity: 0.5;"><g class="fills"/><g class="errorbars"/><g class="lines"><path class="js-line" d="M0,230.65L5.18,231.32" style="vector-effect: non-scaling-stroke; fill: none; stroke: rgb(188, 185, 33); stroke-opacity: 1; stroke-width: 2px; opacity: 1;"/></g><g class="points"/><g class="text"/></g><g class="trace scatter trace7f68ec1c-ae50-4033-8e68-885e32dec761" style="stroke-miterlimit: 2; opacity: 0.5;"><g class="fills"/><g class="errorbars"/><g class="lines"><path class="js-line" d="M0,230.65L5.18,230.57L10.36,233.31L15.54,227.94L20.72,229.1L25.89,229.33L31.07,226.91L36.25,228.04L41.43,225.97L46.61,220.91L51.79,221.87L56.97,214.48L62.15,214.59L67.33,211.94L72.5,217.57L77.68,226.38L82.86,225.05L88.04,229.46L93.22,230.82L98.4,231.1L103.58,232.75L108.76,225.2L113.93,227.15L119.11,223.91L124.29,227.26L134.65,226.4L139.83,222.85" style="vector-effect: non-scaling-stroke; fill: none; stroke: rgb(178, 187, 34); stroke-opacity: 1; stroke-width: 2px; opacity: 1;"/></g><g class="points"/><g class="text"/></g><g class="trace scatter traceeb5c4504-b444-4461-9800-16a079c10653" style="stroke-miterlimit: 2; opacity: 0.5;"><g class="fills"/><g class="errorbars"/><g class="lines"><path class="js-line" d="M0,230.65L5.18,232.16L10.36,234.87L15.54,232.05L20.72,231.96L25.89,229.8L31.07,229.49L36.25,229.68L41.43,224.74L46.61,225.56L51.79,225.29L62.15,229.48L67.33,234.61L72.5,235.3L77.68,234.25L88.04,240.54L93.22,241.3" style="vector-effect: non-scaling-stroke; fill: none; stroke: rgb(191, 173, 32); stroke-opacity: 1; stroke-width: 2px; opacity: 1;"/></g><g class="points"/><g class="text"/></g><g class="trace scatter traceb414365e-ff19-4072-a4f6-25216418e57b" style="stroke-miterlimit: 2; opacity: 0.5;"><g class="fills"/><g class="errorbars"/><g class="lines"><path class="js-line" d="M0,230.65L5.18,228.92L10.36,228.38L15.54,227.25L20.72,228.02L31.07,227.41L36.25,228.74L46.61,227.43L51.79,225.66L56.97,224.53L62.15,218.33L67.33,217L72.5,217.32L77.68,215.98L82.86,216.57L88.04,216.4L93.22,212.25L98.4,214.88L103.58,213.53L108.76,212.79L113.93,211.14L119.11,211.35L124.29,212.86L129.47,209.49L134.65,208.63L139.83,198.34L145.01,198.41L150.19,203.83L155.37,199.16L160.54,200.2L165.72,200.42L170.9,197.67L176.08,193.35L181.26,193.14L186.44,194.92L191.62,195.73L196.8,190.34L201.98,183.61L207.15,182.78L212.33,182.59L217.51,176.52L222.69,176.18L227.87,178.24L233.05,178.57L238.23,172.93L243.41,176.07L248.59,187.24L253.76,187.31L258.94,183.18L264.12,179.87L269.3,169.12L274.48,175.74L279.66,172.62L284.84,171.07L290.02,176.56L295.2,173.02L300.37,171.51L305.55,172.88L310.73,178.88L315.91,177.34L321.09,179.38L326.27,180.93L331.45,175.43L336.63,172.83L341.8,172.13L346.98,171.04L352.16,157.45L357.34,147.05L362.52,144.84L367.7,139.75L372.88,142.36L378.06,147.6L383.24,139.83L388.41,143.95L393.59,140.41L398.77,133.41L403.95,120.74L409.13,122.25L414.31,116.57L419.49,114.39L424.67,103.78L429.85,103.44L435.02,100.54L440.2,80.28L445.38,74.43L450.56,81.63L455.74,67.67L466.1,28.65L471.28,20.46L476.46,23.98L481.63,37.77L486.81,57.32L491.99,66.95L497.17,43.32L502.35,30.7L507.53,47.79L512.71,53.11L517.89,54.3L523.07,48.58L528.24,53.85L533.42,56.86L538.6,89.73L543.78,74.82L548.96,80.99L554.14,79.7" style="vector-effect: non-scaling-stroke; fill: none; stroke: rgb(46, 160, 43); stroke-opacity: 1; stroke-width: 2px; opacity: 1;"/></g><g class="points"/><g class="text"/></g><g class="trace scatter tracef0cdb083-ca8e-452e-8a9f-7470a0c6de3c" style="stroke-miterlimit: 2; opacity: 0.5;"><g class="fills"/><g class="errorbars"/><g class="lines"><path class="js-line" d="M0,230.65L5.18,228.75L10.36,225.98L20.72,224.97L25.89,226.63L31.07,228.77L36.25,229.06L41.43,229.37L46.61,228.46L51.79,224.64L56.97,225.91L62.15,232.3L67.33,233.33L72.5,233.13L77.68,236.34" style="vector-effect: non-scaling-stroke; fill: none; stroke: rgb(182, 187, 34); stroke-opacity: 1; stroke-width: 2px; opacity: 1;"/></g><g class="points"/><g class="text"/></g><g class="trace scatter tracea4e679cf-e75c-4dfe-aecb-a8fbb1674df8" style="stroke-miterlimit: 2; opacity: 0.5;"><g class="fills"/><g class="errorbars"/><g class="lines"><path class="js-line" d="M0,230.65L10.36,230.32L15.54,235.19L20.72,235.72L25.89,240.3L31.07,241.4" style="vector-effect: non-scaling-stroke; fill: none; stroke: rgb(200, 136, 27); stroke-opacity: 1; stroke-width: 2px; opacity: 1;"/></g><g class="points"/><g class="text"/></g><g class="trace scatter tracee8a55140-7029-40e6-b0b4-860ce4bea1df" style="stroke-miterlimit: 2; opacity: 0.5;"><g class="fills"/><g class="errorbars"/><g class="lines"><path class="js-line" d="M0,230.65L5.18,231.22L10.36,230.17L31.07,232.34L36.25,231.43L41.43,230.52L46.61,231.92L51.79,231.44" style="vector-effect: non-scaling-stroke; fill: none; stroke: rgb(190, 180, 32); stroke-opacity: 1; stroke-width: 2px; opacity: 1;"/></g><g class="points"/><g class="text"/></g><g class="trace scatter trace956759c5-9019-4cad-95c3-ae0213dd8bc0" style="stroke-miterlimit: 2; opacity: 0.5;"><g class="fills"/><g class="errorbars"/><g class="lines"><path class="js-line" d="M0,230.65L5.18,231.06L10.36,227.04L15.54,229.15L20.72,227.19L25.89,227.22L31.07,221.03L36.25,222.17L41.43,221.23L46.61,220.54L51.79,217.29L56.97,214.83L62.15,220.28L67.33,222.44L72.5,221.58L77.68,222.2L82.86,219.01L88.04,222.95L93.22,225.69L103.58,220.19L108.76,220.76L119.11,222.12L124.29,218.81L129.47,219.27L134.65,221.42L139.83,222.08L145.01,221.32L150.19,218.73L155.37,212.65L160.54,213.48L165.72,216.43L170.9,216.59L176.08,217.52L181.26,217.15L186.44,215.52L191.62,218.26L196.8,223.34L201.98,222.93L207.15,227.87L217.51,223.84L222.69,225.39L227.87,228.79L233.05,226.94L238.23,227.52" style="vector-effect: non-scaling-stroke; fill: none; stroke: rgb(164, 184, 35); stroke-opacity: 1; stroke-width: 2px; opacity: 1;"/></g><g class="points"/><g class="text"/></g><g class="trace scatter trace549aecc4-fffc-4ca4-8881-87afc4471cff" style="stroke-miterlimit: 2; opacity: 0.5;"><g class="fills"/><g class="errorbars"/><g class="lines"><path class="js-line" d="M0,230.65L5.18,229.53L10.36,229.54L15.54,225.17L20.72,226.65L25.89,229.88L31.07,231.27L36.25,233.14L41.43,230.12L46.61,227.85L51.79,223.91L56.97,220.45L62.15,222.01L67.33,217.1L72.5,218.44L77.68,218.58L82.86,220.8L88.04,214.02L93.22,215.48L98.4,215.67L103.58,217.81L108.76,220.21L113.93,220.19L119.11,216.09L124.29,210.99L129.47,211.98L134.65,211.15L139.83,210.65L145.01,214.27L150.19,211.68L155.37,215.93L160.54,211.49L165.72,211.84L170.9,212.09L176.08,215.65L181.26,215.41L186.44,212.01L196.8,209.64L201.98,209.8L207.15,206.13L212.33,204.33L217.51,215.89L222.69,217.51L227.87,216.82L233.05,219.9L238.23,219.26L243.41,217.56" style="vector-effect: non-scaling-stroke; fill: none; stroke: rgb(152, 181, 36); stroke-opacity: 1; stroke-width: 2px; opacity: 1;"/></g><g class="points"/><g class="text"/></g><g class="trace scatter trace5189abbf-9004-42b0-a232-78776c660d29" style="stroke-miterlimit: 2; opacity: 0.5;"><g class="fills"/><g class="errorbars"/><g class="lines"><path class="js-line" d="M0,230.65L10.36,229.63L15.54,230.25L20.72,232.86L25.89,231.56L31.07,232.36L36.25,231.35L41.43,231.06L46.61,232.88L51.79,236.79L56.97,236.33L62.15,238.33L67.33,237.49L72.5,238.49L77.68,242.91L82.86,241.99L88.04,240.19L93.22,242.21L98.4,241.19L103.58,241.48L108.76,242.66L113.93,240.77" style="vector-effect: non-scaling-stroke; fill: none; stroke: rgb(205, 118, 25); stroke-opacity: 1; stroke-width: 2px; opacity: 1;"/></g><g class="points"/><g class="text"/></g><g class="trace scatter tracec0f2ba4d-4a94-4813-ab30-535cbddfa280" style="stroke-miterlimit: 2; opacity: 0.5;"><g class="fills"/><g class="errorbars"/><g class="lines"><path class="js-line" d="M0,230.65L5.18,232.04L10.36,235.05L20.72,238.1L25.89,235.28L31.07,233.15L36.25,229.47L41.43,226.24L46.61,227.69L51.79,223.11L56.97,224.35L62.15,224.49L67.33,226.56L72.5,220.23L77.68,221.59L82.86,221.76L88.04,223.76L93.22,226.01L98.4,225.99L103.58,222.16L108.76,217.39L113.93,218.32L119.11,217.54L124.29,217.08L129.47,220.46L134.65,218.04L139.83,222.01L145.01,217.86L150.19,218.18L155.37,218.42L160.54,221.75L165.72,221.53L170.9,218.34L181.26,216.13L186.44,216.28L191.62,212.85L196.8,211.16L201.98,221.97L207.15,223.49L212.33,222.84L217.51,225.72L222.69,225.12L227.87,223.53L233.05,225.55L238.23,221.51L243.41,219.63" style="vector-effect: non-scaling-stroke; fill: none; stroke: rgb(165, 184, 35); stroke-opacity: 1; stroke-width: 2px; opacity: 1;"/></g><g class="points"/><g class="text"/></g><g class="trace scatter trace06c169d9-e88a-47d8-992d-f8e0bf426f1f" style="stroke-miterlimit: 2; opacity: 0.5;"><g class="fills"/><g class="errorbars"/><g class="lines"><path class="js-line" d="M0,230.65L5.18,228.82L10.36,225.97L15.54,227.76L20.72,227.22L25.89,227.12L31.07,228.18L36.25,232.8L41.43,232.44L46.61,235.32L51.79,236.75L56.97,231.47L62.15,230.35L67.33,230.4L72.5,227.78L77.68,226.21L82.86,226.21L93.22,225.92L98.4,228.6L108.76,225.66" style="vector-effect: non-scaling-stroke; fill: none; stroke: rgb(180, 187, 34); stroke-opacity: 1; stroke-width: 2px; opacity: 1;"/></g><g class="points"/><g class="text"/></g><g class="trace scatter trace243a8a40-2df6-40b4-b193-80d26e788ccb" style="stroke-miterlimit: 2; opacity: 0.5;"><g class="fills"/><g class="errorbars"/><g class="lines"><path class="js-line" d="M0,230.65L10.36,229.01L15.54,229.76L25.89,229.17L31.07,230.47L41.43,229.19L46.61,227.46L51.79,226.35L56.97,220.29L62.15,218.98L67.33,219.3L72.5,217.98L77.68,218.56L82.86,218.4L88.04,214.33L93.22,216.91L98.4,215.59L103.58,214.86L108.76,213.25L113.93,213.46L119.11,214.94L124.29,211.63L129.47,210.79L134.65,200.72L139.83,200.79L145.01,206.1L150.19,201.52L155.37,202.55L160.54,202.76L165.72,200.07L170.9,195.84L176.08,195.64L181.26,197.38L186.44,198.17L191.62,192.9L196.8,186.31L201.98,185.5L207.15,185.31L212.33,179.37L217.51,179.04L222.69,181.05L227.87,181.38L233.05,175.86L238.23,178.93L243.41,189.86L248.59,189.93L253.76,185.89L258.94,182.65L264.12,172.13L269.3,178.61L274.48,175.55L279.66,174.04L284.84,179.41L290.02,175.95L295.2,174.47L300.37,175.81L305.55,181.68L310.73,180.17L315.91,182.17L321.09,183.69L326.27,178.31L331.45,175.76L336.63,175.07L341.8,174.01L346.98,160.71L352.16,150.53L357.34,148.37L362.52,143.4L367.7,145.95L372.88,151.07L378.06,143.47L383.24,147.5L388.41,144.04L393.59,137.19L398.77,124.79L403.95,126.26L409.13,120.71L414.31,118.58L419.49,108.2L424.67,107.86L429.85,105.02L435.02,85.2L440.2,79.47L445.38,86.52L450.56,72.86L460.92,34.68L466.1,26.66L471.28,30.11L476.46,43.61L481.63,62.73L486.81,72.15L491.99,49.03L497.17,36.68L502.35,53.41L507.53,58.62L512.71,59.77L517.89,54.18L523.07,59.34L528.24,62.28L533.42,94.45L538.6,79.86L543.78,85.89L548.96,84.63L554.14,84.67L559.32,83.18L564.5,97.82" style="vector-effect: non-scaling-stroke; fill: none; stroke: rgb(53, 161, 43); stroke-opacity: 1; stroke-width: 2px; opacity: 1;"/></g><g class="points"/><g class="text"/></g><g class="trace scatter trace294d8a63-0bcb-48b4-9e59-02bf7df59986" style="stroke-miterlimit: 2; opacity: 0.5;"><g class="fills"/><g class="errorbars"/><g class="lines"><path class="js-line" d="M0,230.65L5.18,228.53L10.36,229.38L15.54,232.71L20.72,231.53L25.89,241.19L31.07,241.14L36.25,240.9L41.43,245.13" style="vector-effect: non-scaling-stroke; fill: none; stroke: rgb(193, 165, 31); stroke-opacity: 1; stroke-width: 2px; opacity: 1;"/></g><g class="points"/><g class="text"/></g><g class="trace scatter trace57d870a2-6986-4aad-bd4b-2ba1746a2797" style="stroke-miterlimit: 2; opacity: 0.5;"><g class="fills"/><g class="errorbars"/><g class="lines"><path class="js-line" d="M0,230.65L5.18,232.68L10.36,232.96L15.54,233.26L20.72,232.38L25.89,228.75L31.07,229.97L36.25,236.04L41.43,237.02L46.61,236.83L51.79,239.89L56.97,242.38L62.15,240.17L67.33,241.94L72.5,239.99L77.68,238.38L82.86,238.57" style="vector-effect: non-scaling-stroke; fill: none; stroke: rgb(205, 117, 25); stroke-opacity: 1; stroke-width: 2px; opacity: 1;"/></g><g class="points"/><g class="text"/></g><g class="trace scatter trace7ae9b7cf-358c-4d38-bd0a-1ab0f4a20442" style="stroke-miterlimit: 2; opacity: 0.5;"><g class="fills"/><g class="errorbars"/><g class="lines"><path class="js-line" d="M0,230.65L5.18,232.03L10.36,231.88" style="vector-effect: non-scaling-stroke; fill: none; stroke: rgb(191, 175, 32); stroke-opacity: 1; stroke-width: 2px; opacity: 1;"/></g><g class="points"/><g class="text"/></g><g class="trace scatter trace57572ac9-6fb2-4fca-828d-c370ff96bc06" style="stroke-miterlimit: 2; opacity: 0.5;"><g class="fills"/><g class="errorbars"/><g class="lines"><path class="js-line" d="M0,230.65L5.18,229.39L10.36,230.93L15.54,233.69L20.72,230.82L25.89,230.73L31.07,228.53L41.43,228.41L46.61,223.39L51.79,224.22L56.97,223.95L67.33,228.21L72.5,233.42L77.68,234.12L82.86,233.05L93.22,239.45L98.4,240.21" style="vector-effect: non-scaling-stroke; fill: none; stroke: rgb(188, 188, 33); stroke-opacity: 1; stroke-width: 2px; opacity: 1;"/></g><g class="points"/><g class="text"/></g><g class="trace scatter trace64f08336-6d50-4b96-b755-3037d9f38218" style="stroke-miterlimit: 2; opacity: 0.5;"><g class="fills"/><g class="errorbars"/><g class="lines"><path class="js-line" d="M0,230.65L5.18,230.84L10.36,225.97L15.54,226.77L20.72,226.51L31.07,230.64L36.25,235.7L41.43,236.38L46.61,235.34L56.97,241.54L62.15,242.29L67.33,243.7" style="vector-effect: non-scaling-stroke; fill: none; stroke: rgb(194, 160, 30); stroke-opacity: 1; stroke-width: 2px; opacity: 1;"/></g><g class="points"/><g class="text"/></g><g class="trace scatter trace418ef1ee-3c46-4b7d-98c0-509996beb5f0" style="stroke-miterlimit: 2; opacity: 0.5;"><g class="fills"/><g class="errorbars"/><g class="lines"><path class="js-line" d="M0,230.65L5.18,233.92L10.36,232.77L15.54,242.28L20.72,242.22L25.89,241.99L31.07,246.15" style="vector-effect: non-scaling-stroke; fill: none; stroke: rgb(219, 58, 18); stroke-opacity: 1; stroke-width: 2px; opacity: 1;"/></g><g class="points"/><g class="text"/></g><g class="trace scatter trace9f8b456d-eb7e-4e70-8781-05de7722bf3b" style="stroke-miterlimit: 2; opacity: 0.5;"><g class="fills"/><g class="errorbars"/><g class="lines"><path class="js-line" d="M0,230.65L5.18,235.37L10.36,236.67L15.54,236.53L20.72,238.46L25.89,234.91L31.07,235.64" style="vector-effect: non-scaling-stroke; fill: none; stroke: rgb(201, 131, 27); stroke-opacity: 1; stroke-width: 2px; opacity: 1;"/></g><g class="points"/><g class="text"/></g><g class="trace scatter trace83f6e32a-dc6f-4951-8b93-04f7cc381ad0" style="stroke-miterlimit: 2; opacity: 0.5;"><g class="fills"/><g class="errorbars"/><g class="lines"><path class="js-line" d="M0,230.65L5.18,231.83L10.36,237.76L15.54,238.72L20.72,238.53L31.07,243.96L36.25,241.8L41.43,243.53L46.61,241.63L51.79,240.05L56.97,240.23L62.15,242.74L67.33,233.09L72.5,230.87L77.68,231.8L82.86,234.34" style="vector-effect: non-scaling-stroke; fill: none; stroke: rgb(210, 95, 22); stroke-opacity: 1; stroke-width: 2px; opacity: 1;"/></g><g class="points"/><g class="text"/></g><g class="trace scatter trace316b87fc-32fb-4ef8-a73c-feb5aa520ce8" style="stroke-miterlimit: 2; opacity: 0.5;"><g class="fills"/><g class="errorbars"/><g class="lines"><path class="js-line" d="M0,230.65L5.18,231.43L10.36,216.22L15.54,216.13L20.72,219.37L25.89,213.02L31.07,214.39L36.25,214.66L41.43,211.8L46.61,213.14L51.79,210.69L56.97,204.69L62.15,205.83L67.33,197.09L72.5,197.22L77.68,194.08L82.86,200.74L88.04,211.17L93.22,209.6L98.4,214.82L103.58,216.42L108.76,216.76L113.93,218.71L119.11,209.78L124.29,212.08L129.47,208.25L134.65,212.21L139.83,211.45" style="vector-effect: non-scaling-stroke; fill: none; stroke: rgb(140, 179, 37); stroke-opacity: 1; stroke-width: 2px; opacity: 1;"/></g><g class="points"/><g class="text"/></g><g class="trace scatter trace034a15b1-309b-40f9-a259-667688f3efcf" style="stroke-miterlimit: 2; opacity: 0.5;"><g class="fills"/><g class="errorbars"/><g class="lines"><path class="js-line" d="M0,230.65L10.36,234.19L15.54,234.47L20.72,234.76L25.89,233.9L31.07,230.34L36.25,231.53L41.43,237.49L46.61,238.44L51.79,238.26L56.97,241.26L62.15,243.7L67.33,241.54L72.5,243.27L77.68,241.36L82.86,239.78" style="vector-effect: non-scaling-stroke; fill: none; stroke: rgb(207, 109, 24); stroke-opacity: 1; stroke-width: 2px; opacity: 1;"/></g><g class="points"/><g class="text"/></g><g class="trace scatter traced2f1099f-93ac-4ee5-ac6b-6979eb3e84ad" style="stroke-miterlimit: 2; opacity: 0.5;"><g class="fills"/><g class="errorbars"/><g class="lines"><path class="js-line" d="M0,230.65L5.18,233.42" style="vector-effect: non-scaling-stroke; fill: none; stroke: rgb(191, 172, 32); stroke-opacity: 1; stroke-width: 2px; opacity: 1;"/></g><g class="points"/><g class="text"/></g><g class="trace scatter trace4452dff0-6b10-4b9d-88ec-c1e77f502fbc" style="stroke-miterlimit: 2; opacity: 0.5;"><g class="fills"/><g class="errorbars"/><g class="lines"><path class="js-line" d="M0,230.65L5.18,228.91" style="vector-effect: non-scaling-stroke; fill: none; stroke: rgb(185, 188, 34); stroke-opacity: 1; stroke-width: 2px; opacity: 1;"/></g><g class="points"/><g class="text"/></g><g class="trace scatter tracec394402d-daea-4c7f-8378-ac5f0ff3e4e7" style="stroke-miterlimit: 2; opacity: 0.5;"><g class="fills"/><g class="errorbars"/><g class="lines"><path class="js-line" d="M0,230.65L5.18,231.22L10.36,230.17L31.07,232.34L36.25,231.43L41.43,230.52L46.61,231.92L51.79,231.44L56.97,229.54L62.15,228.63L67.33,226.86L77.68,225.14L82.86,225.93L93.22,225.31L98.4,226.67L108.76,225.33L113.93,223.52L119.11,222.36L124.29,216L129.47,214.63L134.65,214.96L139.83,213.59L145.01,214.19L150.19,214.02L155.37,209.76L160.54,212.46L165.72,211.07L170.9,210.31L176.08,208.63L181.26,208.84L186.44,210.39L191.62,206.93L196.8,206.05L201.98,195.49L207.15,195.57L212.33,201.13L217.51,196.33L222.69,197.4L227.87,197.63L233.05,194.81L238.23,190.37L243.41,190.16L248.59,191.99L253.76,192.82L258.94,187.29L264.12,180.39L269.3,179.54L274.48,179.34L279.66,173.12L284.84,172.76L290.02,174.88L295.2,175.22L300.37,169.43L305.55,172.65L310.73,184.11L315.91,184.18L321.09,179.95L326.27,176.55L331.45,165.52L336.63,172.32L341.8,169.11L346.98,167.52L352.16,173.15L357.34,169.52L362.52,167.98L367.7,169.38L372.88,175.54L378.06,173.95L383.24,176.04L388.41,177.64L393.59,172L398.77,169.32L403.95,168.61L409.13,167.49L414.31,153.55L419.49,142.88L424.67,140.62L429.85,135.4L435.02,138.08L440.2,143.45L445.38,135.48L450.56,139.7L455.74,136.08L460.92,128.9L466.1,115.9L471.28,117.45L476.46,111.62L481.63,109.39L486.81,98.51L491.99,98.16L497.17,95.18L502.35,74.4L507.53,68.4L512.71,75.79L517.89,61.47L528.24,21.45L533.42,13.05L538.6,16.66L543.78,30.81L548.96,50.85L554.14,60.73L559.32,36.49L564.5,23.55L569.67,41.09L574.85,46.54L580.03,47.76L585.21,41.9L590.39,47.3L595.57,50.39L600.75,84.1L605.93,68.8L611.11,75.13L616.28,73.81L621.46,73.85L626.64,72.29L631.82,87.63" style="vector-effect: non-scaling-stroke; fill: none; stroke: rgb(44, 160, 44); stroke-opacity: 1; stroke-width: 2px; opacity: 1;"/></g><g class="points"/><g class="text"/></g><g class="trace scatter trace8fb81971-56b5-4d32-9da3-e1bacd6d22a9" style="stroke-miterlimit: 2; opacity: 0.5;"><g class="fills"/><g class="errorbars"/><g class="lines"><path class="js-line" d="M0,230.65L5.18,235.34L10.36,236.04" style="vector-effect: non-scaling-stroke; fill: none; stroke: rgb(201, 134, 27); stroke-opacity: 1; stroke-width: 2px; opacity: 1;"/></g><g class="points"/><g class="text"/></g><g class="trace scatter trace8ffbbfe2-0bbb-4db3-8f96-609b4dfd96e8" style="stroke-miterlimit: 2; opacity: 0.5;"><g class="fills"/><g class="errorbars"/><g class="lines"><path class="js-line" d="M0,230.65L15.54,231.26L20.72,229.88L25.89,232.2L31.07,236.5L36.25,236.15L41.43,240.34L51.79,236.92L56.97,238.24L62.15,241.12L67.33,239.55" style="vector-effect: non-scaling-stroke; fill: none; stroke: rgb(203, 123, 26); stroke-opacity: 1; stroke-width: 2px; opacity: 1;"/></g><g class="points"/><g class="text"/></g><g class="trace scatter trace67a9c933-29d5-4556-a4bb-243351f31c13" style="stroke-miterlimit: 2; opacity: 0.5;"><g class="fills"/><g class="errorbars"/><g class="lines"><path class="js-line" d="M0,230.65L5.18,233.08" style="vector-effect: non-scaling-stroke; fill: none; stroke: rgb(191, 175, 32); stroke-opacity: 1; stroke-width: 2px; opacity: 1;"/></g><g class="points"/><g class="text"/></g><g class="trace scatter trace5c77312f-437f-427b-9ea6-918d138c23e4" style="stroke-miterlimit: 2; opacity: 0.5;"><g class="fills"/><g class="errorbars"/><g class="lines"><path class="js-line" d="M0,230.65L5.18,229.75L10.36,228L20.72,226.31L25.89,227.09L36.25,226.48L41.43,227.81L51.79,226.49L56.97,224.7L62.15,223.56L67.33,217.29L72.5,215.94L77.68,216.27L82.86,214.91L88.04,215.51L93.22,215.34L98.4,211.14L103.58,213.8L108.76,212.44L113.93,211.68L119.11,210.02L124.29,210.23L129.47,211.76L134.65,208.35L139.83,207.48L145.01,197.07L150.19,197.14L155.37,202.63L160.54,197.9L165.72,198.95L170.9,199.18L176.08,196.39L181.26,192.02L186.44,191.81L191.62,193.61L196.8,194.43L201.98,188.98L207.15,182.17L212.33,181.33L217.51,181.14L222.69,175L227.87,174.66L233.05,176.74L238.23,177.07L243.41,171.37L248.59,174.54L253.76,185.84L258.94,185.92L264.12,181.74L269.3,178.39L274.48,167.51L279.66,174.21L284.84,171.05L290.02,169.49L295.2,175.04L300.37,171.46L305.55,169.94L310.73,171.32L315.91,177.39L321.09,175.83L326.27,177.89" style="vector-effect: non-scaling-stroke; fill: none; stroke: rgb(101, 171, 40); stroke-opacity: 1; stroke-width: 2px; opacity: 1;"/></g><g class="points"/><g class="text"/></g><g class="trace scatter tracee4a7c786-9e50-442f-b5d9-79507119e0fb" style="stroke-miterlimit: 2; opacity: 0.5;"><g class="fills"/><g class="errorbars"/><g class="lines"><path class="js-line" d="M0,230.65L5.18,234.17" style="vector-effect: non-scaling-stroke; fill: none; stroke: rgb(192, 168, 31); stroke-opacity: 1; stroke-width: 2px; opacity: 1;"/></g><g class="points"/><g class="text"/></g><g class="trace scatter trace930b3856-f2bd-4f08-9d9c-d52625da079a" style="stroke-miterlimit: 2; opacity: 0.5;"><g class="fills"/><g class="errorbars"/><g class="lines"><path class="js-line" d="M0,230.65L5.18,229.72L10.36,231.14L15.54,230.65L20.72,228.74L25.89,227.82L31.07,226.03L41.43,224.3L46.61,225.09L56.97,224.47L62.15,225.84L72.5,224.48L77.68,222.65L82.86,221.48L88.04,215.06L93.22,213.68L98.4,214.01L103.58,212.62L108.76,213.23L113.93,213.06L119.11,208.75L124.29,211.48L129.47,210.08L134.65,209.31L139.83,207.61L145.01,207.83L150.19,209.39L155.37,205.9L160.54,205.01L165.72,194.35L170.9,194.42L176.08,200.04L181.26,195.19L186.44,196.28L191.62,196.51L196.8,193.65L201.98,189.17L207.15,188.96L212.33,190.8L217.51,191.64L222.69,186.06L227.87,179.09L233.05,178.23L238.23,178.03L243.41,171.74L248.59,171.39L253.76,173.52L258.94,173.86L264.12,168.02L269.3,171.27L274.48,182.85L279.66,182.92L284.84,178.64L290.02,175.21L295.2,164.07L300.37,170.94L305.55,167.7L310.73,166.09L315.91,171.78L321.09,168.11" style="vector-effect: non-scaling-stroke; fill: none; stroke: rgb(120, 175, 38); stroke-opacity: 1; stroke-width: 2px; opacity: 1;"/></g><g class="points"/><g class="text"/></g><g class="trace scatter tracef3a40442-be7d-4dd3-b18f-4512ce0437c8" style="stroke-miterlimit: 2; opacity: 0.5;"><g class="fills"/><g class="errorbars"/><g class="lines"><path class="js-line" d="M0,230.65L5.18,231.41L10.36,231.16L20.72,235.06L25.89,239.83L31.07,240.47L36.25,239.49L46.61,245.35" style="vector-effect: non-scaling-stroke; fill: none; stroke: rgb(206, 111, 24); stroke-opacity: 1; stroke-width: 2px; opacity: 1;"/></g><g class="points"/><g class="text"/></g><g class="trace scatter trace01689c1c-de7d-4c9f-b9a2-006055ebd8f7" style="stroke-miterlimit: 2; opacity: 0.5;"><g class="fills"/><g class="errorbars"/><g class="lines"><path class="js-line" d="M0,230.65L5.18,231.22L10.36,230.17L31.07,232.34L36.25,231.43L41.43,230.52L46.61,231.92L51.79,231.44" style="vector-effect: non-scaling-stroke; fill: none; stroke: rgb(190, 180, 32); stroke-opacity: 1; stroke-width: 2px; opacity: 1;"/></g><g class="points"/><g class="text"/></g><g class="trace scatter trace1976916a-81da-45d3-b011-6fcbb14a89f5" style="stroke-miterlimit: 2; opacity: 0.5;"><g class="fills"/><g class="errorbars"/><g class="lines"><path class="js-line" d="M0,230.65L5.18,230.39L10.36,239.24L15.54,237.24" style="vector-effect: non-scaling-stroke; fill: none; stroke: rgb(197, 151, 29); stroke-opacity: 1; stroke-width: 2px; opacity: 1;"/></g><g class="points"/><g class="text"/></g><g class="trace scatter trace32195c7b-6d51-446e-ac23-1563afeec343" style="stroke-miterlimit: 2; opacity: 0.5;"><g class="fills"/><g class="errorbars"/><g class="lines"><path class="js-line" d="M0,230.65L10.36,229.63L15.54,230.25L20.72,232.86L25.89,231.56L31.07,232.36L36.25,231.35L41.43,231.06L46.61,232.88L51.79,236.79L56.97,236.33L62.15,238.33L67.33,237.49L72.5,238.49L77.68,242.91L82.86,241.99L88.04,240.19L93.22,242.21L98.4,241.19L103.58,241.48L108.76,242.66L113.93,240.77" style="vector-effect: non-scaling-stroke; fill: none; stroke: rgb(205, 118, 25); stroke-opacity: 1; stroke-width: 2px; opacity: 1;"/></g><g class="points"/><g class="text"/></g><g class="trace scatter trace9c974425-2dec-47e7-8c50-20fecbf02a15" style="stroke-miterlimit: 2; opacity: 0.5;"><g class="fills"/><g class="errorbars"/><g class="lines"><path class="js-line" d="M0,230.65L5.18,228.34L10.36,222.9L15.54,223.64L20.72,226.28L36.25,226.93L41.43,225.47L46.61,227.92L51.79,232.46L56.97,232.09L62.15,236.51L67.33,235.02" style="vector-effect: non-scaling-stroke; fill: none; stroke: rgb(179, 187, 34); stroke-opacity: 1; stroke-width: 2px; opacity: 1;"/></g><g class="points"/><g class="text"/></g><g class="trace scatter trace23e75deb-5416-44eb-9aa9-4ced3c2f19f6" style="stroke-miterlimit: 2; opacity: 0.5;"><g class="fills"/><g class="errorbars"/><g class="lines"><path class="js-line" d="M0,230.65L5.18,231.32L10.36,233.73L25.89,234.31L31.07,232.99L36.25,235.21L41.43,239.35L46.61,239.01L51.79,243.04L62.15,239.76L67.33,241.02" style="vector-effect: non-scaling-stroke; fill: none; stroke: rgb(199, 139, 28); stroke-opacity: 1; stroke-width: 2px; opacity: 1;"/></g><g class="points"/><g class="text"/></g><g class="trace scatter tracedf5a02ea-5117-44ad-805d-a9de49c4dfcd" style="stroke-miterlimit: 2; opacity: 0.5;"><g class="fills"/><g class="errorbars"/><g class="lines"><path class="js-line" d="M0,230.65L5.18,231.69L10.36,235.72L15.54,236.35L20.72,238.91" style="vector-effect: non-scaling-stroke; fill: none; stroke: rgb(202, 130, 26); stroke-opacity: 1; stroke-width: 2px; opacity: 1;"/></g><g class="points"/><g class="text"/></g><g class="trace scatter tracecaaf1262-fe17-4760-a820-2f0c257247a9" style="stroke-miterlimit: 2; opacity: 0.5;"><g class="fills"/><g class="errorbars"/><g class="lines"><path class="js-line" d="M0,230.65L5.18,231.4L10.36,226L15.54,229.02L20.72,233.6L25.89,231.84L31.07,229.1L36.25,230.82L41.43,230.3L46.61,230.2L51.79,231.22L56.97,235.67L62.15,235.32L67.33,238.09L72.5,239.47L77.68,234.39L82.86,233.31L88.04,233.37" style="vector-effect: non-scaling-stroke; fill: none; stroke: rgb(190, 178, 32); stroke-opacity: 1; stroke-width: 2px; opacity: 1;"/></g><g class="points"/><g class="text"/></g><g class="trace scatter trace0c2d485e-136c-48ed-bfe0-aa20a883f2e9" style="stroke-miterlimit: 2; opacity: 0.5;"><g class="fills"/><g class="errorbars"/><g class="lines"><path class="js-line" d="M0,230.65L5.18,229.75L10.36,228L20.72,226.31L25.89,227.09L36.25,226.48L41.43,227.81L51.79,226.49L56.97,224.7L62.15,223.56L67.33,217.29L72.5,215.94L77.68,216.27L82.86,214.91L88.04,215.51L93.22,215.34L98.4,211.14L103.58,213.8L108.76,212.44L113.93,211.68L119.11,210.02L124.29,210.23L129.47,211.76L134.65,208.35L139.83,207.48L145.01,197.07L150.19,197.14L155.37,202.63L160.54,197.9L165.72,198.95L170.9,199.18L176.08,196.39L181.26,192.02L186.44,191.81L191.62,193.61L196.8,194.43L201.98,188.98L207.15,182.17L212.33,181.33L217.51,181.14L222.69,175L227.87,174.66L233.05,176.74L238.23,177.07L243.41,171.37L248.59,174.54L253.76,185.84L258.94,185.92L264.12,181.74L269.3,178.39L274.48,167.51L279.66,174.21L284.84,171.05L290.02,169.49L295.2,175.04L300.37,171.46L305.55,169.94L310.73,171.32L315.91,177.39L321.09,175.83L326.27,177.89L331.45,179.46L336.63,173.9L341.8,171.26L346.98,170.56L352.16,169.45L357.34,155.71L362.52,145.19L367.7,142.95L372.88,137.81L378.06,140.45L383.24,145.75L388.41,137.89L393.59,142.05L398.77,138.48L403.95,131.4L409.13,118.58L414.31,120.1L419.49,114.36L424.67,112.16L429.85,101.43L435.02,101.08L440.2,98.15L445.38,77.66L450.56,71.74L455.74,79.02L460.92,64.9L471.28,25.44L476.46,17.15L481.63,20.71L486.81,34.67L491.99,54.43L497.17,64.17L502.35,40.27L507.53,27.51L512.71,44.8L517.89,50.18L523.07,51.38L528.24,45.6L533.42,50.92L538.6,53.97L543.78,87.22" style="vector-effect: non-scaling-stroke; fill: none; stroke: rgb(44, 160, 44); stroke-opacity: 1; stroke-width: 2px; opacity: 1;"/></g><g class="points"/><g class="text"/></g><g class="trace scatter tracee7200ff8-2e87-48d3-92d6-ad1179b1d9e5" style="stroke-miterlimit: 2; opacity: 0.5;"><g class="fills"/><g class="errorbars"/><g class="lines"><path class="js-line" d="M0,230.65L5.18,229.36L10.36,227.21L15.54,228.07L20.72,231.45L25.89,230.26L31.07,240.08L41.43,239.79L46.61,244.08" style="vector-effect: non-scaling-stroke; fill: none; stroke: rgb(189, 184, 33); stroke-opacity: 1; stroke-width: 2px; opacity: 1;"/></g><g class="points"/><g class="text"/></g><g class="trace scatter trace72235f35-4bbf-4e87-94ce-64a2e6b833ac" style="stroke-miterlimit: 2; opacity: 0.5;"><g class="fills"/><g class="errorbars"/><g class="lines"><path class="js-line" d="M0,230.65L5.18,230.65L10.36,226.35L15.54,227.81L20.72,230.99L31.07,234.21L36.25,231.23L41.43,228.99L46.61,225.11L51.79,221.7L56.97,223.23L62.15,218.4L67.33,219.71L72.5,219.86L77.68,222.04L82.86,215.36L88.04,216.8L93.22,216.98L98.4,219.09L103.58,221.46L108.76,221.44L113.93,217.4L119.11,212.37L124.29,213.35L129.47,212.53L134.65,212.04L139.83,215.61L145.01,213.05L150.19,217.24L155.37,212.86L160.54,213.21L165.72,213.46L170.9,216.96L176.08,216.73L181.26,213.37L191.62,211.04L196.8,211.2L201.98,207.58L207.15,205.8L212.33,217.2L217.51,218.8L222.69,218.12L227.87,221.15" style="vector-effect: non-scaling-stroke; fill: none; stroke: rgb(153, 182, 36); stroke-opacity: 1; stroke-width: 2px; opacity: 1;"/></g><g class="points"/><g class="text"/></g><g class="trace scatter trace99b6d272-dc38-4bb2-b483-aaa8bb950d0d" style="stroke-miterlimit: 2; opacity: 0.5;"><g class="fills"/><g class="errorbars"/><g class="lines"><path class="js-line" d="M0,230.65L10.36,230.53L15.54,225.64L20.72,226.45L25.89,226.19L36.25,230.34L41.43,235.41L46.61,236.09L51.79,235.05L62.15,241.28L67.33,242.02L77.68,244.73" style="vector-effect: non-scaling-stroke; fill: none; stroke: rgb(194, 163, 30); stroke-opacity: 1; stroke-width: 2px; opacity: 1;"/></g><g class="points"/><g class="text"/></g><g class="trace scatter trace703ed454-8285-43f9-977d-37a54992eacf" style="stroke-miterlimit: 2; opacity: 0.5;"><g class="fills"/><g class="errorbars"/><g class="lines"><path class="js-line" d="M0,230.65L10.36,231.24L15.54,230.35L20.72,226.62L25.89,227.87L31.07,234.1L36.25,235.1L41.43,234.91L46.61,238.05L51.79,240.61L56.97,238.34L62.15,240.16L67.33,238.16L72.5,236.5L77.68,236.69" style="vector-effect: non-scaling-stroke; fill: none; stroke: rgb(200, 138, 27); stroke-opacity: 1; stroke-width: 2px; opacity: 1;"/></g><g class="points"/><g class="text"/></g><g class="trace scatter traceb5cc1bf3-8be6-4d7c-9059-2964c77d4a33" style="stroke-miterlimit: 2; opacity: 0.5;"><g class="fills"/><g class="errorbars"/><g class="lines"><path class="js-line" d="M0,230.65L15.54,231.51L20.72,231.38L31.07,231.46L36.25,229.51L46.61,227.7L51.79,228.25L62.15,224.91L67.33,215.57L72.5,216.62L77.68,214.97L82.86,214.98L88.04,212.98L93.22,209.02L98.4,215.22L103.58,213.96L108.76,214.2L113.93,209.5L119.11,209.35L124.29,210.78L129.47,209.36L134.65,210.04L139.83,208.24L145.01,212.5L150.19,211.03L155.37,209.2L160.54,209.37L170.9,208.09L176.08,204.94L181.26,207.8L186.44,209.42L191.62,208.58L196.8,211.31L201.98,210.19L207.15,210.32L212.33,209.47L217.51,213.12L222.69,211.91L227.87,213.02" style="vector-effect: non-scaling-stroke; fill: none; stroke: rgb(142, 179, 37); stroke-opacity: 1; stroke-width: 2px; opacity: 1;"/></g><g class="points"/><g class="text"/></g><g class="trace scatter trace24db04e7-1c99-4782-98fb-86d1f4bf9264" style="stroke-miterlimit: 2; opacity: 0.5;"><g class="fills"/><g class="errorbars"/><g class="lines"><path class="js-line" d="M0,230.65L5.18,230.65L10.36,226.35L15.54,227.81L20.72,230.99L31.07,234.21L36.25,231.23L41.43,228.99L46.61,225.11L51.79,221.7L56.97,223.23L62.15,218.4L67.33,219.71L72.5,219.86L77.68,222.04L82.86,215.36L88.04,216.8L93.22,216.98L98.4,219.09L103.58,221.46L108.76,221.44L113.93,217.4L119.11,212.37L124.29,213.35L129.47,212.53L134.65,212.04L139.83,215.61L145.01,213.05L150.19,217.24L155.37,212.86L160.54,213.21L165.72,213.46L170.9,216.96L176.08,216.73L181.26,213.37L191.62,211.04L196.8,211.2L201.98,207.58L207.15,205.8L212.33,217.2L217.51,218.8L222.69,218.12L227.87,221.15L233.05,220.52L238.23,218.85L243.41,220.98" style="vector-effect: non-scaling-stroke; fill: none; stroke: rgb(155, 182, 36); stroke-opacity: 1; stroke-width: 2px; opacity: 1;"/></g><g class="points"/><g class="text"/></g><g class="trace scatter tracefd7dd8f6-6d07-4b6a-8eaf-1be1e3560b48" style="stroke-miterlimit: 2; opacity: 0.5;"><g class="fills"/><g class="errorbars"/><g class="lines"><path class="js-line" d="M0,230.65L5.18,228.62L10.36,228.03L15.54,227.66L20.72,223.41L31.07,222.3L36.25,222.97L41.43,225.83L46.61,224.41L51.79,225.28L56.97,224.18L62.15,223.87L67.33,225.85L72.5,230.12L77.68,229.62L82.86,231.81L88.04,230.89L93.22,231.98L98.4,236.8" style="vector-effect: non-scaling-stroke; fill: none; stroke: rgb(178, 187, 34); stroke-opacity: 1; stroke-width: 2px; opacity: 1;"/></g><g class="points"/><g class="text"/></g><g class="trace scatter tracefd3a07a5-1121-4c84-ad33-9dca4a4f5f98" style="stroke-miterlimit: 2; opacity: 0.5;"><g class="fills"/><g class="errorbars"/><g class="lines"><path class="js-line" d="M0,230.65L5.18,229.55L10.36,230.29L20.72,229.71L25.89,230.99L36.25,229.72L41.43,228L46.61,226.91L51.79,220.88L56.97,219.58L62.15,219.9L67.33,218.59L72.5,219.17L77.68,219L82.86,214.96L88.04,217.52L93.22,216.21L98.4,215.49L103.58,213.89L108.76,214.1L113.93,215.57L119.11,212.29L124.29,211.45L129.47,201.45L134.65,201.52L139.83,206.79L145.01,202.24L150.19,203.26L155.37,203.47L160.54,200.8L165.72,196.59L170.9,196.39L176.08,198.12L181.26,198.91L186.44,193.68L191.62,187.13L196.8,186.32L201.98,186.14L207.15,180.24L212.33,179.91L217.51,181.91L222.69,182.23L227.87,176.75L233.05,179.8L238.23,190.66L243.41,190.73L248.59,186.71L253.76,183.5L258.94,173.04L264.12,179.48L269.3,176.45L274.48,174.94L279.66,180.28L284.84,176.84L290.02,175.37L295.2,176.7L300.37,182.53L305.55,181.03L310.73,183.01L315.91,184.52L321.09,179.18L326.27,176.65L331.45,175.97L336.63,174.91L341.8,161.7L346.98,151.59L352.16,149.44L357.34,144.5L362.52,147.03L367.7,152.12L372.88,144.58L378.06,148.58L383.24,145.14L388.41,138.34L393.59,126.02L398.77,127.48L403.95,121.96L409.13,119.85L414.31,109.54L419.49,109.21L424.67,106.38L429.85,86.69L435.02,81.01L440.2,88L445.38,74.44L455.74,36.51L460.92,28.55L466.1,31.97L471.28,45.38L476.46,64.37L481.63,73.73L486.81,50.76L491.99,38.5L497.17,55.12L502.35,60.29L507.53,61.44L512.71,55.88L517.89,61L523.07,63.93L528.24,95.88L533.42,81.39L538.6,87.38L543.78,86.13L548.96,86.17L554.14,84.69L559.32,99.23L564.5,78.48" style="vector-effect: non-scaling-stroke; fill: none; stroke: rgb(54, 162, 43); stroke-opacity: 1; stroke-width: 2px; opacity: 1;"/></g><g class="points"/><g class="text"/></g><g class="trace scatter traced0673f30-e406-470a-b198-56286a8122ca" style="stroke-miterlimit: 2; opacity: 0.5;"><g class="fills"/><g class="errorbars"/><g class="lines"><path class="js-line" d="M0,230.65L5.18,229.31L10.36,230.13L20.72,228.8L25.89,230.67L31.07,234.69L36.25,234.22L41.43,236.28L46.61,235.41L51.79,236.44L56.97,240.98L62.15,240.04L67.33,238.19L72.5,240.27L77.68,239.22L82.86,239.52L88.04,240.73L98.4,237.59L103.58,237.82" style="vector-effect: non-scaling-stroke; fill: none; stroke: rgb(204, 122, 25); stroke-opacity: 1; stroke-width: 2px; opacity: 1;"/></g><g class="points"/><g class="text"/></g><g class="trace scatter tracefe850eca-66e9-4412-856a-d7de13992dc6" style="stroke-miterlimit: 2; opacity: 0.5;"><g class="fills"/><g class="errorbars"/><g class="lines"><path class="js-line" d="M0,230.65L10.36,232.75L15.54,233.76L20.72,237.69L25.89,238.3" style="vector-effect: non-scaling-stroke; fill: none; stroke: rgb(195, 158, 30); stroke-opacity: 1; stroke-width: 2px; opacity: 1;"/></g><g class="points"/><g class="text"/></g><g class="trace scatter trace027f7642-694c-466b-afbb-333b0bba5277" style="stroke-miterlimit: 2; opacity: 0.5;"><g class="fills"/><g class="errorbars"/><g class="lines"><path class="js-line" d="M0,230.65L5.18,226.34L10.36,227.81L15.54,230.99L20.72,232.36L25.89,234.21L31.07,231.23L36.25,228.99L41.43,225.11L46.61,221.69L51.79,223.22L56.97,218.39L62.15,219.7L67.33,219.85L72.5,222.04L77.68,215.35L82.86,216.79L88.04,216.97L93.22,219.08L98.4,221.45L103.58,221.43L108.76,217.39L113.93,212.36L119.11,213.34L124.29,212.52L129.47,212.03L134.65,215.6L139.83,213.04L145.01,217.23L150.19,212.85L155.37,213.2L160.54,213.45L165.72,216.96L170.9,216.72L176.08,213.36L186.44,211.03L191.62,211.19L196.8,207.57L201.98,205.79L207.15,217.19L212.33,218.79L217.51,218.11L222.69,221.15L227.87,220.51" style="vector-effect: non-scaling-stroke; fill: none; stroke: rgb(153, 182, 36); stroke-opacity: 1; stroke-width: 2px; opacity: 1;"/></g><g class="points"/><g class="text"/></g><g class="trace scatter tracefa8522ef-e657-4b32-ba10-6827a21c1780" style="stroke-miterlimit: 2; opacity: 0.5;"><g class="fills"/><g class="errorbars"/><g class="lines"><path class="js-line" d="M0,230.65L10.36,225.5L15.54,223.05L20.72,230.71L25.89,228.97" style="vector-effect: non-scaling-stroke; fill: none; stroke: rgb(182, 187, 34); stroke-opacity: 1; stroke-width: 2px; opacity: 1;"/></g><g class="points"/><g class="text"/></g><g class="trace scatter trace7e6854ae-4740-45de-8ad5-b71b8d8ae645" style="stroke-miterlimit: 2; opacity: 0.5;"><g class="fills"/><g class="errorbars"/><g class="lines"><path class="js-line" d="M0,230.65L5.18,229.69L10.36,227.63L20.72,226.66L25.89,222.36L36.25,221.23L41.43,221.92L46.61,224.81L51.79,223.37L56.97,224.25L62.15,223.14L67.33,222.82L72.5,224.83L77.68,229.15L82.86,228.64L88.04,230.86L93.22,229.93L98.4,231.03L103.58,235.91" style="vector-effect: non-scaling-stroke; fill: none; stroke: rgb(177, 186, 34); stroke-opacity: 1; stroke-width: 2px; opacity: 1;"/></g><g class="points"/><g class="text"/></g><g class="trace scatter trace44add720-fbd6-49e2-8c65-3122d4ef86fb" style="stroke-miterlimit: 2; opacity: 0.5;"><g class="fills"/><g class="errorbars"/><g class="lines"><path class="js-line" d="M0,230.65L5.18,229.19L10.36,229.62L15.54,225.52L20.72,227.67L25.89,225.67L31.07,225.7L36.25,219.39L41.43,220.55L51.79,218.9L56.97,215.59L62.15,213.08L67.33,218.63L72.5,220.83L77.68,219.96L82.86,220.59L88.04,217.34L93.22,221.35L98.4,224.14L108.76,218.55L113.93,219.12L124.29,220.5L129.47,217.14L134.65,217.61L139.83,219.8L145.01,220.47L150.19,219.69L155.37,217.06L160.54,210.86L165.72,211.7L170.9,214.71L176.08,214.87L181.26,215.82L186.44,215.45L191.62,213.79L196.8,216.57L201.98,221.75L207.15,221.33L212.33,226.36L222.69,222.26L227.87,223.84L233.05,227.3L238.23,225.42L243.41,226L248.59,223.35L253.76,230.98" style="vector-effect: non-scaling-stroke; fill: none; stroke: rgb(161, 183, 35); stroke-opacity: 1; stroke-width: 2px; opacity: 1;"/></g><g class="points"/><g class="text"/></g><g class="trace scatter trace333589e4-4f93-48f8-85bc-c831cb901a1a" style="stroke-miterlimit: 2; opacity: 0.5;"><g class="fills"/><g class="errorbars"/><g class="lines"><path class="js-line" d="M0,230.65L10.36,234.19L15.54,234.47L20.72,234.76L25.89,233.9L31.07,230.34L36.25,231.53L41.43,237.49L46.61,238.44L51.79,238.26L56.97,241.26L62.15,243.7L67.33,241.54L72.5,243.27L77.68,241.36L82.86,239.78" style="vector-effect: non-scaling-stroke; fill: none; stroke: rgb(207, 109, 24); stroke-opacity: 1; stroke-width: 2px; opacity: 1;"/></g><g class="points"/><g class="text"/></g><g class="trace scatter tracea08f4be4-5020-4d98-94cf-2a51c0ed36ef" style="stroke-miterlimit: 2; opacity: 0.5;"><g class="fills"/><g class="errorbars"/><g class="lines"><path class="js-line" d="M0,230.65L5.18,229.26L10.36,226.51L15.54,227.3L20.72,221.62L25.89,224.8L31.07,229.62L36.25,227.76L41.43,224.88L46.61,226.69L51.79,226.14L56.97,226.04L62.15,227.11L67.33,231.8L72.5,231.43L77.68,234.35" style="vector-effect: non-scaling-stroke; fill: none; stroke: rgb(179, 187, 34); stroke-opacity: 1; stroke-width: 2px; opacity: 1;"/></g><g class="points"/><g class="text"/></g><g class="trace scatter trace9c54d0bb-336a-445b-a8c6-73f4d71c9834" style="stroke-miterlimit: 2; opacity: 0.5;"><g class="fills"/><g class="errorbars"/><g class="lines"><path class="js-line" d="M0,230.65L5.18,229.45L10.36,239.36L20.72,239.07L25.89,243.41L31.07,243.87L36.25,247.95" style="vector-effect: non-scaling-stroke; fill: none; stroke: rgb(212, 88, 21); stroke-opacity: 1; stroke-width: 2px; opacity: 1;"/></g><g class="points"/><g class="text"/></g><g class="trace scatter traceb44b8916-43a1-4a3f-a0c3-ead773757681" style="stroke-miterlimit: 2; opacity: 0.5;"><g class="fills"/><g class="errorbars"/><g class="lines"><path class="js-line" d="M0,230.65L5.18,228.87L10.36,231.63L15.54,232.46" style="vector-effect: non-scaling-stroke; fill: none; stroke: rgb(189, 183, 33); stroke-opacity: 1; stroke-width: 2px; opacity: 1;"/></g><g class="points"/><g class="text"/></g><g class="trace scatter trace3972ade9-ac58-435a-b6d9-fc61d2750d2d" style="stroke-miterlimit: 2; opacity: 0.5;"><g class="fills"/><g class="errorbars"/><g class="lines"><path class="js-line" d="M0,230.65L5.18,232.74L10.36,228.9L15.54,229.69L20.72,225.97L25.89,226.37L31.07,224.67L36.25,223.77L41.43,225.67" style="vector-effect: non-scaling-stroke; fill: none; stroke: rgb(177, 186, 34); stroke-opacity: 1; stroke-width: 2px; opacity: 1;"/></g><g class="points"/><g class="text"/></g><g class="trace scatter trace00795e1c-2d88-4005-b6f9-cc823d987968" style="stroke-miterlimit: 2; opacity: 0.5;"><g class="fills"/><g class="errorbars"/><g class="lines"><path class="js-line" d="M0,230.65L5.18,231.06L10.36,229.1L20.72,227.28L25.89,227.84L36.25,224.48L41.43,215.1L46.61,216.15L51.79,214.49L56.97,214.5L62.15,212.49L67.33,208.51L72.5,214.74L77.68,213.48L82.86,213.71L88.04,208.99L93.22,208.84L98.4,210.28L103.58,208.85L108.76,209.53L113.93,207.73L119.11,212L124.29,210.53L129.47,208.69L134.65,208.86L145.01,207.57L150.19,204.41L155.37,207.28L160.54,208.91L165.72,208.06L170.9,210.81L176.08,209.69L181.26,209.82L186.44,208.96L191.62,212.63L196.8,211.41L201.98,212.53L207.15,210.85L212.33,211.37L217.51,209.28L222.69,209.81" style="vector-effect: non-scaling-stroke; fill: none; stroke: rgb(136, 178, 37); stroke-opacity: 1; stroke-width: 2px; opacity: 1;"/></g><g class="points"/><g class="text"/></g><g class="trace scatter traceb1faa0ae-cf32-4f68-8d79-be3987d5d223" style="stroke-miterlimit: 2; opacity: 0.5;"><g class="fills"/><g class="errorbars"/><g class="lines"><path class="js-line" d="M0,230.65L5.18,234.11L10.36,233.47L15.54,231.49" style="vector-effect: non-scaling-stroke; fill: none; stroke: rgb(193, 167, 31); stroke-opacity: 1; stroke-width: 2px; opacity: 1;"/></g><g class="points"/><g class="text"/></g><g class="trace scatter traceeea79bae-9b27-4672-9dc4-d5f25fc1db64" style="stroke-miterlimit: 2; opacity: 0.5;"><g class="fills"/><g class="errorbars"/><g class="lines"><path class="js-line" d="M0,230.65L5.18,229.75L10.36,228L20.72,226.31L25.89,227.09L36.25,226.48L41.43,227.81L51.79,226.49L56.97,224.7L62.15,223.56L67.33,217.29L72.5,215.94L77.68,216.27L82.86,214.91L88.04,215.51L93.22,215.34L98.4,211.14L103.58,213.8L108.76,212.44L113.93,211.68L119.11,210.02L124.29,210.23L129.47,211.76L134.65,208.35L139.83,207.48L145.01,197.07L150.19,197.14L155.37,202.63L160.54,197.9L165.72,198.95L170.9,199.18L176.08,196.39L181.26,192.02L186.44,191.81L191.62,193.61L196.8,194.43L201.98,188.98L207.15,182.17L212.33,181.33L217.51,181.14L222.69,175L227.87,174.66L233.05,176.74L238.23,177.07L243.41,171.37L248.59,174.54L253.76,185.84L258.94,185.92L264.12,181.74L269.3,178.39L274.48,167.51L279.66,174.21L284.84,171.05L290.02,169.49L295.2,175.04L300.37,171.46L305.55,169.94L310.73,171.32L315.91,177.39L321.09,175.83L326.27,177.89L331.45,179.46L336.63,173.9L341.8,171.26L346.98,170.56L352.16,169.45L357.34,155.71L362.52,145.19L367.7,142.95L372.88,137.81L378.06,140.45L383.24,145.75L388.41,137.89L393.59,142.05L398.77,138.48L403.95,131.4L409.13,118.58L414.31,120.1L419.49,114.36L424.67,112.16L429.85,101.43L435.02,101.08L440.2,98.15L445.38,77.66L450.56,71.74L455.74,79.02L460.92,64.9L471.28,25.44L476.46,17.15L481.63,20.71L486.81,34.67L491.99,54.43L497.17,64.17L502.35,40.27L507.53,27.51L512.71,44.8L517.89,50.18L523.07,51.38L528.24,45.6L533.42,50.92L538.6,53.97L543.78,87.22" style="vector-effect: non-scaling-stroke; fill: none; stroke: rgb(44, 160, 44); stroke-opacity: 1; stroke-width: 2px; opacity: 1;"/></g><g class="points"/><g class="text"/></g><g class="trace scatter trace640a7d15-e47e-43e1-93ac-e53d79feee5e" style="stroke-miterlimit: 2; opacity: 0.5;"><g class="fills"/><g class="errorbars"/><g class="lines"><path class="js-line" d="M0,230.65L5.18,229.95L10.36,230.49L20.72,227.23L25.89,218.16L31.07,219.18L36.25,217.57L41.43,217.58L46.61,215.63L51.79,211.78L56.97,217.81L62.15,216.59L67.33,216.82L72.5,212.25L77.68,212.1L82.86,213.49L88.04,212.11L93.22,212.77L98.4,211.03L103.58,215.16L108.76,213.74L113.93,211.96L119.11,212.12L129.47,210.88L134.65,207.82L139.83,210.6L145.01,212.17L150.19,211.35L155.37,214.01L160.54,212.93L165.72,213.05L170.9,212.22L176.08,215.77L181.26,214.59L186.44,215.67L191.62,214.05L196.8,214.55L201.98,212.53L207.15,213.04L212.33,210.79L217.51,215.19L222.69,225.5" style="vector-effect: non-scaling-stroke; fill: none; stroke: rgb(144, 180, 37); stroke-opacity: 1; stroke-width: 2px; opacity: 1;"/></g><g class="points"/><g class="text"/></g><g class="trace scatter tracec2a39c23-cbdb-4c38-97a4-f41fe50b7ab9" style="stroke-miterlimit: 2; opacity: 0.5;"><g class="fills"/><g class="errorbars"/><g class="lines"><path class="js-line" d="M0,230.65L5.18,230.65L10.36,226.35L15.54,227.81L20.72,230.99L31.07,234.21L36.25,231.23L41.43,228.99L46.61,225.11L51.79,221.7L56.97,223.23L62.15,218.4L67.33,219.71L72.5,219.86L77.68,222.04L82.86,215.36L88.04,216.8L93.22,216.98L98.4,219.09L103.58,221.46L108.76,221.44L113.93,217.4L119.11,212.37L124.29,213.35L129.47,212.53L134.65,212.04L139.83,215.61L145.01,213.05L150.19,217.24L155.37,212.86L160.54,213.21L165.72,213.46L170.9,216.96L176.08,216.73L181.26,213.37L191.62,211.04L196.8,211.2L201.98,207.58L207.15,205.8L212.33,217.2L217.51,218.8L222.69,218.12L227.87,221.15L233.05,220.52L238.23,218.85L243.41,220.98" style="vector-effect: non-scaling-stroke; fill: none; stroke: rgb(155, 182, 36); stroke-opacity: 1; stroke-width: 2px; opacity: 1;"/></g><g class="points"/><g class="text"/></g><g class="trace scatter traceee2a0569-7376-4751-a7e9-b3c070cae4cf" style="stroke-miterlimit: 2; opacity: 0.5;"><g class="fills"/><g class="errorbars"/><g class="lines"><path class="js-line" d="M0,230.65L5.18,233.08L10.36,233.2L15.54,233.97L20.72,233.67L25.89,232.33L31.07,234.57L36.25,238.74L41.43,238.41L46.61,242.46L51.79,241.1L56.97,239.15L62.15,240.43L67.33,243.22L72.5,241.7" style="vector-effect: non-scaling-stroke; fill: none; stroke: rgb(209, 99, 23); stroke-opacity: 1; stroke-width: 2px; opacity: 1;"/></g><g class="points"/><g class="text"/></g><g class="trace scatter trace340b6eed-26c0-4f31-b0ed-141e6083372f" style="stroke-miterlimit: 2; opacity: 0.5;"><g class="fills"/><g class="errorbars"/><g class="lines"><path class="js-line" d="M0,230.65L15.54,231.51L20.72,231.38L31.07,231.46L36.25,229.51L46.61,227.7L51.79,228.25L62.15,224.91L67.33,215.57L72.5,216.62L77.68,214.97L82.86,214.98L88.04,212.98L93.22,209.02L98.4,215.22L103.58,213.96L108.76,214.2L113.93,209.5L119.11,209.35L124.29,210.78L129.47,209.36L134.65,210.04L139.83,208.24L145.01,212.5L150.19,211.03L155.37,209.2L160.54,209.37L170.9,208.09L176.08,204.94L181.26,207.8L186.44,209.42L191.62,208.58L196.8,211.31L201.98,210.19L207.15,210.32L212.33,209.47L217.51,213.12L222.69,211.91L227.87,213.02" style="vector-effect: non-scaling-stroke; fill: none; stroke: rgb(142, 179, 37); stroke-opacity: 1; stroke-width: 2px; opacity: 1;"/></g><g class="points"/><g class="text"/></g><g class="trace scatter trace7e22f70f-4baa-4e16-8ab5-15b78729d769" style="stroke-miterlimit: 2; opacity: 0.5;"><g class="fills"/><g class="errorbars"/><g class="lines"><path class="js-line" d="M0,230.65L5.18,232.16L10.36,234.87L15.54,232.05L20.72,231.96L25.89,229.8L31.07,229.49L36.25,229.68L41.43,224.74L46.61,225.56L51.79,225.29L62.15,229.48L67.33,234.61L72.5,235.3L77.68,234.25L88.04,240.54L93.22,241.3" style="vector-effect: non-scaling-stroke; fill: none; stroke: rgb(191, 173, 32); stroke-opacity: 1; stroke-width: 2px; opacity: 1;"/></g><g class="points"/><g class="text"/></g><g class="trace scatter trace8aeda756-2473-4a04-9c28-7194562c8f62" style="stroke-miterlimit: 2; opacity: 0.5;"><g class="fills"/><g class="errorbars"/><g class="lines"><path class="js-line" d="M0,230.65L5.18,233.25L10.36,231.96L15.54,232.75L20.72,231.75L25.89,231.46L31.07,233.27L36.25,237.16L41.43,236.7L46.61,238.7L51.79,237.86L56.97,238.85L62.15,243.24L67.33,242.33L72.5,240.54L77.68,242.56L82.86,241.54L88.04,241.83L93.22,243L103.58,239.96L108.76,240.19" style="vector-effect: non-scaling-stroke; fill: none; stroke: rgb(210, 95, 22); stroke-opacity: 1; stroke-width: 2px; opacity: 1;"/></g><g class="points"/><g class="text"/></g><g class="trace scatter trace3e5fb93d-59da-43e6-92bb-a556d9550d3a" style="stroke-miterlimit: 2; opacity: 0.5;"><g class="fills"/><g class="errorbars"/><g class="lines"><path class="js-line" d="M0,230.65L10.36,230.32L15.54,235.19L20.72,235.72L25.89,240.3L31.07,241.4" style="vector-effect: non-scaling-stroke; fill: none; stroke: rgb(200, 136, 27); stroke-opacity: 1; stroke-width: 2px; opacity: 1;"/></g><g class="points"/><g class="text"/></g><g class="trace scatter trace30346330-db25-4192-bac9-da25b3a2d9d1" style="stroke-miterlimit: 2; opacity: 0.5;"><g class="fills"/><g class="errorbars"/><g class="lines"><path class="js-line" d="M0,230.65L5.18,229.69L10.36,227.63L20.72,226.66L25.89,222.36L36.25,221.23L41.43,221.92L46.61,224.81L51.79,223.37L56.97,224.25L62.15,223.14L67.33,222.82L72.5,224.83L77.68,229.15L82.86,228.64L88.04,230.86L93.22,229.93L98.4,231.03" style="vector-effect: non-scaling-stroke; fill: none; stroke: rgb(175, 186, 34); stroke-opacity: 1; stroke-width: 2px; opacity: 1;"/></g><g class="points"/><g class="text"/></g><g class="trace scatter trace105641a6-8ac7-4c9b-bb9d-7455724e3df6" style="stroke-miterlimit: 2; opacity: 0.5;"><g class="fills"/><g class="errorbars"/><g class="lines"><path class="js-line" d="M0,230.65L5.18,230.06L10.36,230.58L20.72,230.96L25.89,231.5L46.61,231.27" style="vector-effect: non-scaling-stroke; fill: none; stroke: rgb(188, 186, 33); stroke-opacity: 1; stroke-width: 2px; opacity: 1;"/></g><g class="points"/><g class="text"/></g><g class="trace scatter trace155a880a-8443-4faf-8ef4-faa950c43ab9" style="stroke-miterlimit: 2; opacity: 0.5;"><g class="fills"/><g class="errorbars"/><g class="lines"><path class="js-line" d="M0,230.65L5.18,232.16L10.36,229.64L20.72,231.78" style="vector-effect: non-scaling-stroke; fill: none; stroke: rgb(187, 188, 34); stroke-opacity: 1; stroke-width: 2px; opacity: 1;"/></g><g class="points"/><g class="text"/></g><g class="trace scatter trace0966a36a-f482-40ad-87f1-1e41d17d96ad" style="stroke-miterlimit: 2; opacity: 0.5;"><g class="fills"/><g class="errorbars"/><g class="lines"><path class="js-line" d="M0,230.65L5.18,231.32L10.36,234.06L20.72,233.52" style="vector-effect: non-scaling-stroke; fill: none; stroke: rgb(196, 155, 29); stroke-opacity: 1; stroke-width: 2px; opacity: 1;"/></g><g class="points"/><g class="text"/></g><g class="trace scatter trace10012b42-16ff-489c-b223-d4cfdee67d2f" style="stroke-miterlimit: 2; opacity: 0.5;"><g class="fills"/><g class="errorbars"/><g class="lines"><path class="js-line" d="M0,230.65L5.18,232.16L10.36,229.64L20.72,231.78L25.89,232.8L31.07,236.77" style="vector-effect: non-scaling-stroke; fill: none; stroke: rgb(191, 176, 32); stroke-opacity: 1; stroke-width: 2px; opacity: 1;"/></g><g class="points"/><g class="text"/></g><g class="trace scatter trace47f7dc2d-ccf1-407c-bbb0-9de636d304ba" style="stroke-miterlimit: 2; opacity: 0.5;"><g class="fills"/><g class="errorbars"/><g class="lines"><path class="js-line" d="M0,230.65L5.18,228.92L10.36,228.38L15.54,227.25L20.72,228.02L31.07,227.41L36.25,228.74L46.61,227.43L51.79,225.66L56.97,224.53L62.15,218.33L67.33,217L72.5,217.32L77.68,215.98L82.86,216.57L88.04,216.4L93.22,212.25L98.4,214.88L103.58,213.53L108.76,212.79L113.93,211.14L119.11,211.35L124.29,212.86L129.47,209.49L134.65,208.63L139.83,198.34L145.01,198.41L150.19,203.83L155.37,199.16L160.54,200.2L165.72,200.42L170.9,197.67L176.08,193.35L181.26,193.14L186.44,194.92L191.62,195.73L196.8,190.34L201.98,183.61L207.15,182.78L212.33,182.59L217.51,176.52L222.69,176.18L227.87,178.24L233.05,178.57L238.23,172.93L243.41,176.07L248.59,187.24L253.76,187.31L258.94,183.18L264.12,179.87L269.3,169.12L274.48,175.74L279.66,172.62L284.84,171.07L290.02,176.56L295.2,173.02L300.37,171.51L305.55,172.88L310.73,178.88L315.91,177.34L321.09,179.38L326.27,180.93L331.45,175.43L336.63,172.83L341.8,172.13L346.98,171.04L352.16,157.45L357.34,147.05L362.52,144.84L367.7,139.75L372.88,142.36L378.06,147.6L383.24,139.83L388.41,143.95L393.59,140.41L398.77,133.41L403.95,120.74L409.13,122.25L414.31,116.57L419.49,114.39L424.67,103.78L429.85,103.44L435.02,100.54L440.2,80.28L445.38,74.43L450.56,81.63L455.74,67.67L466.1,28.65L471.28,20.46L476.46,23.98L481.63,37.77L486.81,57.32L491.99,66.95L497.17,43.32L502.35,30.7L507.53,47.79L512.71,53.11L517.89,54.3L523.07,48.58L528.24,53.85L533.42,56.86L538.6,89.73L543.78,74.82L548.96,80.99" style="vector-effect: non-scaling-stroke; fill: none; stroke: rgb(47, 160, 43); stroke-opacity: 1; stroke-width: 2px; opacity: 1;"/></g><g class="points"/><g class="text"/></g><g class="trace scatter tracef470430a-ff6e-4fb9-b643-3d57f44f51c1" style="stroke-miterlimit: 2; opacity: 0.5;"><g class="fills"/><g class="errorbars"/><g class="lines"><path class="js-line" d="M0,230.65L5.18,228.62L10.36,228.03L15.54,227.66L20.72,223.41L31.07,222.3L36.25,222.97L41.43,225.83L46.61,224.41L51.79,225.28L56.97,224.18L62.15,223.87L67.33,225.85L72.5,230.12L77.68,229.62L82.86,231.81L88.04,230.89L93.22,231.98L98.4,236.8L103.58,235.8L108.76,233.83" style="vector-effect: non-scaling-stroke; fill: none; stroke: rgb(180, 187, 34); stroke-opacity: 1; stroke-width: 2px; opacity: 1;"/></g><g class="points"/><g class="text"/></g><g class="trace scatter trace90e01fa3-2a18-4f23-aeb3-d7b1c0e9fef9" style="stroke-miterlimit: 2; opacity: 0.5;"><g class="fills"/><g class="errorbars"/><g class="lines"><path class="js-line" d="M0,230.65L5.18,232.6L10.36,233.46L15.54,231.98L20.72,225.57L25.89,230.6L31.07,231.98L36.25,231.83" style="vector-effect: non-scaling-stroke; fill: none; stroke: rgb(191, 173, 32); stroke-opacity: 1; stroke-width: 2px; opacity: 1;"/></g><g class="points"/><g class="text"/></g><g class="trace scatter trace4345df2e-4a20-488f-9a9e-8d30c7583a2e" style="stroke-miterlimit: 2; opacity: 0.5;"><g class="fills"/><g class="errorbars"/><g class="lines"><path class="js-line" d="M0,230.65L10.36,229.01L15.54,229.76L25.89,229.17L31.07,230.47L41.43,229.19L46.61,227.46L51.79,226.35L56.97,220.29L62.15,218.98L67.33,219.3L72.5,217.98L77.68,218.56L82.86,218.4L88.04,214.33L93.22,216.91L98.4,215.59L103.58,214.86L108.76,213.25L113.93,213.46L119.11,214.94L124.29,211.63L129.47,210.79L134.65,200.72L139.83,200.79L145.01,206.1L150.19,201.52L155.37,202.55L160.54,202.76L165.72,200.07L170.9,195.84L176.08,195.64L181.26,197.38L186.44,198.17L191.62,192.9L196.8,186.31L201.98,185.5L207.15,185.31L212.33,179.37L217.51,179.04L222.69,181.05L227.87,181.38L233.05,175.86L238.23,178.93L243.41,189.86L248.59,189.93L253.76,185.89L258.94,182.65L264.12,172.13L269.3,178.61L274.48,175.55L279.66,174.04L284.84,179.41L290.02,175.95L295.2,174.47L300.37,175.81L305.55,181.68L310.73,180.17L315.91,182.17L321.09,183.69L326.27,178.31L331.45,175.76L336.63,175.07L341.8,174.01L346.98,160.71L352.16,150.53L357.34,148.37L362.52,143.4L367.7,145.95L372.88,151.07L378.06,143.47L383.24,147.5L388.41,144.04L393.59,137.19L398.77,124.79L403.95,126.26L409.13,120.71L414.31,118.58L419.49,108.2L424.67,107.86L429.85,105.02L435.02,85.2L440.2,79.47L445.38,86.52L450.56,72.86L460.92,34.68L466.1,26.66L471.28,30.11L476.46,43.61L481.63,62.73L486.81,72.15L491.99,49.03L497.17,36.68L502.35,53.41L507.53,58.62L512.71,59.77L517.89,54.18L523.07,59.34L528.24,62.28L533.42,94.45L538.6,79.86L543.78,85.89L548.96,84.63L554.14,84.67" style="vector-effect: non-scaling-stroke; fill: none; stroke: rgb(53, 161, 43); stroke-opacity: 1; stroke-width: 2px; opacity: 1;"/></g><g class="points"/><g class="text"/></g><g class="trace scatter traceac99cd0d-4774-4f0c-b064-1dceb346514d" style="stroke-miterlimit: 2; opacity: 0.5;"><g class="fills"/><g class="errorbars"/><g class="lines"><path class="js-line" d="M0,230.65L5.18,229.69L10.36,227.63L20.72,226.66L25.89,222.36L36.25,221.23L41.43,221.92L46.61,224.81L51.79,223.37L56.97,224.25L62.15,223.14L67.33,222.82L72.5,224.83L77.68,229.15L82.86,228.64L88.04,230.86L93.22,229.93L98.4,231.03" style="vector-effect: non-scaling-stroke; fill: none; stroke: rgb(175, 186, 34); stroke-opacity: 1; stroke-width: 2px; opacity: 1;"/></g><g class="points"/><g class="text"/></g><g class="trace scatter trace8c8f6898-ca9e-4977-818f-550674addbe4" style="stroke-miterlimit: 2; opacity: 0.5;"><g class="fills"/><g class="errorbars"/><g class="lines"><path class="js-line" d="M0,230.65L5.18,228.62L10.36,228.03L15.54,227.66L20.72,223.41L31.07,222.3L36.25,222.97L41.43,225.83L46.61,224.41L51.79,225.28L56.97,224.18L62.15,223.87L67.33,225.85L72.5,230.12L77.68,229.62L82.86,231.81L88.04,230.89L93.22,231.98L98.4,236.8L103.58,235.8L108.76,233.83L113.93,236.04" style="vector-effect: non-scaling-stroke; fill: none; stroke: rgb(180, 187, 34); stroke-opacity: 1; stroke-width: 2px; opacity: 1;"/></g><g class="points"/><g class="text"/></g><g class="trace scatter trace32c55623-71f7-4771-81ea-530d085a2564" style="stroke-miterlimit: 2; opacity: 0.5;"><g class="fills"/><g class="errorbars"/><g class="lines"><path class="js-line" d="M0,230.65L10.36,231.03L15.54,231.58L36.25,231.35L41.43,229.39L51.79,227.58L56.97,228.14L67.33,224.79L72.5,215.44L77.68,216.49L82.86,214.84L88.04,214.85L93.22,212.84L98.4,208.88L103.58,215.09L108.76,213.82L113.93,214.06L119.11,209.36L124.29,209.21L129.47,210.64L134.65,209.22L139.83,209.89L145.01,208.1L150.19,212.36L155.37,210.89L160.54,209.06L165.72,209.22L176.08,207.94L181.26,204.79L186.44,207.65L191.62,209.27L196.8,208.43L201.98,211.17L207.15,210.05L212.33,210.18L217.51,209.33L222.69,212.98" style="vector-effect: non-scaling-stroke; fill: none; stroke: rgb(142, 179, 37); stroke-opacity: 1; stroke-width: 2px; opacity: 1;"/></g><g class="points"/><g class="text"/></g><g class="trace scatter tracecccd420f-83d5-489e-8e05-dc7f4b742331" style="stroke-miterlimit: 2; opacity: 0.5;"><g class="fills"/><g class="errorbars"/><g class="lines"><path class="js-line" d="M0,230.65L5.18,215.28L10.36,215.19L15.54,218.46L20.72,212.05L25.89,213.43L31.07,213.7L36.25,210.82L41.43,212.17L46.61,209.69L51.79,203.64L56.97,204.79L62.15,195.96L67.33,196.09L72.5,192.91L77.68,199.65L82.86,210.18L88.04,208.59L93.22,213.87L98.4,215.48L103.58,215.83L108.76,217.8L113.93,208.77L119.11,211.1L124.29,207.23L129.47,211.23L134.65,210.46L139.83,210.2" style="vector-effect: non-scaling-stroke; fill: none; stroke: rgb(136, 178, 37); stroke-opacity: 1; stroke-width: 2px; opacity: 1;"/></g><g class="points"/><g class="text"/></g><g class="trace scatter trace9001b3c2-915f-44e6-a25d-60488521d550" style="stroke-miterlimit: 2; opacity: 0.5;"><g class="fills"/><g class="errorbars"/><g class="lines"><path class="js-line" d="M0,230.65L10.36,235.57" style="vector-effect: non-scaling-stroke; fill: none; stroke: rgb(194, 162, 30); stroke-opacity: 1; stroke-width: 2px; opacity: 1;"/></g><g class="points"/><g class="text"/></g><g class="trace scatter trace8c7be9fe-092f-4f5f-821d-5b28ee07d91e" style="stroke-miterlimit: 2; opacity: 0.5;"><g class="fills"/><g class="errorbars"/><g class="lines"><path class="js-line" d="M0,230.65L5.18,233.92L10.36,232.77L15.54,242.28L20.72,242.22L25.89,241.99L31.07,246.15L36.25,246.6" style="vector-effect: non-scaling-stroke; fill: none; stroke: rgb(220, 57, 18); stroke-opacity: 1; stroke-width: 2px; opacity: 1;"/></g><g class="points"/><g class="text"/></g><g class="trace scatter trace05375521-251d-4476-91dc-8b04ad44eed2" style="stroke-miterlimit: 2; opacity: 0.5;"><g class="fills"/><g class="errorbars"/><g class="lines"><path class="js-line" d="M0,230.65L5.18,226.85L10.36,227.23L20.72,226.56L25.89,227.16L31.07,226.05L36.25,226.54L41.43,227.75L46.61,228.12L51.79,228.34" style="vector-effect: non-scaling-stroke; fill: none; stroke: rgb(178, 187, 34); stroke-opacity: 1; stroke-width: 2px; opacity: 1;"/></g><g class="points"/><g class="text"/></g><g class="trace scatter tracefbccae45-4a8f-493a-9889-c57ad786554f" style="stroke-miterlimit: 2; opacity: 0.5;"><g class="fills"/><g class="errorbars"/><g class="lines"><path class="js-line" d="M0,230.65L5.18,235.34L10.36,236.04L15.54,235.8L20.72,244.04L36.25,237.73L41.43,244.09" style="vector-effect: non-scaling-stroke; fill: none; stroke: rgb(207, 106, 24); stroke-opacity: 1; stroke-width: 2px; opacity: 1;"/></g><g class="points"/><g class="text"/></g><g class="trace scatter traceabe8e73c-3322-4d54-b15d-80d78cf57738" style="stroke-miterlimit: 2; opacity: 0.5;"><g class="fills"/><g class="errorbars"/><g class="lines"><path class="js-line" d="M0,230.65L5.18,225.2L10.36,228.25L15.54,232.87L20.72,231.09L25.89,228.32L31.07,230.06L41.43,229.44L46.61,230.47L51.79,234.96L56.97,234.61L62.15,237.41L67.33,238.8L72.5,233.67L77.68,232.58L82.86,232.63L88.04,230.08L93.22,228.55L98.4,228.56L108.76,228.27L113.93,230.88L119.11,229.3" style="vector-effect: non-scaling-stroke; fill: none; stroke: rgb(187, 188, 34); stroke-opacity: 1; stroke-width: 2px; opacity: 1;"/></g><g class="points"/><g class="text"/></g><g class="trace scatter trace7713ab23-2535-4183-a0b5-72f56281ee76" style="stroke-miterlimit: 2; opacity: 0.5;"><g class="fills"/><g class="errorbars"/><g class="lines"><path class="js-line" d="M0,230.65L5.18,228.09L10.36,228.83L20.72,231.3L25.89,235.36L31.07,235.98L36.25,238.56" style="vector-effect: non-scaling-stroke; fill: none; stroke: rgb(188, 185, 33); stroke-opacity: 1; stroke-width: 2px; opacity: 1;"/></g><g class="points"/><g class="text"/></g><g class="trace scatter tracef780ea41-6f3e-4da8-9d03-20f30a79f1a3" style="stroke-miterlimit: 2; opacity: 0.5;"><g class="fills"/><g class="errorbars"/><g class="lines"><path class="js-line" d="M0,230.65L5.18,232.03L10.36,231.88L15.54,233.93" style="vector-effect: non-scaling-stroke; fill: none; stroke: rgb(191, 173, 32); stroke-opacity: 1; stroke-width: 2px; opacity: 1;"/></g><g class="points"/><g class="text"/></g><g class="trace scatter tracea58bc5c5-7766-4c66-a6c2-e7d54c0f0c15" style="stroke-miterlimit: 2; opacity: 0.5;"><g class="fills"/><g class="errorbars"/><g class="lines"><path class="js-line" d="M0,230.65L5.18,231.17L10.36,235.84L15.54,236.53L20.72,236.29L25.89,244.47L31.07,242.63L36.25,240.23" style="vector-effect: non-scaling-stroke; fill: none; stroke: rgb(204, 122, 25); stroke-opacity: 1; stroke-width: 2px; opacity: 1;"/></g><g class="points"/><g class="text"/></g><g class="trace scatter tracec7591ec6-df37-43c9-b23b-d833540d65c0" style="stroke-miterlimit: 2; opacity: 0.5;"><g class="fills"/><g class="errorbars"/><g class="lines"><path class="js-line" d="M0,230.65L5.18,215.28L10.36,215.19L15.54,218.46L20.72,212.05L25.89,213.43L31.07,213.7L36.25,210.82L41.43,212.17L46.61,209.69L51.79,203.64L56.97,204.79L62.15,195.96L67.33,196.09L72.5,192.91L77.68,199.65L82.86,210.18L88.04,208.59L93.22,213.87L98.4,215.48L103.58,215.83L108.76,217.8L113.93,208.77L119.11,211.1L124.29,207.23L129.47,211.23L134.65,210.46L139.83,210.2" style="vector-effect: non-scaling-stroke; fill: none; stroke: rgb(136, 178, 37); stroke-opacity: 1; stroke-width: 2px; opacity: 1;"/></g><g class="points"/><g class="text"/></g><g class="trace scatter tracec48513fc-b2b6-4445-9b3b-b66199eeac01" style="stroke-miterlimit: 2; opacity: 0.5;"><g class="fills"/><g class="errorbars"/><g class="lines"><path class="js-line" d="M0,230.65L5.18,232.4L10.36,232.88L15.54,230.35L20.72,229.38L25.89,227.31L31.07,226.71L36.25,226.34L41.43,222.03L51.79,220.89L56.97,221.58L62.15,224.48L67.33,223.04L72.5,223.92L77.68,222.81L82.86,222.49L88.04,224.51L93.22,228.84L98.4,228.33L103.58,230.55L108.76,229.62L113.93,230.73L119.11,235.63L124.29,234.61L129.47,232.61" style="vector-effect: non-scaling-stroke; fill: none; stroke: rgb(180, 187, 34); stroke-opacity: 1; stroke-width: 2px; opacity: 1;"/></g><g class="points"/><g class="text"/></g><g class="trace scatter trace1d0080e8-4d49-44b5-9a94-1016d6d0209c" style="stroke-miterlimit: 2; opacity: 0.5;"><g class="fills"/><g class="errorbars"/><g class="lines"><path class="js-line" d="M0,230.65L10.36,230.71L15.54,230.37L20.72,230.94L25.89,229.89L46.61,232.07L51.79,231.16L56.97,230.24" style="vector-effect: non-scaling-stroke; fill: none; stroke: rgb(188, 187, 33); stroke-opacity: 1; stroke-width: 2px; opacity: 1;"/></g><g class="points"/><g class="text"/></g><g class="trace scatter trace4c6e47b8-7c50-48fb-91a4-319336f12ea0" style="stroke-miterlimit: 2; opacity: 0.5;"><g class="fills"/><g class="errorbars"/><g class="lines"><path class="js-line" d="M0,230.65L5.18,234.17L10.36,234.67L15.54,239.12L20.72,239.78" style="vector-effect: non-scaling-stroke; fill: none; stroke: rgb(199, 142, 28); stroke-opacity: 1; stroke-width: 2px; opacity: 1;"/></g><g class="points"/><g class="text"/></g><g class="trace scatter trace636a2685-2eba-4e09-9086-c3f244feba5b" style="stroke-miterlimit: 2; opacity: 0.5;"><g class="fills"/><g class="errorbars"/><g class="lines"><path class="js-line" d="M0,230.65L5.18,228.82L10.36,225.97L15.54,227.76L20.72,227.22L25.89,227.12L31.07,228.18L36.25,232.8L41.43,232.44L46.61,235.32L51.79,236.75L56.97,231.47L62.15,230.35L67.33,230.4L72.5,227.78L77.68,226.21L82.86,226.21" style="vector-effect: non-scaling-stroke; fill: none; stroke: rgb(182, 187, 34); stroke-opacity: 1; stroke-width: 2px; opacity: 1;"/></g><g class="points"/><g class="text"/></g><g class="trace scatter trace9a49fd9f-489f-4649-8c81-0dc0d4393bb2" style="stroke-miterlimit: 2; opacity: 0.5;"><g class="fills"/><g class="errorbars"/><g class="lines"><path class="js-line" d="M0,230.65L5.18,229.75L10.36,228L20.72,226.31L25.89,227.09L36.25,226.48L41.43,227.81L51.79,226.49L56.97,224.7L62.15,223.56L67.33,217.29L72.5,215.94L77.68,216.27L82.86,214.91L88.04,215.51L93.22,215.34L98.4,211.14L103.58,213.8L108.76,212.44L113.93,211.68L119.11,210.02L124.29,210.23L129.47,211.76L134.65,208.35L139.83,207.48L145.01,197.07L150.19,197.14L155.37,202.63L160.54,197.9L165.72,198.95L170.9,199.18L176.08,196.39L181.26,192.02L186.44,191.81L191.62,193.61L196.8,194.43L201.98,188.98L207.15,182.17L212.33,181.33L217.51,181.14L222.69,175L227.87,174.66L233.05,176.74L238.23,177.07L243.41,171.37L248.59,174.54L253.76,185.84L258.94,185.92L264.12,181.74L269.3,178.39L274.48,167.51L279.66,174.21L284.84,171.05L290.02,169.49L295.2,175.04L300.37,171.46L305.55,169.94L310.73,171.32L315.91,177.39L321.09,175.83L326.27,177.89" style="vector-effect: non-scaling-stroke; fill: none; stroke: rgb(101, 171, 40); stroke-opacity: 1; stroke-width: 2px; opacity: 1;"/></g><g class="points"/><g class="text"/></g><g class="trace scatter trace7bb5e222-bd25-4f27-803d-fbfa6c3c06aa" style="stroke-miterlimit: 2; opacity: 0.5;"><g class="fills"/><g class="errorbars"/><g class="lines"><path class="js-line" d="M0,230.65L5.18,229.25L10.36,232.87" style="vector-effect: non-scaling-stroke; fill: none; stroke: rgb(187, 188, 34); stroke-opacity: 1; stroke-width: 2px; opacity: 1;"/></g><g class="points"/><g class="text"/></g></g></g><g class="overplot"/><path class="xlines-above crisp" d="M0,0" style="fill: none;"/><path class="ylines-above crisp" d="M0,0" style="fill: none;"/><g class="overlines-above"/><g class="xaxislayer-above"><g class="xtick"><text text-anchor="middle" x="0" y="320" transform="translate(58.89,0)" style="font-family: 'Open Sans', verdana, arial, sans-serif; font-size: 12px; fill: rgb(214, 223, 239); fill-opacity: 1; white-space: pre; opacity: 1;"><tspan class="line" dy="0em" x="0" y="320">Jun 5</tspan><tspan class="line" dy="1.3em" x="0" y="320">2022</tspan></text></g><g class="xtick"><text text-anchor="middle" x="0" y="320" style="font-family: 'Open Sans', verdana, arial, sans-serif; font-size: 12px; fill: rgb(214, 223, 239); fill-opacity: 1; white-space: pre; opacity: 1;" transform="translate(131.4,0)">Jun 19</text></g><g class="xtick"><text text-anchor="middle" x="0" y="320" style="font-family: 'Open Sans', verdana, arial, sans-serif; font-size: 12px; fill: rgb(214, 223, 239); fill-opacity: 1; white-space: pre; opacity: 1;" transform="translate(203.9,0)">Jul 3</text></g><g class="xtick"><text text-anchor="middle" x="0" y="320" style="font-family: 'Open Sans', verdana, arial, sans-serif; font-size: 12px; fill: rgb(214, 223, 239); fill-opacity: 1; white-space: pre; opacity: 1;" transform="translate(276.40999999999997,0)">Jul 17</text></g><g class="xtick"><text text-anchor="middle" x="0" y="320" style="font-family: 'Open Sans', verdana, arial, sans-serif; font-size: 12px; fill: rgb(214, 223, 239); fill-opacity: 1; white-space: pre; opacity: 1;" transform="translate(348.91,0)">Jul 31</text></g><g class="xtick"><text text-anchor="middle" x="0" y="320" style="font-family: 'Open Sans', verdana, arial, sans-serif; font-size: 12px; fill: rgb(214, 223, 239); fill-opacity: 1; white-space: pre; opacity: 1;" transform="translate(421.41,0)">Aug 14</text></g><g class="xtick"><text text-anchor="middle" x="0" y="320" style="font-family: 'Open Sans', verdana, arial, sans-serif; font-size: 12px; fill: rgb(214, 223, 239); fill-opacity: 1; white-space: pre; opacity: 1;" transform="translate(493.92,0)">Aug 28</text></g><g class="xtick"><text text-anchor="middle" x="0" y="320" style="font-family: 'Open Sans', verdana, arial, sans-serif; font-size: 12px; fill: rgb(214, 223, 239); fill-opacity: 1; white-space: pre; opacity: 1;" transform="translate(566.42,0)">Sep 11</text></g><g class="xtick"><text text-anchor="middle" x="0" y="320" style="font-family: 'Open Sans', verdana, arial, sans-serif; font-size: 12px; fill: rgb(214, 223, 239); fill-opacity: 1; white-space: pre; opacity: 1;" transform="translate(638.93,0)">Sep 25</text></g></g><g class="yaxislayer-above"><g class="ytick"><text text-anchor="end" x="32" y="4.199999999999999" transform="translate(0,276.65)" style="font-family: 'Open Sans', verdana, arial, sans-serif; font-size: 12px; fill: rgb(214, 223, 239); fill-opacity: 1; white-space: pre; opacity: 1;">1</text></g><g class="ytick"><text text-anchor="end" x="32" y="4.199999999999999" style="font-family: 'Open Sans', verdana, arial, sans-serif; font-size: 12px; fill: rgb(214, 223, 239); fill-opacity: 1; white-space: pre; opacity: 1;" transform="translate(0,237.32)">1.5</text></g><g class="ytick"><text text-anchor="end" x="32" y="4.199999999999999" style="font-family: 'Open Sans', verdana, arial, sans-serif; font-size: 12px; fill: rgb(214, 223, 239); fill-opacity: 1; white-space: pre; opacity: 1;" transform="translate(0,198)">2</text></g><g class="ytick"><text text-anchor="end" x="32" y="4.199999999999999" style="font-family: 'Open Sans', verdana, arial, sans-serif; font-size: 12px; fill: rgb(214, 223, 239); fill-opacity: 1; white-space: pre; opacity: 1;" transform="translate(0,158.67000000000002)">2.5</text></g><g class="ytick"><text text-anchor="end" x="32" y="4.199999999999999" style="font-family: 'Open Sans', verdana, arial, sans-serif; font-size: 12px; fill: rgb(214, 223, 239); fill-opacity: 1; white-space: pre; opacity: 1;" transform="translate(0,119.35)">3</text></g><g class="ytick"><text text-anchor="end" x="32" y="4.199999999999999" style="font-family: 'Open Sans', verdana, arial, sans-serif; font-size: 12px; fill: rgb(214, 223, 239); fill-opacity: 1; white-space: pre; opacity: 1;" transform="translate(0,80.02000000000001)">3.5</text></g></g><g class="overaxes-above"/></g></g><g class="polarlayer"/><g class="smithlayer"/><g class="ternarylayer"/><g class="geolayer"/><g class="funnelarealayer"/><g class="pielayer"/><g class="iciclelayer"/><g class="treemaplayer"/><g class="sunburstlayer"/><g class="glimages"/><defs id="topdefs-071526"><g class="clips"/><clipPath id="legend071526"><rect width="108" height="29" x="0" y="0"/></clipPath></defs><g class="layer-above"><g class="imagelayer"/><g class="shapelayer"/></g><g class="infolayer"><g class="legend" pointer-events="all" transform="translate(562,11.779999999999994)"><rect class="bg" shape-rendering="crispEdges" width="108" height="29" x="0" y="0" style="stroke: rgb(68, 68, 68); stroke-opacity: 1; fill: rgb(33, 34, 44); fill-opacity: 1; stroke-width: 0px;"/><g class="scrollbox" transform="" clip-path="url(#legend071526)"><g class="groups"><g class="traces" transform="translate(0,14.5)" style="opacity: 1;"><text class="legendtext" text-anchor="start" x="40" y="4.680000000000001" style="font-family: 'Open Sans', verdana, arial, sans-serif; font-size: 12px; fill: rgb(214, 223, 239); fill-opacity: 1; white-space: pre;">proj (100)</text><g class="layers" style="opacity: 0.5;"><g class="legendfill"/><g class="legendlines"><path class="js-line" d="M5,0h30" style="fill: none; stroke: rgb(177, 186, 34); stroke-opacity: 1; stroke-width: 2px;"/></g><g class="legendsymbols"><g class="legendpoints"/></g></g><rect class="legendtoggle" x="0" y="-9.5" width="104.515625" height="19" style="fill: rgb(0, 0, 0); fill-opacity: 0;"/></g></g></g><rect class="scrollbar" rx="20" ry="3" width="0" height="0" x="0" y="0" style="fill: rgb(128, 139, 164); fill-opacity: 1;"/></g><g class="g-gtitle"/><g class="g-xtitle"/><g class="g-ytitle"/></g></svg>