<?xml version="1.0" encoding="utf-8"?>
<!-- Generator: Adobe Illustrator 26.0.2, SVG Export Plug-In . SVG Version: 6.00 Build 0)  -->
<svg version="1.1" id="Layer_1" xmlns="http://www.w3.org/2000/svg" xmlns:xlink="http://www.w3.org/1999/xlink" x="0px" y="0px"
	 viewBox="0 0 120 120" style="enable-background:new 0 0 120 120;" xml:space="preserve">
<style type="text/css">
	.st0{stroke:#FFFFFF;stroke-width:0.25;stroke-miterlimit:10;}
	.st1{fill:#FFFFFF;}
</style>
<path class="st0" d="M51.9,92.6"/>
<path d="M95,17.1"/>
<path d="M81.8,17.1"/>
<path d="M47.8,82.3"/>
<g>
	<polygon class="st1" points="88,20 75.8,20 60,50.7 63.8,67 	"/>
	<g>
		<path class="st1" d="M44.1,20H31.7l0,0l19,80h6.8H63l0,0l41-80H91.7c0,0-22.1,42.9-32.6,63.6C59.1,83.6,59.1,83.6,44.1,20z"/>
	</g>
	<polygon class="st1" points="35,100 16,20 28.4,20 47.4,100 	"/>
</g>
<path class="st1" d="M0,0v120h120V0H0z M115,115H5V5h110V115z"/>
</svg>
